<?xml version="1.0" encoding="utf-8"?>
<!-- Generated by IcoMoon.io -->
<!DOCTYPE svg PUBLIC "-//W3C//DTD SVG 1.1//EN" "http://www.w3.org/Graphics/SVG/1.1/DTD/svg11.dtd">
<svg version="1.1" xmlns="http://www.w3.org/2000/svg" xmlns:xlink="http://www.w3.org/1999/xlink" width="24" height="24" viewBox="0 0 24 24">
	<path d="M23.62 6.029l-5.609-3.512c-0.248-0.156-0.559-0.156-0.808 0l-5.203 3.259-5.203-3.258c-0.248-0.156-0.559-0.156-0.808 0l-5.609 3.511c-0.235 0.148-0.38 0.415-0.38 0.702v14.048c0 0.295 0.151 0.569 0.398 0.714s0.548 0.142 0.791-0.011l5.203-3.259 5.203 3.259c0.248 0.156 0.559 0.156 0.809 0l5.203-3.259 5.203 3.259c0.124 0.078 0.264 0.118 0.404 0.118 0.133 0 0.266-0.036 0.386-0.107 0.246-0.145 0.398-0.419 0.398-0.714v-14.048c0-0.287-0.145-0.554-0.38-0.702zM5.608 16.804l-4.038 2.528v-12.137l4.038-2.528v12.137zM11.215 19.332l-4.038-2.528v-12.137l4.038 2.528v12.137zM16.823 16.804l-4.037 2.528v-12.137l4.037-2.528v12.137zM22.429 19.332l-4.037-2.528v-12.137l4.037 2.528v12.137z" fill="#ffc600" />
</svg>
