<?xml version="1.0" encoding="utf-8"?>
<!-- Generated by IcoMoon.io -->
<!DOCTYPE svg PUBLIC "-//W3C//DTD SVG 1.1//EN" "http://www.w3.org/Graphics/SVG/1.1/DTD/svg11.dtd">
<svg version="1.1" xmlns="http://www.w3.org/2000/svg" xmlns:xlink="http://www.w3.org/1999/xlink" width="24" height="24" viewBox="0 0 24 24">
	<path d="M10.92 13.202h2.16v2.4h10.92c0 0-0.178-5.35-0.24-7.025-0.059-1.591-0.628-2.575-2.4-2.575h-3.85c-0.596-1.124-1.238-2.334-1.435-2.706-0.397-0.749-0.533-0.894-1.416-0.894h-5.318c-0.883 0-1.019 0.145-1.416 0.894-0.197 0.372-0.839 1.582-1.435 2.706h-3.85c-1.772 0-2.334 0.984-2.4 2.575s-0.24 7.025-0.24 7.025h10.92v-2.4zM9.18 4.7c0.275-0.518 0.37-0.619 0.979-0.619h3.68c0.612 0 0.706 0.101 0.979 0.619 0.103 0.194 0.382 0.72 0.691 1.301h-7.020c0.308-0.58 0.587-1.105 0.69-1.301zM13.080 19.202h-2.16v-2.4h-10.32c0 0 0.15 2.158 0.24 3.986 0.037 0.76 0.26 2.014 2.159 2.014h18.002c1.898 0 2.117-1.255 2.159-2.014 0.104-1.88 0.24-3.986 0.24-3.986h-10.32v2.4z" fill="#ffc600" />
</svg>
