<?xml version="1.0" encoding="utf-8"?>
<!-- Generated by IcoMoon.io -->
<!DOCTYPE svg PUBLIC "-//W3C//DTD SVG 1.1//EN" "http://www.w3.org/Graphics/SVG/1.1/DTD/svg11.dtd">
<svg version="1.1" xmlns="http://www.w3.org/2000/svg" xmlns:xlink="http://www.w3.org/1999/xlink" width="24" height="24" viewBox="0 0 24 24">
	<path d="M12 0.48c-6.362 0-11.52 5.158-11.52 11.52s5.158 11.52 11.52 11.52 11.52-5.158 11.52-11.52-5.158-11.52-11.52-11.52zM12.787 14.731c-0.738-0.058-1.048-0.424-1.626-0.775-0.319 1.67-0.707 3.271-1.86 4.106-0.355-2.524 0.523-4.418 0.93-6.43-0.695-1.169 0.084-3.523 1.549-2.944 1.804 0.714-1.562 4.349 0.697 4.804 2.359 0.474 3.322-4.093 1.859-5.578-2.113-2.144-6.151-0.049-5.654 3.022 0.121 0.751 0.895 0.978 0.31 2.015-1.352-0.3-1.757-1.367-1.704-2.789 0.084-2.329 2.092-3.959 4.105-4.186 2.548-0.284 4.938 0.935 5.269 3.331 0.371 2.706-1.151 5.634-3.875 5.423z" fill="#ffc600" />
</svg>
