<?xml version="1.0" encoding="utf-8"?>
<!-- Generated by IcoMoon.io -->
<!DOCTYPE svg PUBLIC "-//W3C//DTD SVG 1.1//EN" "http://www.w3.org/Graphics/SVG/1.1/DTD/svg11.dtd">
<svg version="1.1" xmlns="http://www.w3.org/2000/svg" xmlns:xlink="http://www.w3.org/1999/xlink" width="24" height="24" viewBox="0 0 24 24">
	<path d="M14.852 17.338c-2.989-1.078-3.944-1.987-3.944-3.935 0-1.169 0.913-0.787 1.314-2.928 0.167-0.888 0.973-0.014 1.126-2.041 0-0.808-0.439-1.009-0.439-1.009s0.224-1.196 0.311-2.116c0.108-1.147-0.67-4.109-4.819-4.109s-4.927 2.962-4.819 4.109c0.088 0.92 0.312 2.116 0.312 2.116s-0.44 0.2-0.44 1.009c0.155 2.027 0.961 1.153 1.126 2.041 0.402 2.141 1.315 1.759 1.315 2.928 0 1.948-0.956 2.857-3.946 3.935-0.36 0.128-1.218 0.33-1.948 0.646v4.817h19.2c0 0 0-1.775 0-2.526s-1.348-1.855-4.348-2.936zM20.4 10.8v-3.6h-2.4v3.6h-3.6v2.4h3.6v3.6h2.4v-3.6h3.6v-2.4h-3.6z" fill="#ffc600" />
</svg>
