<?xml version="1.0" encoding="utf-8"?>
<!-- Generated by IcoMoon.io -->
<!DOCTYPE svg PUBLIC "-//W3C//DTD SVG 1.1//EN" "http://www.w3.org/Graphics/SVG/1.1/DTD/svg11.dtd">
<svg version="1.1" xmlns="http://www.w3.org/2000/svg" xmlns:xlink="http://www.w3.org/1999/xlink" width="24" height="24" viewBox="0 0 24 24">
	<path d="M23.040 5.152c-0.814 0.361-1.686 0.604-2.603 0.714 0.936-0.56 1.655-1.448 1.992-2.506-0.875 0.518-1.844 0.896-2.875 1.099-0.827-0.881-2.004-1.43-3.307-1.43-2.502 0-4.53 2.028-4.53 4.529 0 0.355 0.040 0.701 0.118 1.032-3.764-0.188-7.103-1.992-9.336-4.733-0.391 0.668-0.616 1.447-0.616 2.278 0 1.572 0.8 2.958 2.016 3.77-0.743-0.024-1.441-0.227-2.052-0.566 0 0.019 0 0.037 0 0.056 0 2.195 1.562 4.025 3.634 4.442-0.379 0.103-0.78 0.158-1.194 0.158-0.292 0-0.575-0.028-0.852-0.080 0.576 1.8 2.25 3.109 4.231 3.145-1.55 1.216-3.503 1.939-5.626 1.939-0.366 0-0.726-0.022-1.080-0.064 2.004 1.285 4.385 2.035 6.944 2.035 8.332 0 12.888-6.902 12.888-12.889 0-0.196-0.004-0.391-0.013-0.586 0.886-0.638 1.652-1.436 2.261-2.345z" fill="#ffc600" />
</svg>
