<?xml version="1.0" encoding="utf-8"?>
<!-- Generated by IcoMoon.io -->
<!DOCTYPE svg PUBLIC "-//W3C//DTD SVG 1.1//EN" "http://www.w3.org/Graphics/SVG/1.1/DTD/svg11.dtd">
<svg version="1.1" xmlns="http://www.w3.org/2000/svg" xmlns:xlink="http://www.w3.org/1999/xlink" width="24" height="24" viewBox="0 0 24 24">
	<path d="M8.16 12c0 2.12 1.72 3.84 3.84 3.84s3.84-1.721 3.84-3.84c0-2.12-1.72-3.84-3.84-3.84s-3.84 1.72-3.84 3.84zM5.435 10.56c0.659-3.019 3.348-5.28 6.565-5.28 1.856 0 3.535 0.752 4.751 1.968 0.563 0.563 1.475 0.563 2.038 0 0.562-0.563 0.562-1.475 0-2.036-1.738-1.736-4.138-2.812-6.788-2.812-4.298 0-7.937 2.825-9.16 6.72h-2.84v2.88h3.84c1.199 0 1.493-0.976 1.595-1.44zM20.16 12c-1.198 0-1.493 0.976-1.595 1.44-0.659 3.019-3.347 5.28-6.565 5.28-1.855 0-3.535-0.751-4.751-1.968-0.563-0.563-1.475-0.563-2.036 0s-0.563 1.475 0 2.036c1.736 1.736 4.136 2.812 6.787 2.812 4.298 0 7.937-2.825 9.16-6.72h2.84v-2.88h-3.84z" fill="#ffc600" />
</svg>
