<?xml version="1.0" encoding="utf-8"?>
<!-- Generated by IcoMoon.io -->
<!DOCTYPE svg PUBLIC "-//W3C//DTD SVG 1.1//EN" "http://www.w3.org/Graphics/SVG/1.1/DTD/svg11.dtd">
<svg version="1.1" xmlns="http://www.w3.org/2000/svg" xmlns:xlink="http://www.w3.org/1999/xlink" width="24" height="24" viewBox="0 0 24 24">
	<path d="M12.311 11.98c0.041-0.013 0.082-0.025 0.125-0.038-0.1-0.223-0.21-0.452-0.335-0.7-2.256 0.667-4.416 0.674-4.801 0.67-0.002 0.029-0.004 0.060-0.004 0.089 0 1.134 0.408 2.225 1.15 3.080 0.248-0.4 1.558-2.354 3.865-3.101zM15.066 8.435c-0.853-0.734-1.939-1.138-3.066-1.138-0.34 0-0.682 0.037-1.019 0.112 0.245 0.331 0.998 1.376 1.705 2.668 1.538-0.59 2.234-1.444 2.38-1.642zM9.149 15.736c0.827 0.635 1.812 0.968 2.851 0.968 0.622 0 1.224-0.12 1.794-0.354-0.079-0.457-0.354-1.848-0.986-3.505-2.546 0.9-3.506 2.593-3.659 2.891zM11.646 10.398c-0.73-1.286-1.489-2.346-1.697-2.63-1.28 0.623-2.222 1.808-2.536 3.192h0.019c0.487 0 2.218-0.041 4.213-0.562zM13.817 12.598c0.558 1.549 0.816 2.839 0.888 3.251 1.022-0.72 1.721-1.825 1.931-3.050-0.209-0.062-0.961-0.266-1.91-0.266-0.308 0-0.616 0.023-0.908 0.066zM12 0.48c-6.362 0-11.52 5.158-11.52 11.52s5.158 11.52 11.52 11.52c6.364 0 11.52-5.158 11.52-11.52s-5.156-11.52-11.52-11.52zM12 17.638c-3.108 0-5.638-2.528-5.638-5.638s2.528-5.638 5.638-5.638c3.11 0 5.64 2.528 5.64 5.638s-2.53 5.638-5.64 5.638zM13.106 10.891c0.104 0.214 0.2 0.427 0.29 0.636 0.028 0.068 0.059 0.136 0.086 0.204 0.332-0.040 0.686-0.060 1.057-0.060 1.025 0 1.877 0.15 2.161 0.206-0.025-1.020-0.386-2.011-1.022-2.807-0.192 0.248-0.982 1.156-2.573 1.82z" fill="#ffc600" />
</svg>
