<?xml version="1.0" encoding="utf-8"?>
<!-- Generated by IcoMoon.io -->
<!DOCTYPE svg PUBLIC "-//W3C//DTD SVG 1.1//EN" "http://www.w3.org/Graphics/SVG/1.1/DTD/svg11.dtd">
<svg version="1.1" xmlns="http://www.w3.org/2000/svg" xmlns:xlink="http://www.w3.org/1999/xlink" width="24" height="24" viewBox="0 0 24 24">
	<path d="M12 0.48c-6.362 0-11.52 5.158-11.52 11.52s5.158 11.52 11.52 11.52 11.52-5.158 11.52-11.52-5.158-11.52-11.52-11.52zM17.28 9.781c-0.61 3.5-4.018 6.463-5.041 7.14-1.025 0.676-1.96-0.272-2.299-0.988-0.388-0.817-1.552-5.249-1.856-5.615-0.305-0.368-1.218 0.366-1.218 0.366l-0.443-0.593c0 0 1.856-2.258 3.269-2.539 1.498-0.3 1.495 2.341 1.855 3.809 0.349 1.42 0.583 2.231 0.887 2.231 0.305 0 0.887-0.791 1.524-2.004 0.638-1.216-0.026-2.287-1.274-1.525 0.497-3.047 5.208-3.781 4.597-0.282z" fill="#ffc600" />
</svg>
