<?xml version="1.0" encoding="utf-8"?>
<!-- Generated by IcoMoon.io -->
<!DOCTYPE svg PUBLIC "-//W3C//DTD SVG 1.1//EN" "http://www.w3.org/Graphics/SVG/1.1/DTD/svg11.dtd">
<svg version="1.1" xmlns="http://www.w3.org/2000/svg" xmlns:xlink="http://www.w3.org/1999/xlink" width="24" height="24" viewBox="0 0 24 24">
	<path d="M12 1.68c-5.699 0-10.32 4.621-10.32 10.32 0 5.7 4.621 10.32 10.32 10.32 5.7 0 10.32-4.62 10.32-10.32 0-5.699-4.62-10.32-10.32-10.32zM12.84 20.358v-4.638h-1.68v4.638c-3.968-0.394-7.123-3.55-7.518-7.518h4.638v-1.68h-4.638c0.395-3.968 3.55-7.124 7.518-7.518v4.638h1.68v-4.638c3.97 0.394 7.124 3.55 7.518 7.518h-4.638v1.68h4.638c-0.394 3.968-3.548 7.124-7.518 7.518z" fill="#ffc600" />
</svg>
