<?xml version="1.0" encoding="utf-8"?>
<!-- Generated by IcoMoon.io -->
<!DOCTYPE svg PUBLIC "-//W3C//DTD SVG 1.1//EN" "http://www.w3.org/Graphics/SVG/1.1/DTD/svg11.dtd">
<svg version="1.1" xmlns="http://www.w3.org/2000/svg" xmlns:xlink="http://www.w3.org/1999/xlink" width="24" height="24" viewBox="0 0 24 24">
	<path d="M14.716 15.082c0 0 8.471-6.112 7.531-13.108-0.022-0.154-0.072-0.254-0.134-0.323-0.066-0.064-0.164-0.116-0.316-0.138-6.836-0.959-12.809 7.709-12.809 7.709-5.182-0.622-4.805 0.413-7.169 6.090-0.452 1.082 0.281 1.456 1.085 1.151 0.804-0.302 2.579-0.973 2.579-0.973l3.107 3.179c0 0-0.655 1.816-0.952 2.638-0.296 0.824 0.067 1.574 1.126 1.112 5.549-2.42 6.559-2.035 5.952-7.337zM15.925 7.982c-0.718-0.734-0.718-1.925 0-2.659 0.718-0.733 1.88-0.733 2.598 0 0.719 0.733 0.719 1.925 0 2.659-0.716 0.736-1.88 0.736-2.598 0z" fill="#ffc600" />
</svg>
