<?xml version="1.0" encoding="utf-8"?>
<!-- Generated by IcoMoon.io -->
<!DOCTYPE svg PUBLIC "-//W3C//DTD SVG 1.1//EN" "http://www.w3.org/Graphics/SVG/1.1/DTD/svg11.dtd">
<svg version="1.1" xmlns="http://www.w3.org/2000/svg" xmlns:xlink="http://www.w3.org/1999/xlink" width="24" height="24" viewBox="0 0 24 24">
	<path d="M20.538 3.461c-2.011-2.010-4.535-2.746-5.339-1.942l-3.235 3.236c-0.491 0.491-0.919 2.134-0.722 3.796l-9.793 9.794c-0.581 0.58-0.11 1.992 1.051 3.154 1.162 1.163 2.575 1.632 3.155 1.052l9.793-9.793c1.663 0.197 3.306-0.232 3.796-0.722l3.236-3.236c0.804-0.804 0.068-3.328-1.942-5.339zM9.769 13.248c-0.448-0.446-0.301-1.316 0.323-1.942s1.494-0.77 1.942-0.324c0.445 0.446 0.301 1.316-0.324 1.942-0.625 0.625-1.494 0.77-1.94 0.324zM17.869 6.131c-1.558-1.558-1.949-3.612-1.811-3.751 0.139-0.139 2.113 0.334 3.672 1.891 1.558 1.558 2.024 3.536 1.89 3.671s-2.195-0.253-3.751-1.811z" fill="#ffc600" />
</svg>
