<?xml version="1.0" encoding="utf-8"?>
<!-- Generated by IcoMoon.io -->
<!DOCTYPE svg PUBLIC "-//W3C//DTD SVG 1.1//EN" "http://www.w3.org/Graphics/SVG/1.1/DTD/svg11.dtd">
<svg version="1.1" xmlns="http://www.w3.org/2000/svg" xmlns:xlink="http://www.w3.org/1999/xlink" width="24" height="24" viewBox="0 0 24 24">
	<path d="M21.054 18.562l-4.535-4.535c0.684-1.124 1.078-2.442 1.078-3.854 0-4.099-3.553-7.652-7.654-7.652-4.099 0-7.423 3.324-7.423 7.423 0 4.1 3.552 7.654 7.652 7.654 1.363 0 2.64-0.37 3.738-1.012l4.559 4.56c0.448 0.446 1.17 0.446 1.615 0l1.132-1.13c0.445-0.446 0.283-1.008-0.162-1.453zM4.805 9.943c0-2.838 2.3-5.14 5.138-5.14 2.839 0 5.369 2.53 5.369 5.369s-2.3 5.14-5.14 5.14-5.368-2.53-5.368-5.369z" fill="#ffc600" />
</svg>
