<?xml version="1.0" encoding="utf-8"?>
<!-- Generated by IcoMoon.io -->
<!DOCTYPE svg PUBLIC "-//W3C//DTD SVG 1.1//EN" "http://www.w3.org/Graphics/SVG/1.1/DTD/svg11.dtd">
<svg version="1.1" xmlns="http://www.w3.org/2000/svg" xmlns:xlink="http://www.w3.org/1999/xlink" width="24" height="24" viewBox="0 0 24 24">
	<path d="M19.2 1.2h-14.4c-1.32 0-2.4 1.080-2.4 2.4v16.8c0 1.32 1.080 2.4 2.4 2.4h14.4c1.321 0 2.4-1.080 2.4-2.4v-16.8c0-1.32-1.079-2.4-2.4-2.4zM19.2 20.4h-14.4v-16.8h14.4v16.8zM13.2 14.4h-6v1.2h6v-1.2zM16.8 9.6h-4.8v1.2h4.8v-1.2zM12 8.4h4.8v-2.4h-4.8v2.4zM10.8 6h-3.6v4.8h3.6v-4.8zM9.6 12h-2.4v1.2h2.4v-1.2zM10.8 13.2h6v-1.2h-6v1.2zM16.8 16.8h-9.6v1.2h9.6v-1.2zM14.4 15.6h2.4v-1.2h-2.4v1.2z" fill="#ffc600" />
</svg>
