<?xml version="1.0" encoding="utf-8"?>
<!-- Generated by IcoMoon.io -->
<!DOCTYPE svg PUBLIC "-//W3C//DTD SVG 1.1//EN" "http://www.w3.org/Graphics/SVG/1.1/DTD/svg11.dtd">
<svg version="1.1" xmlns="http://www.w3.org/2000/svg" xmlns:xlink="http://www.w3.org/1999/xlink" width="24" height="24" viewBox="0 0 24 24">
	<path d="M12.244 0.673c-0.031-0.257-0.456-0.257-0.487 0-1.060 8.53-6.476 10.288-6.476 16.216 0 3.661 3.076 6.63 6.72 6.63 3.644 0 6.72-2.97 6.72-6.63 0-5.928-5.417-7.686-6.476-16.216zM11.221 10.102c-0.072 0.263-0.148 0.534-0.226 0.812-0.481 1.709-1.027 3.647-1.027 5.887 0 1.214-0.718 1.645-1.388 1.645-0.766 0-1.387-0.625-1.387-1.399 0-2.648 1.276-4.378 2.401-5.904 0.353-0.478 0.685-0.929 0.956-1.38 0.124-0.205 0.457-0.197 0.608 0.007 0.068 0.098 0.092 0.218 0.062 0.331z" fill="#ffc600" />
</svg>
