<?xml version="1.0" encoding="utf-8"?>
<!-- Generated by IcoMoon.io -->
<!DOCTYPE svg PUBLIC "-//W3C//DTD SVG 1.1//EN" "http://www.w3.org/Graphics/SVG/1.1/DTD/svg11.dtd">
<svg version="1.1" xmlns="http://www.w3.org/2000/svg" xmlns:xlink="http://www.w3.org/1999/xlink" width="24" height="24" viewBox="0 0 24 24">
	<path d="M0.806 16.147l0.394-1.68-0.394-1.736c-0.011-0.052-0.109-0.091-0.23-0.091-0.122 0-0.221 0.040-0.23 0.091l-0.346 1.736 0.347 1.68c0.010 0.053 0.108 0.091 0.23 0.091 0.12 0 0.218-0.038 0.229-0.091zM3.266 17.080l0.334-2.597-0.334-4.016c-0.010-0.103-0.134-0.184-0.286-0.184-0.152 0-0.277 0.079-0.284 0.182l-0.296 4.018 0.296 2.597c0.007 0.102 0.132 0.181 0.284 0.181 0.151 0.001 0.276-0.079 0.286-0.181zM5.722 17.038l0.278-2.554-0.278-5.348c-0.007-0.125-0.156-0.224-0.337-0.224-0.182 0-0.331 0.098-0.337 0.224l-0.247 5.348 0.247 2.555c0.006 0.125 0.155 0.223 0.337 0.223 0.181 0 0.33-0.098 0.337-0.224zM8.172 16.999l0.228-2.514-0.228-5.388c-0.006-0.149-0.174-0.266-0.384-0.266-0.211 0-0.379 0.118-0.385 0.266l-0.203 5.388 0.204 2.514c0.004 0.148 0.173 0.265 0.384 0.265 0.21 0 0.378-0.115 0.384-0.265zM10.62 16.968l0.18-2.482-0.18-6.178c-0.004-0.17-0.197-0.308-0.43-0.308s-0.425 0.138-0.428 0.308l-0.162 6.175c0 0.004 0.162 2.483 0.162 2.483 0.004 0.168 0.196 0.306 0.428 0.306 0.233 0.001 0.426-0.136 0.43-0.305zM12.334 17.275c0.007 0 8.519 0.005 8.574 0.005 1.709 0 3.092-1.339 3.092-2.992s-1.384-2.992-3.092-2.992c-0.425 0-0.828 0.083-1.196 0.233-0.246-2.695-2.585-4.81-5.436-4.81-0.697 0-1.378 0.132-1.978 0.358-0.233 0.088-0.296 0.176-0.298 0.35v9.493c0.002 0.184 0.149 0.336 0.334 0.354z" fill="#ffc600" />
</svg>
