<?xml version="1.0" encoding="utf-8"?>
<!-- Generated by IcoMoon.io -->
<!DOCTYPE svg PUBLIC "-//W3C//DTD SVG 1.1//EN" "http://www.w3.org/Graphics/SVG/1.1/DTD/svg11.dtd">
<svg version="1.1" xmlns="http://www.w3.org/2000/svg" xmlns:xlink="http://www.w3.org/1999/xlink" width="24" height="24" viewBox="0 0 24 24">
	<path d="M16.378 8.836c-0.158-0.426 4.248-4.362 1.678-7.55-0.602-0.745-2.641 3.571-5.538 5.525-1.597 1.078-5.317 3.372-5.317 4.64v8.209c0 1.525 5.897 3.14 10.379 3.14 1.643 0 4.021-10.29 4.021-11.926 0-1.64-5.064-1.612-5.222-2.039zM6 8.95c-0.788 0-3.6 0.48-3.6 3.746v5.818c0 3.266 2.812 3.625 3.6 3.625s-1.2-0.686-1.2-2.711v-7.648c0-2.122 1.988-2.831 1.2-2.831z" fill="#ffc600" />
</svg>
