<?xml version="1.0" encoding="utf-8"?>
<!-- Generated by IcoMoon.io -->
<!DOCTYPE svg PUBLIC "-//W3C//DTD SVG 1.1//EN" "http://www.w3.org/Graphics/SVG/1.1/DTD/svg11.dtd">
<svg version="1.1" xmlns="http://www.w3.org/2000/svg" xmlns:xlink="http://www.w3.org/1999/xlink" width="24" height="24" viewBox="0 0 24 24">
	<path d="M9.134 5.11c-0.44-0.414-1.036-0.414-1.477 0l-7.657 6.89 7.657 6.889c0.442 0.415 1.037 0.415 1.477 0s0.44-1.087 0-1.502l-5.945-5.387 5.946-5.386c0.439-0.415 0.439-1.088-0.001-1.505zM16.343 5.11c-0.442-0.414-1.036-0.414-1.477 0-0.44 0.416-0.418 1.088 0.025 1.504l5.92 5.387-5.921 5.387c-0.442 0.415-0.466 1.087-0.025 1.502 0.442 0.415 1.036 0.415 1.477 0l7.658-6.889-7.657-6.89z" fill="#ffc600" />
</svg>
