<?xml version="1.0" encoding="utf-8"?>
<!-- Generated by IcoMoon.io -->
<!DOCTYPE svg PUBLIC "-//W3C//DTD SVG 1.1//EN" "http://www.w3.org/Graphics/SVG/1.1/DTD/svg11.dtd">
<svg version="1.1" xmlns="http://www.w3.org/2000/svg" xmlns:xlink="http://www.w3.org/1999/xlink" width="24" height="24" viewBox="0 0 24 24">
	<path d="M12 0.48c-6.362 0-11.52 5.158-11.52 11.52s5.158 11.52 11.52 11.52 11.52-5.158 11.52-11.52-5.158-11.52-11.52-11.52zM3.012 9.216l5.864 2.611h-1.298v1.794h2.698l0.264 0.546v0.87h-2.962v1.793h2.962v2.604h2.867v-2.604h2.982v-1.657l3.692 1.644c-1.642 2.749-4.646 4.591-8.081 4.591-5.196 0-9.408-4.212-9.408-9.408 0-0.97 0.146-1.904 0.42-2.784zM13.408 15.036v-0.87l0.134-0.262 2.542 1.13h-2.676zM16.388 12.652v-0.826h-1.793l2.926-5.388h-3.058l-2.014 4.459-1.070-0.475-1.84-3.984h-3.058l1.27 2.368-3.794-1.688c1.651-2.713 4.634-4.525 8.042-4.525 5.196 0 9.408 4.212 9.408 9.408 0 0.942-0.14 1.85-0.397 2.708l-4.622-2.057z" fill="#ffc600" />
</svg>
