<?xml version="1.0" encoding="utf-8"?>
<!-- Generated by IcoMoon.io -->
<!DOCTYPE svg PUBLIC "-//W3C//DTD SVG 1.1//EN" "http://www.w3.org/Graphics/SVG/1.1/DTD/svg11.dtd">
<svg version="1.1" xmlns="http://www.w3.org/2000/svg" xmlns:xlink="http://www.w3.org/1999/xlink" width="24" height="24" viewBox="0 0 24 24">
	<path d="M22.428 14.815l-2.072-1.848c-0.6-0.535-0.6-1.409 0-1.944l2.072-1.847c0.6-0.535 0.439-1.033-0.356-1.109l-2.747-0.26c-0.796-0.076-1.224-0.76-0.95-1.52l1.458-4.058c0.274-0.761-0.061-1.038-0.743-0.616l-3.241 2.004c-0.682 0.422-1.562 0.192-1.957-0.512l-1.175-2.095c-0.394-0.704-1.046-0.708-1.448-0.008l-1.091 1.898c-0.402 0.7-1.326 0.998-2.053 0.664l-1.92-0.882c-0.728-0.334-1.288 0.053-1.244 0.862l0.104 1.938c0.043 0.808-0.553 1.64-1.325 1.848l-1.854 0.498c-0.772 0.209-0.913 0.816-0.313 1.351l2.072 1.847c0.6 0.534 0.6 1.409 0 1.943l-2.072 1.846c-0.6 0.536-0.442 1.052 0.352 1.148l2.514 0.305c0.793 0.098 1.236 0.806 0.983 1.573l-1.29 3.91c-0.253 0.769 0.108 1.069 0.802 0.666l2.956-1.709c0.695-0.403 1.627-0.18 2.074 0.49l1.228 1.844c0.445 0.673 1.116 0.635 1.487-0.082l1.079-2.078c0.373-0.718 1.264-1.010 1.979-0.652l2.081 1.040c0.718 0.359 1.268-0.010 1.225-0.818l-0.104-1.938c-0.043-0.809 0.553-1.64 1.325-1.849l1.853-0.497c0.774-0.21 0.916-0.817 0.316-1.351zM13.2 17.034h-2.4v-2.52h2.4v2.52zM13.2 13.195h-2.4v-6.24h2.4v6.24z" fill="#ffc600" />
</svg>
