<?xml version="1.0" encoding="utf-8"?>
<!-- Generated by IcoMoon.io -->
<!DOCTYPE svg PUBLIC "-//W3C//DTD SVG 1.1//EN" "http://www.w3.org/Graphics/SVG/1.1/DTD/svg11.dtd">
<svg version="1.1" xmlns="http://www.w3.org/2000/svg" xmlns:xlink="http://www.w3.org/1999/xlink" width="24" height="24" viewBox="0 0 24 24">
	<path d="M8.4 10.8h-7.2c-0.662 0-1.2 0.538-1.2 1.2s0.538 1.2 1.2 1.2h7.2c0.662 0 1.2-0.538 1.2-1.2s-0.538-1.2-1.2-1.2zM8.4 15.6h-7.2c-0.662 0-1.2 0.536-1.2 1.2s0.538 1.2 1.2 1.2h7.2c0.662 0 1.2-0.536 1.2-1.2s-0.538-1.2-1.2-1.2zM23.28 10.8h-4.080v-4.080c0-0.662-0.536-0.72-1.2-0.72s-1.2 0.058-1.2 0.72v4.080h-3.96c-0.664 0-0.72 0.538-0.72 1.2s0.058 1.2 0.721 1.2h3.959v4.080c0 0.662 0.536 0.72 1.2 0.72s1.2-0.058 1.2-0.72v-4.080h4.080c0.662 0 0.72-0.538 0.72-1.2s-0.058-1.2-0.72-1.2zM8.4 6h-7.2c-0.662 0-1.2 0.538-1.2 1.2s0.538 1.2 1.2 1.2h7.2c0.662 0 1.2-0.538 1.2-1.2s-0.538-1.2-1.2-1.2z" fill="#ffc600" />
</svg>
