<?xml version="1.0" encoding="utf-8"?>
<!-- Generated by IcoMoon.io -->
<!DOCTYPE svg PUBLIC "-//W3C//DTD SVG 1.1//EN" "http://www.w3.org/Graphics/SVG/1.1/DTD/svg11.dtd">
<svg version="1.1" xmlns="http://www.w3.org/2000/svg" xmlns:xlink="http://www.w3.org/1999/xlink" width="24" height="24" viewBox="0 0 24 24">
	<path d="M19.978 6.172l-10.798-5.567c-1.48-0.779-4.396 0.726-5.233 2.051-0.373 0.593-0.347 1.020-0.347 1.262l0.133 12.57c0.008 0.268 0.346 0.626 0.632 0.804 0.599 0.367 9.672 6.030 9.928 6.191 0.138 0.086 0.302 0.126 0.463 0.126 0.137 0 0.275-0.030 0.4-0.092 0.274-0.134 0.444-0.394 0.444-0.678v-13.201c0-0.275-0.161-0.528-0.422-0.666l-9.814-5.479c0.11-0.216 0.547-0.672 1.35-1.092 0.846-0.444 1.478-0.276 1.624-0.22 0 0 9.42 5.041 9.708 5.191 0.287 0.15 0.293 0.173 0.293 0.428 0 0.257 0 12.528 0 12.528 0 0.625 0.634 0.881 1.1 0.881 0.464 0 0.961-0.456 0.961-0.881v-13.49c0-0.275-0.162-0.529-0.422-0.666z" fill="#ffc600" />
</svg>
