<?xml version="1.0" encoding="utf-8"?>
<!-- Generated by IcoMoon.io -->
<!DOCTYPE svg PUBLIC "-//W3C//DTD SVG 1.1//EN" "http://www.w3.org/Graphics/SVG/1.1/DTD/svg11.dtd">
<svg version="1.1" xmlns="http://www.w3.org/2000/svg" xmlns:xlink="http://www.w3.org/1999/xlink" width="24" height="24" viewBox="0 0 24 24">
	<path d="M12 9.6c-1.987 0-3.6 1.613-3.6 3.6 0 1.988 1.613 3.6 3.6 3.6 1.988 0 3.6-1.612 3.6-3.6 0-1.987-1.612-3.6-3.6-3.6zM21.6 6h-2.879c-0.396 0-0.823-0.307-0.948-0.683l-0.744-2.233c-0.127-0.377-0.553-0.684-0.949-0.684h-8.16c-0.396 0-0.823 0.307-0.947 0.683l-0.746 2.234c-0.125 0.376-0.551 0.683-0.947 0.683h-2.88c-1.32 0-2.4 1.080-2.4 2.4v10.8c0 1.32 1.080 2.4 2.4 2.4h19.2c1.321 0 2.4-1.080 2.4-2.4v-10.8c0-1.32-1.079-2.4-2.4-2.4zM12 19.2c-3.314 0-6-2.686-6-6 0-3.313 2.686-6 6-6 3.313 0 6 2.687 6 6 0 3.314-2.687 6-6 6zM20.76 10.078c-0.463 0-0.839-0.376-0.839-0.84s0.376-0.84 0.839-0.84c0.464 0 0.84 0.376 0.84 0.84s-0.376 0.84-0.84 0.84z" fill="#ffc600" />
</svg>
