<?xml version="1.0" encoding="utf-8"?>
<!-- Generated by IcoMoon.io -->
<!DOCTYPE svg PUBLIC "-//W3C//DTD SVG 1.1//EN" "http://www.w3.org/Graphics/SVG/1.1/DTD/svg11.dtd">
<svg version="1.1" xmlns="http://www.w3.org/2000/svg" xmlns:xlink="http://www.w3.org/1999/xlink" width="24" height="24" viewBox="0 0 24 24">
	<path d="M23.278 8.897l-8.934-2.393-1.564-5.834c-0.131-0.487-0.653-0.772-1.166-0.634l-10.89 2.917c-0.514 0.137-0.823 0.644-0.694 1.132l3.875 14.462c0.131 0.487 0.653 0.772 1.165 0.634l4.336-1.162-0.592 2.206c-0.131 0.488 0.179 0.995 0.692 1.133l9.732 2.608c0.514 0.137 1.036-0.146 1.166-0.634l3.565-13.303c0.131-0.487-0.179-0.995-0.692-1.132zM1.961 4.358l9.395-2.515 3.479 12.982-9.396 2.515-3.478-12.982zM18.815 22.158l-8.178-2.237 0.643-2.404 4.681-1.254c0.514-0.138 0.824-0.644 0.694-1.133l-1.81-6.752 7.135 1.957-3.166 11.822z" fill="#ffc600" />
</svg>
