<?xml version="1.0" encoding="utf-8"?>
<!-- Generated by IcoMoon.io -->
<!DOCTYPE svg PUBLIC "-//W3C//DTD SVG 1.1//EN" "http://www.w3.org/Graphics/SVG/1.1/DTD/svg11.dtd">
<svg version="1.1" xmlns="http://www.w3.org/2000/svg" xmlns:xlink="http://www.w3.org/1999/xlink" width="24" height="24" viewBox="0 0 24 24">
	<path d="M7.331 1.082l-6.851 4.267 4.693 3.935 6.827-4.434-4.669-3.768zM16.142 19.193c-0.122 0-0.244-0.042-0.342-0.125l-3.8-3.151-3.8 3.152c-0.098 0.082-0.221 0.125-0.342 0.125-0.102 0-0.204-0.028-0.293-0.086l-2.815-1.842v1.087l7.25 4.565 7.25-4.566v-1.087l-2.815 1.842c-0.089 0.059-0.191 0.086-0.293 0.086zM23.52 5.35l-6.851-4.267-4.669 3.768 6.826 4.433 4.694-3.934zM12 13.549l4.232 3.514 6.77-4.426-4.176-3.353-6.827 4.265zM7.768 17.063l4.232-3.514-6.826-4.266-4.176 3.354 6.769 4.426z" fill="#ffc600" />
</svg>
