<?xml version="1.0" encoding="utf-8"?>
<!-- Generated by IcoMoon.io -->
<!DOCTYPE svg PUBLIC "-//W3C//DTD SVG 1.1//EN" "http://www.w3.org/Graphics/SVG/1.1/DTD/svg11.dtd">
<svg version="1.1" xmlns="http://www.w3.org/2000/svg" xmlns:xlink="http://www.w3.org/1999/xlink" width="24" height="24" viewBox="0 0 24 24">
	<path d="M21.539 17.755v-2.755c0-1.664-1.102-4.14-4.139-4.14h-2.4c-1.694 0-1.852-0.83-1.86-1.26v-3.355c1.024-0.443 1.74-1.46 1.74-2.645 0-1.59-1.289-2.88-2.88-2.88-1.591 0-2.88 1.29-2.88 2.88 0 1.184 0.716 2.202 1.74 2.645v3.355c0 0.311-0.090 1.26-1.86 1.26h-2.4c-3.037 0-4.14 2.476-4.14 4.14v2.755c-1.024 0.442-1.74 1.46-1.74 2.645 0 1.59 1.289 2.88 2.88 2.88 1.59 0 2.88-1.29 2.88-2.88 0-1.184-0.716-2.203-1.74-2.645v-2.755c0-0.311 0.090-1.86 1.86-1.86h2.4c0.728 0 1.343-0.11 1.86-0.298v4.913c-1.024 0.442-1.74 1.46-1.74 2.645 0 1.59 1.289 2.88 2.88 2.88 1.591 0 2.88-1.29 2.88-2.88 0-1.184-0.718-2.203-1.741-2.645v-4.913c0.517 0.187 1.132 0.298 1.86 0.298h2.4c1.694 0 1.852 1.43 1.861 1.86v2.755c-1.024 0.442-1.74 1.46-1.74 2.645 0 1.59 1.289 2.88 2.88 2.88s2.88-1.29 2.88-2.88c0-1.184-0.716-2.203-1.741-2.645zM5.262 20.4c0 0.918-0.744 1.662-1.662 1.662s-1.662-0.744-1.662-1.662 0.744-1.662 1.662-1.662 1.662 0.744 1.662 1.662zM10.338 3.6c0-0.918 0.745-1.662 1.662-1.662s1.661 0.744 1.661 1.662-0.744 1.662-1.661 1.662c-0.917 0-1.662-0.744-1.662-1.662zM13.662 20.4c0 0.918-0.745 1.662-1.661 1.662-0.918 0-1.662-0.744-1.662-1.662s0.744-1.662 1.661-1.662c0.917 0 1.662 0.744 1.662 1.662zM20.4 22.062c-0.917 0-1.662-0.744-1.662-1.662s0.745-1.662 1.662-1.662 1.662 0.744 1.662 1.662-0.745 1.662-1.662 1.662z" fill="#ffc600" />
</svg>
