<?xml version="1.0" encoding="utf-8"?>
<!-- Generated by IcoMoon.io -->
<!DOCTYPE svg PUBLIC "-//W3C//DTD SVG 1.1//EN" "http://www.w3.org/Graphics/SVG/1.1/DTD/svg11.dtd">
<svg version="1.1" xmlns="http://www.w3.org/2000/svg" xmlns:xlink="http://www.w3.org/1999/xlink" width="24" height="24" viewBox="0 0 24 24">
	<path d="M22.884 8.4h-21.768c-1.104 0-1.16 0.538-1.099 1.195l0.99 10.81c0.060 0.658 0.216 1.195 1.319 1.195h19.35c1.126 0 1.259-0.538 1.319-1.195l0.99-10.81c0.059-0.658 0.005-1.195-1.1-1.195zM22.085 5.76c-0.132-0.528-0.786-0.96-1.451-0.96h-8.177c-0.666 0-1.595-0.38-2.066-0.847l-0.715-0.706c-0.47-0.467-1.4-0.847-2.065-0.847h-3.907c-0.665 0-1.27 0.536-1.343 1.193l-0.35 3.127h20.317l-0.242-0.96z" fill="#ffc600" />
</svg>
