<?xml version="1.0" encoding="utf-8"?>
<!-- Generated by IcoMoon.io -->
<!DOCTYPE svg PUBLIC "-//W3C//DTD SVG 1.1//EN" "http://www.w3.org/Graphics/SVG/1.1/DTD/svg11.dtd">
<svg version="1.1" xmlns="http://www.w3.org/2000/svg" xmlns:xlink="http://www.w3.org/1999/xlink" width="24" height="24" viewBox="0 0 24 24">
	<path d="M9.754 16.562c-0.828 1.435-0.271 2.616 0.877 3.278s2.45 0.557 3.278-0.878c0.828-1.434 6.056-14.239 5.602-14.502-0.454-0.263-8.929 10.667-9.757 12.102zM12 7.442c0.526 0 1.038 0.046 1.537 0.13 0.526-0.658 1.115-1.382 1.687-2.072-1.022-0.296-2.101-0.457-3.224-0.457-6.728 0-12 5.674-12 12.917 0 0.446 0.020 0.892 0.059 1.326 0.059 0.66 0.648 1.146 1.302 1.088 0.66-0.060 1.147-0.642 1.088-1.302-0.032-0.364-0.049-0.738-0.049-1.112 0-5.897 4.218-10.517 9.6-10.517zM20.663 8.941c-0.335 0.9-0.689 1.817-1.001 2.61 1.22 1.764 1.938 3.976 1.938 6.408 0 0.38-0.017 0.763-0.050 1.134-0.060 0.66 0.426 1.243 1.086 1.304 0.037 0.004 0.073 0.005 0.11 0.005 0.613 0 1.136-0.469 1.193-1.091 0.041-0.444 0.061-0.899 0.061-1.352 0-3.541-1.262-6.707-3.337-9.018z" fill="#ffc600" />
</svg>
