<?xml version="1.0" encoding="utf-8"?>
<!-- Generated by IcoMoon.io -->
<!DOCTYPE svg PUBLIC "-//W3C//DTD SVG 1.1//EN" "http://www.w3.org/Graphics/SVG/1.1/DTD/svg11.dtd">
<svg version="1.1" xmlns="http://www.w3.org/2000/svg" xmlns:xlink="http://www.w3.org/1999/xlink" width="24" height="24" viewBox="0 0 24 24">
	<path d="M2.388 6.707c0 1.792 0.599 3.086 1.778 3.846 0.966 0.623 2.088 0.716 2.671 0.716 0.142 0 0.254-0.006 0.334-0.011 0 0-0.185 1.204 0.708 2.395l-0.041-0.001c-1.547 0-6.593 0.324-6.593 4.472 0 4.22 4.634 4.434 5.563 4.434 0.073 0 0.115-0.001 0.115-0.001 0.011 0 0.077 0.002 0.19 0.002 0.596 0 2.138-0.074 3.571-0.772 1.858-0.901 2.801-2.471 2.801-4.662 0-2.118-1.435-3.378-2.484-4.3-0.64-0.562-1.193-1.046-1.193-1.518 0-0.48 0.403-0.841 0.914-1.298 0.826-0.739 1.606-1.792 1.606-3.781 0-1.75-0.227-2.923-1.625-3.667 0.146-0.074 0.661-0.128 0.917-0.164 0.757-0.103 1.865-0.221 1.865-0.839v-0.119h-5.518c-0.055 0.001-5.58 0.206-5.58 5.267zM11.296 17.522c0.106 1.687-1.338 2.933-3.505 3.090-2.201 0.162-4.014-0.829-4.12-2.516-0.050-0.81 0.305-1.603 1.002-2.236 0.708-0.64 1.678-1.034 2.735-1.114 0.125-0.007 0.248-0.013 0.372-0.013 2.036 0 3.416 1.198 3.516 2.789zM9.854 5.551c0.541 1.904-0.276 3.895-1.578 4.262-0.15 0.042-0.305 0.064-0.461 0.064-1.194 0-2.376-1.207-2.814-2.87-0.245-0.935-0.226-1.751 0.055-2.537 0.276-0.772 0.772-1.295 1.396-1.47 0.15-0.043 0.306-0.064 0.462-0.064 1.44 0 2.366 0.598 2.94 2.615zM19.153 9.698v-3.6h-2.28v3.6h-3.6v2.28h3.6v3.6h2.28v-3.6h3.6v-2.28h-3.6z" fill="#ffc600" />
</svg>
