<?xml version="1.0" encoding="utf-8"?>
<!-- Generated by IcoMoon.io -->
<!DOCTYPE svg PUBLIC "-//W3C//DTD SVG 1.1//EN" "http://www.w3.org/Graphics/SVG/1.1/DTD/svg11.dtd">
<svg version="1.1" xmlns="http://www.w3.org/2000/svg" xmlns:xlink="http://www.w3.org/1999/xlink" width="24" height="24" viewBox="0 0 24 24">
	<path d="M9.449 15.092c-0.503 0.451-1.469 1.356-3.077 1.356-1.897 0-3.725-1.663-3.725-4.324 0-3.409 2.184-4.508 3.862-4.508 2.419 0 2.95 1.459 3.608 3.482l0.88 2.772c0.878 2.687 2.528 4.848 7.284 4.848 3.41 0 5.719-1.052 5.719-3.823 0-2.245-1.266-3.409-3.629-3.964l-1.759-0.386c-1.21-0.277-1.567-0.775-1.567-1.608 0-0.942 0.742-1.496 1.951-1.496 1.32 0 2.034 0.499 2.144 1.691l2.749-0.332c-0.22-2.494-1.924-3.52-4.728-3.52-2.474 0-4.892 0.942-4.892 3.962 0 1.884 0.907 3.076 3.187 3.63l1.871 0.443c1.402 0.332 1.87 0.916 1.87 1.72 0 1.025-0.99 1.44-2.86 1.44-2.776 0-4.171-1.469-4.83-3.491l-0.908-2.772c-1.154-3.601-2.518-4.932-6.174-4.932-3.259 0-6.425 2.578-6.425 6.955 0 4.213 3.038 6.485 6.233 6.485 2.31 0 3.482-0.811 4.056-1.228l-0.84-2.4z" fill="#ffc600" />
</svg>
