<?xml version="1.0" encoding="utf-8"?>
<!-- Generated by IcoMoon.io -->
<!DOCTYPE svg PUBLIC "-//W3C//DTD SVG 1.1//EN" "http://www.w3.org/Graphics/SVG/1.1/DTD/svg11.dtd">
<svg version="1.1" xmlns="http://www.w3.org/2000/svg" xmlns:xlink="http://www.w3.org/1999/xlink" width="24" height="24" viewBox="0 0 24 24">
	<path d="M6.091 3.66c0 1.276-0.942 2.309-2.491 2.309-1.458 0-2.4-1.033-2.4-2.309 0-1.306 0.973-2.309 2.461-2.309s2.4 1.003 2.43 2.309zM1.322 22.649v-14.856h4.618v14.856h-4.618zM8.704 12.532c0-1.853-0.061-3.402-0.122-4.739h4.010l0.214 2.066h0.091c0.607-0.973 2.096-2.4 4.588-2.4 3.037 0 5.316 2.035 5.316 6.41v8.78h-4.618v-8.233c0-1.914-0.67-3.221-2.34-3.221-1.276 0-2.034 0.881-2.369 1.732-0.122 0.304-0.152 0.728-0.152 1.154v8.568h-4.618v-10.118z" fill="#ffc600" />
</svg>
