<?xml version="1.0" encoding="utf-8"?>
<!-- Generated by IcoMoon.io -->
<!DOCTYPE svg PUBLIC "-//W3C//DTD SVG 1.1//EN" "http://www.w3.org/Graphics/SVG/1.1/DTD/svg11.dtd">
<svg version="1.1" xmlns="http://www.w3.org/2000/svg" xmlns:xlink="http://www.w3.org/1999/xlink" width="24" height="24" viewBox="0 0 24 24">
	<path d="M18.96 9.6h-2.16v-2.88c0-3.476-1.602-5.52-4.8-5.52-3.199 0-4.8 2.044-4.8 5.52v0.48h2.4v-0.96c0-1.734 0.956-2.64 2.4-2.64 1.442 0 2.4 0.906 2.4 2.64v3.36h-9.6c-0.664 0-1.2 0.776-1.2 1.44v9.36c0 0.66 0.515 1.366 1.142 1.568l1.435 0.464c0.629 0.202 1.682 0.367 2.342 0.367h6.96c0.661 0 1.715-0.166 2.342-0.368l1.435-0.464c0.628-0.202 1.142-0.907 1.142-1.567v-9.36c0-0.664-0.776-1.44-1.44-1.44z" fill="#ffc600" />
</svg>
