<?xml version="1.0" encoding="utf-8"?>
<!-- Generated by IcoMoon.io -->
<!DOCTYPE svg PUBLIC "-//W3C//DTD SVG 1.1//EN" "http://www.w3.org/Graphics/SVG/1.1/DTD/svg11.dtd">
<svg version="1.1" xmlns="http://www.w3.org/2000/svg" xmlns:xlink="http://www.w3.org/1999/xlink" width="24" height="24" viewBox="0 0 24 24">
	<path d="M11.455 20.71h1.145v2.57c7.813-0.821 11.978-8.569 11.305-14.029-0.677-5.46-6.541-9.23-13.133-8.423-6.588 0.81-11.36 5.891-10.685 11.351 0.614 4.968 5.52 8.536 11.368 8.531zM18.834 15.431h-2.198v-5.944c0-0.238-0.022-0.463-0.064-0.668-0.035-0.179-0.101-0.328-0.197-0.455-0.091-0.12-0.226-0.218-0.396-0.293-0.182-0.079-0.436-0.12-0.748-0.12-0.644 0-1.148 0.168-1.5 0.498-0.352 0.328-0.52 0.76-0.52 1.319v5.663h-2.198v-5.944c0-0.247-0.023-0.474-0.070-0.676-0.041-0.182-0.109-0.335-0.208-0.464-0.092-0.121-0.215-0.215-0.377-0.284-0.173-0.073-0.408-0.112-0.697-0.112-0.374 0-0.696 0.070-0.953 0.206-0.268 0.143-0.487 0.314-0.65 0.509-0.164 0.197-0.284 0.401-0.358 0.606-0.074 0.206-0.11 0.373-0.11 0.496v5.663h-2.197v-9.234h2.11v0.721c0.688-0.61 1.566-0.918 2.616-0.918 0.612 0 1.176 0.122 1.679 0.364 0.367 0.176 0.665 0.44 0.886 0.785 0.276-0.298 0.605-0.544 0.976-0.731 0.546-0.278 1.151-0.418 1.8-0.418 0.482 0 0.928 0.050 1.325 0.15 0.41 0.104 0.772 0.271 1.072 0.496 0.31 0.232 0.553 0.535 0.725 0.901 0.169 0.36 0.256 0.791 0.256 1.282v6.602z" fill="#ffc600" />
</svg>
