<?xml version="1.0" encoding="utf-8"?>
<!-- Generated by IcoMoon.io -->
<!DOCTYPE svg PUBLIC "-//W3C//DTD SVG 1.1//EN" "http://www.w3.org/Graphics/SVG/1.1/DTD/svg11.dtd">
<svg version="1.1" xmlns="http://www.w3.org/2000/svg" xmlns:xlink="http://www.w3.org/1999/xlink" width="24" height="24" viewBox="0 0 24 24">
	<path d="M16.652 0h-9.305c-1.348 0-2.449 1.102-2.449 2.449v19.102c0 1.346 1.102 2.449 2.449 2.449h9.305c1.348 0 2.449-1.103 2.449-2.449v-19.102c0-1.348-1.102-2.449-2.449-2.449zM12 23.021c-0.946 0-1.714-0.548-1.714-1.225s0.768-1.225 1.714-1.225c0.947 0 1.714 0.548 1.714 1.225s-0.767 1.225-1.714 1.225zM17.142 19.346h-10.285v-16.163h10.285v16.163z" fill="#ffc600" />
</svg>
