<?xml version="1.0" encoding="utf-8"?>
<!-- Generated by IcoMoon.io -->
<!DOCTYPE svg PUBLIC "-//W3C//DTD SVG 1.1//EN" "http://www.w3.org/Graphics/SVG/1.1/DTD/svg11.dtd">
<svg version="1.1" xmlns="http://www.w3.org/2000/svg" xmlns:xlink="http://www.w3.org/1999/xlink" width="24" height="24" viewBox="0 0 24 24">
	<path d="M18 1.2h-12c-1.32 0-2.4 1.080-2.4 2.4v16.8c0 1.32 1.080 2.4 2.4 2.4h12c1.321 0 2.4-1.080 2.4-2.4v-16.8c0-1.32-1.079-2.4-2.4-2.4zM15.355 12.625c-0.284 0.444-0.436 0.254-0.35 0 0.226-0.67 0.217-2.696-1.67-2.993v6.256c0 1.166-0.672 1.898-2.1 2.357-1.387 0.444-2.94-0.018-3.304-1.015-0.362-0.996 0.454-2.208 1.823-2.707 0.764-0.277 1.54-0.275 2.137-0.043v-8.825h1.444c0 1.516 4.057 3.803 2.021 6.971z" fill="#ffc600" />
</svg>
