<?xml version="1.0" encoding="utf-8"?>
<!-- Generated by IcoMoon.io -->
<!DOCTYPE svg PUBLIC "-//W3C//DTD SVG 1.1//EN" "http://www.w3.org/Graphics/SVG/1.1/DTD/svg11.dtd">
<svg version="1.1" xmlns="http://www.w3.org/2000/svg" xmlns:xlink="http://www.w3.org/1999/xlink" width="24" height="24" viewBox="0 0 24 24">
	<path d="M20.226 5.802c0.326 0.617 0.488 1.379 0.488 2.294 0 2.078-0.876 3.756-2.626 5.029-1.752 1.274-4.199 1.91-7.342 1.91h-0.736c-0.553 0-1.106 0.434-1.23 0.966l-0.883 3.767c-0.124 0.533-0.677 0.968-1.23 0.968h-1.61l-0.144 0.616c-0.125 0.532 0.226 0.967 0.778 0.967h2.579c0.553 0 1.108-0.434 1.229-0.967l0.884-3.768c0.125-0.529 0.677-0.965 1.23-0.965h0.736c3.143 0 5.59-0.636 7.34-1.912 1.753-1.272 2.63-2.948 2.63-5.029 0-0.916-0.162-1.678-0.488-2.293-0.325-0.612-0.799-1.111-1.417-1.492-0.066-0.040-0.12-0.055-0.188-0.092zM6.292 18.185l0.884-3.768c0.125-0.529 0.676-0.965 1.23-0.965h0.736c3.143 0 5.59-0.636 7.34-1.912 1.751-1.273 2.627-2.95 2.627-5.029 0-0.916-0.162-1.678-0.49-2.293-0.325-0.612-0.799-1.111-1.416-1.492-0.632-0.386-1.375-0.655-2.236-0.812-0.86-0.155-1.87-0.234-3.029-0.234h-5.37c-0.554 0-1.108 0.432-1.232 0.965l-3.631 15.539c-0.125 0.533 0.226 0.968 0.778 0.968h2.579c0.554 0 1.109-0.434 1.23-0.967zM8.399 9.169l0.775-3.299c0.125-0.532 0.678-0.966 1.229-0.966h0.845c0.983 0 1.729 0.166 2.228 0.494 0.5 0.326 0.751 0.829 0.751 1.512 0 1.031-0.39 1.828-1.164 2.387-0.775 0.558-1.853 0.84-3.245 0.84h-0.638c-0.554 0-0.904-0.437-0.781-0.968z" fill="#ffc600" />
</svg>
