<?xml version="1.0" encoding="utf-8"?>
<!-- Generated by IcoMoon.io -->
<!DOCTYPE svg PUBLIC "-//W3C//DTD SVG 1.1//EN" "http://www.w3.org/Graphics/SVG/1.1/DTD/svg11.dtd">
<svg version="1.1" xmlns="http://www.w3.org/2000/svg" xmlns:xlink="http://www.w3.org/1999/xlink" width="24" height="24" viewBox="0 0 24 24">
	<path d="M19.123 10.771c2.821-0.834 4.475-3.823 3.287-3.883-3.049-0.155-5.657-1.632-7.414-2.736-0.186-0.122-0.376-0.239-0.571-0.348v6.87c0 2.272-1.374 4.081-2.932 4.834-2.262 1.092-4.782 0.407-5.629-1.531-0.847-1.938 0.3-4.394 2.562-5.485 1.252-0.604 2.58-0.662 3.662-0.268v-5.329c-0.684-0.163-1.396-0.254-2.129-0.254-5.104 0-9.241 4.19-9.241 9.36 0 5.17 4.138 9.36 9.241 9.36 5.105 0 9.241-4.19 9.241-9.36 0-0.416-0.026-0.827-0.078-1.229z" fill="#ffc600" />
</svg>
