<?xml version="1.0" encoding="utf-8"?>
<!-- Generated by IcoMoon.io -->
<!DOCTYPE svg PUBLIC "-//W3C//DTD SVG 1.1//EN" "http://www.w3.org/Graphics/SVG/1.1/DTD/svg11.dtd">
<svg version="1.1" xmlns="http://www.w3.org/2000/svg" xmlns:xlink="http://www.w3.org/1999/xlink" width="24" height="24" viewBox="0 0 24 24">
	<path d="M12 0.48c-6.362 0-11.52 5.158-11.52 11.52s5.158 11.52 11.52 11.52 11.52-5.158 11.52-11.52-5.158-11.52-11.52-11.52zM16.084 11.38c0.026 0.203 0.041 0.41 0.041 0.62 0 2.612-2.090 4.729-4.67 4.729-2.578 0-4.669-2.118-4.669-4.729s2.090-4.728 4.669-4.728c0.371 0 0.73 0.046 1.075 0.127v2.693c-0.546-0.199-1.217-0.169-1.849 0.134-1.142 0.552-1.723 1.793-1.295 2.773 0.428 0.978 1.702 1.325 2.844 0.774 0.787-0.379 1.482-1.295 1.482-2.442v-3.472c0.098 0.055 0.193 0.114 0.287 0.175 0.888 0.558 2.206 1.303 3.746 1.381 0.601 0.031-0.235 1.542-1.661 1.963z" fill="#ffc600" />
</svg>
