<?xml version="1.0" encoding="utf-8"?>
<!-- Generated by IcoMoon.io -->
<!DOCTYPE svg PUBLIC "-//W3C//DTD SVG 1.1//EN" "http://www.w3.org/Graphics/SVG/1.1/DTD/svg11.dtd">
<svg version="1.1" xmlns="http://www.w3.org/2000/svg" xmlns:xlink="http://www.w3.org/1999/xlink" width="24" height="24" viewBox="0 0 24 24">
	<path d="M14.597 11.824c-0.276-0.185-0.617-0.344-1.008-0.475-0.389-0.127-0.827-0.246-1.304-0.35-0.377-0.090-0.652-0.16-0.816-0.206-0.16-0.046-0.319-0.109-0.474-0.19-0.15-0.077-0.269-0.169-0.352-0.275-0.079-0.1-0.118-0.214-0.118-0.353 0-0.226 0.12-0.416 0.366-0.582 0.256-0.173 0.6-0.259 1.022-0.259 0.455 0 0.786 0.078 0.985 0.233 0.204 0.161 0.383 0.386 0.528 0.674 0.128 0.226 0.241 0.382 0.354 0.482 0.118 0.108 0.288 0.163 0.506 0.163 0.241 0 0.445-0.088 0.607-0.26 0.16-0.173 0.241-0.37 0.241-0.586 0-0.226-0.064-0.458-0.185-0.692-0.12-0.23-0.314-0.455-0.572-0.664-0.258-0.206-0.586-0.374-0.974-0.499-0.386-0.125-0.85-0.186-1.376-0.186-0.659 0-1.241 0.094-1.73 0.28-0.498 0.19-0.883 0.464-1.147 0.818-0.265 0.356-0.4 0.77-0.4 1.229 0 0.48 0.128 0.89 0.382 1.216 0.25 0.323 0.59 0.578 1.013 0.764 0.414 0.18 0.934 0.341 1.546 0.475 0.45 0.096 0.815 0.188 1.082 0.275 0.257 0.082 0.47 0.203 0.629 0.358 0.152 0.148 0.227 0.335 0.227 0.575 0 0.302-0.143 0.55-0.437 0.757-0.3 0.211-0.7 0.318-1.188 0.318-0.354 0-0.643-0.053-0.857-0.157-0.212-0.103-0.379-0.235-0.494-0.392-0.12-0.164-0.234-0.372-0.338-0.619-0.094-0.226-0.21-0.401-0.346-0.52-0.143-0.124-0.317-0.186-0.52-0.186-0.247 0-0.454 0.079-0.616 0.235-0.163 0.158-0.246 0.35-0.246 0.574 0 0.355 0.127 0.725 0.377 1.096 0.248 0.37 0.575 0.667 0.972 0.887 0.554 0.302 1.265 0.456 2.111 0.456 0.706 0 1.325-0.113 1.843-0.332 0.523-0.224 0.925-0.539 1.198-0.935 0.275-0.4 0.413-0.856 0.413-1.355 0-0.419-0.079-0.776-0.239-1.069-0.158-0.289-0.382-0.533-0.665-0.721zM12 0.48c-6.362 0-11.52 5.158-11.52 11.52s5.158 11.52 11.52 11.52c6.364 0 11.52-5.158 11.52-11.52s-5.156-11.52-11.52-11.52zM14.761 18.451c-0.583 0-1.134-0.151-1.616-0.418-0.35 0.067-0.71 0.102-1.080 0.102-3.257 0-5.898-2.718-5.898-6.068 0-0.419 0.041-0.826 0.12-1.22-0.299-0.522-0.47-1.129-0.47-1.778 0-1.943 1.531-3.52 3.42-3.52 0.67 0 1.292 0.198 1.82 0.54 0.326-0.059 0.664-0.089 1.008-0.089 3.257 0 5.898 2.718 5.898 6.068 0 0.446-0.047 0.882-0.136 1.302 0.227 0.472 0.354 1.001 0.354 1.564-0.001 1.942-1.531 3.517-3.42 3.517z" fill="#ffc600" />
</svg>
