<?xml version="1.0" encoding="utf-8"?>
<!-- Generated by IcoMoon.io -->
<!DOCTYPE svg PUBLIC "-//W3C//DTD SVG 1.1//EN" "http://www.w3.org/Graphics/SVG/1.1/DTD/svg11.dtd">
<svg version="1.1" xmlns="http://www.w3.org/2000/svg" xmlns:xlink="http://www.w3.org/1999/xlink" width="24" height="24" viewBox="0 0 24 24">
	<path d="M10.733 13.576c-2.998-1.132-5.515-3.152-5.682-5.785-0.107-1.679 0.317-3.146 1.409-4.38l-4.459 1.064c-0.896 0.215-1.448 1.115-1.235 2.011l3.71 15.514c0.215 0.896 1.114 1.448 2.010 1.234l1.909-0.456c-0.74-0.246-2.022-0.714-3.25-1.369l1.78-4.037c0 0 2.094 1.866 5.102 1.866 3.007 0 4.345-3.53-1.295-5.662zM23.233 17.514l-3.708-15.514c-0.215-0.896-1.115-1.448-2.011-1.234l-3.194 0.764c0.815 0.128 2.426 0.481 4.205 1.414l-1.391 3.857c0 0-1.158-1.294-4.264-1.451-2.951-0.149-4.594 3.043 1.164 4.926 4.408 1.441 5.818 4.219 5.744 6.788-0.038 1.336-0.506 2.423-1.048 3.241l3.27-0.781c0.895-0.215 1.447-1.115 1.232-2.011z" fill="#ffc600" />
</svg>
