<?xml version="1.0" encoding="utf-8"?>
<!-- Generated by IcoMoon.io -->
<!DOCTYPE svg PUBLIC "-//W3C//DTD SVG 1.1//EN" "http://www.w3.org/Graphics/SVG/1.1/DTD/svg11.dtd">
<svg version="1.1" xmlns="http://www.w3.org/2000/svg" xmlns:xlink="http://www.w3.org/1999/xlink" width="24" height="24" viewBox="0 0 24 24">
	<path d="M21.6 2.4h-19.2c-1.32 0-2.4 1.080-2.4 2.4v14.4c0 1.32 1.080 2.4 2.4 2.4h19.2c1.321 0 2.4-1.080 2.4-2.4v-14.4c0-1.32-1.079-2.4-2.4-2.4zM21.6 19.2h-19.2v-14.4h19.2v14.4zM10.8 14.52h-6v2.16h6v-2.16zM10.8 10.92h-6v2.16h6v-2.16zM10.8 7.32h-6v2.16h6v-2.16zM19.080 15c0 0-2.040-0.533-2.040-1.582 0-0.998 1.321-1.418 1.321-3.458 0-1.656-0.504-2.64-2.161-2.64s-2.16 0.983-2.16 2.64c0 2.040 1.32 2.46 1.32 3.458 0 1.049-2.039 1.582-2.039 1.582-0.121 0-0.121 1.68-0.121 1.68h6c0 0 0-1.68-0.12-1.68z" fill="#ffc600" />
</svg>
