<?xml version="1.0" encoding="utf-8"?>
<!-- Generated by IcoMoon.io -->
<!DOCTYPE svg PUBLIC "-//W3C//DTD SVG 1.1//EN" "http://www.w3.org/Graphics/SVG/1.1/DTD/svg11.dtd">
<svg version="1.1" xmlns="http://www.w3.org/2000/svg" xmlns:xlink="http://www.w3.org/1999/xlink" width="24" height="24" viewBox="0 0 24 24">
	<path d="M18.48 6.961c-3.049 0-5.521 2.472-5.521 5.52 0 1.158 0.358 2.232 0.967 3.12h-3.852c0.608-0.888 0.966-1.963 0.966-3.121 0-3.048-2.472-5.52-5.52-5.52s-5.52 2.472-5.52 5.52 2.472 5.52 5.52 5.52h12.96c3.048 0 5.52-2.472 5.52-5.52s-2.472-5.519-5.52-5.519zM2.4 12.48c0-1.723 1.397-3.12 3.12-3.12s3.12 1.397 3.12 3.12c0 1.724-1.397 3.12-3.12 3.12s-3.12-1.396-3.12-3.12zM18.48 15.6c-1.724 0-3.121-1.396-3.121-3.12 0-1.723 1.397-3.12 3.121-3.12 1.723 0 3.12 1.397 3.12 3.12 0 1.724-1.397 3.12-3.12 3.12z" fill="#ffc600" />
</svg>
