<?xml version="1.0" encoding="utf-8"?>
<!-- Generator: Adobe Illustrator 16.0.0, SVG Export Plug-In . SVG Version: 6.00 Build 0)  -->
<!DOCTYPE svg PUBLIC "-//W3C//DTD SVG 1.1//EN" "http://www.w3.org/Graphics/SVG/1.1/DTD/svg11.dtd">
<svg version="1.1" id="Layer_1" xmlns="http://www.w3.org/2000/svg" xmlns:xlink="http://www.w3.org/1999/xlink" x="0px" y="0px"
	 width="68.246px" height="78.236px" viewBox="0 0 68.246 78.236" enable-background="new 0 0 68.246 78.236" xml:space="preserve">
<g>
	<path fill="#005777" d="M55.831,6.402C52.862,2.688,44.268,0,34.123,0C23.977,0,15.384,2.688,12.415,6.402
		c-0.145,0.182-0.126,0.444,0.031,0.615l2.745,3.008h18.933h18.932L55.8,7.018C55.958,6.847,55.976,6.584,55.831,6.402z"/>
	<path fill="#003D5D" d="M62.496,11.378c-1.171-0.282-7.535-1.362-9.315-1.662c-4.078-2.515-11.081-4.179-19.057-4.179
		S19.144,7.201,15.065,9.716c-1.78,0.3-8.145,1.38-9.315,1.662c-1.364,0.329-1.928,0.705-1.27,2.069
		c0.659,1.363,1.505,2.962,1.552,4.044c0.047,1.081,0.489,1.37,4.571,1.226s23.52,0,23.52,0s19.438-0.145,23.52,0
		s4.523-0.145,4.57-1.226c0.047-1.082,0.895-2.681,1.553-4.044C64.424,12.083,63.86,11.707,62.496,11.378z"/>
	<path fill="#003D5D" d="M61.053,25.721c-1.771-7.289-3.088-11.412-26.93-11.412c-23.843,0-25.16,4.123-26.931,11.412
		c-1.475,6.071-3.527,8.605-3.527,8.605h30.458h30.458C64.581,34.326,62.529,31.792,61.053,25.721z"/>
	<path fill="#E7E1D1" d="M34.123,22.517V10.204C23.238,10.204,0.477,36.75,0,37.307v0.001c1.005,1.927,1.943,3.927,2.819,5.956
		C10.107,36.527,25.12,23.608,34.123,22.517z"/>
	<path fill="#003D5D" d="M2.819,43.264c5.239,12.138,8.195,25.334,9.22,30.438c0,0,0.001,0.002,0.001,0.003
		c9.033,0.312,16.946,2.022,22.083,4.532v-55.72C25.12,23.608,10.107,36.527,2.819,43.264z"/>
	<path fill="#DAD3BC" d="M34.123,22.517V10.204c10.884,0,33.646,26.546,34.123,27.103v0.001c-1.005,1.927-1.942,3.927-2.818,5.956
		C58.138,36.527,43.125,23.608,34.123,22.517z"/>
	<path fill="#005777" d="M65.427,43.264c-5.239,12.138-8.195,25.334-9.22,30.438c0,0-0.001,0.002-0.002,0.003
		c-9.033,0.312-16.945,2.022-22.083,4.532v-55.72C43.125,23.608,58.138,36.527,65.427,43.264z"/>
</g>
</svg>
