<?xml version="1.0" encoding="UTF-8" standalone="no"?>
<!-- Generator: Adobe Illustrator 16.0.4, SVG Export Plug-In . SVG Version: 6.00 Build 0)  -->
<!DOCTYPE svg  PUBLIC '-//W3C//DTD SVG 1.1//EN'  'http://www.w3.org/Graphics/SVG/1.1/DTD/svg11.dtd'>
<svg id="svg2" xmlns:rdf="http://www.w3.org/1999/02/22-rdf-syntax-ns#" xmlns="http://www.w3.org/2000/svg" enable-background="new 0.875 25.636 145.188 813.312" xml:space="preserve" height="813.31px" viewBox="0.875 25.636 145.188 813.312" width="145.19px" version="1.1" y="0px" x="0px" xmlns:cc="http://creativecommons.org/ns#" xmlns:xlink="http://www.w3.org/1999/xlink" xmlns:dc="http://purl.org/dc/elements/1.1/">
		<g id="g10" transform="matrix(1.25,0,0,-1.25,0,990)">
			<g id="g3048">
						<g id="g3050">
							<g id="g3056" transform="translate(574.32 60.63)">
								<path id="path3058" d="m-463.59 60.574v26.718h0.006l1.593 6.662 1.315 5.631 0.939 4.975 0.654 4.692 0.66 5.446 0.372 5.441 0.191 5.82-0.191 6.102-0.28 6.661-0.752 7.227-0.748 6.478-0.941 6.852-1.219 7.319-1.593 8.637h-0.007v465.47c0 27.633-1.74 50.491-4.808 69.724l-94.301 0.148c-3.053-19.202-4.785-42.312-4.785-69.874v-465.48h-0.003l-1.594-8.636-1.218-7.319-0.942-6.852-0.749-6.478-0.754-7.226-0.28-6.661-0.188-6.102 0.188-5.82 0.374-5.441 0.659-5.446 0.656-4.691 0.938-4.975 1.315-5.631 1.594-6.663h0.003v-26.707h103.9z" fill="#fff"/>
							</g>
							<g id="g3060" transform="translate(574.32 60.63)">
								<path id="path3062" d="m-463.59 60.574v26.718h0.006l1.593 6.662 1.315 5.631 0.939 4.975 0.654 4.692 0.66 5.446 0.372 5.441 0.191 5.82-0.191 6.102-0.28 6.661-0.752 7.227-0.748 6.478-0.941 6.852-1.219 7.319-1.593 8.637h-0.007v465.47c0 27.633-1.74 50.491-4.808 69.724l-94.301 0.148c-3.053-19.202-4.785-42.312-4.785-69.874v-465.48h-0.003l-1.594-8.636-1.218-7.319-0.942-6.852-0.749-6.478-0.754-7.226-0.28-6.661-0.188-6.102 0.188-5.82 0.374-5.441 0.659-5.446 0.656-4.691 0.938-4.975 1.315-5.631 1.594-6.663h0.003v-26.707h103.9z" stroke="#918F90" stroke-width=".946" fill="none"/>
							</g>
						</g>
			</g>
			<g id="g3064">
						<g id="g3066">
							<path id="path3072" d="m81.889 263.89h-5.166v1.189h5.166v-1.19z" stroke="#918F90" stroke-width=".473" fill="#fff"/>
							<path id="path3074" d="m81.889 265.08h-5.166v1.19h5.166v-1.19z" stroke="#918F90" stroke-width=".473" fill="#fff"/>
							<path id="path3076" d="m81.889 266.27h-5.166v1.192h5.166v-1.19z" stroke="#918F90" stroke-width=".473" fill="#fff"/>
							<path id="path3078" d="m85.77 263.89h-3.881v1.189h3.881v-1.19z" stroke="#918F90" stroke-width=".473" fill="#fff"/>
							<path id="path3080" d="m85.77 265.08h-3.881v1.19h3.881v-1.19z" stroke="#918F90" stroke-width=".473" fill="#fff"/>
							<path id="path3082" d="m85.77 266.27h-3.881v1.192h3.881v-1.19z" stroke="#918F90" stroke-width=".473" fill="#fff"/>
							<path id="path3084" d="m81.889 267.46h-5.166v1.191h5.166v-1.19z" stroke="#918F90" stroke-width=".473" fill="#fff"/>
							<path id="path3086" d="m85.77 267.46h-3.881v1.191h3.881v-1.19z" stroke="#918F90" stroke-width=".473" fill="#fff"/>
							<path id="path3088" d="m81.889 268.65h-5.166v1.191h5.166v-1.19z" stroke="#918F90" stroke-width=".473" fill="#fff"/>
							<path id="path3090" d="m85.77 268.65h-3.881v1.191h3.881v-1.19z" stroke="#918F90" stroke-width=".473" fill="#fff"/>
							<path id="path3092" d="m81.889 269.84h-5.166v1.19h5.166v-1.19z" stroke="#918F90" stroke-width=".473" fill="#fff"/>
							<path id="path3094" d="m85.77 269.84h-3.881v1.19h3.881v-1.19z" stroke="#918F90" stroke-width=".473" fill="#fff"/>
							<path id="path3096" d="m76.722 263.89h-3.88v1.189h3.88v-1.19z" stroke="#918F90" stroke-width=".473" fill="#fff"/>
							<path id="path3098" d="m76.722 265.08h-3.88v1.19h3.88v-1.19z" stroke="#918F90" stroke-width=".473" fill="#fff"/>
							<path id="path3100" d="m76.722 266.27h-3.88v1.192h3.88v-1.19z" stroke="#918F90" stroke-width=".473" fill="#fff"/>
							<path id="path3102" d="m76.722 267.46h-3.88v1.191h3.88v-1.19z" stroke="#918F90" stroke-width=".473" fill="#fff"/>
							<path id="path3104" d="m76.722 268.65h-3.88v1.191h3.88v-1.19z" stroke="#918F90" stroke-width=".473" fill="#fff"/>
							<path id="path3106" d="m76.722 269.84h-3.88v1.19h3.88v-1.19z" stroke="#918F90" stroke-width=".473" fill="#fff"/>
							<path id="path3108" d="m85.77 263.9h-12.928v-3.507h12.928v3.51z" stroke="#918F90" stroke-width=".473" fill="#fff"/>
							<path id="path3110" d="m41.112 263.89h-5.167v1.189h5.167v-1.19z" stroke="#918F90" stroke-width=".473" fill="#fff"/>
							<path id="path3112" d="m41.112 265.08h-5.167v1.19h5.167v-1.19z" stroke="#918F90" stroke-width=".473" fill="#fff"/>
							<path id="path3114" d="m41.112 266.27h-5.167v1.192h5.167v-1.19z" stroke="#918F90" stroke-width=".473" fill="#fff"/>
							<path id="path3116" d="m44.993 263.89h-3.88v1.189h3.88v-1.19z" stroke="#918F90" stroke-width=".473" fill="#fff"/>
							<path id="path3118" d="m44.993 265.08h-3.88v1.19h3.88v-1.19z" stroke="#918F90" stroke-width=".473" fill="#fff"/>
							<path id="path3120" d="m44.993 266.27h-3.88v1.192h3.88v-1.19z" stroke="#918F90" stroke-width=".473" fill="#fff"/>
							<path id="path3122" d="m41.112 267.46h-5.167v1.191h5.167v-1.19z" stroke="#918F90" stroke-width=".473" fill="#fff"/>
							<path id="path3124" d="m44.993 267.46h-3.88v1.191h3.88v-1.19z" stroke="#918F90" stroke-width=".473" fill="#fff"/>
							<path id="path3126" d="m41.112 268.65h-5.167v1.191h5.167v-1.19z" stroke="#918F90" stroke-width=".473" fill="#fff"/>
							<path id="path3128" d="m44.993 268.65h-3.88v1.191h3.88v-1.19z" stroke="#918F90" stroke-width=".473" fill="#fff"/>
							<path id="path3130" d="m41.112 269.84h-5.167v1.19h5.167v-1.19z" stroke="#918F90" stroke-width=".473" fill="#fff"/>
							<path id="path3132" d="m44.993 269.84h-3.88v1.19h3.88v-1.19z" stroke="#918F90" stroke-width=".473" fill="#fff"/>
							<path id="path3134" d="m35.945 263.89h-3.88v1.189h3.88v-1.19z" stroke="#918F90" stroke-width=".473" fill="#fff"/>
							<path id="path3136" d="m35.945 265.08h-3.88v1.19h3.88v-1.19z" stroke="#918F90" stroke-width=".473" fill="#fff"/>
							<path id="path3138" d="m35.945 266.27h-3.88v1.192h3.88v-1.19z" stroke="#918F90" stroke-width=".473" fill="#fff"/>
							<path id="path3140" d="m35.945 267.46h-3.88v1.191h3.88v-1.19z" stroke="#918F90" stroke-width=".473" fill="#fff"/>
							<path id="path3142" d="m35.945 268.65h-3.88v1.191h3.88v-1.19z" stroke="#918F90" stroke-width=".473" fill="#fff"/>
							<path id="path3144" d="m35.945 269.84h-3.88v1.19h3.88v-1.19z" stroke="#918F90" stroke-width=".473" fill="#fff"/>
							<path id="path3146" d="m44.993 263.9h-12.928v-3.507h12.928v3.51z" stroke="#918F90" stroke-width=".473" fill="#fff"/>
							<path id="path3148" d="m75.166 651.29h5.166v-1.19h-5.166v1.19z" stroke="#918F90" stroke-width=".473" fill="#fff"/>
							<path id="path3150" d="m75.166 650.1h5.166v-1.19h-5.166v1.19z" stroke="#918F90" stroke-width=".473" fill="#fff"/>
							<path id="path3152" d="m75.166 648.91h5.166v-1.191h-5.166v1.19z" stroke="#918F90" stroke-width=".473" fill="#fff"/>
							<path id="path3154" d="m71.285 651.29h3.881v-1.19h-3.881v1.19z" stroke="#918F90" stroke-width=".473" fill="#fff"/>
							<path id="path3156" d="m71.285 650.1h3.881v-1.19h-3.881v1.19z" stroke="#918F90" stroke-width=".473" fill="#fff"/>
							<path id="path3158" d="m71.285 648.91h3.881v-1.191h-3.881v1.19z" stroke="#918F90" stroke-width=".473" fill="#fff"/>
							<path id="path3160" d="m75.166 647.72h5.166v-1.19h-5.166v1.19z" stroke="#918F90" stroke-width=".473" fill="#fff"/>
							<path id="path3162" d="m71.285 647.72h3.881v-1.19h-3.881v1.19z" stroke="#918F90" stroke-width=".473" fill="#fff"/>
							<path id="path3164" d="m75.166 646.53h5.166v-1.191h-5.166v1.19z" stroke="#918F90" stroke-width=".473" fill="#fff"/>
							<path id="path3166" d="m71.285 646.53h3.881v-1.191h-3.881v1.19z" stroke="#918F90" stroke-width=".473" fill="#fff"/>
							<path id="path3168" d="m75.166 645.34h5.166v-1.19h-5.166v1.19z" stroke="#918F90" stroke-width=".473" fill="#fff"/>
							<path id="path3170" d="m71.285 645.34h3.881v-1.19h-3.881v1.19z" stroke="#918F90" stroke-width=".473" fill="#fff"/>
							<path id="path3172" d="m80.333 651.29h3.882v-1.19h-3.882v1.19z" stroke="#918F90" stroke-width=".473" fill="#fff"/>
							<path id="path3174" d="m80.333 650.1h3.882v-1.19h-3.882v1.19z" stroke="#918F90" stroke-width=".473" fill="#fff"/>
							<path id="path3176" d="m80.333 648.91h3.882v-1.191h-3.882v1.19z" stroke="#918F90" stroke-width=".473" fill="#fff"/>
							<path id="path3178" d="m80.333 647.72h3.882v-1.19h-3.882v1.19z" stroke="#918F90" stroke-width=".473" fill="#fff"/>
							<path id="path3180" d="m80.333 646.53h3.882v-1.191h-3.882v1.19z" stroke="#918F90" stroke-width=".473" fill="#fff"/>
							<path id="path3182" d="m80.333 645.34h3.882v-1.19h-3.882v1.19z" stroke="#918F90" stroke-width=".473" fill="#fff"/>
							<path id="path3184" d="m71.285 651.28h12.93v3.509h-12.93v-3.51z" stroke="#918F90" stroke-width=".473" fill="#fff"/>
							<path id="path3186" d="m36.832 651.22h5.167v-1.19h-5.167v1.19z" stroke="#918F90" stroke-width=".473" fill="#fff"/>
							<path id="path3188" d="m36.832 650.03h5.167v-1.192h-5.167v1.19z" stroke="#918F90" stroke-width=".473" fill="#fff"/>
							<path id="path3190" d="m36.832 648.84h5.167v-1.19h-5.167v1.19z" stroke="#918F90" stroke-width=".473" fill="#fff"/>
							<path id="path3192" d="m32.952 651.22h3.88v-1.19h-3.88v1.19z" stroke="#918F90" stroke-width=".473" fill="#fff"/>
							<path id="path3194" d="m32.952 650.03h3.88v-1.192h-3.88v1.19z" stroke="#918F90" stroke-width=".473" fill="#fff"/>
							<path id="path3196" d="m32.952 648.84h3.88v-1.19h-3.88v1.19z" stroke="#918F90" stroke-width=".473" fill="#fff"/>
							<path id="path3198" d="m36.832 647.64h5.167v-1.191h-5.167v1.19z" stroke="#918F90" stroke-width=".473" fill="#fff"/>
							<path id="path3200" d="m32.952 647.64h3.88v-1.191h-3.88v1.19z" stroke="#918F90" stroke-width=".473" fill="#fff"/>
							<path id="path3202" d="m36.832 646.45h5.167v-1.19h-5.167v1.19z" stroke="#918F90" stroke-width=".473" fill="#fff"/>
							<path id="path3204" d="m32.952 646.45h3.88v-1.19h-3.88v1.19z" stroke="#918F90" stroke-width=".473" fill="#fff"/>
							<path id="path3206" d="m36.832 645.26h5.167v-1.19h-5.167v1.19z" stroke="#918F90" stroke-width=".473" fill="#fff"/>
							<path id="path3208" d="m32.952 645.26h3.88v-1.19h-3.88v1.19z" stroke="#918F90" stroke-width=".473" fill="#fff"/>
							<path id="path3210" d="m42 651.22h3.882v-1.19h-3.882v1.19z" stroke="#918F90" stroke-width=".473" fill="#fff"/>
							<path id="path3212" d="m42 650.03h3.882v-1.192h-3.882v1.19z" stroke="#918F90" stroke-width=".473" fill="#fff"/>
							<path id="path3214" d="m42 648.84h3.882v-1.19h-3.882v1.19z" stroke="#918F90" stroke-width=".473" fill="#fff"/>
							<path id="path3216" d="m42 647.64h3.882v-1.191h-3.882v1.19z" stroke="#918F90" stroke-width=".473" fill="#fff"/>
							<path id="path3218" d="m42 646.45h3.882v-1.19h-3.882v1.19z" stroke="#918F90" stroke-width=".473" fill="#fff"/>
							<path id="path3220" d="m42 645.26h3.882v-1.19h-3.882v1.19z" stroke="#918F90" stroke-width=".473" fill="#fff"/>
							<path id="path3222" d="m32.952 651.2h12.93v3.511h-12.93v-3.51z" stroke="#918F90" stroke-width=".473" fill="#fff"/>
							<path id="path3224" d="m36.1 301.43h-6.162v-17.905h6.162v17.91z" stroke="#918F90" stroke-width=".473" fill="#fff"/>
							<path id="path3226" d="m87.439 301.48h-6.159v-17.909h6.159v17.91z" stroke="#918F90" stroke-width=".473" fill="#fff"/>
							<g id="g3228" transform="translate(525.41 230.43)">
								<path id="path3230" d="m-463.59 60.574c0 4.1 1.219 8.166 3.011 10.545 1.075 1.43 3.516 1.507 3.516 1.507h3.514v-21.79h-7.734s-2.31 4.119-2.31 9.738" fill="#fff"/>
							</g>
							<g id="g3232" transform="translate(525.41 230.43)">
								<path id="path3234" d="m-463.59 60.574c0 4.1 1.219 8.166 3.011 10.545 1.075 1.43 3.516 1.507 3.516 1.507h3.514v-21.79h-7.734s-2.31 4.119-2.31 9.738z" stroke="#918F90" stroke-width=".946" fill="none"/>
							</g>
							<g id="g3236" transform="translate(519.17 230.43)">
								<path id="path3238" d="m-463.59 60.574c0 4.1-1.22 8.166-3.013 10.545-1.075 1.43-3.516 1.507-3.516 1.507h-3.511v-21.79h7.731s2.31 4.119 2.31 9.738" fill="#fff"/>
							</g>
							<g id="g3240" transform="translate(519.17 230.43)">
								<path id="path3242" d="m-463.59 60.574c0 4.1-1.22 8.166-3.013 10.545-1.075 1.43-3.516 1.507-3.516 1.507h-3.511v-21.79h7.731s2.31 4.119 2.31 9.738z" stroke="#918F90" stroke-width=".946" fill="none"/>
							</g>
							<g id="g3244" transform="translate(535.44 221.66)">
								<path id="path3246" d="m-463.59 60.574h-3.401c-1.52 0-2.752 1.698-2.752 3.791 0 2.097 1.232 3.794 2.752 3.794h3.401v-7.585zm-26.31 0h3.398c1.52 0 2.756 1.698 2.756 3.791 0 2.097-1.236 3.794-2.756 3.794h-3.398v-7.585zm26.31 9.805h-3.401c-1.52 0-2.752 1.695-2.752 3.791 0 2.095 1.232 3.793 2.752 3.793h3.401v-7.584zm-26.31 0h3.398c1.52 0 2.756 1.695 2.756 3.791 0 2.095-1.236 3.793-2.756 3.793h-3.398v-7.584zm7 29.362l-4.054-1.203m3.85 2.302l-4.217-0.878m4.09 1.978l-4.323-0.533m4.11 1.64l-4.24-0.173m4.35 1.28l-4.345 0.184m4.38 0.94l-4.248 0.534m4.48 0.55l-4.242 0.892m4.36 0.24l-3.999 1.193m5.01 1.15l-3.757 1.941m4.3-0.97l-3.572 2.236m4.1-1.26l-3.284 2.454m0.31 0.78c-0.875-1.143-1.609-2.402-2.205-3.733l-0.849-2.302c-0.576-1.955-0.857-4.039-0.758-6.199 0.068-1.473 0.319-2.884 0.695-4.241 0.818-3.136 2.62-5.419 3.558-6.507l0.534-0.611 2.946 3.091c-0.598 0.695-1.418 1.93-1.878 2.739 0.527 0.598 0.512 1.509-0.064 2.07-0.291 0.278-0.666 0.416-1.041 0.421l0.055 0.012c-0.288 1.032-0.476 2.106-0.526 3.22-0.071 1.52 0.112 2.989 0.484 4.373 0.373 0.028 0.74 0.184 1.009 0.484 0.545 0.596 0.512 1.502-0.051 2.066 0.409 0.835 1.153 2.117 1.709 2.849l-3.123 2.908-0.5-0.64zm2.03-17.688l-3.634-2.168m4.22 1.228l-3.434-2.447m4.03 1.496l-3.136-2.646m13.36 6.956l4.054-1.203m-3.85 2.302l4.212-0.878m-4.08 1.978l4.323-0.533m-4.12 1.64l4.239-0.173m-4.34 1.28l4.341 0.184m-4.37 0.94l4.249 0.534m-4.49 0.55l4.241 0.892m-4.36 0.24l4.003 1.193m-5 1.15l3.756 1.941m-4.3-0.97l3.57 2.236m-4.11-1.26l3.286 2.454m-0.32 0.78c0.875-1.143 1.608-2.402 2.205-3.733l0.849-2.302c0.577-1.955 0.858-4.039 0.758-6.199-0.067-1.473-0.318-2.884-0.695-4.241-0.818-3.136-2.62-5.419-3.561-6.507l-0.53-0.611-2.951 3.091c0.6 0.695 1.423 1.93 1.88 2.739-0.526 0.598-0.512 1.509 0.067 2.07 0.291 0.278 0.664 0.416 1.041 0.421l-0.058 0.012c0.287 1.032 0.479 2.106 0.529 3.22 0.071 1.52-0.112 2.989-0.485 4.373-0.372 0.028-0.738 0.184-1.012 0.484-0.542 0.596-0.51 1.502 0.054 2.066-0.409 0.835-1.154 2.117-1.714 2.849l3.128 2.908 0.47-0.64zm-2.03-17.688l3.636-2.168m-4.23 1.228l3.432-2.447m-4.03 1.496l3.137-2.646" stroke="#918F90" stroke-width=".473" fill="none"/>
							</g>
							<path id="path3248" d="m38.77 631.06h-6.16v-17.907h6.16v17.91z" stroke="#918F90" stroke-width=".473" fill="#fff"/>
							<path id="path3250" d="m85.099 631.06h-6.16v-17.907h6.16v17.91z" stroke="#918F90" stroke-width=".473" fill="#fff"/>
							<g id="g3252" transform="translate(534.53 552.82)">
								<path id="path3254" d="m-463.59 60.574v19.922h-5.095c-1.238-2.823-3.693-3.377-7.016-3.377-3.327 0-5.78 0.554-7.02 3.377h-5.062v-19.919c3.062-1.395 7.348-3.271 12.098-3.271s9.03 1.875 12.09 3.268" fill="#fff"/>
							</g>
							<g id="g3256" transform="translate(534.53 552.82)">
								<path id="path3258" d="m-463.59 60.574v19.922h-5.095c-1.238-2.823-3.693-3.377-7.016-3.377-3.327 0-5.78 0.554-7.02 3.377h-5.062v-19.919c3.062-1.395 7.348-3.271 12.098-3.271s9.03 1.875 12.09 3.268zm-43.11 153.89h61.825v-19.684h-7.648l-2.108-3.713 8.134-4.719 1.105-1.708c-2.116-7.626-0.326-11.638 0.188-13.584 0.514-1.943 4.009-9.401-0.917-18.434-5.577-10.215-16.215-11.346-29.822-11.346-13.608 0-24.245 1.131-29.823 11.346-4.928 9.033-1.43 16.491-0.916 18.434 0.513 1.946 2.075 6.052-0.042 13.678l1.383 1.489 8.435 4.743-2.408 3.994h-7.385l0.02 19.5z" stroke="#918F90" stroke-width=".946" fill="none"/>
							</g>
							<g id="g3260" transform="translate(536.9 609.35)">
									<path id="path3262" stroke-linejoin="round" d="m-463.59 60.574c-0.088-0.331-0.133-0.681-0.133-1.043 0-1.072 0.414-2.043 1.087-2.746 0.673-0.702 1.603-1.136 2.628-1.136 1.026 0 1.77 0.571 2.379 1.207s0.675 1.437 0.675 2.32c0 0.882-0.454 1.047-0.961 1.576-0.751 0.786-1.191 1.232-3.411 0.647-2.861-0.753-3.538-1.429-4.818-3.614-1.281-2.185 0.076-4.594 1.383-5.519 0.51-0.379 1.052-0.72 1.644-0.972 0.956-0.405 2.009-0.628 3.11-0.628 1.105 0 2.154 0.223 3.111 0.628 0.956 0.405 1.816 0.989 2.54 1.712s1.309 1.586 1.713 2.54c0.405 0.958 0.628 2.009 0.628 3.111s-0.223 2.154-0.63 3.111c-0.403 0.956-1.373 3.248-1.373 3.248" stroke="#918F90" stroke-width=".473" fill="#fff"/>
							</g>
							<g id="g3264" transform="translate(543.26 608.89)">
								<path id="path3266" d="m-463.59 60.574l4.304 2.253m-3.96-3.142l4.746 0.862m-4.89-1.797l4.955-0.614m-5.18-0.265l4.527-2.054m-5.04 1.307l3.729-3.329m-4.4 2.718l2.539-4.252m-3.4 3.937l1.168-4.849m-2.08 4.699l-0.326-4.902m-0.59 5.064l-1.759-4.542m0.9 4.957l-2.993-3.756m-25.71-390.29l1.538-0.031 1.926-7.198 0.46-3.327 2.531-3.002-1.133-12.616 2.059-0.548-3.86-17.51h-14.066v-1.56h-2.881v8.532h-1.562v3.972h1.582v4.668h-11.449" stroke="#918F90" stroke-width=".473" fill="none"/>
							</g>
							<g id="g3268" transform="translate(513.94 90.4)">
								<path id="path3270" d="m-463.59 60.574c0.617-4.092 4.144-7.232 8.408-7.232 4.263 0 7.778 3.134 8.402 7.223v3.45c0.436-0.084 0.885-0.13 1.348-0.13 3.832 0 6.936 3.104 6.936 6.936 0 2.639-1.482 4.911-3.648 6.085-0.79 0.247-1.537 0.659-2.162 1.282-1.031 1.034-1.548 2.384-1.548 3.736 0 1.355 0.514 2.707 1.548 3.739 1.022 1.02 2.362 1.53 3.701 1.543 2.911 2.962 4.943 6.791 5.615 11.084-0.851 0.793-1.392 1.913-1.392 3.166 0 1.263 0.546 2.388 1.406 3.179-0.641 4.061-2.478 7.721-5.145 10.604-0.296-0.048-0.594-0.084-0.891-0.084-1.349 0-2.705 0.516-3.735 1.545-1.034 1.034-1.547 2.385-1.547 3.738 0 1.35 0.512 2.705 1.547 3.734 0.186 0.189 0.391 0.338 0.594 0.489l-0.166 0.134c-3.127 1.291-6.802 2.052-10.76 2.052-3.961 0-7.646-0.764-10.774-2.057l-0.164-0.136c0.187-0.143 0.38-0.278 0.55-0.45 1.034-1.03 1.549-2.384 1.549-3.736v-0.028s-0.002-0.002-0.002-0.005c-0.009-1.341-0.521-2.68-1.548-3.702-1.027-1.036-2.38-1.55-3.734-1.55-0.274 0-0.55 0.041-0.827 0.082-2.727-2.947-4.586-6.695-5.19-10.859 0.72-0.773 1.17-1.807 1.17-2.95 0-1.134-0.442-2.156-1.157-2.932 0.637-4.401 2.701-8.33 5.68-11.347 1.239-0.08 2.456-0.568 3.4-1.515 1.036-1.032 1.549-2.384 1.549-3.739 0-1.352-0.513-2.702-1.549-3.736-0.621-0.623-1.371-1.035-2.158-1.282-2.168-1.174-3.652-3.446-3.652-6.085 0-3.832 3.109-6.936 6.938-6.936 0.481 0 0.953 0.046 1.407 0.141v-3.435z" fill="#fff"/>
							</g>
							<g id="g3272" transform="translate(513.94 90.4)">
									<path id="path3274" stroke-linejoin="round" d="m-463.59 60.574c0.617-4.092 4.144-7.232 8.408-7.232 4.263 0 7.778 3.134 8.402 7.223v3.45c0.436-0.084 0.885-0.13 1.348-0.13 3.832 0 6.936 3.104 6.936 6.936 0 2.639-1.482 4.911-3.648 6.085-0.79 0.247-1.537 0.659-2.162 1.282-1.031 1.034-1.548 2.384-1.548 3.736 0 1.355 0.514 2.707 1.548 3.739 1.022 1.02 2.362 1.53 3.701 1.543 2.911 2.962 4.943 6.791 5.615 11.084-0.851 0.793-1.392 1.913-1.392 3.166 0 1.263 0.546 2.388 1.406 3.179-0.641 4.061-2.478 7.721-5.145 10.604-0.296-0.048-0.594-0.084-0.891-0.084-1.349 0-2.705 0.516-3.735 1.545-1.034 1.034-1.547 2.385-1.547 3.738 0 1.35 0.512 2.705 1.547 3.734 0.186 0.189 0.391 0.338 0.594 0.489l-0.166 0.134c-3.127 1.291-6.802 2.052-10.76 2.052-3.961 0-7.646-0.764-10.774-2.057l-0.164-0.136c0.187-0.143 0.38-0.278 0.55-0.45 1.034-1.03 1.549-2.384 1.549-3.736v-0.028s-0.002-0.002-0.002-0.005c-0.009-1.341-0.521-2.68-1.548-3.702-1.027-1.036-2.38-1.55-3.734-1.55-0.274 0-0.55 0.041-0.827 0.082-2.727-2.947-4.586-6.695-5.19-10.859 0.72-0.773 1.17-1.807 1.17-2.95 0-1.134-0.442-2.156-1.157-2.932 0.637-4.401 2.701-8.33 5.68-11.347 1.239-0.08 2.456-0.568 3.4-1.515 1.036-1.032 1.549-2.384 1.549-3.739 0-1.352-0.513-2.702-1.549-3.736-0.621-0.623-1.371-1.035-2.158-1.282-2.168-1.174-3.652-3.446-3.652-6.085 0-3.832 3.109-6.936 6.938-6.936 0.481 0 0.953 0.046 1.407 0.141v-3.435z" stroke="#918F90" stroke-width=".946" fill="none"/>
							</g>
							<g id="g3276" transform="translate(515.13 90.56)">
								<path id="path3278" d="m-463.59 60.574" stroke="#100F0D" stroke-width=".473" fill="none"/>
							</g>
							<g id="g3280" transform="translate(517.66 102.18)">
								<path id="path3282" d="m-463.59 60.574c0.216-0.284 0.395-0.595 0.545-0.916 0.15-0.316 0.267-0.652 0.347-0.998 0.078-0.348 0.119-0.705 0.119-1.073 0-0.369-0.041-0.727-0.119-1.072-0.08-0.346-0.197-0.683-0.347-1.002-0.151-0.316-0.335-0.62-0.548-0.902-0.217-0.284-0.457-0.547-0.727-0.789-0.271-0.24-0.566-0.457-0.881-0.647-0.319-0.193-0.657-0.358-1.015-0.491-0.356-0.135-0.726-0.242-1.114-0.31-0.388-0.072-0.79-0.111-1.201-0.111-0.412 0-0.812 0.039-1.2 0.111-0.389 0.068-0.76 0.175-1.116 0.31-0.355 0.133-0.695 0.298-1.011 0.488l-1.759-3.457c0.362-0.187 0.741-0.354 1.128-0.503 0.607-0.227 1.247-0.409 1.909-0.529 0.663-0.12 1.347-0.184 2.049-0.184s1.386 0.064 2.052 0.184c0.657 0.12 1.298 0.302 1.906 0.529 0.61 0.23 1.188 0.512 1.727 0.837 0.54 0.328 1.044 0.7 1.505 1.112 0.068 0.063 0.128 0.126 0.194 0.19 0.677 0.438 1.478 0.697 2.345 0.697 0.823 0 1.583-0.241 2.239-0.637 0.084-0.084 0.165-0.17 0.253-0.248 0.459-0.412 0.962-0.784 1.505-1.112 0.541-0.325 1.117-0.608 1.728-0.837 0.605-0.227 1.244-0.409 1.905-0.529 0.663-0.12 1.35-0.184 2.049-0.184 0.705 0 1.39 0.064 2.049 0.184 0.661 0.12 1.301 0.302 1.909 0.529 0.389 0.148 0.768 0.316 1.128 0.503l-1.755 3.456c-0.316-0.19-0.657-0.355-1.013-0.488-0.355-0.135-0.73-0.242-1.116-0.31-0.386-0.073-0.789-0.112-1.202-0.112-0.408 0-0.81 0.039-1.2 0.111-0.386 0.068-0.76 0.175-1.114 0.31-0.355 0.133-0.698 0.298-1.013 0.491-0.316 0.19-0.614 0.407-0.881 0.647-0.27 0.242-0.513 0.505-0.727 0.789-0.216 0.283-0.398 0.586-0.548 0.902-0.151 0.319-0.27 0.655-0.347 1.002-0.08 0.345-0.122 0.703-0.122 1.072 0 0.368 0.041 0.725 0.122 1.071 0.077 0.347 0.196 0.682 0.347 0.998 0.15 0.321 0.328 0.632 0.542 0.916-1.327 0.995-2.974 1.605-4.763 1.605-1.8 0.002-3.45-0.609-4.78-1.603" fill="#fff"/>
							</g>
							<g id="g3284" transform="translate(517.66 102.18)">
									<path id="path3286" stroke-linejoin="round" d="m-463.59 60.574c0.216-0.284 0.395-0.595 0.545-0.916 0.15-0.316 0.267-0.652 0.347-0.998 0.078-0.348 0.119-0.705 0.119-1.073 0-0.369-0.041-0.727-0.119-1.072-0.08-0.346-0.197-0.683-0.347-1.002-0.151-0.316-0.335-0.62-0.548-0.902-0.217-0.284-0.457-0.547-0.727-0.789-0.271-0.24-0.566-0.457-0.881-0.647-0.319-0.193-0.657-0.358-1.015-0.491-0.356-0.135-0.726-0.242-1.114-0.31-0.388-0.072-0.79-0.111-1.201-0.111-0.412 0-0.812 0.039-1.2 0.111-0.389 0.068-0.76 0.175-1.116 0.31-0.355 0.133-0.695 0.298-1.011 0.488l-1.759-3.457c0.362-0.187 0.741-0.354 1.128-0.503 0.607-0.227 1.247-0.409 1.909-0.529 0.663-0.12 1.347-0.184 2.049-0.184s1.386 0.064 2.052 0.184c0.657 0.12 1.298 0.302 1.906 0.529 0.61 0.23 1.188 0.512 1.727 0.837 0.54 0.328 1.044 0.7 1.505 1.112 0.068 0.063 0.128 0.126 0.194 0.19 0.677 0.438 1.478 0.697 2.345 0.697 0.823 0 1.583-0.241 2.239-0.637 0.084-0.084 0.165-0.17 0.253-0.248 0.459-0.412 0.962-0.784 1.505-1.112 0.541-0.325 1.117-0.608 1.728-0.837 0.605-0.227 1.244-0.409 1.905-0.529 0.663-0.12 1.35-0.184 2.049-0.184 0.705 0 1.39 0.064 2.049 0.184 0.661 0.12 1.301 0.302 1.909 0.529 0.389 0.148 0.768 0.316 1.128 0.503l-1.755 3.456c-0.316-0.19-0.657-0.355-1.013-0.488-0.355-0.135-0.73-0.242-1.116-0.31-0.386-0.073-0.789-0.112-1.202-0.112-0.408 0-0.81 0.039-1.2 0.111-0.386 0.068-0.76 0.175-1.114 0.31-0.355 0.133-0.698 0.298-1.013 0.491-0.316 0.19-0.614 0.407-0.881 0.647-0.27 0.242-0.513 0.505-0.727 0.789-0.216 0.283-0.398 0.586-0.548 0.902-0.151 0.319-0.27 0.655-0.347 1.002-0.08 0.345-0.122 0.703-0.122 1.072 0 0.368 0.041 0.725 0.122 1.071 0.077 0.347 0.196 0.682 0.347 0.998 0.15 0.321 0.328 0.632 0.542 0.916-1.327 0.995-2.974 1.605-4.763 1.605-1.8 0.002-3.45-0.609-4.78-1.603z" stroke="#918F90" stroke-width=".473" fill="none"/>
							</g>
							<g id="g3288" transform="translate(526.51 101.03)">
								<path id="path3290" d="m-463.59 60.575c-1.188 0.727-2.584 1.157-4.081 1.157-1.502 0-2.906-0.435-4.099-1.17m7.9-1.423c-1.125 0.628-2.422 0.997-3.805 0.997-1.394 0-2.7-0.374-3.837-1.014m7.78-1.637c-1.159 0.668-2.5 1.054-3.931 1.054-1.451 0-2.811-0.4-3.981-1.082m9.5-2.373l-2.682-3.171m3.61 2.442l-1.955-3.391m2.99 2.754l-1.248-3.475m2.46 3.309l-0.642-3.836m1.82 3.773l0.052-3.843m1.14 3.92l0.734-3.769m0.4 4.153l1.418-3.652m-19.08 4.786l2.682-3.171m-3.61 2.442l1.956-3.391m-3 2.754l1.247-3.475m-2.45 3.309l0.642-3.836m-1.83 3.773l-0.05-3.843m-1.13 3.92l-0.733-3.769m-0.41 4.153l-1.416-3.652" stroke="#918F90" stroke-width=".473" fill="none"/>
							</g>
							<g id="g3292" transform="translate(517.51 91.002)">
								<path id="path3294" d="m-463.59 60.574c-0.264-0.159-0.804-0.298-1.129-0.416-0.325-0.114-0.678-0.209-1.05-0.278-0.372-0.07-0.77-0.116-1.186-0.136-0.411-0.019-0.843-0.132-1.285-0.103-0.445 0.037-0.909-0.052-1.379 0.017-0.47 0.07-0.923 0.166-1.361 0.285-0.437 0.119-0.976 0.258-1.37 0.418-0.395 0.161-0.766 0.336-1.113 0.532l-1.796-2.924c0.369-0.196 0.755-0.386 1.157-0.56 0.626-0.27 1.412-0.512 2.104-0.712 0.691-0.204 1.413-0.367 2.16-0.49 0.745-0.12 1.467-0.112 2.171-0.168 0.705-0.055 1.389 0.055 2.049 0.091 0.655 0.036 1.284 0.112 1.877 0.235 0.594 0.12 1.152 0.162 1.668 0.364l-1.52 3.845z" fill="#fff"/>
							</g>
							<g id="g3296" transform="translate(517.51 91.002)">
									<path id="path3298" stroke-linejoin="round" d="m-463.59 60.574c-0.264-0.159-0.804-0.298-1.129-0.416-0.325-0.114-0.678-0.209-1.05-0.278-0.372-0.07-0.77-0.116-1.186-0.136-0.411-0.019-0.843-0.132-1.285-0.103-0.445 0.037-0.909-0.052-1.379 0.017-0.47 0.07-0.923 0.166-1.361 0.285-0.437 0.119-0.976 0.258-1.37 0.418-0.395 0.161-0.766 0.336-1.113 0.532l-1.796-2.924c0.369-0.196 0.755-0.386 1.157-0.56 0.626-0.27 1.412-0.512 2.104-0.712 0.691-0.204 1.413-0.367 2.16-0.49 0.745-0.12 1.467-0.112 2.171-0.168 0.705-0.055 1.389 0.055 2.049 0.091 0.655 0.036 1.284 0.112 1.877 0.235 0.594 0.12 1.152 0.162 1.668 0.364l-1.52 3.845z" stroke="#918F90" stroke-width=".473" fill="none"/>
							</g>
							<g id="g3300" transform="translate(513.83 86.711)">
								<path id="path3302" d="m-463.59 60.574m2.59 3.955l1.168-3.795m-2.29 3.466l0.846-3.741m-2.07 3.505l0.182-3.652m-1.55 3.677l-0.039-3.639m-1.32 3.677l-0.664-3.491m-0.69 3.752l-0.893-3.327m-0.49 3.796l-1.523-3.117" stroke="#918F90" stroke-width=".473" fill="none"/>
							</g>
							<g id="g3304" transform="translate(527.35 91.002)">
								<path id="path3306" d="m-463.59 60.574c0.263-0.159 0.802-0.298 1.129-0.416 0.323-0.114 0.675-0.209 1.05-0.278 0.372-0.07 0.769-0.116 1.184-0.136 0.413-0.019 0.842-0.132 1.288-0.103 0.443 0.037 0.909-0.052 1.376 0.017 0.469 0.07 0.927 0.166 1.361 0.285 0.437 0.119 0.973 0.258 1.373 0.418 0.395 0.161 0.763 0.336 1.11 0.532l1.799-2.924c-0.372-0.196-0.755-0.386-1.159-0.56-0.625-0.27-1.409-0.512-2.102-0.712-0.694-0.204-1.416-0.367-2.16-0.49-0.745-0.12-1.469-0.112-2.171-0.168-0.705-0.055-1.389 0.056-2.049 0.091-0.652 0.036-1.284 0.113-1.877 0.235-0.593 0.12-1.154 0.162-1.67 0.364l1.52 3.845z" fill="#fff"/>
							</g>
							<g id="g3308" transform="translate(527.35 91.002)">
									<path id="path3310" stroke-linejoin="round" d="m-463.59 60.574c0.263-0.159 0.802-0.298 1.129-0.416 0.323-0.114 0.675-0.209 1.05-0.278 0.372-0.07 0.769-0.116 1.184-0.136 0.413-0.019 0.842-0.132 1.288-0.103 0.443 0.037 0.909-0.052 1.376 0.017 0.469 0.07 0.927 0.166 1.361 0.285 0.437 0.119 0.973 0.258 1.373 0.418 0.395 0.161 0.763 0.336 1.11 0.532l1.799-2.924c-0.372-0.196-0.755-0.386-1.159-0.56-0.625-0.27-1.409-0.512-2.102-0.712-0.694-0.204-1.416-0.367-2.16-0.49-0.745-0.12-1.469-0.112-2.171-0.168-0.705-0.055-1.389 0.056-2.049 0.091-0.652 0.036-1.284 0.113-1.877 0.235-0.593 0.12-1.154 0.162-1.67 0.364l1.52 3.845z" stroke="#918F90" stroke-width=".473" fill="none"/>
							</g>
							<g id="g3312" transform="translate(531.03 86.711)">
								<path id="path3314" d="m-463.59 60.574m-2.59 3.955l-1.167-3.795m2.29 3.466l-0.843-3.741m2.06 3.505l-0.182-3.652m1.55 3.677l0.037-3.639m1.32 3.677l0.668-3.491m0.68 3.752l0.893-3.327m0.49 3.796l1.523-3.117m-44.68 111.37v8.587h-6.926v-17.899h8.43l-1.5 9.31zm41.88 11.75l-1.534-0.031-1.93-7.198-0.46-3.326-2.533-3.002 1.132-12.616-2.059-0.548 3.863-17.51h14.065v-1.559h2.881v8.532h1.562v3.972h-1.582v6.201h11.448m-8.36 15.28v8.588h8.51v-23.848h-11.146l2.64 15.26zm-11.67 43.91c0.976-0.98 3.312-0.754 4.215 1.355 0.905 2.109 7.066 3.389 7.066-0.151v-12.953l2.046-2.939v-7.407l6.853 0.02m-55.59 22.08c-0.976-0.98-3.312-0.754-4.215 1.355-0.905 2.109-5.727 4.216-8.587-1.054 0 0 1.957-0.605 1.957-2.43 0-1.488-1.505-2.845-1.505-5.855 0-3.012 1.355-3.012 1.355-6.327 0-3.313-1.807-2.26-1.807-4.517v-3.315h-6.929m16.58 46.08c0 2.298-1.864 4.162-4.163 4.162-2.296 0-4.16-1.864-4.16-4.162v-4.549c0-2.297 1.864-4.159 4.16-4.159 2.298 0 4.163 1.862 4.163 4.159v4.55zm-0.96-0.53c0 1.767-1.434 3.198-3.202 3.198-1.765 0-3.196-1.43-3.196-3.198v-3.499c0-1.766 1.431-3.198 3.196-3.198 1.769 0 3.202 1.432 3.202 3.198v3.5zm59.7 194.7h-7.23c0 4.321-3.223 5.981-4.362 5.981v4.916h-14.642v11.366l0.025 1.383v23.444l3.817 6.127h22.454m-0.02-30.83h-11.623v-16.408" stroke="#918F90" stroke-width=".473" fill="none"/>
							</g>
							<g id="g3316" transform="translate(522.43 274.24)">
									<path id="path3318" stroke-linejoin="round" d="m-463.59 60.574c-1.027 0-1.98 0.281-2.829 0.734l-0.79-1.14c-0.557-0.73-1.301-2.012-1.709-2.848 0.562-0.565 0.595-1.471 0.05-2.067-0.27-0.3-0.638-0.455-1.01-0.483-0.37-1.386-0.555-2.854-0.484-4.374 0.051-1.113 0.238-2.187 0.526-3.219l-0.055-0.013c0.377-0.006 0.751-0.143 1.042-0.421 0.576-0.562 0.591-1.473 0.062-2.07 0.463-0.809 1.28-2.045 1.88-2.739l0.829-1.116c0.762 0.345 1.6 0.55 2.487 0.55 0.878 0 1.709-0.198 2.461-0.537l0.75 1.102c0.6 0.695 1.423 1.93 1.88 2.739-0.527 0.597-0.513 1.509 0.066 2.07 0.291 0.278 0.666 0.415 1.041 0.421l-0.057 0.013c0.286 1.032 0.478 2.105 0.528 3.22 0.072 1.52-0.113 2.987-0.485 4.373-0.372 0.03-0.738 0.184-1.011 0.484-0.543 0.596-0.511 1.502 0.053 2.067-0.409 0.835-1.154 2.117-1.713 2.848l-0.843 1.054c-0.82-0.405-1.71-0.648-2.68-0.648z" stroke="#918F90" stroke-width=".946" fill="none"/>
							</g>
							<g id="g3320" transform="translate(542.48 554.37)">
								<path id="path3322" d="m-463.59 60.574l-0.579-0.287c-0.936-0.926-1.515-2.211-1.515-3.629 0-2.823 2.291-5.114 5.115-5.114 2.822 0 5.113 2.291 5.113 5.114 0 0.968-0.288 1.862-0.753 2.634v4.37h10.104m-10.34 16.041v-7.909h10.316v6.554h-7.528v1.355h-2.79zm-57.56-1.355h-7.404v-6.427h10.419v7.934h-3.015v-1.507z" stroke="#918F90" stroke-width=".473" fill="none"/>
							</g>
							<path id="path3324" d="m65.238 655.65h-12.803v-10.881h12.803v10.88z" stroke="#918F90" stroke-width=".946" fill="none"/>
							<g id="g3326" transform="translate(528.1 595.42)">
								<path id="path3328" d="m-463.59 60.574v1.125s5.685 0.325 7.907 4.216" stroke="#918F90" stroke-width=".473" fill="none"/>
							</g>
							<g id="g3330" transform="translate(546.48 613.79)">
									<path id="path3332" stroke-linejoin="round" d="m-463.59 60.574l3.565 1.097 1.932-4.788v-25.833h7.678m-43.63 11.071h-4.498v15.742s-14.759 2.936-16.945 3.69l-2.109-4.143v-26.284h-7.833m-9.21 81.864l7.93 5.65c1.996 2.484 6.38 5.115 8.029 5.115m61.33-0.1c2.409 0 6.173-2.234 8.333-4.921l8.258-5.748" stroke="#918F90" stroke-width=".473" fill="none"/>
							</g>
							<g id="g3334" transform="translate(568.59 89.066)">
								<path id="path3336" d="m-463.59 60.574l1.312 2.221 1.128 3.098 0.937 3.941 0.845 4.787 0.562 5.724 0.469 6.665 0.284 7.413v16.8l-0.284 7.415-0.469 6.568-0.562 5.726-0.845 4.878-0.937 3.943-1.127 3.097-1.312 2.188-3.191 1.755-5.43-0.005 0.03 444.46 8.539 6.1h1.432l0.011 14.911c0 8.986-0.187 17.456-0.548 25.449" stroke="#918F90" stroke-width=".946" fill="none"/>
							</g>
								<path id="path3338" stroke-linejoin="round" d="m16.3 675.29h4.521v-1.19h-4.521v1.19z" stroke="#918F90" stroke-linecap="round" stroke-width=".473" fill="#fff"/>
								<path id="path3340" stroke-linejoin="round" d="m16.3 674.1h4.521v-1.191h-4.521v1.19z" stroke="#918F90" stroke-linecap="round" stroke-width=".473" fill="#fff"/>
								<path id="path3342" stroke-linejoin="round" d="m16.3 672.91h4.521v-1.19h-4.521v1.19z" stroke="#918F90" stroke-linecap="round" stroke-width=".473" fill="#fff"/>
								<path id="path3344" stroke-linejoin="round" d="m16.3 671.72h4.521v-1.192h-4.521v1.19z" stroke="#918F90" stroke-linecap="round" stroke-width=".473" fill="#fff"/>
								<path id="path3346" stroke-linejoin="round" d="m16.3 670.53h4.521v-1.189h-4.521v1.19z" stroke="#918F90" stroke-linecap="round" stroke-width=".473" fill="#fff"/>
								<path id="path3348" stroke-linejoin="round" d="m16.3 669.34h4.521v-1.192h-4.521v1.19z" stroke="#918F90" stroke-linecap="round" stroke-width=".473" fill="#fff"/>
							<g id="g3350" transform="translate(479.89 621.78)">
								<path id="path3352" d="m-463.59 60.574h1.657l1.432-1.19h-3.089v1.19z" fill="#fff"/>
							</g>
							<g id="g3354" transform="translate(479.89 621.78)">
									<path id="path3356" stroke-linejoin="round" d="m-463.59 60.574h1.657l1.432-1.19h-3.089v1.19z" stroke="#918F90" stroke-linecap="round" stroke-width=".473" fill="none"/>
							</g>
							<g id="g3358" transform="translate(479.89 620.59)">
								<path id="path3360" d="m-463.59 60.574h3.089l1.432-1.19h-4.521v1.19z" fill="#fff"/>
							</g>
							<g id="g3362" transform="translate(479.89 620.59)">
									<path id="path3364" stroke-linejoin="round" d="m-463.59 60.574h3.089l1.432-1.19h-4.521v1.19z" stroke="#918F90" stroke-linecap="round" stroke-width=".473" fill="none"/>
							</g>
								<path id="path3366" stroke-linejoin="round" d="m16.3 679.98h4.521v-1.192h-4.521v1.19z" stroke="#918F90" stroke-linecap="round" stroke-width=".473" fill="#fff"/>
								<path id="path3368" stroke-linejoin="round" d="m16.3 675.28h4.521v3.509h-4.521v-3.51z" stroke="#918F90" stroke-linecap="round" stroke-width=".473" fill="#fff"/>
								<path id="path3370" stroke-linejoin="round" d="m101.13 675.55h-4.521v-1.19h4.521v1.19z" stroke="#918F90" stroke-linecap="round" stroke-width=".473" fill="#fff"/>
								<path id="path3372" stroke-linejoin="round" d="m101.13 674.36h-4.521v-1.191h4.521v1.19z" stroke="#918F90" stroke-linecap="round" stroke-width=".473" fill="#fff"/>
								<path id="path3374" stroke-linejoin="round" d="m101.13 673.16h-4.521v-1.19h4.521v1.19z" stroke="#918F90" stroke-linecap="round" stroke-width=".473" fill="#fff"/>
								<path id="path3376" stroke-linejoin="round" d="m101.13 671.98h-4.521v-1.191h4.521v1.19z" stroke="#918F90" stroke-linecap="round" stroke-width=".473" fill="#fff"/>
								<path id="path3378" stroke-linejoin="round" d="m101.13 670.78h-4.521v-1.19h4.521v1.19z" stroke="#918F90" stroke-linecap="round" stroke-width=".473" fill="#fff"/>
								<path id="path3380" stroke-linejoin="round" d="m101.13 669.59h-4.521v-1.191h4.521v1.19z" stroke="#918F90" stroke-linecap="round" stroke-width=".473" fill="#fff"/>
							<g id="g3382" transform="translate(564.72 622.04)">
								<path id="path3384" d="m-463.59 60.574h-1.66l-1.429-1.192h3.089v1.192z" fill="#fff"/>
							</g>
							<g id="g3386" transform="translate(564.72 622.04)">
									<path id="path3388" stroke-linejoin="round" d="m-463.59 60.574h-1.66l-1.429-1.192h3.089v1.192z" stroke="#918F90" stroke-linecap="round" stroke-width=".473" fill="none"/>
							</g>
							<g id="g3390" transform="translate(564.72 620.85)">
								<path id="path3392" d="m-463.59 60.574h-3.089l-1.432-1.189h4.521v1.189z" fill="#fff"/>
							</g>
							<g id="g3394" transform="translate(564.72 620.85)">
									<path id="path3396" stroke-linejoin="round" d="m-463.59 60.574h-3.089l-1.432-1.189h4.521v1.189z" stroke="#918F90" stroke-linecap="round" stroke-width=".473" fill="none"/>
							</g>
								<path id="path3398" stroke-linejoin="round" d="m101.13 680.23h-4.521v-1.192h4.521v1.19z" stroke="#918F90" stroke-linecap="round" stroke-width=".473" fill="#fff"/>
								<path id="path3400" stroke-linejoin="round" d="m101.13 675.53h-4.521v3.509h4.521v-3.51z" stroke="#918F90" stroke-linecap="round" stroke-width=".473" fill="#fff"/>
							<g id="g3402" transform="translate(520.35 560.73)">
									<path id="path3404" stroke-linejoin="round" d="m-463.59 60.574c-0.288-2.075-0.311-7.153-1.134-8.167-0.603-0.829-2.445 2.395-2.445 4.265v2.691c-0.723 0.722-1.703 0.889-2.7 0.889-1.152 0-1.916-0.258-2.611-0.958v-2.639c0-1.781 0.408-3.464 1.12-4.97 1.314-0.548 2.763-1.074 4.32-1.493-1.695 1.621-2.752 3.917-2.752 6.469m16.45 0c0-2.552-1.06-4.848-2.753-6.469 1.556 0.419 3.006 0.945 4.318 1.493 0.716 1.506 1.123 3.189 1.123 4.97v2.639c-0.737 0.736-1.565 1.038-2.715 1.038-0.998 0-1.753-0.217-2.509-0.969v-2.685l-0.002-0.003c0-1.873-1.248-4.345-2.473-4.222-0.673 0.926-0.795 4.567-0.977 6.946 0.027 0.01 0.064 0.02 0.092 0.028h-0.096c-0.034 0.449-0.072 0.856-0.116 1.188 0.023 0.004 0.045 0.007 0.066 0.012h-0.066c-0.002 0.023-0.005 0.048-0.009 0.067m-4.83-7.533c0.713-0.263 1.696-0.526 2.783-0.526 1.089 0 2.073 0.263 2.787 0.526m-5.46 1.246c0.697-0.249 1.636-0.488 2.67-0.488 1.039 0 1.982 0.24 2.677 0.491m-5.23 1.241c0.679-0.232 1.573-0.451 2.555-0.451 0.989 0 1.891 0.222 2.573 0.456m-5.02 1.241c0.663-0.216 1.514-0.414 2.443-0.414 0.941 0 1.798 0.2 2.464 0.421m-4.79 1.239c0.644-0.201 1.451-0.377 2.327-0.377 0.891 0 1.709 0.18 2.359 0.386m-4.57 1.237c0.627-0.186 1.391-0.342 2.215-0.342 0.842 0 1.621 0.162 2.252 0.352m-4.36 1.237c0.611-0.171 1.331-0.304 2.102-0.304 0.791 0 1.527 0.138 2.145 0.315" stroke="#918F90" stroke-width=".473" fill="none"/>
							</g>
							<g id="g3406" transform="translate(516.77 556.83)">
									<path id="path3408" stroke-linejoin="round" d="m-463.59 60.574l-5.312-0.017" stroke="#918F90" stroke-width=".473" fill="#fff"/>
							</g>
							<g id="g3410" transform="translate(516.81 556.03)">
									<path id="path3412" stroke-linejoin="round" d="m-463.59 60.574l-5.241-0.768" stroke="#918F90" stroke-width=".473" fill="#fff"/>
							</g>
							<g id="g3414" transform="translate(516.97 555.24)">
									<path id="path3416" stroke-linejoin="round" d="m-463.59 60.574l-5.081-1.502" stroke="#918F90" stroke-width=".473" fill="#fff"/>
							</g>
							<g id="g3418" transform="translate(517.27 554.49)">
									<path id="path3420" stroke-linejoin="round" d="m-463.59 60.574l-4.835-2.21" stroke="#918F90" stroke-width=".473" fill="#fff"/>
							</g>
							<g id="g3422" transform="translate(517.58 553.74)">
									<path id="path3424" stroke-linejoin="round" d="m-463.59 60.574l-3.769-2.422" stroke="#918F90" stroke-width=".473" fill="#fff"/>
							</g>
							<g id="g3426" transform="translate(518.06 553.07)">
									<path id="path3428" stroke-linejoin="round" d="m-463.59 60.574l-2.682-2.321" stroke="#918F90" stroke-width=".473" fill="#fff"/>
							</g>
							<g id="g3430" transform="translate(527.98 556.83)">
									<path id="path3432" stroke-linejoin="round" d="m-463.59 60.574l5.316-0.017" stroke="#918F90" stroke-width=".473" fill="#fff"/>
							</g>
							<g id="g3434" transform="translate(527.94 556.03)">
									<path id="path3436" stroke-linejoin="round" d="m-463.59 60.574l5.242-0.768" stroke="#918F90" stroke-width=".473" fill="#fff"/>
							</g>
							<g id="g3438" transform="translate(527.77 555.24)">
									<path id="path3440" stroke-linejoin="round" d="m-463.59 60.574l5.082-1.502" stroke="#918F90" stroke-width=".473" fill="#fff"/>
							</g>
							<g id="g3442" transform="translate(527.48 554.49)">
									<path id="path3444" stroke-linejoin="round" d="m-463.59 60.574l4.835-2.21" stroke="#918F90" stroke-width=".473" fill="#fff"/>
							</g>
							<g id="g3446" transform="translate(527.16 553.74)">
									<path id="path3448" stroke-linejoin="round" d="m-463.59 60.574l3.769-2.422" stroke="#918F90" stroke-width=".473" fill="#fff"/>
							</g>
							<g id="g3450" transform="translate(526.69 553.07)">
									<path id="path3452" stroke-linejoin="round" d="m-463.59 60.574l2.682-2.321" stroke="#918F90" stroke-width=".473" fill="#fff"/>
							</g>
							<g id="g3454" transform="translate(518.6 552.45)">
									<path id="path3456" stroke-linejoin="round" d="m-463.59 60.574l-1.702-2.102" stroke="#918F90" stroke-width=".473" fill="#fff"/>
							</g>
							<g id="g3458" transform="translate(526.15 552.45)">
								<path id="path3460" d="m-463.59 60.574l1.702-2.102" fill="#fff"/>
							</g>
							<g id="g3462" transform="translate(526.15 552.45)">
									<path id="path3464" stroke-linejoin="round" d="m-463.59 60.574l1.702-2.102m1.21-98.257c4.731-4.732 4.224-12.388 0.096-16.516-1.62-1.62-2.428-3.58-3.007-5.07l-3.366 1.304c0.548 1.427 1.577 4.081 3.816 6.32 1.389 1.39 2.219 3.518 2.219 5.689 0 2.195-0.822 4.223-2.314 5.716l2.55 2.557zm-2.55-2.556l2.556 2.556m-1.73-3.637l2.928 2.117m-2.28-3.316l3.228 1.625m-2.78-2.91l3.446 1.089m-3.22-2.43l3.576 0.526m-3.56-1.888l3.616-0.048m-3.81-1.3l3.561-0.62m-3.97-0.68l3.418-1.182m-4.03-0.036l3.184-1.709" stroke="#918F90" stroke-width=".473" fill="none"/>
							</g>
							<g id="g3466" transform="translate(525.12 436.14)">
								<path id="path3468" d="m-463.59 60.574l2.959-1.968m-0.64-1.222l-3.096 1.747m2.45-2.966l-3.232 1.523m0.47 9.474c1.807 5.098 1.246 9.916-1.254 10.758-2.499 0.842-5.994-2.611-7.805-7.714-1.809-5.1-1.246-9.915 1.254-10.76 2.51-0.841 6 2.616 7.81 7.716z" stroke="#918F90" stroke-width=".473" fill="none"/>
							</g>
							<g id="g3470" transform="translate(474.7 626.22)">
								<path id="path3472" d="m-463.59 60.574h-4.218m99.49-0.377h4.247" stroke="#918F90" stroke-width=".946" fill="none"/>
							</g>
							<g id="g3474" transform="translate(476.06 89.066)">
								<path id="path3476" d="m-463.59 60.574c9-11.967 24.869-19.397 46.959-19.397 20.888 0 36.579 7.23 45.578 19.397" stroke="#918F90" stroke-width=".473" fill="none"/>
							</g>
							<path id="path3478" d="m63.714 608.74h-9.743v2.779h9.743v-2.78z" stroke="#918F90" stroke-width=".473" fill="#fff"/>
							<g id="g3480" transform="translate(484.64 483.4)">
									<path id="path3482" stroke-linejoin="round" d="m-463.59 60.574h26.284v14.109h2.39l1.978 4.389m-13.57 23.708h-2.404v3.005h-5.883v-3.005h-2.446v-14.642h2.446v-4.464h5.883v4.464h2.404v14.642z" stroke="#918F90" stroke-width=".473" fill="none"/>
							</g>
							<g id="g3484" transform="translate(502.36 552.58)">
								<path id="path3486" d="m-463.59 60.574c0-20.511 8.441-14.783 8.441-20.511v-23.099m-15.61-33.94v8.375h-10.52v-11.473h7.424l3.1 3.098z" stroke="#918F90" stroke-width=".473" fill="none"/>
							</g>
							<g id="g3488" transform="translate(516.18 314.59)">
									<path id="path3490" stroke-linejoin="round" d="m-463.59 60.574c-4.73 4.734-4.222 12.388-0.094 16.517 1.62 1.619 2.427 3.578 3.004 5.07l3.373-1.309c-0.555-1.424-1.584-4.078-3.82-6.317-1.39-1.387-2.219-3.516-2.219-5.689 0-2.191 0.821-4.223 2.313-5.716l-2.55-2.556zm2.56 2.555l-2.559-2.555m1.73 3.637l-2.934-2.117m2.28 3.315l-3.231-1.623m2.78 2.909l-3.447-1.087m3.22 2.428l-3.578-0.527m3.55 1.892l-3.614 0.045m3.81 1.302l-3.56 0.622m3.96 0.679l-3.416 1.18m4.03 0.038l-3.189 1.707" stroke="#918F90" stroke-width=".473" fill="none"/>
							</g>
							<g id="g3492" transform="translate(520.13 330.54)">
								<path id="path3494" d="m-463.59 60.574l-2.955 1.968m0.64 1.223l3.093-1.748m-2.45 2.968l3.233-1.526m38.49 55.911h-7.52v-3.938h-23.406v-21.218h30.926m0-4.814h-9.493s6.23-1.91 6.23-8.861v-10.241c0-8.476-10.164-8.026-10.164-8.026s10.164-0.653 10.164-9.623v-11.045c0-7.037-9.289-8.424-9.289-8.424v-10.062h-6.126s1.029-1.827 2.13-3.965c1.035-2.014 1.043-4.239 1.043-4.239h2.952v-3.609h12.548m-75.31 4.367h14.045l1.211-4.357h7.75s0.245 3.63 1.452 5.812c1.216 2.18 4.663 5.633 4.663 5.633h-5.75s-1.21-2.12-3.148-2.12c-1.372 0-1.939 1.09-1.939 2.664s1.153 2.725 1.153 2.725-2.484-0.183-3.211-0.906c-0.727-0.727-2.263-1.213-3.996-1.213-2.605 0-7.63 5.169-7.63 13.322 0 10.051 7.145 12.475 7.145 12.475s-9.566 1.812-9.566 12.229c0 10.416 4.966 11.385 4.966 11.385h-7.145m0.01 68.301h7.149s-1.453-11.868 7.389-20.709c8.839-8.84 15.741-7.507 15.741-7.507v-19.496h-6.296l-0.97-3.271s-1.452 2.181-6.174 2.181c-4.724 0-7.145-3.623-7.145-7.023 0-3.142 1.198-4.535 2.921-5.943 1.102-0.902 2.811-1.569 3.277-0.94-0.834-1.131-2.231-2.947-3.291-4.38 1.091 1.402-0.695 3.027-1.591 3.027h-11.002" stroke="#918F90" stroke-width=".473" fill="none"/>
							</g>
						</g>
			</g>
			<g id="g13706">
						<g id="g13708">
							<g id="g14280" transform="translate(475.31 666.21)">
								<path id="path14282" d="m-463.59 60.574c-0.358-7.988-0.544-16.454-0.544-25.435l-0.063-14.536h2.415l7.523-5.94 0.032-445.02-5.428 0.004-3.191-1.754-1.312-2.19-1.128-3.096-0.937-3.942-0.845-4.878-0.566-5.726-0.467-6.568-0.281-7.416v-16.799l0.281-7.413 0.467-6.667 0.566-5.723 0.845-4.787 0.937-3.941 1.128-3.097 1.312-2.221" stroke="#A7A5A6" stroke-width=".946" fill="none"/>
							</g>
							<g id="g15380" transform="translate(490.48 201.46)">
								<path id="path15382" d="m-463.59 60.574h-0.37c0.352 0.147 0.603 0.494 0.603 0.903 0 0.54-0.44 0.979-0.982 0.979-0.538 0-0.978-0.439-0.978-0.979 0-0.409 0.248-0.756 0.603-0.903h-0.385c-0.495 0-0.901-0.404-0.901-0.905v-2.258c0-0.632 0.353-0.895 0.872-0.996v-3.147h1.583v3.148c0.513 0.105 0.858 0.368 0.858 0.995v2.258c0 0.502-0.4 0.905-0.9 0.905" fill="#231F20"/>
							</g>
							<g id="g15384" transform="translate(556.74 195.98)">
								<path id="path15386" d="m-463.59 60.574h0.599l-0.599 1.805h-0.684c0.357 0.146 0.607 0.497 0.607 0.907 0 0.539-0.439 0.976-0.98 0.976s-0.98-0.437-0.98-0.976c0-0.41 0.25-0.761 0.603-0.907h-0.679l-0.602-1.805h0.603l-0.603-2.411h0.845l0.323-3.088h0.98l0.322 3.088h0.844l-0.59 2.411z" fill="#231F20"/>
							</g>
							<g id="g15388" transform="translate(487.58 569.46)">
								<path id="path15390" d="m-463.59 60.574v-0.301c-0.119 0.287-0.4 0.488-0.733 0.488-0.438 0-0.793-0.355-0.793-0.791 0-0.438 0.355-0.793 0.793-0.793 0.333 0 0.614 0.201 0.733 0.488v-0.309c0-0.406 0.33-0.733 0.734-0.733h1.829c0.512 0 0.722 0.287 0.803 0.706h2.554v1.283h-2.554c-0.084 0.412-0.296 0.696-0.803 0.696h-1.829c-0.4 0-0.73-0.33-0.73-0.734" fill="#231F20"/>
							</g>
							<g id="g15392" transform="translate(554.05 569.7)">
								<path id="path15394" d="m-463.59 60.574v0.49l-1.464-0.49v-0.55c-0.119 0.286-0.4 0.489-0.733 0.489-0.438 0-0.793-0.354-0.793-0.792 0-0.439 0.355-0.794 0.793-0.794 0.333 0 0.614 0.201 0.733 0.488v-0.548l1.464-0.488v0.488l1.951-0.488v0.68l2.503 0.265v0.793l-2.503 0.263v0.684l-1.95-0.49z" fill="#231F20"/>
							</g>
						</g>
			</g>
			<text font-size="7.5169" font-family="&apos;ArialNarrow-Bold&apos;" transform="matrix(.8 0 0 -.8 44.242 724.45)" fill="#231F20">A</text>
			<text font-size="7.5169" font-family="&apos;ArialNarrow-Bold&apos;" transform="matrix(.8 0 0 -.8 48.097 724.45)" fill="#231F20">L</text>
			<text font-size="7.5169" font-family="&apos;ArialNarrow-Bold&apos;" transform="matrix(.8 0 0 -.8 50.948 724.45)" fill="#231F20">H</text>
			<text font-size="7.5169" font-family="&apos;ArialNarrow-Bold&apos;" transform="matrix(.8 0 0 -.8 54.802 724.45)" fill="#231F20">A</text>
			<text font-size="7.5169" font-family="&apos;ArialNarrow-Bold&apos;" transform="matrix(.8 0 0 -.8 58.656 724.45)" fill="#231F20">M</text>
			<text font-size="7.5169" font-family="&apos;ArialNarrow-Bold&apos;" transform="matrix(.8 0 0 -.8 63.846 724.45)" fill="#231F20">B</text>
			<text font-size="7.5169" font-family="&apos;ArialNarrow-Bold&apos;" transform="matrix(.8 0 0 -.8 67.701 724.45)" fill="#231F20">R</text>
			<text font-size="7.5169" font-family="&apos;ArialNarrow-Bold&apos;" transform="matrix(.8 0 0 -.8 71.225 724.45)" fill="#231F20">A</text>
			<text font-size="7.5169" font-family="&apos;ArialNarrow-Bold&apos;" transform="matrix(.8 0 0 -.8 47.67 718.44)" fill="#231F20">T</text>
			<text font-size="7.5169" font-family="&apos;ArialNarrow-Bold&apos;" transform="matrix(.8 0 0 -.8 50.857 718.44)" fill="#231F20">H</text>
			<text font-size="7.5169" font-family="&apos;ArialNarrow-Bold&apos;" transform="matrix(.8 0 0 -.8 54.712 718.44)" fill="#231F20">E</text>
			<text font-size="7.5169" font-family="&apos;ArialNarrow-Bold&apos;" transform="matrix(.8 0 0 -.8 57.899 718.44)" fill="#231F20">A</text>
			<text font-size="7.5169" font-family="&apos;ArialNarrow-Bold&apos;" transform="matrix(.8 0 0 -.8 61.754 718.44)" fill="#231F20">T</text>
			<text font-size="7.5169" font-family="&apos;ArialNarrow-Bold&apos;" transform="matrix(.8 0 0 -.8 64.941 718.44)" fill="#231F20">R</text>
			<text font-size="7.5169" font-family="&apos;ArialNarrow-Bold&apos;" transform="matrix(.8 0 0 -.8 68.465 718.44)" fill="#231F20">E</text>
			<text font-size="7.5169" font-family="&apos;ArialNarrow-Bold&apos;" transform="matrix(.8 0 0 -.8 28.391 557.62)" fill="#231F20">T</text>
			<text font-size="7.5169" font-family="&apos;ArialNarrow-Bold&apos;" transform="matrix(.8 0 0 -.8 31.578 557.62)" fill="#231F20">H</text>
			<text font-size="7.5169" font-family="&apos;ArialNarrow-Bold&apos;" transform="matrix(.8 0 0 -.8 35.433 557.62)" fill="#231F20">E</text>
			<text font-size="7.5169" font-family="&apos;ArialNarrow-Bold&apos;" transform="matrix(.8 0 0 -.8 24.368 551.6)" fill="#231F20">R</text>
			<text font-size="7.5169" font-family="&apos;ArialNarrow-Bold&apos;" transform="matrix(.8 0 0 -.8 27.892 551.6)" fill="#231F20">A</text>
			<text font-size="7.5169" font-family="&apos;ArialNarrow-Bold&apos;" transform="matrix(.8 0 0 -.8 31.746 551.6)" fill="#231F20">V</text>
			<text font-size="7.5169" font-family="&apos;ArialNarrow-Bold&apos;" transform="matrix(.8 0 0 -.8 35.27 551.6)" fill="#231F20">E</text>
			<text font-size="7.5169" font-family="&apos;ArialNarrow-Bold&apos;" transform="matrix(.8 0 0 -.8 38.457 551.6)" fill="#231F20">N</text>
			<text font-size="7.5169" font-family="&apos;ArialNarrow-Bold&apos;" transform="matrix(.8 0 0 -.8 45.818 192.8)" fill="#231F20">M</text>
			<text font-size="7.5169" font-family="&apos;ArialNarrow-Bold&apos;" transform="matrix(.8 0 0 -.8 51.008 192.8)" fill="#231F20">A</text>
			<text font-size="7.5169" font-family="&apos;ArialNarrow-Bold&apos;" transform="matrix(.8 0 0 -.8 54.862 192.8)" fill="#231F20">C</text>
			<text font-size="7.5169" font-family="&apos;ArialNarrow-Bold&apos;" transform="matrix(.8 0 0 -.8 58.386 192.8)" fill="#231F20">B</text>
			<text font-size="7.5169" font-family="&apos;ArialNarrow-Bold&apos;" transform="matrix(.8 0 0 -.8 62.241 192.8)" fill="#231F20">E</text>
			<text font-size="7.5169" font-family="&apos;ArialNarrow-Bold&apos;" transform="matrix(.8 0 0 -.8 65.428 192.8)" fill="#231F20">T</text>
			<text font-size="7.5169" font-family="&apos;ArialNarrow-Bold&apos;" transform="matrix(.8 0 0 -.8 68.615 192.8)" fill="#231F20">H</text>
			<text font-size="7.5169" font-family="&apos;ArialNarrow-Bold&apos;" transform="matrix(.8 0 0 -.8 40.274 186.79)" fill="#231F20">D</text>
			<text font-size="7.5169" font-family="&apos;ArialNarrow-Bold&apos;" transform="matrix(.8 0 0 -.8 44.128 186.79)" fill="#231F20">I</text>
			<text font-size="7.5169" font-family="&apos;ArialNarrow-Bold&apos;" transform="matrix(.8 0 0 -.8 45.98 186.79)" fill="#231F20">N</text>
			<text font-size="7.5169" font-family="&apos;ArialNarrow-Bold&apos;" transform="matrix(.8 0 0 -.8 50.172 186.79)" fill="#231F20">I</text>
			<text font-size="7.5169" font-family="&apos;ArialNarrow-Bold&apos;" transform="matrix(.8 0 0 -.8 52.024 186.79)" fill="#231F20">N</text>
			<text font-size="7.5169" font-family="&apos;ArialNarrow-Bold&apos;" transform="matrix(.8 0 0 -.8 56.215 186.79)" fill="#231F20">G</text>
			<text font-size="7.5169" font-family="&apos;ArialNarrow-Bold&apos;" transform="matrix(.8 0 0 -.8 60.07 186.79)" fill="#231F20"> </text>
			<text font-size="7.5169" font-family="&apos;ArialNarrow-Bold&apos;" transform="matrix(.8 0 0 -.8 61.585 186.79)" fill="#231F20">R</text>
			<text font-size="7.5169" font-family="&apos;ArialNarrow-Bold&apos;" transform="matrix(.8 0 0 -.8 65.109 186.79)" fill="#231F20">O</text>
			<text font-size="7.5169" font-family="&apos;ArialNarrow-Bold&apos;" transform="matrix(.8 0 0 -.8 68.964 186.79)" fill="#231F20">O</text>
			<text font-size="7.5169" font-family="&apos;ArialNarrow-Bold&apos;" transform="matrix(.8 0 0 -.8 72.819 186.79)" fill="#231F20">M</text>
			<text font-size="6.7782" font-family="&apos;ArialNarrow-Bold&apos;" transform="matrix(.8 0 0 -.8 68.797 591.6)" fill="#231F20">S</text>
			<text font-size="6.7782" font-family="&apos;ArialNarrow-Bold&apos;" transform="matrix(.8 0 0 -.8 71.812 591.6)" fill="#231F20">C</text>
			<text font-size="6.7782" font-family="&apos;ArialNarrow-Bold&apos;" transform="matrix(.8 0 0 -.8 74.827 591.6)" fill="#231F20">H</text>
			<text font-size="6.7782" font-family="&apos;ArialNarrow-Bold&apos;" transform="matrix(.8 0 0 -.8 78.14 591.6)" fill="#231F20">O</text>
			<text font-size="6.7782" font-family="&apos;ArialNarrow-Bold&apos;" transform="matrix(.8 0 0 -.8 81.453 591.6)" fill="#231F20">O</text>
			<text font-size="6.7782" font-family="&apos;ArialNarrow-Bold&apos;" transform="matrix(.8 0 0 -.8 84.766 591.6)" fill="#231F20">N</text>
			<text font-size="6.7782" font-family="&apos;ArialNarrow-Bold&apos;" transform="matrix(.8 0 0 -.8 88.383 591.6)" fill="#231F20">E</text>
			<text font-size="6.7782" font-family="&apos;ArialNarrow-Bold&apos;" transform="matrix(.8 0 0 -.8 91.095 591.6)" fill="#231F20">R</text>
			<text font-size="6.7782" font-family="&apos;ArialNarrow-Bold&apos;" transform="matrix(.8 0 0 -.8 76.633 586.18)" fill="#231F20">B</text>
			<text font-size="6.7782" font-family="&apos;ArialNarrow-Bold&apos;" transform="matrix(.8 0 0 -.8 79.945 586.18)" fill="#231F20">A</text>
			<text font-size="6.7782" font-family="&apos;ArialNarrow-Bold&apos;" transform="matrix(.8 0 0 -.8 83.259 586.18)" fill="#231F20">R</text>
			<text font-size="6.7782" font-family="&apos;ArialNarrow-Bold&apos;" transform="matrix(.8 0 0 -.8 50.842 502.79)" fill="#231F20">B</text>
			<text font-size="6.7782" font-family="&apos;ArialNarrow-Bold&apos;" transform="matrix(.8 0 0 -.8 54.156 502.79)" fill="#231F20">A</text>
			<text font-size="6.7782" font-family="&apos;ArialNarrow-Bold&apos;" transform="matrix(.8 0 0 -.8 57.469 502.79)" fill="#231F20">R</text>
			<text font-size="6.7782" font-family="&apos;ArialNarrow-Bold&apos;" transform="matrix(.8 0 0 -.8 37.064 478.27)" fill="#231F20">C</text>
			<text font-size="6.7782" font-family="&apos;ArialNarrow-Bold&apos;" transform="matrix(.8 0 0 -.8 40.079 478.27)" fill="#231F20">A</text>
			<text font-size="6.7782" font-family="&apos;ArialNarrow-Bold&apos;" transform="matrix(.8 0 0 -.8 43.392 478.27)" fill="#231F20">S</text>
			<text font-size="6.7782" font-family="&apos;ArialNarrow-Bold&apos;" transform="matrix(.8 0 0 -.8 46.407 478.27)" fill="#231F20">I</text>
			<text font-size="6.7782" font-family="&apos;ArialNarrow-Bold&apos;" transform="matrix(.8 0 0 -.8 47.914 478.27)" fill="#231F20">N</text>
			<text font-size="6.7782" font-family="&apos;ArialNarrow-Bold&apos;" transform="matrix(.8 0 0 -.8 51.531 478.27)" fill="#231F20">O</text>
			<text font-size="6.7782" font-family="&apos;ArialNarrow-Bold&apos;" transform="matrix(.8 0 0 -.8 37.069 472.85)" fill="#231F20">R</text>
			<text font-size="6.7782" font-family="&apos;ArialNarrow-Bold&apos;" transform="matrix(.8 0 0 -.8 40.084 472.85)" fill="#231F20">O</text>
			<text font-size="6.7782" font-family="&apos;ArialNarrow-Bold&apos;" transform="matrix(.8 0 0 -.8 43.398 472.85)" fill="#231F20">Y</text>
			<text font-size="6.7782" font-family="&apos;ArialNarrow-Bold&apos;" transform="matrix(.8 0 0 -.8 46.413 472.85)" fill="#231F20">A</text>
			<text font-size="6.7782" font-family="&apos;ArialNarrow-Bold&apos;" transform="matrix(.8 0 0 -.8 49.726 472.85)" fill="#231F20">L</text>
			<text font-size="6.7782" font-family="&apos;ArialNarrow-Bold&apos;" transform="matrix(.8 0 0 -.8 52.133 472.85)" fill="#231F20">E</text>
			<text font-size="6.7782" font-family="&apos;ArialNarrow-Bold&apos;" transform="matrix(0 .8 .8 0 34.916 286.95)" fill="#231F20">E</text>
			<text font-size="6.7782" font-family="&apos;ArialNarrow-Bold&apos;" transform="matrix(0 .8 .8 0 34.916 289.66)" fill="#231F20">L</text>
			<text font-size="6.7782" font-family="&apos;ArialNarrow-Bold&apos;" transform="matrix(0 .8 .8 0 34.916 292.07)" fill="#231F20">E</text>
			<text font-size="6.7782" font-family="&apos;ArialNarrow-Bold&apos;" transform="matrix(0 .8 .8 0 34.916 294.78)" fill="#231F20">V</text>
			<text font-size="6.7782" font-family="&apos;ArialNarrow-Bold&apos;" transform="matrix(0 .8 .8 0 34.916 297.8)" fill="#231F20">.</text>
			<text font-size="6.7782" font-family="&apos;ArialNarrow-Bold&apos;" transform="matrix(.8 0 0 -.8 66.151 375.89)" fill="#231F20">P</text>
			<text font-size="6.7782" font-family="&apos;ArialNarrow-Bold&apos;" transform="matrix(.8 0 0 -.8 69.166 375.89)" fill="#231F20">H</text>
			<text font-size="6.7782" font-family="&apos;ArialNarrow-Bold&apos;" transform="matrix(.8 0 0 -.8 72.479 375.89)" fill="#231F20">O</text>
			<text font-size="6.7782" font-family="&apos;ArialNarrow-Bold&apos;" transform="matrix(.8 0 0 -.8 75.792 375.89)" fill="#231F20">T</text>
			<text font-size="6.7782" font-family="&apos;ArialNarrow-Bold&apos;" transform="matrix(.8 0 0 -.8 78.504 375.89)" fill="#231F20">O</text>
			<text font-size="6.7782" font-family="&apos;ArialNarrow-Bold&apos;" transform="matrix(.8 0 0 -.8 63.89 370.47)" fill="#231F20">G</text>
			<text font-size="6.7782" font-family="&apos;ArialNarrow-Bold&apos;" transform="matrix(.8 0 0 -.8 67.203 370.47)" fill="#231F20">A</text>
			<text font-size="6.7782" font-family="&apos;ArialNarrow-Bold&apos;" transform="matrix(.8 0 0 -.8 70.516 370.47)" fill="#231F20">L</text>
			<text font-size="6.7782" font-family="&apos;ArialNarrow-Bold&apos;" transform="matrix(.8 0 0 -.8 72.924 370.47)" fill="#231F20">L</text>
			<text font-size="6.7782" font-family="&apos;ArialNarrow-Bold&apos;" transform="matrix(.8 0 0 -.8 75.331 370.47)" fill="#231F20">E</text>
			<text font-size="6.7782" font-family="&apos;ArialNarrow-Bold&apos;" transform="matrix(.8 0 0 -.8 78.043 370.47)" fill="#231F20">R</text>
			<text font-size="6.7782" font-family="&apos;ArialNarrow-Bold&apos;" transform="matrix(.8 0 0 -.8 81.058 370.47)" fill="#231F20">Y</text>
			<text font-size="6.7782" font-family="&apos;ArialNarrow-Bold&apos;" transform="matrix(.8 0 0 -.8 65.245 365.05)" fill="#231F20">&amp;</text>
			<text font-size="6.7782" font-family="&apos;ArialNarrow-Bold&apos;" transform="matrix(.8 0 0 -.8 68.862 365.05)" fill="#231F20"> </text>
			<text font-size="6.7782" font-family="&apos;ArialNarrow-Bold&apos;" transform="matrix(.8 0 0 -.8 70.066 365.05)" fill="#231F20">S</text>
			<text font-size="6.7782" font-family="&apos;ArialNarrow-Bold&apos;" transform="matrix(.8 0 0 -.8 73.081 365.05)" fill="#231F20">H</text>
			<text font-size="6.7782" font-family="&apos;ArialNarrow-Bold&apos;" transform="matrix(.8 0 0 -.8 76.395 365.05)" fill="#231F20">O</text>
			<text font-size="6.7782" font-family="&apos;ArialNarrow-Bold&apos;" transform="matrix(.8 0 0 -.8 79.708 365.05)" fill="#231F20">P</text>
			<text font-size="6.7782" font-family="&apos;ArialNarrow-Bold&apos;" transform="matrix(0 .8 .8 0 86.256 287)" fill="#231F20">E</text>
			<text font-size="6.7782" font-family="&apos;ArialNarrow-Bold&apos;" transform="matrix(0 .8 .8 0 86.256 289.72)" fill="#231F20">L</text>
			<text font-size="6.7782" font-family="&apos;ArialNarrow-Bold&apos;" transform="matrix(0 .8 .8 0 86.256 292.12)" fill="#231F20">E</text>
			<text font-size="6.7782" font-family="&apos;ArialNarrow-Bold&apos;" transform="matrix(0 .8 .8 0 86.256 294.84)" fill="#231F20">V</text>
			<text font-size="6.7782" font-family="&apos;ArialNarrow-Bold&apos;" transform="matrix(0 .8 .8 0 86.256 297.85)" fill="#231F20">.</text>
			<text font-size="6.7782" font-family="&apos;ArialNarrow-Bold&apos;" transform="matrix(.8 0 0 -.8 72.29 325.18)" fill="#231F20">B</text>
			<text font-size="6.7782" font-family="&apos;ArialNarrow-Bold&apos;" transform="matrix(.8 0 0 -.8 75.603 325.18)" fill="#231F20">O</text>
			<text font-size="6.7782" font-family="&apos;ArialNarrow-Bold&apos;" transform="matrix(.8 0 0 -.8 78.916 325.18)" fill="#231F20">L</text>
			<text font-size="6.7782" font-family="&apos;ArialNarrow-Bold&apos;" transform="matrix(.8 0 0 -.8 81.324 325.18)" fill="#231F20">E</text>
			<text font-size="6.7782" font-family="&apos;ArialNarrow-Bold&apos;" transform="matrix(.8 0 0 -.8 84.035 325.18)" fill="#231F20">R</text>
			<text font-size="6.7782" font-family="&apos;ArialNarrow-Bold&apos;" transform="matrix(.8 0 0 -.8 87.05 325.18)" fill="#231F20">O</text>
			<text font-size="6.7782" font-family="&apos;ArialNarrow-Bold&apos;" transform="matrix(.8 0 0 -.8 90.363 325.18)" fill="#231F20">S</text>
			<text font-size="6.7782" font-family="&apos;ArialNarrow-Bold&apos;" transform="matrix(.8 0 0 -.8 73.499 319.76)" fill="#231F20">L</text>
			<text font-size="6.7782" font-family="&apos;ArialNarrow-Bold&apos;" transform="matrix(.8 0 0 -.8 75.907 319.76)" fill="#231F20">O</text>
			<text font-size="6.7782" font-family="&apos;ArialNarrow-Bold&apos;" transform="matrix(.8 0 0 -.8 79.22 319.76)" fill="#231F20">U</text>
			<text font-size="6.7782" font-family="&apos;ArialNarrow-Bold&apos;" transform="matrix(.8 0 0 -.8 82.534 319.76)" fill="#231F20">N</text>
			<text font-size="6.7782" font-family="&apos;ArialNarrow-Bold&apos;" transform="matrix(.8 0 0 -.8 86.15 319.76)" fill="#231F20">G</text>
			<text font-size="6.7782" font-family="&apos;ArialNarrow-Bold&apos;" transform="matrix(.8 0 0 -.8 89.463 319.76)" fill="#231F20">E</text>
			<text font-size="6.7782" font-family="&apos;ArialNarrow-Bold&apos;" transform="matrix(.8 0 0 -.8 24.073 313.37)" fill="#231F20">B</text>
			<text font-size="6.7782" font-family="&apos;ArialNarrow-Bold&apos;" transform="matrix(.8 0 0 -.8 27.385 313.37)" fill="#231F20">O</text>
			<text font-size="6.7782" font-family="&apos;ArialNarrow-Bold&apos;" transform="matrix(.8 0 0 -.8 30.698 313.37)" fill="#231F20">L</text>
			<text font-size="6.7782" font-family="&apos;ArialNarrow-Bold&apos;" transform="matrix(.8 0 0 -.8 33.106 313.37)" fill="#231F20">E</text>
			<text font-size="6.7782" font-family="&apos;ArialNarrow-Bold&apos;" transform="matrix(.8 0 0 -.8 35.818 313.37)" fill="#231F20">R</text>
			<text font-size="6.7782" font-family="&apos;ArialNarrow-Bold&apos;" transform="matrix(.8 0 0 -.8 38.833 313.37)" fill="#231F20">O</text>
			<text font-size="6.7782" font-family="&apos;ArialNarrow-Bold&apos;" transform="matrix(.8 0 0 -.8 42.146 313.37)" fill="#231F20">S</text>
			<text font-size="6.7782" font-family="&apos;ArialNarrow-Bold&apos;" transform="matrix(.8 0 0 -.8 25.281 307.94)" fill="#231F20">L</text>
			<text font-size="6.7782" font-family="&apos;ArialNarrow-Bold&apos;" transform="matrix(.8 0 0 -.8 27.689 307.94)" fill="#231F20">O</text>
			<text font-size="6.7782" font-family="&apos;ArialNarrow-Bold&apos;" transform="matrix(.8 0 0 -.8 31.002 307.94)" fill="#231F20">U</text>
			<text font-size="6.7782" font-family="&apos;ArialNarrow-Bold&apos;" transform="matrix(.8 0 0 -.8 34.316 307.94)" fill="#231F20">N</text>
			<text font-size="6.7782" font-family="&apos;ArialNarrow-Bold&apos;" transform="matrix(.8 0 0 -.8 37.933 307.94)" fill="#231F20">G</text>
			<text font-size="6.7782" font-family="&apos;ArialNarrow-Bold&apos;" transform="matrix(.8 0 0 -.8 41.245 307.94)" fill="#231F20">E</text>
			<text font-size="6.7782" font-family="&apos;ArialNarrow-Bold&apos;" transform="matrix(0 .8 .8 0 37.585 616.58)" fill="#100F0D">E</text>
			<text font-size="6.7782" font-family="&apos;ArialNarrow-Bold&apos;" transform="matrix(0 .8 .8 0 37.585 619.29)" fill="#100F0D">L</text>
			<text font-size="6.7782" font-family="&apos;ArialNarrow-Bold&apos;" transform="matrix(0 .8 .8 0 37.585 621.7)" fill="#100F0D">E</text>
			<text font-size="6.7782" font-family="&apos;ArialNarrow-Bold&apos;" transform="matrix(0 .8 .8 0 37.585 624.41)" fill="#100F0D">V</text>
			<text font-size="6.7782" font-family="&apos;ArialNarrow-Bold&apos;" transform="matrix(0 .8 .8 0 37.585 627.42)" fill="#100F0D">.</text>
			<text font-size="6.7782" font-family="&apos;ArialNarrow-Bold&apos;" transform="matrix(0 .8 .8 0 83.916 616.58)" fill="#100F0D">E</text>
			<text font-size="6.7782" font-family="&apos;ArialNarrow-Bold&apos;" transform="matrix(0 .8 .8 0 83.916 619.29)" fill="#100F0D">L</text>
			<text font-size="6.7782" font-family="&apos;ArialNarrow-Bold&apos;" transform="matrix(0 .8 .8 0 83.916 621.7)" fill="#100F0D">E</text>
			<text font-size="6.7782" font-family="&apos;ArialNarrow-Bold&apos;" transform="matrix(0 .8 .8 0 83.916 624.41)" fill="#100F0D">V</text>
			<text font-size="6.7782" font-family="&apos;ArialNarrow-Bold&apos;" transform="matrix(0 .8 .8 0 83.916 627.42)" fill="#100F0D">.</text>
		</g>
</svg>
