<?xml version="1.0" encoding="UTF-8" standalone="no"?>
<!-- Generator: Adobe Illustrator 16.0.4, SVG Export Plug-In . SVG Version: 6.00 Build 0)  -->
<!DOCTYPE svg  PUBLIC '-//W3C//DTD SVG 1.1//EN'  'http://www.w3.org/Graphics/SVG/1.1/DTD/svg11.dtd'>
<svg id="svg2" xmlns:rdf="http://www.w3.org/1999/02/22-rdf-syntax-ns#" xmlns="http://www.w3.org/2000/svg" enable-background="new 572.793 136.958 153.395 117.198" xml:space="preserve" height="117.2px" viewBox="572.793 136.958 153.395 117.198" width="153.4px" version="1.1" y="0px" x="0px" xmlns:cc="http://creativecommons.org/ns#" xmlns:xlink="http://www.w3.org/1999/xlink" xmlns:dc="http://purl.org/dc/elements/1.1/">
		<g id="g10" transform="matrix(1.25,0,0,-1.25,0,990)">
			<g id="g13562">
					<g id="g13564">
						<g id="g13570" transform="translate(458.62 682.17)">
							<path id="path13572" d="m0 0l-0.137-93.26 121.97 0.172 0.163 62.906h-28.824v8.017l-3.179 0.019 0.018 5.557 0.018 6.893h-47.916v9.603l-42.111 0.093z" fill="#fff"/>
						</g>
						<g id="g13574" transform="translate(458.62 682.17)">
							<path id="path13576" d="m0 0l-0.137-93.26 121.97 0.172 0.163 62.906h-28.824v8.017l-3.179 0.019 0.018 5.557 0.018 6.893h-47.916v9.603l-42.111 0.093zm83.133-16.571l-0.036-12.408 3.198-0.019v-17.652h7.618v9.593h21.208l-0.21-47.915-108.13-0.021 0.094 77.833h28.315v-9.411h47.944z" stroke="#918F90" stroke-width=".843" fill="none"/>
						</g>
					</g>
			</g>
			<g id="g13578">
					<g id="g13580">
						<g id="g13586" transform="translate(529.06 635.13)">
								<path id="path13588" stroke-linejoin="round" d="m0 0h15.466v17.519h-3.199v12.18h-48.053v-12.265h-2.199v-17.434h15.095m4.101-0.968c-3.454 0.538-6.584 1.619-9.2 3.091-2.166-2.075-5.602-2.056-7.736 0.079-2.162 2.162-2.162 5.668 0 7.833 0.118 0.116 0.254 0.202 0.378 0.305-0.296 0.952-0.466 1.933-0.466 2.943 0 2.102 0.677 4.094 1.877 5.899-1.691 2.173-1.563 5.304 0.434 7.301 2.162 2.162 5.67 2.162 7.833 0 0.206-0.207 0.375-0.437 0.542-0.666 3.339 1.341 11.057 2.125 15.242 2.125 4.23 0 8.169-0.803 11.53-2.168 0.174 0.246 0.357 0.489 0.578 0.709 2.161 2.162 5.668 2.162 7.83 0 2.027-2.025 2.13-5.217 0.361-7.391 1.162-1.782 1.813-3.744 1.813-5.809 0-0.977-0.161-1.929-0.437-2.852 0.164-0.13 0.336-0.246 0.486-0.396 2.163-2.165 2.163-5.671 0-7.833-2.149-2.149-5.624-2.159-7.79-0.034-2.634-1.494-5.796-2.593-9.283-3.136m8.569 25.9c1.309 1.305 3.427 1.305 4.732 0 1.081-1.081 1.257-2.715 0.542-3.986l1.369-1.854c1.77 2.174 1.666 5.366-0.361 7.391-2.162 2.162-5.669 2.162-7.83 0-0.221-0.22-0.404-0.463-0.578-0.709l2.126-0.842zm2.788-21.632c1.555-0.993 3.624-0.54 4.617 1.016 0.826 1.289 0.645 2.921-0.324 4.009l0.938 2.106c2.194-1.745 2.78-4.884 1.234-7.297-1.646-2.576-5.073-3.329-7.646-1.682-0.264 0.169-0.668 0.515-0.892 0.716l2.073 1.132zm-33.856 21.721c-1.305 1.307-3.421 1.307-4.729 0-1.082-1.082-1.255-2.714-0.541-3.983l-1.37-1.856c-1.769 2.175-1.666 5.366 0.362 7.392 2.163 2.162 5.668 2.162 7.829 0 0.223-0.222 0.405-0.465 0.58-0.708l-2.131-0.845zm-2.765-21.767c-1.557-0.993-3.625-0.54-4.622 1.017-0.823 1.287-0.642 2.921 0.327 4.008l-0.938 2.106c-2.195-1.745-2.778-4.885-1.234-7.296 1.648-2.577 5.071-3.33 7.648-1.683 0.263 0.167 0.666 0.515 0.891 0.717l-2.072 1.131z" stroke="#918F90" stroke-width=".422" fill="none"/>
						</g>
							<path id="path13590" stroke-linejoin="round" d="m522.4 663.46h-10.15v-3.437h10.145v3.44z" stroke="#918F90" stroke-width=".422" fill="#fff"/>
						<path id="path13592" d="m554.29 633.79h6.643v1.887h-6.643v-1.89z" stroke="#918F90" stroke-width=".422" fill="#fff"/>
						<path id="path13594" d="m554.29 635.68h6.643v1.886h-6.643v-1.89z" stroke="#918F90" stroke-width=".422" fill="#fff"/>
						<path id="path13596" d="m554.29 637.56h6.643v1.887h-6.643v-1.89z" stroke="#918F90" stroke-width=".422" fill="#fff"/>
						<path id="path13598" d="m554.29 639.45h6.643v1.887h-6.643v-1.89z" stroke="#918F90" stroke-width=".422" fill="#fff"/>
						<path id="path13600" d="m552.42 627.16h1.888v6.643h-1.888v-6.64z" stroke="#918F90" stroke-width=".422" fill="#fff"/>
						<path id="path13602" d="m548.65 627.16h1.888v6.643h-1.888v-6.64z" stroke="#918F90" stroke-width=".422" fill="#fff"/>
						<path id="path13604" d="m550.53 627.16h1.884v6.643h-1.884v-6.64z" stroke="#918F90" stroke-width=".422" fill="#fff"/>
						<path id="path13606" d="m560.94 633.79h-6.629v-6.629h6.629v6.63z" stroke="#918F90" stroke-width=".422" fill="#fff"/>
						<path id="path13608" d="m482.25 633.79h-6.641v1.887h6.641v-1.89z" stroke="#918F90" stroke-width=".422" fill="#fff"/>
						<path id="path13610" d="m482.25 635.68h-6.641v1.886h6.641v-1.89z" stroke="#918F90" stroke-width=".422" fill="#fff"/>
						<path id="path13612" d="m482.25 637.56h-6.641v1.887h6.641v-1.89z" stroke="#918F90" stroke-width=".422" fill="#fff"/>
						<path id="path13614" d="m482.25 639.45h-6.641v1.887h6.641v-1.89z" stroke="#918F90" stroke-width=".422" fill="#fff"/>
						<path id="path13616" d="m484.12 627.16h-1.886v6.643h1.886v-6.64z" stroke="#918F90" stroke-width=".422" fill="#fff"/>
						<path id="path13618" d="m487.9 627.16h-1.887v6.643h1.887v-6.64z" stroke="#918F90" stroke-width=".422" fill="#fff"/>
						<path id="path13620" d="m486.01 627.16h-1.888v6.643h1.888v-6.64z" stroke="#918F90" stroke-width=".422" fill="#fff"/>
						<path id="path13622" d="m475.61 633.79h6.628v-6.629h-6.628v6.63z" fill="#fff"/>
						<path id="path13624" d="m475.61 633.79h6.628v-6.629h-6.628v6.63zm7.87 11.52h-7.286v5.363h7.286v-5.36z" stroke="#918F90" stroke-width=".422" fill="none"/>
					</g>
			</g>
			<text font-size="7.5169" font-family="&apos;ArialNarrow-Bold&apos;" transform="matrix(.8 0 0 -.8 510 614.61)" fill="#231F20">S</text>
			<text font-size="7.5169" font-family="&apos;ArialNarrow-Bold&apos;" transform="matrix(.8 0 0 -.8 513.52 614.61)" fill="#231F20">K</text>
			<text font-size="7.5169" font-family="&apos;ArialNarrow-Bold&apos;" transform="matrix(.8 0 0 -.8 517.04 614.61)" fill="#231F20">Y</text>
			<text font-size="7.5169" font-family="&apos;ArialNarrow-Bold&apos;" transform="matrix(.8 0 0 -.8 520.57 614.61)" fill="#231F20">L</text>
			<text font-size="7.5169" font-family="&apos;ArialNarrow-Bold&apos;" transform="matrix(.8 0 0 -.8 523.42 614.61)" fill="#231F20">I</text>
			<text font-size="7.5169" font-family="&apos;ArialNarrow-Bold&apos;" transform="matrix(.8 0 0 -.8 525.27 614.61)" fill="#231F20">G</text>
			<text font-size="7.5169" font-family="&apos;ArialNarrow-Bold&apos;" transform="matrix(.8 0 0 -.8 529.12 614.61)" fill="#231F20">H</text>
			<text font-size="7.5169" font-family="&apos;ArialNarrow-Bold&apos;" transform="matrix(.8 0 0 -.8 532.98 614.61)" fill="#231F20">T</text>
			<text font-size="7.5169" font-family="&apos;ArialNarrow-Bold&apos;" transform="matrix(.8 0 0 -.8 512.68 608.6)" fill="#231F20">C</text>
			<text font-size="7.5169" font-family="&apos;ArialNarrow-Bold&apos;" transform="matrix(.8 0 0 -.8 516.21 608.6)" fill="#231F20">H</text>
			<text font-size="7.5169" font-family="&apos;ArialNarrow-Bold&apos;" transform="matrix(.8 0 0 -.8 520.06 608.6)" fill="#231F20">A</text>
			<text font-size="7.5169" font-family="&apos;ArialNarrow-Bold&apos;" transform="matrix(.8 0 0 -.8 523.92 608.6)" fill="#231F20">P</text>
			<text font-size="7.5169" font-family="&apos;ArialNarrow-Bold&apos;" transform="matrix(.8 0 0 -.8 527.44 608.6)" fill="#231F20">E</text>
			<text font-size="7.5169" font-family="&apos;ArialNarrow-Bold&apos;" transform="matrix(.8 0 0 -.8 530.63 608.6)" fill="#231F20">L</text>
		</g>
</svg>
