<?xml version="1.0" encoding="utf-8"?>
<!-- Generator: Adobe Illustrator 16.0.4, SVG Export Plug-In . SVG Version: 6.00 Build 0)  -->
<!DOCTYPE svg PUBLIC "-//W3C//DTD SVG 1.1//EN" "http://www.w3.org/Graphics/SVG/1.1/DTD/svg11.dtd">
<svg version="1.1"
	 id="svg2" xmlns:rdf="http://www.w3.org/1999/02/22-rdf-syntax-ns#" xmlns:cc="http://creativecommons.org/ns#" xmlns:dc="http://purl.org/dc/elements/1.1/"
	 xmlns="http://www.w3.org/2000/svg" xmlns:xlink="http://www.w3.org/1999/xlink" x="0px" y="0px" width="133.804px"
	 height="813.321px" viewBox="1.377 7.878 133.804 813.321" enable-background="new 1.377 7.878 133.804 813.321"
	 xml:space="preserve">
<g id="g10" transform="matrix(1.25,0,0,-1.25,0,990)">
	<g id="g13738">
		<g id="g13740">
			<g id="g13746" transform="translate(559.8 60.63)">
				<path id="path13748" fill="#FFFFFF" d="M-465.47,74.816v18.522h-0.575c1.336,0,5.513,0.359,7.362,2.047
					c4.643,4.248,6.628,15.606,6.628,37.989c0,28.809-3.305,40.031-11.791,40.031h-0.895v367.359h9.241v69.378
					c0,60.837-8.864,76.053-35.073,108.95c-6.63,5.815-13.52,5.574-14.389,5.574c-0.866,0-7.98,0.241-14.607-5.574
					c-33.813-38.878-35.12-66.767-35.12-108.95v-69.378h9.002V173.406h1.376c-1.334,0-5.511-0.356-7.364-2.045
					c-4.644-4.244-6.623-15.608-6.623-37.988s1.98-33.741,6.623-37.987c1.853-1.688,3.828-2.047,5.166-2.047h0.822V74.81h80.211
					L-465.47,74.816z"/>
			</g>
			<g id="g13750" transform="translate(559.8 60.63)">
				<path id="path13752" fill="none" stroke="#918F90" d="M-465.47,74.816v18.522h-0.575c1.336,0,5.513,0.359,7.362,2.047
					c4.643,4.248,6.628,15.606,6.628,37.989c0,28.809-3.305,40.031-11.791,40.031h-0.895v367.359h9.241v69.378
					c0,60.837-8.864,76.053-35.073,108.95c-6.63,5.815-13.52,5.574-14.389,5.574c-0.866,0-7.98,0.241-14.607-5.574
					c-33.813-38.878-35.12-66.767-35.12-108.95v-69.378h9.002V173.406h1.376c-1.334,0-5.511-0.356-7.364-2.045
					c-4.644-4.244-6.623-15.608-6.623-37.988s1.98-33.741,6.623-37.987c1.853-1.688,3.828-2.047,5.166-2.047h0.822V74.81h80.211
					L-465.47,74.816z M-461.65,540.626v67.184c0,61.749-8.77,76.305-34.084,108.77c-2.259,2.906-5.342,4.472-9.248,4.472
					c-1.538,0-4.404-0.046-9.475-4.514c-32.481-38.236-34.071-64.92-34.071-108.72v-67.184"/>
			</g>
		</g>
	</g>
	<g id="g13754">
		<g id="g13756">
			<g id="g13762" transform="translate(554.6 77.876)">
				<path id="path13764" fill="#FFFFFF" stroke="#918F90" stroke-linejoin="round" d="M-465.47,74.814v4.898h4.627
					c7.28,0,7.833,23.73,7.833,36.416c0,12.683-0.552,36.414-7.833,36.414h-4.627v429.56h5.795l0.109,27.275
					c0,14.291-18.202,20.19-40.513,20.19c-32.575,0-40.407-11.425-40.407-20.19v-27.275h6.204l0.021-429.56h-4.849
					c-7.28,0-7.83-23.73-7.83-36.414s0.549-36.416,7.83-36.416h4.777v-3.975"/>
			</g>
			<g id="g13766" transform="translate(554.6 456.21)">
				<path id="path13768" fill="none" stroke="#918F90" stroke-width="0.5" d="M-465.47,74.815h-11.584V62.703h-19.106V33.709h19.721
					v2.43c1.51-0.459,2.905-1.161,4.113-2.067l1.013,0.842c1.887-1.398,3.373-3.231,4.275-5.334l-1.342-0.525
					c0.53-1.3,0.825-2.711,0.825-4.184c0-1.5-0.305-2.936-0.858-4.259l1.275-0.666c-0.995-2.206-2.639-4.105-4.717-5.498
					l-0.785,0.995c-2.195-1.542-4.945-2.459-7.924-2.459h-8.154v-0.603h22.996v-7.1h-14.019V-4.845h5.68v-12.644h-14.749v-3.767
					h23.088v-27.416h-23.363l0.006-17.114h23.609"/>
			</g>
			<g id="g13770" transform="translate(495.96 304.02)">
				<path id="path13772" fill="#949595" d="M-465.47,74.816h-10.15v0.497h9.883v7.812c0,0.142,0.12,0.252,0.267,0.252h12.038v22.195
					h-1.171V99.92c0-0.142-0.12-0.25-0.267-0.25h-20.75c-0.16,0-0.276,0.108-0.276,0.25v28.003c0,0.133,0.116,0.253,0.276,0.253
					h22.093v6.272h-1.175v-5.025c0-0.139-0.118-0.247-0.279-0.247h-15.862c-0.148,0-0.277,0.108-0.277,0.247v4.519h-1.78
					c-0.158,0-0.278,0.12-0.278,0.253v29.257c0,0.145,0.12,0.253,0.278,0.253h19.118v1.005h-21.848v0.505h22.125
					c0.159,0,0.28-0.12,0.28-0.252v-1.512c0-0.136-0.121-0.244-0.28-0.244h-19.125v-28.761h1.788c0.15,0,0.277-0.106,0.277-0.253
					v-4.52h15.32v5.028c0,0.136,0.12,0.253,0.266,0.253h1.732c0.15,0,0.266-0.117,0.266-0.253v-6.781
					c0-0.144-0.116-0.252-0.266-0.252h-22.11v-27.503h20.208v5.647c0,0.15,0.121,0.256,0.277,0.256h1.715
					c0.144,0,0.274-0.106,0.274-0.256v-22.7c0-0.137-0.13-0.245-0.274-0.245h-12.034v-7.82c-0.02-0.136-0.14-0.245-0.3-0.245"/>
			</g>
			<g id="g13774" transform="translate(503.22 476.29)">
				<path id="path13776" fill="none" stroke="#918F90" stroke-width="0.5" d="M-465.47,74.816h-4.342
					c-1.701,0-3.077,1.257-3.077,2.811v8.612c0,1.771-1.114,3.607-3.397,3.607c-2.281,0-4.081-1.836-4.081-3.607v-27.23
					c0-2.039,1.811-3.692,4.043-3.692l0.645,0.014c0.848,0,1.537-0.633,1.537-1.411c0-0.778-0.688-1.411-1.537-1.411h-0.645
					c-2.232,0-4.043-1.65-4.043-3.689c0-0.62,0.181-1.197,0.479-1.711c-0.298-0.514-0.479-1.089-0.479-1.709
					c0-2.041,1.811-3.695,4.043-3.695c0.191,0,0.459,0.016,0.76,0.041c1.414,0.72,3.044,1.136,4.784,1.136
					c1.667,0,3.235-0.38,4.609-1.052c0.301-0.03,0.573-0.048,0.786-0.048c2.232,0,4.043,1.655,4.043,3.695
					c0,1.53-1.02,2.844-2.47,3.405c0,0-0.554,1.075,1.92,1.075h3.573V20.94h-24.577 M-414.086-119.329h-23.609v1.978h23.609v-1.981
					V-119.329z M-421.206-85.861v-12.245h-16.491v-3.433"/>
			</g>
			<path id="path13778" fill="#FFFFFF" stroke="#918F90" stroke-width="0.5" d="M75.561,253.798h-4.716v0.991h4.716V253.8V253.798z"
				/>
			<path id="path13780" fill="#FFFFFF" stroke="#918F90" stroke-width="0.5" d="M75.561,254.789h-4.716v0.994h4.716v-0.989V254.789z
				"/>
			<path id="path13782" fill="#FFFFFF" stroke="#918F90" stroke-width="0.5" d="M75.561,255.789h-4.716v0.989h4.716v-0.991V255.789z
				"/>
			<path id="path13784" fill="#FFFFFF" stroke="#918F90" stroke-width="0.5" d="M79.102,253.798h-3.541v0.991h3.541V253.8V253.798z"
				/>
			<path id="path13786" fill="#FFFFFF" stroke="#918F90" stroke-width="0.5" d="M79.102,254.789h-3.541v0.994h3.541v-0.989V254.789z
				"/>
			<path id="path13788" fill="#FFFFFF" stroke="#918F90" stroke-width="0.5" d="M79.102,255.789h-3.541v0.989h3.541v-0.991V255.789z
				"/>
			<path id="path13790" fill="#FFFFFF" stroke="#918F90" stroke-width="0.5" d="M75.561,256.778h-4.716v0.994h4.716v-0.989V256.778z
				"/>
			<path id="path13792" fill="#FFFFFF" stroke="#918F90" stroke-width="0.5" d="M79.102,256.778h-3.541v0.994h3.541v-0.989V256.778z
				"/>
			<path id="path13794" fill="#FFFFFF" stroke="#918F90" stroke-width="0.5" d="M75.561,257.768h-4.716v0.992h4.716V257.768
				L75.561,257.768z"/>
			<path id="path13796" fill="#FFFFFF" stroke="#918F90" stroke-width="0.5" d="M79.102,257.768h-3.541v0.992h3.541V257.768
				L79.102,257.768z"/>
			<path id="path13798" fill="#FFFFFF" stroke="#918F90" stroke-width="0.5" d="M75.561,258.757h-4.716v0.995h4.716v-0.992V258.757z
				"/>
			<path id="path13800" fill="#FFFFFF" stroke="#918F90" stroke-width="0.5" d="M79.102,258.757h-3.541v0.995h3.541v-0.992V258.757z
				"/>
			<path id="path13802" fill="#FFFFFF" stroke="#918F90" stroke-width="0.5" d="M70.845,253.798h-3.544v0.991h3.544V253.8V253.798z"
				/>
			<path id="path13804" fill="#FFFFFF" stroke="#918F90" stroke-width="0.5" d="M70.845,254.789h-3.544v0.994h3.544v-0.989V254.789z
				"/>
			<path id="path13806" fill="#FFFFFF" stroke="#918F90" stroke-width="0.5" d="M70.845,255.789h-3.544v0.989h3.544v-0.991V255.789z
				"/>
			<path id="path13808" fill="#FFFFFF" stroke="#918F90" stroke-width="0.5" d="M70.845,256.778h-3.544v0.994h3.544v-0.989V256.778z
				"/>
			<path id="path13810" fill="#FFFFFF" stroke="#918F90" stroke-width="0.5" d="M70.845,257.768h-3.544v0.992h3.544V257.768
				L70.845,257.768z"/>
			<path id="path13812" fill="#FFFFFF" stroke="#918F90" stroke-width="0.5" d="M70.845,258.757h-3.544v0.995h3.544v-0.992V258.757z
				"/>
			<path id="path13814" fill="#FFFFFF" stroke="#918F90" stroke-width="0.5" d="M79.102,253.807h-11.8v-2.928h11.8v2.931V253.807z"
				/>
			<path id="path13816" fill="#FFFFFF" stroke="#918F90" stroke-width="0.5" d="M38.202,253.878h-4.71v0.992h4.71v-0.991V253.878z"
				/>
			<path id="path13818" fill="#FFFFFF" stroke="#918F90" stroke-width="0.5" d="M38.202,254.868h-4.71v0.995h4.71v-0.992V254.868z"
				/>
			<path id="path13820" fill="#FFFFFF" stroke="#918F90" stroke-width="0.5" d="M38.202,255.857h-4.71v0.995h4.71v-0.992V255.857z"
				/>
			<path id="path13822" fill="#FFFFFF" stroke="#918F90" stroke-width="0.5" d="M41.743,253.878h-3.541v0.992h3.541v-0.991V253.878z
				"/>
			<path id="path13824" fill="#FFFFFF" stroke="#918F90" stroke-width="0.5" d="M41.743,254.868h-3.541v0.995h3.541v-0.992V254.868z
				"/>
			<path id="path13826" fill="#FFFFFF" stroke="#918F90" stroke-width="0.5" d="M41.743,255.857h-3.541v0.995h3.541v-0.992V255.857z
				"/>
			<path id="path13828" fill="#FFFFFF" stroke="#918F90" stroke-width="0.5" d="M38.202,256.857h-4.71v0.992h4.71v-0.989V256.857z"
				/>
			<path id="path13830" fill="#FFFFFF" stroke="#918F90" stroke-width="0.5" d="M41.743,256.857h-3.541v0.992h3.541v-0.989V256.857z
				"/>
			<path id="path13832" fill="#FFFFFF" stroke="#918F90" stroke-width="0.5" d="M38.202,257.848h-4.71v0.992h4.71v-0.991V257.848z"
				/>
			<path id="path13834" fill="#FFFFFF" stroke="#918F90" stroke-width="0.5" d="M41.743,257.848h-3.541v0.992h3.541v-0.991V257.848z
				"/>
			<path id="path13836" fill="#FFFFFF" stroke="#918F90" stroke-width="0.5" d="M38.202,258.839h-4.71v0.991h4.71v-0.989V258.839z"
				/>
			<path id="path13838" fill="#FFFFFF" stroke="#918F90" stroke-width="0.5" d="M41.743,258.839h-3.541v0.991h3.541v-0.989V258.839z
				"/>
			<path id="path13840" fill="#FFFFFF" stroke="#918F90" stroke-width="0.5" d="M33.491,253.878h-3.545v0.992h3.545v-0.991V253.878z
				"/>
			<path id="path13842" fill="#FFFFFF" stroke="#918F90" stroke-width="0.5" d="M33.491,254.868h-3.545v0.995h3.545v-0.992V254.868z
				"/>
			<path id="path13844" fill="#FFFFFF" stroke="#918F90" stroke-width="0.5" d="M33.491,255.857h-3.545v0.995h3.545v-0.992V255.857z
				"/>
			<path id="path13846" fill="#FFFFFF" stroke="#918F90" stroke-width="0.5" d="M33.491,256.857h-3.545v0.992h3.545v-0.989V256.857z
				"/>
			<path id="path13848" fill="#FFFFFF" stroke="#918F90" stroke-width="0.5" d="M33.491,257.848h-3.545v0.992h3.545v-0.991V257.848z
				"/>
			<path id="path13850" fill="#FFFFFF" stroke="#918F90" stroke-width="0.5" d="M33.491,258.839h-3.545v0.991h3.545v-0.989V258.839z
				"/>
			<path id="path13852" fill="#FFFFFF" stroke="#918F90" stroke-width="0.5" d="M41.743,253.889H29.947v-2.928h11.796v2.93V253.889z
				"/>
			<path id="path13854" fill="#FFFFFF" stroke="#918F90" stroke-width="0.5" d="M28.276,270.598h5.622v14.928h-5.622v-14.93V270.598
				z"/>
			<path id="path13856" fill="#FFFFFF" stroke="#918F90" stroke-width="0.5" d="M75.275,270.598h5.623v14.928h-5.623v-14.93V270.598
				z"/>
			<g id="g13858" transform="translate(522.97 201.9)">
				<path id="path13860" fill="#FFFFFF" d="M-465.47,74.815c0,3.414,1.116,6.806,2.748,8.789c0.98,1.192,3.205,1.256,3.205,1.256
					h3.211V66.693h-7.058c0.009,0-2.1,3.431-2.1,8.122"/>
			</g>
			<g id="g13862" transform="translate(522.97 201.9)">
				<path id="path13864" fill="none" stroke="#918F90" d="M-465.47,74.815c0,3.414,1.116,6.806,2.748,8.789
					c0.98,1.192,3.205,1.256,3.205,1.256h3.211V66.693h-7.058c0.009,0-2.1,3.431-2.1,8.122H-465.47z"/>
			</g>
			<g id="g13866" transform="translate(517.2 201.9)">
				<path id="path13868" fill="#FFFFFF" d="M-465.47,74.815c0,3.414-1.115,6.806-2.751,8.789c-0.98,1.192-3.205,1.256-3.205,1.256
					h-3.205V66.693h7.051c-0.01,0,2.1,3.431,2.1,8.122"/>
			</g>
			<g id="g13870" transform="translate(517.2 201.9)">
				<path id="path13872" fill="none" stroke="#918F90" d="M-465.47,74.815c0,3.414-1.115,6.806-2.751,8.789
					c-0.98,1.192-3.205,1.256-3.205,1.256h-3.205V66.693h7.051c-0.01,0,2.1,3.431,2.1,8.122H-465.47z"/>
			</g>
			<g id="g13874" transform="translate(532.12 194.58)">
				<path id="path13876" fill="none" stroke="#918F90" stroke-width="0.5" d="M-465.47,74.816h-3.102
					c-1.386,0-2.513,1.417-2.513,3.161c0,1.747,1.127,3.162,2.513,3.162h3.102V74.816L-465.47,74.816z M-489.55,74.816h3.107
					c1.384,0,2.51,1.417,2.51,3.161c0,1.747-1.126,3.162-2.51,3.162h-3.107V74.816L-489.55,74.816z M-465.47,82.991h-3.102
					c-1.386,0-2.513,1.417-2.513,3.161c0,1.747,1.127,3.161,2.513,3.161h3.102V82.991L-465.47,82.991z M-489.55,82.991h3.107
					c1.384,0,2.51,1.417,2.51,3.161c0,1.747-1.126,3.161-2.51,3.161h-3.107V82.991L-489.55,82.991z M-483.52,107.498l-3.905-1.059
					 M-483.715,108.47l-4.059-0.772 M-483.844,109.437l-4.163-0.47 M-484.047,110.407l-4.086-0.15 M-483.933,111.387l-4.184,0.163
					 M-483.917,112.37l-4.095,0.469 M-483.692,113.338l-4.086,0.786 M-483.568,114.313l-3.855,1.053 M-482.593,116.377l-3.623,1.711
					 M-482.086,117.238l-3.44,1.972 M-481.566,118.11l-3.17,2.159 M-481.726,123.799c-0.48-0.252-1.581-1.445-2.228-2.284
					l-0.477-0.569c-0.845-1.003-1.551-2.109-2.126-3.284l-0.818-2.025c-0.557-1.722-0.826-3.558-0.733-5.462
					c0.069-1.291,0.309-2.539,0.674-3.73c0.641-2.253,1.911-4.003,2.851-5.092l3.255,2.345c-0.423,0.544-0.85,1.155-1.133,1.611
					c0.507,0.527,0.491,1.327-0.068,1.822c-0.276,0.248-0.639,0.369-0.999,0.373l0.052,0.009c-0.275,0.908-0.461,1.852-0.506,2.834
					c-0.07,1.338,0.105,2.627,0.467,3.85c0.359,0.019,0.71,0.161,0.975,0.425c0.521,0.525,0.486,1.322-0.055,1.819
					c0.395,0.736,1.112,1.867,1.652,2.506l-3.011,2.566 M-482.444,105.363l-3.503-1.905 M-481.877,104.538l-3.416-2.15
					 M-471.453,107.499l3.907-1.059 M-471.265,108.47l4.062-0.772 M-471.134,109.438l4.164-0.47 M-470.929,110.409l4.084-0.148
					 M-471.026,111.39l4.186,0.163 M-471.06,112.373l4.091,0.469 M-471.289,113.341l4.089,0.786 M-471.4,114.316l3.856,1.053
					 M-472.374,116.381l3.624,1.711 M-472.89,117.241l3.442,1.972 M-473.407,118.113l3.167,2.159 M-470.54,120.952
					c0.842-1.003,1.545-2.109,2.12-3.284l0.818-2.025c0.559-1.722,0.827-3.558,0.73-5.463c-0.061-1.292-0.305-2.539-0.67-3.731
					c-0.789-2.762-2.522-4.769-3.428-5.727l-0.513-0.539l-2.841,2.722c0.581,0.608,1.37,1.697,1.81,2.408
					c-0.509,0.528-0.491,1.328,0.062,1.822c0.28,0.248,0.641,0.37,1.003,0.373l-0.054,0.009c0.277,0.908,0.459,1.852,0.509,2.833
					c0.07,1.339-0.11,2.628-0.468,3.85c-0.359,0.02-0.713,0.162-0.975,0.425c-0.523,0.525-0.486,1.323,0.053,1.82
					c-0.398,0.736-1.112,1.867-1.655,2.506l3.016,2.566l0.47-0.57L-470.54,120.952z M-472.5,105.373l3.506-1.906 M-473.074,104.548
					l3.309-2.15 M-473.654,103.707l3.022-2.325"/>
			</g>
			<g id="g13878" transform="translate(520.14 239.08)">
				<path id="path13880" fill="none" stroke="#918F90" stroke-linejoin="round" d="M-465.47,74.815
					c-0.994,0-1.912,0.248-2.729,0.648l-0.76-1.008c-0.539-0.639-1.255-1.77-1.652-2.506c0.541-0.497,0.576-1.294,0.055-1.819
					c-0.265-0.264-0.616-0.406-0.975-0.425c-0.362-1.222-0.537-2.514-0.467-3.85c0.045-0.984,0.231-1.928,0.506-2.836l-0.052-0.009
					c0.359-0.005,0.723-0.125,0.998-0.373c0.56-0.495,0.576-1.295,0.069-1.822c0.439-0.713,1.232-1.8,1.81-2.408l0.794-0.987
					c0.738,0.305,1.545,0.487,2.403,0.487c0.845,0,1.642-0.173,2.37-0.472l0.723,0.973c0.578,0.605,1.37,1.694,1.809,2.405
					c-0.508,0.528-0.49,1.328,0.064,1.822c0.279,0.248,0.64,0.367,1.003,0.373l-0.055,0.011c0.277,0.908,0.459,1.853,0.509,2.833
					c0.07,1.339-0.11,2.631-0.468,3.85c-0.357,0.02-0.712,0.161-0.974,0.425c-0.523,0.525-0.486,1.322,0.053,1.82
					c-0.398,0.738-1.111,1.866-1.654,2.505l-0.81,0.928c-0.76-0.35-1.62-0.567-2.55-0.567h-0.02V74.815z"/>
			</g>
			<g id="g13882" transform="translate(516.51 217.4)">
				<path id="path13884" fill="none" stroke="#918F90" stroke-width="0.5" d="M-465.47,74.815c0.854-0.967,2.163-1.586,3.638-1.586
					c1.511,0,2.855,0.655,3.709,1.675 M-465.692,75.59c0.638,0.731,1.023,1.658,1.023,2.666c0,0.825-0.259,1.597-0.705,2.252
					 M-457.083,101.518c-1.102,1.242-2.822,2.042-4.744,2.042c-1.779,0-3.379-0.681-4.481-1.761 M-458.247,101.168
					c-0.886,0.864-2.163,1.403-3.583,1.403c-1.287,0-2.453-0.442-3.318-1.159 M-458.497,100.303
					c-0.848,0.787-2.027,1.275-3.33,1.275c-1.242,0-2.368-0.439-3.207-1.159"/>
			</g>
			<g id="g13886" transform="translate(517.74 239.82)">
				<path id="path13888" fill="#FFFFFF" stroke="#918F90" stroke-width="0.5" d="M-465.47,74.816
					c-1.183,0.553-2.077,1.981-2.123,2.922"/>
			</g>
			<g id="g13890" transform="translate(517.45 243.57)">
				<path id="path13892" fill="#FFFFFF" d="M-465.47,74.816c0,0.797-0.706,1.442-1.58,1.442c-0.877,0-1.581-0.645-1.581-1.442
					s0.705-1.445,1.581-1.445C-466.18,73.37-465.47,74.017-465.47,74.816"/>
			</g>
			<g id="g13894" transform="translate(517.45 243.57)">
				<path id="path13896" fill="none" stroke="#918F90" stroke-width="0.5" d="M-465.47,74.816c0,0.797-0.706,1.442-1.58,1.442
					c-0.877,0-1.581-0.645-1.581-1.442s0.705-1.445,1.581-1.445C-466.18,73.37-465.47,74.017-465.47,74.816z M-456.38,72.531
					c-0.431,0.527-1.462,1.797-2.146,2.292"/>
			</g>
			<g id="g13898" transform="translate(522.81 243.57)">
				<path id="path13900" fill="#FFFFFF" d="M-465.47,74.816c0,0.797,0.709,1.442,1.582,1.442c0.873,0,1.577-0.645,1.577-1.442
					s-0.703-1.445-1.577-1.445c-0.87,0-1.58,0.648-1.58,1.445"/>
			</g>
			<g id="g13902" transform="translate(522.81 243.57)">
				<path id="path13904" fill="none" stroke="#918F90" stroke-width="0.5" d="M-465.47,74.816c0,0.797,0.709,1.442,1.582,1.442
					c0.873,0,1.577-0.645,1.577-1.442s-0.703-1.445-1.577-1.445c-0.87,0-1.58,0.648-1.58,1.445H-465.47z"/>
			</g>
			<g id="g13906" transform="translate(517.34 217.73)">
				<path id="path13908" fill="#FFFFFF" d="M-465.47,74.815c0,0.798-0.712,1.445-1.583,1.445c-0.873,0-1.579-0.647-1.579-1.445
					c0-0.797,0.705-1.445,1.579-1.445c0.87,0,1.58,0.648,1.58,1.445"/>
			</g>
			<g id="g13910" transform="translate(517.34 217.73)">
				<path id="path13912" fill="none" stroke="#918F90" stroke-width="0.5" d="M-465.47,74.815c0,0.798-0.712,1.445-1.583,1.445
					c-0.873,0-1.579-0.647-1.579-1.445c0-0.797,0.705-1.445,1.579-1.445c0.87,0,1.58,0.648,1.58,1.445H-465.47z"/>
			</g>
			<g id="g13914" transform="translate(526.08 219.94)">
				<path id="path13916" fill="#FFFFFF" stroke="#918F90" stroke-width="0.5" d="M-465.47,74.814
					c-0.723-0.8-1.452-1.775-1.796-2.097"/>
			</g>
			<g id="g13918" transform="translate(522.7 217.73)">
				<path id="path13920" fill="#FFFFFF" d="M-465.47,74.815c0,0.798,0.708,1.445,1.581,1.445c0.872,0,1.584-0.647,1.584-1.445
					c0-0.797-0.713-1.445-1.584-1.445C-464.763,73.37-465.47,74.018-465.47,74.815"/>
			</g>
			<g id="g13922" transform="translate(522.7 217.73)">
				<path id="path13924" fill="none" stroke="#918F90" stroke-width="0.5" d="M-465.47,74.815c0,0.798,0.708,1.445,1.581,1.445
					c0.872,0,1.584-0.647,1.584-1.445c0-0.797-0.713-1.445-1.584-1.445C-464.763,73.37-465.47,74.018-465.47,74.815z"/>
			</g>
			<g id="g13926" transform="translate(513.48 85.17)">
				<path id="path13928" fill="none" stroke="#100F0D" stroke-width="0.5" d="M-465.47,74.816"/>
			</g>
			<g id="g13930" transform="translate(512.9 88.749)">
				<path id="path13932" fill="#FFFFFF" d="M-465.47,74.815c0-0.2,0.017-0.395,0.029-0.592c-0.18-0.047-0.353-0.106-0.544-0.139
					c-0.355-0.058-0.72-0.089-1.098-0.089c-0.373,0-0.74,0.031-1.091,0.089c-0.353,0.061-0.696,0.15-1.02,0.258
					c-0.323,0.114-0.636,0.253-0.924,0.412l-1.602-2.884c0.333-0.155,0.677-0.294,1.03-0.419c0.553-0.195,1.138-0.342,1.741-0.442
					c0.601-0.097,1.229-0.155,1.866-0.155c0.642,0,1.267,0.055,1.873,0.155c0.241,0.042,0.473,0.095,0.705,0.15
					c1.248-2.208,3.589-3.705,6.281-3.705c2.688,0,5.029,1.494,6.275,3.705c0.234-0.055,0.468-0.108,0.707-0.15
					c0.605-0.097,1.23-0.155,1.869-0.155c0.641,0,1.266,0.055,1.872,0.155c0.602,0.103,1.189,0.247,1.741,0.442
					c0.354,0.122,0.698,0.261,1.027,0.419l-1.598,2.884c-0.288-0.159-0.598-0.298-0.925-0.412c-0.325-0.108-0.669-0.197-1.02-0.258
					c-0.355-0.058-0.716-0.089-1.095-0.089c-0.373,0-0.739,0.031-1.094,0.089c-0.19,0.033-0.365,0.092-0.545,0.139
					c0.014,0.198,0.034,0.392,0.034,0.592c0,4.066-3.248,7.364-7.245,7.364c-4.02,0.002-7.259-3.298-7.259-7.364"/>
			</g>
			<g id="g13934" transform="translate(512.9 88.749)">
				<path id="path13936" fill="none" stroke="#918F90" stroke-width="0.5" stroke-linejoin="round" d="M-465.47,74.815
					c0-0.2,0.017-0.395,0.029-0.592c-0.18-0.047-0.353-0.106-0.544-0.139c-0.355-0.058-0.72-0.089-1.098-0.089
					c-0.373,0-0.74,0.031-1.091,0.089c-0.353,0.061-0.696,0.15-1.02,0.258c-0.323,0.114-0.636,0.253-0.924,0.412l-1.602-2.884
					c0.333-0.155,0.677-0.294,1.03-0.419c0.553-0.195,1.138-0.342,1.741-0.442c0.601-0.097,1.229-0.155,1.866-0.155
					c0.642,0,1.267,0.055,1.873,0.155c0.241,0.042,0.473,0.095,0.705,0.15c1.248-2.208,3.589-3.705,6.281-3.705
					c2.688,0,5.029,1.494,6.275,3.705c0.234-0.055,0.468-0.108,0.707-0.15c0.605-0.097,1.23-0.155,1.869-0.155
					c0.641,0,1.266,0.055,1.872,0.155c0.602,0.103,1.189,0.247,1.741,0.442c0.354,0.122,0.698,0.261,1.027,0.419l-1.598,2.884
					c-0.288-0.159-0.598-0.298-0.925-0.412c-0.325-0.108-0.669-0.197-1.02-0.258c-0.355-0.058-0.716-0.089-1.095-0.089
					c-0.373,0-0.739,0.031-1.094,0.089c-0.19,0.033-0.365,0.092-0.545,0.139c0.014,0.198,0.034,0.392,0.034,0.592
					c0,4.066-3.248,7.364-7.245,7.364c-4.02,0.002-7.259-3.298-7.259-7.364H-465.47z"/>
			</g>
			<g id="g13938" transform="translate(526.97 88.184)">
				<path id="path13940" fill="none" stroke="#918F90" stroke-width="0.5" d="M-465.47,74.814l-1.138-2.9 M-464.367,74.68
					l-0.584-3.2 M-463.291,74.623l0.048-3.203 M-462.213,74.689l0.666-3.142 M-461.187,75.006l1.295-3.044 M-479.092,74.814
					l1.136-2.9 M-480.196,74.68l0.583-3.2 M-481.283,74.623l-0.048-3.203 M-482.361,74.689l-0.67-3.142 M-483.391,75.006
					l-1.292-3.044"/>
			</g>
			<g id="g13942" transform="translate(515.46 85.622)">
				<path id="path13944" fill="#FFFFFF" d="M-465.47,74.817c-0.245-0.134-0.734-0.25-1.032-0.348
					c-0.294-0.097-0.614-0.175-0.957-0.233c-0.342-0.056-0.7-0.092-1.081-0.109c-0.377-0.014-0.77-0.113-1.176-0.083
					c-0.403,0.028-0.826-0.047-1.254,0.012c-0.429,0.058-0.846,0.141-1.245,0.233c-0.396,0.1-0.886,0.217-1.247,0.347
					c-0.361,0.133-0.702,0.283-1.017,0.442l-1.636-2.434c0.334-0.166,0.688-0.322,1.053-0.469c0.572-0.222,1.289-0.425,1.921-0.594
					c0.631-0.169,1.29-0.308,1.968-0.409c0.681-0.097,1.34-0.091,1.982-0.139c0.644-0.044,1.268,0.048,1.867,0.078
					c0.6,0.031,1.173,0.095,1.718,0.197c0.539,0.1,1.049,0.134,1.522,0.303l-1.37,3.206H-465.47z"/>
			</g>
			<g id="g13946" transform="translate(515.46 85.622)">
				<path id="path13948" fill="none" stroke="#918F90" stroke-width="0.5" stroke-linejoin="round" d="M-465.47,74.817
					c-0.245-0.134-0.734-0.25-1.032-0.348c-0.294-0.097-0.614-0.175-0.957-0.233c-0.342-0.056-0.7-0.092-1.081-0.109
					c-0.377-0.014-0.77-0.113-1.176-0.083c-0.403,0.028-0.826-0.047-1.254,0.012c-0.429,0.058-0.846,0.141-1.245,0.233
					c-0.396,0.1-0.886,0.217-1.247,0.347c-0.361,0.133-0.702,0.283-1.017,0.442l-1.636-2.434c0.334-0.166,0.688-0.322,1.053-0.469
					c0.572-0.222,1.289-0.425,1.921-0.594c0.631-0.169,1.29-0.308,1.968-0.409c0.681-0.097,1.34-0.091,1.982-0.139
					c0.644-0.044,1.268,0.048,1.867,0.078c0.6,0.031,1.173,0.095,1.718,0.197c0.539,0.1,1.049,0.134,1.522,0.303l-1.37,3.206
					H-465.47z"/>
			</g>
			<g id="g13950" transform="translate(512.1 82.045)">
				<path id="path13952" fill="none" stroke="#918F90" stroke-width="0.5" d="M-463.11,78.112l1.06-3.164 M-464.13,77.837
					l0.772-3.117 M-465.238,77.641l0.164-3.039 M-466.484,77.662l-0.033-3.033 M-467.727,77.694l-0.609-2.911 M-468.956,77.912
					l-0.814-2.773 M-470.22,78.305l-1.388-2.597"/>
			</g>
			<g id="g13954" transform="translate(524.73 85.622)">
				<path id="path13956" fill="#FFFFFF" d="M-465.47,74.817c0.24-0.134,0.733-0.25,1.029-0.348c0.298-0.097,0.617-0.175,0.958-0.233
					c0.341-0.056,0.702-0.092,1.081-0.109c0.376-0.014,0.77-0.113,1.177-0.083c0.406,0.028,0.828-0.047,1.259,0.012
					c0.426,0.058,0.84,0.141,1.24,0.233c0.4,0.1,0.889,0.217,1.25,0.347c0.36,0.133,0.697,0.283,1.017,0.442l1.637-2.434
					c-0.339-0.166-0.69-0.322-1.055-0.469c-0.573-0.222-1.291-0.425-1.923-0.592c-0.63-0.169-1.289-0.308-1.966-0.408
					c-0.68-0.097-1.339-0.092-1.984-0.139c-0.641-0.044-1.267,0.047-1.868,0.078c-0.597,0.03-1.17,0.094-1.713,0.197
					c-0.544,0.1-1.052,0.133-1.523,0.303l1.36,3.205h0.024V74.817z"/>
			</g>
			<g id="g13958" transform="translate(524.73 85.622)">
				<path id="path13960" fill="none" stroke="#918F90" stroke-width="0.5" stroke-linejoin="round" d="M-465.47,74.817
					c0.24-0.134,0.733-0.25,1.029-0.348c0.298-0.097,0.617-0.175,0.958-0.233c0.341-0.056,0.702-0.092,1.081-0.109
					c0.376-0.014,0.77-0.113,1.177-0.083c0.406,0.028,0.828-0.047,1.259,0.012c0.426,0.058,0.84,0.141,1.24,0.233
					c0.4,0.1,0.889,0.217,1.25,0.347c0.36,0.133,0.697,0.283,1.017,0.442l1.637-2.434c-0.339-0.166-0.69-0.322-1.055-0.469
					c-0.573-0.222-1.291-0.425-1.923-0.592c-0.63-0.169-1.289-0.308-1.966-0.408c-0.68-0.097-1.339-0.092-1.984-0.139
					c-0.641-0.044-1.267,0.047-1.868,0.078c-0.597,0.03-1.17,0.094-1.713,0.197c-0.544,0.1-1.052,0.133-1.523,0.303l1.36,3.205
					h0.024V74.817z"/>
			</g>
			<g id="g13962" transform="translate(528.08 82.045)">
				<path id="path13964" fill="none" stroke="#918F90" stroke-width="0.5" d="M-467.83,78.112l-1.064-3.164 M-466.814,77.837
					l-0.772-3.117 M-465.706,77.641l-0.168-3.039 M-464.453,77.662l0.034-3.033 M-463.199,77.694l0.606-2.911 M-461.972,77.912
					l0.811-2.773 M-460.721,78.305l1.39-2.597"/>
			</g>
			<g id="g13966" transform="translate(524.86 81.885)">
				<path id="path13968" fill="#FFFFFF" d="M-465.47,74.815c-0.418,0.078-0.805,0.13-1.185,0.222c-1.045-0.602-2.25-0.95-3.534-0.95
					c-1.302,0-2.52,0.356-3.572,0.964c-0.391-0.103-0.808-0.155-1.246-0.236c-0.478-0.086-0.99-0.139-1.51-0.17
					c1.411-1.761,3.681-2.911,6.252-2.911c2.573,0,4.848,1.15,6.256,2.914c-0.5,0.033-0.989,0.083-1.45,0.169"/>
			</g>
			<g id="g13970" transform="translate(524.86 81.885)">
				<path id="path13972" fill="none" stroke="#918F90" stroke-linejoin="round" d="M-465.47,74.815
					c-0.418,0.078-0.805,0.13-1.185,0.222c-1.045-0.602-2.25-0.95-3.534-0.95c-1.302,0-2.52,0.356-3.572,0.964
					c-0.391-0.103-0.808-0.155-1.246-0.236c-0.478-0.086-0.99-0.139-1.51-0.17c1.411-1.761,3.681-2.911,6.252-2.911
					c2.573,0,4.848,1.15,6.256,2.914c-0.5,0.033-0.989,0.083-1.45,0.169h-0.012V74.815z"/>
			</g>
			<g id="g13974" transform="translate(510.33 138.57)">
				<path id="path13976" fill="#FFFFFF" d="M-465.47,74.816l-0.151-0.111c0.171-0.117,0.347-0.234,0.505-0.378
					c0.942-0.858,1.414-1.989,1.414-3.114c0-0.005-0.003-0.014-0.003-0.022l0.003-0.003l-0.003-0.003
					c-0.007-1.119-0.478-2.233-1.411-3.088c-0.941-0.859-2.176-1.291-3.408-1.291c-0.253,0-0.502,0.03-0.751,0.066
					c-2.491-2.453-4.188-5.58-4.741-9.05c0.66-0.647,1.073-1.506,1.073-2.458c0-0.947-0.406-1.8-1.06-2.445
					c0.583-3.672,2.464-6.944,5.188-9.463c1.128-0.064,2.236-0.475,3.1-1.262c0.943-0.861,1.413-1.989,1.413-3.116
					c0-1.127-0.47-2.256-1.413-3.116c-0.569-0.52-1.254-0.867-1.97-1.069c-1.982-0.978-3.331-2.875-3.331-5.075
					c0-2.214,1.359-4.136,3.357-5.106l0.105,0.186c0.288-0.158,0.602-0.297,0.925-0.411c0.324-0.112,0.667-0.197,1.021-0.255
					c0.352-0.059,0.717-0.092,1.091-0.092c0.379,0,0.743,0.033,1.098,0.092c0.19,0.03,0.364,0.091,0.545,0.136
					c-0.012,0.194-0.03,0.391-0.03,0.591c0,4.067,3.243,7.361,7.248,7.361c3.995,0,7.241-3.294,7.241-7.361
					c0-0.2-0.018-0.397-0.032-0.591c0.182-0.048,0.357-0.109,0.548-0.136c0.355-0.059,0.72-0.092,1.095-0.092
					c0.379,0,0.741,0.033,1.095,0.092c0.352,0.058,0.695,0.144,1.02,0.255c0.327,0.114,0.638,0.253,0.927,0.411l0.055-0.105
					c1.909,0.997,3.202,2.872,3.202,5.027c0,2.2-1.352,4.095-3.327,5.075c-0.723,0.203-1.405,0.548-1.973,1.069
					c-0.945,0.858-1.414,1.988-1.414,3.116s0.47,2.253,1.414,3.117c0.934,0.852,2.155,1.28,3.377,1.286
					c2.655,2.467,4.505,5.659,5.124,9.239c-0.78,0.663-1.27,1.595-1.27,2.642c0,1.05,0.494,1.986,1.281,2.65
					c-0.584,3.383-2.262,6.436-4.695,8.839c-0.271-0.042-0.541-0.07-0.812-0.07c-1.234,0-2.467,0.428-3.412,1.288
					c-0.943,0.862-1.411,1.992-1.411,3.117c0,1.128,0.468,2.256,1.411,3.117c0.17,0.153,0.359,0.28,0.546,0.405l-0.152,0.109
					c-2.852,1.077-6.209,1.708-9.82,1.708c-3.64,0-7-0.631-9.85-1.711"/>
			</g>
			<g id="g13978" transform="translate(510.33 138.57)">
				<path id="path13980" fill="none" stroke="#918F90" stroke-linejoin="round" d="M-465.47,74.816l-0.151-0.111
					c0.171-0.117,0.347-0.234,0.505-0.378c0.942-0.858,1.414-1.989,1.414-3.114c0-0.005-0.003-0.014-0.003-0.022l0.003-0.003
					l-0.003-0.003c-0.007-1.119-0.478-2.233-1.411-3.088c-0.941-0.859-2.176-1.291-3.408-1.291c-0.253,0-0.502,0.03-0.751,0.066
					c-2.491-2.453-4.188-5.58-4.741-9.05c0.66-0.647,1.073-1.506,1.073-2.458c0-0.947-0.406-1.8-1.06-2.445
					c0.583-3.672,2.464-6.944,5.188-9.463c1.128-0.064,2.236-0.475,3.1-1.262c0.943-0.861,1.413-1.989,1.413-3.116
					c0-1.127-0.47-2.256-1.413-3.116c-0.569-0.52-1.254-0.867-1.97-1.069c-1.982-0.978-3.331-2.875-3.331-5.075
					c0-2.214,1.359-4.136,3.357-5.106l0.105,0.186c0.288-0.158,0.602-0.297,0.925-0.411c0.324-0.112,0.667-0.197,1.021-0.255
					c0.352-0.059,0.717-0.092,1.091-0.092c0.379,0,0.743,0.033,1.098,0.092c0.19,0.03,0.364,0.091,0.545,0.136
					c-0.012,0.194-0.03,0.391-0.03,0.591c0,4.067,3.243,7.361,7.248,7.361c3.995,0,7.241-3.294,7.241-7.361
					c0-0.2-0.018-0.397-0.032-0.591c0.182-0.048,0.357-0.109,0.548-0.136c0.355-0.059,0.72-0.092,1.095-0.092
					c0.379,0,0.741,0.033,1.095,0.092c0.352,0.058,0.695,0.144,1.02,0.255c0.327,0.114,0.638,0.253,0.927,0.411l0.055-0.105
					c1.909,0.997,3.202,2.872,3.202,5.027c0,2.2-1.352,4.095-3.327,5.075c-0.723,0.203-1.405,0.548-1.973,1.069
					c-0.945,0.858-1.414,1.988-1.414,3.116s0.47,2.253,1.414,3.117c0.934,0.852,2.155,1.28,3.377,1.286
					c2.655,2.467,4.505,5.659,5.124,9.239c-0.78,0.663-1.27,1.595-1.27,2.642c0,1.05,0.494,1.986,1.281,2.65
					c-0.584,3.383-2.262,6.436-4.695,8.839c-0.271-0.042-0.541-0.07-0.812-0.07c-1.234,0-2.467,0.428-3.412,1.288
					c-0.943,0.862-1.411,1.992-1.411,3.117c0,1.128,0.468,2.256,1.411,3.117c0.17,0.153,0.359,0.28,0.546,0.405l-0.152,0.109
					c-2.852,1.077-6.209,1.708-9.82,1.708c-3.64,0-7-0.631-9.85-1.711H-465.47z"/>
			</g>
			<g id="g13982" transform="translate(508.64 185.69)">
				<path id="path13984" fill="none" stroke="#918F90" stroke-width="0.5" d="M-465.47,74.814l1.403-0.022
					c0-2.692,1.759-6.003,1.759-6.003s-0.097-1.77,0.528-2.972c0.626-1.203,2.202-2.3,2.202-2.3L-460.611,53l1.873-0.458
					l-3.52-14.598h-12.832v-1.298h-2.627v7.114h-1.425v3.308h1.441v3.892h-10.444 M-480.175,64.896v11.492h-8.11V57.139h9.977
					l-1.87,7.756H-480.175L-480.175,64.896z M-442.515,74.792l-1.402-0.022c0-2.67-1.761-6.006-1.761-6.006s0.184-1.217-0.42-2.772
					c-0.601-1.553-2.311-2.503-2.311-2.503l1.036-10.516l-1.88-0.459l3.523-14.597h12.833v-1.297h2.63v7.111h1.424v3.308h-1.442
					v3.892h10.445 M-427.899,64.835v11.678h6.802V50.921h-10.477l3.68,13.914H-427.899z"/>
			</g>
			<g id="g13986" transform="translate(519.98 497.64)">
				<path id="path13988" fill="#FFFFFF" d="M-465.47,74.815c-1.618,0-2.937,1.12-3.11,2.556c-3.123-0.609-4.843-1.907-4.843-1.907
					h-3.021V60.296c0-2.493,2.309-6.004,6.221-7.693c0.015,0.129,0.055,0.248,0.081,0.371c-3.14,1.812-5.277,5.252-5.277,9.213
					l-0.002,2.2c0.638,0.583,1.336,0.798,2.382,0.798c0.911,0,1.805-0.141,2.468-0.741v-2.243c0-1.259,1.023-3.27,1.734-3.632
					l-1.473-1.613c0.614-0.518,1.328-0.938,2.107-1.252c0.774,0.498,1.705,0.802,2.727,0.802c1.005,0,1.925-0.295,2.692-0.775
					c0.754,0.312,1.449,0.722,2.049,1.227l-1.474,1.613c0.711,0.362,1.738,2.374,1.738,3.632l0.002,0.003v2.24
					c0.655,0.6,1.552,0.741,2.464,0.741c1.05,0,1.745-0.216,2.384-0.798v-2.2c0-3.927-2.102-7.341-5.198-9.167
					c0.041-0.181,0.087-0.363,0.105-0.551c4.43,1.738,6.341,5.734,6.341,7.826v15.168h-2.834c0,0-1.827,1.384-5.152,1.966
					c-0.14-1.464-1.47-2.616-3.109-2.616"/>
			</g>
			<g id="g13990" transform="translate(519.98 497.64)">
				<path id="path13992" fill="none" stroke="#918F90" stroke-linejoin="round" d="M-465.47,74.815c-1.618,0-2.937,1.12-3.11,2.556
					c-3.123-0.609-4.843-1.907-4.843-1.907h-3.021V60.296c0-2.493,2.309-6.004,6.221-7.693c0.015,0.129,0.055,0.248,0.081,0.371
					c-3.14,1.812-5.277,5.252-5.277,9.213l-0.002,2.2c0.638,0.583,1.336,0.798,2.382,0.798c0.911,0,1.805-0.141,2.468-0.741v-2.243
					c0-1.259,1.023-3.27,1.734-3.632l-1.473-1.613c0.614-0.518,1.328-0.938,2.107-1.252c0.774,0.498,1.705,0.802,2.727,0.802
					c1.005,0,1.925-0.295,2.692-0.775c0.754,0.312,1.449,0.722,2.049,1.227l-1.474,1.613c0.711,0.362,1.738,2.374,1.738,3.632
					l0.002,0.003v2.24c0.655,0.6,1.552,0.741,2.464,0.741c1.05,0,1.745-0.216,2.384-0.798v-2.2c0-3.927-2.102-7.341-5.198-9.167
					c0.041-0.181,0.087-0.363,0.105-0.551c4.43,1.738,6.341,5.734,6.341,7.826v15.168h-2.834c0,0-1.827,1.384-5.152,1.966
					c-0.14-1.464-1.47-2.616-3.109-2.616H-465.47L-465.47,74.815z"/>
			</g>
			<g id="g13994" transform="translate(517.25 478.51)">
				<path id="path13996" fill="#FFFFFF" d="M-465.47,74.815c-2.748,1.101-4.629,3.59-4.629,6.499h-2.6
					c0-3.952,2.13-7.388,5.257-9.205l1.97,2.706H-465.47z"/>
			</g>
			<g id="g13998" transform="translate(517.25 478.51)">
				<path id="path14000" fill="none" stroke="#918F90" stroke-width="0.5" stroke-linejoin="round" d="M-465.47,74.815
					c-2.748,1.101-4.629,3.59-4.629,6.499h-2.6c0-3.952,2.13-7.388,5.257-9.205l1.97,2.706H-465.47z"/>
			</g>
			<g id="g14002" transform="translate(510.03 485.01)">
				<path id="path14004" fill="#FFFFFF" d="M-465.47,74.815v2.2c0.638,0.584,1.336,0.8,2.382,0.8c0.91,0,1.806-0.141,2.468-0.741
					v-2.243c0-1.259,1.024-3.27,1.734-3.631l-1.62-1.772c-1.542,1.353-2.51,3.266-2.51,5.391l-2.45-0.004H-465.47L-465.47,74.815z"
					/>
			</g>
			<g id="g14006" transform="translate(510.03 485.01)">
				<path id="path14008" fill="none" stroke="#918F90" stroke-width="0.5" stroke-linejoin="round" d="M-465.47,74.815v2.2
					c0.638,0.584,1.336,0.8,2.382,0.8c0.91,0,1.806-0.141,2.468-0.741v-2.243c0-1.259,1.024-3.27,1.734-3.631l-1.62-1.772
					c-1.542,1.353-2.51,3.266-2.51,5.391l-2.45-0.004H-465.47L-465.47,74.815z"/>
			</g>
			<g id="g14010" transform="translate(514.88 485.03)">
				<path id="path14012" fill="#FFFFFF" stroke="#918F90" stroke-width="0.5" stroke-linejoin="round" d="M-465.47,74.815
					l-4.85-0.015"/>
			</g>
			<g id="g14014" transform="translate(514.91 484.36)">
				<path id="path14016" fill="#FFFFFF" stroke="#918F90" stroke-width="0.5" stroke-linejoin="round" d="M-465.47,74.816
					l-4.79-0.641"/>
			</g>
			<g id="g14018" transform="translate(515.06 483.72)">
				<path id="path14020" fill="#FFFFFF" stroke="#918F90" stroke-width="0.5" stroke-linejoin="round" d="M-465.47,74.815
					l-4.634-1.254"/>
			</g>
			<g id="g14022" transform="translate(515.31 483.11)">
				<path id="path14024" fill="#FFFFFF" stroke="#918F90" stroke-width="0.5" stroke-linejoin="round" d="M-465.47,74.815
					l-4.664-1.92"/>
			</g>
			<g id="g14026" transform="translate(515.66 482.54)">
				<path id="path14028" fill="#FFFFFF" stroke="#918F90" stroke-width="0.5" stroke-linejoin="round" d="M-465.47,74.815
					l-4.391-2.607"/>
			</g>
			<g id="g14030" transform="translate(516.09 482.02)">
				<path id="path14032" fill="#FFFFFF" stroke="#918F90" stroke-width="0.5" stroke-linejoin="round" d="M-465.47,74.816
					l-4.201-3.281"/>
			</g>
			<g id="g14034" transform="translate(516.08 480.81)">
				<path id="path14036" fill="#FFFFFF" stroke="#918F90" stroke-width="0.5" stroke-linejoin="round" d="M-465.47,74.815
					l-3.165-3.341"/>
			</g>
			<g id="g14038" transform="translate(516.12 479.12)">
				<path id="path14040" fill="#FFFFFF" stroke="#918F90" stroke-width="0.5" stroke-linejoin="round" d="M-465.47,74.815
					l-2.091-2.611"/>
			</g>
			<g id="g14042" transform="translate(522.66 478.53)">
				<path id="path14044" fill="#FFFFFF" d="M-465.47,74.815c2.712,1.112,4.57,3.587,4.57,6.476h2.602
					c0-3.966-2.145-7.412-5.291-9.223L-465.47,74.815z"/>
			</g>
			<g id="g14046" transform="translate(522.66 478.53)">
				<path id="path14048" fill="none" stroke="#918F90" stroke-width="0.5" stroke-linejoin="round" d="M-465.47,74.815
					c2.712,1.112,4.57,3.587,4.57,6.476h2.602c0-3.966-2.145-7.412-5.291-9.223L-465.47,74.815z"/>
			</g>
			<g id="g14050" transform="translate(529.83 485.01)">
				<path id="path14052" fill="#FFFFFF" d="M-465.47,74.815v2.2c-0.638,0.584-1.334,0.8-2.384,0.8c-0.912,0-1.809-0.141-2.464-0.741
					v-2.241l-0.002-0.002c0-1.259-1.027-3.27-1.738-3.631l1.62-1.772c1.548,1.353,2.515,3.266,2.515,5.391l2.45-0.004H-465.47
					L-465.47,74.815z"/>
			</g>
			<g id="g14054" transform="translate(529.83 485.01)">
				<path id="path14056" fill="none" stroke="#918F90" stroke-width="0.5" stroke-linejoin="round" d="M-465.47,74.815v2.2
					c-0.638,0.584-1.334,0.8-2.384,0.8c-0.912,0-1.809-0.141-2.464-0.741v-2.241l-0.002-0.002c0-1.259-1.027-3.27-1.738-3.631
					l1.62-1.772c1.548,1.353,2.515,3.266,2.515,5.391l2.45-0.004H-465.47L-465.47,74.815z"/>
			</g>
			<g id="g14058" transform="translate(524.98 485.03)">
				<path id="path14060" fill="#FFFFFF" stroke="#918F90" stroke-width="0.5" stroke-linejoin="round" d="M-465.47,74.815
					l4.85-0.015"/>
			</g>
			<g id="g14062" transform="translate(524.94 484.36)">
				<path id="path14064" fill="#FFFFFF" stroke="#918F90" stroke-width="0.5" stroke-linejoin="round" d="M-465.47,74.816
					l4.784-0.641"/>
			</g>
			<g id="g14066" transform="translate(524.79 483.72)">
				<path id="path14068" fill="#FFFFFF" stroke="#918F90" stroke-width="0.5" stroke-linejoin="round" d="M-465.47,74.815
					l4.634-1.254"/>
			</g>
			<g id="g14070" transform="translate(524.54 483.11)">
				<path id="path14072" fill="#FFFFFF" stroke="#918F90" stroke-width="0.5" stroke-linejoin="round" d="M-465.47,74.815
					l4.667-1.92"/>
			</g>
			<g id="g14074" transform="translate(524.19 482.54)">
				<path id="path14076" fill="#FFFFFF" stroke="#918F90" stroke-width="0.5" stroke-linejoin="round" d="M-465.47,74.815
					l4.391-2.607"/>
			</g>
			<g id="g14078" transform="translate(523.76 482.02)">
				<path id="path14080" fill="#FFFFFF" stroke="#918F90" stroke-width="0.5" stroke-linejoin="round" d="M-465.47,74.816
					l4.201-3.281"/>
			</g>
			<g id="g14082" transform="translate(523.77 480.81)">
				<path id="path14084" fill="#FFFFFF" stroke="#918F90" stroke-width="0.5" stroke-linejoin="round" d="M-465.47,74.815
					l3.163-3.341"/>
			</g>
			<g id="g14086" transform="translate(523.85 478.99)">
				<path id="path14088" fill="#FFFFFF" stroke="#918F90" stroke-width="0.5" stroke-linejoin="round" d="M-465.47,74.815
					l1.966-2.379"/>
			</g>
			<path id="path14090" fill="#FFFFFF" stroke="#918F90" stroke-width="0.5" d="M72.939,556.458h5.619v14.929h-5.619V556.458
				L72.939,556.458z"/>
			<path id="path14092" fill="#FFFFFF" stroke="#918F90" stroke-width="0.5" d="M30.681,556.528h5.62v14.927h-5.62v-14.93V556.528z"
				/>
			<path id="path14094" fill="#FFFFFF" stroke="#918F90" stroke-width="0.5" d="M69.744,588.128h4.717v-0.992h-4.717v0.99V588.128z"
				/>
			<path id="path14096" fill="#FFFFFF" stroke="#918F90" stroke-width="0.5" d="M69.744,587.138h4.717v-0.993h-4.717v0.99V587.138z"
				/>
			<path id="path14098" fill="#FFFFFF" stroke="#918F90" stroke-width="0.5" d="M69.744,586.138h4.717v-0.993h-4.717v0.99V586.138z"
				/>
			<path id="path14100" fill="#FFFFFF" stroke="#918F90" stroke-width="0.5" d="M66.206,588.128h3.538v-0.992h-3.538v0.99V588.128z"
				/>
			<path id="path14102" fill="#FFFFFF" stroke="#918F90" stroke-width="0.5" d="M66.206,587.138h3.538v-0.993h-3.538v0.99V587.138z"
				/>
			<path id="path14104" fill="#FFFFFF" stroke="#918F90" stroke-width="0.5" d="M66.206,586.138h3.538v-0.993h-3.538v0.99V586.138z"
				/>
			<path id="path14106" fill="#FFFFFF" stroke="#918F90" stroke-width="0.5" d="M69.744,585.148h4.717v-0.993h-4.717v0.99V585.148z"
				/>
			<path id="path14108" fill="#FFFFFF" stroke="#918F90" stroke-width="0.5" d="M66.206,585.148h3.538v-0.993h-3.538v0.99V585.148z"
				/>
			<path id="path14110" fill="#FFFFFF" stroke="#918F90" stroke-width="0.5" d="M69.744,584.158h4.717v-0.992h-4.717v0.99V584.158z"
				/>
			<path id="path14112" fill="#FFFFFF" stroke="#918F90" stroke-width="0.5" d="M66.206,584.158h3.538v-0.992h-3.538v0.99V584.158z"
				/>
			<path id="path14114" fill="#FFFFFF" stroke="#918F90" stroke-width="0.5" d="M69.744,583.168h4.717v-0.993h-4.717v0.99V583.168z"
				/>
			<path id="path14116" fill="#FFFFFF" stroke="#918F90" stroke-width="0.5" d="M66.206,583.168h3.538v-0.993h-3.538v0.99V583.168z"
				/>
			<path id="path14118" fill="#FFFFFF" stroke="#918F90" stroke-width="0.5" d="M74.461,588.128h3.542v-0.992h-3.542v0.99V588.128z"
				/>
			<path id="path14120" fill="#FFFFFF" stroke="#918F90" stroke-width="0.5" d="M74.461,587.138h3.542v-0.993h-3.542v0.99V587.138z"
				/>
			<path id="path14122" fill="#FFFFFF" stroke="#918F90" stroke-width="0.5" d="M74.461,586.138h3.542v-0.993h-3.542v0.99V586.138z"
				/>
			<path id="path14124" fill="#FFFFFF" stroke="#918F90" stroke-width="0.5" d="M74.461,585.148h3.542v-0.993h-3.542v0.99V585.148z"
				/>
			<path id="path14126" fill="#FFFFFF" stroke="#918F90" stroke-width="0.5" d="M74.461,584.158h3.542v-0.992h-3.542v0.99V584.158z"
				/>
			<path id="path14128" fill="#FFFFFF" stroke="#918F90" stroke-width="0.5" d="M74.461,583.168h3.542v-0.993h-3.542v0.99V583.168z"
				/>
			<path id="path14130" fill="#FFFFFF" stroke="#918F90" stroke-width="0.5" d="M66.206,588.118h11.798v2.927H66.206v-2.93V588.118z
				"/>
			<path id="path14132" fill="#FFFFFF" stroke="#918F90" stroke-width="0.5" d="M34.864,588.128h4.712v-0.992h-4.712v0.99V588.128z"
				/>
			<path id="path14134" fill="#FFFFFF" stroke="#918F90" stroke-width="0.5" d="M34.864,587.138h4.712v-0.993h-4.712v0.99V587.138z"
				/>
			<path id="path14136" fill="#FFFFFF" stroke="#918F90" stroke-width="0.5" d="M34.864,586.138h4.712v-0.993h-4.712v0.99V586.138z"
				/>
			<path id="path14138" fill="#FFFFFF" stroke="#918F90" stroke-width="0.5" d="M31.322,588.128h3.542v-0.992h-3.542v0.99V588.128z"
				/>
			<path id="path14140" fill="#FFFFFF" stroke="#918F90" stroke-width="0.5" d="M31.322,587.138h3.542v-0.993h-3.542v0.99V587.138z"
				/>
			<path id="path14142" fill="#FFFFFF" stroke="#918F90" stroke-width="0.5" d="M31.322,586.138h3.542v-0.993h-3.542v0.99V586.138z"
				/>
			<path id="path14144" fill="#FFFFFF" stroke="#918F90" stroke-width="0.5" d="M34.864,585.148h4.712v-0.993h-4.712v0.99V585.148z"
				/>
			<path id="path14146" fill="#FFFFFF" stroke="#918F90" stroke-width="0.5" d="M31.322,585.148h3.542v-0.993h-3.542v0.99V585.148z"
				/>
			<path id="path14148" fill="#FFFFFF" stroke="#918F90" stroke-width="0.5" d="M34.864,584.158h4.712v-0.992h-4.712v0.99V584.158z"
				/>
			<path id="path14150" fill="#FFFFFF" stroke="#918F90" stroke-width="0.5" d="M31.322,584.158h3.542v-0.992h-3.542v0.99V584.158z"
				/>
			<path id="path14152" fill="#FFFFFF" stroke="#918F90" stroke-width="0.5" d="M34.864,583.168h4.712v-0.993h-4.712v0.99V583.168z"
				/>
			<path id="path14154" fill="#FFFFFF" stroke="#918F90" stroke-width="0.5" d="M31.322,583.168h3.542v-0.993h-3.542v0.99V583.168z"
				/>
			<path id="path14156" fill="#FFFFFF" stroke="#918F90" stroke-width="0.5" d="M39.576,588.128h3.542v-0.992h-3.542v0.99V588.128z"
				/>
			<path id="path14158" fill="#FFFFFF" stroke="#918F90" stroke-width="0.5" d="M39.576,587.138h3.542v-0.993h-3.542v0.99V587.138z"
				/>
			<path id="path14160" fill="#FFFFFF" stroke="#918F90" stroke-width="0.5" d="M39.576,586.138h3.542v-0.993h-3.542v0.99V586.138z"
				/>
			<path id="path14162" fill="#FFFFFF" stroke="#918F90" stroke-width="0.5" d="M39.576,585.148h3.542v-0.993h-3.542v0.99V585.148z"
				/>
			<path id="path14164" fill="#FFFFFF" stroke="#918F90" stroke-width="0.5" d="M39.576,584.158h3.542v-0.992h-3.542v0.99V584.158z"
				/>
			<path id="path14166" fill="#FFFFFF" stroke="#918F90" stroke-width="0.5" d="M39.576,583.168h3.542v-0.993h-3.542v0.99V583.168z"
				/>
			<path id="path14168" fill="#FFFFFF" d="M31.322,588.118h11.796v2.927H31.322v-2.93V588.118z"/>
			<path id="path14170" fill="none" stroke="#918F90" stroke-width="0.5" d="M31.322,588.118h11.796v2.927H31.322v-2.93V588.118z
				 M89.12,573.088H79.11v18.328h10.01v-18.33V573.088z M30.2,573.458h-9.888v17.952H30.2v-17.95V573.458z M79.109,573.458v-16.95
				h1.251v-4.142h-7.695v3.264"/>
			<g id="g14172" transform="translate(524.08 385.95)">
				<path id="path14174" fill="none" stroke="#918F90" stroke-width="0.5" stroke-linejoin="round" d="M-465.47,74.815
					c1.03,1.147,1.63,2.73,1.63,4.345c0,1.828-0.752,3.518-2.112,4.764l2.334,2.13c4.195-3.836,3.873-9.971,0.391-13.475
					l-2.241,2.236H-465.47z M-465.95,83.924l2.335,2.13 M-465.185,83.024l2.673,1.766 M-464.593,82.028l2.948,1.352
					 M-464.195,80.953l3.147,0.908 M-463.978,79.836l3.263,0.439 M-463.955,78.7l3.298-0.039 M-464.127,77.576l3.246-0.52
					 M-464.511,76.493l3.12-0.986 M-465.061,75.475l2.905-1.422"/>
			</g>
			<g id="g14176" transform="translate(525.71 390.3)">
				<path id="path14178" fill="none" stroke="#918F90" stroke-linejoin="round" d="M-465.47,74.815c0,1.777-0.702,3.387-1.85,4.573
					c-0.855-1.298-1.345-2.734-1.345-4.253c0-1.661,0.58-3.228,1.595-4.617c0.991,1.156,1.591,2.655,1.591,4.297H-465.47z
					 M-464.71,67.878c1.845,1.738,3.156,4.191,3.156,6.917c0,2.789-0.995,5.191-3.513,7.3"/>
			</g>
			<g id="g14180" transform="translate(517.12 282.22)">
				<path id="path14182" fill="none" stroke="#918F90" stroke-width="0.5" stroke-linejoin="round" d="M-465.47,74.816
					c-1.029-1.147-1.631-2.733-1.631-4.345c0-1.833,0.753-3.522,2.109-4.766l-2.332-2.131c-4.196,3.836-3.877,9.975-0.389,13.478
					l2.24-2.236H-465.47z M-464.99,65.705l-2.332-2.131 M-465.752,66.606l-2.673-1.766 M-466.345,67.603l-2.945-1.355
					 M-466.75,68.676l-3.147-0.908 M-466.977,69.795l-3.262-0.441 M-466.989,70.93l-3.301,0.041 M-466.82,72.053l-3.248,0.52
					 M-466.438,73.137l-3.118,0.983 M-465.886,74.155l-2.902,1.425"/>
			</g>
			<g id="g14184" transform="translate(515.49 277.87)">
				<path id="path14186" fill="none" stroke="#918F90" stroke-linejoin="round" d="M-465.47,74.816c0-1.778,0.705-3.389,1.849-4.572
					c0.855,1.294,1.344,2.733,1.344,4.252c0,1.662-0.582,3.228-1.6,4.617c-0.99-1.155-1.59-2.655-1.59-4.297H-465.47z
					 M-466.23,81.751c-1.845-1.739-3.159-4.192-3.159-6.917c0-2.789,0.993-5.191,3.514-7.3"/>
			</g>
			<g id="g14188" transform="translate(498.12 232.99)">
				<path id="path14190" fill="none" stroke="#918F90" stroke-width="0.5" stroke-linejoin="round" d="M-465.47,74.814
					c0.23-0.044,0.47-0.069,0.712-0.069c1.871,0,3.52,1.389,3.52,3.094c0,0.536-0.167,1.042-0.434,1.481
					c1.575,0.267,2.769,1.525,2.769,3.036c0,0.781-0.312,1.486-0.832,2.031l0.402,0.572c0.284-0.07,0.581-0.109,0.89-0.109
					c1.872,0,3.386,1.387,3.386,3.095c0,0.342-0.073,0.661-0.186,0.969c1.091,0.517,1.838,1.542,1.838,2.737
					c0,0.972-0.491,1.93-1.258,2.5l0.894-0.034v17.203h-3.437v-10.922h-15.941v12.93h4.534v1.759h-9.176 M-464.749,70.172
					c1.871,0,3.52-1.386,3.52-3.094c0-0.572-0.184-1.1-0.478-1.559c1.826-0.047,3.294-1.408,3.294-3.087
					c0-1.108-0.642-2.069-1.601-2.619c0.36-0.492,0.571-1.078,0.571-1.714c0-1.711-1.515-3.097-3.388-3.097
					c-0.362,0-0.704,0.07-1.03,0.166c-0.439,1.248-1.263,2.159-2.775,2.159c-1.188,0-2.332-0.606-2.935-1.456
					c-0.081-0.005,0.042,0.055,0,0c-0.605-0.822-3.684-1.405-4.853-1.405c-1.871,0-3.385,1.386-3.385,3.094v5.228
					c0,1.711,1.514,3.097,3.385,3.097v0.903c-1.871,0-3.385,1.386-3.385,3.095v5.216c0,1.708,1.514,3.094,3.385,3.094v0.842
					c-1.871,0-3.385,1.383-3.385,3.095v5.273h6.32l1.375-1.258l-0.755-2.886c0,0,2.062-0.628,2.68-0.378
					c0.618,0.253,4.054,1.13,4.743,3.83c0.688,2.7,0.962,2.827-0.343,4.081c-0.959,0.919-2.021,0.753-3.987,0.753v1.444
					c0,0.378,0,1.134,1.785,1.134c1.79,0,11.338,0.03,11.338,0.03"/>
			</g>
			<g id="g14192" transform="translate(502.94 223.65)">
				<path id="path14194" fill="#FFFFFF" d="M-465.47,74.815c0,0.473-0.42,0.856-0.938,0.856c-0.522,0-0.94-0.383-0.94-0.856
					c0-0.477,0.418-0.861,0.94-0.861c0.52,0,0.94,0.384,0.94,0.861"/>
			</g>
			<g id="g14196" transform="translate(502.94 223.65)">
				<path id="path14198" fill="none" stroke="#918F90" stroke-width="0.5" d="M-465.47,74.815c0,0.473-0.42,0.856-0.938,0.856
					c-0.522,0-0.94-0.383-0.94-0.856c0-0.477,0.418-0.861,0.94-0.861c0.52,0,0.94,0.384,0.94,0.861H-465.47z"/>
			</g>
			<g id="g14200" transform="translate(504.49 217.82)">
				<path id="path14202" fill="#FFFFFF" d="M-465.47,74.816c0,0.475-0.421,0.858-0.938,0.858c-0.523,0-0.941-0.383-0.941-0.858
					s0.418-0.858,0.941-0.858c0.52-0.003,0.94,0.383,0.94,0.858"/>
			</g>
			<g id="g14204" transform="translate(504.49 217.82)">
				<path id="path14206" fill="none" stroke="#918F90" stroke-width="0.5" d="M-465.47,74.816c0,0.475-0.421,0.858-0.938,0.858
					c-0.523,0-0.941-0.383-0.941-0.858s0.418-0.858,0.941-0.858c0.52-0.003,0.94,0.383,0.94,0.858H-465.47z"/>
			</g>
			<g id="g14208" transform="translate(502.91 237.73)">
				<path id="path14210" fill="#FFFFFF" d="M-465.47,74.815c0,0.473-0.419,0.858-0.938,0.858c-0.519,0-0.94-0.384-0.94-0.858
					c0-0.473,0.421-0.856,0.94-0.856c0.52,0,0.94,0.383,0.94,0.856"/>
			</g>
			<g id="g14212" transform="translate(502.91 237.73)">
				<path id="path14214" fill="none" stroke="#918F90" stroke-width="0.5" d="M-465.47,74.815c0,0.473-0.419,0.858-0.938,0.858
					c-0.519,0-0.94-0.384-0.94-0.858c0-0.473,0.421-0.856,0.94-0.856c0.52,0,0.94,0.383,0.94,0.856H-465.47z"/>
			</g>
			<g id="g14216" transform="translate(498.74 233.27)">
				<path id="path14218" fill="#FFFFFF" d="M-465.47,74.816c0,0.267-0.236,0.48-0.529,0.48c-0.288,0-0.527-0.213-0.527-0.48
					c0-0.27,0.239-0.486,0.527-0.486c0.29,0,0.53,0.217,0.53,0.486"/>
			</g>
			<g id="g14220" transform="translate(498.74 233.27)">
				<path id="path14222" fill="none" stroke="#918F90" stroke-width="0.5" d="M-465.47,74.816c0,0.267-0.236,0.48-0.529,0.48
					c-0.288,0-0.527-0.213-0.527-0.48c0-0.27,0.239-0.486,0.527-0.486c0.29,0,0.53,0.217,0.53,0.486H-465.47z"/>
			</g>
			<g id="g14224" transform="translate(498.88 228.11)">
				<path id="path14226" fill="#FFFFFF" d="M-465.47,74.815c0,0.264-0.236,0.483-0.527,0.483c-0.293,0-0.528-0.219-0.528-0.483
					c0-0.267,0.235-0.481,0.528-0.481c0.29,0,0.53,0.217,0.53,0.481"/>
			</g>
			<g id="g14228" transform="translate(498.88 228.11)">
				<path id="path14230" fill="none" stroke="#918F90" stroke-width="0.5" d="M-465.47,74.815c0,0.264-0.236,0.483-0.527,0.483
					c-0.293,0-0.528-0.219-0.528-0.483c0-0.267,0.235-0.481,0.528-0.481c0.29,0,0.53,0.217,0.53,0.481H-465.47z"/>
			</g>
			<g id="g14232" transform="translate(505.27 242.71)">
				<path id="path14234" fill="#FFFFFF" d="M-465.47,74.815c0,0.475-0.421,0.858-0.938,0.858c-0.521,0-0.943-0.383-0.943-0.858
					c0-0.472,0.422-0.859,0.944-0.859c0.52,0,0.94,0.388,0.94,0.859"/>
			</g>
			<g id="g14236" transform="translate(505.27 242.71)">
				<path id="path14238" fill="none" stroke="#918F90" stroke-width="0.5" d="M-465.47,74.815c0,0.475-0.421,0.858-0.938,0.858
					c-0.521,0-0.943-0.383-0.943-0.858c0-0.472,0.422-0.859,0.944-0.859c0.52,0,0.94,0.388,0.94,0.859H-465.47z"/>
			</g>
			<g id="g14240" transform="translate(509.11 246.54)">
				<path id="path14242" fill="#FFFFFF" d="M-465.47,74.814c0,0.473-0.42,0.856-0.934,0.856c-0.523,0-0.943-0.383-0.943-0.856
					c0-0.477,0.42-0.858,0.943-0.858c0.51,0,0.93,0.383,0.93,0.858"/>
			</g>
			<g id="g14244" transform="translate(509.11 246.54)">
				<path id="path14246" fill="none" stroke="#918F90" stroke-width="0.5" d="M-465.47,74.814c0,0.473-0.42,0.856-0.934,0.856
					c-0.523,0-0.943-0.383-0.943-0.856c0-0.477,0.42-0.858,0.943-0.858c0.51,0,0.93,0.383,0.93,0.858H-465.47z M-477.27,513.265
					l1.241-1.133v-4.137h4.288c2.006-6.939,8.904-12.063,17.13-12.063c8.223,0,15.123,5.124,17.128,12.063h4.334v3.641l1.441,1.319"
					/>
			</g>
			<path id="path14248" fill="#FFFFFF" stroke="#918F90" stroke-width="0.5" stroke-linecap="round" stroke-linejoin="round" d="
				M33.084,754.538h2.461v-0.992h-2.461v0.99V754.538z"/>
			<path id="path14250" fill="#FFFFFF" stroke="#918F90" stroke-width="0.5" stroke-linecap="round" stroke-linejoin="round" d="
				M33.084,753.538h2.461v-0.992h-2.461v0.99V753.538z"/>
			<path id="path14252" fill="#FFFFFF" stroke="#918F90" stroke-width="0.5" stroke-linecap="round" stroke-linejoin="round" d="
				M33.084,752.548h2.461v-0.992h-2.461v0.99V752.548z"/>
			<path id="path14254" fill="#FFFFFF" stroke="#918F90" stroke-width="0.5" stroke-linecap="round" stroke-linejoin="round" d="
				M33.084,751.558h2.461v-0.992h-2.461v0.99V751.558z"/>
			<path id="path14256" fill="#FFFFFF" stroke="#918F90" stroke-width="0.5" stroke-linecap="round" stroke-linejoin="round" d="
				M33.084,750.568h2.461v-0.994h-2.461v0.99V750.568z"/>
			<path id="path14258" fill="#FFFFFF" stroke="#918F90" stroke-width="0.5" stroke-linecap="round" stroke-linejoin="round" d="
				M73.502,754.538h2.462v-0.992h-2.462v0.99V754.538z"/>
			<path id="path14260" fill="#FFFFFF" stroke="#918F90" stroke-width="0.5" stroke-linecap="round" stroke-linejoin="round" d="
				M73.502,753.538h2.462v-0.992h-2.462v0.99V753.538z"/>
			<path id="path14262" fill="#FFFFFF" stroke="#918F90" stroke-width="0.5" stroke-linecap="round" stroke-linejoin="round" d="
				M73.502,752.548h2.462v-0.992h-2.462v0.99V752.548z"/>
			<path id="path14264" fill="#FFFFFF" stroke="#918F90" stroke-width="0.5" stroke-linecap="round" stroke-linejoin="round" d="
				M73.502,751.558h2.462v-0.992h-2.462v0.99V751.558z"/>
			<path id="path14266" fill="#FFFFFF" stroke="#918F90" stroke-width="0.5" stroke-linecap="round" stroke-linejoin="round" d="
				M73.502,750.568h2.462v-0.994h-2.462v0.99V750.568z"/>
			<g id="g14268" transform="translate(485.59 78.897)">
				<path id="path14270" fill="none" stroke="#918F90" d="M-465.47,74.817c8.42-10.984,14.262-12.825,34.418-12.825
					c19.059,0,26.605,2.077,34.816,12.222"/>
			</g>
			<g id="g14272" transform="translate(548.87 584.7)">
				<path id="path14274" fill="none" stroke="#918F90" stroke-width="0.5" d="M-465.47,74.815v3.097h-56.923v-2.636h-6.156
					 M-465.468,74.775h5.498l-5.498,0.04V74.775z M-528.569,38.818h5.798l7.028-5.686h11.722V6.712h-24.54 M-459.751,7.155h-24.97
					v25.791h13.12v3.909h5.559v1.952h6.311 M-512.573-28.179c0,0,0.423-4.475,1.459-5.42c4.784-4.37,3.486-14.763,3.486-17.499
					 M-473.607-299.168c-2.152,0-2.402,3.591,1.1,3.591h4.948v4.403c-0.32-0.528-0.659-1.048-1.02-1.556
					c-0.758-1.058-1.679-1.594-3.375-0.581c-1.013,0.611-1.298,1.856-0.63,2.783c0.35,0.486,0.672,0.986,0.986,1.494
					c-0.288,0.106-0.495,0.364-0.495,0.667c0,0.4,0.352,0.722,0.791,0.722c0.16,0,0.302-0.055,0.427-0.13
					c0.153,0.289,0.305,0.58,0.445,0.875c-0.287,0.108-0.495,0.364-0.495,0.67c0,0.397,0.354,0.719,0.79,0.719
					c0.095,0,0.188-0.019,0.271-0.047c0.104,0.277,0.206,0.556,0.295,0.837c-0.341,0.078-0.602,0.347-0.602,0.688
					c0,0.398,0.354,0.723,0.791,0.723c0.063,0,0.12-0.02,0.18-0.034c0.07,0.347,0.125,0.697,0.164,1.05
					c-0.4,0.033-0.723,0.33-0.723,0.709c0,0.4,0.357,0.722,0.789,0.722c0.016,0,0.025-0.006,0.039-0.006v0.064
					c0,0.294-0.021,0.589-0.039,0.883c-0.432,0-0.789,0.325-0.789,0.722c0,0.352,0.278,0.628,0.637,0.695
					c-0.055,0.348-0.123,0.697-0.209,1.042c-0.013-0.002-0.034-0.011-0.052-0.011c-0.438,0-0.791,0.323-0.791,0.723
					c0,0.291,0.195,0.541,0.466,0.652c-0.091,0.289-0.188,0.567-0.295,0.848c-0.048-0.009-0.087-0.023-0.135-0.023
					c-0.436,0-0.79,0.32-0.79,0.719c0,0.255,0.148,0.466,0.365,0.597c-0.14,0.292-0.28,0.589-0.434,0.875
					c-0.098-0.036-0.2-0.059-0.309-0.059c-0.438,0-0.791,0.325-0.791,0.725c0,0.244,0.141,0.45,0.345,0.581
					c-0.239,0.364-0.489,0.722-0.755,1.075c-0.688,0.916-0.433,2.167,0.57,2.795c1.934,1.213,2.939,0.077,3.387-0.52
					c0.355-0.472,0.68-0.952,0.985-1.441v6.673h-4.122c-2.748,2.136-11.652,4.616-11.652,4.616l-0.027,15.695h10.588v-5.789h13.023"
					/>
			</g>
		</g>
	</g>
	<g id="pyramid-lounge">
		<text transform="matrix(0.8 0 0 -0.8 43.4422 639.7168)" fill="#231F20" font-family="'ArialNarrow-Bold'" font-size="6.6427">P</text>
		<text transform="matrix(0.8 0 0 -0.8 46.3961 639.7168)" fill="#231F20" font-family="'ArialNarrow-Bold'" font-size="6.6427">Y</text>
		<text transform="matrix(0.8 0 0 -0.8 49.3512 639.7168)" fill="#231F20" font-family="'ArialNarrow-Bold'" font-size="6.6427">R</text>
		<text transform="matrix(0.8 0 0 -0.8 52.3059 639.7168)" fill="#231F20" font-family="'ArialNarrow-Bold'" font-size="6.6427">A</text>
		<text transform="matrix(0.8 0 0 -0.8 55.5531 639.7168)" fill="#231F20" font-family="'ArialNarrow-Bold'" font-size="6.6427">M</text>
		<text transform="matrix(0.8 0 0 -0.8 59.9789 639.7168)" fill="#231F20" font-family="'ArialNarrow-Bold'" font-size="6.6427">I</text>
		<text transform="matrix(0.8 0 0 -0.8 61.4563 639.7168)" fill="#231F20" font-family="'ArialNarrow-Bold'" font-size="6.6427">D</text>
		<text transform="matrix(0.8 0 0 -0.8 44.9191 634.2965)" fill="#231F20" font-family="'ArialNarrow-Bold'" font-size="6.6427">L</text>
		<text transform="matrix(0.8 0 0 -0.8 47.2781 634.2965)" fill="#231F20" font-family="'ArialNarrow-Bold'" font-size="6.6427">O</text>
		<text transform="matrix(0.8 0 0 -0.8 50.525 634.2965)" fill="#231F20" font-family="'ArialNarrow-Bold'" font-size="6.6427">U</text>
		<text transform="matrix(0.8 0 0 -0.8 53.7719 634.2965)" fill="#231F20" font-family="'ArialNarrow-Bold'" font-size="6.6427">N</text>
		<text transform="matrix(0.8 0 0 -0.8 57.3172 634.2965)" fill="#231F20" font-family="'ArialNarrow-Bold'" font-size="6.6427">G</text>
		<text transform="matrix(0.8 0 0 -0.8 60.5641 634.2965)" fill="#231F20" font-family="'ArialNarrow-Bold'" font-size="6.6427">E</text>
	</g>
	<g id="cafe-promenade">
		<text transform="matrix(0.8 0 0 -0.8 32.3078 367.8879)" fill="#231F20" font-family="'ArialNarrow-Bold'" font-size="6.6427">C</text>
		<text transform="matrix(0.8 0 0 -0.8 35.2629 367.8879)" fill="#231F20" font-family="'ArialNarrow-Bold'" font-size="6.6427">A</text>
		<text transform="matrix(0.8 0 0 -0.8 38.5102 367.8879)" fill="#231F20" font-family="'ArialNarrow-Bold'" font-size="6.6427">F</text>
		<text transform="matrix(0.8 0 0 -0.8 40.8699 367.8879)" fill="#231F20" font-family="'ArialNarrow-Bold'" font-size="6.6427"></text>
		<text transform="matrix(0.8 0 0 -0.8 23.4488 362.4566)" fill="#231F20" font-family="'ArialNarrow-Bold'" font-size="6.6427">P</text>
		<text transform="matrix(0.8 0 0 -0.8 26.4039 362.4566)" fill="#231F20" font-family="'ArialNarrow-Bold'" font-size="6.6427">R</text>
		<text transform="matrix(0.8 0 0 -0.8 29.359 362.4566)" fill="#231F20" font-family="'ArialNarrow-Bold'" font-size="6.6427">O</text>
		<text transform="matrix(0.8 0 0 -0.8 32.6059 362.4566)" fill="#231F20" font-family="'ArialNarrow-Bold'" font-size="6.6427">M</text>
		<text transform="matrix(0.8 0 0 -0.8 37.0328 362.4566)" fill="#231F20" font-family="'ArialNarrow-Bold'" font-size="6.6427">E</text>
		<text transform="matrix(0.8 0 0 -0.8 39.6898 362.4566)" fill="#231F20" font-family="'ArialNarrow-Bold'" font-size="6.6427">N</text>
		<text transform="matrix(0.8 0 0 -0.8 43.2352 362.4566)" fill="#231F20" font-family="'ArialNarrow-Bold'" font-size="6.6427">A</text>
		<text transform="matrix(0.8 0 0 -0.8 46.482 362.4566)" fill="#231F20" font-family="'ArialNarrow-Bold'" font-size="6.6427">D</text>
		<text transform="matrix(0.8 0 0 -0.8 49.7281 362.4566)" fill="#231F20" font-family="'ArialNarrow-Bold'" font-size="6.6427">E</text>
	</g>
	<g id="king-lear-dining-room">
		<text transform="matrix(0.8 0 0 -0.8 42.6711 194.198)" fill="#231F20" font-family="'ArialNarrow-Bold'" font-size="6.7782">K</text>
		<text transform="matrix(0.8 0 0 -0.8 45.6859 194.198)" fill="#231F20" font-family="'ArialNarrow-Bold'" font-size="6.7782">I</text>
		<text transform="matrix(0.8 0 0 -0.8 47.193 194.198)" fill="#231F20" font-family="'ArialNarrow-Bold'" font-size="6.7782">N</text>
		<text transform="matrix(0.8 0 0 -0.8 50.8102 194.198)" fill="#231F20" font-family="'ArialNarrow-Bold'" font-size="6.7782">G</text>
		<text transform="matrix(0.8 0 0 -0.8 54.1234 194.198)" fill="#231F20" font-family="'ArialNarrow-Bold'" font-size="6.7782"> </text>
		<text transform="matrix(0.8 0 0 -0.8 55.3281 194.198)" fill="#231F20" font-family="'ArialNarrow-Bold'" font-size="6.7782">L</text>
		<text transform="matrix(0.8 0 0 -0.8 57.7352 194.198)" fill="#231F20" font-family="'ArialNarrow-Bold'" font-size="6.7782">E</text>
		<text transform="matrix(0.8 0 0 -0.8 60.4461 194.198)" fill="#231F20" font-family="'ArialNarrow-Bold'" font-size="6.7782">A</text>
		<text transform="matrix(0.8 0 0 -0.8 63.7602 194.198)" fill="#231F20" font-family="'ArialNarrow-Bold'" font-size="6.7782">R</text>
		<text transform="matrix(0.8 0 0 -0.8 38.6039 188.7777)" fill="#231F20" font-family="'ArialNarrow-Bold'" font-size="6.7782">D</text>
		<text transform="matrix(0.8 0 0 -0.8 41.9172 188.7777)" fill="#231F20" font-family="'ArialNarrow-Bold'" font-size="6.7782">I</text>
		<text transform="matrix(0.8 0 0 -0.8 43.4238 188.7777)" fill="#231F20" font-family="'ArialNarrow-Bold'" font-size="6.7782">N</text>
		<text transform="matrix(0.8 0 0 -0.8 47.0422 188.7777)" fill="#231F20" font-family="'ArialNarrow-Bold'" font-size="6.7782">I</text>
		<text transform="matrix(0.8 0 0 -0.8 48.5488 188.7777)" fill="#231F20" font-family="'ArialNarrow-Bold'" font-size="6.7782">N</text>
		<text transform="matrix(0.8 0 0 -0.8 52.166 188.7777)" fill="#231F20" font-family="'ArialNarrow-Bold'" font-size="6.7782">G</text>
		<text transform="matrix(0.8 0 0 -0.8 55.4789 188.7777)" fill="#231F20" font-family="'ArialNarrow-Bold'" font-size="6.7782"> </text>
		<text transform="matrix(0.8 0 0 -0.8 56.6828 188.7777)" fill="#231F20" font-family="'ArialNarrow-Bold'" font-size="6.7782">R</text>
		<text transform="matrix(0.8 0 0 -0.8 59.6984 188.7777)" fill="#231F20" font-family="'ArialNarrow-Bold'" font-size="6.7782">O</text>
		<text transform="matrix(0.8 0 0 -0.8 63.0109 188.7777)" fill="#231F20" font-family="'ArialNarrow-Bold'" font-size="6.7782">O</text>
		<text transform="matrix(0.8 0 0 -0.8 66.3234 188.7777)" fill="#231F20" font-family="'ArialNarrow-Bold'" font-size="6.7782">M</text>
	</g>
	<g id="next-cruise">
		<text transform="matrix(0.8 0 0 -0.8 26.9731 339.7668)" fill="#231F20" font-family="'ArialNarrow-Bold'" font-size="6.6427">N</text>
		<text transform="matrix(0.8 0 0 -0.8 30.518 339.7668)" fill="#231F20" font-family="'ArialNarrow-Bold'" font-size="6.6427">E</text>
		<text transform="matrix(0.8 0 0 -0.8 33.175 339.7668)" fill="#231F20" font-family="'ArialNarrow-Bold'" font-size="6.6427">X</text>
		<text transform="matrix(0.8 0 0 -0.8 36.1301 339.7668)" fill="#231F20" font-family="'ArialNarrow-Bold'" font-size="6.6427">T</text>
		<text transform="matrix(0.8 0 0 -0.8 24.757 334.3371)" fill="#231F20" font-family="'ArialNarrow-Bold'" font-size="6.6427">C</text>
		<text transform="matrix(0.8 0 0 -0.8 27.7121 334.3371)" fill="#231F20" font-family="'ArialNarrow-Bold'" font-size="6.6427">R</text>
		<text transform="matrix(0.8 0 0 -0.8 30.6672 334.3371)" fill="#231F20" font-family="'ArialNarrow-Bold'" font-size="6.6427">U</text>
		<text transform="matrix(0.8 0 0 -0.8 33.9141 334.3371)" fill="#231F20" font-family="'ArialNarrow-Bold'" font-size="6.6427">I</text>
		<text transform="matrix(0.8 0 0 -0.8 35.391 334.3371)" fill="#231F20" font-family="'ArialNarrow-Bold'" font-size="6.6427">S</text>
		<text transform="matrix(0.8 0 0 -0.8 38.3461 334.3371)" fill="#231F20" font-family="'ArialNarrow-Bold'" font-size="6.6427">E</text>
	</g>
	<g id="dog-and-badger-pub">
		<text transform="matrix(0.8 0 0 -0.8 23.009 486.1371)" fill="#231F20" font-family="'ArialNarrow-Bold'" font-size="6.6427">D</text>
		<text transform="matrix(0.8 0 0 -0.8 26.2559 486.1371)" fill="#231F20" font-family="'ArialNarrow-Bold'" font-size="6.6427">O</text>
		<text transform="matrix(0.8 0 0 -0.8 29.502 486.1371)" fill="#231F20" font-family="'ArialNarrow-Bold'" font-size="6.6427">G</text>
		<text transform="matrix(0.8 0 0 -0.8 32.7488 486.1371)" fill="#231F20" font-family="'ArialNarrow-Bold'" font-size="6.6427"> </text>
		<text transform="matrix(0.8 0 0 -0.8 33.9289 486.1371)" fill="#231F20" font-family="'ArialNarrow-Bold'" font-size="6.6427">&amp;</text>
		<text transform="matrix(0.8 0 0 -0.8 37.4738 486.1371)" fill="#231F20" font-family="'ArialNarrow-Bold'" font-size="6.6427"> </text>
		<text transform="matrix(0.8 0 0 -0.8 38.6539 486.1371)" fill="#231F20" font-family="'ArialNarrow-Bold'" font-size="6.6427">B</text>
		<text transform="matrix(0.8 0 0 -0.8 41.9012 486.1371)" fill="#231F20" font-family="'ArialNarrow-Bold'" font-size="6.6427">A</text>
		<text transform="matrix(0.8 0 0 -0.8 45.1481 486.1371)" fill="#231F20" font-family="'ArialNarrow-Bold'" font-size="6.6427">D</text>
		<text transform="matrix(0.8 0 0 -0.8 48.3949 486.1371)" fill="#231F20" font-family="'ArialNarrow-Bold'" font-size="6.6427">G</text>
		<text transform="matrix(0.8 0 0 -0.8 51.6422 486.1371)" fill="#231F20" font-family="'ArialNarrow-Bold'" font-size="6.6427">E</text>
		<text transform="matrix(0.8 0 0 -0.8 54.293 486.1371)" fill="#231F20" font-family="'ArialNarrow-Bold'" font-size="6.6427">R</text>
		<text transform="matrix(0.8 0 0 -0.8 35.407 480.7168)" fill="#231F20" font-family="'ArialNarrow-Bold'" font-size="6.6427">P</text>
		<text transform="matrix(0.8 0 0 -0.8 38.3621 480.7168)" fill="#231F20" font-family="'ArialNarrow-Bold'" font-size="6.6427">U</text>
		<text transform="matrix(0.8 0 0 -0.8 41.609 480.7168)" fill="#231F20" font-family="'ArialNarrow-Bold'" font-size="6.6427">B</text>
	</g>
	<g id="sorrentos">
		<text transform="matrix(0.8 0 0 -0.8 58.6039 532.1371)" fill="#231F20" font-family="'ArialNarrow-Bold'" font-size="6.7782">S</text>
		<text transform="matrix(0.8 0 0 -0.8 61.6188 532.1371)" fill="#231F20" font-family="'ArialNarrow-Bold'" font-size="6.7782">O</text>
		<text transform="matrix(0.8 0 0 -0.8 64.932 532.1371)" fill="#231F20" font-family="'ArialNarrow-Bold'" font-size="6.7782">R</text>
		<text transform="matrix(0.8 0 0 -0.8 67.9469 532.1371)" fill="#231F20" font-family="'ArialNarrow-Bold'" font-size="6.7782">R</text>
		<text transform="matrix(0.8 0 0 -0.8 70.9625 532.1371)" fill="#231F20" font-family="'ArialNarrow-Bold'" font-size="6.7782">E</text>
		<text transform="matrix(0.8 0 0 -0.8 73.6734 532.1371)" fill="#231F20" font-family="'ArialNarrow-Bold'" font-size="6.7782">N</text>
		<text transform="matrix(0.8 0 0 -0.8 77.2898 532.1371)" fill="#231F20" font-family="'ArialNarrow-Bold'" font-size="6.7782">T</text>
		<text transform="matrix(0.8 0 0 -0.8 80.0016 532.1371)" fill="#231F20" font-family="'ArialNarrow-Bold'" font-size="6.7782">O</text>
		<text transform="matrix(0.8 0 0 -0.8 83.3148 532.1371)" fill="#231F20" font-family="'ArialNarrow-Bold'" font-size="6.7782">&apos;</text>
		<text transform="matrix(0.8 0 0 -0.8 84.6703 532.1371)" fill="#231F20" font-family="'ArialNarrow-Bold'" font-size="6.7782">S</text>
	</g>
	<g id="royal-promenade">
		<text transform="matrix(0 0.8 0.8 0 55.682 389.4371)" fill="#231F20" font-family="'ArialNarrow-Bold'" font-size="7.3336">R</text>
		<text transform="matrix(0 0.8 0.8 0 55.682 392.698)" fill="#231F20" font-family="'ArialNarrow-Bold'" font-size="7.3336">O</text>
		<text transform="matrix(0 0.8 0.8 0 55.682 396.2871)" fill="#231F20" font-family="'ArialNarrow-Bold'" font-size="7.3336">Y</text>
		<text transform="matrix(0 0.8 0.8 0 55.682 399.548)" fill="#231F20" font-family="'ArialNarrow-Bold'" font-size="7.3336">A</text>
		<text transform="matrix(0 0.8 0.8 0 55.682 403.1371)" fill="#231F20" font-family="'ArialNarrow-Bold'" font-size="7.3336">L</text>
		<text transform="matrix(0 0.8 0.8 0 55.682 405.7371)" fill="#231F20" font-family="'ArialNarrow-Bold'" font-size="7.3336"> </text>
		<text transform="matrix(0 0.8 0.8 0 55.682 407.048)" fill="#231F20" font-family="'ArialNarrow-Bold'" font-size="7.3336">P</text>
		<text transform="matrix(0 0.8 0.8 0 55.682 410.3074)" fill="#231F20" font-family="'ArialNarrow-Bold'" font-size="7.3336">R</text>
		<text transform="matrix(0 0.8 0.8 0 55.682 413.5668)" fill="#231F20" font-family="'ArialNarrow-Bold'" font-size="7.3336">O</text>
		<text transform="matrix(0 0.8 0.8 0 55.682 417.148)" fill="#231F20" font-family="'ArialNarrow-Bold'" font-size="7.3336">M</text>
		<text transform="matrix(0 0.8 0.8 0 55.682 422.0371)" fill="#231F20" font-family="'ArialNarrow-Bold'" font-size="7.3336">E</text>
		<text transform="matrix(0 0.8 0.8 0 55.682 424.9668)" fill="#231F20" font-family="'ArialNarrow-Bold'" font-size="7.3336">N</text>
		<text transform="matrix(0 0.8 0.8 0 55.682 428.8871)" fill="#231F20" font-family="'ArialNarrow-Bold'" font-size="7.3336">A</text>
		<text transform="matrix(0 0.8 0.8 0 55.682 432.4668)" fill="#231F20" font-family="'ArialNarrow-Bold'" font-size="7.3336">D</text>
		<text transform="matrix(0 0.8 0.8 0 55.682 436.0574)" fill="#231F20" font-family="'ArialNarrow-Bold'" font-size="7.3336">E</text>
	</g>
	<g id="vintages">
		<text transform="matrix(0.8 0 0 -0.8 55.4594 443.3465)" fill="#231F20" font-family="'ArialNarrow-Bold'" font-size="6.6427">V</text>
		<text transform="matrix(0.8 0 0 -0.8 58.4141 443.3465)" fill="#231F20" font-family="'ArialNarrow-Bold'" font-size="6.6427">I</text>
		<text transform="matrix(0.8 0 0 -0.8 59.8906 443.3465)" fill="#231F20" font-family="'ArialNarrow-Bold'" font-size="6.6427">N</text>
		<text transform="matrix(0.8 0 0 -0.8 63.4352 443.3465)" fill="#231F20" font-family="'ArialNarrow-Bold'" font-size="6.6427">T</text>
		<text transform="matrix(0.8 0 0 -0.8 66.0922 443.3465)" fill="#231F20" font-family="'ArialNarrow-Bold'" font-size="6.6427">A</text>
		<text transform="matrix(0.8 0 0 -0.8 69.3391 443.3465)" fill="#231F20" font-family="'ArialNarrow-Bold'" font-size="6.6427">G</text>
		<text transform="matrix(0.8 0 0 -0.8 72.5859 443.3465)" fill="#231F20" font-family="'ArialNarrow-Bold'" font-size="6.6427">E</text>
		<text transform="matrix(0.8 0 0 -0.8 75.243 443.3465)" fill="#231F20" font-family="'ArialNarrow-Bold'" font-size="6.6427">S</text>
	</g>
	<g id="seasons">
		<text transform="matrix(0.8 0 0 -0.8 64.2906 347.9566)" fill="#231F20" font-family="'ArialNarrow-Bold'" font-size="6.6427">S</text>
		<text transform="matrix(0.8 0 0 -0.8 67.2461 347.9566)" fill="#231F20" font-family="'ArialNarrow-Bold'" font-size="6.6427">E</text>
		<text transform="matrix(0.8 0 0 -0.8 69.9031 347.9566)" fill="#231F20" font-family="'ArialNarrow-Bold'" font-size="6.6427">A</text>
		<text transform="matrix(0.8 0 0 -0.8 73.1484 347.9566)" fill="#231F20" font-family="'ArialNarrow-Bold'" font-size="6.6427">S</text>
		<text transform="matrix(0.8 0 0 -0.8 76.1039 347.9566)" fill="#231F20" font-family="'ArialNarrow-Bold'" font-size="6.6427">O</text>
		<text transform="matrix(0.8 0 0 -0.8 79.3516 347.9566)" fill="#231F20" font-family="'ArialNarrow-Bold'" font-size="6.6427">N</text>
		<text transform="matrix(0.8 0 0 -0.8 82.8961 347.9566)" fill="#231F20" font-family="'ArialNarrow-Bold'" font-size="6.6427">S</text>
	</g>
	<g id="ice-cream-parlor">
		<text transform="matrix(0.8 0 0 -0.8 56.1656 384.8269)" fill="#231F20" font-family="'ArialNarrow-Bold'" font-size="6.6427">I</text>
		<text transform="matrix(0.8 0 0 -0.8 57.643 384.8269)" fill="#231F20" font-family="'ArialNarrow-Bold'" font-size="6.6427">C</text>
		<text transform="matrix(0.8 0 0 -0.8 60.5984 384.8269)" fill="#231F20" font-family="'ArialNarrow-Bold'" font-size="6.6427">E</text>
		<text transform="matrix(0.8 0 0 -0.8 63.2547 384.8269)" fill="#231F20" font-family="'ArialNarrow-Bold'" font-size="6.6427"> </text>
		<text transform="matrix(0.8 0 0 -0.8 64.4352 384.8269)" fill="#231F20" font-family="'ArialNarrow-Bold'" font-size="6.6427">C</text>
		<text transform="matrix(0.8 0 0 -0.8 67.3891 384.8269)" fill="#231F20" font-family="'ArialNarrow-Bold'" font-size="6.6427">R</text>
		<text transform="matrix(0.8 0 0 -0.8 70.3438 384.8269)" fill="#231F20" font-family="'ArialNarrow-Bold'" font-size="6.6427">E</text>
		<text transform="matrix(0.8 0 0 -0.8 73.0016 384.8269)" fill="#231F20" font-family="'ArialNarrow-Bold'" font-size="6.6427">A</text>
		<text transform="matrix(0.8 0 0 -0.8 76.2531 384.8269)" fill="#231F20" font-family="'ArialNarrow-Bold'" font-size="6.6427">M</text>
		<text transform="matrix(0.8 0 0 -0.8 59.5609 379.4074)" fill="#231F20" font-family="'ArialNarrow-Bold'" font-size="6.6427">P</text>
		<text transform="matrix(0.8 0 0 -0.8 62.5156 379.4074)" fill="#231F20" font-family="'ArialNarrow-Bold'" font-size="6.6427">A</text>
		<text transform="matrix(0.8 0 0 -0.8 65.7625 379.4074)" fill="#231F20" font-family="'ArialNarrow-Bold'" font-size="6.6427">R</text>
		<text transform="matrix(0.8 0 0 -0.8 68.7172 379.4074)" fill="#231F20" font-family="'ArialNarrow-Bold'" font-size="6.6427">L</text>
		<text transform="matrix(0.8 0 0 -0.8 71.0781 379.4074)" fill="#231F20" font-family="'ArialNarrow-Bold'" font-size="6.6427">O</text>
		<text transform="matrix(0.8 0 0 -0.8 74.3234 379.4074)" fill="#231F20" font-family="'ArialNarrow-Bold'" font-size="6.6427">R</text>
	</g>
	<text transform="matrix(0 0.8 0.8 0 32.6141 270.7777)" fill="#231F20" font-family="'ArialNarrow-Bold'" font-size="6.6427">E</text>
	<text transform="matrix(0 0.8 0.8 0 32.6141 273.4371)" fill="#231F20" font-family="'ArialNarrow-Bold'" font-size="6.6427">L</text>
	<text transform="matrix(0 0.8 0.8 0 32.6141 275.798)" fill="#231F20" font-family="'ArialNarrow-Bold'" font-size="6.6427">E</text>
	<text transform="matrix(0 0.8 0.8 0 32.6141 278.448)" fill="#231F20" font-family="'ArialNarrow-Bold'" font-size="6.6427">V</text>
	<text transform="matrix(0 0.8 0.8 0 32.6141 281.0074)" fill="#231F20" font-family="'ArialNarrow-Bold'" font-size="6.6427">.</text>
	<text transform="matrix(0 0.8 0.8 0 79.9742 270.7777)" fill="#231F20" font-family="'ArialNarrow-Bold'" font-size="6.6427">E</text>
	<text transform="matrix(0 0.8 0.8 0 79.9742 273.4371)" fill="#231F20" font-family="'ArialNarrow-Bold'" font-size="6.6427">L</text>
	<text transform="matrix(0 0.8 0.8 0 79.9742 275.798)" fill="#231F20" font-family="'ArialNarrow-Bold'" font-size="6.6427">E</text>
	<text transform="matrix(0 0.8 0.8 0 79.9742 278.448)" fill="#231F20" font-family="'ArialNarrow-Bold'" font-size="6.6427">V</text>
	<text transform="matrix(0 0.8 0.8 0 79.9742 281.0074)" fill="#231F20" font-family="'ArialNarrow-Bold'" font-size="6.6427">.</text>
	<g id="champagne-bar">
		<text transform="matrix(0 0.8 0.8 0 29.882 289.7074)" fill="#231F20" font-family="'ArialNarrow-Bold'" font-size="6.6427">C</text>
		<text transform="matrix(0 0.8 0.8 0 29.882 292.6683)" fill="#231F20" font-family="'ArialNarrow-Bold'" font-size="6.6427">H</text>
		<text transform="matrix(0 0.8 0.8 0 29.882 295.9074)" fill="#231F20" font-family="'ArialNarrow-Bold'" font-size="6.6427">A</text>
		<text transform="matrix(0 0.8 0.8 0 29.882 299.1574)" fill="#231F20" font-family="'ArialNarrow-Bold'" font-size="6.6427">M</text>
		<text transform="matrix(0 0.8 0.8 0 29.882 303.5871)" fill="#231F20" font-family="'ArialNarrow-Bold'" font-size="6.6427">P</text>
		<text transform="matrix(0 0.8 0.8 0 29.882 306.548)" fill="#231F20" font-family="'ArialNarrow-Bold'" font-size="6.6427">A</text>
		<text transform="matrix(0 0.8 0.8 0 29.882 309.7871)" fill="#231F20" font-family="'ArialNarrow-Bold'" font-size="6.6427">G</text>
		<text transform="matrix(0 0.8 0.8 0 29.882 313.0371)" fill="#231F20" font-family="'ArialNarrow-Bold'" font-size="6.6427">N</text>
		<text transform="matrix(0 0.8 0.8 0 29.882 316.5777)" fill="#231F20" font-family="'ArialNarrow-Bold'" font-size="6.6427">E</text>
		<text transform="matrix(0 0.8 0.8 0 35.307 299.748)" fill="#231F20" font-family="'ArialNarrow-Bold'" font-size="6.6427">B</text>
		<text transform="matrix(0 0.8 0.8 0 35.307 302.998)" fill="#231F20" font-family="'ArialNarrow-Bold'" font-size="6.6427">A</text>
		<text transform="matrix(0 0.8 0.8 0 35.307 306.248)" fill="#231F20" font-family="'ArialNarrow-Bold'" font-size="6.6427">R</text>
	</g>
	<g id="g15514">
		<g id="g15516">
			<g id="g15560" transform="translate(493.79 177.36)">
				<path id="path15562" fill="#231F20" d="M-465.47,74.816h-0.306c0.295,0.122,0.502,0.412,0.502,0.753
					c0,0.452-0.365,0.817-0.816,0.817s-0.816-0.367-0.816-0.817c0-0.341,0.208-0.631,0.499-0.753h-0.317
					c-0.417,0-0.753-0.338-0.753-0.753V72.18c0-0.528,0.292-0.747,0.726-0.831v-2.622h1.32v2.625
					c0.428,0.084,0.716,0.303,0.716,0.828v1.883c0,0.416-0.33,0.753-0.75,0.753"/>
			</g>
			<g id="g15564" transform="translate(547.48 172.83)">
				<path id="path15566" fill="#231F20" d="M-465.47,74.815h0.502l-0.502,1.508h-0.566c0.296,0.123,0.502,0.412,0.502,0.752
					c0,0.45-0.365,0.817-0.816,0.817c-0.45,0-0.815-0.367-0.815-0.817c0-0.339,0.205-0.627,0.502-0.752h-0.566l-0.502-1.508h0.502
					l-0.502-2.008h0.703l0.27-2.573h0.816l0.269,2.573h0.705l-0.491,2.008H-465.47z"/>
			</g>
			<g id="g15568" transform="translate(494.07 509.6)">
				<path id="path15570" fill="#231F20" d="M-465.47,74.816h-0.306c0.293,0.122,0.499,0.411,0.499,0.752
					c0,0.451-0.365,0.816-0.815,0.816c-0.452,0-0.816-0.366-0.816-0.816c0-0.341,0.21-0.63,0.502-0.752h-0.32
					c-0.415,0-0.754-0.341-0.754-0.755v-1.884c0-0.527,0.297-0.746,0.729-0.83v-2.623h1.32v2.625
					c0.427,0.086,0.715,0.305,0.715,0.829v1.884c0,0.413-0.33,0.754-0.75,0.754"/>
			</g>
			<g id="g15572" transform="translate(547.7 508.24)">
				<path id="path15574" fill="#231F20" d="M-465.47,74.815h0.503l-0.503,1.508h-0.565c0.296,0.121,0.502,0.411,0.502,0.752
					c0,0.452-0.364,0.817-0.816,0.817c-0.451,0-0.815-0.366-0.815-0.817c0-0.341,0.207-0.631,0.5-0.752h-0.565l-0.502-1.508h0.502
					l-0.502-2.008h0.702l0.271-2.576h0.817l0.27,2.576h0.703l-0.49,2.008H-465.47z"/>
			</g>
		</g>
	</g>
	<text transform="matrix(0 0.731 0.8 0 77.4828 559.0871)" fill="#100F0D" font-family="'ArialNarrow-Bold'" font-size="6.1844">E</text>
	<text transform="matrix(0 0.731 0.8 0 77.4828 561.348)" fill="#100F0D" font-family="'ArialNarrow-Bold'" font-size="6.1844">L</text>
	<text transform="matrix(0 0.731 0.8 0 77.4828 563.348)" fill="#100F0D" font-family="'ArialNarrow-Bold'" font-size="6.1844">E</text>
	<text transform="matrix(0 0.731 0.8 0 77.4828 565.6074)" fill="#100F0D" font-family="'ArialNarrow-Bold'" font-size="6.1844">V</text>
	<text transform="matrix(0 0.731 0.8 0 77.4828 567.7871)" fill="#100F0D" font-family="'ArialNarrow-Bold'" font-size="6.1844">.</text>
	<text transform="matrix(0 0.731 0.8 0 35.2211 559.148)" fill="#100F0D" font-family="'ArialNarrow-Bold'" font-size="6.1844">E</text>
	<text transform="matrix(0 0.731 0.8 0 35.2211 561.4074)" fill="#100F0D" font-family="'ArialNarrow-Bold'" font-size="6.1844">L</text>
	<text transform="matrix(0 0.731 0.8 0 35.2211 563.4167)" fill="#100F0D" font-family="'ArialNarrow-Bold'" font-size="6.1844">E</text>
	<text transform="matrix(0 0.731 0.8 0 35.2211 565.6777)" fill="#100F0D" font-family="'ArialNarrow-Bold'" font-size="6.1844">V</text>
	<text transform="matrix(0 0.731 0.8 0 35.2211 567.8574)" fill="#100F0D" font-family="'ArialNarrow-Bold'" font-size="6.1844">.</text>
	<g id="connoisseur-club">
		<text transform="matrix(0.8755 0 0 -0.8 59.1711 604.9074)" fill="#100F0D" font-family="'ArialNarrow-Bold'" font-size="5.6508">C</text>
		<text transform="matrix(0.8755 0 0 -0.8 61.7242 604.9074)" fill="#100F0D" font-family="'ArialNarrow-Bold'" font-size="5.6508">O</text>
		<text transform="matrix(0.8755 0 0 -0.8 64.5492 604.9074)" fill="#100F0D" font-family="'ArialNarrow-Bold'" font-size="5.6508">N</text>
		<text transform="matrix(0.8755 0 0 -0.8 67.6508 604.9074)" fill="#100F0D" font-family="'ArialNarrow-Bold'" font-size="5.6508">N</text>
		<text transform="matrix(0.8755 0 0 -0.8 70.7531 604.9074)" fill="#100F0D" font-family="'ArialNarrow-Bold'" font-size="5.6508">O</text>
		<text transform="matrix(0.8755 0 0 -0.8 73.5781 604.9074)" fill="#100F0D" font-family="'ArialNarrow-Bold'" font-size="5.6508">I</text>
		<text transform="matrix(0.8755 0 0 -0.8 74.7563 604.9074)" fill="#100F0D" font-family="'ArialNarrow-Bold'" font-size="5.6508">S</text>
		<text transform="matrix(0.8755 0 0 -0.8 77.3094 604.9074)" fill="#100F0D" font-family="'ArialNarrow-Bold'" font-size="5.6508">S</text>
		<text transform="matrix(0.8755 0 0 -0.8 79.8617 604.9074)" fill="#100F0D" font-family="'ArialNarrow-Bold'" font-size="5.6508">E</text>
		<text transform="matrix(0.8755 0 0 -0.8 82.1383 604.9074)" fill="#100F0D" font-family="'ArialNarrow-Bold'" font-size="5.6508">U</text>
		<text transform="matrix(0.8755 0 0 -0.8 84.9633 604.9074)" fill="#100F0D" font-family="'ArialNarrow-Bold'" font-size="5.6508">R</text>
		<text transform="matrix(0.8755 0 0 -0.8 67.943 600.3871)" fill="#100F0D" font-family="'ArialNarrow-Bold'" font-size="5.6508">C</text>
		<text transform="matrix(0.8755 0 0 -0.8 70.6938 600.3871)" fill="#100F0D" font-family="'ArialNarrow-Bold'" font-size="5.6508">L</text>
		<text transform="matrix(0.8755 0 0 -0.8 72.8906 600.3871)" fill="#100F0D" font-family="'ArialNarrow-Bold'" font-size="5.6508">U</text>
		<text transform="matrix(0.8755 0 0 -0.8 75.9133 600.3871)" fill="#100F0D" font-family="'ArialNarrow-Bold'" font-size="5.6508">B</text>
	</g>
	<g id="shore-excursions">
		<text transform="matrix(0 0.8 0.8 0 73.8867 321.6277)" fill="#231F20" font-family="'ArialNarrow-Bold'" font-size="6.6427">S</text>
		<text transform="matrix(0 0.8 0.8 0 73.8867 324.5777)" fill="#231F20" font-family="'ArialNarrow-Bold'" font-size="6.6427">H</text>
		<text transform="matrix(0 0.8 0.8 0 73.8867 327.8277)" fill="#231F20" font-family="'ArialNarrow-Bold'" font-size="6.6427">O</text>
		<text transform="matrix(0 0.8 0.8 0 73.8867 331.0777)" fill="#231F20" font-family="'ArialNarrow-Bold'" font-size="6.6427">R</text>
		<text transform="matrix(0 0.8 0.8 0 73.8867 334.0277)" fill="#231F20" font-family="'ArialNarrow-Bold'" font-size="6.6427">E</text>
		<text transform="matrix(0 0.8 0.8 0 79.3133 314.6777)" fill="#231F20" font-family="'ArialNarrow-Bold'" font-size="6.6427">E</text>
		<text transform="matrix(0 0.8 0.8 0 79.3133 317.3371)" fill="#231F20" font-family="'ArialNarrow-Bold'" font-size="6.6427">X</text>
		<text transform="matrix(0 0.8 0.8 0 79.3133 320.2871)" fill="#231F20" font-family="'ArialNarrow-Bold'" font-size="6.6427">C</text>
		<text transform="matrix(0 0.8 0.8 0 79.3133 323.248)" fill="#231F20" font-family="'ArialNarrow-Bold'" font-size="6.6427">U</text>
		<text transform="matrix(0 0.8 0.8 0 79.3133 326.498)" fill="#231F20" font-family="'ArialNarrow-Bold'" font-size="6.6427">R</text>
		<text transform="matrix(0 0.8 0.8 0 79.3133 329.448)" fill="#231F20" font-family="'ArialNarrow-Bold'" font-size="6.6427">S</text>
		<text transform="matrix(0 0.8 0.8 0 79.3133 332.4074)" fill="#231F20" font-family="'ArialNarrow-Bold'" font-size="6.6427">I</text>
		<text transform="matrix(0 0.8 0.8 0 79.3133 333.8777)" fill="#231F20" font-family="'ArialNarrow-Bold'" font-size="6.6427">O</text>
		<text transform="matrix(0 0.8 0.8 0 79.3133 337.1277)" fill="#231F20" font-family="'ArialNarrow-Bold'" font-size="6.6427">N</text>
		<text transform="matrix(0 0.8 0.8 0 79.3133 340.6683)" fill="#231F20" font-family="'ArialNarrow-Bold'" font-size="6.6427">S</text>
	</g>
	<g id="guest-services">
		<text transform="matrix(0 0.8 0.8 0 80.2359 290.598)" fill="#231F20" font-family="'ArialNarrow-Bold'" font-size="6.6427">G</text>
		<text transform="matrix(0 0.8 0.8 0 80.2359 293.848)" fill="#231F20" font-family="'ArialNarrow-Bold'" font-size="6.6427">U</text>
		<text transform="matrix(0 0.8 0.8 0 80.2359 297.098)" fill="#231F20" font-family="'ArialNarrow-Bold'" font-size="6.6427">E</text>
		<text transform="matrix(0 0.8 0.8 0 80.2359 299.748)" fill="#231F20" font-family="'ArialNarrow-Bold'" font-size="6.6427">S</text>
		<text transform="matrix(0 0.8 0.8 0 80.2359 302.7074)" fill="#231F20" font-family="'ArialNarrow-Bold'" font-size="6.6427">T</text>
		<text transform="matrix(0 0.8 0.8 0 85.6633 287.198)" fill="#231F20" font-family="'ArialNarrow-Bold'" font-size="6.6427">S</text>
		<text transform="matrix(0 0.8 0.8 0 85.6633 290.1574)" fill="#231F20" font-family="'ArialNarrow-Bold'" font-size="6.6427">E</text>
		<text transform="matrix(0 0.8 0.8 0 85.6633 292.8074)" fill="#231F20" font-family="'ArialNarrow-Bold'" font-size="6.6427">R</text>
		<text transform="matrix(0 0.8 0.8 0 85.6633 295.7683)" fill="#231F20" font-family="'ArialNarrow-Bold'" font-size="6.6427">V</text>
		<text transform="matrix(0 0.8 0.8 0 85.6633 298.7183)" fill="#231F20" font-family="'ArialNarrow-Bold'" font-size="6.6427">I</text>
		<text transform="matrix(0 0.8 0.8 0 85.6633 300.198)" fill="#231F20" font-family="'ArialNarrow-Bold'" font-size="6.6427">C</text>
		<text transform="matrix(0 0.8 0.8 0 85.6633 303.1574)" fill="#231F20" font-family="'ArialNarrow-Bold'" font-size="6.6427">E</text>
		<text transform="matrix(0 0.8 0.8 0 85.6633 305.8074)" fill="#231F20" font-family="'ArialNarrow-Bold'" font-size="6.6427">S</text>
	</g>
	<g id="cupcake-cupboard">
		<text transform="matrix(0.8 0 0 -0.8 60.7039 368.3371)" fill="#231F20" font-family="'ArialNarrow-Bold'" font-size="6.6427">C</text>
		<text transform="matrix(0.8 0 0 -0.8 63.6594 368.3371)" fill="#231F20" font-family="'ArialNarrow-Bold'" font-size="6.6427">U</text>
		<text transform="matrix(0.8 0 0 -0.8 66.9062 368.3371)" fill="#231F20" font-family="'ArialNarrow-Bold'" font-size="6.6427">P</text>
		<text transform="matrix(0.8 0 0 -0.8 69.8609 368.3371)" fill="#231F20" font-family="'ArialNarrow-Bold'" font-size="6.6427">C</text>
		<text transform="matrix(0.8 0 0 -0.8 72.8156 368.3371)" fill="#231F20" font-family="'ArialNarrow-Bold'" font-size="6.6427">A</text>
		<text transform="matrix(0.8 0 0 -0.8 76.0625 368.3371)" fill="#231F20" font-family="'ArialNarrow-Bold'" font-size="6.6427">K</text>
		<text transform="matrix(0.8 0 0 -0.8 79.0172 368.3371)" fill="#231F20" font-family="'ArialNarrow-Bold'" font-size="6.6427">E</text>
		<text transform="matrix(0.8 0 0 -0.8 58.6375 362.9074)" fill="#231F20" font-family="'ArialNarrow-Bold'" font-size="6.6427">C</text>
		<text transform="matrix(0.8 0 0 -0.8 61.5922 362.9074)" fill="#231F20" font-family="'ArialNarrow-Bold'" font-size="6.6427">U</text>
		<text transform="matrix(0.8 0 0 -0.8 64.8391 362.9074)" fill="#231F20" font-family="'ArialNarrow-Bold'" font-size="6.6427">P</text>
		<text transform="matrix(0.8 0 0 -0.8 67.7937 362.9074)" fill="#231F20" font-family="'ArialNarrow-Bold'" font-size="6.6427">B</text>
		<text transform="matrix(0.8 0 0 -0.8 71.0406 362.9074)" fill="#231F20" font-family="'ArialNarrow-Bold'" font-size="6.6427">O</text>
		<text transform="matrix(0.8 0 0 -0.8 74.2875 362.9074)" fill="#231F20" font-family="'ArialNarrow-Bold'" font-size="6.6427">A</text>
		<text transform="matrix(0.8 0 0 -0.8 77.5344 362.9074)" fill="#231F20" font-family="'ArialNarrow-Bold'" font-size="6.6427">R</text>
		<text transform="matrix(0.8 0 0 -0.8 80.4891 362.9074)" fill="#231F20" font-family="'ArialNarrow-Bold'" font-size="6.6427">D</text>
	</g>
	<g id="promenade-shops">
		<text transform="matrix(0 0.8 0.8 0 53.8172 496.5668)" fill="#231F20" font-family="'ArialNarrow-Bold'" font-size="7.3336">P</text>
		<text transform="matrix(0 0.8 0.8 0 53.8172 499.8277)" fill="#231F20" font-family="'ArialNarrow-Bold'" font-size="7.3336">R</text>
		<text transform="matrix(0 0.8 0.8 0 53.8172 503.0871)" fill="#231F20" font-family="'ArialNarrow-Bold'" font-size="7.3336">O</text>
		<text transform="matrix(0 0.8 0.8 0 53.8172 506.6668)" fill="#231F20" font-family="'ArialNarrow-Bold'" font-size="7.3336">M</text>
		<text transform="matrix(0 0.8 0.8 0 53.8172 511.5574)" fill="#231F20" font-family="'ArialNarrow-Bold'" font-size="7.3336">E</text>
		<text transform="matrix(0 0.8 0.8 0 53.8172 514.4871)" fill="#231F20" font-family="'ArialNarrow-Bold'" font-size="7.3336">N</text>
		<text transform="matrix(0 0.8 0.8 0 53.8172 518.4074)" fill="#231F20" font-family="'ArialNarrow-Bold'" font-size="7.3336">A</text>
		<text transform="matrix(0 0.8 0.8 0 53.8172 521.9871)" fill="#231F20" font-family="'ArialNarrow-Bold'" font-size="7.3336">D</text>
		<text transform="matrix(0 0.8 0.8 0 53.8172 525.5777)" fill="#231F20" font-family="'ArialNarrow-Bold'" font-size="7.3336">E</text>
		<text transform="matrix(0 0.8 0.8 0 53.8172 528.5074)" fill="#231F20" font-family="'ArialNarrow-Bold'" font-size="7.3336"> </text>
		<text transform="matrix(0 0.8 0.8 0 53.8172 529.8074)" fill="#231F20" font-family="'ArialNarrow-Bold'" font-size="7.3336">S</text>
		<text transform="matrix(0 0.8 0.8 0 53.8172 533.0668)" fill="#231F20" font-family="'ArialNarrow-Bold'" font-size="7.3336">H</text>
		<text transform="matrix(0 0.8 0.8 0 53.8172 536.6574)" fill="#231F20" font-family="'ArialNarrow-Bold'" font-size="7.3336">O</text>
		<text transform="matrix(0 0.8 0.8 0 53.8172 540.2371)" fill="#231F20" font-family="'ArialNarrow-Bold'" font-size="7.3336">P</text>
		<text transform="matrix(0 0.8 0.8 0 53.8172 543.5074)" fill="#231F20" font-family="'ArialNarrow-Bold'" font-size="7.3336">S</text>
	</g>
</g>
</svg>
