<?xml version="1.0" encoding="utf-8"?>
<!-- Generator: Adobe Illustrator 16.0.4, SVG Export Plug-In . SVG Version: 6.00 Build 0)  -->
<!DOCTYPE svg PUBLIC "-//W3C//DTD SVG 1.1//EN" "http://www.w3.org/Graphics/SVG/1.1/DTD/svg11.dtd">
<svg version="1.1"
	 id="svg2" xmlns:rdf="http://www.w3.org/1999/02/22-rdf-syntax-ns#" xmlns:cc="http://creativecommons.org/ns#" xmlns:dc="http://purl.org/dc/elements/1.1/"
	 xmlns="http://www.w3.org/2000/svg" xmlns:xlink="http://www.w3.org/1999/xlink" x="0px" y="0px" width="162.75px"
	 height="411.691px" viewBox="0 0 162.75 411.691" enable-background="new 0 0 162.75 411.691" xml:space="preserve">
<g id="g10" transform="matrix(1.25,0,0,-1.25,0,990)">
	<g id="g260">
		<g id="g262">
			<g id="g268" transform="translate(530.55 424.16)">
				<path id="path270" fill="#FFFFFF" d="M-437.157,66.007c5.363,2.933,13.066,8.016,17.51,12.458
					c12.225,12.225,18.958,28.478,18.958,45.77v121.239c0,29.861-7.177,59.607-19.419,81.55l-1.18,5.719l-5.105,24.76l-0.045,0.2
					l-0.055,0.192c-0.188,0.64-2.02,6.331-8.158,8.543l-2.995,1.078l-2.207-2.294l-0.761-0.791l-17.02-3.206l0.377-0.272
					c-5.503,0.316-21.124-0.316-23.678-0.535h-0.377l-8.88,3.928l-0.845,0.876l-2.209,2.294l-2.995-1.078
					c-6.138-2.212-7.97-7.903-8.156-8.543l-0.058-0.192l-0.041-0.2l-5.109-24.76l-1.212-5.878
					c-12.185-21.928-19.325-51.602-19.325-81.391v-121.25c0-17.291,6.733-33.544,18.959-45.769
					c4.635-4.636,12.581-9.847,18.214-12.838l-0.01,0.28v8.248l6.738,1.363l0.15-0.03V40.038c7.305-0.878,14.788-1.359,21.055-1.359
					c6.267,0,13.75,0.481,21.058,1.359v35.489l0.15-0.019l6.734-1.363v-7.925l-0.062-0.227V66.007z"/>
			</g>
		</g>
	</g>
	<g id="g272">
		<g id="g274">
			<g id="g280" transform="translate(474.67 423.91)">
				<path id="path282" fill="none" stroke="#918F90" stroke-width="0.909" stroke-linejoin="round" d="M-437.157,66.007
					c-5.634,2.991-13.579,8.202-18.214,12.838c-12.227,12.225-18.96,28.48-18.96,45.769v121.241c0,29.79,7.14,59.464,19.325,81.394
					l1.213,5.878l5.109,24.758l0.041,0.199l0.057,0.194c0.187,0.639,2.019,6.328,8.157,8.541l2.995,1.079l2.207-2.293l0.845-0.878
					l8.881-3.927 M-401.822,361.608l17.02,3.207l0.762,0.79l2.207,2.293l2.995-1.079c6.139-2.213,7.97-7.902,8.159-8.541
					l0.055-0.194l0.045-0.199l5.105-24.758l1.18-5.72c12.241-21.944,19.42-51.691,19.42-81.552V124.615
					c0-17.287-6.732-33.544-18.959-45.769c-4.444-4.445-12.145-9.528-17.509-12.461"/>
			</g>
		</g>
	</g>
	<g id="g284">
		<g id="g286">
			<g id="g292" transform="translate(562.41 482.51)">
				<path id="path294" fill="#FFFFFF" d="M-437.157,66.007v121.241c0,33.335-9.054,65.323-23.118,86.279h2.62l-5.107,24.76
					c0,0-1.138,3.874-5.109,5.304l-2.557-2.654c-4.409,0.882-15.301,1.791-18.765,1.791v-29.21h-3.675
					c0,0.003,0.002,0.006,0.002,0.009c0,2.221-1.802,4.02-4.023,4.02c-2.22,0-4.018-1.799-4.018-4.02v-0.009h-11.963v28.675
					c-3.466,0-6.267-0.708-10.71-1.256l-2.555,2.654c-3.97-1.43-5.109-5.304-5.109-5.304l-5.109-24.76h2.678
					c-14.059-20.956-23.113-52.944-23.113-86.279V66.018"/>
			</g>
			<g id="g296" transform="translate(562.41 482.51)">
				<path id="path298" fill="none" stroke="#918F90" stroke-width="0.909" stroke-linejoin="round" d="M-437.157,66.007v121.241
					c0,33.335-9.054,65.323-23.118,86.279h2.62l-5.107,24.76c0,0-1.138,3.874-5.109,5.304l-2.557-2.654
					c-4.409,0.882-15.301,1.791-18.765,1.791v-29.21h-3.675c0,0.003,0.002,0.006,0.002,0.009c0,2.221-1.802,4.02-4.023,4.02
					c-2.22,0-4.018-1.799-4.018-4.02v-0.009h-11.963v28.675c-3.466,0-6.267-0.708-10.71-1.256l-2.555,2.654
					c-3.97-1.43-5.109-5.304-5.109-5.304l-5.109-24.76h2.678c-14.059-20.956-23.113-52.944-23.113-86.279V66.018 M-445.708,27.002
					c5.369,13.828,8.46,27.967,8.46,39.127v121.241c0,33.336-9.054,65.322-23.118,86.279h2.62l-5.105,24.758
					c0,0-1.139,3.873-5.11,5.304l-2.555-2.651c-4.411,0.879-15.3,1.791-18.766,1.791v-29.211h-3.675
					c0,0.004,0.002,0.005,0.002,0.009c0,2.221-1.8,4.02-4.021,4.02c-2.219,0-4.019-1.799-4.019-4.02v-0.009h-11.964v28.675
					c-3.464,0-6.266-0.709-10.709-1.255l-2.555,2.651c-3.97-1.431-5.109-5.304-5.109-5.304l-5.109-24.758h2.677
					c-14.062-20.959-23.112-52.943-23.112-86.279V66.129c0-11.439,3.177-26.005,8.703-40.159"/>
			</g>
			<path id="path300" fill="#FFFFFF" stroke="#918F90" stroke-width="0.454" d="M44.363,734.357h-5.85v1.347h5.85v-1.35V734.357z"/>
			<path id="path302" fill="#FFFFFF" stroke="#918F90" stroke-width="0.454" d="M44.363,735.707h-5.85v1.349h5.85v-1.35V735.707z"/>
			<path id="path304" fill="#FFFFFF" stroke="#918F90" stroke-width="0.454" d="M44.363,737.047h-5.85v1.347h5.85v-1.35V737.047z"/>
			<path id="path306" fill="#FFFFFF" stroke="#918F90" stroke-width="0.454" d="M48.763,734.357h-4.395v1.347h4.395v-1.35V734.357z"
				/>
			<path id="path308" fill="#FFFFFF" stroke="#918F90" stroke-width="0.454" d="M48.763,735.707h-4.395v1.349h4.395v-1.35V735.707z"
				/>
			<path id="path310" fill="#FFFFFF" stroke="#918F90" stroke-width="0.454" d="M48.763,737.047h-4.395v1.347h4.395v-1.35V737.047z"
				/>
			<path id="path312" fill="#FFFFFF" stroke="#918F90" stroke-width="0.454" d="M44.363,738.397h-5.85v1.348h5.85v-1.35V738.397z"/>
			<path id="path314" fill="#FFFFFF" stroke="#918F90" stroke-width="0.454" d="M48.763,738.397h-4.395v1.348h4.395v-1.35V738.397z"
				/>
			<path id="path316" fill="#FFFFFF" stroke="#918F90" stroke-width="0.454" d="M44.363,739.747h-5.85v1.348h5.85v-1.35V739.747z"/>
			<path id="path318" fill="#FFFFFF" stroke="#918F90" stroke-width="0.454" d="M48.763,739.747h-4.395v1.348h4.395v-1.35V739.747z"
				/>
			<path id="path320" fill="#FFFFFF" stroke="#918F90" stroke-width="0.454" d="M44.363,741.097h-5.85v1.348h5.85v-1.35V741.097z"/>
			<path id="path322" fill="#FFFFFF" stroke="#918F90" stroke-width="0.454" d="M48.763,741.097h-4.395v1.348h4.395v-1.35V741.097z"
				/>
			<path id="path324" fill="#FFFFFF" stroke="#918F90" stroke-width="0.454" d="M38.513,734.357h-4.395v1.347h4.395v-1.35V734.357z"
				/>
			<path id="path326" fill="#FFFFFF" stroke="#918F90" stroke-width="0.454" d="M38.513,735.707h-4.395v1.349h4.395v-1.35V735.707z"
				/>
			<path id="path328" fill="#FFFFFF" stroke="#918F90" stroke-width="0.454" d="M38.513,737.047h-4.395v1.347h4.395v-1.35V737.047z"
				/>
			<path id="path330" fill="#FFFFFF" stroke="#918F90" stroke-width="0.454" d="M38.513,738.397h-4.395v1.348h4.395v-1.35V738.397z"
				/>
			<path id="path332" fill="#FFFFFF" stroke="#918F90" stroke-width="0.454" d="M38.513,739.747h-4.395v1.348h4.395v-1.35V739.747z"
				/>
			<path id="path334" fill="#FFFFFF" stroke="#918F90" stroke-width="0.454" d="M38.513,741.097h-4.395v1.348h4.395v-1.35V741.097z"
				/>
			<path id="path336" fill="#FFFFFF" stroke="#918F90" stroke-width="0.454" d="M48.763,734.357h-14.64v-3.976h14.64v3.98V734.357z"
				/>
			<path id="path338" fill="#FFFFFF" d="M38.243,779.527h-6.975v-20.278h6.975v20.28V779.527z"/>
			<path id="path340" fill="none" stroke="#918F90" stroke-width="0.454" d="M38.243,779.527h-6.975v-20.278h6.975v20.28V779.527z
				 M49.603,758.167h3.851c1.721,0,3.118,1.923,3.118,4.297c0,2.37-1.397,4.296-3.118,4.296h-3.851v-8.6V758.167z M49.603,769.277
				h3.851c1.721,0,3.118,1.923,3.118,4.295c0,2.373-1.397,4.296-3.118,4.296h-3.851V769.277h3.851c1.721,0,3.118,1.923,3.118,4.295
				c0,2.373-1.397,4.296-3.118,4.296h-3.851V769.277L49.603,769.277z"/>
			<path id="path342" fill="#FFFFFF" stroke="#918F90" stroke-width="0.454" d="M93.953,734.407h-3.93v1.348h3.93v-1.35V734.407z"/>
			<path id="path344" fill="#FFFFFF" stroke="#918F90" stroke-width="0.454" d="M93.953,735.747h-3.93v1.348h3.93v-1.35V735.747z"/>
			<path id="path346" fill="#FFFFFF" stroke="#918F90" stroke-width="0.454" d="M93.953,737.097h-3.93v1.35h3.93V737.097z"/>
			<path id="path348" fill="#FFFFFF" stroke="#918F90" stroke-width="0.454" d="M93.953,738.447h-3.93v1.348h3.93v-1.35V738.447z"/>
			<path id="path350" fill="#FFFFFF" stroke="#918F90" stroke-width="0.454" d="M97.884,734.407h-3.93v1.348h3.93v-1.35V734.407z"/>
			<path id="path352" fill="#FFFFFF" stroke="#918F90" stroke-width="0.454" d="M97.884,735.747h-3.93v1.348h3.93v-1.35V735.747z"/>
			<path id="path354" fill="#FFFFFF" stroke="#918F90" stroke-width="0.454" d="M97.884,737.097h-3.93v1.35h3.93V737.097z"/>
			<path id="path356" fill="#FFFFFF" stroke="#918F90" stroke-width="0.454" d="M97.884,738.447h-3.93v1.348h3.93v-1.35V738.447z"/>
			<path id="path358" fill="#FFFFFF" stroke="#918F90" stroke-width="0.454" d="M93.953,739.797h-3.93v1.348h3.93v-1.35V739.797z"/>
			<path id="path360" fill="#FFFFFF" stroke="#918F90" stroke-width="0.454" d="M93.953,741.147h-3.93v1.348h3.93v-1.35V741.147z"/>
			<path id="path362" fill="#FFFFFF" stroke="#918F90" stroke-width="0.454" d="M97.884,739.797h-3.93v1.348h3.93v-1.35V739.797z"/>
			<path id="path364" fill="#FFFFFF" stroke="#918F90" stroke-width="0.454" d="M97.884,741.147h-3.93v1.348h3.93v-1.35V741.147z"/>
			<path id="path366" fill="#FFFFFF" stroke="#918F90" stroke-width="0.454" d="M97.884,734.407h-7.859V730.4h7.859v4.01V734.407z"
				/>
			<g id="g368" transform="translate(468.33 714.79)">
				<path id="path370" fill="none" stroke="#918F90" stroke-width="0.454" stroke-linejoin="round" d="M-437.157,66.007
					l-5.108-24.76h2.677c-8.443-12.582-15.058-29.158-19.014-47.596c3.828-12.859,11.963-23.864,22.76-31.305
					c8.808,4.159,20.33,6.688,32.955,6.688c12.626,0,24.15-2.53,32.955-6.688c10.797,7.441,18.934,18.443,22.762,31.304
					c-3.958,18.438-10.573,35.014-19.019,47.596h2.619l-5.105,24.76c0,0-1.139,3.874-5.109,5.304l-2.555-2.654
					c-4.412,0.883-15.302,1.792-18.766,1.792v-29.21h-3.675c0,0.002,0.002,0.005,0.002,0.008c0,2.221-1.802,4.021-4.021,4.021
					c-2.22,0-4.02-1.8-4.02-4.021v-0.008h-11.964v28.674c-3.465,0-6.266-0.708-10.709-1.256l-2.555,2.654
					C-436.017,69.88-437.157,66.007-437.157,66.007L-437.157,66.007z"/>
			</g>
			<g id="g372" transform="translate(474.67 613.19)">
				<path id="path374" fill="#FFFFFF" d="M-437.157,66.007v12.688h-12.433v-8.677c2.296-2.218,4.769-4.25,7.405-6.068
					C-440.602,64.697-438.904,65.369-437.157,66.007"/>
			</g>
			<g id="g376" transform="translate(474.67 613.19)">
				<path id="path378" fill="none" stroke="#918F90" stroke-width="0.454" d="M-437.157,66.007v12.688h-12.433v-8.677
					c2.296-2.218,4.769-4.25,7.405-6.068C-440.602,64.697-438.904,65.369-437.157,66.007z"/>
			</g>
			<g id="g380" transform="translate(474.67 625.88)">
				<path id="path382" fill="#FFFFFF" d="M-437.157,66.007V53.32c4.545,1.655,9.603,2.928,15.045,3.708v8.98H-437.157z"/>
			</g>
			<g id="g384" transform="translate(474.67 625.88)">
				<path id="path386" fill="none" stroke="#918F90" stroke-width="0.454" d="M-437.157,66.007V53.32
					c4.545,1.655,9.603,2.928,15.045,3.708v8.98H-437.157z"/>
			</g>
			<g id="g388" transform="translate(543.8 611.58)">
				<path id="path390" fill="#FFFFFF" d="M-437.157,66.007c3.782,3.253,7.142,6.984,9.984,11.102l-3.514,3.058
					c-2.81-4.024-6.116-7.675-9.834-10.864L-437.157,66.007z"/>
			</g>
			<g id="g392" transform="translate(543.8 611.58)">
				<path id="path394" fill="none" stroke="#918F90" stroke-width="0.454" d="M-437.157,66.007
					c3.782,3.253,7.142,6.984,9.984,11.102l-3.514,3.058c-2.81-4.024-6.116-7.675-9.834-10.864L-437.157,66.007z M-436.105,66.948
					l-3.478,3.095 M-435.158,67.935l-3.475,3.094 M-434.198,68.878l-3.477,3.091 M-433.245,69.829l-3.478,3.095 M-430.572,72.82
					l-3.477,3.095 M-429.623,73.809l-3.479,3.095 M-428.802,74.884l-3.475,3.095 M-427.984,75.974l-3.477,3.093"/>
			</g>
			<g id="g396" transform="translate(461.32 611.58)">
				<path id="path398" fill="#FFFFFF" d="M-437.157,66.007c-3.782,3.253-7.143,6.984-9.984,11.102l3.516,3.058
					c2.808-4.024,6.116-7.675,9.83-10.864L-437.157,66.007z"/>
			</g>
			<g id="g400" transform="translate(461.32 611.58)">
				<path id="path402" fill="none" stroke="#918F90" stroke-width="0.454" d="M-437.157,66.007
					c-3.782,3.253-7.143,6.984-9.984,11.102l3.516,3.058c2.808-4.024,6.116-7.675,9.83-10.864L-437.157,66.007z M-438.21,66.948
					l3.477,3.095 M-439.158,67.935l3.476,3.094 M-440.117,68.878l3.477,3.091 M-441.071,69.829l3.478,3.095 M-443.744,72.82
					l3.477,3.095 M-444.693,73.809l3.477,3.095 M-445.514,74.884l3.477,3.095 M-446.333,75.974l3.48,3.093 M-411.778,173.127
					c2.555,0.221,18.175,0.852,23.678,0.536"/>
			</g>
			<g id="g404" transform="translate(444.45 483.63)">
				<path id="path406" fill="#FFFFFF" d="M-437.157,66.007h-1.666v-1.12c0-0.769,0.029-1.531,0.059-2.294h1.559L-437.157,66.007z"/>
			</g>
			<g id="g408" transform="translate(444.45 483.63)">
				<path id="path410" fill="none" stroke="#918F90" stroke-width="0.454" d="M-437.157,66.007h-1.666v-1.12
					c0-0.769,0.029-1.531,0.059-2.294h1.559L-437.157,66.007z"/>
			</g>
			<g id="g412" transform="translate(444.5 487.05)">
				<path id="path414" fill="#FFFFFF" d="M-437.157,66.007h-1.716v-3.413h1.666L-437.157,66.007z"/>
			</g>
			<g id="g416" transform="translate(444.5 487.05)">
				<path id="path418" fill="none" stroke="#918F90" stroke-width="0.454" d="M-437.157,66.007h-1.716v-3.413h1.666L-437.157,66.007
					z"/>
			</g>
			<g id="g420" transform="translate(444.55 490.46)">
				<path id="path422" fill="#FFFFFF" d="M-437.157,66.007h-1.766v-3.416h1.716L-437.157,66.007z"/>
			</g>
			<g id="g424" transform="translate(444.55 490.46)">
				<path id="path426" fill="none" stroke="#918F90" stroke-width="0.454" d="M-437.157,66.007h-1.766v-3.416h1.716L-437.157,66.007
					z"/>
			</g>
			<g id="g428" transform="translate(444.6 493.88)">
				<path id="path430" fill="#FFFFFF" d="M-437.157,66.007h-1.816v-3.414h1.765L-437.157,66.007z"/>
			</g>
			<g id="g432" transform="translate(444.6 493.88)">
				<path id="path434" fill="none" stroke="#918F90" stroke-width="0.454" d="M-437.157,66.007h-1.816v-3.414h1.765L-437.157,66.007
					z"/>
			</g>
			<g id="g436" transform="translate(444.65 497.29)">
				<path id="path438" fill="#FFFFFF" d="M-437.157,66.008h-1.866v-3.412h1.817L-437.157,66.008z"/>
			</g>
			<g id="g440" transform="translate(444.65 497.29)">
				<path id="path442" fill="none" stroke="#918F90" stroke-width="0.454" d="M-437.157,66.008h-1.866v-3.412h1.817L-437.157,66.008
					z"/>
			</g>
			<g id="g444" transform="translate(444.7 500.7)">
				<path id="path446" fill="#FFFFFF" d="M-437.157,66.007h-1.916v-3.416h1.866L-437.157,66.007z"/>
			</g>
			<g id="g448" transform="translate(444.7 500.7)">
				<path id="path450" fill="none" stroke="#918F90" stroke-width="0.454" d="M-437.157,66.007h-1.916v-3.416h1.866L-437.157,66.007
					z"/>
			</g>
			<g id="g452" transform="translate(444.75 504.12)">
				<path id="path454" fill="#FFFFFF" d="M-437.157,66.008h-1.965v-3.414h1.915L-437.157,66.008z"/>
			</g>
			<g id="g456" transform="translate(444.75 504.12)">
				<path id="path458" fill="none" stroke="#918F90" stroke-width="0.454" d="M-437.157,66.008h-1.965v-3.414h1.915L-437.157,66.008
					z"/>
			</g>
			<g id="g460" transform="translate(444.8 507.53)">
				<path id="path462" fill="#FFFFFF" d="M-437.157,66.007h-2.015V62.59h1.965L-437.157,66.007z"/>
			</g>
			<g id="g464" transform="translate(444.8 507.53)">
				<path id="path466" fill="none" stroke="#918F90" stroke-width="0.454" d="M-437.157,66.007h-2.015V62.59h1.965L-437.157,66.007z
					"/>
			</g>
			<g id="g468" transform="translate(444.85 510.95)">
				<path id="path470" fill="#FFFFFF" d="M-437.157,66.007h-2.064v-3.414h2.016L-437.157,66.007z"/>
			</g>
			<g id="g472" transform="translate(444.85 510.95)">
				<path id="path474" fill="none" stroke="#918F90" stroke-width="0.454" d="M-437.157,66.007h-2.064v-3.414h2.016L-437.157,66.007
					z"/>
			</g>
			<g id="g476" transform="translate(444.9 514.36)">
				<path id="path478" fill="#FFFFFF" d="M-437.157,66.007h-2.113v-3.414h2.062L-437.157,66.007z"/>
			</g>
			<g id="g480" transform="translate(444.9 514.36)">
				<path id="path482" fill="none" stroke="#918F90" stroke-width="0.454" d="M-437.157,66.007h-2.113v-3.414h2.062L-437.157,66.007
					z"/>
			</g>
			<g id="g484" transform="translate(444.95 517.77)">
				<path id="path486" fill="#FFFFFF" d="M-437.157,66.008h-2.163v-3.414h2.114L-437.157,66.008z"/>
			</g>
			<g id="g488" transform="translate(444.95 517.77)">
				<path id="path490" fill="none" stroke="#918F90" stroke-width="0.454" d="M-437.157,66.008h-2.163v-3.414h2.114L-437.157,66.008
					z"/>
			</g>
			<g id="g492" transform="translate(445 521.19)">
				<path id="path494" fill="#FFFFFF" d="M-437.157,66.008h-2.212v-3.414h2.162L-437.157,66.008z"/>
			</g>
			<g id="g496" transform="translate(445 521.19)">
				<path id="path498" fill="none" stroke="#918F90" stroke-width="0.454" d="M-437.157,66.008h-2.212v-3.414h2.162L-437.157,66.008
					z"/>
			</g>
			<g id="g500" transform="translate(445.05 524.6)">
				<path id="path502" fill="#FFFFFF" d="M-437.157,66.007h-2.262v-3.416h2.212L-437.157,66.007z"/>
			</g>
			<g id="g504" transform="translate(445.05 524.6)">
				<path id="path506" fill="none" stroke="#918F90" stroke-width="0.454" d="M-437.157,66.007h-2.262v-3.416h2.212L-437.157,66.007
					z"/>
			</g>
			<g id="g508" transform="translate(445.1 528.01)">
				<path id="path510" fill="#FFFFFF" d="M-437.157,66.007h-2.312v-3.411h2.263L-437.157,66.007z"/>
			</g>
			<g id="g512" transform="translate(445.1 528.01)">
				<path id="path514" fill="none" stroke="#918F90" stroke-width="0.454" d="M-437.157,66.007h-2.312v-3.411h2.263L-437.157,66.007
					z"/>
			</g>
			<g id="g516" transform="translate(445.15 531.43)">
				<path id="path518" fill="#FFFFFF" d="M-437.157,66.007h-2.361V62.59h2.312L-437.157,66.007z"/>
			</g>
			<g id="g520" transform="translate(445.15 531.43)">
				<path id="path522" fill="none" stroke="#918F90" stroke-width="0.454" d="M-437.157,66.007h-2.361V62.59h2.312L-437.157,66.007z
					"/>
			</g>
			<g id="g524" transform="translate(445.19 534.84)">
				<path id="path526" fill="#FFFFFF" d="M-437.156,66.008h-2.41v-3.411h2.362L-437.156,66.008z"/>
			</g>
			<g id="g528" transform="translate(445.19 534.84)">
				<path id="path530" fill="none" stroke="#918F90" stroke-width="0.454" d="M-437.156,66.008h-2.41v-3.411h2.362L-437.156,66.008z
					"/>
			</g>
			<g id="g532" transform="translate(445.24 538.25)">
				<path id="path534" fill="#FFFFFF" d="M-437.156,66.007h-2.46v-3.414h2.409L-437.156,66.007z"/>
			</g>
			<g id="g536" transform="translate(445.24 538.25)">
				<path id="path538" fill="none" stroke="#918F90" stroke-width="0.454" d="M-437.156,66.007h-2.46v-3.414h2.409L-437.156,66.007z
					"/>
			</g>
			<g id="g540" transform="translate(445.29 541.67)">
				<path id="path542" fill="#FFFFFF" d="M-437.156,66.008h-2.509v-3.416h2.46L-437.156,66.008z"/>
			</g>
			<g id="g544" transform="translate(445.29 541.67)">
				<path id="path546" fill="none" stroke="#918F90" stroke-width="0.454" d="M-437.156,66.008h-2.509v-3.416h2.46L-437.156,66.008z
					"/>
			</g>
			<g id="g548" transform="translate(445.34 545.08)">
				<path id="path550" fill="#FFFFFF" d="M-437.156,66.007h-2.56v-3.414h2.509L-437.156,66.007z"/>
			</g>
			<g id="g552" transform="translate(445.34 545.08)">
				<path id="path554" fill="none" stroke="#918F90" stroke-width="0.454" d="M-437.156,66.007h-2.56v-3.414h2.509L-437.156,66.007z
					"/>
			</g>
			<g id="g556" transform="translate(445.39 548.5)">
				<path id="path558" fill="#FFFFFF" d="M-437.156,66.007h-2.61v-3.414h2.559L-437.156,66.007z"/>
			</g>
			<g id="g560" transform="translate(445.39 548.5)">
				<path id="path562" fill="none" stroke="#918F90" stroke-width="0.454" d="M-437.156,66.007h-2.61v-3.414h2.559L-437.156,66.007z
					"/>
			</g>
			<g id="g564" transform="translate(445.44 551.91)">
				<path id="path566" fill="#FFFFFF" d="M-437.156,66.007h-2.659v-3.411h2.61L-437.156,66.007z"/>
			</g>
			<g id="g568" transform="translate(445.44 551.91)">
				<path id="path570" fill="none" stroke="#918F90" stroke-width="0.454" d="M-437.156,66.007h-2.659v-3.411h2.61L-437.156,66.007z
					"/>
			</g>
			<g id="g572" transform="translate(445.49 555.32)">
				<path id="path574" fill="#FFFFFF" d="M-437.156,66.008h-2.709v-3.416h2.657L-437.156,66.008z"/>
			</g>
			<g id="g576" transform="translate(445.49 555.32)">
				<path id="path578" fill="none" stroke="#918F90" stroke-width="0.454" d="M-437.156,66.008h-2.709v-3.416h2.657L-437.156,66.008
					z"/>
			</g>
			<g id="g580" transform="translate(445.54 558.74)">
				<path id="path582" fill="#FFFFFF" d="M-437.156,66.007h-2.757v-3.414h2.708L-437.156,66.007z"/>
			</g>
			<g id="g584" transform="translate(445.54 558.74)">
				<path id="path586" fill="none" stroke="#918F90" stroke-width="0.454" d="M-437.156,66.007h-2.757v-3.414h2.708L-437.156,66.007
					z"/>
			</g>
			<g id="g588" transform="translate(445.59 562.15)">
				<path id="path590" fill="#FFFFFF" d="M-437.156,66.007h-2.809v-3.414h2.757L-437.156,66.007z"/>
			</g>
			<g id="g592" transform="translate(445.59 562.15)">
				<path id="path594" fill="none" stroke="#918F90" stroke-width="0.454" d="M-437.156,66.007h-2.809v-3.414h2.757L-437.156,66.007
					z"/>
			</g>
			<g id="g596" transform="translate(445.64 565.56)">
				<path id="path598" fill="#FFFFFF" d="M-437.156,66.007h-2.859v-3.413h2.809L-437.156,66.007z"/>
			</g>
			<g id="g600" transform="translate(445.64 565.56)">
				<path id="path602" fill="none" stroke="#918F90" stroke-width="0.454" d="M-437.156,66.007h-2.859v-3.413h2.809L-437.156,66.007
					z"/>
			</g>
			<g id="g604" transform="translate(445.69 568.98)">
				<path id="path606" fill="#FFFFFF" d="M-437.156,66.007h-2.906v-3.412h2.857L-437.156,66.007z"/>
			</g>
			<g id="g608" transform="translate(445.69 568.98)">
				<path id="path610" fill="none" stroke="#918F90" stroke-width="0.454" d="M-437.156,66.007h-2.906v-3.412h2.857L-437.156,66.007
					z"/>
			</g>
			<g id="g612" transform="translate(445.74 572.39)">
				<path id="path614" fill="#FFFFFF" d="M-437.156,66.007h-2.957v-3.415h2.907L-437.156,66.007z"/>
			</g>
			<g id="g616" transform="translate(445.74 572.39)">
				<path id="path618" fill="none" stroke="#918F90" stroke-width="0.454" d="M-437.156,66.007h-2.957v-3.415h2.907L-437.156,66.007
					z"/>
			</g>
			<g id="g620" transform="translate(445.79 575.81)">
				<path id="path622" fill="#FFFFFF" d="M-437.156,66.007h-3.005v-3.413h2.957L-437.156,66.007z"/>
			</g>
			<g id="g624" transform="translate(445.79 575.81)">
				<path id="path626" fill="none" stroke="#918F90" stroke-width="0.454" d="M-437.156,66.007h-3.005v-3.413h2.957L-437.156,66.007
					z"/>
			</g>
			<g id="g628" transform="translate(445.84 579.22)">
				<path id="path630" fill="#FFFFFF" d="M-437.156,66.008h-3.055v-3.411h3.005L-437.156,66.008z"/>
			</g>
			<g id="g632" transform="translate(445.84 579.22)">
				<path id="path634" fill="none" stroke="#918F90" stroke-width="0.454" d="M-437.156,66.008h-3.055v-3.411h3.005L-437.156,66.008
					z"/>
			</g>
			<g id="g636" transform="translate(445.89 582.63)">
				<path id="path638" fill="#FFFFFF" d="M-437.156,66.007h-3.105v-3.418h3.055L-437.156,66.007z"/>
			</g>
			<g id="g640" transform="translate(445.89 582.63)">
				<path id="path642" fill="none" stroke="#918F90" stroke-width="0.454" d="M-437.156,66.007h-3.105v-3.418h3.055L-437.156,66.007
					z"/>
			</g>
			<g id="g644" transform="translate(445.94 586.05)">
				<path id="path646" fill="#FFFFFF" d="M-437.156,66.007h-3.155v-3.411h3.105L-437.156,66.007z"/>
			</g>
			<g id="g648" transform="translate(445.94 586.05)">
				<path id="path650" fill="none" stroke="#918F90" stroke-width="0.454" d="M-437.156,66.007h-3.155v-3.411h3.105L-437.156,66.007
					z"/>
			</g>
			<g id="g652" transform="translate(445.99 589.46)">
				<path id="path654" fill="#FFFFFF" d="M-437.156,66.007h-3.205v-3.414h3.155L-437.156,66.007z"/>
			</g>
			<g id="g656" transform="translate(445.99 589.46)">
				<path id="path658" fill="none" stroke="#918F90" stroke-width="0.454" d="M-437.156,66.007h-3.205v-3.414h3.155L-437.156,66.007
					z"/>
			</g>
			<g id="g660" transform="translate(446.04 592.87)">
				<path id="path662" fill="#FFFFFF" d="M-437.156,66.008h-3.253v-3.414h3.205L-437.156,66.008z"/>
			</g>
			<g id="g664" transform="translate(446.04 592.87)">
				<path id="path666" fill="none" stroke="#918F90" stroke-width="0.454" d="M-437.156,66.008h-3.253v-3.414h3.205L-437.156,66.008
					z"/>
			</g>
			<g id="g668" transform="translate(446.09 596.29)">
				<path id="path670" fill="#FFFFFF" d="M-437.156,66.007h-3.305v-3.415h3.253L-437.156,66.007z"/>
			</g>
			<g id="g672" transform="translate(446.09 596.29)">
				<path id="path674" fill="none" stroke="#918F90" stroke-width="0.454" d="M-437.156,66.007h-3.305v-3.415h3.253L-437.156,66.007
					z"/>
			</g>
			<g id="g676" transform="translate(446.14 599.7)">
				<path id="path678" fill="#FFFFFF" d="M-437.156,66.007h-3.352v-3.412h3.304L-437.156,66.007z"/>
			</g>
			<g id="g680" transform="translate(446.14 599.7)">
				<path id="path682" fill="none" stroke="#918F90" stroke-width="0.454" d="M-437.156,66.007h-3.352v-3.412h3.304L-437.156,66.007
					z"/>
			</g>
			<g id="g684" transform="translate(446.19 603.11)">
				<path id="path686" fill="#FFFFFF" d="M-437.156,66.007h-3.402v-3.411h3.352L-437.156,66.007z"/>
			</g>
			<g id="g688" transform="translate(446.19 603.11)">
				<path id="path690" fill="none" stroke="#918F90" stroke-width="0.454" d="M-437.156,66.007h-3.402v-3.411h3.352L-437.156,66.007
					z"/>
			</g>
			<g id="g692" transform="translate(446.2 603.75)">
				<path id="path694" fill="#FFFFFF" d="M-437.157,66.007c0,0.927,0.016,1.852,0.034,2.776h-3.407
					c-0.015-0.924-0.039-1.849-0.039-2.776v-0.641h3.402L-437.157,66.007z"/>
			</g>
			<g id="g696" transform="translate(446.2 603.75)">
				<path id="path698" fill="none" stroke="#918F90" stroke-width="0.454" d="M-437.157,66.007c0,0.927,0.016,1.852,0.034,2.776
					h-3.407c-0.015-0.924-0.039-1.849-0.039-2.776v-0.641h3.402L-437.157,66.007z"/>
			</g>
			<g id="g700" transform="translate(446.32 609.94)">
				<path id="path702" fill="#FFFFFF" d="M-437.157,66.007h-3.413c-0.038-1.135-0.062-2.274-0.077-3.412h3.405
					C-437.225,63.732-437.197,64.872-437.157,66.007"/>
			</g>
			<g id="g704" transform="translate(446.32 609.94)">
				<path id="path706" fill="none" stroke="#918F90" stroke-width="0.454" d="M-437.157,66.007h-3.413
					c-0.038-1.135-0.062-2.274-0.077-3.412h3.405C-437.225,63.732-437.197,64.872-437.157,66.007z"/>
			</g>
			<g id="g708" transform="translate(446.46 613.36)">
				<path id="path710" fill="#FFFFFF" d="M-437.157,66.007h-3.423c-0.062-1.136-0.102-2.273-0.141-3.414h3.414
					C-437.268,63.732-437.218,64.869-437.157,66.007"/>
			</g>
			<g id="g712" transform="translate(446.46 613.36)">
				<path id="path714" fill="none" stroke="#918F90" stroke-width="0.454" d="M-437.157,66.007h-3.423
					c-0.062-1.136-0.102-2.273-0.141-3.414h3.414C-437.268,63.732-437.218,64.869-437.157,66.007z"/>
			</g>
			<g id="g716" transform="translate(446.68 616.77)">
				<path id="path718" fill="#FFFFFF" d="M-437.157,66.008h-3.413c-0.08-1.137-0.164-2.273-0.222-3.414h3.423
					C-437.308,63.733-437.239,64.87-437.157,66.008"/>
			</g>
			<g id="g720" transform="translate(446.68 616.77)">
				<path id="path722" fill="none" stroke="#918F90" stroke-width="0.454" d="M-437.157,66.008h-3.413
					c-0.08-1.137-0.164-2.273-0.222-3.414h3.423C-437.308,63.733-437.239,64.87-437.157,66.008z"/>
			</g>
			<g id="g724" transform="translate(446.95 620.18)">
				<path id="path726" fill="#FFFFFF" d="M-437.157,66.007h-3.414c-0.102-1.133-0.19-2.272-0.27-3.411h3.412
					C-437.347,63.735-437.259,64.874-437.157,66.007"/>
			</g>
			<g id="g728" transform="translate(446.95 620.18)">
				<path id="path730" fill="none" stroke="#918F90" stroke-width="0.454" d="M-437.157,66.007h-3.414
					c-0.102-1.133-0.19-2.272-0.27-3.411h3.412C-437.347,63.735-437.259,64.874-437.157,66.007z"/>
			</g>
			<g id="g732" transform="translate(447.3 623.6)">
				<path id="path734" fill="#FFFFFF" d="M-437.157,66.007h-3.44c-0.122-1.134-0.222-2.274-0.325-3.416h3.414
					C-437.402,63.734-437.283,64.872-437.157,66.007"/>
			</g>
			<g id="g736" transform="translate(447.3 623.6)">
				<path id="path738" fill="none" stroke="#918F90" stroke-width="0.454" d="M-437.157,66.007h-3.44
					c-0.122-1.134-0.222-2.274-0.325-3.416h3.414C-437.402,63.734-437.283,64.872-437.157,66.007z"/>
			</g>
			<g id="g740" transform="translate(447.71 627.01)">
				<path id="path742" fill="#FFFFFF" d="M-437.157,66.007h-3.44c-0.142-1.136-0.288-2.27-0.411-3.414h3.44
					C-437.443,63.735-437.303,64.871-437.157,66.007"/>
			</g>
			<g id="g744" transform="translate(447.71 627.01)">
				<path id="path746" fill="none" stroke="#918F90" stroke-width="0.454" d="M-437.157,66.007h-3.44
					c-0.142-1.136-0.288-2.27-0.411-3.414h3.44C-437.443,63.735-437.303,64.871-437.157,66.007z"/>
			</g>
			<g id="g748" transform="translate(448.18 630.42)">
				<path id="path750" fill="#FFFFFF" d="M-437.157,66.007h-3.446c-0.166-1.133-0.322-2.268-0.468-3.414h3.44
					C-437.485,63.736-437.324,64.872-437.157,66.007"/>
			</g>
			<g id="g752" transform="translate(448.18 630.42)">
				<path id="path754" fill="none" stroke="#918F90" stroke-width="0.454" d="M-437.157,66.007h-3.446
					c-0.166-1.133-0.322-2.268-0.468-3.414h3.44C-437.485,63.736-437.324,64.872-437.157,66.007z"/>
			</g>
			<g id="g756" transform="translate(448.72 633.84)">
				<path id="path758" fill="#FFFFFF" d="M-437.157,66.007h-3.462c-0.185-1.133-0.355-2.273-0.523-3.415h3.446
					C-437.525,63.734-437.347,64.873-437.157,66.007"/>
			</g>
			<g id="g760" transform="translate(448.72 633.84)">
				<path id="path762" fill="none" stroke="#918F90" stroke-width="0.454" d="M-437.157,66.007h-3.462
					c-0.185-1.133-0.355-2.273-0.523-3.415h3.446C-437.525,63.734-437.347,64.873-437.157,66.007z"/>
			</g>
			<g id="g764" transform="translate(449.13 636.24)">
				<path id="path766" fill="#FFFFFF" d="M-437.157,66.007c-0.142,0.332-0.264,0.674-0.4,1.008h-2.877
					c-0.206-1.131-0.404-2.271-0.594-3.412h3.463C-437.432,64.403-437.302,65.21-437.157,66.007"/>
			</g>
			<g id="g768" transform="translate(449.13 636.24)">
				<path id="path770" fill="none" stroke="#918F90" stroke-width="0.454" d="M-437.157,66.007c-0.142,0.332-0.264,0.674-0.4,1.008
					h-2.877c-0.206-1.131-0.404-2.271-0.594-3.412h3.463C-437.432,64.403-437.302,65.21-437.157,66.007z"/>
			</g>
			<g id="g772" transform="translate(560.76 480.22)">
				<path id="path774" fill="#FFFFFF" d="M-437.157,66.008h1.6c0.029,0.764,0.059,1.525,0.059,2.295v1.119h-1.706L-437.157,66.008z"
					/>
			</g>
			<g id="g776" transform="translate(560.76 480.22)">
				<path id="path778" fill="none" stroke="#918F90" stroke-width="0.454" d="M-437.157,66.008h1.6
					c0.029,0.764,0.059,1.525,0.059,2.295v1.119h-1.706L-437.157,66.008z"/>
			</g>
			<g id="g780" transform="translate(560.71 483.63)">
				<path id="path782" fill="#FFFFFF" d="M-437.157,66.007h1.705v3.413h-1.755L-437.157,66.007z"/>
			</g>
			<g id="g784" transform="translate(560.71 483.63)">
				<path id="path786" fill="none" stroke="#918F90" stroke-width="0.454" d="M-437.157,66.007h1.705v3.413h-1.755L-437.157,66.007z
					"/>
			</g>
			<g id="g788" transform="translate(560.66 487.05)">
				<path id="path790" fill="#FFFFFF" d="M-437.157,66.007h1.754v3.416h-1.801L-437.157,66.007z"/>
			</g>
			<g id="g792" transform="translate(560.66 487.05)">
				<path id="path794" fill="none" stroke="#918F90" stroke-width="0.454" d="M-437.157,66.007h1.754v3.416h-1.801L-437.157,66.007z
					"/>
			</g>
			<g id="g796" transform="translate(560.61 490.46)">
				<path id="path798" fill="#FFFFFF" d="M-437.157,66.007h1.802v3.414h-1.85L-437.157,66.007z"/>
			</g>
			<g id="g800" transform="translate(560.61 490.46)">
				<path id="path802" fill="none" stroke="#918F90" stroke-width="0.454" d="M-437.157,66.007h1.802v3.414h-1.85L-437.157,66.007z"
					/>
			</g>
			<g id="g804" transform="translate(560.56 493.88)">
				<path id="path806" fill="#FFFFFF" d="M-437.157,66.007h1.85v3.411h-1.901L-437.157,66.007z"/>
			</g>
			<g id="g808" transform="translate(560.56 493.88)">
				<path id="path810" fill="none" stroke="#918F90" stroke-width="0.454" d="M-437.157,66.007h1.85v3.411h-1.901L-437.157,66.007z"
					/>
			</g>
			<g id="g812" transform="translate(560.51 497.29)">
				<path id="path814" fill="#FFFFFF" d="M-437.157,66.008h1.901v3.414h-1.948L-437.157,66.008z"/>
			</g>
			<g id="g816" transform="translate(560.51 497.29)">
				<path id="path818" fill="none" stroke="#918F90" stroke-width="0.454" d="M-437.157,66.008h1.901v3.414h-1.948L-437.157,66.008z
					"/>
			</g>
			<g id="g820" transform="translate(560.47 500.7)">
				<path id="path822" fill="#FFFFFF" d="M-437.157,66.007h1.949v3.412h-1.997L-437.157,66.007z"/>
			</g>
			<g id="g824" transform="translate(560.47 500.7)">
				<path id="path826" fill="none" stroke="#918F90" stroke-width="0.454" d="M-437.157,66.007h1.949v3.412h-1.997L-437.157,66.007z
					"/>
			</g>
			<g id="g828" transform="translate(560.42 504.12)">
				<path id="path830" fill="#FFFFFF" d="M-437.157,66.008h1.998v3.416h-2.045L-437.157,66.008z"/>
			</g>
			<g id="g832" transform="translate(560.42 504.12)">
				<path id="path834" fill="none" stroke="#918F90" stroke-width="0.454" d="M-437.157,66.008h1.998v3.416h-2.045L-437.157,66.008z
					"/>
			</g>
			<g id="g836" transform="translate(560.37 507.53)">
				<path id="path838" fill="#FFFFFF" d="M-437.157,66.007h2.044v3.414h-2.091L-437.157,66.007z"/>
			</g>
			<g id="g840" transform="translate(560.37 507.53)">
				<path id="path842" fill="none" stroke="#918F90" stroke-width="0.454" d="M-437.157,66.007h2.044v3.414h-2.091L-437.157,66.007z
					"/>
			</g>
			<g id="g844" transform="translate(560.32 510.95)">
				<path id="path846" fill="#FFFFFF" d="M-437.157,66.007h2.092v3.414h-2.141L-437.157,66.007z"/>
			</g>
			<g id="g848" transform="translate(560.32 510.95)">
				<path id="path850" fill="none" stroke="#918F90" stroke-width="0.454" d="M-437.157,66.007h2.092v3.414h-2.141L-437.157,66.007z
					"/>
			</g>
			<g id="g852" transform="translate(560.27 514.36)">
				<path id="path854" fill="#FFFFFF" d="M-437.157,66.007h2.141v3.412h-2.191L-437.157,66.007z"/>
			</g>
			<g id="g856" transform="translate(560.27 514.36)">
				<path id="path858" fill="none" stroke="#918F90" stroke-width="0.454" d="M-437.157,66.007h2.141v3.412h-2.191L-437.157,66.007z
					"/>
			</g>
			<g id="g860" transform="translate(560.22 517.77)">
				<path id="path862" fill="#FFFFFF" d="M-437.157,66.008h2.191v3.412h-2.241L-437.157,66.008z"/>
			</g>
			<g id="g864" transform="translate(560.22 517.77)">
				<path id="path866" fill="none" stroke="#918F90" stroke-width="0.454" d="M-437.157,66.008h2.191v3.412h-2.241L-437.157,66.008z
					"/>
			</g>
			<g id="g868" transform="translate(560.17 521.19)">
				<path id="path870" fill="#FFFFFF" d="M-437.157,66.008h2.24v3.414h-2.287L-437.157,66.008z"/>
			</g>
			<g id="g872" transform="translate(560.17 521.19)">
				<path id="path874" fill="none" stroke="#918F90" stroke-width="0.454" d="M-437.157,66.008h2.24v3.414h-2.287L-437.157,66.008z"
					/>
			</g>
			<g id="g876" transform="translate(560.13 524.6)">
				<path id="path878" fill="#FFFFFF" d="M-437.157,66.007h2.287v3.411h-2.336L-437.157,66.007z"/>
			</g>
			<g id="g880" transform="translate(560.13 524.6)">
				<path id="path882" fill="none" stroke="#918F90" stroke-width="0.454" d="M-437.157,66.007h2.287v3.411h-2.336L-437.157,66.007z
					"/>
			</g>
			<g id="g884" transform="translate(560.08 528.01)">
				<path id="path886" fill="#FFFFFF" d="M-437.157,66.007h2.336v3.419h-2.387L-437.157,66.007z"/>
			</g>
			<g id="g888" transform="translate(560.08 528.01)">
				<path id="path890" fill="none" stroke="#918F90" stroke-width="0.454" d="M-437.157,66.007h2.336v3.419h-2.387L-437.157,66.007z
					"/>
			</g>
			<g id="g892" transform="translate(560.03 531.43)">
				<path id="path894" fill="#FFFFFF" d="M-437.157,66.007h2.388v3.411h-2.434L-437.157,66.007z"/>
			</g>
			<g id="g896" transform="translate(560.03 531.43)">
				<path id="path898" fill="none" stroke="#918F90" stroke-width="0.454" d="M-437.157,66.007h2.388v3.411h-2.434L-437.157,66.007z
					"/>
			</g>
			<g id="g900" transform="translate(559.98 534.84)">
				<path id="path902" fill="#FFFFFF" d="M-437.157,66.008h2.434v3.414h-2.484L-437.157,66.008z"/>
			</g>
			<g id="g904" transform="translate(559.98 534.84)">
				<path id="path906" fill="none" stroke="#918F90" stroke-width="0.454" d="M-437.157,66.008h2.434v3.414h-2.484L-437.157,66.008z
					"/>
			</g>
			<g id="g908" transform="translate(559.93 538.25)">
				<path id="path910" fill="#FFFFFF" d="M-437.157,66.007h2.482v3.416h-2.529L-437.157,66.007z"/>
			</g>
			<g id="g912" transform="translate(559.93 538.25)">
				<path id="path914" fill="none" stroke="#918F90" stroke-width="0.454" d="M-437.157,66.007h2.482v3.416h-2.529L-437.157,66.007z
					"/>
			</g>
			<g id="g916" transform="translate(559.88 541.67)">
				<path id="path918" fill="#FFFFFF" d="M-437.157,66.008h2.529v3.414h-2.577L-437.157,66.008z"/>
			</g>
			<g id="g920" transform="translate(559.88 541.67)">
				<path id="path922" fill="none" stroke="#918F90" stroke-width="0.454" d="M-437.157,66.008h2.529v3.414h-2.577L-437.157,66.008z
					"/>
			</g>
			<g id="g924" transform="translate(559.84 545.08)">
				<path id="path926" fill="#FFFFFF" d="M-437.156,66.007h2.577v3.414h-2.629L-437.156,66.007z"/>
			</g>
			<g id="g928" transform="translate(559.84 545.08)">
				<path id="path930" fill="none" stroke="#918F90" stroke-width="0.454" d="M-437.156,66.007h2.577v3.414h-2.629L-437.156,66.007z
					"/>
			</g>
			<g id="g932" transform="translate(559.79 548.5)">
				<path id="path934" fill="#FFFFFF" d="M-437.156,66.007h2.629v3.412h-2.677L-437.156,66.007z"/>
			</g>
			<g id="g936" transform="translate(559.79 548.5)">
				<path id="path938" fill="none" stroke="#918F90" stroke-width="0.454" d="M-437.156,66.007h2.629v3.412h-2.677L-437.156,66.007z
					"/>
			</g>
			<g id="g940" transform="translate(559.74 551.91)">
				<path id="path942" fill="#FFFFFF" d="M-437.156,66.007h2.675v3.416h-2.723L-437.156,66.007z"/>
			</g>
			<g id="g944" transform="translate(559.74 551.91)">
				<path id="path946" fill="none" stroke="#918F90" stroke-width="0.454" d="M-437.156,66.007h2.675v3.416h-2.723L-437.156,66.007z
					"/>
			</g>
			<g id="g948" transform="translate(559.69 555.32)">
				<path id="path950" fill="#FFFFFF" d="M-437.156,66.008h2.725v3.414h-2.773L-437.156,66.008z"/>
			</g>
			<g id="g952" transform="translate(559.69 555.32)">
				<path id="path954" fill="none" stroke="#918F90" stroke-width="0.454" d="M-437.156,66.008h2.725v3.414h-2.773L-437.156,66.008z
					"/>
			</g>
			<g id="g956" transform="translate(559.64 558.74)">
				<path id="path958" fill="#FFFFFF" d="M-437.156,66.007h2.772v3.414h-2.82L-437.156,66.007z"/>
			</g>
			<g id="g960" transform="translate(559.64 558.74)">
				<path id="path962" fill="none" stroke="#918F90" stroke-width="0.454" d="M-437.156,66.007h2.772v3.414h-2.82L-437.156,66.007z"
					/>
			</g>
			<g id="g964" transform="translate(559.59 562.15)">
				<path id="path966" fill="#FFFFFF" d="M-437.156,66.007h2.82v3.414h-2.87L-437.156,66.007z"/>
			</g>
			<g id="g968" transform="translate(559.59 562.15)">
				<path id="path970" fill="none" stroke="#918F90" stroke-width="0.454" d="M-437.156,66.007h2.82v3.414h-2.87L-437.156,66.007z"
					/>
			</g>
			<g id="g972" transform="translate(559.55 565.56)">
				<path id="path974" fill="#FFFFFF" d="M-437.157,66.007h2.87v3.413h-2.92L-437.157,66.007z"/>
			</g>
			<g id="g976" transform="translate(559.55 565.56)">
				<path id="path978" fill="none" stroke="#918F90" stroke-width="0.454" d="M-437.157,66.007h2.87v3.413h-2.92L-437.157,66.007z"
					/>
			</g>
			<g id="g980" transform="translate(559.49 568.98)">
				<path id="path982" fill="#FFFFFF" d="M-437.156,66.007h2.92v3.416h-2.966L-437.156,66.007z"/>
			</g>
			<g id="g984" transform="translate(559.49 568.98)">
				<path id="path986" fill="none" stroke="#918F90" stroke-width="0.454" d="M-437.156,66.007h2.92v3.416h-2.966L-437.156,66.007z"
					/>
			</g>
			<g id="g988" transform="translate(559.45 572.39)">
				<path id="path990" fill="#FFFFFF" d="M-437.157,66.007h2.966v3.414h-3.016L-437.157,66.007z"/>
			</g>
			<g id="g992" transform="translate(559.45 572.39)">
				<path id="path994" fill="none" stroke="#918F90" stroke-width="0.454" d="M-437.157,66.007h2.966v3.414h-3.016L-437.157,66.007z
					"/>
			</g>
			<g id="g996" transform="translate(559.4 575.81)">
				<path id="path998" fill="#FFFFFF" d="M-437.157,66.007h3.016v3.412h-3.062L-437.157,66.007z"/>
			</g>
			<g id="g1000" transform="translate(559.4 575.81)">
				<path id="path1002" fill="none" stroke="#918F90" stroke-width="0.454" d="M-437.157,66.007h3.016v3.412h-3.062L-437.157,66.007
					z"/>
			</g>
			<g id="g1004" transform="translate(559.35 579.22)">
				<path id="path1006" fill="#FFFFFF" d="M-437.157,66.008h3.062v3.417h-3.112L-437.157,66.008z"/>
			</g>
			<g id="g1008" transform="translate(559.35 579.22)">
				<path id="path1010" fill="none" stroke="#918F90" stroke-width="0.454" d="M-437.157,66.008h3.062v3.417h-3.112L-437.157,66.008
					z"/>
			</g>
			<g id="g1012" transform="translate(559.3 582.63)">
				<path id="path1014" fill="#FFFFFF" d="M-437.157,66.007h3.112v3.411h-3.162L-437.157,66.007z"/>
			</g>
			<g id="g1016" transform="translate(559.3 582.63)">
				<path id="path1018" fill="none" stroke="#918F90" stroke-width="0.454" d="M-437.157,66.007h3.112v3.411h-3.162L-437.157,66.007
					z"/>
			</g>
			<g id="g1020" transform="translate(559.25 586.05)">
				<path id="path1022" fill="#FFFFFF" d="M-437.157,66.007h3.162v3.415h-3.209L-437.157,66.007z"/>
			</g>
			<g id="g1024" transform="translate(559.25 586.05)">
				<path id="path1026" fill="none" stroke="#918F90" stroke-width="0.454" d="M-437.157,66.007h3.162v3.415h-3.209L-437.157,66.007
					z"/>
			</g>
			<g id="g1028" transform="translate(559.2 589.46)">
				<path id="path1030" fill="#FFFFFF" d="M-437.157,66.007h3.209v3.414h-3.257L-437.157,66.007z"/>
			</g>
			<g id="g1032" transform="translate(559.2 589.46)">
				<path id="path1034" fill="none" stroke="#918F90" stroke-width="0.454" d="M-437.157,66.007h3.209v3.414h-3.257L-437.157,66.007
					z"/>
			</g>
			<g id="g1036" transform="translate(559.16 592.87)">
				<path id="path1038" fill="#FFFFFF" d="M-437.157,66.008h3.257v3.414h-3.305L-437.157,66.008z"/>
			</g>
			<g id="g1040" transform="translate(559.16 592.87)">
				<path id="path1042" fill="none" stroke="#918F90" stroke-width="0.454" d="M-437.157,66.008h3.257v3.414h-3.305L-437.157,66.008
					z"/>
			</g>
			<g id="g1044" transform="translate(559.11 596.29)">
				<path id="path1046" fill="#FFFFFF" d="M-437.157,66.007h3.305v3.412h-3.356L-437.157,66.007z"/>
			</g>
			<g id="g1048" transform="translate(559.11 596.29)">
				<path id="path1050" fill="none" stroke="#918F90" stroke-width="0.454" d="M-437.157,66.007h3.305v3.412h-3.356L-437.157,66.007
					z"/>
			</g>
			<g id="g1052" transform="translate(559.06 599.7)">
				<path id="path1054" fill="#FFFFFF" d="M-437.157,66.007h3.356v3.412h-3.404L-437.157,66.007z"/>
			</g>
			<g id="g1056" transform="translate(559.06 599.7)">
				<path id="path1058" fill="none" stroke="#918F90" stroke-width="0.454" d="M-437.157,66.007h3.356v3.412h-3.404L-437.157,66.007
					z"/>
			</g>
			<g id="g1060" transform="translate(559 603.75)">
				<path id="path1062" fill="#FFFFFF" d="M-437.157,66.007l0.009-0.641h3.405v0.641c0,0.927-0.024,1.852-0.039,2.776h-3.405
					C-437.175,67.859-437.157,66.934-437.157,66.007"/>
			</g>
			<g id="g1064" transform="translate(559 603.75)">
				<path id="path1066" fill="none" stroke="#918F90" stroke-width="0.454" d="M-437.157,66.007l0.009-0.641h3.405v0.641
					c0,0.927-0.024,1.852-0.039,2.776h-3.405C-437.175,67.859-437.157,66.934-437.157,66.007z"/>
			</g>
			<g id="g1068" transform="translate(558.97 606.53)">
				<path id="path1070" fill="#FFFFFF" d="M-437.157,66.007h3.405c-0.016,1.138-0.041,2.277-0.08,3.412h-3.413
					C-437.204,68.284-437.175,67.145-437.157,66.007"/>
			</g>
			<g id="g1072" transform="translate(558.97 606.53)">
				<path id="path1074" fill="none" stroke="#918F90" stroke-width="0.454" d="M-437.157,66.007h3.405
					c-0.016,1.138-0.041,2.277-0.08,3.412h-3.413C-437.204,68.284-437.175,67.145-437.157,66.007z"/>
			</g>
			<g id="g1076" transform="translate(558.88 609.94)">
				<path id="path1078" fill="#FFFFFF" d="M-437.157,66.007h3.414c-0.039,1.141-0.08,2.28-0.139,3.415h-3.423
					C-437.246,68.285-437.196,67.147-437.157,66.007"/>
			</g>
			<g id="g1080" transform="translate(558.88 609.94)">
				<path id="path1082" fill="none" stroke="#918F90" stroke-width="0.454" d="M-437.157,66.007h3.414
					c-0.039,1.141-0.08,2.28-0.139,3.415h-3.423C-437.246,68.285-437.196,67.147-437.157,66.007z"/>
			</g>
			<g id="g1084" transform="translate(558.73 613.36)">
				<path id="path1086" fill="#FFFFFF" d="M-437.157,66.007h3.423c-0.059,1.141-0.141,2.277-0.222,3.414h-3.412
					C-437.287,68.284-437.219,67.146-437.157,66.007"/>
			</g>
			<g id="g1088" transform="translate(558.73 613.36)">
				<path id="path1090" fill="none" stroke="#918F90" stroke-width="0.454" d="M-437.157,66.007h3.423
					c-0.059,1.141-0.141,2.277-0.222,3.414h-3.412C-437.287,68.284-437.219,67.146-437.157,66.007z"/>
			</g>
			<g id="g1092" transform="translate(558.52 616.77)">
				<path id="path1094" fill="#FFFFFF" d="M-437.157,66.008h3.411c-0.081,1.137-0.171,2.278-0.272,3.411h-3.413
					C-437.328,68.286-437.24,67.145-437.157,66.008"/>
			</g>
			<g id="g1096" transform="translate(558.52 616.77)">
				<path id="path1098" fill="none" stroke="#918F90" stroke-width="0.454" d="M-437.157,66.008h3.411
					c-0.081,1.137-0.171,2.278-0.272,3.411h-3.413C-437.328,68.286-437.24,67.145-437.157,66.008z"/>
			</g>
			<g id="g1100" transform="translate(558.25 620.18)">
				<path id="path1102" fill="#FFFFFF" d="M-437.157,66.007h3.414c-0.102,1.141-0.201,2.281-0.325,3.416h-3.439
					C-437.382,68.287-437.261,67.151-437.157,66.007"/>
			</g>
			<g id="g1104" transform="translate(558.25 620.18)">
				<path id="path1106" fill="none" stroke="#918F90" stroke-width="0.454" d="M-437.157,66.007h3.414
					c-0.102,1.141-0.201,2.281-0.325,3.416h-3.439C-437.382,68.287-437.261,67.151-437.157,66.007z"/>
			</g>
			<g id="g1108" transform="translate(557.9 623.6)">
				<path id="path1110" fill="#FFFFFF" d="M-437.157,66.007h3.438c-0.123,1.144-0.267,2.278-0.41,3.414h-3.439
					C-437.421,68.286-437.282,67.148-437.157,66.007"/>
			</g>
			<g id="g1112" transform="translate(557.9 623.6)">
				<path id="path1114" fill="none" stroke="#918F90" stroke-width="0.454" d="M-437.157,66.007h3.438
					c-0.123,1.144-0.267,2.278-0.41,3.414h-3.439C-437.421,68.286-437.282,67.148-437.157,66.007z"/>
			</g>
			<g id="g1116" transform="translate(557.49 627.01)">
				<path id="path1118" fill="#FFFFFF" d="M-437.156,66.007h3.438c-0.145,1.145-0.302,2.281-0.469,3.414h-3.447
					C-437.466,68.285-437.306,67.15-437.156,66.007"/>
			</g>
			<g id="g1120" transform="translate(557.49 627.01)">
				<path id="path1122" fill="none" stroke="#918F90" stroke-width="0.454" d="M-437.156,66.007h3.438
					c-0.145,1.145-0.302,2.281-0.469,3.414h-3.447C-437.466,68.285-437.306,67.15-437.156,66.007z"/>
			</g>
			<g id="g1124" transform="translate(557.01 630.42)">
				<path id="path1126" fill="#FFFFFF" d="M-437.157,66.007h3.446c-0.166,1.143-0.336,2.282-0.522,3.415h-3.459
					C-437.503,68.288-437.325,67.15-437.157,66.007"/>
			</g>
			<g id="g1128" transform="translate(557.01 630.42)">
				<path id="path1130" fill="none" stroke="#918F90" stroke-width="0.454" d="M-437.157,66.007h3.446
					c-0.166,1.143-0.336,2.282-0.522,3.415h-3.459C-437.503,68.288-437.325,67.15-437.157,66.007z"/>
			</g>
			<g id="g1132" transform="translate(556.07 636.24)">
				<path id="path1134" fill="#FFFFFF" d="M-437.157,66.007c0.143-0.796,0.272-1.603,0.407-2.403h3.459
					c-0.188,1.142-0.384,2.281-0.594,3.413h-2.876C-436.897,66.68-437.016,66.338-437.157,66.007"/>
			</g>
			<g id="g1136" transform="translate(556.07 636.24)">
				<path id="path1138" fill="none" stroke="#918F90" stroke-width="0.454" d="M-437.157,66.007
					c0.143-0.796,0.272-1.603,0.407-2.403h3.459c-0.188,1.142-0.384,2.281-0.594,3.413h-2.876
					C-436.897,66.68-437.016,66.338-437.157,66.007z"/>
			</g>
			<path id="path1140" fill="#FFFFFF" stroke="#918F90" stroke-width="0.454" d="M104.743,661.717h-78.6v-42.05h78.6V661.717
				L104.743,661.717z"/>
			<g id="g1142" transform="translate(508.57 574.68)">
				<path id="path1144" fill="#FFFFFF" d="M-437.157,66.007c0,3.299-2.675,5.977-5.974,5.977c-3.3,0-5.975-2.677-5.975-5.977
					c0-3.3,2.675-5.973,5.975-5.973C-439.832,60.034-437.157,62.707-437.157,66.007"/>
			</g>
			<g id="g1146" transform="translate(508.57 574.68)">
				<path id="path1148" fill="none" stroke="#918F90" stroke-width="0.454" d="M-437.157,66.007c0,3.299-2.675,5.977-5.974,5.977
					c-3.3,0-5.975-2.677-5.975-5.977c0-3.3,2.675-5.973,5.975-5.973C-439.832,60.034-437.157,62.707-437.157,66.007z"/>
			</g>
			<g id="g1150" transform="translate(479.12 580.65)">
				<path id="path1152" fill="#FFFFFF" d="M-437.157,66.007l-15.82,3.622V50.447l15.936,3.621c3.299,0,5.973,2.673,5.973,5.973
					s-2.673,5.977-5.973,5.977C-437.082,66.018-437.118,66.007-437.157,66.007"/>
			</g>
			<g id="g1154" transform="translate(479.12 580.65)">
				<path id="path1156" fill="none" stroke="#918F90" stroke-width="0.454" d="M-437.157,66.007l-15.82,3.622V50.447l15.936,3.621
					c3.299,0,5.973,2.673,5.973,5.973s-2.673,5.977-5.973,5.977C-437.082,66.018-437.118,66.007-437.157,66.007z"/>
			</g>
			<g id="g1158" transform="translate(479.24 568.71)">
				<path id="path1160" fill="#FFFFFF" stroke="#918F90" stroke-width="0.454" d="M-437.156,66.007v11.95"/>
			</g>
			<g id="g1162" transform="translate(526.01 580.65)">
				<path id="path1164" fill="#FFFFFF" d="M-437.157,66.007l15.821,3.622V50.447l-15.936,3.621c-3.299,0-5.972,2.673-5.972,5.973
					s2.673,5.977,5.972,5.977C-437.231,66.018-437.197,66.007-437.157,66.007"/>
			</g>
			<g id="g1166" transform="translate(526.01 580.65)">
				<path id="path1168" fill="none" stroke="#918F90" stroke-width="0.454" d="M-437.157,66.007l15.821,3.622V50.447l-15.936,3.621
					c-3.299,0-5.972,2.673-5.972,5.973s2.673,5.977,5.972,5.977C-437.231,66.018-437.197,66.007-437.157,66.007z"/>
			</g>
			<g id="g1170" transform="translate(525.9 568.71)">
				<path id="path1172" fill="#FFFFFF" stroke="#918F90" stroke-width="0.454" d="M-437.157,66.007v11.95"/>
			</g>
			<g id="g1174" transform="translate(502.6 553.66)">
				<path id="path1176" fill="#FFFFFF" d="M-437.157,66.007v41.952"/>
			</g>
			<g id="g1178" transform="translate(502.6 553.66)">
				<path id="path1180" fill="none" stroke="#918F90" stroke-width="0.454" d="M-437.157,66.007v41.952 M-462.318,41.707
					c0,0-8.177,3.681-13.355,5.588c-5.179,1.906-8.312,1.772-11.583,1.772s-7.256,1.534-7.256,1.534"/>
			</g>
			<g id="g1182" transform="translate(537.57 428.81)">
				<path id="path1184" fill="none" stroke="#918F90" stroke-width="0.454" stroke-linejoin="round" d="M-437.157,66.007l2.57,1.867
					v10.917l-2.57-1.863V66.007z M-439.725,64.143l2.569,1.864v10.922l-2.569-1.867V64.143z M-442.295,62.277l2.57,1.866v10.919
					l-2.57-1.864V62.277z M-507.1,66.007l-2.57,1.867v10.917l2.57-1.863V66.007z M-504.532,64.143l-2.569,1.864v10.922l2.569-1.867
					V64.143z M-501.963,62.277l-2.57,1.866v10.919l2.57-1.864V62.277z"/>
			</g>
			<g id="g1186" transform="translate(502.6 524.87)">
				<path id="path1188" fill="none" stroke="#918F90" stroke-width="0.454" d="M-437.157,66.008c-4.077,0-8.007,0.303-11.697,0.859
					V50.411h23.395v16.456c-21.278-0.859-30.039,0.803-36.788,3.547c-0.669-3.378-1.036-6.947-1.036-10.642
					c0-21.105,11.696-38.213,26.125-38.213c14.43,0,26.127,17.108,26.127,38.213c0,3.695-0.368,7.264-1.036,10.642
					C-418.815,67.67-427.573,66.008-437.157,66.008z M-392.107,4.826c-0.8-2.114-3.164-3.178-5.277-2.378l-9.846,3.723
					c-2.117,0.797-3.184,3.163-2.384,5.277l9.243,24.439c0.8,2.116,3.163,3.18,5.277,2.38l9.85-3.725
					c2.114-0.8,3.179-3.164,2.379-5.278L-392.107,4.826z M-383.484,27.623l-12.402,4.692l-8.001-21.155l12.402-4.692
					L-383.484,27.623z M-409.214-34.672v8.247l-6.736,1.364 M-465.098-34.672v8.247l6.736,1.364"/>
			</g>
			<g id="g1190" transform="translate(465.02 440.86)">
				<path id="path1192" fill="none" stroke="#918F90" stroke-width="0.454" stroke-linejoin="round" d="M-437.157,66.007
					c0,25.472,21.832,25.925,21.832,46.85"/>
			</g>
			<g id="g1194" transform="translate(481.54 398.33)">
				<path id="path1196" fill="none" stroke="#918F90" stroke-width="0.454" d="M-437.156,66.007
					c7.307-0.878,14.788-1.358,21.055-1.358c6.267,0,13.75,0.48,21.058,1.358v61.811h-42.113V66.007z M-432.479,65.406
					c5.83-0.488,11.745-0.756,16.377-0.756c4.634,0,10.549,0.269,16.378,0.756v58.125h-32.755V65.406z"/>
			</g>
		</g>
	</g>
	<g id="g13698">
		<g id="g13700">
			<g id="g15618" transform="translate(480.6 622.1)">
				<path id="path15620" fill="#231F20" d="M-437.157,66.007v0.682l-2.046-0.682v-0.766c-0.166,0.4-0.562,0.681-1.023,0.681
					c-0.613,0-1.109-0.495-1.109-1.109c0-0.612,0.496-1.109,1.109-1.109c0.462,0,0.857,0.283,1.023,0.684v-0.771l2.046-0.681v0.681
					l2.729-0.681v0.956l3.496,0.367v1.109l-3.496,0.368v0.952L-437.157,66.007z"/>
			</g>
			<g id="g15622" transform="translate(465.25 621.76)">
				<path id="path15624" fill="#231F20" d="M-437.157,66.007v-0.419c-0.166,0.402-0.562,0.683-1.022,0.683
					c-0.615,0-1.11-0.498-1.11-1.109c0-0.614,0.495-1.109,1.11-1.109c0.46,0,0.855,0.28,1.022,0.684v-0.436
					c0-0.564,0.459-1.024,1.024-1.024h2.559c0.714,0,1.011,0.4,1.127,0.989h3.563v1.791h-3.566c-0.116,0.58-0.415,0.973-1.123,0.973
					h-2.559C-436.698,67.029-437.157,66.573-437.157,66.007"/>
			</g>
		</g>
	</g>
	<g id="rock-climbing-wall">
		<text transform="matrix(0.8 0 0 -0.8 36.7633 670.7879)" fill="#231F20" font-family="'ArialNarrow-Bold'" font-size="7.5169">R</text>
		<text transform="matrix(0.8 0 0 -0.8 40.2832 670.7879)" fill="#231F20" font-family="'ArialNarrow-Bold'" font-size="7.5169">O</text>
		<text transform="matrix(0.8 0 0 -0.8 44.1433 670.7879)" fill="#231F20" font-family="'ArialNarrow-Bold'" font-size="7.5169">C</text>
		<text transform="matrix(0.8 0 0 -0.8 47.6633 670.7879)" fill="#231F20" font-family="'ArialNarrow-Bold'" font-size="7.5169">K</text>
		<text transform="matrix(0.8 0 0 -0.8 51.1933 670.7879)" fill="#231F20" font-family="'ArialNarrow-Bold'" font-size="7.5169"> </text>
		<text transform="matrix(0.8 0 0 -0.8 52.7031 670.7879)" fill="#231F20" font-family="'ArialNarrow-Bold'" font-size="7.5169">C</text>
		<text transform="matrix(0.8 0 0 -0.8 56.2332 670.7879)" fill="#231F20" font-family="'ArialNarrow-Bold'" font-size="7.5169">L</text>
		<text transform="matrix(0.8 0 0 -0.8 59.0832 670.7879)" fill="#231F20" font-family="'ArialNarrow-Bold'" font-size="7.5169">I</text>
		<text transform="matrix(0.8 0 0 -0.8 60.9332 670.7879)" fill="#231F20" font-family="'ArialNarrow-Bold'" font-size="7.5169">M</text>
		<text transform="matrix(0.8 0 0 -0.8 66.1234 670.7879)" fill="#231F20" font-family="'ArialNarrow-Bold'" font-size="7.5169">B</text>
		<text transform="matrix(0.8 0 0 -0.8 69.9734 670.7879)" fill="#231F20" font-family="'ArialNarrow-Bold'" font-size="7.5169">I</text>
		<text transform="matrix(0.8 0 0 -0.8 71.8234 670.7879)" fill="#231F20" font-family="'ArialNarrow-Bold'" font-size="7.5169">N</text>
		<text transform="matrix(0.8 0 0 -0.8 76.0234 670.7879)" fill="#231F20" font-family="'ArialNarrow-Bold'" font-size="7.5169">G</text>
		<text transform="matrix(0.8 0 0 -0.8 79.8734 670.7879)" fill="#231F20" font-family="'ArialNarrow-Bold'" font-size="7.5169"> </text>
		<text transform="matrix(0.8 0 0 -0.8 81.3937 670.7879)" fill="#231F20" font-family="'ArialNarrow-Bold'" font-size="7.5169">W</text>
		<text transform="matrix(0.8 0 0 -0.8 86.8031 670.7879)" fill="#231F20" font-family="'ArialNarrow-Bold'" font-size="7.5169">A</text>
		<text transform="matrix(0.8 0 0 -0.8 90.6633 670.7879)" fill="#231F20" font-family="'ArialNarrow-Bold'" font-size="7.5169">L</text>
		<text transform="matrix(0.8 0 0 -0.8 93.5133 670.7879)" fill="#231F20" font-family="'ArialNarrow-Bold'" font-size="7.5169">L</text>
	</g>
	<text transform="matrix(0 0.8 0.8 0 37.2332 762.9481)" fill="#231F20" font-family="'ArialNarrow-Bold'" font-size="7.5169">E</text>
	<text transform="matrix(0 0.8 0.8 0 37.2332 766.1379)" fill="#231F20" font-family="'ArialNarrow-Bold'" font-size="7.5169">L</text>
	<text transform="matrix(0 0.8 0.8 0 37.2332 768.9879)" fill="#231F20" font-family="'ArialNarrow-Bold'" font-size="7.5169">E</text>
	<text transform="matrix(0 0.8 0.8 0 37.2332 772.1676)" fill="#231F20" font-family="'ArialNarrow-Bold'" font-size="7.5169">V</text>
	<text transform="matrix(0 0.8 0.8 0 37.2332 775.248)" fill="#231F20" font-family="'ArialNarrow-Bold'" font-size="7.5169">.</text>
	<g id="sports-court">
		<text transform="matrix(0.8 0 0 -0.8 44.8633 608.5676)" fill="#231F20" font-family="'ArialNarrow-Bold'" font-size="7.5169">S</text>
		<text transform="matrix(0.8 0 0 -0.8 48.3933 608.5676)" fill="#231F20" font-family="'ArialNarrow-Bold'" font-size="7.5169">P</text>
		<text transform="matrix(0.8 0 0 -0.8 51.9133 608.5676)" fill="#231F20" font-family="'ArialNarrow-Bold'" font-size="7.5169">O</text>
		<text transform="matrix(0.8 0 0 -0.8 55.7633 608.5676)" fill="#231F20" font-family="'ArialNarrow-Bold'" font-size="7.5169">R</text>
		<text transform="matrix(0.8 0 0 -0.8 59.2933 608.5676)" fill="#231F20" font-family="'ArialNarrow-Bold'" font-size="7.5169">T</text>
		<text transform="matrix(0.8 0 0 -0.8 62.4832 608.5676)" fill="#231F20" font-family="'ArialNarrow-Bold'" font-size="7.5169">S</text>
		<text transform="matrix(0.8 0 0 -0.8 66.0031 608.5676)" fill="#231F20" font-family="'ArialNarrow-Bold'" font-size="7.5169"> </text>
		<text transform="matrix(0.8 0 0 -0.8 67.5234 608.5676)" fill="#231F20" font-family="'ArialNarrow-Bold'" font-size="7.5169">C</text>
		<text transform="matrix(0.8 0 0 -0.8 71.0437 608.5676)" fill="#231F20" font-family="'ArialNarrow-Bold'" font-size="7.5169">O</text>
		<text transform="matrix(0.8 0 0 -0.8 74.8937 608.5676)" fill="#231F20" font-family="'ArialNarrow-Bold'" font-size="7.5169">U</text>
		<text transform="matrix(0.8 0 0 -0.8 78.7531 608.5676)" fill="#231F20" font-family="'ArialNarrow-Bold'" font-size="7.5169">R</text>
		<text transform="matrix(0.8 0 0 -0.8 82.2734 608.5676)" fill="#231F20" font-family="'ArialNarrow-Bold'" font-size="7.5169">T</text>
	</g>
	<g id="flowrider">
		<text transform="matrix(0.8 0 0 -0.8 49.6531 490.5676)" fill="#231F20" font-family="'ArialNarrow-Bold'" font-size="7.5169">F</text>
		<text transform="matrix(0.8 0 0 -0.8 52.5031 490.5676)" fill="#231F20" font-family="'ArialNarrow-Bold'" font-size="7.5169">L</text>
		<text transform="matrix(0.8 0 0 -0.8 55.3531 490.5676)" fill="#231F20" font-family="'ArialNarrow-Bold'" font-size="7.5169">O</text>
		<text transform="matrix(0.8 0 0 -0.8 59.2031 490.5676)" fill="#231F20" font-family="'ArialNarrow-Bold'" font-size="7.5169">W</text>
		<text transform="matrix(0.8 0 0 -0.8 64.7332 490.5676)" fill="#231F20" font-family="'ArialNarrow-Bold'" font-size="7.5169">R</text>
		<text transform="matrix(0.8 0 0 -0.8 68.2531 490.5676)" fill="#231F20" font-family="'ArialNarrow-Bold'" font-size="7.5169">I</text>
		<text transform="matrix(0.8 0 0 -0.8 70.1133 490.5676)" fill="#231F20" font-family="'ArialNarrow-Bold'" font-size="7.5169">D</text>
		<text transform="matrix(0.8 0 0 -0.8 73.9633 490.5676)" fill="#231F20" font-family="'ArialNarrow-Bold'" font-size="7.5169">E</text>
		<text transform="matrix(0.8 0 0 -0.8 77.1531 490.5676)" fill="#231F20" font-family="'ArialNarrow-Bold'" font-size="7.5169">R</text>
	</g>
	<g id="golf-simulator">
		<text transform="matrix(0.8 0 0 -0.8 58.4531 564.5379)" fill="#231F20" font-family="'ArialNarrow-Bold'" font-size="7.5169">G</text>
		<text transform="matrix(0.8 0 0 -0.8 62.3133 564.5379)" fill="#231F20" font-family="'ArialNarrow-Bold'" font-size="7.5169">O</text>
		<text transform="matrix(0.8 0 0 -0.8 66.1633 564.5379)" fill="#231F20" font-family="'ArialNarrow-Bold'" font-size="7.5169">L</text>
		<text transform="matrix(0.8 0 0 -0.8 69.0133 564.5379)" fill="#231F20" font-family="'ArialNarrow-Bold'" font-size="7.5169">F</text>
		<text transform="matrix(0.8 0 0 -0.8 49.4933 558.5277)" fill="#231F20" font-family="'ArialNarrow-Bold'" font-size="7.5169">S</text>
		<text transform="matrix(0.8 0 0 -0.8 53.0234 558.5277)" fill="#231F20" font-family="'ArialNarrow-Bold'" font-size="7.5169">I</text>
		<text transform="matrix(0.8 0 0 -0.8 54.8734 558.5277)" fill="#231F20" font-family="'ArialNarrow-Bold'" font-size="7.5169">M</text>
		<text transform="matrix(0.8 0 0 -0.8 60.0633 558.5277)" fill="#231F20" font-family="'ArialNarrow-Bold'" font-size="7.5169">U</text>
		<text transform="matrix(0.8 0 0 -0.8 63.9133 558.5277)" fill="#231F20" font-family="'ArialNarrow-Bold'" font-size="7.5169">L</text>
		<text transform="matrix(0.8 0 0 -0.8 66.7633 558.5277)" fill="#231F20" font-family="'ArialNarrow-Bold'" font-size="7.5169">A</text>
		<text transform="matrix(0.8 0 0 -0.8 70.2633 558.5277)" fill="#231F20" font-family="'ArialNarrow-Bold'" font-size="7.5169">T</text>
		<text transform="matrix(0.8 0 0 -0.8 73.4437 558.5277)" fill="#231F20" font-family="'ArialNarrow-Bold'" font-size="7.5169">O</text>
		<text transform="matrix(0.8 0 0 -0.8 77.3031 558.5277)" fill="#231F20" font-family="'ArialNarrow-Bold'" font-size="7.5169">R</text>
	</g>
	<g id="independence-dunes">
		<text transform="matrix(0.72 0 0 -0.8 9.2531 548.8676)" fill="#231F20" font-family="'ArialNarrow-Bold'" font-size="7.5169">I</text>
		<text transform="matrix(0.72 0 0 -0.8 10.9234 548.8676)" fill="#231F20" font-family="'ArialNarrow-Bold'" font-size="7.5169">N</text>
		<text transform="matrix(0.72 0 0 -0.8 14.6937 548.8676)" fill="#231F20" font-family="'ArialNarrow-Bold'" font-size="7.5169">D</text>
		<text transform="matrix(0.72 0 0 -0.8 18.1633 548.8676)" fill="#231F20" font-family="'ArialNarrow-Bold'" font-size="7.5169">E</text>
		<text transform="matrix(0.72 0 0 -0.8 21.0328 548.8676)" fill="#231F20" font-family="'ArialNarrow-Bold'" font-size="7.5169">P</text>
		<text transform="matrix(0.72 0 0 -0.8 24.2031 548.8676)" fill="#231F20" font-family="'ArialNarrow-Bold'" font-size="7.5169">E</text>
		<text transform="matrix(0.72 0 0 -0.8 27.0734 548.8676)" fill="#231F20" font-family="'ArialNarrow-Bold'" font-size="7.5169">N</text>
		<text transform="matrix(0.72 0 0 -0.8 30.8437 548.8676)" fill="#231F20" font-family="'ArialNarrow-Bold'" font-size="7.5169">D</text>
		<text transform="matrix(0.72 0 0 -0.8 34.3133 548.8676)" fill="#231F20" font-family="'ArialNarrow-Bold'" font-size="7.5169">E</text>
		<text transform="matrix(0.72 0 0 -0.8 37.1828 548.8676)" fill="#231F20" font-family="'ArialNarrow-Bold'" font-size="7.5169">N</text>
		<text transform="matrix(0.72 0 0 -0.8 40.9531 548.8676)" fill="#231F20" font-family="'ArialNarrow-Bold'" font-size="7.5169">C</text>
		<text transform="matrix(0.72 0 0 -0.8 44.1234 548.8676)" fill="#231F20" font-family="'ArialNarrow-Bold'" font-size="7.5169">E</text>
		<text transform="matrix(0.72 0 0 -0.8 19.7531 542.8574)" fill="#231F20" font-family="'ArialNarrow-Bold'" font-size="7.5169">D</text>
		<text transform="matrix(0.72 0 0 -0.8 23.2234 542.8574)" fill="#231F20" font-family="'ArialNarrow-Bold'" font-size="7.5169">U</text>
		<text transform="matrix(0.72 0 0 -0.8 26.6937 542.8574)" fill="#231F20" font-family="'ArialNarrow-Bold'" font-size="7.5169">N</text>
		<text transform="matrix(0.72 0 0 -0.8 30.4633 542.8574)" fill="#231F20" font-family="'ArialNarrow-Bold'" font-size="7.5169">E</text>
		<text transform="matrix(0.72 0 0 -0.8 33.3328 542.8574)" fill="#231F20" font-family="'ArialNarrow-Bold'" font-size="7.5169">S</text>
	</g>
	<g id="wipe-out">
		<text transform="matrix(0.8 0 0 -0.8 101.6031 546.798)" fill="#231F20" font-family="'ArialNarrow-Bold'" font-size="7.5169">W</text>
		<text transform="matrix(0.8 0 0 -0.8 107.1234 546.798)" fill="#231F20" font-family="'ArialNarrow-Bold'" font-size="7.5169">I</text>
		<text transform="matrix(0.8 0 0 -0.8 108.9828 546.798)" fill="#231F20" font-family="'ArialNarrow-Bold'" font-size="7.5169">P</text>
		<text transform="matrix(0.8 0 0 -0.8 112.5031 546.798)" fill="#231F20" font-family="'ArialNarrow-Bold'" font-size="7.5169">E</text>
		<text transform="matrix(0.8 0 0 -0.8 102.1031 540.7879)" fill="#231F20" font-family="'ArialNarrow-Bold'" font-size="7.5169">O</text>
		<text transform="matrix(0.8 0 0 -0.8 105.9633 540.7879)" fill="#231F20" font-family="'ArialNarrow-Bold'" font-size="7.5169">U</text>
		<text transform="matrix(0.8 0 0 -0.8 109.8133 540.7879)" fill="#231F20" font-family="'ArialNarrow-Bold'" font-size="7.5169">T</text>
		<text transform="matrix(0.8 0 0 -0.8 113.0031 540.7879)" fill="#231F20" font-family="'ArialNarrow-Bold'" font-size="7.5169">!</text>
	</g>
</g>
</svg>
