<?xml version="1.0" encoding="utf-8"?>
<!-- Generator: Adobe Illustrator 16.0.4, SVG Export Plug-In . SVG Version: 6.00 Build 0)  -->
<!DOCTYPE svg PUBLIC "-//W3C//DTD SVG 1.1//EN" "http://www.w3.org/Graphics/SVG/1.1/DTD/svg11.dtd">
<svg version="1.1"
	 id="svg2" xmlns:rdf="http://www.w3.org/1999/02/22-rdf-syntax-ns#" xmlns:cc="http://creativecommons.org/ns#" xmlns:dc="http://purl.org/dc/elements/1.1/"
	 xmlns="http://www.w3.org/2000/svg" xmlns:xlink="http://www.w3.org/1999/xlink" x="0px" y="0px" width="153.514px"
	 height="117.423px" viewBox="-0.056 -0.111 153.514 117.423" enable-background="new -0.056 -0.111 153.514 117.423"
	 xml:space="preserve">
<g id="g10" transform="matrix(1.25,0,0,-1.25,0,990)">
	<g id="g13562">
		<g id="g13564">
			<g id="g13570" transform="translate(458.62 682.17)">
				<path id="path13572" fill="#FFFFFF" d="M-458.19,109.581l-0.138-93.262l121.972,0.173l0.163,62.906h-28.823v8.017l-3.18,0.019
					l0.02,5.558l0.016,6.893h-47.916v9.603l-42.113,0.093H-458.19L-458.19,109.581z"/>
			</g>
			<g id="g13574" transform="translate(458.62 682.17)">
				<path id="path13576" fill="none" stroke="#918F90" stroke-width="0.843" d="M-458.19,109.581l-0.138-93.262l121.972,0.173
					l0.163,62.906h-28.823v8.017l-3.18,0.019l0.02,5.558l0.016,6.893h-47.916v9.603l-42.113,0.093H-458.19L-458.19,109.581z
					 M-375.055,93.01l-0.036-12.409l3.198-0.019V62.93h7.619v9.593h21.208l-0.209-47.916l-108.132-0.021l0.094,77.834h28.316v-9.41
					H-375.055L-375.055,93.01z"/>
			</g>
		</g>
	</g>
	<g id="g13578">
		<g id="g13580">
			<g id="g13586" transform="translate(529.06 635.13)">
				<path id="path13588" fill="none" stroke="#918F90" stroke-width="0.422" stroke-linejoin="round" d="M-458.189,109.581h15.466
					v17.52h-3.198v12.181h-48.054v-12.266h-2.199v-17.434h15.095 M-476.979,108.613c-3.454,0.537-6.584,1.619-9.2,3.091
					c-2.166-2.075-5.602-2.056-7.736,0.078c-2.163,2.163-2.163,5.669,0,7.834c0.118,0.116,0.254,0.202,0.378,0.305
					c-0.296,0.952-0.466,1.933-0.466,2.942c0,2.102,0.677,4.095,1.877,5.9c-1.691,2.172-1.563,5.303,0.434,7.3
					c2.163,2.162,5.67,2.162,7.834,0c0.205-0.206,0.375-0.436,0.541-0.666c3.339,1.341,11.059,2.125,15.243,2.125
					c4.23,0,8.17-0.803,11.53-2.168c0.173,0.246,0.355,0.489,0.578,0.709c2.161,2.162,5.666,2.162,7.83,0
					c2.027-2.025,2.13-5.216,0.361-7.391c1.163-1.782,1.812-3.744,1.812-5.809c0-0.977-0.161-1.928-0.436-2.852
					c0.164-0.13,0.336-0.246,0.486-0.396c2.163-2.165,2.163-5.671,0-7.834c-2.15-2.148-5.625-2.159-7.791-0.034
					c-2.634-1.495-5.795-2.593-9.283-3.136 M-454.417,134.513c1.309,1.305,3.427,1.305,4.734,0c1.08-1.081,1.255-2.716,0.541-3.987
					l1.37-1.854c1.77,2.174,1.666,5.366-0.361,7.391c-2.162,2.162-5.67,2.162-7.831,0c-0.22-0.22-0.403-0.463-0.578-0.709
					L-454.417,134.513z M-451.63,112.881c1.555-0.993,3.625-0.541,4.616,1.016c0.827,1.289,0.645,2.922-0.323,4.009l0.938,2.106
					c2.195-1.745,2.78-4.884,1.234-7.297c-1.645-2.577-5.073-3.33-7.645-1.683c-0.264,0.17-0.67,0.516-0.892,0.716L-451.63,112.881z
					 M-485.486,134.602c-1.305,1.306-3.421,1.306-4.729,0c-1.082-1.083-1.255-2.714-0.541-3.984l-1.37-1.855
					c-1.77,2.175-1.666,5.366,0.362,7.391c2.163,2.162,5.668,2.162,7.829,0c0.223-0.222,0.405-0.465,0.581-0.708L-485.486,134.602z
					 M-488.25,112.834c-1.557-0.993-3.625-0.54-4.622,1.017c-0.823,1.287-0.642,2.921,0.327,4.008l-0.938,2.106
					c-2.195-1.745-2.777-4.885-1.234-7.296c1.648-2.577,5.071-3.33,7.648-1.683c0.262,0.167,0.666,0.515,0.891,0.717
					L-488.25,112.834z"/>
			</g>
			<path id="path13590" fill="#FFFFFF" stroke="#918F90" stroke-width="0.422" stroke-linejoin="round" d="M64.212,773.041H54.06
				v-3.437h10.145v3.439L64.212,773.041z"/>
			<path id="path13592" fill="#FFFFFF" stroke="#918F90" stroke-width="0.422" d="M96.101,743.37h6.644v1.888h-6.644v-1.891V743.37z
				"/>
			<path id="path13594" fill="#FFFFFF" stroke="#918F90" stroke-width="0.422" d="M96.101,745.261h6.644v1.886h-6.644v-1.891
				V745.261z"/>
			<path id="path13596" fill="#FFFFFF" stroke="#918F90" stroke-width="0.422" d="M96.101,747.14h6.644v1.888h-6.644v-1.891V747.14z
				"/>
			<path id="path13598" fill="#FFFFFF" stroke="#918F90" stroke-width="0.422" d="M96.101,749.031h6.644v1.887h-6.644v-1.89V749.031
				z"/>
			<path id="path13600" fill="#FFFFFF" stroke="#918F90" stroke-width="0.422" d="M94.232,736.74h1.888v6.644h-1.888v-6.641V736.74z
				"/>
			<path id="path13602" fill="#FFFFFF" stroke="#918F90" stroke-width="0.422" d="M90.462,736.74h1.887v6.644h-1.887v-6.641V736.74z
				"/>
			<path id="path13604" fill="#FFFFFF" stroke="#918F90" stroke-width="0.422" d="M92.341,736.74h1.884v6.644h-1.884v-6.641V736.74z
				"/>
			<path id="path13606" fill="#FFFFFF" stroke="#918F90" stroke-width="0.422" d="M102.752,743.37h-6.63v-6.628h6.63v6.63V743.37z"
				/>
			<path id="path13608" fill="#FFFFFF" stroke="#918F90" stroke-width="0.422" d="M24.06,743.37h-6.641v1.888h6.641v-1.891V743.37z"
				/>
			<path id="path13610" fill="#FFFFFF" stroke="#918F90" stroke-width="0.422" d="M24.06,745.261h-6.641v1.886h6.641v-1.891V745.261
				z"/>
			<path id="path13612" fill="#FFFFFF" stroke="#918F90" stroke-width="0.422" d="M24.06,747.14h-6.641v1.888h6.641v-1.891V747.14z"
				/>
			<path id="path13614" fill="#FFFFFF" stroke="#918F90" stroke-width="0.422" d="M24.06,749.031h-6.641v1.887h6.641v-1.89V749.031z
				"/>
			<path id="path13616" fill="#FFFFFF" stroke="#918F90" stroke-width="0.422" d="M25.93,736.74h-1.886v6.644h1.886v-6.641V736.74z"
				/>
			<path id="path13618" fill="#FFFFFF" stroke="#918F90" stroke-width="0.422" d="M29.71,736.74h-1.888v6.644h1.888v-6.641V736.74z"
				/>
			<path id="path13620" fill="#FFFFFF" stroke="#918F90" stroke-width="0.422" d="M27.821,736.74h-1.888v6.644h1.888v-6.641V736.74z
				"/>
			<path id="path13622" fill="#FFFFFF" d="M17.42,743.37h6.628v-6.628H17.42v6.63V743.37z"/>
			<path id="path13624" fill="none" stroke="#918F90" stroke-width="0.422" d="M17.42,743.37h6.628v-6.628H17.42v6.63V743.37z
				 M25.29,754.89h-7.286v5.363h7.286v-5.36V754.89z"/>
		</g>
	</g>
	<g id="skylight-chapel">
		<text transform="matrix(0.8 0 0 -0.8 51.8108 724.1902)" fill="#231F20" font-family="'ArialNarrow-Bold'" font-size="7.5169">S</text>
		<text transform="matrix(0.8 0 0 -0.8 55.3307 724.1902)" fill="#231F20" font-family="'ArialNarrow-Bold'" font-size="7.5169">K</text>
		<text transform="matrix(0.8 0 0 -0.8 58.8506 724.1902)" fill="#231F20" font-family="'ArialNarrow-Bold'" font-size="7.5169">Y</text>
		<text transform="matrix(0.8 0 0 -0.8 62.3803 724.1902)" fill="#231F20" font-family="'ArialNarrow-Bold'" font-size="7.5169">L</text>
		<text transform="matrix(0.8 0 0 -0.8 65.2303 724.1902)" fill="#231F20" font-family="'ArialNarrow-Bold'" font-size="7.5169">I</text>
		<text transform="matrix(0.8 0 0 -0.8 67.0811 724.1902)" fill="#231F20" font-family="'ArialNarrow-Bold'" font-size="7.5169">G</text>
		<text transform="matrix(0.8 0 0 -0.8 70.9311 724.1902)" fill="#231F20" font-family="'ArialNarrow-Bold'" font-size="7.5169">H</text>
		<text transform="matrix(0.8 0 0 -0.8 74.7912 724.1902)" fill="#231F20" font-family="'ArialNarrow-Bold'" font-size="7.5169">T</text>
		<text transform="matrix(0.8 0 0 -0.8 54.4905 718.1793)" fill="#231F20" font-family="'ArialNarrow-Bold'" font-size="7.5169">C</text>
		<text transform="matrix(0.8 0 0 -0.8 58.0209 718.1793)" fill="#231F20" font-family="'ArialNarrow-Bold'" font-size="7.5169">H</text>
		<text transform="matrix(0.8 0 0 -0.8 61.8709 718.1793)" fill="#231F20" font-family="'ArialNarrow-Bold'" font-size="7.5169">A</text>
		<text transform="matrix(0.8 0 0 -0.8 65.7303 718.1793)" fill="#231F20" font-family="'ArialNarrow-Bold'" font-size="7.5169">P</text>
		<text transform="matrix(0.8 0 0 -0.8 69.2506 718.1793)" fill="#231F20" font-family="'ArialNarrow-Bold'" font-size="7.5169">E</text>
		<text transform="matrix(0.8 0 0 -0.8 72.4412 718.1793)" fill="#231F20" font-family="'ArialNarrow-Bold'" font-size="7.5169">L</text>
	</g>
</g>
</svg>
