<?xml version="1.0" encoding="utf-8"?>
<!-- Generator: Adobe Illustrator 16.0.4, SVG Export Plug-In . SVG Version: 6.00 Build 0)  -->
<!DOCTYPE svg PUBLIC "-//W3C//DTD SVG 1.1//EN" "http://www.w3.org/Graphics/SVG/1.1/DTD/svg11.dtd">
<svg version="1.1"
	 id="svg2" xmlns:rdf="http://www.w3.org/1999/02/22-rdf-syntax-ns#" xmlns:cc="http://creativecommons.org/ns#" xmlns:dc="http://purl.org/dc/elements/1.1/"
	 xmlns="http://www.w3.org/2000/svg" xmlns:xlink="http://www.w3.org/1999/xlink" x="0px" y="0px" width="126.5px"
	 height="813.42px" viewBox="0 0 126.5 813.42" enable-background="new 0 0 126.5 813.42" xml:space="preserve">
<g id="g10" transform="matrix(1.25,0,0,-1.25,0,990)">
	<g id="g12990">
		<g id="g12992">
			<g id="g12998" transform="translate(488.91 696.18)">
				<path id="path13000" fill="#FFFFFF" d="M-473.801,82.016c-10.034-10.03-14.702-27.765-14.702-55.811v-399.91l0.105-0.421
					l2.52-9.95l0.195-0.755l0.497-0.604l2.13-2.547v-121.49c0-12.038,4.652-23.355,13.105-31.866
					c8.451-8.512,19.687-13.198,31.64-13.198c11.955,0,23.189,4.685,31.643,13.198c8.449,8.511,13.105,19.829,13.105,31.866v121.54
					l2.084,2.495l0.499,0.604l0.191,0.755l2.52,9.95l0.106,0.421v0.428l0.046,399.48c0,28.046-4.673,45.781-14.702,55.811
					c-8.63,8.63-20.571,13.429-35.495,13.429c-14.92,0.002-26.86-4.796-35.489-13.426"/>
			</g>
			<g id="g13002" transform="translate(488.91 696.18)">
				<path id="path13004" fill="none" stroke="#918F90" stroke-width="0.957" d="M-473.801,82.016
					c-10.034-10.03-14.702-27.765-14.702-55.811v-399.91l0.105-0.421l2.52-9.95l0.195-0.755l0.497-0.604l2.13-2.547v-121.49
					c0-12.038,4.652-23.355,13.105-31.866c8.451-8.512,19.687-13.198,31.64-13.198c11.955,0,23.189,4.685,31.643,13.198
					c8.449,8.511,13.105,19.829,13.105,31.866v121.54l2.084,2.495l0.499,0.604l0.191,0.755l2.52,9.95l0.106,0.421v0.428
					l0.046,399.48c0,28.046-4.673,45.781-14.702,55.811c-8.63,8.63-20.571,13.429-35.495,13.429
					c-14.92,0.002-26.86-4.796-35.489-13.426V82.016z"/>
			</g>
		</g>
	</g>
	<g id="g13006">
		<g id="g13008">
			<g id="g13014" transform="translate(491.25 608.08)">
				<path id="path13016" fill="none" stroke="#918F90" stroke-width="0.478" d="M-473.802,82.016
					c0.597,0.804,1.117,1.671,1.562,2.584l0.796,1.943c0.554,1.658,0.856,3.435,0.834,5.29c-0.014,1.26-0.188,2.479-0.47,3.649
					l-3.558-0.921c0.217-0.891,0.348-1.814,0.36-2.77c0.016-1.304-0.184-2.555-0.545-3.734l-0.893-2.155
					c-0.244-0.453-0.612-1.059-0.975-1.597L-473.802,82.016z M-474.588,94.572l3.509,0.91 M-474.448,93.624l3.634,0.627
					 M-474.367,92.673l3.716,0.332 M-474.229,91.725l3.638,0.02 M-474.349,90.773l3.713-0.285 M-474.777,87.936l3.392-1.138
					 M-475.241,86.95l3.275-1.458 M-475.706,85.963l3.161-1.776 M-476.195,85.147l2.993-2.021 M-408.245,82.016
					c-0.598,0.806-1.122,1.671-1.566,2.582l-0.795,1.947c-0.553,1.658-0.853,3.433-0.832,5.289c0.014,1.259,0.186,2.477,0.47,3.648
					l3.557-0.921c-0.216-0.89-0.347-1.814-0.36-2.77c-0.014-1.304,0.186-2.555,0.548-3.732l0.893-2.157
					c0.241-0.453,0.609-1.059,0.973-1.597L-408.245,82.016z M-407.461,94.572l-3.509,0.91 M-407.601,93.624l-3.633,0.628
					 M-407.68,92.673l-3.716,0.332 M-407.82,91.725l-3.638,0.021 M-407.698,90.773l-3.713-0.285 M-407.272,87.938l-3.389-1.139
					 M-406.808,86.95l-3.275-1.458 M-406.344,85.964l-3.157-1.777 M-405.854,85.147l-2.994-2.021"/>
			</g>
			<path id="path13018" fill="#FFFFFF" stroke="#918F90" stroke-width="0.478" d="M52.378,741.172h-4.426v1.02h4.426V741.172z"/>
			<path id="path13020" fill="#FFFFFF" stroke="#918F90" stroke-width="0.478" d="M52.378,742.192h-4.426v1.018h4.426v-1.02V742.192
				z"/>
			<path id="path13022" fill="#FFFFFF" stroke="#918F90" stroke-width="0.478" d="M52.378,743.212h-4.426v1.021h4.426V743.212
				L52.378,743.212z"/>
			<path id="path13024" fill="#FFFFFF" stroke="#918F90" stroke-width="0.478" d="M55.698,741.172h-3.326v1.02h3.326V741.172z"/>
			<path id="path13026" fill="#FFFFFF" stroke="#918F90" stroke-width="0.478" d="M55.698,742.192h-3.326v1.018h3.326v-1.02V742.192
				z"/>
			<path id="path13028" fill="#FFFFFF" stroke="#918F90" stroke-width="0.478" d="M55.698,743.212h-3.326v1.021h3.326V743.212
				L55.698,743.212z"/>
			<path id="path13030" fill="#FFFFFF" stroke="#918F90" stroke-width="0.478" d="M52.378,744.232h-4.426v1.019h4.426v-1.02V744.232
				z"/>
			<path id="path13032" fill="#FFFFFF" stroke="#918F90" stroke-width="0.478" d="M55.698,744.232h-3.326v1.019h3.326v-1.02V744.232
				z"/>
			<path id="path13034" fill="#FFFFFF" stroke="#918F90" stroke-width="0.478" d="M52.378,745.252h-4.426v1.021h4.426v-1.02V745.252
				z"/>
			<path id="path13036" fill="#FFFFFF" stroke="#918F90" stroke-width="0.478" d="M55.698,745.252h-3.326v1.021h3.326v-1.02V745.252
				z"/>
			<path id="path13038" fill="#FFFFFF" stroke="#918F90" stroke-width="0.478" d="M52.378,746.272h-4.426v1.02h4.426V746.272z"/>
			<path id="path13040" fill="#FFFFFF" stroke="#918F90" stroke-width="0.478" d="M55.698,746.272h-3.326v1.02h3.326V746.272z"/>
			<path id="path13042" fill="#FFFFFF" stroke="#918F90" stroke-width="0.478" d="M47.948,741.172h-3.326v1.02h3.326V741.172z"/>
			<path id="path13044" fill="#FFFFFF" stroke="#918F90" stroke-width="0.478" d="M47.948,742.192h-3.326v1.018h3.326v-1.02V742.192
				z"/>
			<path id="path13046" fill="#FFFFFF" stroke="#918F90" stroke-width="0.478" d="M47.948,743.212h-3.326v1.021h3.326V743.212
				L47.948,743.212z"/>
			<path id="path13048" fill="#FFFFFF" stroke="#918F90" stroke-width="0.478" d="M47.948,744.232h-3.326v1.019h3.326v-1.02V744.232
				z"/>
			<path id="path13050" fill="#FFFFFF" stroke="#918F90" stroke-width="0.478" d="M47.948,745.252h-3.326v1.021h3.326v-1.02V745.252
				z"/>
			<path id="path13052" fill="#FFFFFF" stroke="#918F90" stroke-width="0.478" d="M47.948,746.272h-3.326v1.02h3.326V746.272z"/>
			<path id="path13054" fill="#FFFFFF" stroke="#918F90" stroke-width="0.478" d="M55.698,741.182H44.621v-3.007h11.077v3.01
				V741.182z"/>
			<g id="g13056" transform="translate(550.82 619.67)">
				<path id="path13058" fill="#FFFFFF" d="M-473.801,82.016h-23.191l-3.612-1.142l-4.13,1.142h-22.794
					c0.048-3.803,0.655-13.239,6.834-22.447c3.184,1.299,9.666,5.055,20.034,5.055c10.371,0,15.646-3.378,20.035-5.055
					C-478.511,63.111-473.967,69.694-473.801,82.016"/>
			</g>
			<g id="g13060" transform="translate(550.82 619.67)">
				<path id="path13062" fill="none" stroke="#918F90" stroke-width="0.478" d="M-473.801,82.016h-23.191l-3.612-1.142l-4.13,1.142
					h-22.794c0.048-3.803,0.655-13.239,6.834-22.447c3.184,1.299,9.666,5.055,20.034,5.055c10.371,0,15.646-3.378,20.035-5.055
					C-478.511,63.111-473.967,69.694-473.801,82.016z"/>
			</g>
			<path id="path13064" fill="#FFFFFF" stroke="#918F90" stroke-width="0.478" d="M32.959,699.922h-5.277v-15.34h5.277V699.922z"/>
			<path id="path13066" fill="#FFFFFF" stroke="#918F90" stroke-width="0.478" d="M72.659,699.922H67.38v-15.34h5.278V699.922z"/>
			<g id="g13068" transform="translate(523.97 619.23)">
				<path id="path13070" fill="#FFFFFF" d="M-473.801,82.015c-1.312,0-2.38,1.062-2.51,2.418c-1.673-0.357-3.11-1.054-4.102-1.975
					h-3.751l0.002-8.7h2.714v1.149c0,0,1.031,0.173,1.381,0.458c1.672-0.76,3.928-1.229,6.416-1.229
					c2.397,0,4.569,0.438,6.222,1.148c0.323-0.232,1.275-0.376,1.275-0.376v-1.149h2.72v8.7h-3.755
					c-0.993,0.92-2.431,1.617-4.102,1.974C-471.419,83.078-472.49,82.015-473.801,82.015"/>
			</g>
			<g id="g13072" transform="translate(523.97 619.23)">
				<path id="path13074" fill="none" stroke="#918F90" stroke-width="0.957" stroke-linejoin="round" d="M-473.801,82.015
					c-1.312,0-2.38,1.062-2.51,2.418c-1.673-0.357-3.11-1.054-4.102-1.975h-3.751l0.002-8.7h2.714v1.149
					c0,0,1.031,0.173,1.381,0.458c1.672-0.76,3.928-1.229,6.416-1.229c2.397,0,4.569,0.438,6.222,1.148
					c0.323-0.232,1.275-0.376,1.275-0.376v-1.149h2.72v8.7h-3.755c-0.993,0.92-2.431,1.617-4.102,1.974
					C-471.419,83.078-472.49,82.015-473.801,82.015z"/>
			</g>
			<g id="g13076" transform="translate(534.33 612.12)">
				<path id="path13078" fill="#FFFFFF" d="M-473.802,82.016h-2.913c-1.302,0-2.358,1.454-2.358,3.249s1.055,3.251,2.358,3.251
					h2.913V82.016z"/>
			</g>
			<g id="g13080" transform="translate(513.6 612.12)">
				<path id="path13082" fill="#FFFFFF" d="M-473.802,82.016h2.912c1.302,0,2.359,1.454,2.359,3.249s-1.057,3.251-2.359,3.251
					h-2.912V82.016z"/>
			</g>
			<g id="g13084" transform="translate(513.6 612.12)">
				<path id="path13086" fill="none" stroke="#918F90" stroke-width="0.478" d="M-473.802,82.016h2.912
					c1.302,0,2.359,1.454,2.359,3.249s-1.057,3.251-2.359,3.251h-2.912V82.016z M-453.067,82.016h-2.913
					c-1.302,0-2.358,1.454-2.358,3.249s1.055,3.251,2.358,3.251h2.913V82.016z M-473.802,82.016h2.912
					c1.302,0,2.359,1.454,2.359,3.249s-1.057,3.251-2.359,3.251h-2.912V82.016z"/>
			</g>
			<g id="g13088" transform="translate(524.02 696.8)">
				<path id="path13090" fill="#FFFFFF" d="M-473.801,82.016c-0.131,0.01-13.463,0.989-23.585-8.456
					c-8.071-7.53-12.163-19.432-12.163-35.378V5.096c0-7.026-6.097-100.99-6.097-107.9v-219.3c0-2.191,1.118-3.689,2.226-4.202
					c0.943-0.438,1.923-0.227,2.916,0.613c10.827,9.212,23.25,8.63,36.653,8.63c13.404,0,25.823,0.583,36.655-8.63
					c0.99-0.838,1.971-1.05,2.915-0.613c1.106,0.513,2.225,2.009,2.225,4.202v219.3c0,6.91-6.096,100.87-6.096,107.9v33.09
					c0,15.946-4.094,27.848-12.162,35.378c-10.123,9.445-23.388,8.449-23.487,8.456 M-447.511,76.568
					c8.934-8.338,13.468-21.252,13.468-38.382V5.1c0-7.992,6.096-99.404,6.096-107.9v-219.3c0-3.523-1.811-6.638-4.613-7.93
					c-2.419-1.118-5.079-0.675-7.3,1.21c-9.752,8.299-21.116,7.651-33.991,7.651c-12.877,0-24.241,0.648-33.992-7.651
					c-2.221-1.885-4.882-2.328-7.301-1.21c-2.802,1.295-4.611,4.407-4.611,7.93v219.3c0,8.491,6.094,99.904,6.094,107.9v33.09
					c0,17.131,4.532,30.044,13.47,38.382c11.257,10.507,26.051,9.594,26.675,9.551l-0.456,0.007
					c2.588,0.128,15.931,0.263,26.46-9.558"/>
			</g>
			<g id="g13092" transform="translate(524.02 696.8)">
				<path id="path13094" fill="none" stroke="#918F90" stroke-width="0.478" stroke-linejoin="round" d="M-473.801,82.016
					c-0.131,0.01-13.463,0.989-23.585-8.456c-8.071-7.53-12.163-19.432-12.163-35.378V5.096c0-7.026-6.097-100.99-6.097-107.9
					v-219.3c0-2.191,1.118-3.689,2.226-4.202c0.943-0.438,1.923-0.227,2.916,0.613c10.827,9.212,23.25,8.63,36.653,8.63
					c13.404,0,25.823,0.583,36.655-8.63c0.99-0.838,1.971-1.05,2.915-0.613c1.106,0.513,2.225,2.009,2.225,4.202v219.3
					c0,6.91-6.096,100.87-6.096,107.9v33.09c0,15.946-4.094,27.848-12.162,35.378c-10.123,9.445-23.388,8.449-23.487,8.456V82.016z
					 M-447.511,76.564c8.934-8.338,13.468-21.252,13.468-38.382V5.096c0-7.992,6.096-99.404,6.096-107.9v-219.3
					c0-3.523-1.811-6.637-4.613-7.93c-2.419-1.118-5.079-0.675-7.3,1.21c-9.752,8.299-21.116,7.651-33.991,7.651
					c-12.877,0-24.241,0.648-33.992-7.651c-2.221-1.885-4.882-2.328-7.301-1.21c-2.802,1.294-4.611,4.407-4.611,7.93v219.3
					c0,8.492,6.094,99.904,6.094,107.9v33.09c0,17.131,4.532,30.044,13.47,38.382c11.257,10.507,26.051,9.594,26.675,9.551
					l-0.456,0.007c2.588,0.128,15.931,0.263,26.46-9.558V76.564z"/>
			</g>
			<g id="g13096" transform="translate(523.97 547.91)">
				<path id="path13098" fill="#FFFFFF" d="M-473.801,82.016c-5.059,0-9.546,1.429-12.423,3.642
					c-2.062-2.662-3.303-5.991-3.303-9.618c0-4.262,1.702-8.123,4.457-10.955l4.009,4.011c1.743-2.382,4.346-3.898,7.26-3.898
					c2.88,0,5.455,1.484,7.195,3.816l4.004-4.003c2.797,2.838,4.525,6.73,4.525,11.03c0,3.627-1.24,6.956-3.301,9.618
					C-464.258,83.445-468.744,82.016-473.801,82.016"/>
			</g>
			<g id="g13100" transform="translate(523.97 547.91)">
				<path id="path13102" fill="none" stroke="#918F90" stroke-width="0.478" stroke-linejoin="round" d="M-473.801,82.016
					c-5.059,0-9.546,1.429-12.423,3.642c-2.062-2.662-3.303-5.991-3.303-9.618c0-4.262,1.702-8.123,4.457-10.955l4.009,4.011
					c1.743-2.382,4.346-3.898,7.26-3.898c2.88,0,5.455,1.484,7.195,3.816l4.004-4.003c2.797,2.838,4.525,6.73,4.525,11.03
					c0,3.627-1.24,6.956-3.301,9.618C-464.258,83.445-468.744,82.016-473.801,82.016z"/>
			</g>
			<g id="g13104" transform="translate(538.39 547.88)">
				<path id="path13106" fill="none" stroke="#918F90" stroke-width="0.478" d="M-473.802,82.016
					c0.58-1.171,0.945-2.391,1.134-3.619l0.141-2.359c-0.019-0.521-0.082-1.239-0.172-1.891l3.548-0.734
					c0.184,0.998,0.273,2.022,0.273,3.052l-0.138,2.125c-0.227,1.751-0.73,3.493-1.55,5.157L-473.802,82.016z M-473.531,81.122
					l3.36,1.639 M-473.089,80.274l3.386,1.317 M-472.893,79.331l3.559,1.055 M-472.574,78.306l3.499,0.538 M-472.56,77.204
					l3.535,0.193 M-472.546,76.095l3.572-0.148 M-472.624,75.133l3.527-0.442 M-502.799,82.016
					c-0.578-1.171-0.943-2.391-1.135-3.619l-0.137-2.359c0.019-0.521,0.08-1.238,0.17-1.891l-3.55-0.734
					c-0.184,0.998-0.27,2.022-0.27,3.052l0.137,2.125c0.227,1.751,0.728,3.493,1.552,5.157L-502.799,82.016z M-503.068,81.122
					l-3.359,1.639 M-503.507,80.274l-3.389,1.317 M-503.706,79.331l-3.56,1.055 M-504.024,78.306l-3.501,0.538 M-504.038,77.204
					l-3.536,0.193 M-504.055,76.095l-3.573-0.148 M-503.977,75.133l-3.527-0.442"/>
			</g>
			<path id="path13108" fill="#FFFFFF" stroke="#918F90" stroke-width="0.478" d="M34.598,331.891H30.17v1.021h4.428v-1.02V331.891z
				"/>
			<path id="path13110" fill="#FFFFFF" stroke="#918F90" stroke-width="0.478" d="M34.598,332.912H30.17v1.018h4.428v-1.02V332.912z
				"/>
			<path id="path13112" fill="#FFFFFF" stroke="#918F90" stroke-width="0.478" d="M34.598,333.922H30.17v1.02h4.428V333.922z"/>
			<path id="path13114" fill="#FFFFFF" stroke="#918F90" stroke-width="0.478" d="M37.919,331.891h-3.323v1.021h3.323v-1.02V331.891
				z"/>
			<path id="path13116" fill="#FFFFFF" stroke="#918F90" stroke-width="0.478" d="M37.919,332.912h-3.323v1.018h3.323v-1.02V332.912
				z"/>
			<path id="path13118" fill="#FFFFFF" stroke="#918F90" stroke-width="0.478" d="M37.919,333.922h-3.323v1.02h3.323V333.922z"/>
			<path id="path13120" fill="#FFFFFF" stroke="#918F90" stroke-width="0.478" d="M34.598,334.941H30.17v1.021h4.428v-1.02V334.941z
				"/>
			<path id="path13122" fill="#FFFFFF" stroke="#918F90" stroke-width="0.478" d="M37.919,334.941h-3.323v1.021h3.323v-1.02V334.941
				z"/>
			<path id="path13124" fill="#FFFFFF" stroke="#918F90" stroke-width="0.478" d="M34.598,335.972H30.17v1.02h4.428V335.972z"/>
			<path id="path13126" fill="#FFFFFF" stroke="#918F90" stroke-width="0.478" d="M37.919,335.972h-3.323v1.02h3.323V335.972z"/>
			<path id="path13128" fill="#FFFFFF" stroke="#918F90" stroke-width="0.478" d="M34.598,336.991H30.17v1.02h4.428V336.991z"/>
			<path id="path13130" fill="#FFFFFF" stroke="#918F90" stroke-width="0.478" d="M37.919,336.991h-3.323v1.02h3.323V336.991z"/>
			<path id="path13132" fill="#FFFFFF" stroke="#918F90" stroke-width="0.478" d="M30.169,331.891h-3.324v1.021h3.324v-1.02V331.891
				z"/>
			<path id="path13134" fill="#FFFFFF" stroke="#918F90" stroke-width="0.478" d="M30.169,332.912h-3.324v1.018h3.324v-1.02V332.912
				z"/>
			<path id="path13136" fill="#FFFFFF" stroke="#918F90" stroke-width="0.478" d="M30.169,333.922h-3.324v1.02h3.324V333.922z"/>
			<path id="path13138" fill="#FFFFFF" stroke="#918F90" stroke-width="0.478" d="M30.169,334.941h-3.324v1.021h3.324v-1.02V334.941
				z"/>
			<path id="path13140" fill="#FFFFFF" stroke="#918F90" stroke-width="0.478" d="M30.169,335.972h-3.324v1.02h3.324V335.972z"/>
			<path id="path13142" fill="#FFFFFF" stroke="#918F90" stroke-width="0.478" d="M30.169,336.991h-3.324v1.02h3.324V336.991z"/>
			<path id="path13144" fill="#FFFFFF" stroke="#918F90" stroke-width="0.478" d="M37.919,331.902H26.842v-3.007h11.077v3.01
				V331.902z"/>
			<path id="path13146" fill="#FFFFFF" stroke="#918F90" stroke-width="0.478" d="M76.178,365.352h-5.276v-15.345h5.276v15.35
				V365.352z"/>
			<path id="path13148" fill="#FFFFFF" stroke="#918F90" stroke-width="0.478" d="M29.398,365.381h-5.276v-15.343h5.276v15.341
				V365.381z"/>
			<g id="g13150" transform="translate(534.52 286.98)">
				<path id="path13152" fill="#FFFFFF" stroke="#918F90" stroke-width="0.957" stroke-linejoin="round" d="M-473.801,82.015
					l0.93-3.643v-16.95h-8.444v0.009c0,1.677-1.362,3.04-3.042,3.04c-1.679,0-3.041-1.363-3.041-3.04v-0.009h-8.443v16.95
					l0.93,3.643"/>
			</g>
			<g id="g13154" transform="translate(535.44 267.22)">
				<path id="path13156" fill="none" stroke="#918F90" stroke-width="0.478" d="M-473.802,82.016h-2.912
					c-1.302,0-2.362,1.455-2.362,3.25c0,1.795,1.059,3.251,2.362,3.251h2.912V82.016z M-496.755,82.016h2.914
					c1.304,0,2.359,1.455,2.359,3.25c0,1.795-1.055,3.251-2.359,3.251h-2.914V82.016z M-473.802,90.414h-2.912
					c-1.302,0-2.362,1.459-2.362,3.252c0,1.794,1.059,3.251,2.362,3.251h2.912V90.414z M-496.755,90.414h2.914
					c1.304,0,2.359,1.459,2.359,3.252c0,1.794-1.055,3.251-2.359,3.251h-2.914l2.914-6.503c1.304,0,2.359,1.459,2.359,3.252
					c0,1.794-1.055,3.251-2.359,3.251h-2.914V90.414z"/>
			</g>
			<path id="path13158" fill="#FFFFFF" stroke="#918F90" stroke-width="0.478" d="M60.709,717.482h3.324v-1.021h-3.324v1.02V717.482
				z"/>
			<path id="path13160" fill="#FFFFFF" stroke="#918F90" stroke-width="0.478" d="M60.709,716.462h3.324v-1.019h-3.324V716.462
				L60.709,716.462z"/>
			<path id="path13162" fill="#FFFFFF" stroke="#918F90" stroke-width="0.478" d="M60.709,715.442h3.324v-1.021h-3.324v1.02V715.442
				z"/>
			<path id="path13164" fill="#FFFFFF" stroke="#918F90" stroke-width="0.478" d="M60.709,714.422h3.324v-1.019h-3.324v1.02V714.422
				z"/>
			<path id="path13166" fill="#FFFFFF" stroke="#918F90" stroke-width="0.478" d="M60.709,713.402h3.324v-1.021h-3.324V713.402
				L60.709,713.402z"/>
			<path id="path13168" fill="#FFFFFF" stroke="#918F90" stroke-width="0.478" d="M60.709,712.382h3.324v-1.019h-3.324v1.02V712.382
				z"/>
			<path id="path13170" fill="#FFFFFF" stroke="#918F90" stroke-width="0.478" d="M64.028,717.482h3.327v-1.021h-3.327v1.02V717.482
				z"/>
			<path id="path13172" fill="#FFFFFF" stroke="#918F90" stroke-width="0.478" d="M64.028,716.462h3.327v-1.019h-3.327V716.462
				L64.028,716.462z"/>
			<path id="path13174" fill="#FFFFFF" stroke="#918F90" stroke-width="0.478" d="M64.028,715.442h3.327v-1.021h-3.327v1.02V715.442
				z"/>
			<path id="path13176" fill="#FFFFFF" stroke="#918F90" stroke-width="0.478" d="M64.028,714.422h3.327v-1.019h-3.327v1.02V714.422
				z"/>
			<path id="path13178" fill="#FFFFFF" stroke="#918F90" stroke-width="0.478" d="M64.028,713.402h3.327v-1.021h-3.327V713.402
				L64.028,713.402z"/>
			<path id="path13180" fill="#FFFFFF" stroke="#918F90" stroke-width="0.478" d="M64.028,712.382h3.327v-1.019h-3.327v1.02V712.382
				z"/>
			<path id="path13182" fill="#FFFFFF" stroke="#918F90" stroke-width="0.478" d="M60.709,717.472h6.65v3.007h-6.65v-3.01V717.472z"
				/>
			<path id="path13184" fill="#FFFFFF" stroke="#918F90" stroke-width="0.478" d="M32.898,717.482h3.326v-1.021h-3.326v1.02V717.482
				z"/>
			<path id="path13186" fill="#FFFFFF" stroke="#918F90" stroke-width="0.478" d="M32.898,716.462h3.326v-1.019h-3.326V716.462
				L32.898,716.462z"/>
			<path id="path13188" fill="#FFFFFF" stroke="#918F90" stroke-width="0.478" d="M32.898,715.442h3.326v-1.021h-3.326v1.02V715.442
				z"/>
			<path id="path13190" fill="#FFFFFF" stroke="#918F90" stroke-width="0.478" d="M32.898,714.422h3.326v-1.019h-3.326v1.02V714.422
				z"/>
			<path id="path13192" fill="#FFFFFF" stroke="#918F90" stroke-width="0.478" d="M32.898,713.402h3.326v-1.021h-3.326V713.402
				L32.898,713.402z"/>
			<path id="path13194" fill="#FFFFFF" stroke="#918F90" stroke-width="0.478" d="M32.898,712.382h3.326v-1.019h-3.326v1.02V712.382
				z"/>
			<path id="path13196" fill="#FFFFFF" stroke="#918F90" stroke-width="0.478" d="M36.228,717.482h3.324v-1.021h-3.324v1.02V717.482
				z"/>
			<path id="path13198" fill="#FFFFFF" stroke="#918F90" stroke-width="0.478" d="M36.228,716.462h3.324v-1.019h-3.324V716.462
				L36.228,716.462z"/>
			<path id="path13200" fill="#FFFFFF" stroke="#918F90" stroke-width="0.478" d="M36.228,715.442h3.324v-1.021h-3.324v1.02V715.442
				z"/>
			<path id="path13202" fill="#FFFFFF" stroke="#918F90" stroke-width="0.478" d="M36.228,714.422h3.324v-1.019h-3.324v1.02V714.422
				z"/>
			<path id="path13204" fill="#FFFFFF" stroke="#918F90" stroke-width="0.478" d="M36.228,713.402h3.324v-1.021h-3.324V713.402
				L36.228,713.402z"/>
			<path id="path13206" fill="#FFFFFF" stroke="#918F90" stroke-width="0.478" d="M36.228,712.382h3.324v-1.019h-3.324v1.02V712.382
				z"/>
			<path id="path13208" fill="#FFFFFF" d="M32.898,717.472h6.65v3.007h-6.65v-3.01V717.472z"/>
			<path id="path13210" fill="none" stroke="#918F90" stroke-width="0.478" d="M32.898,717.472h6.65v3.007h-6.65v-3.01V717.472z
				 M67.338,708.672h5.306l1.032,1.034v12.373h-6.338v-13.4V708.672z"/>
			<path id="path13212" fill="#FFFFFF" d="M32.828,710.682h-9.514v11.399h9.514v-11.4V710.682z"/>
			<path id="path13214" fill="none" stroke="#918F90" stroke-width="0.478" stroke-linejoin="round" d="M32.828,710.682h-9.514
				v11.399h9.514v-11.4V710.682z M32.309,722.072H18.213c1.296,19.949,0.401,27.811,6.01,36.392
				c6.849,10.472,17.023,14.508,25.941,14.508c9.756,0,18.066-4.657,21.845-9.147c8.904-10.578,9.087-14.332,10.301-41.644
				l-29.824-0.1H22.508"/>
			<g id="g13216" transform="translate(516.51 503.35)">
				<path id="path13218" fill="#FFFFFF" d="M-473.801,82.016l-2.414-0.601l-0.246,0.987l2.414,0.605L-473.801,82.016z"/>
			</g>
			<g id="g13220" transform="translate(516.51 503.35)">
				<path id="path13222" fill="none" stroke="#918F90" stroke-width="0.478" d="M-473.801,82.016l-2.414-0.601l-0.246,0.987
					l2.414,0.605L-473.801,82.016z"/>
			</g>
			<g id="g13224" transform="translate(516.27 504.34)">
				<path id="path13226" fill="#FFFFFF" d="M-473.801,82.015l-2.414-0.604l-0.246,0.99l2.412,0.604L-473.801,82.015z"/>
			</g>
			<g id="g13228" transform="translate(516.27 504.34)">
				<path id="path13230" fill="none" stroke="#918F90" stroke-width="0.478" d="M-473.801,82.015l-2.414-0.604l-0.246,0.99
					l2.412,0.604L-473.801,82.015z"/>
			</g>
			<g id="g13232" transform="translate(516.02 505.33)">
				<path id="path13234" fill="#FFFFFF" d="M-473.801,82.015l-2.413-0.604l-0.248,0.989l2.412,0.602L-473.801,82.015z"/>
			</g>
			<g id="g13236" transform="translate(516.02 505.33)">
				<path id="path13238" fill="none" stroke="#918F90" stroke-width="0.478" d="M-473.801,82.015l-2.413-0.604l-0.248,0.989
					l2.412,0.602L-473.801,82.015z"/>
			</g>
			<g id="g13240" transform="translate(515.77 506.32)">
				<path id="path13242" fill="#FFFFFF" d="M-473.801,82.016l-2.413-0.604l-0.248,0.99l2.414,0.603L-473.801,82.016z"/>
			</g>
			<g id="g13244" transform="translate(515.77 506.32)">
				<path id="path13246" fill="none" stroke="#918F90" stroke-width="0.478" d="M-473.801,82.016l-2.413-0.604l-0.248,0.99
					l2.414,0.603L-473.801,82.016z M-491.989,83.152l3.048-5.87c4.989,2.762,10.879,4.79,14.893,5.723l-1.288,6.243"/>
			</g>
			<g id="g13248" transform="translate(515.02 509.59)">
				<path id="path13250" fill="#FFFFFF" d="M-473.801,82.015l-2.411-0.6l-0.249,0.989l2.412,0.602L-473.801,82.015z"/>
			</g>
			<g id="g13252" transform="translate(515.02 509.59)">
				<path id="path13254" fill="none" stroke="#918F90" stroke-width="0.478" d="M-473.801,82.015l-2.411-0.6l-0.249,0.989
					l2.412,0.602L-473.801,82.015z"/>
			</g>
			<g id="g13256" transform="translate(514.77 510.58)">
				<path id="path13258" fill="#FFFFFF" d="M-473.801,82.015l-2.411-0.602l-0.246,0.99l2.411,0.603L-473.801,82.015z"/>
			</g>
			<g id="g13260" transform="translate(514.77 510.58)">
				<path id="path13262" fill="none" stroke="#918F90" stroke-width="0.478" d="M-473.801,82.015l-2.411-0.602l-0.246,0.99
					l2.411,0.603L-473.801,82.015z"/>
			</g>
			<g id="g13264" transform="translate(514.52 511.57)">
				<path id="path13266" fill="#FFFFFF" d="M-473.801,82.016l-2.411-0.604l-0.248,0.987l2.411,0.604L-473.801,82.016z"/>
			</g>
			<g id="g13268" transform="translate(514.52 511.57)">
				<path id="path13270" fill="none" stroke="#918F90" stroke-width="0.478" d="M-473.801,82.016l-2.411-0.604l-0.248,0.987
					l2.411,0.604L-473.801,82.016z"/>
			</g>
			<g id="g13272" transform="translate(514.28 512.56)">
				<path id="path13274" fill="#FFFFFF" d="M-473.802,82.016l-2.411-0.604l-0.248,0.99l2.413,0.603L-473.802,82.016z"/>
			</g>
			<g id="g13276" transform="translate(514.28 512.56)">
				<path id="path13278" fill="none" stroke="#918F90" stroke-width="0.478" d="M-473.802,82.016l-2.411-0.604l-0.248,0.99
					l2.413,0.603L-473.802,82.016z M-493.293,82.438l2.8-5.529c4.991,2.762,12.638,5.162,16.652,6.096l-1.29,6.245"/>
			</g>
			<g id="g13280" transform="translate(513.73 515.84)">
				<path id="path13282" fill="#FFFFFF" d="M-473.802,82.015l-2.412-0.604l-0.247,0.99l2.412,0.603L-473.802,82.015z"/>
			</g>
			<g id="g13284" transform="translate(513.73 515.84)">
				<path id="path13286" fill="none" stroke="#918F90" stroke-width="0.478" d="M-473.802,82.015l-2.412-0.604l-0.247,0.99
					l2.412,0.603L-473.802,82.015z"/>
			</g>
			<g id="g13288" transform="translate(513.48 516.83)">
				<path id="path13290" fill="#FFFFFF" d="M-473.802,82.015l-2.411-0.602l-0.248,0.991l2.411,0.602L-473.802,82.015z"/>
			</g>
			<g id="g13292" transform="translate(513.48 516.83)">
				<path id="path13294" fill="none" stroke="#918F90" stroke-width="0.478" d="M-473.802,82.015l-2.411-0.602l-0.248,0.991
					l2.411,0.602L-473.802,82.015z"/>
			</g>
			<g id="g13296" transform="translate(513.24 517.82)">
				<path id="path13298" fill="#FFFFFF" d="M-473.802,82.016l-2.411-0.602l-0.249,0.988l2.416,0.601L-473.802,82.016z"/>
			</g>
			<g id="g13300" transform="translate(513.24 517.82)">
				<path id="path13302" fill="none" stroke="#918F90" stroke-width="0.478" d="M-473.802,82.016l-2.411-0.602l-0.249,0.988
					l2.416,0.601L-473.802,82.016z"/>
			</g>
			<g id="g13304" transform="translate(512.99 518.8)">
				<path id="path13306" fill="#FFFFFF" d="M-473.802,82.016l-2.416-0.602l-0.245,0.991l2.412,0.604L-473.802,82.016z"/>
			</g>
			<g id="g13308" transform="translate(512.99 518.8)">
				<path id="path13310" fill="none" stroke="#918F90" stroke-width="0.478" d="M-473.802,82.016l-2.416-0.602l-0.245,0.991
					l2.412,0.604L-473.802,82.016z"/>
			</g>
			<g id="g13312" transform="translate(513.43 524.41)">
				<path id="path13314" fill="#FFFFFF" d="M-473.802,82.016l-3.362-1.074l-0.298,0.978l3.361,1.069L-473.802,82.016z"/>
			</g>
			<g id="g13316" transform="translate(513.43 524.41)">
				<path id="path13318" fill="none" stroke="#918F90" stroke-width="0.478" d="M-473.802,82.016l-3.362-1.074l-0.298,0.978
					l3.361,1.069L-473.802,82.016z"/>
			</g>
			<g id="g13320" transform="translate(513.13 525.38)">
				<path id="path13322" fill="#FFFFFF" d="M-473.802,82.015l-3.362-1.07l-0.298,0.975l3.362,1.07L-473.802,82.015z"/>
			</g>
			<g id="g13324" transform="translate(513.13 525.38)">
				<path id="path13326" fill="none" stroke="#918F90" stroke-width="0.478" d="M-473.802,82.015l-3.362-1.07l-0.298,0.975
					l3.362,1.07L-473.802,82.015z"/>
			</g>
			<g id="g13328" transform="translate(531.39 503.2)">
				<path id="path13330" fill="#FFFFFF" d="M-473.802,82.015l2.411-0.603l0.25,0.991l-2.412,0.602L-473.802,82.015z"/>
			</g>
			<g id="g13332" transform="translate(531.39 503.2)">
				<path id="path13334" fill="none" stroke="#918F90" stroke-width="0.478" d="M-473.802,82.015l2.411-0.603l0.25,0.991
					l-2.412,0.602L-473.802,82.015z"/>
			</g>
			<g id="g13336" transform="translate(531.64 504.19)">
				<path id="path13338" fill="#FFFFFF" d="M-473.802,82.015l2.413-0.603l0.248,0.988l-2.412,0.603L-473.802,82.015z"/>
			</g>
			<g id="g13340" transform="translate(531.64 504.19)">
				<path id="path13342" fill="none" stroke="#918F90" stroke-width="0.478" d="M-473.802,82.015l2.413-0.603l0.248,0.988
					l-2.412,0.603L-473.802,82.015z"/>
			</g>
			<g id="g13344" transform="translate(531.88 505.18)">
				<path id="path13346" fill="#FFFFFF" d="M-473.802,82.015l2.412-0.603l0.247,0.992l-2.413,0.604L-473.802,82.015z"/>
			</g>
			<g id="g13348" transform="translate(531.88 505.18)">
				<path id="path13350" fill="none" stroke="#918F90" stroke-width="0.478" d="M-473.802,82.015l2.412-0.603l0.247,0.992
					l-2.413,0.604L-473.802,82.015z"/>
			</g>
			<g id="g13352" transform="translate(532.13 506.17)">
				<path id="path13354" fill="#FFFFFF" d="M-473.802,82.014l2.412-0.602l0.246,0.989l-2.411,0.604L-473.802,82.014z"/>
			</g>
			<g id="g13356" transform="translate(532.13 506.17)">
				<path id="path13358" fill="none" stroke="#918F90" stroke-width="0.478" d="M-473.802,82.014l2.412-0.602l0.246,0.989
					l-2.411,0.604L-473.802,82.014z M-455.563,83.377l-3.05-5.874c-4.987,2.765-10.926,4.565-14.941,5.503l1.287,6.243"/>
			</g>
			<g id="g13360" transform="translate(532.93 509.59)">
				<path id="path13362" fill="#FFFFFF" d="M-473.802,82.015l2.411-0.6l0.249,0.989l-2.411,0.602L-473.802,82.015z"/>
			</g>
			<g id="g13364" transform="translate(532.93 509.59)">
				<path id="path13366" fill="none" stroke="#918F90" stroke-width="0.478" d="M-473.802,82.015l2.411-0.6l0.249,0.989
					l-2.411,0.602L-473.802,82.015z"/>
			</g>
			<g id="g13368" transform="translate(533.18 510.58)">
				<path id="path13370" fill="#FFFFFF" d="M-473.802,82.015l2.411-0.602l0.248,0.99l-2.413,0.603L-473.802,82.015z"/>
			</g>
			<g id="g13372" transform="translate(533.18 510.58)">
				<path id="path13374" fill="none" stroke="#918F90" stroke-width="0.478" d="M-473.802,82.015l2.411-0.602l0.248,0.99
					l-2.413,0.603L-473.802,82.015z"/>
			</g>
			<g id="g13376" transform="translate(533.42 511.57)">
				<path id="path13378" fill="#FFFFFF" d="M-473.801,82.016l2.413-0.604l0.246,0.988l-2.411,0.605L-473.801,82.016z"/>
			</g>
			<g id="g13380" transform="translate(533.42 511.57)">
				<path id="path13382" fill="none" stroke="#918F90" stroke-width="0.478" d="M-473.801,82.016l2.413-0.604l0.246,0.988
					l-2.411,0.605L-473.801,82.016z"/>
			</g>
			<g id="g13384" transform="translate(533.67 512.56)">
				<path id="path13386" fill="#FFFFFF" d="M-473.801,82.016l2.411-0.604l0.248,0.99l-2.412,0.603L-473.801,82.016z"/>
			</g>
			<g id="g13388" transform="translate(533.67 512.56)">
				<path id="path13390" fill="none" stroke="#918F90" stroke-width="0.478" d="M-473.801,82.016l2.411-0.604l0.248,0.99
					l-2.412,0.603L-473.801,82.016z M-454.133,82.784l-3.05-5.875c-4.988,2.762-12.562,5.162-16.58,6.096l1.291,6.245"/>
			</g>
			<g id="g13392" transform="translate(534.27 515.99)">
				<path id="path13394" fill="#FFFFFF" d="M-473.801,82.015l2.412-0.604l0.248,0.99l-2.414,0.603L-473.801,82.015z"/>
			</g>
			<g id="g13396" transform="translate(534.27 515.99)">
				<path id="path13398" fill="none" stroke="#918F90" stroke-width="0.478" d="M-473.801,82.015l2.412-0.604l0.248,0.99
					l-2.414,0.603L-473.801,82.015z"/>
			</g>
			<g id="g13400" transform="translate(534.52 516.98)">
				<path id="path13402" fill="#FFFFFF" d="M-473.801,82.015l2.414-0.603l0.245,0.99l-2.412,0.603L-473.801,82.015z"/>
			</g>
			<g id="g13404" transform="translate(534.52 516.98)">
				<path id="path13406" fill="none" stroke="#918F90" stroke-width="0.478" d="M-473.801,82.015l2.414-0.603l0.245,0.99
					l-2.412,0.603L-473.801,82.015z"/>
			</g>
			<g id="g13408" transform="translate(534.76 517.97)">
				<path id="path13410" fill="#FFFFFF" d="M-473.801,82.016l2.413-0.602l0.248,0.988l-2.412,0.607L-473.801,82.016z"/>
			</g>
			<g id="g13412" transform="translate(534.76 517.97)">
				<path id="path13414" fill="none" stroke="#918F90" stroke-width="0.478" d="M-473.801,82.016l2.413-0.602l0.248,0.988
					l-2.412,0.607L-473.801,82.016z"/>
			</g>
			<g id="g13416" transform="translate(535.01 518.96)">
				<path id="path13418" fill="#FFFFFF" d="M-473.801,82.016l2.412-0.606l0.247,0.991l-2.414,0.602L-473.801,82.016z"/>
			</g>
			<g id="g13420" transform="translate(535.01 518.96)">
				<path id="path13422" fill="none" stroke="#918F90" stroke-width="0.478" d="M-473.801,82.016l2.412-0.606l0.247,0.991
					l-2.414,0.602L-473.801,82.016z"/>
			</g>
			<g id="g13424" transform="translate(534.51 524.41)">
				<path id="path13426" fill="#FFFFFF" d="M-473.801,82.016l3.359-1.074l0.299,0.977l-3.36,1.069L-473.801,82.016z"/>
			</g>
			<g id="g13428" transform="translate(534.51 524.41)">
				<path id="path13430" fill="none" stroke="#918F90" stroke-width="0.478" d="M-473.801,82.016l3.359-1.074l0.299,0.977
					l-3.36,1.069L-473.801,82.016z"/>
			</g>
			<g id="g13432" transform="translate(534.81 525.38)">
				<path id="path13434" fill="#FFFFFF" d="M-473.801,82.015l3.361-1.07l0.3,0.975l-3.36,1.07L-473.801,82.015z"/>
			</g>
			<g id="g13436" transform="translate(534.81 525.38)">
				<path id="path13438" fill="none" stroke="#918F90" stroke-width="0.478" d="M-473.801,82.015l3.361-1.07l0.3,0.975l-3.36,1.07
					L-473.801,82.015z M-455.287,69.967l2.082,4.012c0.331,0.757,1.045,1.887-0.912,2.685c-1.835,0.752-18.898,6.179-21.167,6.906
					c-1.428-0.559-4.971-2.38-9.358-2.38c-4.388,0-7.927,1.82-9.357,2.38c-2.268-0.727-19.332-6.155-21.167-6.905
					c-1.957-0.798-1.241-1.928-0.911-2.685l2.08-4.012"/>
			</g>
			<g id="g13440" transform="translate(560.92 508.73)">
				<path id="path13442" fill="none" stroke="#918F90" stroke-width="0.957" stroke-linejoin="round" d="M-473.801,82.015
					c0,0-11.884,8.045-26.334,11.136c-1.809-6.578-6.148-12.051-10.616-12.051c-4.462,0-8.802,5.47-10.611,12.043
					c-14.402-3.096-26.334-11.128-26.334-11.128V51.9c3.765-4.885,6.095-11.642,6.095-19.106c0-7.466-2.33-14.221-6.095-19.109
					v-28.27c0-6.223,2.088-6.4,2.923-6.034c3.28,2.584,11.638,4.355,20.037,5.28c1.813,5.772,7.202,9.959,13.571,9.959
					c6.342,0,11.713-4.155,13.545-9.891c8.404-0.905,16.745-2.701,20.9-5.348c2.395-1.041,2.919,1.62,2.919,6.034v28.27
					c-3.767,4.887-6.096,11.643-6.096,19.109c0,7.464,2.329,14.221,6.096,19.106L-473.801,82.015L-473.801,82.015z"/>
			</g>
			<g id="g13444" transform="translate(491.38 396.2)">
				<path id="path13446" fill="none" stroke="#918F90" stroke-width="0.478" d="M-473.802,82.016c-0.694-0.723-1.316-1.52-1.87-2.37
					l-1.025-1.833c-0.757-1.577-1.271-3.303-1.478-5.147c-0.139-1.253-0.118-2.484,0.022-3.68l3.643,0.48
					c-0.105,0.909-0.122,1.841-0.016,2.793c0.143,1.296,0.498,2.512,0.998,3.636l1.152,2.03c0.295,0.42,0.734,0.977,1.161,1.466
					L-473.802,82.016z M-474.56,69.459l-3.595-0.473 M-474.581,70.416l-3.686-0.177 M-474.549,71.37l-3.725,0.127 M-474.567,72.327
					l-3.614,0.425 M-474.332,73.259l-3.65,0.737 M-473.563,76.02l-3.223,1.546 M-472.978,76.945l-3.073,1.846 M-472.396,77.866
					l-2.92,2.152 M-471.811,78.618l-2.723,2.37"/>
			</g>
			<g id="g13448" transform="translate(523.56 392.89)">
				<path id="path13450" fill="none" stroke="#918F90" stroke-width="0.957" stroke-linejoin="round" d="M-473.801,82.015
					c-7.378,0-13.445,5.62-14.153,12.811c-6.424-1.811-12.127-4.15-16.167-6.005 M-510.333,72.294v-83.179
					c0-6.223,3.123-5.366,3.956-5.002c5.038,3.97,19.604,6.036,32.99,6.036 M-503.886,88.672c0,0,1.862-0.655,1.862-2.622
					c0-1.968-1.37-3.35-1.37-3.35"/>
			</g>
			<g id="g13452" transform="translate(556.57 396.2)">
				<path id="path13454" fill="none" stroke="#918F90" stroke-width="0.478" d="M-473.801,82.016c0.691-0.723,1.315-1.52,1.868-2.37
					l1.027-1.833c0.753-1.578,1.27-3.303,1.474-5.147c0.141-1.253,0.118-2.484-0.02-3.68l-3.645,0.48
					c0.108,0.909,0.123,1.841,0.018,2.793c-0.144,1.296-0.494,2.512-0.996,3.636l-1.152,2.03c-0.296,0.42-0.736,0.977-1.161,1.466
					L-473.801,82.016z M-473.047,69.459l3.596-0.473 M-473.024,70.416l3.685-0.177 M-473.058,71.37l3.727,0.127 M-473.036,72.327
					l3.611,0.425 M-473.275,73.259l3.652,0.737 M-474.044,76.02l3.226,1.546 M-474.625,76.945l3.071,1.846 M-475.211,77.866
					l2.92,2.152 M-475.793,78.618l2.72,2.37"/>
			</g>
			<g id="g13456" transform="translate(524.39 392.89)">
				<path id="path13458" fill="none" stroke="#918F90" stroke-width="0.957" stroke-linejoin="round" d="M-473.802,82.015
					c7.38,0,13.445,5.62,14.153,12.811c6.423-1.811,12.126-4.15,16.167-6.005 M-437.271,72.294v-83.179
					c0-6.223-3.124-5.366-3.959-5.002c-5.037,3.97-19.602,6.036-32.988,6.036 M-443.718,88.672c0,0-1.859-0.655-1.859-2.622
					c0-1.968,1.371-3.35,1.371-3.35"/>
			</g>
			<g id="g13460" transform="translate(505.38 570.79)">
				<path id="path13462" fill="none" stroke="#918F90" stroke-width="0.957" d="M-473.802,82.016
					c3.939,3.653,10.785,6.078,18.584,6.078c7.795,0,14.634-2.422,18.577-6.071c7.483,5.785,12.327,14.94,12.327,25.015
					c0,11.659-1.913,20.144-4.234,20.296c-0.884-10.049-4.735-15.702-6.634-18.885c-0.052,0.021-0.105,0.042-0.156,0.062
					c-4.936,6.176-12.015,10.048-19.879,10.048c-7.861,0-14.936-3.869-19.873-10.041c-0.052-0.022-0.109-0.048-0.162-0.069
					c-4.787,7.134-6.223,14.394-6.652,19.074c-1.846-0.652-3.956-5.641-3.956-21.083C-485.861,96.486-481.132,87.641-473.802,82.016
					z"/>
			</g>
			<g id="g13464" transform="translate(550.01 283.36)">
				<path id="path13466" fill="none" stroke="#969695" stroke-width="0.478" d="M-473.801,82.016c0,2.861-11.661,3.834-26.047,3.834
					c-14.384,0-26.046-0.973-26.046-3.834 M-523.171,45.528l1.634-14.444V16.631h12.649v20.391l-3.209,8.505"/>
			</g>
			<path id="path13468" fill="#FFFFFF" stroke="#918F90" stroke-width="0.478" d="M65.738,331.891h4.426v1.021h-4.426v-1.02V331.891
				z"/>
			<path id="path13470" fill="#FFFFFF" stroke="#918F90" stroke-width="0.478" d="M65.738,332.912h4.426v1.018h-4.426v-1.02V332.912
				z"/>
			<path id="path13472" fill="#FFFFFF" stroke="#918F90" stroke-width="0.478" d="M65.738,333.922h4.426v1.02h-4.426V333.922z"/>
			<path id="path13474" fill="#FFFFFF" stroke="#918F90" stroke-width="0.478" d="M62.409,331.891h3.327v1.021h-3.327v-1.02V331.891
				z"/>
			<path id="path13476" fill="#FFFFFF" stroke="#918F90" stroke-width="0.478" d="M62.409,332.912h3.327v1.018h-3.327v-1.02V332.912
				z"/>
			<path id="path13478" fill="#FFFFFF" stroke="#918F90" stroke-width="0.478" d="M62.409,333.922h3.327v1.02h-3.327V333.922z"/>
			<path id="path13480" fill="#FFFFFF" stroke="#918F90" stroke-width="0.478" d="M65.738,334.941h4.426v1.021h-4.426v-1.02V334.941
				z"/>
			<path id="path13482" fill="#FFFFFF" stroke="#918F90" stroke-width="0.478" d="M62.409,334.941h3.327v1.021h-3.327v-1.02V334.941
				z"/>
			<path id="path13484" fill="#FFFFFF" stroke="#918F90" stroke-width="0.478" d="M65.738,335.972h4.426v1.02h-4.426V335.972z"/>
			<path id="path13486" fill="#FFFFFF" stroke="#918F90" stroke-width="0.478" d="M62.409,335.972h3.327v1.02h-3.327V335.972z"/>
			<path id="path13488" fill="#FFFFFF" stroke="#918F90" stroke-width="0.478" d="M65.738,336.991h4.426v1.02h-4.426V336.991z"/>
			<path id="path13490" fill="#FFFFFF" stroke="#918F90" stroke-width="0.478" d="M62.409,336.991h3.327v1.02h-3.327V336.991z"/>
			<path id="path13492" fill="#FFFFFF" stroke="#918F90" stroke-width="0.478" d="M70.159,331.891h3.326v1.021h-3.326v-1.02V331.891
				z"/>
			<path id="path13494" fill="#FFFFFF" stroke="#918F90" stroke-width="0.478" d="M70.159,332.912h3.326v1.018h-3.326v-1.02V332.912
				z"/>
			<path id="path13496" fill="#FFFFFF" stroke="#918F90" stroke-width="0.478" d="M70.159,333.922h3.326v1.02h-3.326V333.922z"/>
			<path id="path13498" fill="#FFFFFF" stroke="#918F90" stroke-width="0.478" d="M70.159,334.941h3.326v1.021h-3.326v-1.02V334.941
				z"/>
			<path id="path13500" fill="#FFFFFF" stroke="#918F90" stroke-width="0.478" d="M70.159,335.972h3.326v1.02h-3.326V335.972z"/>
			<path id="path13502" fill="#FFFFFF" stroke="#918F90" stroke-width="0.478" d="M70.159,336.991h3.326v1.02h-3.326V336.991z"/>
			<path id="path13504" fill="#FFFFFF" stroke="#918F90" stroke-width="0.478" d="M62.409,331.902h11.077v-3.007H62.409v3.01
				V331.902z"/>
			<g id="g13506" transform="translate(547.29 246.88)">
				<path id="path13508" fill="none" stroke="#969695" stroke-width="0.478" d="M-473.802,82.015l-1.638-14.443V53.118h-12.648
					V73.51l3.209,8.505"/>
			</g>
			<path id="path13510" fill="#FFFFFF" stroke="#918F90" stroke-width="0.478" d="M71.069,222.312h15.316v33.284H71.069v-33.28
				V222.312z"/>
			<g id="g13512" transform="translate(560.21 122.4)">
				<path id="path13514" fill="#FFFFFF" stroke="#918F90" stroke-width="0.478" d="M-473.801,82.016
					c-0.03-0.071-0.059-0.145-0.089-0.218c-5.352-13.111-19.509-22.484-36.152-22.484c-16.737,0-30.959,9.477-36.241,22.702v10.912
					l3.098,3.102v3.613l-3.098,3.095v24.005l3.098,4.134v28.648l-3.098,4.128v7.489l2.066,10.582h4.745V169.33h20.391v-14.471
					c-4.19-2.88-6.941-7.703-6.941-13.171c0-5.468,2.752-10.293,6.941-13.175V86.913h-20.391v5.161h2.71v8.855l17.68,0.13"/>
			</g>
			<g id="g13516" transform="translate(537.48 173.58)">
				<path id="path13518" fill="#FFFFFF" d="M-473.802,82.015c-1.164-1.85-2.684-3.444-4.48-4.682V35.732h11.865v46.283H-473.802z"/>
			</g>
			<g id="g13520" transform="translate(537.48 173.58)">
				<path id="path13522" fill="none" stroke="#918F90" stroke-width="0.478" d="M-473.802,82.015
					c-1.164-1.85-2.684-3.444-4.48-4.682V35.732h11.865v46.283H-473.802z"/>
			</g>
			<g id="g13524" transform="translate(533 217.98)">
				<path id="path13526" fill="#FFFFFF" d="M-473.802,82.015V59.283c4.191-2.88,6.939-7.703,6.939-13.171
					c0-0.972-0.1-1.92-0.264-2.843h10.674c5.441,0,9.854,4.413,9.854,9.853v28.893H-473.802z"/>
			</g>
			<g id="g13528" transform="translate(533 217.98)">
				<path id="path13530" fill="none" stroke="#918F90" stroke-width="0.478" d="M-473.802,82.015V59.283
					c4.191-2.88,6.939-7.703,6.939-13.171c0-0.972-0.1-1.92-0.264-2.843h10.674c5.441,0,9.854,4.413,9.854,9.853v28.893H-473.802z
					 M-473.287,33.3c3.901,2.916,6.423,7.568,6.423,12.812 M-454.545-25.218c-2.54,1.188-5.307,2.22-8.259,3.071
					c-5.933-2.73-12.754-4.308-20.036-4.308c-7.279,0-14.102,1.577-20.034,4.308c-2.952-0.852-5.723-1.883-8.262-3.071"/>
			</g>
			<g id="g13532" transform="translate(514.93 127.3)">
				<path id="path13534" fill="#FFFFFF" stroke="#918F90" stroke-width="0.478" d="M-473.802,82.016h47.236l-2.709-6.634"/>
			</g>
			<g id="g13536" transform="translate(503.93 113.82)">
				<path id="path13538" fill="#FFFFFF" stroke="#918F90" stroke-width="0.478" d="M-473.802,82.016v-6.841h-3.355"/>
			</g>
			<g id="g13540" transform="translate(544 113.82)">
				<path id="path13542" fill="#FFFFFF" stroke="#918F90" stroke-width="0.478" d="M-473.802,82.016v-6.841h3.356"/>
			</g>
		</g>
	</g>
	<g id="g13760">
		<g id="g13762">
			<path id="path14338" fill="#FFFFFF" stroke="#918F90" stroke-width="0.498" d="M71.978,277.072h-12.62v22.991h12.62v-22.99
				V277.072z"/>
			<g id="g14340" transform="translate(489.13 266.64)">
				<path id="path14342" fill="none" stroke="#918F90" stroke-width="0.454" d="M-473.802,82.015h4.17v-3.107h4.51v19.92h-4.51
					v-2.923h-4.17V82.015z M-404.288,96.136h-4.17v2.925h-4.51V79.14h4.51v3.107h4.17V96.136z"/>
			</g>
			<g id="g15704" transform="translate(544.9 636.58)">
				<path id="path15706" fill="#231F20" d="M-473.802,82.015h-0.316c0.301,0.127,0.516,0.427,0.516,0.775
					c0,0.463-0.376,0.84-0.839,0.84c-0.464,0-0.839-0.377-0.839-0.84c0-0.349,0.214-0.648,0.516-0.775h-0.329
					c-0.427,0-0.774-0.346-0.774-0.774v-1.936c0-0.54,0.304-0.764,0.749-0.854v-2.695h1.354v2.699
					c0.44,0.089,0.737,0.313,0.737,0.85v1.936C-473.027,81.67-473.37,82.015-473.802,82.015"/>
			</g>
			<g id="g15708" transform="translate(502.86 635.04)">
				<path id="path15710" fill="#231F20" d="M-473.801,82.016h0.516l-0.516,1.548h-0.582c0.304,0.127,0.518,0.426,0.518,0.775
					c0,0.463-0.375,0.84-0.839,0.84c-0.465,0-0.838-0.377-0.838-0.84c0-0.349,0.215-0.648,0.516-0.775h-0.582l-0.516-1.548h0.516
					l-0.516-2.066h0.722l0.28-2.645h0.838l0.278,2.645h0.723L-473.801,82.016z"/>
			</g>
		</g>
	</g>
	<text transform="matrix(0 0.8 0.8 0 32.5785 685.5516)" fill="#231F20" font-family="'ArialNarrow-Bold'" font-size="7.5169">E</text>
	<text transform="matrix(0 0.8 0.8 0 32.5785 688.7415)" fill="#231F20" font-family="'ArialNarrow-Bold'" font-size="7.5169">L</text>
	<text transform="matrix(0 0.8 0.8 0 32.5785 691.5922)" fill="#231F20" font-family="'ArialNarrow-Bold'" font-size="7.5169">E</text>
	<text transform="matrix(0 0.8 0.8 0 32.5785 694.7719)" fill="#231F20" font-family="'ArialNarrow-Bold'" font-size="7.5169">V</text>
	<text transform="matrix(0 0.8 0.8 0 32.5785 697.8516)" fill="#231F20" font-family="'ArialNarrow-Bold'" font-size="7.5169">.</text>
	<text transform="matrix(0 0.8 0.8 0 72.0687 685.3422)" fill="#231F20" font-family="'ArialNarrow-Bold'" font-size="7.5169">E</text>
	<text transform="matrix(0 0.8 0.8 0 72.0687 688.5312)" fill="#231F20" font-family="'ArialNarrow-Bold'" font-size="7.5169">L</text>
	<text transform="matrix(0 0.8 0.8 0 72.0687 691.3812)" fill="#231F20" font-family="'ArialNarrow-Bold'" font-size="7.5169">E</text>
	<text transform="matrix(0 0.8 0.8 0 72.0687 694.5618)" fill="#231F20" font-family="'ArialNarrow-Bold'" font-size="7.5169">V</text>
	<text transform="matrix(0 0.8 0.8 0 72.0687 697.6422)" fill="#231F20" font-family="'ArialNarrow-Bold'" font-size="7.5169">.</text>
	<g id="jogging-track">
		<text transform="matrix(0 0.8 0.8 0 8.0183 500.4813)" fill="#231F20" font-family="'ArialNarrow-Bold'" font-size="7.5169">J</text>
		<text transform="matrix(0 0.8 0.8 0 8.0183 503.6719)" fill="#231F20" font-family="'ArialNarrow-Bold'" font-size="7.5169">O</text>
		<text transform="matrix(0 0.8 0.8 0 8.0183 507.5312)" fill="#231F20" font-family="'ArialNarrow-Bold'" font-size="7.5169">G</text>
		<text transform="matrix(0 0.8 0.8 0 8.0183 511.3813)" fill="#231F20" font-family="'ArialNarrow-Bold'" font-size="7.5169">G</text>
		<text transform="matrix(0 0.8 0.8 0 8.0183 515.2313)" fill="#231F20" font-family="'ArialNarrow-Bold'" font-size="7.5169">I</text>
		<text transform="matrix(0 0.8 0.8 0 8.0183 517.0922)" fill="#231F20" font-family="'ArialNarrow-Bold'" font-size="7.5169">N</text>
		<text transform="matrix(0 0.8 0.8 0 8.0183 521.2812)" fill="#231F20" font-family="'ArialNarrow-Bold'" font-size="7.5169">G</text>
		<text transform="matrix(0 0.8 0.8 0 8.0183 525.1312)" fill="#231F20" font-family="'ArialNarrow-Bold'" font-size="7.5169"> </text>
		<text transform="matrix(0 0.8 0.8 0 8.0183 526.6516)" fill="#231F20" font-family="'ArialNarrow-Bold'" font-size="7.5169">T</text>
		<text transform="matrix(0 0.8 0.8 0 8.0183 529.8422)" fill="#231F20" font-family="'ArialNarrow-Bold'" font-size="7.5169">R</text>
		<text transform="matrix(0 0.8 0.8 0 8.0183 533.3617)" fill="#231F20" font-family="'ArialNarrow-Bold'" font-size="7.5169">A</text>
		<text transform="matrix(0 0.8 0.8 0 8.0183 537.2117)" fill="#231F20" font-family="'ArialNarrow-Bold'" font-size="7.5169">C</text>
		<text transform="matrix(0 0.8 0.8 0 8.0183 540.7414)" fill="#231F20" font-family="'ArialNarrow-Bold'" font-size="7.5169">K</text>
		<text transform="matrix(0 0.8 0.8 0 95.6984 500.4813)" fill="#231F20" font-family="'ArialNarrow-Bold'" font-size="7.5169">J</text>
		<text transform="matrix(0 0.8 0.8 0 95.6984 503.6719)" fill="#231F20" font-family="'ArialNarrow-Bold'" font-size="7.5169">O</text>
		<text transform="matrix(0 0.8 0.8 0 95.6984 507.5312)" fill="#231F20" font-family="'ArialNarrow-Bold'" font-size="7.5169">G</text>
		<text transform="matrix(0 0.8 0.8 0 95.6984 511.3813)" fill="#231F20" font-family="'ArialNarrow-Bold'" font-size="7.5169">G</text>
		<text transform="matrix(0 0.8 0.8 0 95.6984 515.2313)" fill="#231F20" font-family="'ArialNarrow-Bold'" font-size="7.5169">I</text>
		<text transform="matrix(0 0.8 0.8 0 95.6984 517.0922)" fill="#231F20" font-family="'ArialNarrow-Bold'" font-size="7.5169">N</text>
		<text transform="matrix(0 0.8 0.8 0 95.6984 521.2812)" fill="#231F20" font-family="'ArialNarrow-Bold'" font-size="7.5169">G</text>
		<text transform="matrix(0 0.8 0.8 0 95.6984 525.1312)" fill="#231F20" font-family="'ArialNarrow-Bold'" font-size="7.5169"> </text>
		<text transform="matrix(0 0.8 0.8 0 95.6984 526.6516)" fill="#231F20" font-family="'ArialNarrow-Bold'" font-size="7.5169">T</text>
		<text transform="matrix(0 0.8 0.8 0 95.6984 529.8422)" fill="#231F20" font-family="'ArialNarrow-Bold'" font-size="7.5169">R</text>
		<text transform="matrix(0 0.8 0.8 0 95.6984 533.3617)" fill="#231F20" font-family="'ArialNarrow-Bold'" font-size="7.5169">A</text>
		<text transform="matrix(0 0.8 0.8 0 95.6984 537.2117)" fill="#231F20" font-family="'ArialNarrow-Bold'" font-size="7.5169">C</text>
		<text transform="matrix(0 0.8 0.8 0 95.6984 540.7414)" fill="#231F20" font-family="'ArialNarrow-Bold'" font-size="7.5169">K</text>
	</g>
	<g id="bar">
		<text transform="matrix(0.8 0 0 -0.8 44.5785 621.6219)" fill="#231F20" font-family="'ArialNarrow-Bold'" font-size="7.5169">B</text>
		<text transform="matrix(0.8 0 0 -0.8 48.4285 621.6219)" fill="#231F20" font-family="'ArialNarrow-Bold'" font-size="7.5169">A</text>
		<text transform="matrix(0.8 0 0 -0.8 52.2883 621.6219)" fill="#231F20" font-family="'ArialNarrow-Bold'" font-size="7.5169">R</text>
	</g>
	<text transform="matrix(0 0.8 0.8 0 75.7484 351.293)" fill="#231F20" font-family="'ArialNarrow-Bold'" font-size="7.5169">E</text>
	<text transform="matrix(0 0.8 0.8 0 75.7484 354.4711)" fill="#231F20" font-family="'ArialNarrow-Bold'" font-size="7.5169">L</text>
	<text transform="matrix(0 0.8 0.8 0 75.7484 357.3211)" fill="#231F20" font-family="'ArialNarrow-Bold'" font-size="7.5169">E</text>
	<text transform="matrix(0 0.8 0.8 0 75.7484 360.5117)" fill="#231F20" font-family="'ArialNarrow-Bold'" font-size="7.5169">V</text>
	<text transform="matrix(0 0.8 0.8 0 75.7484 363.593)" fill="#231F20" font-family="'ArialNarrow-Bold'" font-size="7.5169">.</text>
	<text transform="matrix(0 0.8 0.8 0 29.1683 351.1211)" fill="#231F20" font-family="'ArialNarrow-Bold'" font-size="7.5169">E</text>
	<text transform="matrix(0 0.8 0.8 0 29.1683 354.3023)" fill="#231F20" font-family="'ArialNarrow-Bold'" font-size="7.5169">L</text>
	<text transform="matrix(0 0.8 0.8 0 29.1683 357.1523)" fill="#231F20" font-family="'ArialNarrow-Bold'" font-size="7.5169">E</text>
	<text transform="matrix(0 0.8 0.8 0 29.1683 360.343)" fill="#231F20" font-family="'ArialNarrow-Bold'" font-size="7.5169">V</text>
	<text transform="matrix(0 0.8 0.8 0 29.1683 363.4211)" fill="#231F20" font-family="'ArialNarrow-Bold'" font-size="7.5169">.</text>
	<g id="adventure-ocean">
		<text transform="matrix(0.8 0 0 -0.8 11.3984 239.7414)" fill="#231F20" font-family="'ArialNarrow-Bold'" font-size="7.5169">A</text>
		<text transform="matrix(0.8 0 0 -0.8 15.2586 239.7414)" fill="#231F20" font-family="'ArialNarrow-Bold'" font-size="7.5169">D</text>
		<text transform="matrix(0.8 0 0 -0.8 19.1086 239.7414)" fill="#231F20" font-family="'ArialNarrow-Bold'" font-size="7.5169">V</text>
		<text transform="matrix(0.8 0 0 -0.8 22.6383 239.7414)" fill="#231F20" font-family="'ArialNarrow-Bold'" font-size="7.5169">E</text>
		<text transform="matrix(0.8 0 0 -0.8 25.8183 239.7414)" fill="#231F20" font-family="'ArialNarrow-Bold'" font-size="7.5169">N</text>
		<text transform="matrix(0.8 0 0 -0.8 30.0086 239.7414)" fill="#231F20" font-family="'ArialNarrow-Bold'" font-size="7.5169">T</text>
		<text transform="matrix(0.8 0 0 -0.8 33.1984 239.7414)" fill="#231F20" font-family="'ArialNarrow-Bold'" font-size="7.5169">U</text>
		<text transform="matrix(0.8 0 0 -0.8 37.0586 239.7414)" fill="#231F20" font-family="'ArialNarrow-Bold'" font-size="7.5169">R</text>
		<text transform="matrix(0.8 0 0 -0.8 40.5785 239.7414)" fill="#231F20" font-family="'ArialNarrow-Bold'" font-size="7.5169">E</text>
		<text transform="matrix(0.8 0 0 -0.8 18.2785 233.7211)" fill="#231F20" font-family="'ArialNarrow-Bold'" font-size="7.5169">O</text>
		<text transform="matrix(0.8 0 0 -0.8 22.1285 233.7211)" fill="#231F20" font-family="'ArialNarrow-Bold'" font-size="7.5169">C</text>
		<text transform="matrix(0.8 0 0 -0.8 25.6484 233.7211)" fill="#231F20" font-family="'ArialNarrow-Bold'" font-size="7.5169">E</text>
		<text transform="matrix(0.8 0 0 -0.8 28.8383 233.7211)" fill="#231F20" font-family="'ArialNarrow-Bold'" font-size="7.5169">A</text>
		<text transform="matrix(0.8 0 0 -0.8 32.6984 233.7211)" fill="#231F20" font-family="'ArialNarrow-Bold'" font-size="7.5169">N</text>
	</g>
	<g id="video-arcade">
		<text transform="matrix(0.72 0 0 -0.8 43.4383 265.4813)" fill="#231F20" font-family="'ArialNarrow-Bold'" font-size="7.5169">V</text>
		<text transform="matrix(0.72 0 0 -0.8 46.6078 265.4813)" fill="#231F20" font-family="'ArialNarrow-Bold'" font-size="7.5169">I</text>
		<text transform="matrix(0.72 0 0 -0.8 48.2781 265.4813)" fill="#231F20" font-family="'ArialNarrow-Bold'" font-size="7.5169">D</text>
		<text transform="matrix(0.72 0 0 -0.8 51.7484 265.4813)" fill="#231F20" font-family="'ArialNarrow-Bold'" font-size="7.5169">E</text>
		<text transform="matrix(0.72 0 0 -0.8 54.6078 265.4813)" fill="#231F20" font-family="'ArialNarrow-Bold'" font-size="7.5169">O</text>
		<text transform="matrix(0.72 0 0 -0.8 40.9484 259.4617)" fill="#231F20" font-family="'ArialNarrow-Bold'" font-size="7.5169">A</text>
		<text transform="matrix(0.72 0 0 -0.8 44.4187 259.4617)" fill="#231F20" font-family="'ArialNarrow-Bold'" font-size="7.5169">R</text>
		<text transform="matrix(0.72 0 0 -0.8 47.589 259.4617)" fill="#231F20" font-family="'ArialNarrow-Bold'" font-size="7.5169">C</text>
		<text transform="matrix(0.72 0 0 -0.8 50.7687 259.4617)" fill="#231F20" font-family="'ArialNarrow-Bold'" font-size="7.5169">A</text>
		<text transform="matrix(0.72 0 0 -0.8 54.2383 259.4617)" fill="#231F20" font-family="'ArialNarrow-Bold'" font-size="7.5169">D</text>
		<text transform="matrix(0.72 0 0 -0.8 57.6984 259.4617)" fill="#231F20" font-family="'ArialNarrow-Bold'" font-size="7.5169">E</text>
	</g>
	<g id="fuel-teen-club">
		<text transform="matrix(0.8 0 0 -0.8 27.4586 199.9711)" fill="#231F20" font-family="'ArialNarrow-Bold'" font-size="7.5169">F</text>
		<text transform="matrix(0.8 0 0 -0.8 30.3086 199.9711)" fill="#231F20" font-family="'ArialNarrow-Bold'" font-size="7.5169">U</text>
		<text transform="matrix(0.8 0 0 -0.8 34.1586 199.9711)" fill="#231F20" font-family="'ArialNarrow-Bold'" font-size="7.5169">E</text>
		<text transform="matrix(0.8 0 0 -0.8 37.3484 199.9711)" fill="#231F20" font-family="'ArialNarrow-Bold'" font-size="7.5169">L</text>
		<text transform="matrix(0.8 0 0 -0.8 40.1984 199.9711)" fill="#231F20" font-family="'ArialNarrow-Bold'" font-size="7.5169"> </text>
		<text transform="matrix(0.8 0 0 -0.8 41.7183 199.9711)" fill="#231F20" font-family="'ArialNarrow-Bold'" font-size="7.5169">T</text>
		<text transform="matrix(0.8 0 0 -0.8 44.8984 199.9711)" fill="#231F20" font-family="'ArialNarrow-Bold'" font-size="7.5169">E</text>
		<text transform="matrix(0.8 0 0 -0.8 48.0883 199.9711)" fill="#231F20" font-family="'ArialNarrow-Bold'" font-size="7.5169">E</text>
		<text transform="matrix(0.8 0 0 -0.8 51.2781 199.9711)" fill="#231F20" font-family="'ArialNarrow-Bold'" font-size="7.5169">N</text>
		<text transform="matrix(0.8 0 0 -0.8 55.4687 199.9711)" fill="#231F20" font-family="'ArialNarrow-Bold'" font-size="7.5169"> </text>
		<text transform="matrix(0.8 0 0 -0.8 56.9781 199.9711)" fill="#231F20" font-family="'ArialNarrow-Bold'" font-size="7.5169">C</text>
		<text transform="matrix(0.8 0 0 -0.8 60.5086 199.9711)" fill="#231F20" font-family="'ArialNarrow-Bold'" font-size="7.5169">L</text>
		<text transform="matrix(0.8 0 0 -0.8 63.3586 199.9711)" fill="#231F20" font-family="'ArialNarrow-Bold'" font-size="7.5169">U</text>
		<text transform="matrix(0.8 0 0 -0.8 67.2086 199.9711)" fill="#231F20" font-family="'ArialNarrow-Bold'" font-size="7.5169">B</text>
	</g>
	<g id="the-living-room">
		<text transform="matrix(0 0.8 0.8 0 78.5586 266.043)" fill="#231F20" font-family="'ArialNarrow-Bold'" font-size="6.9924">T</text>
		<text transform="matrix(0 0.8 0.8 0 78.5586 269.0023)" fill="#231F20" font-family="'ArialNarrow-Bold'" font-size="6.9924">H</text>
		<text transform="matrix(0 0.8 0.8 0 78.5586 272.593)" fill="#231F20" font-family="'ArialNarrow-Bold'" font-size="6.9924">E</text>
		<text transform="matrix(0 0.8 0.8 0 78.5586 275.5617)" fill="#231F20" font-family="'ArialNarrow-Bold'" font-size="6.9924"> </text>
		<text transform="matrix(0 0.8 0.8 0 78.5586 276.9617)" fill="#231F20" font-family="'ArialNarrow-Bold'" font-size="6.9924">L</text>
		<text transform="matrix(0 0.8 0.8 0 78.5586 279.6211)" fill="#231F20" font-family="'ArialNarrow-Bold'" font-size="6.9924">I</text>
		<text transform="matrix(0 0.8 0.8 0 78.5586 281.343)" fill="#231F20" font-family="'ArialNarrow-Bold'" font-size="6.9924">V</text>
		<text transform="matrix(0 0.8 0.8 0 78.5586 284.6211)" fill="#231F20" font-family="'ArialNarrow-Bold'" font-size="6.9924">I</text>
		<text transform="matrix(0 0.8 0.8 0 78.5586 286.343)" fill="#231F20" font-family="'ArialNarrow-Bold'" font-size="6.9924">N</text>
		<text transform="matrix(0 0.8 0.8 0 78.5586 290.243)" fill="#231F20" font-family="'ArialNarrow-Bold'" font-size="6.9924">G</text>
		<text transform="matrix(0 0.8 0.8 0 84.5781 272.293)" fill="#231F20" font-family="'ArialNarrow-Bold'" font-size="6.9924">R</text>
		<text transform="matrix(0 0.8 0.8 0 84.5781 275.5711)" fill="#231F20" font-family="'ArialNarrow-Bold'" font-size="6.9924">O</text>
		<text transform="matrix(0 0.8 0.8 0 84.5781 279.1617)" fill="#231F20" font-family="'ArialNarrow-Bold'" font-size="6.9924">O</text>
		<text transform="matrix(0 0.8 0.8 0 84.5781 282.743)" fill="#231F20" font-family="'ArialNarrow-Bold'" font-size="6.9924">M</text>
	</g>
	<g id="johnny-rockets">
		<text transform="matrix(0 0.8 0.8 0 78.1484 226.593)" fill="#231F20" font-family="'ArialNarrow-Bold'" font-size="7.5169">J</text>
		<text transform="matrix(0 0.8 0.8 0 78.1484 229.7711)" fill="#231F20" font-family="'ArialNarrow-Bold'" font-size="7.5169">O</text>
		<text transform="matrix(0 0.8 0.8 0 78.1484 233.6305)" fill="#231F20" font-family="'ArialNarrow-Bold'" font-size="7.5169">H</text>
		<text transform="matrix(0 0.8 0.8 0 78.1484 237.4805)" fill="#231F20" font-family="'ArialNarrow-Bold'" font-size="7.5169">N</text>
		<text transform="matrix(0 0.8 0.8 0 78.1484 241.6805)" fill="#231F20" font-family="'ArialNarrow-Bold'" font-size="7.5169">N</text>
		<text transform="matrix(0 0.8 0.8 0 78.1484 245.8711)" fill="#231F20" font-family="'ArialNarrow-Bold'" font-size="7.5169">Y</text>
		<text transform="matrix(0 0.8 0.8 0 84.1586 225.8211)" fill="#231F20" font-family="'ArialNarrow-Bold'" font-size="7.5169">R</text>
		<text transform="matrix(0 0.8 0.8 0 84.1586 229.3523)" fill="#231F20" font-family="'ArialNarrow-Bold'" font-size="7.5169">O</text>
		<text transform="matrix(0 0.8 0.8 0 84.1586 233.2023)" fill="#231F20" font-family="'ArialNarrow-Bold'" font-size="7.5169">C</text>
		<text transform="matrix(0 0.8 0.8 0 84.1586 236.7305)" fill="#231F20" font-family="'ArialNarrow-Bold'" font-size="7.5169">K</text>
		<text transform="matrix(0 0.8 0.8 0 84.1586 240.2523)" fill="#231F20" font-family="'ArialNarrow-Bold'" font-size="7.5169">E</text>
		<text transform="matrix(0 0.8 0.8 0 84.1586 243.443)" fill="#231F20" font-family="'ArialNarrow-Bold'" font-size="7.5169">T</text>
		<text transform="matrix(0 0.8 0.8 0 84.1586 246.6211)" fill="#231F20" font-family="'ArialNarrow-Bold'" font-size="7.5169">S</text>
	</g>
	<g id="nursery">
		<text transform="matrix(0 0.68 0.8 0 67.6484 277.9523)" fill="#231F20" font-family="'ArialNarrow-Bold'" font-size="7.5169">N</text>
		<text transform="matrix(0 0.68 0.8 0 67.6484 281.5125)" fill="#231F20" font-family="'ArialNarrow-Bold'" font-size="7.5169">U</text>
		<text transform="matrix(0 0.68 0.8 0 67.6484 284.793)" fill="#231F20" font-family="'ArialNarrow-Bold'" font-size="7.5169">R</text>
		<text transform="matrix(0 0.68 0.8 0 67.6484 287.793)" fill="#231F20" font-family="'ArialNarrow-Bold'" font-size="7.5169">S</text>
		<text transform="matrix(0 0.68 0.8 0 67.6484 290.782)" fill="#231F20" font-family="'ArialNarrow-Bold'" font-size="7.5169">E</text>
		<text transform="matrix(0 0.68 0.8 0 67.6484 293.493)" fill="#231F20" font-family="'ArialNarrow-Bold'" font-size="7.5169">R</text>
		<text transform="matrix(0 0.68 0.8 0 67.6484 296.4125)" fill="#231F20" font-family="'ArialNarrow-Bold'" font-size="7.5169">Y</text>
	</g>
	<g id="vitality-at-sea">
		<text transform="matrix(0.68 0 0 -0.8 30.4484 730.7117)" fill="#231F20" font-family="'ArialNarrow-Bold'" font-size="7.5169">V</text>
		<text transform="matrix(0.68 0 0 -0.8 33.4484 730.7117)" fill="#231F20" font-family="'ArialNarrow-Bold'" font-size="7.5169">I</text>
		<text transform="matrix(0.68 0 0 -0.8 35.0187 730.7117)" fill="#231F20" font-family="'ArialNarrow-Bold'" font-size="7.5169">T</text>
		<text transform="matrix(0.68 0 0 -0.8 37.4187 730.7117)" fill="#231F20" font-family="'ArialNarrow-Bold'" font-size="7.5169">A</text>
		<text transform="matrix(0.68 0 0 -0.8 40.6984 730.7117)" fill="#231F20" font-family="'ArialNarrow-Bold'" font-size="7.5169">L</text>
		<text transform="matrix(0.68 0 0 -0.8 43.1187 730.7117)" fill="#231F20" font-family="'ArialNarrow-Bold'" font-size="7.5169">I</text>
		<text transform="matrix(0.68 0 0 -0.8 44.6984 730.7117)" fill="#231F20" font-family="'ArialNarrow-Bold'" font-size="7.5169">T</text>
		<text transform="matrix(0.68 0 0 -0.8 47.4086 730.7117)" fill="#231F20" font-family="'ArialNarrow-Bold'" font-size="7.5169">Y</text>
		<text transform="matrix(0.68 0 0 -0.8 50.3984 730.7117)" fill="#231F20" font-family="'ArialNarrow-Bold'" font-size="7.5169"> </text>
		<text transform="matrix(0.68 0 0 -0.8 51.6883 730.7117)" fill="#231F20" font-family="'ArialNarrow-Bold'" font-size="7.5169">A</text>
		<text transform="matrix(0.68 0 0 -0.8 54.6586 730.7117)" fill="#231F20" font-family="'ArialNarrow-Bold'" font-size="7.5169">T</text>
		<text transform="matrix(0.68 0 0 -0.8 57.3687 730.7117)" fill="#231F20" font-family="'ArialNarrow-Bold'" font-size="7.5169"> </text>
		<text transform="matrix(0.68 0 0 -0.8 58.6586 730.7117)" fill="#231F20" font-family="'ArialNarrow-Bold'" font-size="7.5169">S</text>
		<text transform="matrix(0.68 0 0 -0.8 61.6484 730.7117)" fill="#231F20" font-family="'ArialNarrow-Bold'" font-size="7.5169">E</text>
		<text transform="matrix(0.68 0 0 -0.8 64.3586 730.7117)" fill="#231F20" font-family="'ArialNarrow-Bold'" font-size="7.5169">A</text>
		<text transform="matrix(0.68 0 0 -0.8 67.6383 730.7117)" fill="#231F20" font-family="'ArialNarrow-Bold'" font-size="7.5169"> </text>
		<text transform="matrix(0.68 0 0 -0.8 19.8687 724.6914)" fill="#231F20" font-family="'ArialNarrow-Bold'" font-size="7.5169">S</text>
		<text transform="matrix(0.68 0 0 -0.8 22.8586 724.6914)" fill="#231F20" font-family="'ArialNarrow-Bold'" font-size="7.5169">P</text>
		<text transform="matrix(0.68 0 0 -0.8 25.5984 724.6914)" fill="#231F20" font-family="'ArialNarrow-Bold'" font-size="7.5169">A</text>
		<text transform="matrix(0.68 0 0 -0.8 28.8781 724.6914)" fill="#231F20" font-family="'ArialNarrow-Bold'" font-size="7.5169"> </text>
		<text transform="matrix(0.68 0 0 -0.8 30.1687 724.6914)" fill="#231F20" font-family="'ArialNarrow-Bold'" font-size="7.5169">A</text>
		<text transform="matrix(0.68 0 0 -0.8 33.4383 724.6914)" fill="#231F20" font-family="'ArialNarrow-Bold'" font-size="7.5169">N</text>
		<text transform="matrix(0.68 0 0 -0.8 36.9984 724.6914)" fill="#231F20" font-family="'ArialNarrow-Bold'" font-size="7.5169">D</text>
		<text transform="matrix(0.68 0 0 -0.8 40.2781 724.6914)" fill="#231F20" font-family="'ArialNarrow-Bold'" font-size="7.5169"> </text>
		<text transform="matrix(0.68 0 0 -0.8 41.5687 724.6914)" fill="#231F20" font-family="'ArialNarrow-Bold'" font-size="7.5169">F</text>
		<text transform="matrix(0.68 0 0 -0.8 43.9883 724.6914)" fill="#231F20" font-family="'ArialNarrow-Bold'" font-size="7.5169">I</text>
		<text transform="matrix(0.68 0 0 -0.8 45.5687 724.6914)" fill="#231F20" font-family="'ArialNarrow-Bold'" font-size="7.5169">T</text>
		<text transform="matrix(0.68 0 0 -0.8 48.2781 724.6914)" fill="#231F20" font-family="'ArialNarrow-Bold'" font-size="7.5169">N</text>
		<text transform="matrix(0.68 0 0 -0.8 51.8383 724.6914)" fill="#231F20" font-family="'ArialNarrow-Bold'" font-size="7.5169">E</text>
		<text transform="matrix(0.68 0 0 -0.8 54.5484 724.6914)" fill="#231F20" font-family="'ArialNarrow-Bold'" font-size="7.5169">S</text>
		<text transform="matrix(0.68 0 0 -0.8 57.5383 724.6914)" fill="#231F20" font-family="'ArialNarrow-Bold'" font-size="7.5169">S</text>
		<text transform="matrix(0.68 0 0 -0.8 60.5383 724.6914)" fill="#231F20" font-family="'ArialNarrow-Bold'" font-size="7.5169"> </text>
		<text transform="matrix(0.68 0 0 -0.8 61.8187 724.6914)" fill="#231F20" font-family="'ArialNarrow-Bold'" font-size="7.5169">C</text>
		<text transform="matrix(0.68 0 0 -0.8 64.8187 724.6914)" fill="#231F20" font-family="'ArialNarrow-Bold'" font-size="7.5169">E</text>
		<text transform="matrix(0.68 0 0 -0.8 67.5281 724.6914)" fill="#231F20" font-family="'ArialNarrow-Bold'" font-size="7.5169">N</text>
		<text transform="matrix(0.68 0 0 -0.8 71.0883 724.6914)" fill="#231F20" font-family="'ArialNarrow-Bold'" font-size="7.5169">T</text>
		<text transform="matrix(0.68 0 0 -0.8 73.7984 724.6914)" fill="#231F20" font-family="'ArialNarrow-Bold'" font-size="7.5169">E</text>
		<text transform="matrix(0.68 0 0 -0.8 76.5086 724.6914)" fill="#231F20" font-family="'ArialNarrow-Bold'" font-size="7.5169">R</text>
	</g>
	<g id="g16082">
		<g id="g16084">
			<g id="g16098" transform="translate(554.46 269.85)">
				<path id="path16100" fill="#231F20" d="M-473.801,82.015l-0.289,2.814h-0.768l0.548,2.2h-0.548l0.548,1.647h0.62
					c-0.32,0.13-0.549,0.45-0.549,0.817c0,0.491,0.4,0.9,0.889,0.9c0.498,0,0.887-0.409,0.887-0.9c0-0.367-0.219-0.688-0.548-0.817
					h0.618l0.55-1.647h-0.55l0.55-2.2h-0.769l-0.29-2.814H-473.801"/>
			</g>
			<g id="g16102" transform="translate(494.16 276.49)">
				<path id="path16104" fill="#231F20" d="M-473.801,82.015h-0.341c0.327,0.136,0.554,0.459,0.554,0.829
					c0,0.502-0.402,0.904-0.901,0.904s-0.902-0.404-0.902-0.905c0-0.37,0.229-0.693,0.555-0.829h-0.354
					c-0.458,0-0.832-0.373-0.832-0.831v-2.082c0-0.58,0.327-0.823,0.804-0.916v-2.898h1.456v2.899
					c0.473,0.098,0.791,0.34,0.791,0.916v2.082C-472.971,81.643-473.341,82.015-473.801,82.015"/>
			</g>
		</g>
	</g>
</g>
</svg>
