<?xml version="1.0" encoding="utf-8"?>
<!-- Generator: Adobe Illustrator 16.0.4, SVG Export Plug-In . SVG Version: 6.00 Build 0)  -->
<!DOCTYPE svg PUBLIC "-//W3C//DTD SVG 1.1//EN" "http://www.w3.org/Graphics/SVG/1.1/DTD/svg11.dtd">
<svg version="1.1"
	 id="svg2" xmlns:rdf="http://www.w3.org/1999/02/22-rdf-syntax-ns#" xmlns:cc="http://creativecommons.org/ns#" xmlns:dc="http://purl.org/dc/elements/1.1/"
	 xmlns="http://www.w3.org/2000/svg" xmlns:xlink="http://www.w3.org/1999/xlink" x="0px" y="0px" width="140.726px"
	 height="224.795px" viewBox="0.136 0.167 140.726 224.795" enable-background="new 0.136 0.167 140.726 224.795"
	 xml:space="preserve">
<g id="g10" transform="matrix(1.25,0,0,-1.25,0,990)">
	<g id="g12930">
		<g id="g12932">
			<g id="g13468" transform="translate(518.68 681.28)">
				<path id="path13470" fill="#FFFFFF" d="M-462.496,110.233l-3.148-0.166l-0.162-0.008l-0.163-0.023l-3.147-0.414l-0.275-0.036
					l-0.268-0.073l-3.066-0.828l-0.13-0.035l-0.131-0.045l-3.147-1.077l-0.172-0.06l-0.163-0.07l-3.566-1.577l-0.143-0.064
					l-0.139-0.073l-3.402-1.823l-0.102-0.055l-0.098-0.058l-3.397-2.073l-0.095-0.057l-0.091-0.06l-3.148-2.156l-0.112-0.077
					l-0.105-0.082l-3.066-2.402l-0.122-0.097l-0.112-0.105l-2.82-2.57l-0.069-0.062l-0.067-0.067l-2.736-2.737l-0.066-0.064
					l-0.062-0.07l-2.652-2.9l-0.107-0.116l-0.098-0.125l-2.404-3.067l-0.102-0.133l-0.095-0.141l-2.735-4.144l-0.085-0.13
					l-0.077-0.134l-2.403-4.311l-0.075-0.136l-0.066-0.144l-2.071-4.474l-0.066-0.141l-0.054-0.144l-1.743-4.643l-0.065-0.175
					l-0.048-0.177l-1.327-4.808l-0.037-0.13l-0.027-0.132l-0.995-4.808l-0.036-0.179l-0.023-0.18l-0.581-4.975l-0.016-0.135
					l-0.007-0.139l-0.248-4.974l-0.008-0.183l0.007-0.184l0.162-4.227l0.006-0.127l0.012-0.123l0.413-4.145l0.014-0.122l0.018-0.122
					l0.664-4.144l0.019-0.127l0.031-0.127l0.911-4.062l0.038-0.166l0.052-0.161l1.245-3.98l0.041-0.128l0.048-0.127l1.407-3.648
					l0.036-0.091l0.041-0.091l1.048-2.373l-0.995-5.105l-0.016-0.077l-0.011-0.077l-0.998-6.384l-0.02-0.134l-0.009-0.134
					l-0.58-6.466l-0.011-0.133l-0.005-0.13c0,0-0.166-6.466-0.166-6.573v-60.616l10.028,2.864v38.959l0.147,2.1l0.269,1.82
					l0.462,1.648l0.623,1.653l0.736,1.541l0.862,1.391l0.991,1.323c0.362,0.383,1.23,1.303,1.166,1.234l1.2,1.202l1.275,0.956
					l1.466,0.905l3.82,2.027l3.959,1.786l4.137,1.484l4.145,1.25l4.212,0.936l4.291,0.703l4.38,0.391l4.384,0.159l4.381-0.159
					l4.381-0.391l4.294-0.703l4.209-0.936l4.145-1.25l4.137-1.484l3.959-1.786l3.823-2.027l1.464-0.905l1.325-0.995l1.187-1.12
					l1.093-1.23l1.03-1.372l0.861-1.391l0.736-1.541l0.62-1.653l0.463-1.648l0.27-1.82l0.145-2.1V-66.05l10.03-2.864
					c0,0,0,60.616-0.002,60.723l-0.166,6.466l-0.005,0.13l-0.012,0.131l-0.581,6.466l-0.009,0.134l-0.02,0.134l-0.998,6.383
					l-0.006,0.088l-0.016,0.078l-0.995,5.105l1.048,2.373l0.041,0.091l0.036,0.091l1.409,3.648l0.048,0.127l0.044,0.128l1.243,3.98
					l0.049,0.161l0.039,0.166l0.911,4.062l0.028,0.126l0.02,0.127l0.662,4.144l0.017,0.122l0.014,0.121l0.413,4.146l0.013,0.123
					l0.005,0.125l0.166,4.228l0.005,0.15l-0.005,0.151l-0.166,4.973l-0.005,0.206l-0.027,0.205l-0.663,4.97l-0.016,0.114
					l-0.02,0.113l-0.912,4.808l-0.038,0.2l-0.057,0.194l-1.408,4.806l-0.042,0.147l-0.054,0.142l-1.741,4.644l-0.055,0.144
					l-0.066,0.141l-2.073,4.475l-0.066,0.144l-0.075,0.136l-2.402,4.311l-0.077,0.134l-0.084,0.13l-2.735,4.145l-0.095,0.141
					l-0.102,0.133l-2.402,3.067l-0.077,0.098l-0.084,0.092l-2.566,2.902l-0.087,0.094l-0.087,0.087l-2.737,2.738l-0.088,0.087
					l-0.092,0.083l-2.902,2.57l-0.092,0.082l-0.098,0.078l-3.066,2.402l-0.106,0.083l-0.111,0.076l-3.15,2.157l-0.07,0.048
					l-0.073,0.045l-3.316,2.072l-0.133,0.084l-0.139,0.073l-3.481,1.823l-0.123,0.063l-0.126,0.055l-3.564,1.576l-0.164,0.071
					l-0.17,0.059l-3.148,1.077l-0.127,0.045l-0.134,0.036l-3.066,0.828l-0.268,0.072l-0.272,0.036l-3.152,0.414l-0.162,0.023
					l-0.161,0.008l-3.149,0.166l-0.216,0.012l-0.22-0.012v-0.007H-462.496L-462.496,110.233z"/>
			</g>
			<g id="g13472" transform="translate(518.68 681.28)">
				<path id="path13474" fill="none" stroke="#918F90" stroke-width="0.837" stroke-linejoin="round" d="M-462.496,110.233
					l-3.148-0.166l-0.162-0.008l-0.163-0.023l-3.147-0.414l-0.275-0.036l-0.268-0.073l-3.066-0.828l-0.13-0.035l-0.131-0.045
					l-3.147-1.077l-0.172-0.06l-0.163-0.07l-3.566-1.577l-0.143-0.064l-0.139-0.073l-3.402-1.823l-0.102-0.055l-0.098-0.058
					l-3.397-2.073l-0.095-0.057l-0.091-0.06l-3.148-2.156l-0.112-0.077l-0.105-0.082l-3.066-2.402l-0.122-0.097l-0.112-0.105
					l-2.82-2.57l-0.069-0.062l-0.067-0.067l-2.736-2.737l-0.066-0.064l-0.062-0.07l-2.652-2.9l-0.107-0.116l-0.098-0.125
					l-2.404-3.067l-0.102-0.133l-0.095-0.141l-2.735-4.144l-0.085-0.13l-0.077-0.134l-2.403-4.311l-0.075-0.136l-0.066-0.144
					l-2.071-4.474l-0.066-0.141l-0.054-0.144l-1.743-4.643l-0.065-0.175l-0.048-0.177l-1.327-4.808l-0.037-0.13l-0.027-0.132
					l-0.995-4.808l-0.036-0.179l-0.023-0.18l-0.581-4.975l-0.016-0.135l-0.007-0.139l-0.248-4.974l-0.008-0.183l0.007-0.184
					l0.162-4.227l0.006-0.127l0.012-0.123l0.413-4.145l0.014-0.122l0.018-0.122l0.664-4.144l0.019-0.127l0.031-0.127l0.911-4.062
					l0.038-0.166l0.052-0.161l1.245-3.98l0.041-0.128l0.048-0.127l1.407-3.648l0.036-0.091l0.041-0.091l1.048-2.373l-0.995-5.105
					l-0.016-0.077l-0.011-0.077l-0.998-6.384l-0.02-0.134l-0.009-0.134l-0.58-6.466l-0.011-0.133l-0.005-0.13
					c0,0-0.166-6.466-0.166-6.573v-60.616l10.028,2.864v38.959l0.147,2.1l0.269,1.82l0.462,1.648l0.623,1.653l0.736,1.541
					l0.862,1.391l0.991,1.323c0.362,0.383,1.23,1.303,1.166,1.234l1.2,1.202l1.275,0.956l1.466,0.905l3.82,2.027l3.959,1.786
					l4.137,1.484l4.145,1.25l4.212,0.936l4.291,0.703l4.38,0.391l4.384,0.159l4.381-0.159l4.381-0.391l4.294-0.703l4.209-0.936
					l4.145-1.25l4.137-1.484l3.959-1.786l3.823-2.027l1.464-0.905l1.325-0.995l1.187-1.12l1.093-1.23l1.03-1.372l0.861-1.391
					l0.736-1.541l0.62-1.653l0.463-1.648l0.27-1.82l0.145-2.1V-66.05l10.03-2.864c0,0,0,60.616-0.002,60.723l-0.166,6.466
					l-0.005,0.13l-0.012,0.131l-0.581,6.466l-0.009,0.134l-0.02,0.134l-0.998,6.383l-0.006,0.088l-0.016,0.078l-0.995,5.105
					l1.048,2.373l0.041,0.091l0.036,0.091l1.409,3.648l0.048,0.127l0.044,0.128l1.243,3.98l0.049,0.161l0.039,0.166l0.911,4.062
					l0.028,0.126l0.02,0.127l0.662,4.144l0.017,0.122l0.014,0.121l0.413,4.146l0.013,0.123l0.005,0.125l0.166,4.228l0.005,0.15
					l-0.005,0.151l-0.166,4.973l-0.005,0.206l-0.027,0.205l-0.663,4.97l-0.016,0.114l-0.02,0.113l-0.912,4.808l-0.038,0.2
					l-0.057,0.194l-1.408,4.806l-0.042,0.147l-0.054,0.142l-1.741,4.644l-0.055,0.144l-0.066,0.141l-2.073,4.475l-0.066,0.144
					l-0.075,0.136l-2.402,4.311l-0.077,0.134l-0.084,0.13l-2.735,4.145l-0.095,0.141l-0.102,0.133l-2.402,3.067l-0.077,0.098
					l-0.084,0.092l-2.566,2.902l-0.087,0.094l-0.087,0.087l-2.737,2.738l-0.088,0.087l-0.092,0.083l-2.902,2.57l-0.092,0.082
					l-0.098,0.078l-3.066,2.402l-0.106,0.083l-0.111,0.076l-3.15,2.157l-0.07,0.048l-0.073,0.045l-3.316,2.072l-0.133,0.084
					l-0.139,0.073l-3.481,1.823l-0.123,0.063l-0.126,0.055l-3.564,1.576l-0.164,0.071l-0.17,0.059l-3.148,1.077l-0.127,0.045
					l-0.134,0.036l-3.066,0.828l-0.268,0.072l-0.272,0.036l-3.152,0.414l-0.162,0.023l-0.161,0.008l-3.149,0.166l-0.216,0.012
					l-0.22-0.012v-0.007H-462.496L-462.496,110.233z"/>
			</g>
			<g id="g13476" transform="translate(524.85 621.36)">
				<path id="path13478" fill="#FFFFFF" d="M-462.495,110.234v-7.148h-3.466v-2.558h15.584v12.113
					C-456.877,110.598-460.612,110.28-462.495,110.234"/>
			</g>
			<g id="g13480" transform="translate(524.85 621.36)">
				<path id="path13482" fill="none" stroke="#918F90" stroke-width="0.418" d="M-462.495,110.234v-7.148h-3.466v-2.558h15.584
					v12.113C-456.877,110.598-460.612,110.28-462.495,110.234z M-495.966,111.883h-2.321l-0.997-6.878V84.612"/>
			</g>
			<g id="g13484" transform="translate(508.95 653.35)">
				<path id="path13486" fill="#FFFFFF" d="M-462.495,110.233l2.157-1.74l1.823-2.321l1.161-2.569l0.58-3.151l-0.084-2.57
					l-0.831-2.734l-1.412-2.569l-1.988-2.155h-4.462v19.808L-462.495,110.233L-462.495,110.233z"/>
			</g>
			<g id="g13488" transform="translate(508.95 653.35)">
				<path id="path13490" fill="none" stroke="#918F90" stroke-width="0.837" d="M-462.495,110.233l2.157-1.74l1.823-2.321
					l1.161-2.569l0.58-3.151l-0.084-2.57l-0.831-2.734l-1.412-2.569l-1.988-2.155h-4.462v19.808L-462.495,110.233L-462.495,110.233z
					 M-455.697,133.858l-3.152-0.416l-3.066-0.828l-3.152-1.077l-3.564-1.574l-3.397-1.826l-3.4-2.072l-3.15-2.155l-3.067-2.403
					l-2.816-2.57l-2.734-2.734l-2.655-2.9l-2.402-3.069l-2.737-4.144l-2.403-4.309l-2.073-4.475l-1.741-4.644l-1.323-4.808
					l-0.997-4.808l-0.58-4.973l-0.248-4.974l0.163-4.225l0.416-4.145l0.663-4.146l0.913-4.062l1.245-3.977l1.41-3.648l1.573-3.564
					l-1.245-6.38l-0.995-6.384l-0.58-6.466l-0.166-6.466V0.986h1.738l0.167,2.403l0.33,2.237l0.579,2.073l0.748,1.99l0.913,1.906
					l1.077,1.741l1.243,1.655l1.411,1.491l1.409,1.411l1.659,1.241l1.74,1.078l4.062,2.155l4.227,1.905l4.395,1.575l4.395,1.328
					l4.475,0.992l4.559,0.747l4.641,0.416l4.643,0.166l4.641-0.166l4.644-0.416l4.559-0.747l4.475-0.992l4.395-1.328l4.395-1.575
					l4.227-1.905l4.062-2.155l1.741-1.078l1.655-1.241l1.491-1.411l1.327-1.491l1.241-1.655l1.079-1.741l0.912-1.906l0.748-1.99
					l0.58-2.073l0.33-2.237l0.166-2.403h1.74v18.65l-0.166,6.464l-0.58,6.466l-0.995,6.384l-1.245,6.381l1.577,3.564l1.408,3.648
					l1.245,3.977l0.912,4.062l0.663,4.146l0.416,4.145l0.166,4.225l-0.166,4.974l-0.662,4.973l-0.909,4.808l-1.409,4.808
					l-1.741,4.644l-2.073,4.475l-2.403,4.309l-2.736,4.144l-2.405,3.069l-2.566,2.9l-2.737,2.734l-2.902,2.57l-3.066,2.403
					l-3.15,2.155l-3.316,2.072l-3.48,1.826l-3.564,1.574l-3.15,1.077l-3.066,0.828l-3.148,0.416l-3.149,0.166L-455.697,133.858z"/>
			</g>
			<g id="g13492" transform="translate(520.55 621.13)">
				<path id="path13494" fill="#FFFFFF" d="M-462.495,110.234c-5.464,0.108-8.968,0.848-12.82,1.959h-1.023v-11.432h10.07v3.481
					h0.705v2.712h3.068V110.234z"/>
			</g>
			<g id="g13496" transform="translate(520.55 621.13)">
				<path id="path13498" fill="none" stroke="#918F90" stroke-width="0.418" d="M-462.495,110.234
					c-5.464,0.108-8.968,0.848-12.82,1.959h-1.023v-11.432h10.07v3.481h0.705v2.712h3.068V110.234z"/>
			</g>
			<path id="path13500" fill="#FFFFFF" stroke="#918F90" stroke-width="0.418" d="M33.525,763.374h-5.884v-17.109h5.884V763.374
				L33.525,763.374z"/>
			<path id="path13502" fill="#FFFFFF" stroke="#918F90" stroke-width="0.418" d="M76.955,725.264h3.148v1.138h-3.148v-1.139
				V725.264z"/>
			<path id="path13504" fill="#FFFFFF" stroke="#918F90" stroke-width="0.418" d="M76.955,726.404h3.148v1.138h-3.148v-1.141
				V726.404z"/>
			<path id="path13506" fill="#FFFFFF" stroke="#918F90" stroke-width="0.418" d="M76.955,727.544h3.148v1.136h-3.148v-1.14V727.544
				z"/>
			<path id="path13508" fill="#FFFFFF" stroke="#918F90" stroke-width="0.418" d="M76.955,728.674h3.148v1.138h-3.148v-1.141
				V728.674z"/>
			<path id="path13510" fill="#FFFFFF" stroke="#918F90" stroke-width="0.418" d="M76.955,729.814h3.148v1.14h-3.148V729.814z"/>
			<path id="path13512" fill="#FFFFFF" stroke="#918F90" stroke-width="0.418" d="M76.955,730.954h3.148v1.137h-3.148v-1.14V730.954
				z"/>
			<path id="path13514" fill="#FFFFFF" stroke="#918F90" stroke-width="0.418" d="M76.955,732.094h3.148v1.136h-3.148v-1.14V732.094
				z"/>
			<path id="path13516" fill="#FFFFFF" stroke="#918F90" stroke-width="0.418" d="M75.823,721.894h1.139v3.38h-1.139V721.894z"/>
			<path id="path13518" fill="#FFFFFF" stroke="#918F90" stroke-width="0.418" d="M74.695,721.894h1.137v3.38h-1.137V721.894z"/>
			<path id="path13520" fill="#FFFFFF" stroke="#918F90" stroke-width="0.418" d="M80.104,725.264h-3.137v-3.372h3.137v3.37V725.264
				z"/>
			<path id="path13522" fill="#FFFFFF" stroke="#918F90" stroke-width="0.418" d="M80.854,728.115h3.145v1.137h-3.145v-1.14V728.115
				z"/>
			<path id="path13524" fill="#FFFFFF" stroke="#918F90" stroke-width="0.418" d="M80.854,726.985h3.145v1.136h-3.145v-1.139
				V726.985z"/>
			<path id="path13526" fill="#FFFFFF" stroke="#918F90" stroke-width="0.418" d="M80.854,729.254h3.145v1.14h-3.145V729.254z"/>
			<path id="path13528" fill="#FFFFFF" stroke="#918F90" stroke-width="0.418" d="M80.854,730.394h3.145v1.135h-3.145v-1.14V730.394
				z"/>
			<path id="path13530" fill="#FFFFFF" stroke="#918F90" stroke-width="0.418" d="M80.854,731.535h3.145v1.138h-3.145v-1.141
				V731.535z"/>
			<path id="path13532" fill="#FFFFFF" stroke="#918F90" stroke-width="0.418" d="M36.345,725.264h-3.148v1.138h3.148v-1.139
				V725.264z"/>
			<path id="path13534" fill="#FFFFFF" stroke="#918F90" stroke-width="0.418" d="M36.345,726.404h-3.148v1.138h3.148v-1.141
				V726.404z"/>
			<path id="path13536" fill="#FFFFFF" stroke="#918F90" stroke-width="0.418" d="M36.345,727.544h-3.148v1.136h3.148v-1.14V727.544
				z"/>
			<path id="path13538" fill="#FFFFFF" stroke="#918F90" stroke-width="0.418" d="M36.345,728.674h-3.148v1.138h3.148v-1.141
				V728.674z"/>
			<path id="path13540" fill="#FFFFFF" stroke="#918F90" stroke-width="0.418" d="M36.345,729.814h-3.148v1.14h3.148V729.814z"/>
			<path id="path13542" fill="#FFFFFF" stroke="#918F90" stroke-width="0.418" d="M36.345,730.954h-3.148v1.137h3.148v-1.14V730.954
				z"/>
			<path id="path13544" fill="#FFFFFF" stroke="#918F90" stroke-width="0.418" d="M36.345,732.094h-3.148v1.136h3.148v-1.14V732.094
				z"/>
			<path id="path13546" fill="#FFFFFF" stroke="#918F90" stroke-width="0.418" d="M37.465,721.894h-1.137v3.38h1.137V721.894z"/>
			<path id="path13548" fill="#FFFFFF" stroke="#918F90" stroke-width="0.418" d="M38.605,721.894h-1.137v3.38h1.137V721.894z"/>
			<path id="path13550" fill="#FFFFFF" stroke="#918F90" stroke-width="0.418" d="M33.195,725.264h3.139v-3.372h-3.139v3.37V725.264
				z"/>
			<path id="path13552" fill="#FFFFFF" stroke="#918F90" stroke-width="0.418" d="M32.445,728.115H29.3v1.137h3.145v-1.14V728.115z"
				/>
			<path id="path13554" fill="#FFFFFF" stroke="#918F90" stroke-width="0.418" d="M32.445,726.985H29.3v1.136h3.145v-1.139V726.985z
				"/>
			<path id="path13556" fill="#FFFFFF" stroke="#918F90" stroke-width="0.418" d="M32.445,729.254H29.3v1.14h3.145V729.254z"/>
			<path id="path13558" fill="#FFFFFF" stroke="#918F90" stroke-width="0.418" d="M32.445,730.394H29.3v1.135h3.145v-1.14V730.394z"
				/>
			<path id="path13560" fill="#FFFFFF" d="M32.445,731.535H29.3v1.138h3.145v-1.141V731.535z"/>
			<path id="path13562" fill="none" stroke="#918F90" stroke-width="0.418" d="M32.445,731.535H29.3v1.138h3.145v-1.141V731.535z
				 M8.116,705.975l22.59-0.012v-6.989c0-4.511,6.373-9.7,9.516-9.159c0,0,6.379,1.101,12.698,1.484v2.741h6.963v-2.691
				c6.327-0.323,12.363-1.484,12.363-1.484c5.38-0.777,9.934,6.123,9.934,9.345v6.684h22.629 M43.478,744.961h3.247
				c1.453,0,2.63,1.62,2.63,3.623c0,2.002-1.177,3.625-2.63,3.625h-3.247v-7.25V744.961z M43.478,754.322h3.247
				c1.453,0,2.63,1.623,2.63,3.624c0,2.001-1.177,3.625-2.63,3.625h-3.247l3.247-7.249c1.453,0,2.63,1.623,2.63,3.624
				c0,2.001-1.177,3.625-2.63,3.625h-3.247V754.322z M82.177,705.893l3.73,14.423v16.246l4.891,1.657l1.327,2.486l-1.077,0.665
				c0,0,1.505,2.759-0.412,5.635 M84.084,749.485l0.084-0.58l-0.005-0.063c0.459,0.125,0.927,0.215,1.425,0.215
				c1.738,0,3.266-0.845,4.241-2.133l6.941,3.225l-0.913,1.905l-11.77-2.58L84.084,749.485z"/>
			<g id="g13564" transform="translate(489.3 567.97)">
				<path id="path13566" fill="#FFFFFF" d="M-462.495,110.235c-2.27,1.955-8.78,7.805-12.517,14.009l-3.102-2.411
					c-0.291-1.87-0.741-4.116-0.73-4.045c0,0-0.58-6.463-0.575-6.352c0,0-0.166-6.466-0.166-6.423v-5.886
					C-478.392,100.112-469.787,108.002-462.495,110.235"/>
			</g>
			<g id="g13568" transform="translate(489.3 567.97)">
				<path id="path13570" fill="none" stroke="#918F90" stroke-width="0.837" stroke-linejoin="round" d="M-462.495,110.235
					c-2.27,1.955-8.78,7.805-12.517,14.009l-3.102-2.411c-0.291-1.87-0.741-4.116-0.73-4.045c0,0-0.58-6.463-0.575-6.352
					c0,0-0.166-6.466-0.166-6.423v-5.886C-478.392,100.112-469.787,108.002-462.495,110.235z"/>
			</g>
			<g id="g13572" transform="translate(481.58 569.76)">
				<path id="path13574" fill="#FFFFFF" d="M-462.494,110.236c-3.035,2.916-5.693,6.214-7.898,9.816l3.103,2.411
					c2.18-3.52,4.796-6.748,7.78-9.606L-462.494,110.236z"/>
			</g>
			<g id="g13576" transform="translate(481.58 569.76)">
				<path id="path13578" fill="none" stroke="#918F90" stroke-width="0.418" stroke-linejoin="round" d="M-462.494,110.236
					c-3.035,2.916-5.693,6.214-7.898,9.816l3.103,2.411c2.18-3.52,4.796-6.748,7.78-9.606L-462.494,110.236z"/>
			</g>
			<g id="g13580" transform="translate(480.74 570.6)">
				<path id="path13582" fill="none" stroke="#918F90" stroke-width="0.418" d="M-462.495,110.236l3.073,2.447 M-463.249,111.113
					l3.073,2.445 M-464.013,111.948l3.073,2.445 M-464.77,112.797l3.073,2.447 M-466.884,115.44l3.073,2.442 M-467.636,116.313
					l3.071,2.448 M-468.281,117.257l3.072,2.445 M-468.92,118.215l3.073,2.445"/>
			</g>
			<g id="g13584" transform="translate(548.49 567.97)">
				<path id="path13586" fill="#FFFFFF" d="M-462.496,110.235c2.27,1.955,8.78,7.805,12.519,14.009l3.1-2.411
					c0.291-1.87,0.741-4.116,0.734-4.045c0,0,0.58-6.463,0.573-6.352c0,0,0.166-6.466,0.163-6.423v-5.886
					C-446.599,100.112-455.204,108.002-462.496,110.235"/>
			</g>
			<g id="g13588" transform="translate(548.49 567.97)">
				<path id="path13590" fill="none" stroke="#918F90" stroke-width="0.837" stroke-linejoin="round" d="M-462.496,110.235
					c2.27,1.955,8.78,7.805,12.519,14.009l3.1-2.411c0.291-1.87,0.741-4.116,0.734-4.045c0,0,0.58-6.463,0.573-6.352
					c0,0,0.166-6.466,0.163-6.423v-5.886C-446.599,100.112-455.204,108.002-462.496,110.235z"/>
			</g>
			<g id="g13592" transform="translate(556.21 569.76)">
				<path id="path13594" fill="#FFFFFF" d="M-462.496,110.236c3.037,2.916,5.694,6.214,7.898,9.816l-3.102,2.411
					c-2.18-3.52-4.798-6.748-7.78-9.606L-462.496,110.236z"/>
			</g>
			<g id="g13596" transform="translate(556.21 569.76)">
				<path id="path13598" fill="none" stroke="#918F90" stroke-width="0.418" stroke-linejoin="round" d="M-462.496,110.236
					c3.037,2.916,5.694,6.214,7.898,9.816l-3.102,2.411c-2.18-3.52-4.798-6.748-7.78-9.606L-462.496,110.236z"/>
			</g>
			<g id="g13600" transform="translate(557.05 570.6)">
				<path id="path13602" fill="none" stroke="#918F90" stroke-width="0.418" d="M-462.496,110.236l-3.073,2.447 M-461.743,111.113
					l-3.073,2.445 M-460.978,111.948l-3.072,2.445 M-460.221,112.797l-3.072,2.447 M-458.107,115.44l-3.072,2.442 M-457.354,116.313
					l-3.073,2.448 M-456.71,117.257l-3.072,2.445 M-456.073,118.215l-3.073,2.445 M-551.794,163.685l21.084-2.517 M-531.518,202.38
					l7.987-9.606"/>
			</g>
		</g>
	</g>
	<text transform="matrix(0 0.8 0.8 0 33.0455 748.0824)" fill="#231F20" font-family="'ArialNarrow-Bold'" font-size="7.5169">E</text>
	<text transform="matrix(0 0.8 0.8 0 33.0455 751.2637)" fill="#231F20" font-family="'ArialNarrow-Bold'" font-size="7.5169">L</text>
	<text transform="matrix(0 0.8 0.8 0 33.0455 754.123)" fill="#231F20" font-family="'ArialNarrow-Bold'" font-size="7.5169">E</text>
	<text transform="matrix(0 0.8 0.8 0 33.0455 757.3027)" fill="#231F20" font-family="'ArialNarrow-Bold'" font-size="7.5169">V</text>
	<text transform="matrix(0 0.8 0.8 0 33.0455 760.3824)" fill="#231F20" font-family="'ArialNarrow-Bold'" font-size="7.5169">.</text>
	<g id="olive-or-twist">
		<text transform="matrix(0.8 0 0 -0.8 58.6541 760.8133)" fill="#231F20" font-family="'ArialNarrow-Bold'" font-size="7.5169">O</text>
		<text transform="matrix(0.8 0 0 -0.8 62.5135 760.8133)" fill="#231F20" font-family="'ArialNarrow-Bold'" font-size="7.5169">L</text>
		<text transform="matrix(0.8 0 0 -0.8 65.3635 760.8133)" fill="#231F20" font-family="'ArialNarrow-Bold'" font-size="7.5169">I</text>
		<text transform="matrix(0.8 0 0 -0.8 67.2135 760.8133)" fill="#231F20" font-family="'ArialNarrow-Bold'" font-size="7.5169">V</text>
		<text transform="matrix(0.8 0 0 -0.8 70.7338 760.8133)" fill="#231F20" font-family="'ArialNarrow-Bold'" font-size="7.5169">E</text>
		<text transform="matrix(0.8 0 0 -0.8 73.9244 760.8133)" fill="#231F20" font-family="'ArialNarrow-Bold'" font-size="7.5169"> </text>
		<text transform="matrix(0.8 0 0 -0.8 75.4432 760.8133)" fill="#231F20" font-family="'ArialNarrow-Bold'" font-size="7.5169">O</text>
		<text transform="matrix(0.8 0 0 -0.8 79.2932 760.8133)" fill="#231F20" font-family="'ArialNarrow-Bold'" font-size="7.5169">R</text>
		<text transform="matrix(0.8 0 0 -0.8 62.1041 754.7938)" fill="#231F20" font-family="'ArialNarrow-Bold'" font-size="7.5169">T</text>
		<text transform="matrix(0.8 0 0 -0.8 65.2838 754.7938)" fill="#231F20" font-family="'ArialNarrow-Bold'" font-size="7.5169">W</text>
		<text transform="matrix(0.8 0 0 -0.8 70.8135 754.7938)" fill="#231F20" font-family="'ArialNarrow-Bold'" font-size="7.5169">I</text>
		<text transform="matrix(0.8 0 0 -0.8 72.6635 754.7938)" fill="#231F20" font-family="'ArialNarrow-Bold'" font-size="7.5169">S</text>
		<text transform="matrix(0.8 0 0 -0.8 76.1932 754.7938)" fill="#231F20" font-family="'ArialNarrow-Bold'" font-size="7.5169">T</text>
	</g>
	<g id="viking-crown-lounge">
		<text transform="matrix(0.8 0 0 -0.8 35.8049 709.1649)" fill="#231F20" font-family="'ArialNarrow-Bold'" font-size="7.5169">V</text>
		<text transform="matrix(0.8 0 0 -0.8 39.3248 709.1649)" fill="#231F20" font-family="'ArialNarrow-Bold'" font-size="7.5169">I</text>
		<text transform="matrix(0.8 0 0 -0.8 41.185 709.1649)" fill="#231F20" font-family="'ArialNarrow-Bold'" font-size="7.5169">K</text>
		<text transform="matrix(0.8 0 0 -0.8 44.7049 709.1649)" fill="#231F20" font-family="'ArialNarrow-Bold'" font-size="7.5169">I</text>
		<text transform="matrix(0.8 0 0 -0.8 46.5549 709.1649)" fill="#231F20" font-family="'ArialNarrow-Bold'" font-size="7.5169">N</text>
		<text transform="matrix(0.8 0 0 -0.8 50.7447 709.1649)" fill="#231F20" font-family="'ArialNarrow-Bold'" font-size="7.5169">G</text>
		<text transform="matrix(0.8 0 0 -0.8 54.6045 709.1649)" fill="#231F20" font-family="'ArialNarrow-Bold'" font-size="7.5169"> </text>
		<text transform="matrix(0.8 0 0 -0.8 56.1147 709.1649)" fill="#231F20" font-family="'ArialNarrow-Bold'" font-size="7.5169">C</text>
		<text transform="matrix(0.8 0 0 -0.8 59.6447 709.1649)" fill="#231F20" font-family="'ArialNarrow-Bold'" font-size="7.5169">R</text>
		<text transform="matrix(0.8 0 0 -0.8 63.1635 709.1649)" fill="#231F20" font-family="'ArialNarrow-Bold'" font-size="7.5169">O</text>
		<text transform="matrix(0.8 0 0 -0.8 67.0244 709.1649)" fill="#231F20" font-family="'ArialNarrow-Bold'" font-size="7.5169">W</text>
		<text transform="matrix(0.8 0 0 -0.8 72.5447 709.1649)" fill="#231F20" font-family="'ArialNarrow-Bold'" font-size="7.5169">N</text>
		<text transform="matrix(0.8 0 0 -0.8 45.3748 703.1547)" fill="#231F20" font-family="'ArialNarrow-Bold'" font-size="7.5169">L</text>
		<text transform="matrix(0.8 0 0 -0.8 48.2248 703.1547)" fill="#231F20" font-family="'ArialNarrow-Bold'" font-size="7.5169">O</text>
		<text transform="matrix(0.8 0 0 -0.8 52.0748 703.1547)" fill="#231F20" font-family="'ArialNarrow-Bold'" font-size="7.5169">U</text>
		<text transform="matrix(0.8 0 0 -0.8 55.9346 703.1547)" fill="#231F20" font-family="'ArialNarrow-Bold'" font-size="7.5169">N</text>
		<text transform="matrix(0.8 0 0 -0.8 60.1244 703.1547)" fill="#231F20" font-family="'ArialNarrow-Bold'" font-size="7.5169">G</text>
		<text transform="matrix(0.8 0 0 -0.8 63.9744 703.1547)" fill="#231F20" font-family="'ArialNarrow-Bold'" font-size="7.5169">E</text>
	</g>
	<g id="diamond-club">
		<text transform="matrix(0.8 0 0 -0.8 83.9041 716.0446)" fill="#231F20" font-family="'ArialNarrow-Bold'" font-size="7.5169">D</text>
		<text transform="matrix(0.8 0 0 -0.8 87.7635 716.0446)" fill="#231F20" font-family="'ArialNarrow-Bold'" font-size="7.5169">I</text>
		<text transform="matrix(0.8 0 0 -0.8 89.6135 716.0446)" fill="#231F20" font-family="'ArialNarrow-Bold'" font-size="7.5169">A</text>
		<text transform="matrix(0.8 0 0 -0.8 93.4635 716.0446)" fill="#231F20" font-family="'ArialNarrow-Bold'" font-size="7.5169">M</text>
		<text transform="matrix(0.8 0 0 -0.8 98.6541 716.0446)" fill="#231F20" font-family="'ArialNarrow-Bold'" font-size="7.5169">O</text>
		<text transform="matrix(0.8 0 0 -0.8 102.5135 716.0446)" fill="#231F20" font-family="'ArialNarrow-Bold'" font-size="7.5169">N</text>
		<text transform="matrix(0.8 0 0 -0.8 106.7025 716.0446)" fill="#231F20" font-family="'ArialNarrow-Bold'" font-size="7.5169">D</text>
		<text transform="matrix(0.8 0 0 -0.8 90.1932 710.0344)" fill="#231F20" font-family="'ArialNarrow-Bold'" font-size="7.5169">C</text>
		<text transform="matrix(0.8 0 0 -0.8 93.7135 710.0344)" fill="#231F20" font-family="'ArialNarrow-Bold'" font-size="7.5169">L</text>
		<text transform="matrix(0.8 0 0 -0.8 96.5635 710.0344)" fill="#231F20" font-family="'ArialNarrow-Bold'" font-size="7.5169">U</text>
		<text transform="matrix(0.8 0 0 -0.8 100.4229 710.0344)" fill="#231F20" font-family="'ArialNarrow-Bold'" font-size="7.5169">B</text>
	</g>
	<g id="cloud-nine">
		<text transform="matrix(0.8 0 0 -0.8 8.4557 741.764)" fill="#231F20" font-family="'ArialNarrow-Bold'" font-size="7.5169">C</text>
		<text transform="matrix(0.8 0 0 -0.8 11.9756 741.764)" fill="#231F20" font-family="'ArialNarrow-Bold'" font-size="7.5169">L</text>
		<text transform="matrix(0.8 0 0 -0.8 14.8256 741.764)" fill="#231F20" font-family="'ArialNarrow-Bold'" font-size="7.5169">O</text>
		<text transform="matrix(0.8 0 0 -0.8 18.6756 741.764)" fill="#231F20" font-family="'ArialNarrow-Bold'" font-size="7.5169">U</text>
		<text transform="matrix(0.8 0 0 -0.8 22.5354 741.764)" fill="#231F20" font-family="'ArialNarrow-Bold'" font-size="7.5169">D</text>
		<text transform="matrix(0.8 0 0 -0.8 10.7057 735.7539)" fill="#231F20" font-family="'ArialNarrow-Bold'" font-size="7.5169">N</text>
		<text transform="matrix(0.8 0 0 -0.8 14.8955 735.7539)" fill="#231F20" font-family="'ArialNarrow-Bold'" font-size="7.5169">I</text>
		<text transform="matrix(0.8 0 0 -0.8 16.7455 735.7539)" fill="#231F20" font-family="'ArialNarrow-Bold'" font-size="7.5169">N</text>
		<text transform="matrix(0.8 0 0 -0.8 20.9451 735.7539)" fill="#231F20" font-family="'ArialNarrow-Bold'" font-size="7.5169">E</text>
	</g>
	<g id="seven-hearts">
		<text transform="matrix(0.8 0 0 -0.8 6.7455 722.2742)" fill="#231F20" font-family="'ArialNarrow-Bold'" font-size="7.5169">S</text>
		<text transform="matrix(0.8 0 0 -0.8 10.2756 722.2742)" fill="#231F20" font-family="'ArialNarrow-Bold'" font-size="7.5169">E</text>
		<text transform="matrix(0.8 0 0 -0.8 13.4557 722.2742)" fill="#231F20" font-family="'ArialNarrow-Bold'" font-size="7.5169">V</text>
		<text transform="matrix(0.8 0 0 -0.8 16.9854 722.2742)" fill="#231F20" font-family="'ArialNarrow-Bold'" font-size="7.5169">E</text>
		<text transform="matrix(0.8 0 0 -0.8 20.1752 722.2742)" fill="#231F20" font-family="'ArialNarrow-Bold'" font-size="7.5169">N</text>
		<text transform="matrix(0.8 0 0 -0.8 4.9955 716.2648)" fill="#231F20" font-family="'ArialNarrow-Bold'" font-size="7.5169">H</text>
		<text transform="matrix(0.8 0 0 -0.8 8.8455 716.2648)" fill="#231F20" font-family="'ArialNarrow-Bold'" font-size="7.5169">E</text>
		<text transform="matrix(0.8 0 0 -0.8 12.0354 716.2648)" fill="#231F20" font-family="'ArialNarrow-Bold'" font-size="7.5169">A</text>
		<text transform="matrix(0.8 0 0 -0.8 15.8854 716.2648)" fill="#231F20" font-family="'ArialNarrow-Bold'" font-size="7.5169">R</text>
		<text transform="matrix(0.8 0 0 -0.8 19.4154 716.2648)" fill="#231F20" font-family="'ArialNarrow-Bold'" font-size="7.5169">T</text>
		<text transform="matrix(0.8 0 0 -0.8 22.5951 716.2648)" fill="#231F20" font-family="'ArialNarrow-Bold'" font-size="7.5169">S</text>
	</g>
</g>
</svg>
