<?xml version="1.0" encoding="UTF-8" standalone="no"?>
<!-- Generator: Adobe Illustrator 16.0.4, SVG Export Plug-In . SVG Version: 6.00 Build 0)  -->
<!DOCTYPE svg  PUBLIC '-//W3C//DTD SVG 1.1//EN'  'http://www.w3.org/Graphics/SVG/1.1/DTD/svg11.dtd'>
<svg id="svg2" xmlns:rdf="http://www.w3.org/1999/02/22-rdf-syntax-ns#" xmlns="http://www.w3.org/2000/svg" enable-background="new 1.438 7.841 133.75 813.355" xml:space="preserve" height="813.36px" viewBox="1.438 7.841 133.75 813.355" width="133.75px" version="1.1" y="0px" x="0px" xmlns:cc="http://creativecommons.org/ns#" xmlns:xlink="http://www.w3.org/1999/xlink" xmlns:dc="http://purl.org/dc/elements/1.1/">
		<g id="g10" transform="matrix(1.25,0,0,-1.25,0,990)">
			<g id="g13738">
						<g id="g13740">
							<g id="g13746" transform="translate(559.8 60.63)">
								<path id="path13748" d="m-465.47 74.818v18.523h-0.575c1.336 0 5.512 0.358 7.362 2.047 4.643 4.247 6.628 15.606 6.628 37.988 0 28.809-3.305 40.031-11.79 40.031h-0.896v367.36h9.241v69.378c0 60.837-8.864 76.053-35.073 108.95-6.63 5.815-13.52 5.574-14.39 5.574-0.866 0-7.98 0.241-14.607-5.574-33.813-38.878-35.12-66.767-35.12-108.95v-69.378h9.002v-367.36h1.376c-1.334 0-5.511-0.355-7.364-2.044-4.644-4.245-6.623-15.608-6.623-37.988s1.98-33.741 6.623-37.988c1.853-1.689 3.828-2.047 5.166-2.047h0.822v-18.527h80.21z" fill="#fff"/>
							</g>
							<g id="g13750" transform="translate(559.8 60.63)">
								<path id="path13752" d="m-465.47 74.818v18.523h-0.575c1.336 0 5.512 0.358 7.362 2.047 4.643 4.247 6.628 15.606 6.628 37.988 0 28.809-3.305 40.031-11.79 40.031h-0.896v367.36h9.241v69.378c0 60.837-8.864 76.053-35.073 108.95-6.63 5.815-13.52 5.574-14.39 5.574-0.866 0-7.98 0.241-14.607-5.574-33.813-38.878-35.12-66.767-35.12-108.95v-69.378h9.002v-367.36h1.376c-1.334 0-5.511-0.355-7.364-2.044-4.644-4.245-6.623-15.608-6.623-37.988s1.98-33.741 6.623-37.988c1.853-1.689 3.828-2.047 5.166-2.047h0.822v-18.527h80.21zm3.82 465.81v67.184c0 61.749-8.77 76.305-34.084 108.77-2.26 2.906-5.343 4.472-9.248 4.472-1.538 0-4.404-0.046-9.475-4.514-32.481-38.236-34.071-64.92-34.071-108.72v-67.184" stroke="#918F90" fill="none"/>
							</g>
						</g>
			</g>
			<g id="g13754">
						<g id="g13756">
							<g id="g13762" transform="translate(554.6 77.876)">
								<path id="path13764" stroke-linejoin="round" d="m-465.47 74.817v4.897h4.626c7.282 0 7.833 23.731 7.833 36.416 0 12.683-0.551 36.414-7.833 36.414h-4.626v429.56h5.795l0.109 27.275c0 14.291-18.202 20.19-40.513 20.19-32.575 0-40.407-11.425-40.407-20.19v-27.275h6.204l0.021-429.56h-4.849c-7.28 0-7.83-23.73-7.83-36.414s0.549-36.416 7.83-36.416h4.777v-3.974" stroke="#918F90" fill="#fff"/>
							</g>
							<g id="g13766" transform="translate(554.6 456.21)">
								<path id="path13768" d="m-465.47 74.817h-11.584v-12.112h-19.106v-28.994h19.721v2.43c1.51-0.459 2.905-1.161 4.113-2.067l1.014 0.842c1.887-1.398 3.372-3.231 4.275-5.333l-1.343-0.525c0.53-1.3 0.825-2.711 0.825-4.184 0-1.5-0.305-2.936-0.857-4.258l1.275-0.667c-0.996-2.206-2.64-4.105-4.718-5.498l-0.785 0.994c-2.194-1.542-4.945-2.458-7.924-2.458h-8.154v-0.603h22.996v-7.1h-14.019v-10.126h5.68v-12.645h-14.749v-3.766h23.088v-27.417h-23.363l0.006-17.114h23.609" stroke="#918F90" stroke-width=".5" fill="none"/>
							</g>
							<g id="g13770" transform="translate(495.96 304.02)">
								<path id="path13772" d="m-465.47 74.817h-10.15v0.498h9.883v7.812c0 0.142 0.12 0.252 0.267 0.252h12.038v22.195h-1.171v-5.652c0-0.142-0.12-0.25-0.267-0.25h-20.75c-0.16 0-0.276 0.108-0.276 0.25v28.003c0 0.133 0.116 0.253 0.276 0.253h22.093v6.272h-1.175v-5.025c0-0.139-0.118-0.247-0.279-0.247h-15.862c-0.148 0-0.277 0.109-0.277 0.247v4.519h-1.78c-0.158 0-0.278 0.12-0.278 0.253v29.258c0 0.145 0.12 0.253 0.278 0.253h19.118v1.005h-21.848v0.506h22.125c0.159 0 0.28-0.119 0.28-0.253v-1.511c0-0.136-0.121-0.244-0.28-0.244h-19.125v-28.761h1.788c0.15 0 0.277-0.106 0.277-0.253v-4.52h15.32v5.028c0 0.136 0.12 0.253 0.266 0.253h1.732c0.15 0 0.266-0.117 0.266-0.253v-6.78c0-0.145-0.116-0.253-0.266-0.253h-22.11v-27.503h20.208v5.647c0 0.15 0.121 0.256 0.277 0.256h1.715c0.144 0 0.274-0.106 0.274-0.256v-22.702c0-0.137-0.13-0.245-0.274-0.245h-12.034v-7.82c-0.02-0.136-0.14-0.246-0.3-0.246" fill="#949595"/>
							</g>
							<g id="g13774" transform="translate(503.22 476.29)">
								<path id="path13776" d="m-465.47 74.818h-4.342c-1.701 0-3.077 1.257-3.077 2.811v8.612c0 1.771-1.114 3.607-3.397 3.607-2.281 0-4.081-1.836-4.081-3.607v-27.23c0-2.039 1.811-3.692 4.043-3.692l0.645 0.014c0.848 0 1.537-0.633 1.537-1.411s-0.688-1.411-1.537-1.411h-0.645c-2.232 0-4.043-1.65-4.043-3.689 0-0.62 0.181-1.197 0.479-1.711-0.298-0.514-0.479-1.089-0.479-1.708 0-2.042 1.811-3.695 4.043-3.695 0.191 0 0.459 0.016 0.76 0.042 1.414 0.719 3.044 1.136 4.784 1.136 1.667 0 3.235-0.381 4.609-1.052 0.301-0.03 0.573-0.048 0.786-0.048 2.232 0 4.043 1.655 4.043 3.694 0 1.531-1.02 2.844-2.47 3.405 0 0-0.554 1.075 1.92 1.075h3.573v-29.018h-24.577m68.81-140.27h-23.609v1.977h23.609v-1.98zm-7.12 33.469v-12.245h-16.491v-3.433" stroke="#918F90" stroke-width=".5" fill="none"/>
							</g>
							<path id="path13778" d="m75.561 253.8h-4.716v0.991h4.716v-0.99z" stroke="#918F90" stroke-width=".5" fill="#fff"/>
							<path id="path13780" d="m75.561 254.79h-4.716v0.995h4.716v-0.99z" stroke="#918F90" stroke-width=".5" fill="#fff"/>
							<path id="path13782" d="m75.561 255.79h-4.716v0.989h4.716v-0.99z" stroke="#918F90" stroke-width=".5" fill="#fff"/>
							<path id="path13784" d="m79.101 253.8h-3.54v0.991h3.54v-0.99z" stroke="#918F90" stroke-width=".5" fill="#fff"/>
							<path id="path13786" d="m79.101 254.79h-3.54v0.995h3.54v-0.99z" stroke="#918F90" stroke-width=".5" fill="#fff"/>
							<path id="path13788" d="m79.101 255.79h-3.54v0.989h3.54v-0.99z" stroke="#918F90" stroke-width=".5" fill="#fff"/>
							<path id="path13790" d="m75.561 256.78h-4.716v0.994h4.716v-0.99z" stroke="#918F90" stroke-width=".5" fill="#fff"/>
							<path id="path13792" d="m79.101 256.78h-3.54v0.994h3.54v-0.99z" stroke="#918F90" stroke-width=".5" fill="#fff"/>
							<path id="path13794" d="m75.561 257.77h-4.716v0.992h4.716v-0.99z" stroke="#918F90" stroke-width=".5" fill="#fff"/>
							<path id="path13796" d="m79.101 257.77h-3.54v0.992h3.54v-0.99z" stroke="#918F90" stroke-width=".5" fill="#fff"/>
							<path id="path13798" d="m75.561 258.76h-4.716v0.994h4.716v-0.99z" stroke="#918F90" stroke-width=".5" fill="#fff"/>
							<path id="path13800" d="m79.101 258.76h-3.54v0.994h3.54v-0.99z" stroke="#918F90" stroke-width=".5" fill="#fff"/>
							<path id="path13802" d="m70.845 253.8h-3.544v0.991h3.544v-0.99z" stroke="#918F90" stroke-width=".5" fill="#fff"/>
							<path id="path13804" d="m70.845 254.79h-3.544v0.995h3.544v-0.99z" stroke="#918F90" stroke-width=".5" fill="#fff"/>
							<path id="path13806" d="m70.845 255.79h-3.544v0.989h3.544v-0.99z" stroke="#918F90" stroke-width=".5" fill="#fff"/>
							<path id="path13808" d="m70.845 256.78h-3.544v0.994h3.544v-0.99z" stroke="#918F90" stroke-width=".5" fill="#fff"/>
							<path id="path13810" d="m70.845 257.77h-3.544v0.992h3.544v-0.99z" stroke="#918F90" stroke-width=".5" fill="#fff"/>
							<path id="path13812" d="m70.845 258.76h-3.544v0.994h3.544v-0.99z" stroke="#918F90" stroke-width=".5" fill="#fff"/>
							<path id="path13814" d="m79.101 253.81h-11.799v-2.927h11.799v2.93z" stroke="#918F90" stroke-width=".5" fill="#fff"/>
							<path id="path13816" d="m38.202 253.88h-4.71v0.992h4.71v-0.99z" stroke="#918F90" stroke-width=".5" fill="#fff"/>
							<path id="path13818" d="m38.202 254.87h-4.71v0.995h4.71v-0.99z" stroke="#918F90" stroke-width=".5" fill="#fff"/>
							<path id="path13820" d="m38.202 255.86h-4.71v0.994h4.71v-0.99z" stroke="#918F90" stroke-width=".5" fill="#fff"/>
							<path id="path13822" d="m41.743 253.88h-3.541v0.992h3.541v-0.99z" stroke="#918F90" stroke-width=".5" fill="#fff"/>
							<path id="path13824" d="m41.743 254.87h-3.541v0.995h3.541v-0.99z" stroke="#918F90" stroke-width=".5" fill="#fff"/>
							<path id="path13826" d="m41.743 255.86h-3.541v0.994h3.541v-0.99z" stroke="#918F90" stroke-width=".5" fill="#fff"/>
							<path id="path13828" d="m38.202 256.86h-4.71v0.992h4.71v-0.99z" stroke="#918F90" stroke-width=".5" fill="#fff"/>
							<path id="path13830" d="m41.743 256.86h-3.541v0.992h3.541v-0.99z" stroke="#918F90" stroke-width=".5" fill="#fff"/>
							<path id="path13832" d="m38.202 257.85h-4.71v0.992h4.71v-0.99z" stroke="#918F90" stroke-width=".5" fill="#fff"/>
							<path id="path13834" d="m41.743 257.85h-3.541v0.992h3.541v-0.99z" stroke="#918F90" stroke-width=".5" fill="#fff"/>
							<path id="path13836" d="m38.202 258.84h-4.71v0.992h4.71v-0.99z" stroke="#918F90" stroke-width=".5" fill="#fff"/>
							<path id="path13838" d="m41.743 258.84h-3.541v0.992h3.541v-0.99z" stroke="#918F90" stroke-width=".5" fill="#fff"/>
							<path id="path13840" d="m33.491 253.88h-3.545v0.992h3.545v-0.99z" stroke="#918F90" stroke-width=".5" fill="#fff"/>
							<path id="path13842" d="m33.491 254.87h-3.545v0.995h3.545v-0.99z" stroke="#918F90" stroke-width=".5" fill="#fff"/>
							<path id="path13844" d="m33.491 255.86h-3.545v0.994h3.545v-0.99z" stroke="#918F90" stroke-width=".5" fill="#fff"/>
							<path id="path13846" d="m33.491 256.86h-3.545v0.992h3.545v-0.99z" stroke="#918F90" stroke-width=".5" fill="#fff"/>
							<path id="path13848" d="m33.491 257.85h-3.545v0.992h3.545v-0.99z" stroke="#918F90" stroke-width=".5" fill="#fff"/>
							<path id="path13850" d="m33.491 258.84h-3.545v0.992h3.545v-0.99z" stroke="#918F90" stroke-width=".5" fill="#fff"/>
							<path id="path13852" d="m41.743 253.89h-11.796v-2.927h11.796v2.93z" stroke="#918F90" stroke-width=".5" fill="#fff"/>
							<path id="path13854" d="m28.276 270.6h5.622v14.928h-5.622v-14.93z" stroke="#918F90" stroke-width=".5" fill="#fff"/>
							<path id="path13856" d="m75.275 270.6h5.623v14.928h-5.623v-14.93z" stroke="#918F90" stroke-width=".5" fill="#fff"/>
							<g id="g13858" transform="translate(522.97 201.9)">
								<path id="path13860" d="m-465.47 74.818c0 3.414 1.116 6.805 2.748 8.789 0.98 1.191 3.205 1.255 3.205 1.255h3.211v-18.166h-7.058c0.01 0-2.1 3.431-2.1 8.122" fill="#fff"/>
							</g>
							<g id="g13862" transform="translate(522.97 201.9)">
								<path id="path13864" d="m-465.47 74.818c0 3.414 1.116 6.805 2.748 8.789 0.98 1.191 3.205 1.255 3.205 1.255h3.211v-18.166h-7.058c0.01 0-2.1 3.431-2.1 8.122z" stroke="#918F90" fill="none"/>
							</g>
							<g id="g13866" transform="translate(517.2 201.9)">
								<path id="path13868" d="m-465.47 74.818c0 3.414-1.115 6.805-2.751 8.789-0.98 1.191-3.205 1.255-3.205 1.255h-3.205v-18.166h7.051c-0.01 0 2.1 3.431 2.1 8.122" fill="#fff"/>
							</g>
							<g id="g13870" transform="translate(517.2 201.9)">
								<path id="path13872" d="m-465.47 74.818c0 3.414-1.115 6.805-2.751 8.789-0.98 1.191-3.205 1.255-3.205 1.255h-3.205v-18.166h7.051c-0.01 0 2.1 3.431 2.1 8.122z" stroke="#918F90" fill="none"/>
							</g>
							<g id="g13874" transform="translate(532.12 194.58)">
								<path id="path13876" d="m-465.47 74.818h-3.102c-1.386 0-2.513 1.417-2.513 3.163 0 1.747 1.127 3.162 2.513 3.162h3.102v-6.325zm-24.08 0h3.107c1.384 0 2.51 1.417 2.51 3.163 0 1.747-1.126 3.162-2.51 3.162h-3.107v-6.325zm24.08 8.175h-3.102c-1.386 0-2.513 1.417-2.513 3.161 0 1.747 1.127 3.162 2.513 3.162h3.102v-6.323zm-24.08 0h3.107c1.384 0 2.51 1.417 2.51 3.161 0 1.747-1.126 3.162-2.51 3.162h-3.107v-6.323zm6.03 24.507l-3.905-1.059m3.71 2.03l-4.059-0.772m3.93 1.74l-4.163-0.47m3.96 1.44l-4.086-0.15m4.2 1.13l-4.184 0.162m4.2 0.82l-4.095 0.469m4.32 0.5l-4.086 0.786m4.21 0.19l-3.855 1.053m4.83 1.01l-3.623 1.711m4.13-0.85l-3.44 1.972m3.96-1.1l-3.17 2.159m3.01 3.53c-0.48-0.252-1.581-1.445-2.228-2.284l-0.477-0.569c-0.845-1.003-1.551-2.109-2.126-3.284l-0.818-2.025c-0.557-1.722-0.826-3.558-0.733-5.462 0.069-1.292 0.309-2.539 0.674-3.731 0.641-2.252 1.911-4.002 2.851-5.091l3.255 2.344c-0.423 0.544-0.85 1.155-1.133 1.611 0.507 0.528 0.491 1.328-0.068 1.823-0.276 0.248-0.639 0.369-0.999 0.373l0.052 0.009c-0.275 0.908-0.461 1.852-0.506 2.834-0.07 1.338 0.105 2.628 0.467 3.85 0.359 0.02 0.71 0.162 0.975 0.425 0.521 0.525 0.486 1.323-0.055 1.82 0.395 0.736 1.112 1.867 1.652 2.506l-3.011 2.566m1.51-16.15l-3.503-1.905m4.07 1.08l-3.416-2.15m13.84 5.11l3.907-1.059m-3.72 2.03l4.062-0.772m-3.93 1.74l4.164-0.47m-3.96 1.44l4.083-0.148m-4.18 1.13l4.187 0.162m-4.22 0.82l4.091 0.469m-4.32 0.5l4.089 0.786m-4.2 0.19l3.856 1.053m-4.83 1.01l3.624 1.711m-4.14-0.85l3.442 1.972m-3.96-1.1l3.168 2.159m-0.3 0.68c0.842-1.003 1.545-2.109 2.12-3.284l0.818-2.025c0.559-1.722 0.827-3.558 0.73-5.462-0.061-1.292-0.304-2.539-0.668-3.731-0.79-2.763-2.522-4.769-3.429-5.728l-0.513-0.539-2.842 2.723c0.58 0.608 1.37 1.697 1.81 2.408-0.509 0.528-0.491 1.328 0.063 1.823 0.28 0.248 0.641 0.369 1.003 0.373l-0.054 0.009c0.277 0.908 0.458 1.852 0.509 2.834 0.07 1.338-0.11 2.628-0.468 3.85-0.359 0.02-0.713 0.162-0.975 0.425-0.523 0.525-0.486 1.323 0.053 1.82-0.398 0.736-1.112 1.867-1.655 2.506l3.016 2.566 0.47-0.57zm-1.96-15.58l3.506-1.905m-4.08 1.08l3.309-2.15m-3.89 1.31l3.022-2.325" stroke="#918F90" stroke-width=".5" fill="none"/>
							</g>
							<g id="g13878" transform="translate(520.14 239.08)">
								<path id="path13880" stroke-linejoin="round" d="m-465.47 74.817c-0.994 0-1.912 0.248-2.729 0.648l-0.76-1.008c-0.539-0.639-1.255-1.769-1.652-2.506 0.541-0.497 0.576-1.294 0.055-1.819-0.265-0.264-0.616-0.405-0.975-0.425-0.362-1.222-0.537-2.514-0.467-3.85 0.045-0.984 0.231-1.928 0.506-2.836l-0.052-0.009c0.359-0.005 0.723-0.125 0.998-0.373 0.56-0.495 0.576-1.295 0.069-1.822 0.439-0.712 1.232-1.8 1.81-2.408l0.794-0.987c0.738 0.305 1.545 0.487 2.403 0.487 0.846 0 1.643-0.173 2.37-0.472l0.723 0.973c0.578 0.606 1.368 1.694 1.809 2.406-0.508 0.527-0.49 1.327 0.064 1.823 0.279 0.247 0.64 0.367 1.003 0.372l-0.055 0.011c0.277 0.909 0.459 1.852 0.509 2.834 0.07 1.339-0.11 2.63-0.468 3.85-0.357 0.02-0.712 0.161-0.974 0.425-0.523 0.525-0.486 1.322 0.053 1.819-0.398 0.737-1.111 1.867-1.654 2.506l-0.81 0.928c-0.76-0.35-1.62-0.567-2.55-0.567z" stroke="#918F90" fill="none"/>
							</g>
							<g id="g13882" transform="translate(516.51 217.4)">
								<path id="path13884" d="m-465.47 74.817c0.854-0.967 2.163-1.586 3.638-1.586 1.511 0 2.855 0.655 3.71 1.675m-7.57 0.686c0.638 0.731 1.023 1.658 1.023 2.666 0 0.825-0.259 1.597-0.705 2.252m8.29 21.01c-1.103 1.242-2.821 2.042-4.743 2.042-1.779 0-3.379-0.68-4.481-1.761m8.06-0.63c-0.885 0.863-2.163 1.402-3.582 1.402-1.288 0-2.454-0.441-3.318-1.159m6.65-1.11c-0.848 0.789-2.027 1.275-3.33 1.275-1.242 0-2.368-0.439-3.207-1.158" stroke="#918F90" stroke-width=".5" fill="none"/>
							</g>
							<g id="g13886" transform="translate(517.74 239.82)">
								<path id="path13888" d="m-465.47 74.817c-1.183 0.552-2.077 1.981-2.123 2.923" stroke="#918F90" stroke-width=".5" fill="#fff"/>
							</g>
							<g id="g13890" transform="translate(517.45 243.57)">
								<path id="path13892" d="m-465.47 74.817c0 0.797-0.706 1.442-1.58 1.442-0.877 0-1.581-0.645-1.581-1.442 0-0.798 0.705-1.445 1.581-1.445 0.87 0 1.58 0.647 1.58 1.445" fill="#fff"/>
							</g>
							<g id="g13894" transform="translate(517.45 243.57)">
								<path id="path13896" d="m-465.47 74.817c0 0.797-0.706 1.442-1.58 1.442-0.877 0-1.581-0.645-1.581-1.442 0-0.798 0.705-1.445 1.581-1.445 0.87 0 1.58 0.647 1.58 1.445zm9.09-2.284c-0.431 0.527-1.462 1.797-2.146 2.292" stroke="#918F90" stroke-width=".5" fill="none"/>
							</g>
							<g id="g13898" transform="translate(522.81 243.57)">
								<path id="path13900" d="m-465.47 74.817c0 0.797 0.708 1.442 1.582 1.442 0.873 0 1.577-0.645 1.577-1.442 0-0.798-0.703-1.445-1.577-1.445-0.87 0-1.58 0.647-1.58 1.445" fill="#fff"/>
							</g>
							<g id="g13902" transform="translate(522.81 243.57)">
								<path id="path13904" d="m-465.47 74.817c0 0.797 0.708 1.442 1.582 1.442 0.873 0 1.577-0.645 1.577-1.442 0-0.798-0.703-1.445-1.577-1.445-0.87 0-1.58 0.647-1.58 1.445z" stroke="#918F90" stroke-width=".5" fill="none"/>
							</g>
							<g id="g13906" transform="translate(517.34 217.73)">
								<path id="path13908" d="m-465.47 74.817c0 0.798-0.712 1.445-1.583 1.445-0.873 0-1.579-0.647-1.579-1.445 0-0.797 0.705-1.445 1.579-1.445 0.87 0 1.58 0.648 1.58 1.445" fill="#fff"/>
							</g>
							<g id="g13910" transform="translate(517.34 217.73)">
								<path id="path13912" d="m-465.47 74.817c0 0.798-0.712 1.445-1.583 1.445-0.873 0-1.579-0.647-1.579-1.445 0-0.797 0.705-1.445 1.579-1.445 0.87 0 1.58 0.648 1.58 1.445z" stroke="#918F90" stroke-width=".5" fill="none"/>
							</g>
							<g id="g13914" transform="translate(526.08 219.94)">
								<path id="path13916" d="m-465.47 74.817c-0.722-0.8-1.452-1.775-1.796-2.098" stroke="#918F90" stroke-width=".5" fill="#fff"/>
							</g>
							<g id="g13918" transform="translate(522.7 217.73)">
								<path id="path13920" d="m-465.47 74.817c0 0.798 0.708 1.445 1.58 1.445s1.584-0.647 1.584-1.445c0-0.797-0.712-1.445-1.584-1.445s-1.58 0.648-1.58 1.445" fill="#fff"/>
							</g>
							<g id="g13922" transform="translate(522.7 217.73)">
								<path id="path13924" d="m-465.47 74.817c0 0.798 0.708 1.445 1.58 1.445s1.584-0.647 1.584-1.445c0-0.797-0.712-1.445-1.584-1.445s-1.58 0.648-1.58 1.445z" stroke="#918F90" stroke-width=".5" fill="none"/>
							</g>
							<g id="g13926" transform="translate(513.48 85.17)">
								<path id="path13928" d="m-465.47 74.818" stroke="#100F0D" stroke-width=".5" fill="none"/>
							</g>
							<g id="g13930" transform="translate(512.9 88.749)">
								<path id="path13932" d="m-465.47 74.817c0-0.2 0.017-0.395 0.029-0.592-0.18-0.047-0.353-0.106-0.544-0.139-0.355-0.059-0.72-0.089-1.098-0.089-0.373 0-0.74 0.03-1.091 0.089-0.353 0.061-0.696 0.15-1.02 0.258-0.323 0.113-0.636 0.252-0.924 0.411l-1.602-2.884c0.333-0.155 0.677-0.295 1.03-0.419 0.553-0.194 1.138-0.341 1.741-0.442 0.601-0.098 1.229-0.155 1.866-0.155 0.642 0 1.267 0.056 1.873 0.155 0.241 0.041 0.473 0.095 0.705 0.15 1.248-2.209 3.589-3.705 6.281-3.705 2.688 0 5.029 1.495 6.275 3.705 0.233-0.055 0.468-0.109 0.707-0.15 0.605-0.098 1.23-0.155 1.869-0.155 0.64 0 1.266 0.056 1.871 0.155 0.603 0.102 1.189 0.248 1.741 0.442 0.354 0.123 0.698 0.262 1.027 0.419l-1.599 2.884c-0.287-0.159-0.598-0.298-0.925-0.411-0.325-0.108-0.668-0.197-1.02-0.258-0.355-0.059-0.716-0.089-1.095-0.089-0.373 0-0.739 0.03-1.094 0.089-0.19 0.033-0.365 0.092-0.546 0.139 0.015 0.198 0.033 0.392 0.033 0.592 0 4.066-3.248 7.362-7.243 7.362-4.02 0.001-7.26-3.296-7.26-7.362" fill="#fff"/>
							</g>
							<g id="g13934" transform="translate(512.9 88.749)">
									<path id="path13936" stroke-linejoin="round" d="m-465.47 74.817c0-0.2 0.017-0.395 0.029-0.592-0.18-0.047-0.353-0.106-0.544-0.139-0.355-0.059-0.72-0.089-1.098-0.089-0.373 0-0.74 0.03-1.091 0.089-0.353 0.061-0.696 0.15-1.02 0.258-0.323 0.113-0.636 0.252-0.924 0.411l-1.602-2.884c0.333-0.155 0.677-0.295 1.03-0.419 0.553-0.194 1.138-0.341 1.741-0.442 0.601-0.098 1.229-0.155 1.866-0.155 0.642 0 1.267 0.056 1.873 0.155 0.241 0.041 0.473 0.095 0.705 0.15 1.248-2.209 3.589-3.705 6.281-3.705 2.688 0 5.029 1.495 6.275 3.705 0.233-0.055 0.468-0.109 0.707-0.15 0.605-0.098 1.23-0.155 1.869-0.155 0.64 0 1.266 0.056 1.871 0.155 0.603 0.102 1.189 0.248 1.741 0.442 0.354 0.123 0.698 0.262 1.027 0.419l-1.599 2.884c-0.287-0.159-0.598-0.298-0.925-0.411-0.325-0.108-0.668-0.197-1.02-0.258-0.355-0.059-0.716-0.089-1.095-0.089-0.373 0-0.739 0.03-1.094 0.089-0.19 0.033-0.365 0.092-0.546 0.139 0.015 0.198 0.033 0.392 0.033 0.592 0 4.066-3.248 7.362-7.243 7.362-4.02 0.001-7.26-3.296-7.26-7.362z" stroke="#918F90" stroke-width=".5" fill="none"/>
							</g>
							<g id="g13938" transform="translate(526.97 88.184)">
								<path id="path13940" d="m-465.47 74.816l-1.137-2.9m2.24 2.765l-0.584-3.2m1.66 3.145l0.048-3.203m1.03 3.268l0.666-3.142m0.36 3.46l1.295-3.044m-19.2 2.851l1.136-2.9m-2.24 2.765l0.583-3.2m-1.67 3.145l-0.048-3.203m-1.03 3.268l-0.67-3.142m-0.36 3.46l-1.292-3.044" stroke="#918F90" stroke-width=".5" fill="none"/>
							</g>
							<g id="g13942" transform="translate(515.46 85.622)">
								<path id="path13944" d="m-465.47 74.818c-0.245-0.133-0.734-0.25-1.032-0.348-0.294-0.098-0.614-0.175-0.957-0.234-0.342-0.056-0.7-0.092-1.081-0.109-0.377-0.014-0.77-0.113-1.176-0.083-0.403 0.028-0.826-0.047-1.254 0.012-0.429 0.059-0.846 0.141-1.245 0.234-0.396 0.1-0.886 0.217-1.247 0.348-0.361 0.133-0.702 0.283-1.017 0.442l-1.636-2.434c0.334-0.166 0.688-0.322 1.053-0.469 0.572-0.223 1.289-0.425 1.921-0.594 0.631-0.169 1.29-0.308 1.968-0.409 0.681-0.097 1.34-0.091 1.982-0.139 0.644-0.044 1.268 0.048 1.867 0.078 0.6 0.03 1.173 0.094 1.718 0.197 0.539 0.1 1.049 0.133 1.522 0.303l-1.37 3.205z" fill="#fff"/>
							</g>
							<g id="g13946" transform="translate(515.46 85.622)">
									<path id="path13948" stroke-linejoin="round" d="m-465.47 74.818c-0.245-0.133-0.734-0.25-1.032-0.348-0.294-0.098-0.614-0.175-0.957-0.234-0.342-0.056-0.7-0.092-1.081-0.109-0.377-0.014-0.77-0.113-1.176-0.083-0.403 0.028-0.826-0.047-1.254 0.012-0.429 0.059-0.846 0.141-1.245 0.234-0.396 0.1-0.886 0.217-1.247 0.348-0.361 0.133-0.702 0.283-1.017 0.442l-1.636-2.434c0.334-0.166 0.688-0.322 1.053-0.469 0.572-0.223 1.289-0.425 1.921-0.594 0.631-0.169 1.29-0.308 1.968-0.409 0.681-0.097 1.34-0.091 1.982-0.139 0.644-0.044 1.268 0.048 1.867 0.078 0.6 0.03 1.173 0.094 1.718 0.197 0.539 0.1 1.049 0.133 1.522 0.303l-1.37 3.205z" stroke="#918F90" stroke-width=".5" fill="none"/>
							</g>
							<g id="g13950" transform="translate(512.1 82.045)">
								<path id="path13952" d="m-465.47 74.817m2.36 3.297l1.06-3.164m-2.08 2.89l0.772-3.117m-1.88 2.919l0.164-3.039m-1.41 3.061l-0.033-3.033m-1.21 3.064l-0.609-2.911m-0.62 3.13l-0.814-2.773m-0.45 3.165l-1.388-2.597" stroke="#918F90" stroke-width=".5" fill="none"/>
							</g>
							<g id="g13954" transform="translate(524.73 85.622)">
								<path id="path13956" d="m-465.47 74.818c0.24-0.133 0.733-0.25 1.029-0.348 0.298-0.098 0.617-0.175 0.958-0.234 0.341-0.056 0.702-0.092 1.081-0.109 0.376-0.014 0.77-0.113 1.177-0.083 0.406 0.028 0.828-0.047 1.259 0.012 0.426 0.059 0.84 0.141 1.24 0.234 0.4 0.1 0.889 0.217 1.25 0.348 0.36 0.133 0.697 0.283 1.017 0.442l1.637-2.434c-0.339-0.166-0.69-0.322-1.055-0.469-0.573-0.223-1.291-0.425-1.923-0.592-0.63-0.169-1.289-0.308-1.966-0.409-0.68-0.098-1.339-0.091-1.984-0.139-0.641-0.044-1.268 0.048-1.868 0.077-0.597 0.03-1.17 0.094-1.713 0.197-0.544 0.1-1.052 0.133-1.523 0.303l1.36 3.204z" fill="#fff"/>
							</g>
							<g id="g13958" transform="translate(524.73 85.622)">
									<path id="path13960" stroke-linejoin="round" d="m-465.47 74.818c0.24-0.133 0.733-0.25 1.029-0.348 0.298-0.098 0.617-0.175 0.958-0.234 0.341-0.056 0.702-0.092 1.081-0.109 0.376-0.014 0.77-0.113 1.177-0.083 0.406 0.028 0.828-0.047 1.259 0.012 0.426 0.059 0.84 0.141 1.24 0.234 0.4 0.1 0.889 0.217 1.25 0.348 0.36 0.133 0.697 0.283 1.017 0.442l1.637-2.434c-0.339-0.166-0.69-0.322-1.055-0.469-0.573-0.223-1.291-0.425-1.923-0.592-0.63-0.169-1.289-0.308-1.966-0.409-0.68-0.098-1.339-0.091-1.984-0.139-0.641-0.044-1.268 0.048-1.868 0.077-0.597 0.03-1.17 0.094-1.713 0.197-0.544 0.1-1.052 0.133-1.523 0.303l1.36 3.204z" stroke="#918F90" stroke-width=".5" fill="none"/>
							</g>
							<g id="g13962" transform="translate(528.08 82.045)">
								<path id="path13964" d="m-465.47 74.817m-2.36 3.297l-1.064-3.164m2.08 2.89l-0.772-3.117m1.88 2.919l-0.168-3.039m1.42 3.061l0.035-3.033m1.22 3.064l0.607-2.911m0.62 3.13l0.811-2.773m0.44 3.165l1.39-2.597" stroke="#918F90" stroke-width=".5" fill="none"/>
							</g>
							<g id="g13966" transform="translate(524.86 81.885)">
								<path id="path13968" d="m-465.47 74.817c-0.418 0.078-0.806 0.13-1.185 0.222-1.046-0.602-2.25-0.95-3.535-0.95-1.302 0-2.52 0.356-3.572 0.964-0.391-0.103-0.808-0.155-1.246-0.236-0.478-0.087-0.99-0.139-1.51-0.17 1.411-1.761 3.681-2.911 6.252-2.911 2.573 0 4.848 1.15 6.257 2.912-0.5 0.034-0.99 0.084-1.45 0.169" fill="#fff"/>
							</g>
							<g id="g13970" transform="translate(524.86 81.885)">
								<path id="path13972" stroke-linejoin="round" d="m-465.47 74.817c-0.418 0.078-0.806 0.13-1.185 0.222-1.046-0.602-2.25-0.95-3.535-0.95-1.302 0-2.52 0.356-3.572 0.964-0.391-0.103-0.808-0.155-1.246-0.236-0.478-0.087-0.99-0.139-1.51-0.17 1.411-1.761 3.681-2.911 6.252-2.911 2.573 0 4.848 1.15 6.257 2.912-0.5 0.034-0.99 0.084-1.45 0.169z" stroke="#918F90" fill="none"/>
							</g>
							<g id="g13974" transform="translate(510.33 138.57)">
								<path id="path13976" d="m-465.47 74.817l-0.151-0.111c0.171-0.117 0.347-0.233 0.505-0.378 0.942-0.859 1.414-1.988 1.414-3.114 0-0.006-0.003-0.013-0.003-0.022l0.003-0.003-0.003-0.002c-0.007-1.119-0.478-2.234-1.411-3.088-0.941-0.859-2.176-1.291-3.408-1.291-0.253 0-0.502 0.03-0.751 0.066-2.491-2.453-4.188-5.58-4.741-9.05 0.66-0.647 1.073-1.506 1.073-2.458 0-0.947-0.406-1.8-1.06-2.445 0.583-3.672 2.464-6.944 5.188-9.463 1.128-0.064 2.236-0.475 3.1-1.262 0.943-0.861 1.413-1.989 1.413-3.116s-0.47-2.256-1.413-3.116c-0.569-0.52-1.254-0.866-1.97-1.069-1.982-0.978-3.331-2.875-3.331-5.075 0-2.214 1.359-4.136 3.357-5.105l0.105 0.186c0.288-0.159 0.602-0.298 0.925-0.411 0.324-0.113 0.667-0.197 1.021-0.256 0.352-0.059 0.717-0.092 1.091-0.092 0.379 0 0.743 0.033 1.098 0.092 0.19 0.03 0.364 0.091 0.545 0.137-0.012 0.195-0.03 0.392-0.03 0.592 0 4.066 3.243 7.361 7.248 7.361 3.995 0 7.241-3.295 7.241-7.361 0-0.2-0.018-0.397-0.032-0.592 0.182-0.047 0.357-0.109 0.548-0.137 0.355-0.059 0.72-0.092 1.095-0.092 0.379 0 0.741 0.033 1.095 0.092 0.352 0.059 0.695 0.145 1.02 0.256 0.327 0.113 0.638 0.252 0.927 0.411l0.055-0.106c1.91 0.997 3.202 2.872 3.202 5.027 0 2.2-1.352 4.095-3.327 5.075-0.721 0.203-1.405 0.548-1.973 1.069-0.945 0.858-1.414 1.988-1.414 3.116 0 1.127 0.47 2.253 1.414 3.116 0.934 0.852 2.155 1.28 3.377 1.287 2.655 2.467 4.505 5.659 5.124 9.239-0.78 0.663-1.27 1.595-1.27 2.642 0 1.05 0.494 1.986 1.282 2.65-0.584 3.383-2.262 6.436-4.695 8.839-0.271-0.042-0.541-0.07-0.812-0.07-1.235 0-2.467 0.428-3.412 1.288-0.943 0.861-1.411 1.991-1.411 3.116 0 1.128 0.468 2.255 1.411 3.116 0.17 0.153 0.359 0.28 0.546 0.405l-0.153 0.109c-2.852 1.077-6.207 1.709-9.818 1.709-3.64 0.001-7-0.631-9.85-1.711" fill="#fff"/>
							</g>
							<g id="g13978" transform="translate(510.33 138.57)">
								<path id="path13980" stroke-linejoin="round" d="m-465.47 74.817l-0.151-0.111c0.171-0.117 0.347-0.233 0.505-0.378 0.942-0.859 1.414-1.988 1.414-3.114 0-0.006-0.003-0.013-0.003-0.022l0.003-0.003-0.003-0.002c-0.007-1.119-0.478-2.234-1.411-3.088-0.941-0.859-2.176-1.291-3.408-1.291-0.253 0-0.502 0.03-0.751 0.066-2.491-2.453-4.188-5.58-4.741-9.05 0.66-0.647 1.073-1.506 1.073-2.458 0-0.947-0.406-1.8-1.06-2.445 0.583-3.672 2.464-6.944 5.188-9.463 1.128-0.064 2.236-0.475 3.1-1.262 0.943-0.861 1.413-1.989 1.413-3.116s-0.47-2.256-1.413-3.116c-0.569-0.52-1.254-0.866-1.97-1.069-1.982-0.978-3.331-2.875-3.331-5.075 0-2.214 1.359-4.136 3.357-5.105l0.105 0.186c0.288-0.159 0.602-0.298 0.925-0.411 0.324-0.113 0.667-0.197 1.021-0.256 0.352-0.059 0.717-0.092 1.091-0.092 0.379 0 0.743 0.033 1.098 0.092 0.19 0.03 0.364 0.091 0.545 0.137-0.012 0.195-0.03 0.392-0.03 0.592 0 4.066 3.243 7.361 7.248 7.361 3.995 0 7.241-3.295 7.241-7.361 0-0.2-0.018-0.397-0.032-0.592 0.182-0.047 0.357-0.109 0.548-0.137 0.355-0.059 0.72-0.092 1.095-0.092 0.379 0 0.741 0.033 1.095 0.092 0.352 0.059 0.695 0.145 1.02 0.256 0.327 0.113 0.638 0.252 0.927 0.411l0.055-0.106c1.91 0.997 3.202 2.872 3.202 5.027 0 2.2-1.352 4.095-3.327 5.075-0.721 0.203-1.405 0.548-1.973 1.069-0.945 0.858-1.414 1.988-1.414 3.116 0 1.127 0.47 2.253 1.414 3.116 0.934 0.852 2.155 1.28 3.377 1.287 2.655 2.467 4.505 5.659 5.124 9.239-0.78 0.663-1.27 1.595-1.27 2.642 0 1.05 0.494 1.986 1.282 2.65-0.584 3.383-2.262 6.436-4.695 8.839-0.271-0.042-0.541-0.07-0.812-0.07-1.235 0-2.467 0.428-3.412 1.288-0.943 0.861-1.411 1.991-1.411 3.116 0 1.128 0.468 2.255 1.411 3.116 0.17 0.153 0.359 0.28 0.546 0.405l-0.153 0.109c-2.852 1.077-6.207 1.709-9.818 1.709-3.64 0.001-7-0.631-9.85-1.711z" stroke="#918F90" fill="none"/>
							</g>
							<g id="g13982" transform="translate(508.64 185.69)">
								<path id="path13984" d="m-465.47 74.817l1.403-0.023c0-2.692 1.759-6.003 1.759-6.003s-0.097-1.77 0.528-2.972c0.626-1.203 2.202-2.3 2.202-2.3l-1.033-10.517 1.873-0.458-3.52-14.598h-12.832v-1.298h-2.627v7.113h-1.425v3.309h1.441v3.891h-10.444m7.97 13.937v11.491h-8.11v-19.248h9.977l-1.87 7.757zm37.66 9.896l-1.402-0.022c0-2.67-1.761-6.006-1.761-6.006s0.184-1.217-0.418-2.772c-0.601-1.553-2.311-2.502-2.311-2.502l1.036-10.516-1.881-0.458 3.523-14.597h12.833v-1.298h2.63v7.111h1.424v3.309h-1.442v3.891h10.445m-8.06 13.902v11.677h6.801v-25.59h-10.477l3.68 13.913z" stroke="#918F90" stroke-width=".5" fill="none"/>
							</g>
							<g id="g13986" transform="translate(519.98 497.64)">
								<path id="path13988" d="m-465.47 74.817c-1.618 0-2.937 1.12-3.11 2.556-3.123-0.609-4.843-1.907-4.843-1.907h-3.021v-15.168c0-2.493 2.309-6.004 6.221-7.693 0.015 0.129 0.055 0.248 0.081 0.371-3.14 1.812-5.277 5.252-5.277 9.213l-0.002 2.2c0.638 0.583 1.336 0.798 2.382 0.798 0.911 0 1.805-0.141 2.468-0.741v-2.243c0-1.259 1.023-3.27 1.734-3.632l-1.473-1.613c0.614-0.518 1.328-0.938 2.107-1.252 0.774 0.498 1.705 0.802 2.727 0.802 1.005 0 1.925-0.295 2.692-0.775 0.754 0.312 1.449 0.722 2.049 1.227l-1.474 1.613c0.711 0.362 1.738 2.374 1.738 3.632l0.002 0.003v2.24c0.655 0.6 1.552 0.741 2.464 0.741 1.05 0 1.745-0.216 2.384-0.798v-2.2c0-3.927-2.102-7.341-5.198-9.167 0.041-0.181 0.088-0.363 0.105-0.551 4.43 1.738 6.341 5.734 6.341 7.826v15.168h-2.833s-1.828 1.384-5.152 1.966c-0.14-1.464-1.47-2.616-3.11-2.616" fill="#fff"/>
							</g>
							<g id="g13990" transform="translate(519.98 497.64)">
								<path id="path13992" stroke-linejoin="round" d="m-465.47 74.817c-1.618 0-2.937 1.12-3.11 2.556-3.123-0.609-4.843-1.907-4.843-1.907h-3.021v-15.168c0-2.493 2.309-6.004 6.221-7.693 0.015 0.129 0.055 0.248 0.081 0.371-3.14 1.812-5.277 5.252-5.277 9.213l-0.002 2.2c0.638 0.583 1.336 0.798 2.382 0.798 0.911 0 1.805-0.141 2.468-0.741v-2.243c0-1.259 1.023-3.27 1.734-3.632l-1.473-1.613c0.614-0.518 1.328-0.938 2.107-1.252 0.774 0.498 1.705 0.802 2.727 0.802 1.005 0 1.925-0.295 2.692-0.775 0.754 0.312 1.449 0.722 2.049 1.227l-1.474 1.613c0.711 0.362 1.738 2.374 1.738 3.632l0.002 0.003v2.24c0.655 0.6 1.552 0.741 2.464 0.741 1.05 0 1.745-0.216 2.384-0.798v-2.2c0-3.927-2.102-7.341-5.198-9.167 0.041-0.181 0.088-0.363 0.105-0.551 4.43 1.738 6.341 5.734 6.341 7.826v15.168h-2.833s-1.828 1.384-5.152 1.966c-0.14-1.464-1.47-2.616-3.11-2.616z" stroke="#918F90" fill="none"/>
							</g>
							<g id="g13994" transform="translate(517.25 478.51)">
								<path id="path13996" d="m-465.47 74.817c-2.748 1.101-4.629 3.59-4.629 6.499h-2.6c0-3.952 2.13-7.388 5.257-9.205l1.97 2.706z" fill="#fff"/>
							</g>
							<g id="g13998" transform="translate(517.25 478.51)">
									<path id="path14000" stroke-linejoin="round" d="m-465.47 74.817c-2.748 1.101-4.629 3.59-4.629 6.499h-2.6c0-3.952 2.13-7.388 5.257-9.205l1.97 2.706z" stroke="#918F90" stroke-width=".5" fill="none"/>
							</g>
							<g id="g14002" transform="translate(510.03 485.01)">
								<path id="path14004" d="m-465.47 74.817v2.2c0.638 0.584 1.336 0.8 2.382 0.8 0.91 0 1.806-0.141 2.468-0.741v-2.243c0-1.259 1.024-3.27 1.734-3.631l-1.62-1.772c-1.542 1.353-2.51 3.266-2.51 5.391l-2.45-0.004z" fill="#fff"/>
							</g>
							<g id="g14006" transform="translate(510.03 485.01)">
									<path id="path14008" stroke-linejoin="round" d="m-465.47 74.817v2.2c0.638 0.584 1.336 0.8 2.382 0.8 0.91 0 1.806-0.141 2.468-0.741v-2.243c0-1.259 1.024-3.27 1.734-3.631l-1.62-1.772c-1.542 1.353-2.51 3.266-2.51 5.391l-2.45-0.004z" stroke="#918F90" stroke-width=".5" fill="none"/>
							</g>
							<g id="g14010" transform="translate(514.88 485.03)">
									<path id="path14012" stroke-linejoin="round" d="m-465.47 74.817l-4.85-0.015" stroke="#918F90" stroke-width=".5" fill="#fff"/>
							</g>
							<g id="g14014" transform="translate(514.91 484.36)">
									<path id="path14016" stroke-linejoin="round" d="m-465.47 74.818l-4.79-0.641" stroke="#918F90" stroke-width=".5" fill="#fff"/>
							</g>
							<g id="g14018" transform="translate(515.06 483.72)">
									<path id="path14020" stroke-linejoin="round" d="m-465.47 74.817l-4.634-1.254" stroke="#918F90" stroke-width=".5" fill="#fff"/>
							</g>
							<g id="g14022" transform="translate(515.31 483.11)">
									<path id="path14024" stroke-linejoin="round" d="m-465.47 74.817l-4.664-1.92" stroke="#918F90" stroke-width=".5" fill="#fff"/>
							</g>
							<g id="g14026" transform="translate(515.66 482.54)">
									<path id="path14028" stroke-linejoin="round" d="m-465.47 74.817l-4.391-2.607" stroke="#918F90" stroke-width=".5" fill="#fff"/>
							</g>
							<g id="g14030" transform="translate(516.09 482.02)">
									<path id="path14032" stroke-linejoin="round" d="m-465.47 74.818l-4.201-3.281" stroke="#918F90" stroke-width=".5" fill="#fff"/>
							</g>
							<g id="g14034" transform="translate(516.08 480.81)">
									<path id="path14036" stroke-linejoin="round" d="m-465.47 74.817l-3.165-3.341" stroke="#918F90" stroke-width=".5" fill="#fff"/>
							</g>
							<g id="g14038" transform="translate(516.12 479.12)">
									<path id="path14040" stroke-linejoin="round" d="m-465.47 74.817l-2.091-2.611" stroke="#918F90" stroke-width=".5" fill="#fff"/>
							</g>
							<g id="g14042" transform="translate(522.66 478.53)">
								<path id="path14044" d="m-465.47 74.817c2.712 1.112 4.569 3.587 4.569 6.476h2.602c0-3.966-2.145-7.412-5.291-9.223l-1.88 2.747z" fill="#fff"/>
							</g>
							<g id="g14046" transform="translate(522.66 478.53)">
									<path id="path14048" stroke-linejoin="round" d="m-465.47 74.817c2.712 1.112 4.569 3.587 4.569 6.476h2.602c0-3.966-2.145-7.412-5.291-9.223l-1.88 2.747z" stroke="#918F90" stroke-width=".5" fill="none"/>
							</g>
							<g id="g14050" transform="translate(529.83 485.01)">
								<path id="path14052" d="m-465.47 74.817v2.2c-0.638 0.584-1.334 0.8-2.384 0.8-0.912 0-1.809-0.141-2.464-0.741v-2.241l-0.002-0.002c0-1.259-1.027-3.27-1.738-3.631l1.62-1.772c1.548 1.353 2.515 3.266 2.515 5.391l2.45-0.004z" fill="#fff"/>
							</g>
							<g id="g14054" transform="translate(529.83 485.01)">
									<path id="path14056" stroke-linejoin="round" d="m-465.47 74.817v2.2c-0.638 0.584-1.334 0.8-2.384 0.8-0.912 0-1.809-0.141-2.464-0.741v-2.241l-0.002-0.002c0-1.259-1.027-3.27-1.738-3.631l1.62-1.772c1.548 1.353 2.515 3.266 2.515 5.391l2.45-0.004z" stroke="#918F90" stroke-width=".5" fill="none"/>
							</g>
							<g id="g14058" transform="translate(524.98 485.03)">
									<path id="path14060" stroke-linejoin="round" d="m-465.47 74.817l4.85-0.015" stroke="#918F90" stroke-width=".5" fill="#fff"/>
							</g>
							<g id="g14062" transform="translate(524.94 484.36)">
									<path id="path14064" stroke-linejoin="round" d="m-465.47 74.818l4.784-0.641" stroke="#918F90" stroke-width=".5" fill="#fff"/>
							</g>
							<g id="g14066" transform="translate(524.79 483.72)">
									<path id="path14068" stroke-linejoin="round" d="m-465.47 74.817l4.635-1.254" stroke="#918F90" stroke-width=".5" fill="#fff"/>
							</g>
							<g id="g14070" transform="translate(524.54 483.11)">
									<path id="path14072" stroke-linejoin="round" d="m-465.47 74.817l4.668-1.92" stroke="#918F90" stroke-width=".5" fill="#fff"/>
							</g>
							<g id="g14074" transform="translate(524.19 482.54)">
									<path id="path14076" stroke-linejoin="round" d="m-465.47 74.817l4.391-2.607" stroke="#918F90" stroke-width=".5" fill="#fff"/>
							</g>
							<g id="g14078" transform="translate(523.76 482.02)">
									<path id="path14080" stroke-linejoin="round" d="m-465.47 74.818l4.201-3.281" stroke="#918F90" stroke-width=".5" fill="#fff"/>
							</g>
							<g id="g14082" transform="translate(523.77 480.81)">
									<path id="path14084" stroke-linejoin="round" d="m-465.47 74.817l3.163-3.341" stroke="#918F90" stroke-width=".5" fill="#fff"/>
							</g>
							<g id="g14086" transform="translate(523.85 478.99)">
									<path id="path14088" stroke-linejoin="round" d="m-465.47 74.817l1.966-2.379" stroke="#918F90" stroke-width=".5" fill="#fff"/>
							</g>
							<path id="path14090" d="m72.939 556.46h5.619v14.929h-5.619v-14.93z" stroke="#918F90" stroke-width=".5" fill="#fff"/>
							<path id="path14092" d="m30.681 556.53h5.62v14.927h-5.62v-14.93z" stroke="#918F90" stroke-width=".5" fill="#fff"/>
							<path id="path14094" d="m69.744 588.13h4.717v-0.992h-4.717v0.99z" stroke="#918F90" stroke-width=".5" fill="#fff"/>
							<path id="path14096" d="m69.744 587.14h4.717v-0.993h-4.717v0.99z" stroke="#918F90" stroke-width=".5" fill="#fff"/>
							<path id="path14098" d="m69.744 586.14h4.717v-0.993h-4.717v0.99z" stroke="#918F90" stroke-width=".5" fill="#fff"/>
							<path id="path14100" d="m66.206 588.13h3.538v-0.992h-3.538v0.99z" stroke="#918F90" stroke-width=".5" fill="#fff"/>
							<path id="path14102" d="m66.206 587.14h3.538v-0.993h-3.538v0.99z" stroke="#918F90" stroke-width=".5" fill="#fff"/>
							<path id="path14104" d="m66.206 586.14h3.538v-0.993h-3.538v0.99z" stroke="#918F90" stroke-width=".5" fill="#fff"/>
							<path id="path14106" d="m69.744 585.15h4.717v-0.993h-4.717v0.99z" stroke="#918F90" stroke-width=".5" fill="#fff"/>
							<path id="path14108" d="m66.206 585.15h3.538v-0.993h-3.538v0.99z" stroke="#918F90" stroke-width=".5" fill="#fff"/>
							<path id="path14110" d="m69.744 584.16h4.717v-0.992h-4.717v0.99z" stroke="#918F90" stroke-width=".5" fill="#fff"/>
							<path id="path14112" d="m66.206 584.16h3.538v-0.992h-3.538v0.99z" stroke="#918F90" stroke-width=".5" fill="#fff"/>
							<path id="path14114" d="m69.744 583.17h4.717v-0.993h-4.717v0.99z" stroke="#918F90" stroke-width=".5" fill="#fff"/>
							<path id="path14116" d="m66.206 583.17h3.538v-0.993h-3.538v0.99z" stroke="#918F90" stroke-width=".5" fill="#fff"/>
							<path id="path14118" d="m74.461 588.13h3.542v-0.992h-3.542v0.99z" stroke="#918F90" stroke-width=".5" fill="#fff"/>
							<path id="path14120" d="m74.461 587.14h3.542v-0.993h-3.542v0.99z" stroke="#918F90" stroke-width=".5" fill="#fff"/>
							<path id="path14122" d="m74.461 586.14h3.542v-0.993h-3.542v0.99z" stroke="#918F90" stroke-width=".5" fill="#fff"/>
							<path id="path14124" d="m74.461 585.15h3.542v-0.993h-3.542v0.99z" stroke="#918F90" stroke-width=".5" fill="#fff"/>
							<path id="path14126" d="m74.461 584.16h3.542v-0.992h-3.542v0.99z" stroke="#918F90" stroke-width=".5" fill="#fff"/>
							<path id="path14128" d="m74.461 583.17h3.542v-0.993h-3.542v0.99z" stroke="#918F90" stroke-width=".5" fill="#fff"/>
							<path id="path14130" d="m66.206 588.12h11.798v2.927h-11.798v-2.93z" stroke="#918F90" stroke-width=".5" fill="#fff"/>
							<path id="path14132" d="m34.864 588.13h4.712v-0.992h-4.712v0.99z" stroke="#918F90" stroke-width=".5" fill="#fff"/>
							<path id="path14134" d="m34.864 587.14h4.712v-0.993h-4.712v0.99z" stroke="#918F90" stroke-width=".5" fill="#fff"/>
							<path id="path14136" d="m34.864 586.14h4.712v-0.993h-4.712v0.99z" stroke="#918F90" stroke-width=".5" fill="#fff"/>
							<path id="path14138" d="m31.322 588.13h3.542v-0.992h-3.542v0.99z" stroke="#918F90" stroke-width=".5" fill="#fff"/>
							<path id="path14140" d="m31.322 587.14h3.542v-0.993h-3.542v0.99z" stroke="#918F90" stroke-width=".5" fill="#fff"/>
							<path id="path14142" d="m31.322 586.14h3.542v-0.993h-3.542v0.99z" stroke="#918F90" stroke-width=".5" fill="#fff"/>
							<path id="path14144" d="m34.864 585.15h4.712v-0.993h-4.712v0.99z" stroke="#918F90" stroke-width=".5" fill="#fff"/>
							<path id="path14146" d="m31.322 585.15h3.542v-0.993h-3.542v0.99z" stroke="#918F90" stroke-width=".5" fill="#fff"/>
							<path id="path14148" d="m34.864 584.16h4.712v-0.992h-4.712v0.99z" stroke="#918F90" stroke-width=".5" fill="#fff"/>
							<path id="path14150" d="m31.322 584.16h3.542v-0.992h-3.542v0.99z" stroke="#918F90" stroke-width=".5" fill="#fff"/>
							<path id="path14152" d="m34.864 583.17h4.712v-0.993h-4.712v0.99z" stroke="#918F90" stroke-width=".5" fill="#fff"/>
							<path id="path14154" d="m31.322 583.17h3.542v-0.993h-3.542v0.99z" stroke="#918F90" stroke-width=".5" fill="#fff"/>
							<path id="path14156" d="m39.576 588.13h3.542v-0.992h-3.542v0.99z" stroke="#918F90" stroke-width=".5" fill="#fff"/>
							<path id="path14158" d="m39.576 587.14h3.542v-0.993h-3.542v0.99z" stroke="#918F90" stroke-width=".5" fill="#fff"/>
							<path id="path14160" d="m39.576 586.14h3.542v-0.993h-3.542v0.99z" stroke="#918F90" stroke-width=".5" fill="#fff"/>
							<path id="path14162" d="m39.576 585.15h3.542v-0.993h-3.542v0.99z" stroke="#918F90" stroke-width=".5" fill="#fff"/>
							<path id="path14164" d="m39.576 584.16h3.542v-0.992h-3.542v0.99z" stroke="#918F90" stroke-width=".5" fill="#fff"/>
							<path id="path14166" d="m39.576 583.17h3.542v-0.993h-3.542v0.99z" stroke="#918F90" stroke-width=".5" fill="#fff"/>
							<path id="path14168" d="m31.322 588.12h11.796v2.927h-11.796v-2.93z" fill="#fff"/>
							<path id="path14170" d="m31.322 588.12h11.796v2.927h-11.796v-2.93zm57.798-15.03h-10.01v18.328h10.01v-18.33zm-58.92 0.37h-9.888v17.952h9.888v-17.95zm48.909 0v-16.95h1.251v-4.142h-7.695v3.264" stroke="#918F90" stroke-width=".5" fill="none"/>
							<g id="g14172" transform="translate(524.08 385.95)">
									<path id="path14174" stroke-linejoin="round" d="m-465.47 74.817c1.03 1.147 1.63 2.73 1.63 4.345 0 1.828-0.753 3.52-2.112 4.764l2.334 2.131c4.195-3.836 3.873-9.973 0.391-13.475l-2.24 2.235zm-0.48 9.109l2.335 2.131m-1.57-3.031l2.673 1.766m-2.08-2.762l2.947 1.352m-2.55-2.427l3.147 0.908m-2.93-2.026l3.263 0.439m-3.24-1.575l3.298-0.039m-3.47-1.084l3.246-0.52m-3.63-0.563l3.12-0.986m-3.67-0.033l2.905-1.422" stroke="#918F90" stroke-width=".5" fill="none"/>
							</g>
							<g id="g14176" transform="translate(525.71 390.3)">
								<path id="path14178" stroke-linejoin="round" d="m-465.47 74.817c0 1.777-0.702 3.387-1.85 4.573-0.855-1.298-1.345-2.734-1.345-4.253 0-1.661 0.58-3.227 1.596-4.617 0.99 1.157 1.59 2.655 1.59 4.297zm0.76-6.937c1.845 1.737 3.156 4.191 3.156 6.917 0 2.789-0.995 5.191-3.513 7.3" stroke="#918F90" fill="none"/>
							</g>
							<g id="g14180" transform="translate(517.12 282.22)">
									<path id="path14182" stroke-linejoin="round" d="m-465.47 74.818c-1.029-1.147-1.631-2.734-1.631-4.345 0-1.833 0.753-3.522 2.109-4.766l-2.332-2.131c-4.196 3.836-3.877 9.975-0.389 13.477l2.24-2.235zm0.48-9.111l-2.332-2.131m1.57 3.032l-2.673-1.766m2.08 2.763l-2.945-1.355m2.54 2.429l-3.147-0.908m2.92 2.026l-3.262-0.441m3.25 1.576l-3.301 0.041m3.47 1.082l-3.248 0.52m3.63 0.565l-3.118 0.983m3.67 0.034l-2.902 1.425" stroke="#918F90" stroke-width=".5" fill="none"/>
							</g>
							<g id="g14184" transform="translate(515.49 277.87)">
								<path id="path14186" stroke-linejoin="round" d="m-465.47 74.818c0-1.778 0.705-3.389 1.849-4.573 0.855 1.295 1.344 2.733 1.344 4.252 0 1.661-0.582 3.227-1.6 4.617-0.99-1.156-1.59-2.654-1.59-4.296zm-0.76 6.936c-1.845-1.739-3.159-4.192-3.159-6.917 0-2.789 0.993-5.191 3.514-7.3" stroke="#918F90" fill="none"/>
							</g>
							<g id="g14188" transform="translate(498.12 232.99)">
									<path id="path14190" stroke-linejoin="round" d="m-465.47 74.817c0.23-0.045 0.47-0.069 0.712-0.069 1.871 0 3.52 1.388 3.52 3.095 0 0.536-0.167 1.041-0.434 1.48 1.575 0.267 2.769 1.525 2.769 3.037 0 0.78-0.312 1.486-0.832 2.03l0.402 0.572c0.284-0.069 0.581-0.108 0.89-0.108 1.872 0 3.386 1.388 3.386 3.094 0 0.342-0.073 0.662-0.186 0.97 1.091 0.517 1.838 1.541 1.838 2.736 0 0.972-0.491 1.93-1.258 2.5l0.894-0.033v17.203h-3.437v-10.923h-15.941v12.931h4.534v1.759h-9.176m13.04-44.917c1.871 0 3.52-1.386 3.52-3.094 0-0.572-0.184-1.1-0.478-1.559 1.826-0.047 3.294-1.408 3.294-3.088 0-1.109-0.642-2.07-1.601-2.619 0.36-0.491 0.571-1.078 0.571-1.713 0-1.711-1.515-3.097-3.388-3.097-0.362 0-0.704 0.07-1.03 0.166-0.439 1.248-1.263 2.159-2.775 2.159-1.188 0-2.332-0.606-2.935-1.456-0.081-0.005 0.042 0.055 0 0-0.605-0.822-3.684-1.405-4.853-1.405-1.871 0-3.385 1.386-3.385 3.094v5.228c0 1.711 1.514 3.097 3.385 3.097v0.903c-1.871 0-3.385 1.386-3.385 3.095v5.216c0 1.708 1.514 3.094 3.385 3.094v0.842c-1.871 0-3.385 1.383-3.385 3.095v5.273h6.32l1.375-1.258-0.755-2.886s2.062-0.628 2.68-0.378c0.618 0.253 4.054 1.13 4.743 3.83 0.688 2.7 0.962 2.827-0.343 4.081-0.959 0.919-2.021 0.753-3.987 0.753v1.444c0 0.378 0 1.134 1.785 1.134 1.79 0 11.338 0.03 11.338 0.03" stroke="#918F90" stroke-width=".5" fill="none"/>
							</g>
							<g id="g14192" transform="translate(502.94 223.65)">
								<path id="path14194" d="m-465.47 74.817c0 0.473-0.42 0.856-0.938 0.856-0.522 0-0.94-0.383-0.94-0.856 0-0.477 0.418-0.861 0.94-0.861 0.52 0 0.94 0.385 0.94 0.861" fill="#fff"/>
							</g>
							<g id="g14196" transform="translate(502.94 223.65)">
								<path id="path14198" d="m-465.47 74.817c0 0.473-0.42 0.856-0.938 0.856-0.522 0-0.94-0.383-0.94-0.856 0-0.477 0.418-0.861 0.94-0.861 0.52 0 0.94 0.385 0.94 0.861z" stroke="#918F90" stroke-width=".5" fill="none"/>
							</g>
							<g id="g14200" transform="translate(504.49 217.82)">
								<path id="path14202" d="m-465.47 74.817c0 0.475-0.421 0.859-0.938 0.859-0.523 0-0.941-0.384-0.941-0.859s0.418-0.859 0.941-0.859c0.52-0.001 0.94 0.385 0.94 0.859" fill="#fff"/>
							</g>
							<g id="g14204" transform="translate(504.49 217.82)">
								<path id="path14206" d="m-465.47 74.817c0 0.475-0.421 0.859-0.938 0.859-0.523 0-0.941-0.384-0.941-0.859s0.418-0.859 0.941-0.859c0.52-0.001 0.94 0.385 0.94 0.859z" stroke="#918F90" stroke-width=".5" fill="none"/>
							</g>
							<g id="g14208" transform="translate(502.91 237.73)">
								<path id="path14210" d="m-465.47 74.817c0 0.473-0.419 0.858-0.938 0.858s-0.94-0.384-0.94-0.858c0-0.473 0.421-0.856 0.94-0.856 0.52-0.001 0.94 0.382 0.94 0.856" fill="#fff"/>
							</g>
							<g id="g14212" transform="translate(502.91 237.73)">
								<path id="path14214" d="m-465.47 74.817c0 0.473-0.419 0.858-0.938 0.858s-0.94-0.384-0.94-0.858c0-0.473 0.421-0.856 0.94-0.856 0.52-0.001 0.94 0.382 0.94 0.856z" stroke="#918F90" stroke-width=".5" fill="none"/>
							</g>
							<g id="g14216" transform="translate(498.74 233.27)">
								<path id="path14218" d="m-465.47 74.817c0 0.266-0.236 0.48-0.529 0.48-0.288 0-0.527-0.214-0.527-0.48 0-0.269 0.239-0.486 0.527-0.486 0.29 0.001 0.53 0.218 0.53 0.486" fill="#fff"/>
							</g>
							<g id="g14220" transform="translate(498.74 233.27)">
								<path id="path14222" d="m-465.47 74.817c0 0.266-0.236 0.48-0.529 0.48-0.288 0-0.527-0.214-0.527-0.48 0-0.269 0.239-0.486 0.527-0.486 0.29 0.001 0.53 0.218 0.53 0.486z" stroke="#918F90" stroke-width=".5" fill="none"/>
							</g>
							<g id="g14224" transform="translate(498.88 228.11)">
								<path id="path14226" d="m-465.47 74.816c0 0.264-0.236 0.484-0.527 0.484-0.293 0-0.528-0.22-0.528-0.484 0-0.266 0.235-0.481 0.528-0.481 0.29 0 0.53 0.216 0.53 0.481" fill="#fff"/>
							</g>
							<g id="g14228" transform="translate(498.88 228.11)">
								<path id="path14230" d="m-465.47 74.816c0 0.264-0.236 0.484-0.527 0.484-0.293 0-0.528-0.22-0.528-0.484 0-0.266 0.235-0.481 0.528-0.481 0.29 0 0.53 0.216 0.53 0.481z" stroke="#918F90" stroke-width=".5" fill="none"/>
							</g>
							<g id="g14232" transform="translate(505.27 242.71)">
								<path id="path14234" d="m-465.47 74.816c0 0.475-0.421 0.859-0.938 0.859-0.521 0-0.943-0.384-0.943-0.859 0-0.472 0.422-0.858 0.944-0.858 0.52-0.001 0.94 0.385 0.94 0.858" fill="#fff"/>
							</g>
							<g id="g14236" transform="translate(505.27 242.71)">
								<path id="path14238" d="m-465.47 74.816c0 0.475-0.421 0.859-0.938 0.859-0.521 0-0.943-0.384-0.943-0.859 0-0.472 0.422-0.858 0.944-0.858 0.52-0.001 0.94 0.385 0.94 0.858z" stroke="#918F90" stroke-width=".5" fill="none"/>
							</g>
							<g id="g14240" transform="translate(509.11 246.54)">
								<path id="path14242" d="m-465.47 74.817c0 0.473-0.42 0.856-0.934 0.856-0.523 0-0.943-0.383-0.943-0.856 0-0.477 0.42-0.859 0.943-0.859 0.51 0 0.93 0.383 0.93 0.859" fill="#fff"/>
							</g>
							<g id="g14244" transform="translate(509.11 246.54)">
								<path id="path14246" d="m-465.47 74.817c0 0.473-0.42 0.856-0.934 0.856-0.523 0-0.943-0.383-0.943-0.856 0-0.477 0.42-0.859 0.943-0.859 0.51 0 0.93 0.383 0.93 0.859zm-11.8 438.45l1.241-1.133v-4.137h4.288c2.006-6.939 8.904-12.063 17.13-12.063 8.223 0 15.121 5.124 17.128 12.063h4.334v3.641l1.441 1.319" stroke="#918F90" stroke-width=".5" fill="none"/>
							</g>
								<path id="path14248" stroke-linejoin="round" d="m33.084 754.54h2.461v-0.992h-2.461v0.99z" stroke="#918F90" stroke-linecap="round" stroke-width=".5" fill="#fff"/>
								<path id="path14250" stroke-linejoin="round" d="m33.084 753.54h2.461v-0.992h-2.461v0.99z" stroke="#918F90" stroke-linecap="round" stroke-width=".5" fill="#fff"/>
								<path id="path14252" stroke-linejoin="round" d="m33.084 752.55h2.461v-0.992h-2.461v0.99z" stroke="#918F90" stroke-linecap="round" stroke-width=".5" fill="#fff"/>
								<path id="path14254" stroke-linejoin="round" d="m33.084 751.56h2.461v-0.992h-2.461v0.99z" stroke="#918F90" stroke-linecap="round" stroke-width=".5" fill="#fff"/>
								<path id="path14256" stroke-linejoin="round" d="m33.084 750.57h2.461v-0.994h-2.461v0.99z" stroke="#918F90" stroke-linecap="round" stroke-width=".5" fill="#fff"/>
								<path id="path14258" stroke-linejoin="round" d="m73.501 754.54h2.463v-0.992h-2.463v0.99z" stroke="#918F90" stroke-linecap="round" stroke-width=".5" fill="#fff"/>
								<path id="path14260" stroke-linejoin="round" d="m73.501 753.54h2.463v-0.992h-2.463v0.99z" stroke="#918F90" stroke-linecap="round" stroke-width=".5" fill="#fff"/>
								<path id="path14262" stroke-linejoin="round" d="m73.501 752.55h2.463v-0.992h-2.463v0.99z" stroke="#918F90" stroke-linecap="round" stroke-width=".5" fill="#fff"/>
								<path id="path14264" stroke-linejoin="round" d="m73.501 751.56h2.463v-0.992h-2.463v0.99z" stroke="#918F90" stroke-linecap="round" stroke-width=".5" fill="#fff"/>
								<path id="path14266" stroke-linejoin="round" d="m73.501 750.57h2.463v-0.994h-2.463v0.99z" stroke="#918F90" stroke-linecap="round" stroke-width=".5" fill="#fff"/>
							<g id="g14268" transform="translate(485.59 78.897)">
								<path id="path14270" d="m-465.47 74.818c8.42-10.983 14.262-12.825 34.418-12.825 19.058 0 26.605 2.078 34.816 12.223" stroke="#918F90" fill="none"/>
							</g>
							<g id="g14272" transform="translate(548.87 584.7)">
								<path id="path14274" d="m-465.47 74.817v3.097h-56.923v-2.636h-6.156m63.08-0.501h5.499l-5.499 0.04v-0.04zm-63.1-35.957h5.798l7.028-5.686h11.722v-26.42h-24.54m68.81 0.443h-24.971v25.791h13.12v3.909h5.558v1.952h6.311m-52.84-66.986s0.423-4.475 1.459-5.42c4.784-4.37 3.486-14.763 3.486-17.499m34.02-248.07c-2.153 0-2.403 3.591 1.1 3.591h4.947v4.403c-0.32-0.528-0.657-1.048-1.02-1.556-0.758-1.058-1.679-1.594-3.375-0.581-1.014 0.611-1.298 1.856-0.63 2.783 0.35 0.486 0.672 0.986 0.986 1.494-0.288 0.106-0.493 0.364-0.493 0.666 0 0.4 0.352 0.723 0.791 0.723 0.16 0 0.302-0.055 0.427-0.13 0.154 0.289 0.305 0.58 0.446 0.875-0.288 0.108-0.495 0.364-0.495 0.67 0 0.397 0.354 0.719 0.79 0.719 0.095 0 0.187-0.019 0.271-0.047 0.104 0.277 0.207 0.556 0.294 0.837-0.341 0.078-0.602 0.348-0.602 0.688 0 0.398 0.354 0.723 0.791 0.723 0.063 0 0.12-0.02 0.18-0.034 0.07 0.347 0.125 0.697 0.164 1.05-0.4 0.033-0.723 0.33-0.723 0.709 0 0.4 0.357 0.722 0.789 0.722 0.016 0 0.025-0.006 0.039-0.006v0.064c0 0.294-0.021 0.589-0.039 0.883-0.432 0-0.789 0.325-0.789 0.722 0 0.352 0.278 0.628 0.637 0.695-0.055 0.348-0.123 0.697-0.207 1.042-0.014-0.002-0.034-0.011-0.052-0.011-0.438 0-0.791 0.323-0.791 0.723 0 0.292 0.195 0.542 0.467 0.653-0.092 0.288-0.188 0.567-0.295 0.847-0.048-0.008-0.087-0.023-0.135-0.023-0.436 0-0.79 0.32-0.79 0.719 0 0.255 0.148 0.466 0.365 0.597-0.14 0.292-0.28 0.589-0.434 0.875-0.098-0.036-0.2-0.059-0.309-0.059-0.439 0-0.791 0.325-0.791 0.725 0 0.244 0.141 0.45 0.346 0.581-0.239 0.364-0.489 0.722-0.755 1.075-0.688 0.916-0.433 2.167 0.57 2.795 1.934 1.212 2.939 0.077 3.387-0.52 0.355-0.472 0.681-0.952 0.985-1.441v6.673h-4.122c-2.748 2.138-11.652 4.616-11.652 4.616l-0.027 15.695h10.588v-5.788h13.023" stroke="#918F90" stroke-width=".5" fill="none"/>
							</g>
						</g>
			</g>
			<text font-size="6.6427" font-family="&apos;ArialNarrow-Bold&apos;" transform="matrix(.8 0 0 -.8 43.442 639.72)" fill="#231F20">P</text>
			<text font-size="6.6427" font-family="&apos;ArialNarrow-Bold&apos;" transform="matrix(.8 0 0 -.8 46.396 639.72)" fill="#231F20">Y</text>
			<text font-size="6.6427" font-family="&apos;ArialNarrow-Bold&apos;" transform="matrix(.8 0 0 -.8 49.351 639.72)" fill="#231F20">R</text>
			<text font-size="6.6427" font-family="&apos;ArialNarrow-Bold&apos;" transform="matrix(.8 0 0 -.8 52.306 639.72)" fill="#231F20">A</text>
			<text font-size="6.6427" font-family="&apos;ArialNarrow-Bold&apos;" transform="matrix(.8 0 0 -.8 55.553 639.72)" fill="#231F20">M</text>
			<text font-size="6.6427" font-family="&apos;ArialNarrow-Bold&apos;" transform="matrix(.8 0 0 -.8 59.979 639.72)" fill="#231F20">I</text>
			<text font-size="6.6427" font-family="&apos;ArialNarrow-Bold&apos;" transform="matrix(.8 0 0 -.8 61.456 639.72)" fill="#231F20">D</text>
			<text font-size="6.6427" font-family="&apos;ArialNarrow-Bold&apos;" transform="matrix(.8 0 0 -.8 44.919 634.3)" fill="#231F20">L</text>
			<text font-size="6.6427" font-family="&apos;ArialNarrow-Bold&apos;" transform="matrix(.8 0 0 -.8 47.278 634.3)" fill="#231F20">O</text>
			<text font-size="6.6427" font-family="&apos;ArialNarrow-Bold&apos;" transform="matrix(.8 0 0 -.8 50.525 634.3)" fill="#231F20">U</text>
			<text font-size="6.6427" font-family="&apos;ArialNarrow-Bold&apos;" transform="matrix(.8 0 0 -.8 53.772 634.3)" fill="#231F20">N</text>
			<text font-size="6.6427" font-family="&apos;ArialNarrow-Bold&apos;" transform="matrix(.8 0 0 -.8 57.317 634.3)" fill="#231F20">G</text>
			<text font-size="6.6427" font-family="&apos;ArialNarrow-Bold&apos;" transform="matrix(.8 0 0 -.8 60.564 634.3)" fill="#231F20">E</text>
			<text font-size="6.6427" font-family="&apos;ArialNarrow-Bold&apos;" transform="matrix(.8 0 0 -.8 32.308 367.89)" fill="#231F20">C</text>
			<text font-size="6.6427" font-family="&apos;ArialNarrow-Bold&apos;" transform="matrix(.8 0 0 -.8 35.263 367.89)" fill="#231F20">A</text>
			<text font-size="6.6427" font-family="&apos;ArialNarrow-Bold&apos;" transform="matrix(.8 0 0 -.8 38.51 367.89)" fill="#231F20">F</text>
			<text font-size="6.6427" font-family="&apos;ArialNarrow-Bold&apos;" transform="matrix(.8 0 0 -.8 40.87 367.89)" fill="#231F20"></text>
			<text font-size="6.6427" font-family="&apos;ArialNarrow-Bold&apos;" transform="matrix(.8 0 0 -.8 23.449 362.46)" fill="#231F20">P</text>
			<text font-size="6.6427" font-family="&apos;ArialNarrow-Bold&apos;" transform="matrix(.8 0 0 -.8 26.404 362.46)" fill="#231F20">R</text>
			<text font-size="6.6427" font-family="&apos;ArialNarrow-Bold&apos;" transform="matrix(.8 0 0 -.8 29.359 362.46)" fill="#231F20">O</text>
			<text font-size="6.6427" font-family="&apos;ArialNarrow-Bold&apos;" transform="matrix(.8 0 0 -.8 32.606 362.46)" fill="#231F20">M</text>
			<text font-size="6.6427" font-family="&apos;ArialNarrow-Bold&apos;" transform="matrix(.8 0 0 -.8 37.033 362.46)" fill="#231F20">E</text>
			<text font-size="6.6427" font-family="&apos;ArialNarrow-Bold&apos;" transform="matrix(.8 0 0 -.8 39.69 362.46)" fill="#231F20">N</text>
			<text font-size="6.6427" font-family="&apos;ArialNarrow-Bold&apos;" transform="matrix(.8 0 0 -.8 43.235 362.46)" fill="#231F20">A</text>
			<text font-size="6.6427" font-family="&apos;ArialNarrow-Bold&apos;" transform="matrix(.8 0 0 -.8 46.482 362.46)" fill="#231F20">D</text>
			<text font-size="6.6427" font-family="&apos;ArialNarrow-Bold&apos;" transform="matrix(.8 0 0 -.8 49.728 362.46)" fill="#231F20">E</text>
			<text font-size="6.7782" font-family="&apos;ArialNarrow-Bold&apos;" transform="matrix(.8 0 0 -.8 42.671 194.2)" fill="#231F20">K</text>
			<text font-size="6.7782" font-family="&apos;ArialNarrow-Bold&apos;" transform="matrix(.8 0 0 -.8 45.686 194.2)" fill="#231F20">I</text>
			<text font-size="6.7782" font-family="&apos;ArialNarrow-Bold&apos;" transform="matrix(.8 0 0 -.8 47.193 194.2)" fill="#231F20">N</text>
			<text font-size="6.7782" font-family="&apos;ArialNarrow-Bold&apos;" transform="matrix(.8 0 0 -.8 50.81 194.2)" fill="#231F20">G</text>
			<text font-size="6.7782" font-family="&apos;ArialNarrow-Bold&apos;" transform="matrix(.8 0 0 -.8 54.124 194.2)" fill="#231F20"> </text>
			<text font-size="6.7782" font-family="&apos;ArialNarrow-Bold&apos;" transform="matrix(.8 0 0 -.8 55.328 194.2)" fill="#231F20">L</text>
			<text font-size="6.7782" font-family="&apos;ArialNarrow-Bold&apos;" transform="matrix(.8 0 0 -.8 57.735 194.2)" fill="#231F20">E</text>
			<text font-size="6.7782" font-family="&apos;ArialNarrow-Bold&apos;" transform="matrix(.8 0 0 -.8 60.446 194.2)" fill="#231F20">A</text>
			<text font-size="6.7782" font-family="&apos;ArialNarrow-Bold&apos;" transform="matrix(.8 0 0 -.8 63.76 194.2)" fill="#231F20">R</text>
			<text font-size="6.7782" font-family="&apos;ArialNarrow-Bold&apos;" transform="matrix(.8 0 0 -.8 38.604 188.78)" fill="#231F20">D</text>
			<text font-size="6.7782" font-family="&apos;ArialNarrow-Bold&apos;" transform="matrix(.8 0 0 -.8 41.917 188.78)" fill="#231F20">I</text>
			<text font-size="6.7782" font-family="&apos;ArialNarrow-Bold&apos;" transform="matrix(.8 0 0 -.8 43.424 188.78)" fill="#231F20">N</text>
			<text font-size="6.7782" font-family="&apos;ArialNarrow-Bold&apos;" transform="matrix(.8 0 0 -.8 47.042 188.78)" fill="#231F20">I</text>
			<text font-size="6.7782" font-family="&apos;ArialNarrow-Bold&apos;" transform="matrix(.8 0 0 -.8 48.549 188.78)" fill="#231F20">N</text>
			<text font-size="6.7782" font-family="&apos;ArialNarrow-Bold&apos;" transform="matrix(.8 0 0 -.8 52.166 188.78)" fill="#231F20">G</text>
			<text font-size="6.7782" font-family="&apos;ArialNarrow-Bold&apos;" transform="matrix(.8 0 0 -.8 55.479 188.78)" fill="#231F20"> </text>
			<text font-size="6.7782" font-family="&apos;ArialNarrow-Bold&apos;" transform="matrix(.8 0 0 -.8 56.683 188.78)" fill="#231F20">R</text>
			<text font-size="6.7782" font-family="&apos;ArialNarrow-Bold&apos;" transform="matrix(.8 0 0 -.8 59.698 188.78)" fill="#231F20">O</text>
			<text font-size="6.7782" font-family="&apos;ArialNarrow-Bold&apos;" transform="matrix(.8 0 0 -.8 63.011 188.78)" fill="#231F20">O</text>
			<text font-size="6.7782" font-family="&apos;ArialNarrow-Bold&apos;" transform="matrix(.8 0 0 -.8 66.324 188.78)" fill="#231F20">M</text>
			<text font-size="6.6427" font-family="&apos;ArialNarrow-Bold&apos;" transform="matrix(.8 0 0 -.8 26.973 339.77)" fill="#231F20">N</text>
			<text font-size="6.6427" font-family="&apos;ArialNarrow-Bold&apos;" transform="matrix(.8 0 0 -.8 30.518 339.77)" fill="#231F20">E</text>
			<text font-size="6.6427" font-family="&apos;ArialNarrow-Bold&apos;" transform="matrix(.8 0 0 -.8 33.175 339.77)" fill="#231F20">X</text>
			<text font-size="6.6427" font-family="&apos;ArialNarrow-Bold&apos;" transform="matrix(.8 0 0 -.8 36.13 339.77)" fill="#231F20">T</text>
			<text font-size="6.6427" font-family="&apos;ArialNarrow-Bold&apos;" transform="matrix(.8 0 0 -.8 24.757 334.34)" fill="#231F20">C</text>
			<text font-size="6.6427" font-family="&apos;ArialNarrow-Bold&apos;" transform="matrix(.8 0 0 -.8 27.712 334.34)" fill="#231F20">R</text>
			<text font-size="6.6427" font-family="&apos;ArialNarrow-Bold&apos;" transform="matrix(.8 0 0 -.8 30.667 334.34)" fill="#231F20">U</text>
			<text font-size="6.6427" font-family="&apos;ArialNarrow-Bold&apos;" transform="matrix(.8 0 0 -.8 33.914 334.34)" fill="#231F20">I</text>
			<text font-size="6.6427" font-family="&apos;ArialNarrow-Bold&apos;" transform="matrix(.8 0 0 -.8 35.391 334.34)" fill="#231F20">S</text>
			<text font-size="6.6427" font-family="&apos;ArialNarrow-Bold&apos;" transform="matrix(.8 0 0 -.8 38.346 334.34)" fill="#231F20">E</text>
			<text font-size="6.6427" font-family="&apos;ArialNarrow-Bold&apos;" transform="matrix(.8 0 0 -.8 23.009 486.14)" fill="#231F20">D</text>
			<text font-size="6.6427" font-family="&apos;ArialNarrow-Bold&apos;" transform="matrix(.8 0 0 -.8 26.256 486.14)" fill="#231F20">O</text>
			<text font-size="6.6427" font-family="&apos;ArialNarrow-Bold&apos;" transform="matrix(.8 0 0 -.8 29.502 486.14)" fill="#231F20">G</text>
			<text font-size="6.6427" font-family="&apos;ArialNarrow-Bold&apos;" transform="matrix(.8 0 0 -.8 32.749 486.14)" fill="#231F20"> </text>
			<text font-size="6.6427" font-family="&apos;ArialNarrow-Bold&apos;" transform="matrix(.8 0 0 -.8 33.929 486.14)" fill="#231F20">&amp;</text>
			<text font-size="6.6427" font-family="&apos;ArialNarrow-Bold&apos;" transform="matrix(.8 0 0 -.8 37.474 486.14)" fill="#231F20"> </text>
			<text font-size="6.6427" font-family="&apos;ArialNarrow-Bold&apos;" transform="matrix(.8 0 0 -.8 38.654 486.14)" fill="#231F20">B</text>
			<text font-size="6.6427" font-family="&apos;ArialNarrow-Bold&apos;" transform="matrix(.8 0 0 -.8 41.901 486.14)" fill="#231F20">A</text>
			<text font-size="6.6427" font-family="&apos;ArialNarrow-Bold&apos;" transform="matrix(.8 0 0 -.8 45.148 486.14)" fill="#231F20">D</text>
			<text font-size="6.6427" font-family="&apos;ArialNarrow-Bold&apos;" transform="matrix(.8 0 0 -.8 48.395 486.14)" fill="#231F20">G</text>
			<text font-size="6.6427" font-family="&apos;ArialNarrow-Bold&apos;" transform="matrix(.8 0 0 -.8 51.642 486.14)" fill="#231F20">E</text>
			<text font-size="6.6427" font-family="&apos;ArialNarrow-Bold&apos;" transform="matrix(.8 0 0 -.8 54.293 486.14)" fill="#231F20">R</text>
			<text font-size="6.6427" font-family="&apos;ArialNarrow-Bold&apos;" transform="matrix(.8 0 0 -.8 35.407 480.72)" fill="#231F20">P</text>
			<text font-size="6.6427" font-family="&apos;ArialNarrow-Bold&apos;" transform="matrix(.8 0 0 -.8 38.362 480.72)" fill="#231F20">U</text>
			<text font-size="6.6427" font-family="&apos;ArialNarrow-Bold&apos;" transform="matrix(.8 0 0 -.8 41.609 480.72)" fill="#231F20">B</text>
			<text font-size="6.7782" font-family="&apos;ArialNarrow-Bold&apos;" transform="matrix(.8 0 0 -.8 58.604 532.14)" fill="#231F20">S</text>
			<text font-size="6.7782" font-family="&apos;ArialNarrow-Bold&apos;" transform="matrix(.8 0 0 -.8 61.619 532.14)" fill="#231F20">O</text>
			<text font-size="6.7782" font-family="&apos;ArialNarrow-Bold&apos;" transform="matrix(.8 0 0 -.8 64.932 532.14)" fill="#231F20">R</text>
			<text font-size="6.7782" font-family="&apos;ArialNarrow-Bold&apos;" transform="matrix(.8 0 0 -.8 67.947 532.14)" fill="#231F20">R</text>
			<text font-size="6.7782" font-family="&apos;ArialNarrow-Bold&apos;" transform="matrix(.8 0 0 -.8 70.962 532.14)" fill="#231F20">E</text>
			<text font-size="6.7782" font-family="&apos;ArialNarrow-Bold&apos;" transform="matrix(.8 0 0 -.8 73.674 532.14)" fill="#231F20">N</text>
			<text font-size="6.7782" font-family="&apos;ArialNarrow-Bold&apos;" transform="matrix(.8 0 0 -.8 77.29 532.14)" fill="#231F20">T</text>
			<text font-size="6.7782" font-family="&apos;ArialNarrow-Bold&apos;" transform="matrix(.8 0 0 -.8 80.002 532.14)" fill="#231F20">O</text>
			<text font-size="6.7782" font-family="&apos;ArialNarrow-Bold&apos;" transform="matrix(.8 0 0 -.8 83.315 532.14)" fill="#231F20">&apos;</text>
			<text font-size="6.7782" font-family="&apos;ArialNarrow-Bold&apos;" transform="matrix(.8 0 0 -.8 84.67 532.14)" fill="#231F20">S</text>
			<text font-size="7.3336" font-family="&apos;ArialNarrow-Bold&apos;" transform="matrix(0 .8 .8 0 55.682 389.44)" fill="#231F20">R</text>
			<text font-size="7.3336" font-family="&apos;ArialNarrow-Bold&apos;" transform="matrix(0 .8 .8 0 55.682 392.7)" fill="#231F20">O</text>
			<text font-size="7.3336" font-family="&apos;ArialNarrow-Bold&apos;" transform="matrix(0 .8 .8 0 55.682 396.29)" fill="#231F20">Y</text>
			<text font-size="7.3336" font-family="&apos;ArialNarrow-Bold&apos;" transform="matrix(0 .8 .8 0 55.682 399.55)" fill="#231F20">A</text>
			<text font-size="7.3336" font-family="&apos;ArialNarrow-Bold&apos;" transform="matrix(0 .8 .8 0 55.682 403.14)" fill="#231F20">L</text>
			<text font-size="7.3336" font-family="&apos;ArialNarrow-Bold&apos;" transform="matrix(0 .8 .8 0 55.682 405.74)" fill="#231F20"> </text>
			<text font-size="7.3336" font-family="&apos;ArialNarrow-Bold&apos;" transform="matrix(0 .8 .8 0 55.682 407.05)" fill="#231F20">P</text>
			<text font-size="7.3336" font-family="&apos;ArialNarrow-Bold&apos;" transform="matrix(0 .8 .8 0 55.682 410.31)" fill="#231F20">R</text>
			<text font-size="7.3336" font-family="&apos;ArialNarrow-Bold&apos;" transform="matrix(0 .8 .8 0 55.682 413.57)" fill="#231F20">O</text>
			<text font-size="7.3336" font-family="&apos;ArialNarrow-Bold&apos;" transform="matrix(0 .8 .8 0 55.682 417.15)" fill="#231F20">M</text>
			<text font-size="7.3336" font-family="&apos;ArialNarrow-Bold&apos;" transform="matrix(0 .8 .8 0 55.682 422.04)" fill="#231F20">E</text>
			<text font-size="7.3336" font-family="&apos;ArialNarrow-Bold&apos;" transform="matrix(0 .8 .8 0 55.682 424.97)" fill="#231F20">N</text>
			<text font-size="7.3336" font-family="&apos;ArialNarrow-Bold&apos;" transform="matrix(0 .8 .8 0 55.682 428.89)" fill="#231F20">A</text>
			<text font-size="7.3336" font-family="&apos;ArialNarrow-Bold&apos;" transform="matrix(0 .8 .8 0 55.682 432.47)" fill="#231F20">D</text>
			<text font-size="7.3336" font-family="&apos;ArialNarrow-Bold&apos;" transform="matrix(0 .8 .8 0 55.682 436.06)" fill="#231F20">E</text>
			<text font-size="6.6427" font-family="&apos;ArialNarrow-Bold&apos;" transform="matrix(.8 0 0 -.8 55.459 443.35)" fill="#231F20">V</text>
			<text font-size="6.6427" font-family="&apos;ArialNarrow-Bold&apos;" transform="matrix(.8 0 0 -.8 58.414 443.35)" fill="#231F20">I</text>
			<text font-size="6.6427" font-family="&apos;ArialNarrow-Bold&apos;" transform="matrix(.8 0 0 -.8 59.891 443.35)" fill="#231F20">N</text>
			<text font-size="6.6427" font-family="&apos;ArialNarrow-Bold&apos;" transform="matrix(.8 0 0 -.8 63.435 443.35)" fill="#231F20">T</text>
			<text font-size="6.6427" font-family="&apos;ArialNarrow-Bold&apos;" transform="matrix(.8 0 0 -.8 66.092 443.35)" fill="#231F20">A</text>
			<text font-size="6.6427" font-family="&apos;ArialNarrow-Bold&apos;" transform="matrix(.8 0 0 -.8 69.339 443.35)" fill="#231F20">G</text>
			<text font-size="6.6427" font-family="&apos;ArialNarrow-Bold&apos;" transform="matrix(.8 0 0 -.8 72.586 443.35)" fill="#231F20">E</text>
			<text font-size="6.6427" font-family="&apos;ArialNarrow-Bold&apos;" transform="matrix(.8 0 0 -.8 75.243 443.35)" fill="#231F20">S</text>
			<text font-size="6.6427" font-family="&apos;ArialNarrow-Bold&apos;" transform="matrix(.8 0 0 -.8 64.291 347.96)" fill="#231F20">S</text>
			<text font-size="6.6427" font-family="&apos;ArialNarrow-Bold&apos;" transform="matrix(.8 0 0 -.8 67.246 347.96)" fill="#231F20">E</text>
			<text font-size="6.6427" font-family="&apos;ArialNarrow-Bold&apos;" transform="matrix(.8 0 0 -.8 69.903 347.96)" fill="#231F20">A</text>
			<text font-size="6.6427" font-family="&apos;ArialNarrow-Bold&apos;" transform="matrix(.8 0 0 -.8 73.149 347.96)" fill="#231F20">S</text>
			<text font-size="6.6427" font-family="&apos;ArialNarrow-Bold&apos;" transform="matrix(.8 0 0 -.8 76.104 347.96)" fill="#231F20">O</text>
			<text font-size="6.6427" font-family="&apos;ArialNarrow-Bold&apos;" transform="matrix(.8 0 0 -.8 79.352 347.96)" fill="#231F20">N</text>
			<text font-size="6.6427" font-family="&apos;ArialNarrow-Bold&apos;" transform="matrix(.8 0 0 -.8 82.896 347.96)" fill="#231F20">S</text>
			<text font-size="6.6427" font-family="&apos;ArialNarrow-Bold&apos;" transform="matrix(.8 0 0 -.8 56.166 384.83)" fill="#231F20">I</text>
			<text font-size="6.6427" font-family="&apos;ArialNarrow-Bold&apos;" transform="matrix(.8 0 0 -.8 57.643 384.83)" fill="#231F20">C</text>
			<text font-size="6.6427" font-family="&apos;ArialNarrow-Bold&apos;" transform="matrix(.8 0 0 -.8 60.598 384.83)" fill="#231F20">E</text>
			<text font-size="6.6427" font-family="&apos;ArialNarrow-Bold&apos;" transform="matrix(.8 0 0 -.8 63.255 384.83)" fill="#231F20"> </text>
			<text font-size="6.6427" font-family="&apos;ArialNarrow-Bold&apos;" transform="matrix(.8 0 0 -.8 64.435 384.83)" fill="#231F20">C</text>
			<text font-size="6.6427" font-family="&apos;ArialNarrow-Bold&apos;" transform="matrix(.8 0 0 -.8 67.389 384.83)" fill="#231F20">R</text>
			<text font-size="6.6427" font-family="&apos;ArialNarrow-Bold&apos;" transform="matrix(.8 0 0 -.8 70.344 384.83)" fill="#231F20">E</text>
			<text font-size="6.6427" font-family="&apos;ArialNarrow-Bold&apos;" transform="matrix(.8 0 0 -.8 73.001 384.83)" fill="#231F20">A</text>
			<text font-size="6.6427" font-family="&apos;ArialNarrow-Bold&apos;" transform="matrix(.8 0 0 -.8 76.253 384.83)" fill="#231F20">M</text>
			<text font-size="6.6427" font-family="&apos;ArialNarrow-Bold&apos;" transform="matrix(.8 0 0 -.8 59.561 379.41)" fill="#231F20">P</text>
			<text font-size="6.6427" font-family="&apos;ArialNarrow-Bold&apos;" transform="matrix(.8 0 0 -.8 62.516 379.41)" fill="#231F20">A</text>
			<text font-size="6.6427" font-family="&apos;ArialNarrow-Bold&apos;" transform="matrix(.8 0 0 -.8 65.763 379.41)" fill="#231F20">R</text>
			<text font-size="6.6427" font-family="&apos;ArialNarrow-Bold&apos;" transform="matrix(.8 0 0 -.8 68.717 379.41)" fill="#231F20">L</text>
			<text font-size="6.6427" font-family="&apos;ArialNarrow-Bold&apos;" transform="matrix(.8 0 0 -.8 71.078 379.41)" fill="#231F20">O</text>
			<text font-size="6.6427" font-family="&apos;ArialNarrow-Bold&apos;" transform="matrix(.8 0 0 -.8 74.324 379.41)" fill="#231F20">R</text>
			<text font-size="6.6427" font-family="&apos;ArialNarrow-Bold&apos;" transform="matrix(0 .8 .8 0 32.614 270.78)" fill="#231F20">E</text>
			<text font-size="6.6427" font-family="&apos;ArialNarrow-Bold&apos;" transform="matrix(0 .8 .8 0 32.614 273.44)" fill="#231F20">L</text>
			<text font-size="6.6427" font-family="&apos;ArialNarrow-Bold&apos;" transform="matrix(0 .8 .8 0 32.614 275.8)" fill="#231F20">E</text>
			<text font-size="6.6427" font-family="&apos;ArialNarrow-Bold&apos;" transform="matrix(0 .8 .8 0 32.614 278.45)" fill="#231F20">V</text>
			<text font-size="6.6427" font-family="&apos;ArialNarrow-Bold&apos;" transform="matrix(0 .8 .8 0 32.614 281.01)" fill="#231F20">.</text>
			<text font-size="6.6427" font-family="&apos;ArialNarrow-Bold&apos;" transform="matrix(0 .8 .8 0 79.974 270.78)" fill="#231F20">E</text>
			<text font-size="6.6427" font-family="&apos;ArialNarrow-Bold&apos;" transform="matrix(0 .8 .8 0 79.974 273.44)" fill="#231F20">L</text>
			<text font-size="6.6427" font-family="&apos;ArialNarrow-Bold&apos;" transform="matrix(0 .8 .8 0 79.974 275.8)" fill="#231F20">E</text>
			<text font-size="6.6427" font-family="&apos;ArialNarrow-Bold&apos;" transform="matrix(0 .8 .8 0 79.974 278.45)" fill="#231F20">V</text>
			<text font-size="6.6427" font-family="&apos;ArialNarrow-Bold&apos;" transform="matrix(0 .8 .8 0 79.974 281.01)" fill="#231F20">.</text>
			<text font-size="6.6427" font-family="&apos;ArialNarrow-Bold&apos;" transform="matrix(0 .8 .8 0 29.882 289.71)" fill="#231F20">C</text>
			<text font-size="6.6427" font-family="&apos;ArialNarrow-Bold&apos;" transform="matrix(0 .8 .8 0 29.882 292.67)" fill="#231F20">H</text>
			<text font-size="6.6427" font-family="&apos;ArialNarrow-Bold&apos;" transform="matrix(0 .8 .8 0 29.882 295.91)" fill="#231F20">A</text>
			<text font-size="6.6427" font-family="&apos;ArialNarrow-Bold&apos;" transform="matrix(0 .8 .8 0 29.882 299.16)" fill="#231F20">M</text>
			<text font-size="6.6427" font-family="&apos;ArialNarrow-Bold&apos;" transform="matrix(0 .8 .8 0 29.882 303.59)" fill="#231F20">P</text>
			<text font-size="6.6427" font-family="&apos;ArialNarrow-Bold&apos;" transform="matrix(0 .8 .8 0 29.882 306.55)" fill="#231F20">A</text>
			<text font-size="6.6427" font-family="&apos;ArialNarrow-Bold&apos;" transform="matrix(0 .8 .8 0 29.882 309.79)" fill="#231F20">G</text>
			<text font-size="6.6427" font-family="&apos;ArialNarrow-Bold&apos;" transform="matrix(0 .8 .8 0 29.882 313.04)" fill="#231F20">N</text>
			<text font-size="6.6427" font-family="&apos;ArialNarrow-Bold&apos;" transform="matrix(0 .8 .8 0 29.882 316.58)" fill="#231F20">E</text>
			<text font-size="6.6427" font-family="&apos;ArialNarrow-Bold&apos;" transform="matrix(0 .8 .8 0 35.307 299.75)" fill="#231F20">B</text>
			<text font-size="6.6427" font-family="&apos;ArialNarrow-Bold&apos;" transform="matrix(0 .8 .8 0 35.307 303)" fill="#231F20">A</text>
			<text font-size="6.6427" font-family="&apos;ArialNarrow-Bold&apos;" transform="matrix(0 .8 .8 0 35.307 306.25)" fill="#231F20">R</text>
			<g id="g15514">
						<g id="g15516">
							<g id="g15560" transform="translate(493.79 177.36)">
								<path id="path15562" d="m-465.47 74.818h-0.306c0.295 0.122 0.502 0.413 0.502 0.753 0 0.452-0.365 0.817-0.816 0.817s-0.816-0.367-0.816-0.817c0-0.341 0.208-0.631 0.499-0.753h-0.317c-0.417 0-0.753-0.337-0.753-0.753v-1.883c0-0.528 0.292-0.747 0.726-0.831v-2.622h1.32v2.625c0.428 0.084 0.716 0.303 0.716 0.828v1.883c0 0.415-0.33 0.753-0.75 0.753" fill="#231F20"/>
							</g>
							<g id="g15564" transform="translate(547.48 172.83)">
								<path id="path15566" d="m-465.47 74.817h0.502l-0.502 1.508h-0.566c0.296 0.123 0.502 0.412 0.502 0.752 0 0.45-0.365 0.817-0.816 0.817-0.45 0-0.815-0.367-0.815-0.817 0-0.339 0.205-0.628 0.502-0.752h-0.565l-0.502-1.508h0.502l-0.502-2.008h0.703l0.27-2.573h0.816l0.268 2.573h0.705l-0.49 2.008z" fill="#231F20"/>
							</g>
							<g id="g15568" transform="translate(494.07 509.6)">
								<path id="path15570" d="m-465.47 74.818h-0.306c0.293 0.122 0.499 0.411 0.499 0.752 0 0.451-0.365 0.816-0.815 0.816-0.452 0-0.816-0.366-0.816-0.816 0-0.341 0.21-0.63 0.502-0.752h-0.32c-0.415 0-0.754-0.341-0.754-0.755v-1.884c0-0.527 0.297-0.746 0.729-0.83v-2.623h1.32v2.625c0.427 0.086 0.715 0.305 0.715 0.829v1.884c0 0.413-0.33 0.754-0.75 0.754" fill="#231F20"/>
							</g>
							<g id="g15572" transform="translate(547.7 508.24)">
								<path id="path15574" d="m-465.47 74.817h0.503l-0.503 1.508h-0.565c0.296 0.121 0.502 0.411 0.502 0.752 0 0.452-0.364 0.817-0.816 0.817-0.451 0-0.815-0.366-0.815-0.817 0-0.341 0.207-0.631 0.5-0.752h-0.565l-0.502-1.508h0.502l-0.502-2.008h0.702l0.271-2.576h0.817l0.27 2.576h0.703l-0.49 2.008z" fill="#231F20"/>
							</g>
						</g>
			</g>
			<text font-size="6.1844" font-family="&apos;ArialNarrow-Bold&apos;" transform="matrix(0 .731 .8 0 77.483 559.09)" fill="#100F0D">E</text>
			<text font-size="6.1844" font-family="&apos;ArialNarrow-Bold&apos;" transform="matrix(0 .731 .8 0 77.483 561.35)" fill="#100F0D">L</text>
			<text font-size="6.1844" font-family="&apos;ArialNarrow-Bold&apos;" transform="matrix(0 .731 .8 0 77.483 563.35)" fill="#100F0D">E</text>
			<text font-size="6.1844" font-family="&apos;ArialNarrow-Bold&apos;" transform="matrix(0 .731 .8 0 77.483 565.61)" fill="#100F0D">V</text>
			<text font-size="6.1844" font-family="&apos;ArialNarrow-Bold&apos;" transform="matrix(0 .731 .8 0 77.483 567.79)" fill="#100F0D">.</text>
			<text font-size="6.1844" font-family="&apos;ArialNarrow-Bold&apos;" transform="matrix(0 .731 .8 0 35.221 559.15)" fill="#100F0D">E</text>
			<text font-size="6.1844" font-family="&apos;ArialNarrow-Bold&apos;" transform="matrix(0 .731 .8 0 35.221 561.41)" fill="#100F0D">L</text>
			<text font-size="6.1844" font-family="&apos;ArialNarrow-Bold&apos;" transform="matrix(0 .731 .8 0 35.221 563.42)" fill="#100F0D">E</text>
			<text font-size="6.1844" font-family="&apos;ArialNarrow-Bold&apos;" transform="matrix(0 .731 .8 0 35.221 565.68)" fill="#100F0D">V</text>
			<text font-size="6.1844" font-family="&apos;ArialNarrow-Bold&apos;" transform="matrix(0 .731 .8 0 35.221 567.86)" fill="#100F0D">.</text>
				<text font-size="5.6508" font-family="&apos;ArialNarrow-Bold&apos;" transform="matrix(.8755 0 0 -.8 59.171 604.91)" fill="#100F0D">C</text>
				<text font-size="5.6508" font-family="&apos;ArialNarrow-Bold&apos;" transform="matrix(.8755 0 0 -.8 61.724 604.91)" fill="#100F0D">O</text>
				<text font-size="5.6508" font-family="&apos;ArialNarrow-Bold&apos;" transform="matrix(.8755 0 0 -.8 64.549 604.91)" fill="#100F0D">N</text>
				<text font-size="5.6508" font-family="&apos;ArialNarrow-Bold&apos;" transform="matrix(.8755 0 0 -.8 67.651 604.91)" fill="#100F0D">N</text>
				<text font-size="5.6508" font-family="&apos;ArialNarrow-Bold&apos;" transform="matrix(.8755 0 0 -.8 70.753 604.91)" fill="#100F0D">O</text>
				<text font-size="5.6508" font-family="&apos;ArialNarrow-Bold&apos;" transform="matrix(.8755 0 0 -.8 73.578 604.91)" fill="#100F0D">I</text>
				<text font-size="5.6508" font-family="&apos;ArialNarrow-Bold&apos;" transform="matrix(.8755 0 0 -.8 74.756 604.91)" fill="#100F0D">S</text>
				<text font-size="5.6508" font-family="&apos;ArialNarrow-Bold&apos;" transform="matrix(.8755 0 0 -.8 77.309 604.91)" fill="#100F0D">S</text>
				<text font-size="5.6508" font-family="&apos;ArialNarrow-Bold&apos;" transform="matrix(.8755 0 0 -.8 79.862 604.91)" fill="#100F0D">E</text>
				<text font-size="5.6508" font-family="&apos;ArialNarrow-Bold&apos;" transform="matrix(.8755 0 0 -.8 82.138 604.91)" fill="#100F0D">U</text>
				<text font-size="5.6508" font-family="&apos;ArialNarrow-Bold&apos;" transform="matrix(.8755 0 0 -.8 84.963 604.91)" fill="#100F0D">R</text>
				<text font-size="5.6508" font-family="&apos;ArialNarrow-Bold&apos;" transform="matrix(.8755 0 0 -.8 67.943 600.39)" fill="#100F0D">C</text>
				<text font-size="5.6508" font-family="&apos;ArialNarrow-Bold&apos;" transform="matrix(.8755 0 0 -.8 70.694 600.39)" fill="#100F0D">L</text>
				<text font-size="5.6508" font-family="&apos;ArialNarrow-Bold&apos;" transform="matrix(.8755 0 0 -.8 72.891 600.39)" fill="#100F0D">U</text>
				<text font-size="5.6508" font-family="&apos;ArialNarrow-Bold&apos;" transform="matrix(.8755 0 0 -.8 75.913 600.39)" fill="#100F0D">B</text>
			<text font-size="6.6427" font-family="&apos;ArialNarrow-Bold&apos;" transform="matrix(0 .8 .8 0 73.887 321.63)" fill="#231F20">S</text>
			<text font-size="6.6427" font-family="&apos;ArialNarrow-Bold&apos;" transform="matrix(0 .8 .8 0 73.887 324.58)" fill="#231F20">H</text>
			<text font-size="6.6427" font-family="&apos;ArialNarrow-Bold&apos;" transform="matrix(0 .8 .8 0 73.887 327.83)" fill="#231F20">O</text>
			<text font-size="6.6427" font-family="&apos;ArialNarrow-Bold&apos;" transform="matrix(0 .8 .8 0 73.887 331.08)" fill="#231F20">R</text>
			<text font-size="6.6427" font-family="&apos;ArialNarrow-Bold&apos;" transform="matrix(0 .8 .8 0 73.887 334.03)" fill="#231F20">E</text>
			<text font-size="6.6427" font-family="&apos;ArialNarrow-Bold&apos;" transform="matrix(0 .8 .8 0 79.313 314.68)" fill="#231F20">E</text>
			<text font-size="6.6427" font-family="&apos;ArialNarrow-Bold&apos;" transform="matrix(0 .8 .8 0 79.313 317.34)" fill="#231F20">X</text>
			<text font-size="6.6427" font-family="&apos;ArialNarrow-Bold&apos;" transform="matrix(0 .8 .8 0 79.313 320.29)" fill="#231F20">C</text>
			<text font-size="6.6427" font-family="&apos;ArialNarrow-Bold&apos;" transform="matrix(0 .8 .8 0 79.313 323.25)" fill="#231F20">U</text>
			<text font-size="6.6427" font-family="&apos;ArialNarrow-Bold&apos;" transform="matrix(0 .8 .8 0 79.313 326.5)" fill="#231F20">R</text>
			<text font-size="6.6427" font-family="&apos;ArialNarrow-Bold&apos;" transform="matrix(0 .8 .8 0 79.313 329.45)" fill="#231F20">S</text>
			<text font-size="6.6427" font-family="&apos;ArialNarrow-Bold&apos;" transform="matrix(0 .8 .8 0 79.313 332.41)" fill="#231F20">I</text>
			<text font-size="6.6427" font-family="&apos;ArialNarrow-Bold&apos;" transform="matrix(0 .8 .8 0 79.313 333.88)" fill="#231F20">O</text>
			<text font-size="6.6427" font-family="&apos;ArialNarrow-Bold&apos;" transform="matrix(0 .8 .8 0 79.313 337.13)" fill="#231F20">N</text>
			<text font-size="6.6427" font-family="&apos;ArialNarrow-Bold&apos;" transform="matrix(0 .8 .8 0 79.313 340.67)" fill="#231F20">S</text>
			<text font-size="6.6427" font-family="&apos;ArialNarrow-Bold&apos;" transform="matrix(0 .8 .8 0 80.236 290.6)" fill="#231F20">G</text>
			<text font-size="6.6427" font-family="&apos;ArialNarrow-Bold&apos;" transform="matrix(0 .8 .8 0 80.236 293.85)" fill="#231F20">U</text>
			<text font-size="6.6427" font-family="&apos;ArialNarrow-Bold&apos;" transform="matrix(0 .8 .8 0 80.236 297.1)" fill="#231F20">E</text>
			<text font-size="6.6427" font-family="&apos;ArialNarrow-Bold&apos;" transform="matrix(0 .8 .8 0 80.236 299.75)" fill="#231F20">S</text>
			<text font-size="6.6427" font-family="&apos;ArialNarrow-Bold&apos;" transform="matrix(0 .8 .8 0 80.236 302.71)" fill="#231F20">T</text>
			<text font-size="6.6427" font-family="&apos;ArialNarrow-Bold&apos;" transform="matrix(0 .8 .8 0 85.663 287.2)" fill="#231F20">S</text>
			<text font-size="6.6427" font-family="&apos;ArialNarrow-Bold&apos;" transform="matrix(0 .8 .8 0 85.663 290.16)" fill="#231F20">E</text>
			<text font-size="6.6427" font-family="&apos;ArialNarrow-Bold&apos;" transform="matrix(0 .8 .8 0 85.663 292.81)" fill="#231F20">R</text>
			<text font-size="6.6427" font-family="&apos;ArialNarrow-Bold&apos;" transform="matrix(0 .8 .8 0 85.663 295.77)" fill="#231F20">V</text>
			<text font-size="6.6427" font-family="&apos;ArialNarrow-Bold&apos;" transform="matrix(0 .8 .8 0 85.663 298.72)" fill="#231F20">I</text>
			<text font-size="6.6427" font-family="&apos;ArialNarrow-Bold&apos;" transform="matrix(0 .8 .8 0 85.663 300.2)" fill="#231F20">C</text>
			<text font-size="6.6427" font-family="&apos;ArialNarrow-Bold&apos;" transform="matrix(0 .8 .8 0 85.663 303.16)" fill="#231F20">E</text>
			<text font-size="6.6427" font-family="&apos;ArialNarrow-Bold&apos;" transform="matrix(0 .8 .8 0 85.663 305.81)" fill="#231F20">S</text>
			<text font-size="6.6427" font-family="&apos;ArialNarrow-Bold&apos;" transform="matrix(.8 0 0 -.8 60.704 368.34)" fill="#231F20">C</text>
			<text font-size="6.6427" font-family="&apos;ArialNarrow-Bold&apos;" transform="matrix(.8 0 0 -.8 63.659 368.34)" fill="#231F20">U</text>
			<text font-size="6.6427" font-family="&apos;ArialNarrow-Bold&apos;" transform="matrix(.8 0 0 -.8 66.906 368.34)" fill="#231F20">P</text>
			<text font-size="6.6427" font-family="&apos;ArialNarrow-Bold&apos;" transform="matrix(.8 0 0 -.8 69.861 368.34)" fill="#231F20">C</text>
			<text font-size="6.6427" font-family="&apos;ArialNarrow-Bold&apos;" transform="matrix(.8 0 0 -.8 72.816 368.34)" fill="#231F20">A</text>
			<text font-size="6.6427" font-family="&apos;ArialNarrow-Bold&apos;" transform="matrix(.8 0 0 -.8 76.063 368.34)" fill="#231F20">K</text>
			<text font-size="6.6427" font-family="&apos;ArialNarrow-Bold&apos;" transform="matrix(.8 0 0 -.8 79.017 368.34)" fill="#231F20">E</text>
			<text font-size="6.6427" font-family="&apos;ArialNarrow-Bold&apos;" transform="matrix(.8 0 0 -.8 58.637 362.91)" fill="#231F20">C</text>
			<text font-size="6.6427" font-family="&apos;ArialNarrow-Bold&apos;" transform="matrix(.8 0 0 -.8 61.592 362.91)" fill="#231F20">U</text>
			<text font-size="6.6427" font-family="&apos;ArialNarrow-Bold&apos;" transform="matrix(.8 0 0 -.8 64.839 362.91)" fill="#231F20">P</text>
			<text font-size="6.6427" font-family="&apos;ArialNarrow-Bold&apos;" transform="matrix(.8 0 0 -.8 67.794 362.91)" fill="#231F20">B</text>
			<text font-size="6.6427" font-family="&apos;ArialNarrow-Bold&apos;" transform="matrix(.8 0 0 -.8 71.041 362.91)" fill="#231F20">O</text>
			<text font-size="6.6427" font-family="&apos;ArialNarrow-Bold&apos;" transform="matrix(.8 0 0 -.8 74.288 362.91)" fill="#231F20">A</text>
			<text font-size="6.6427" font-family="&apos;ArialNarrow-Bold&apos;" transform="matrix(.8 0 0 -.8 77.534 362.91)" fill="#231F20">R</text>
			<text font-size="6.6427" font-family="&apos;ArialNarrow-Bold&apos;" transform="matrix(.8 0 0 -.8 80.489 362.91)" fill="#231F20">D</text>
			<text font-size="7.3336" font-family="&apos;ArialNarrow-Bold&apos;" transform="matrix(0 .8 .8 0 53.817 496.57)" fill="#231F20">P</text>
			<text font-size="7.3336" font-family="&apos;ArialNarrow-Bold&apos;" transform="matrix(0 .8 .8 0 53.817 499.83)" fill="#231F20">R</text>
			<text font-size="7.3336" font-family="&apos;ArialNarrow-Bold&apos;" transform="matrix(0 .8 .8 0 53.817 503.09)" fill="#231F20">O</text>
			<text font-size="7.3336" font-family="&apos;ArialNarrow-Bold&apos;" transform="matrix(0 .8 .8 0 53.817 506.67)" fill="#231F20">M</text>
			<text font-size="7.3336" font-family="&apos;ArialNarrow-Bold&apos;" transform="matrix(0 .8 .8 0 53.817 511.56)" fill="#231F20">E</text>
			<text font-size="7.3336" font-family="&apos;ArialNarrow-Bold&apos;" transform="matrix(0 .8 .8 0 53.817 514.49)" fill="#231F20">N</text>
			<text font-size="7.3336" font-family="&apos;ArialNarrow-Bold&apos;" transform="matrix(0 .8 .8 0 53.817 518.41)" fill="#231F20">A</text>
			<text font-size="7.3336" font-family="&apos;ArialNarrow-Bold&apos;" transform="matrix(0 .8 .8 0 53.817 521.99)" fill="#231F20">D</text>
			<text font-size="7.3336" font-family="&apos;ArialNarrow-Bold&apos;" transform="matrix(0 .8 .8 0 53.817 525.58)" fill="#231F20">E</text>
			<text font-size="7.3336" font-family="&apos;ArialNarrow-Bold&apos;" transform="matrix(0 .8 .8 0 53.817 528.51)" fill="#231F20"> </text>
			<text font-size="7.3336" font-family="&apos;ArialNarrow-Bold&apos;" transform="matrix(0 .8 .8 0 53.817 529.81)" fill="#231F20">S</text>
			<text font-size="7.3336" font-family="&apos;ArialNarrow-Bold&apos;" transform="matrix(0 .8 .8 0 53.817 533.07)" fill="#231F20">H</text>
			<text font-size="7.3336" font-family="&apos;ArialNarrow-Bold&apos;" transform="matrix(0 .8 .8 0 53.817 536.66)" fill="#231F20">O</text>
			<text font-size="7.3336" font-family="&apos;ArialNarrow-Bold&apos;" transform="matrix(0 .8 .8 0 53.817 540.24)" fill="#231F20">P</text>
			<text font-size="7.3336" font-family="&apos;ArialNarrow-Bold&apos;" transform="matrix(0 .8 .8 0 53.817 543.51)" fill="#231F20">S</text>
		</g>
</svg>
