<?xml version="1.0" encoding="utf-8"?>
<!-- Generated by IcoMoon.io -->
<!DOCTYPE svg PUBLIC "-//W3C//DTD SVG 1.1//EN" "http://www.w3.org/Graphics/SVG/1.1/DTD/svg11.dtd">
<svg version="1.1" xmlns="http://www.w3.org/2000/svg" xmlns:xlink="http://www.w3.org/1999/xlink" width="24" height="24" viewBox="0 0 24 24">
	<path d="M12 0.48c-6.362 0-11.52 5.158-11.52 11.52s5.158 11.52 11.52 11.52 11.52-5.158 11.52-11.52-5.158-11.52-11.52-11.52zM3.1 8.952l3.707 1.639c-0.094 0.476-0.144 0.973-0.144 1.483 0 4.6 3.432 5.894 5.592 5.894 1.274 0 2.375-0.41 3.238-1.014 0.164-0.118 0.313-0.235 0.45-0.356l-1.679-2.040c-0.049 0.056-0.101 0.109-0.154 0.157-0.654 0.62-1.372 0.62-1.531 0.62-1.741 0-2.478-1.819-2.501-3.296l10.165 4.499c-1.602 2.903-4.692 4.87-8.242 4.87-5.196 0-9.408-4.212-9.408-9.408-0.001-1.068 0.18-2.092 0.506-3.048zM10.574 9.775c0.377-0.682 1.001-1.219 1.895-1.219 0.52 0 0.93 0.173 1.254 0.389 0.134 0.097 0.251 0.194 0.349 0.292l1.876-1.93c-1.26-1.084-2.692-1.277-3.629-1.277-2.201 0-3.796 0.985-4.715 2.43l-3.511-1.555c1.675-2.593 4.589-4.313 7.907-4.313 5.196 0 9.408 4.212 9.408 9.408 0 0.84-0.112 1.654-0.318 2.426l-10.516-4.651z" fill="#ffc600" />
</svg>
