<?xml version="1.0" encoding="utf-8"?>
<!-- Generated by IcoMoon.io -->
<!DOCTYPE svg PUBLIC "-//W3C//DTD SVG 1.1//EN" "http://www.w3.org/Graphics/SVG/1.1/DTD/svg11.dtd">
<svg version="1.1" xmlns="http://www.w3.org/2000/svg" xmlns:xlink="http://www.w3.org/1999/xlink" width="24" height="24" viewBox="0 0 24 24">
	<path d="M21.6 4.8h-1.2v18h1.2c1.32 0 2.4-1.080 2.4-2.4v-13.2c0-1.32-1.080-2.4-2.4-2.4zM0 7.2v13.2c0 1.32 1.080 2.4 2.4 2.4h1.2v-18h-1.2c-1.32 0-2.4 1.080-2.4 2.4zM16.080 2.288c-0.817-0.38-2.122-1.088-4.080-1.088s-3.263 0.708-4.080 1.088v2.512h-2.64v18h13.44v-18h-2.64v-2.512zM14.64 4.8h-5.28v-1.602c0.64-0.276 1.558-0.558 2.64-0.558s1.999 0.281 2.64 0.557v1.603z" fill="#ffc600" />
</svg>
