<?xml version="1.0" encoding="utf-8"?>
<!-- Generated by IcoMoon.io -->
<!DOCTYPE svg PUBLIC "-//W3C//DTD SVG 1.1//EN" "http://www.w3.org/Graphics/SVG/1.1/DTD/svg11.dtd">
<svg version="1.1" xmlns="http://www.w3.org/2000/svg" xmlns:xlink="http://www.w3.org/1999/xlink" width="24" height="24" viewBox="0 0 24 24">
	<path d="M3.761 8.268c1.121-0.87 2.050-0.271 3.289 1.164 0.14 0.161 0.328-0.028 0.433-0.12 0.106-0.094 1.742-1.565 1.822-1.633 0.080-0.071 0.176-0.203 0.049-0.35s-0.593-0.75-0.892-1.14c-2.17-2.838 5.935-4.763 4.69-4.793-0.632-0.017-3.175-0.046-3.554-0.006-1.54 0.163-3.473 1.602-4.446 2.272-1.272 0.875-1.748 1.382-1.826 1.453-0.36 0.316-0.058 1.040-0.71 1.613-0.69 0.605-1.12 0.148-1.519 0.498-0.199 0.175-0.752 0.589-0.912 0.73-0.158 0.139-0.187 0.376-0.025 0.565 0 0 1.516 1.675 1.644 1.823 0.127 0.148 0.469 0.272 0.682 0.085 0.212-0.186 0.757-0.665 0.85-0.746 0.094-0.080-0.060-1.036 0.427-1.414zM10.612 8.887c-0.144-0.167-0.322-0.17-0.476-0.034l-1.722 1.501c-0.134 0.12-0.152 0.341-0.031 0.48l9.953 11.326c0.232 0.269 0.635 0.296 0.902 0.064l1.165-0.974c0.265-0.233 0.293-0.641 0.061-0.908l-9.852-11.454zM23.882 4.067c-0.089-0.593-0.396-0.468-0.556-0.216-0.157 0.251-0.865 1.321-1.156 1.805-0.288 0.482-0.996 1.429-2.321 0.494-1.378-0.974-0.898-1.655-0.659-2.112 0.241-0.46 0.982-1.746 1.090-1.908 0.106-0.162-0.019-0.632-0.445-0.436-0.428 0.198-3.028 1.231-3.389 2.712-0.368 1.508 0.31 2.855-1.020 4.193l-1.61 1.68 1.618 1.882 1.985-1.885c0.474-0.475 1.483-0.937 2.398-0.73 1.96 0.444 3.028-0.293 3.673-1.508 0.578-1.088 0.482-3.378 0.392-3.971zM3.288 20.461c-0.25 0.252-0.25 0.66 0 0.911l1.141 1.116c0.25 0.251 0.646 0.145 0.895-0.106l5.888-5.79-1.805-2.056-6.12 5.924z" fill="#ffc600" />
</svg>
