<?xml version="1.0" encoding="utf-8"?>
<!-- Generated by IcoMoon.io -->
<!DOCTYPE svg PUBLIC "-//W3C//DTD SVG 1.1//EN" "http://www.w3.org/Graphics/SVG/1.1/DTD/svg11.dtd">
<svg version="1.1" xmlns="http://www.w3.org/2000/svg" xmlns:xlink="http://www.w3.org/1999/xlink" width="24" height="24" viewBox="0 0 24 24">
	<path d="M11.478 8.905c-1.63-2.898-3.372-5.26-3.5-5.432-2.629 1.242-4.592 3.664-5.203 6.583 0.247 0.005 4.176 0.052 8.704-1.151zM12.653 12.072c0.125-0.040 0.247-0.076 0.373-0.112-0.236-0.536-0.496-1.073-0.766-1.602-4.855 1.452-9.515 1.348-9.68 1.343-0.004 0.1-0.007 0.198-0.007 0.299 0 2.425 0.917 4.633 2.419 6.304-0.002-0.002-0.007-0.008-0.007-0.008s2.581-4.577 7.668-6.223zM6.205 19.432l0.002-0.004c-0.071-0.055-0.145-0.104-0.214-0.162 0.125 0.101 0.211 0.166 0.211 0.166zM9.742 2.846c-0.008 0.002-0.017 0.004-0.024 0.006 0.013-0.004 0.023-0.005 0.024-0.006v0zM18.227 4.925c-1.661-1.463-3.839-2.352-6.226-2.352-0.767 0-1.51 0.094-2.222 0.266 0.143 0.19 1.913 2.542 3.526 5.5 3.554-1.333 4.898-3.376 4.922-3.414zM12.001 23.040c-6.098 0-11.041-4.943-11.041-11.040s4.943-11.040 11.041-11.040c6.097 0 11.039 4.943 11.039 11.040s-4.942 11.040-11.039 11.040zM13.604 13.542c-5.533 1.928-7.361 5.807-7.397 5.886 1.598 1.249 3.607 1.999 5.794 1.999 1.306 0 2.549-0.265 3.679-0.745-0.139-0.827-0.688-3.715-2.014-7.162-0.020 0.008-0.042 0.014-0.062 0.022zM14.028 9.743c0.221 0.45 0.431 0.906 0.626 1.368 0.071 0.163 0.137 0.325 0.204 0.487 3.257-0.409 6.462 0.286 6.566 0.308-0.022-2.237-0.821-4.289-2.143-5.894-0.019 0.028-1.531 2.212-5.254 3.731zM15.433 13.086c1.238 3.402 1.74 6.17 1.835 6.734 2.118-1.429 3.622-3.696 4.040-6.325-0.186-0.061-2.827-0.898-5.875-0.409z" fill="#ffc600" />
</svg>
