<?xml version="1.0" encoding="utf-8"?>
<!-- Generated by IcoMoon.io -->
<!DOCTYPE svg PUBLIC "-//W3C//DTD SVG 1.1//EN" "http://www.w3.org/Graphics/SVG/1.1/DTD/svg11.dtd">
<svg version="1.1" xmlns="http://www.w3.org/2000/svg" xmlns:xlink="http://www.w3.org/1999/xlink" width="24" height="24" viewBox="0 0 24 24">
	<g fill="none" stroke="black"><path stroke-width=".5" d="M4.067 9.494l1.322 11.651c0.071 0.553 2.742 2.372 6.611 2.375 3.869-0.002 6.541-1.822 6.612-2.375l1.322-11.651c-2.021 1.13-5.041 1.666-7.934 1.666s-5.914-0.535-7.933-1.666zM15.8 2.294l-1.031-1.144c-0.397-0.565-0.829-0.671-1.67-0.671h-2.198c-0.84 0-1.272 0.106-1.67 0.671l-1.030 1.144c-3.084 0.539-5.321 1.968-5.321 3.022v0.205c0 1.855 4.082 3.36 9.12 3.36s9.12-1.505 9.12-3.36v-0.205c0-1.054-2.236-2.483-5.32-3.022zM14.483 4.967l-1.502-1.607h-1.961l-1.502 1.607h-2.040c0 0 2.234-2.664 2.533-3.025 0.228-0.276 0.462-0.382 0.764-0.382h2.452c0.302 0 0.535 0.106 0.764 0.382 0.298 0.361 2.533 3.025 2.533 3.025h-2.041z" fill="#ffc600" /></g>
</svg>
