<?xml version="1.0" encoding="utf-8"?>
<!-- Generated by IcoMoon.io -->
<!DOCTYPE svg PUBLIC "-//W3C//DTD SVG 1.1//EN" "http://www.w3.org/Graphics/SVG/1.1/DTD/svg11.dtd">
<svg version="1.1" xmlns="http://www.w3.org/2000/svg" xmlns:xlink="http://www.w3.org/1999/xlink" width="24" height="24" viewBox="0 0 24 24">
	<path d="M8.622 23.004c0.947 0.612 2.044 1.026 3.378 0.994 1.334 0.032 2.43-0.382 3.377-0.994v-2.484h-6.755v2.484zM15.235 19.079c0-5.227 5.557-6.9 5.141-12.107-0.262-3.286-2.488-6.972-8.376-6.972s-8.114 3.686-8.376 6.972c-0.416 5.208 5.14 6.88 5.14 12.107h6.472zM6.166 7.162c0.25-3.119 2.371-4.7 5.834-4.7s5.585 1.582 5.833 4.7c0.136 1.708-0.846 2.846-2.172 4.711-0.976 1.375-2.13 2.999-2.67 5.113h-1.984c-0.54-2.114-1.693-3.737-2.671-5.113-1.325-1.866-2.306-3.004-2.171-4.711z" fill="#ffc600" />
</svg>
