<?xml version="1.0" encoding="utf-8"?>
<!-- Generated by IcoMoon.io -->
<!DOCTYPE svg PUBLIC "-//W3C//DTD SVG 1.1//EN" "http://www.w3.org/Graphics/SVG/1.1/DTD/svg11.dtd">
<svg version="1.1" xmlns="http://www.w3.org/2000/svg" xmlns:xlink="http://www.w3.org/1999/xlink" width="24" height="24" viewBox="0 0 24 24">
	<path d="M5.953 24c-1.603 0-3.104-0.679-4.189-1.765-2.1-2.1-2.687-5.767 0.258-8.712 1.727-1.724 8.639-8.636 12.089-12.086 1.225-1.225 2.783-1.698 4.276-1.297 1.465 0.391 2.668 1.592 3.060 3.059 0.4 1.493-0.074 3.052-1.298 4.276l-11.558 11.56c-0.66 0.66-1.405 1.051-2.155 1.129-0.742 0.078-1.45-0.161-1.946-0.656-0.9-0.899-1.027-2.591 0.468-4.085l8.118-8.12c0.334-0.332 0.875-0.332 1.208 0 0.334 0.334 0.334 0.875 0 1.208l-8.119 8.119c-0.702 0.702-0.767 1.373-0.468 1.672 0.131 0.13 0.33 0.19 0.559 0.166 0.352-0.037 0.752-0.265 1.127-0.64l11.558-11.558c0.793-0.793 1.097-1.726 0.856-2.627-0.238-0.887-0.965-1.614-1.852-1.852-0.901-0.241-1.834 0.064-2.627 0.856-3.449 3.45-10.361 10.362-12.086 12.086-2.251 2.251-1.712 4.842-0.259 6.296 1.454 1.453 4.045 1.993 6.298-0.259l12.088-12.086c0.332-0.334 0.875-0.334 1.207 0 0.334 0.334 0.334 0.875 0 1.207l-12.088 12.088c-1.424 1.426-3.018 2.023-4.523 2.023z" fill="#ffc600" />
</svg>
