<?xml version="1.0" encoding="utf-8"?>
<!-- Generated by IcoMoon.io -->
<!DOCTYPE svg PUBLIC "-//W3C//DTD SVG 1.1//EN" "http://www.w3.org/Graphics/SVG/1.1/DTD/svg11.dtd">
<svg version="1.1" xmlns="http://www.w3.org/2000/svg" xmlns:xlink="http://www.w3.org/1999/xlink" width="24" height="24" viewBox="0 0 24 24">
	<path d="M23.704 13.057c-0.749-2.050-2.84-3.272-5.594-3.272-0.107 0-0.211 0.004-0.314 0.008l-0.018-2.474c0 0 4.091-0.707 4.229-0.731s0.161-0.143 0.132-0.276c-0.028-0.133-0.2-1.061-0.226-1.172-0.034-0.156-0.124-0.152-0.248-0.131s-3.901 0.554-3.901 0.554-0.013-2.345-0.014-2.495c-0.001-0.15-0.084-0.191-0.233-0.188-0.15 0.002-1.105 0.017-1.231 0.019-0.126 0.001-0.196 0.059-0.193 0.179 0.002 0.12 0.040 2.767 0.040 2.767s-3.674 0.635-3.775 0.652-0.204 0.065-0.18 0.172c0.023 0.107 0.228 1.312 0.25 1.406 0.020 0.095 0.085 0.152 0.224 0.128s3.51-0.606 3.51-0.606l0.042 2.422c-1.292 0.34-2.161 0.989-2.707 1.564-0.922 0.968-1.448 2.264-1.448 3.556 0 1.906 1.164 3.035 2.792 3.234 3.796 0.464 6.143-3.671 6.924-5.657 1.318 1.806 0.308 5.225-2.513 7.175-0.050 0.037-0.116 0.155-0.038 0.248s0.648 0.794 0.743 0.91c0.095 0.113 0.247 0.068 0.307 0.025 3.012-2.072 4.392-5.414 3.443-8.016zM14.839 16.882c-1.158-0.145-1.132-1.097-1.132-1.744 0-0.928 0.392-1.896 1.050-2.587 0.403-0.424 0.9-0.745 1.475-0.959l0.098 5.132c-0.46 0.157-0.956 0.223-1.492 0.157zM17.753 16.219l0.054-4.931c0.101-0.005 0.2-0.012 0.302-0.012 0.928 0 1.794 0.174 2.263 0.434 0.469 0.26-1.228 3.254-2.62 4.508zM7.012 7.018c-0.036-0.113-0.122-0.173-0.234-0.173h-2.34c-0.11 0-0.198 0.060-0.233 0.173-0.493 1.559-4.177 13.19-4.195 13.249-0.020 0.064-0.013 0.091 0.074 0.091h2.080c0.090 0 0.119-0.028 0.136-0.086 0.019-0.061 1.211-3.982 1.211-3.982h4.195c0 0 1.192 3.922 1.21 3.982 0.019 0.059 0.046 0.086 0.137 0.086h2.078c0.089 0 0.096-0.028 0.074-0.091-0.016-0.059-3.698-11.69-4.193-13.249zM3.872 14.599l1.736-6.3 1.735 6.3h-3.472z" fill="#ffc600" />
</svg>
