<?xml version="1.0" encoding="utf-8"?>
<!-- Generated by IcoMoon.io -->
<!DOCTYPE svg PUBLIC "-//W3C//DTD SVG 1.1//EN" "http://www.w3.org/Graphics/SVG/1.1/DTD/svg11.dtd">
<svg version="1.1" xmlns="http://www.w3.org/2000/svg" xmlns:xlink="http://www.w3.org/1999/xlink" width="24" height="24" viewBox="0 0 24 24">
	<path d="M12 16.8c-1.313 0-2.375 1.075-2.375 2.4s1.062 2.4 2.375 2.4c1.312 0 2.375-1.075 2.375-2.4s-1.063-2.4-2.375-2.4zM6.96 14.11l1.68 1.697c1.855-1.874 4.864-1.874 6.72 0l1.68-1.697c-2.784-2.813-7.297-2.813-10.080 0zM3.6 10.715l1.679 1.697c3.712-3.749 9.728-3.749 13.44 0l1.681-1.697c-4.639-4.686-12.161-4.686-16.8 0zM0.24 7.321l1.68 1.697c5.568-5.623 14.593-5.623 20.16 0l1.68-1.697c-6.494-6.562-17.026-6.562-23.52 0z" fill="#ffc600" />
</svg>
