<?xml version="1.0" encoding="utf-8"?>
<!-- Generated by IcoMoon.io -->
<!DOCTYPE svg PUBLIC "-//W3C//DTD SVG 1.1//EN" "http://www.w3.org/Graphics/SVG/1.1/DTD/svg11.dtd">
<svg version="1.1" xmlns="http://www.w3.org/2000/svg" xmlns:xlink="http://www.w3.org/1999/xlink" width="24" height="24" viewBox="0 0 24 24">
	<path d="M18 15.6c-0.826 0-1.582 0.28-2.189 0.746l-6.263-3.757c0.030-0.192 0.052-0.389 0.052-0.589 0-0.202-0.022-0.397-0.052-0.589l6.263-3.757c0.607 0.467 1.363 0.746 2.189 0.746 1.987 0 3.6-1.612 3.6-3.6s-1.613-3.6-3.6-3.6-3.6 1.612-3.6 3.6c0 0.2 0.022 0.397 0.053 0.589l-6.263 3.758c-0.607-0.468-1.364-0.748-2.19-0.748-1.988 0-3.6 1.612-3.6 3.6 0 1.987 1.612 3.6 3.6 3.6 0.826 0 1.583-0.28 2.19-0.746l6.263 3.757c-0.031 0.192-0.053 0.388-0.053 0.589 0 1.987 1.613 3.6 3.6 3.6s3.6-1.613 3.6-3.6-1.613-3.6-3.6-3.6z" fill="#ffc600" />
</svg>
