<?xml version="1.0" encoding="utf-8"?>
<!-- Generated by IcoMoon.io -->
<!DOCTYPE svg PUBLIC "-//W3C//DTD SVG 1.1//EN" "http://www.w3.org/Graphics/SVG/1.1/DTD/svg11.dtd">
<svg version="1.1" xmlns="http://www.w3.org/2000/svg" xmlns:xlink="http://www.w3.org/1999/xlink" width="24" height="24" viewBox="0 0 24 24">
	<path d="M13.472 2.16c-5.335 0-9.673 4.274-9.803 9.594h-2.95l4.415 4.921 4.414-4.921h-3.427c0.13-3.961 3.37-7.134 7.351-7.134 4.063 0 7.356 3.304 7.356 7.38s-3.293 7.38-7.356 7.38c-1.63 0-3.134-0.533-4.354-1.432l-1.687 1.805c1.666 1.307 3.762 2.087 6.041 2.087 5.417 0 9.809-4.405 9.809-9.84-0.001-5.435-4.393-9.84-9.809-9.84zM12.6 6.72v5.628l3.606 3.606 1.188-1.188-3.114-3.114v-4.932h-1.68z" fill="#ffc600" />
</svg>
