<?xml version="1.0" encoding="utf-8"?>
<!-- Generated by IcoMoon.io -->
<!DOCTYPE svg PUBLIC "-//W3C//DTD SVG 1.1//EN" "http://www.w3.org/Graphics/SVG/1.1/DTD/svg11.dtd">
<svg version="1.1" xmlns="http://www.w3.org/2000/svg" xmlns:xlink="http://www.w3.org/1999/xlink" width="24" height="24" viewBox="0 0 24 24">
	<path d="M16.392 14.626c1.519-0.040 2.885-0.841 3.691-2.237 1.271-2.201 0.551-4.855-1.896-6.268l-1.532-0.886 2.567-4.447-1.367-0.788-4.962 8.592c-0.386-0.953-1.127-1.811-2.2-2.429l-2.9-1.676-4.493 7.782 2.9 1.675c1.073 0.619 2.188 0.826 3.21 0.68l-4.958 8.586 1.368 0.79 2.568-4.446 1.534 0.884c2.447 1.412 5.119 0.688 6.389-1.514 0.804-1.394 0.809-2.971 0.082-4.298zM17.471 7.367c1.633 0.943 2.053 2.682 1.168 4.216-0.886 1.535-2.59 2.018-4.224 1.075l-1.514-0.874c0.018-0.043 0.032-0.086 0.048-0.13l2.988-5.174 1.535 0.887zM6.919 12.698l-1.534-0.886 3.054-5.292 1.535 0.886c1.633 0.943 2.052 2.682 1.168 4.217-0.886 1.535-2.588 2.020-4.223 1.075zM10.64 19.194l-1.535-0.886 2.992-5.179c0.028-0.034 0.056-0.066 0.083-0.101l1.514 0.875c1.636 0.942 2.053 2.682 1.17 4.217-0.887 1.534-2.591 2.017-4.224 1.074z" fill="#ffc600" />
</svg>
