<?xml version="1.0" encoding="utf-8"?>
<!-- Generated by IcoMoon.io -->
<!DOCTYPE svg PUBLIC "-//W3C//DTD SVG 1.1//EN" "http://www.w3.org/Graphics/SVG/1.1/DTD/svg11.dtd">
<svg version="1.1" xmlns="http://www.w3.org/2000/svg" xmlns:xlink="http://www.w3.org/1999/xlink" width="24" height="24" viewBox="0 0 24 24">
	<path d="M22.225 1.775c-0.468-0.469-1.228-0.469-1.697 0l-18.754 18.754c-0.469 0.469-0.469 1.229 0 1.697 0.234 0.234 0.541 0.352 0.848 0.352s0.614-0.118 0.848-0.352l18.754-18.754c0.469-0.469 0.469-1.23 0-1.697zM17.041 11.032c1.667 2.261 2.182 4.224 1.871 4.535-0.312 0.31-2.273-0.205-4.534-1.873l-6.631 6.632c5.023 2.206 11.552-2.419 12.726-3.593 1.11-1.108 0.116-3.973-2.227-6.906l-1.205 1.205zM10.4 9.527c-1.319-1.988-1.716-3.626-1.433-3.911 0.28-0.282 1.92 0.116 3.908 1.435l1.228-1.228c-2.717-2.009-5.274-2.8-6.307-1.763-1.115 1.111-5.339 7.052-3.878 11.948l6.482-6.482z" fill="#ffc600" />
</svg>
