<?xml version="1.0" encoding="utf-8"?>
<!-- Generated by IcoMoon.io -->
<!DOCTYPE svg PUBLIC "-//W3C//DTD SVG 1.1//EN" "http://www.w3.org/Graphics/SVG/1.1/DTD/svg11.dtd">
<svg version="1.1" xmlns="http://www.w3.org/2000/svg" xmlns:xlink="http://www.w3.org/1999/xlink" width="24" height="24" viewBox="0 0 24 24">
	<path d="M6.328 8.297c0.241 0 0.474 0.036 0.692 0.104 0.828-0.928 1.746-1.772 2.74-2.521-0.041-0.174-0.066-0.356-0.066-0.545 0-0.262 0.043-0.511 0.122-0.744-1.112-0.799-2.324-1.469-3.611-1.987-1.208 0.746-2.261 1.72-3.1 2.86 0.623 1.103 1.364 2.131 2.206 3.068 0.308-0.15 0.653-0.235 1.016-0.235zM3.979 10.645c0-0.329 0.068-0.643 0.191-0.928-0.752-0.828-1.436-1.721-2.035-2.674-0.75 1.49-1.175 3.174-1.175 4.956 0 2.065 0.569 3.996 1.555 5.648 0.352-1.986 1.021-3.864 1.944-5.585-0.3-0.394-0.48-0.884-0.48-1.418zM12.042 2.986c0.622 0 1.183 0.242 1.603 0.635 1.225-0.527 2.516-0.931 3.859-1.189-1.621-0.934-3.499-1.471-5.504-1.471-1.367 0-2.675 0.251-3.882 0.706 0.959 0.474 1.873 1.025 2.731 1.649 0.35-0.208 0.757-0.329 1.193-0.329zM15.556 14.050c0.146-0.305 0.354-0.574 0.611-0.787-0.694-2.134-1.792-4.085-3.206-5.765-0.282 0.12-0.592 0.186-0.918 0.186-0.509 0-0.979-0.164-1.364-0.439-0.852 0.647-1.639 1.373-2.356 2.165 0.223 0.359 0.354 0.781 0.354 1.236 0 0.246-0.037 0.481-0.107 0.704 2.060 1.376 4.432 2.321 6.986 2.7zM18.602 17.221c0.031 0.444 0.049 0.893 0.049 1.345 0 0.798-0.052 1.582-0.148 2.353 1.873-1.368 3.298-3.308 4.018-5.567-0.852 0.206-1.726 0.354-2.617 0.439-0.21 0.642-0.688 1.163-1.302 1.429zM15.005 15.628c-2.725-0.451-5.252-1.49-7.451-2.981-0.358 0.22-0.775 0.348-1.225 0.348-0.166 0-0.325-0.018-0.481-0.050-1.052 1.997-1.726 4.224-1.92 6.583 1.051 1.127 2.334 2.034 3.775 2.644 1.788-2.749 4.289-5.026 7.302-6.544zM19.411 3.818c-1.769 0.17-3.458 0.614-5.032 1.282 0.010 0.077 0.013 0.156 0.013 0.235 0 0.371-0.088 0.72-0.241 1.031 1.572 1.846 2.792 3.996 3.564 6.349 0.954 0.018 1.771 0.602 2.123 1.434 1.063-0.108 2.098-0.312 3.095-0.605 0.068-0.504 0.107-1.019 0.107-1.544 0-3.245-1.4-6.163-3.629-8.182zM16.187 16.883c-2.814 1.318-5.165 3.347-6.869 5.827 0.858 0.215 1.757 0.33 2.682 0.33 1.667 0 3.244-0.371 4.66-1.031 0.227-1.112 0.348-2.263 0.348-3.443 0-0.425-0.020-0.847-0.052-1.266-0.283-0.090-0.544-0.233-0.769-0.418z" fill="#ffc600" />
</svg>
