<?xml version="1.0" encoding="utf-8"?>
<!-- Generated by IcoMoon.io -->
<!DOCTYPE svg PUBLIC "-//W3C//DTD SVG 1.1//EN" "http://www.w3.org/Graphics/SVG/1.1/DTD/svg11.dtd">
<svg version="1.1" xmlns="http://www.w3.org/2000/svg" xmlns:xlink="http://www.w3.org/1999/xlink" width="24" height="24" viewBox="0 0 24 24">
	<path d="M10.080 4.8c0-1.591-1.29-2.88-2.88-2.88s-2.88 1.289-2.88 2.88c0 1.184 0.716 2.202 1.74 2.644v9.112c-1.024 0.442-1.74 1.459-1.74 2.645 0 1.59 1.29 2.88 2.88 2.88 1.591 0 2.88-1.29 2.88-2.88 0-1.186-0.718-2.203-1.74-2.645v-9.112c1.024-0.442 1.74-1.459 1.74-2.644zM8.862 19.2c0 0.918-0.744 1.662-1.662 1.662-0.917 0-1.661-0.744-1.661-1.662s0.744-1.662 1.661-1.662c0.918 0 1.662 0.744 1.662 1.662zM7.2 6.462c-0.917 0-1.661-0.744-1.661-1.662s0.744-1.662 1.661-1.662c0.918 0 1.662 0.744 1.662 1.662s-0.744 1.662-1.662 1.662zM17.941 16.555v-9.112c1.022-0.442 1.739-1.459 1.739-2.644 0-1.591-1.289-2.88-2.88-2.88-1.589 0-2.88 1.289-2.88 2.88 0 1.184 0.718 2.202 1.741 2.644v9.112c-1.025 0.442-1.741 1.459-1.741 2.645 0 1.59 1.291 2.88 2.88 2.88 1.591 0 2.88-1.29 2.88-2.88 0-1.186-0.716-2.203-1.739-2.645zM15.138 4.8c0-0.918 0.745-1.662 1.662-1.662 0.919 0 1.662 0.744 1.662 1.662s-0.743 1.662-1.662 1.662c-0.917 0-1.662-0.744-1.662-1.662zM16.8 20.862c-0.917 0-1.662-0.744-1.662-1.662s0.745-1.662 1.662-1.662c0.919 0 1.662 0.744 1.662 1.662s-0.743 1.662-1.662 1.662z" fill="#ffc600" />
</svg>
