<?xml version="1.0" encoding="utf-8"?>
<!-- Generated by IcoMoon.io -->
<!DOCTYPE svg PUBLIC "-//W3C//DTD SVG 1.1//EN" "http://www.w3.org/Graphics/SVG/1.1/DTD/svg11.dtd">
<svg version="1.1" xmlns="http://www.w3.org/2000/svg" xmlns:xlink="http://www.w3.org/1999/xlink" width="24" height="24" viewBox="0 0 24 24">
	<path d="M12 0.48c-6.362 0-11.52 5.158-11.52 11.52s5.158 11.52 11.52 11.52 11.52-5.158 11.52-11.52-5.158-11.52-11.52-11.52zM3.114 8.911l5.844 2.617 1.83 0.802 1.358 0.618 1.111 0.474c0.206 0.178 0.31 0.41 0.31 0.698 0 0.413-0.142 0.707-0.422 0.884-0.281 0.178-0.622 0.268-1.019 0.268-0.961 0-1.818-0.349-2.573-1.049l-1.583 1.604c1.056 0.905 2.222 1.366 3.497 1.378v1.77h1.337v-1.77c0.794-0.068 1.484-0.331 2.068-0.792 0.582-0.46 0.95-1.051 1.1-1.778l4.271 1.902c-1.601 2.903-4.692 4.871-8.243 4.871-5.196 0-9.408-4.212-9.408-9.408 0-1.082 0.185-2.122 0.522-3.089zM15.253 11.836l-1.852-0.823-2.47-1.11c-0.068-0.096-0.102-0.192-0.102-0.288 0-0.329 0.14-0.563 0.422-0.7 0.28-0.137 0.599-0.206 0.956-0.206 0.672 0 1.33 0.227 1.975 0.679l1.502-1.543c-0.865-0.659-1.825-1.015-2.88-1.070v-1.768h-1.338v1.769c-0.714 0.041-1.338 0.245-1.873 0.606-0.534 0.365-0.898 0.847-1.090 1.451l-4.386-1.968c1.679-2.57 4.58-4.272 7.88-4.272 5.196 0 9.408 4.212 9.408 9.408 0 0.844-0.113 1.661-0.322 2.437l-5.833-2.602z" fill="#eeeeee" />
</svg>
