<?xml version="1.0" encoding="utf-8"?>
<!-- Generated by IcoMoon.io -->
<!DOCTYPE svg PUBLIC "-//W3C//DTD SVG 1.1//EN" "http://www.w3.org/Graphics/SVG/1.1/DTD/svg11.dtd">
<svg version="1.1" xmlns="http://www.w3.org/2000/svg" xmlns:xlink="http://www.w3.org/1999/xlink" width="24" height="24" viewBox="0 0 24 24">
	<path d="M11.94 5.932c-1.318 0-2.435 0.386-3.354 1.162s-1.488 1.87-1.708 3.281h-0.904l2.282 2.284 2.284-2.284h-0.844c0.192-1.357 1.056-2.035 2.592-2.035 0.85 0 1.502 0.318 1.954 0.956 0.454 0.637 0.679 1.567 0.679 2.786 0 1.166-0.247 2.099-0.74 2.797-0.494 0.7-1.146 1.050-1.954 1.050-1.62 0-2.464-0.7-2.531-2.099h-2.9c0.192 1.44 0.761 2.551 1.708 3.332 0.946 0.781 2.071 1.172 3.373 1.172 1.771 0 3.21-0.586 4.321-1.758 1.111-1.174 1.667-2.644 1.667-4.414 0-1.824-0.535-3.319-1.604-4.483-1.072-1.165-2.512-1.748-4.321-1.748zM12 0.48c-6.362 0-11.52 5.158-11.52 11.52s5.158 11.52 11.52 11.52 11.52-5.158 11.52-11.52-5.158-11.52-11.52-11.52zM12 21.408c-5.196 0-9.408-4.212-9.408-9.408s4.212-9.408 9.408-9.408 9.408 4.212 9.408 9.408-4.212 9.408-9.408 9.408z" fill="#eeeeee" />
</svg>
