<?xml version="1.0" encoding="utf-8"?>
<!-- Generated by IcoMoon.io -->
<!DOCTYPE svg PUBLIC "-//W3C//DTD SVG 1.1//EN" "http://www.w3.org/Graphics/SVG/1.1/DTD/svg11.dtd">
<svg version="1.1" xmlns="http://www.w3.org/2000/svg" xmlns:xlink="http://www.w3.org/1999/xlink" width="24" height="24" viewBox="0 0 24 24">
	<path d="M10.916 8.742c-0.289-1.020-0.757-1.321-1.486-1.321-0.078 0-0.157 0.011-0.233 0.031-0.317 0.090-0.566 0.354-0.706 0.744-0.143 0.396-0.152 0.81-0.028 1.28 0.221 0.84 0.818 1.451 1.422 1.451 0.078 0 0.157-0.011 0.233-0.031 0.656-0.186 1.069-1.192 0.797-2.154zM12 0.48c-6.362 0-11.52 5.158-11.52 11.52s5.158 11.52 11.52 11.52c6.364 0 11.52-5.158 11.52-11.52s-5.156-11.52-11.52-11.52zM11.336 16.946c-0.725 0.352-1.504 0.389-1.805 0.389-0.058 0-0.090-0.001-0.095-0.001 0 0-0.023 0-0.059 0-0.47 0-2.812-0.108-2.812-2.24 0-2.095 2.549-2.258 3.33-2.258h0.022c-0.45-0.602-0.356-1.21-0.356-1.21-0.040 0.002-0.098 0.005-0.169 0.005-0.295 0-0.863-0.047-1.35-0.362-0.596-0.383-0.899-1.037-0.899-1.943 0-2.557 2.791-2.66 2.82-2.662h2.788v0.061c0 0.312-0.559 0.372-0.942 0.425-0.13 0.018-0.389 0.044-0.463 0.082 0.707 0.377 0.821 0.971 0.821 1.854 0 1.004-0.394 1.536-0.811 1.91-0.258 0.23-0.462 0.414-0.462 0.656 0 0.238 0.278 0.482 0.602 0.767 0.529 0.466 1.255 1.103 1.255 2.173 0 1.106-0.476 1.898-1.415 2.354zM17.432 11.989h-1.819v1.819h-1.152v-1.819h-1.819v-1.152h1.819v-1.818h1.152v1.819h1.819v1.151zM9.868 13.381c-0.062 0-0.125 0.002-0.187 0.007-0.533 0.038-1.025 0.239-1.381 0.563-0.353 0.319-0.532 0.721-0.506 1.129 0.053 0.852 0.97 1.352 2.081 1.272 1.096-0.079 1.825-0.709 1.771-1.562-0.052-0.803-0.749-1.409-1.777-1.409z" fill="#eeeeee" />
</svg>
