<?xml version="1.0" encoding="utf-8"?>
<!-- Generated by IcoMoon.io -->
<!DOCTYPE svg PUBLIC "-//W3C//DTD SVG 1.1//EN" "http://www.w3.org/Graphics/SVG/1.1/DTD/svg11.dtd">
<svg version="1.1" xmlns="http://www.w3.org/2000/svg" xmlns:xlink="http://www.w3.org/1999/xlink" width="24" height="24" viewBox="0 0 24 24">
	<path d="M6.96 14.64v-7.44h-4.56c-1.32 0-2.4 1.080-2.4 2.4v7.2c0 1.32 1.080 2.4 2.4 2.4h1.2v3.6l3.6-3.6h6c1.32 0 2.4-1.080 2.4-2.4v-2.184c-0.077 0.017-0.158 0.025-0.24 0.025h-8.4zM21.6 1.2h-10.8c-1.32 0-2.4 1.080-2.4 2.4v9.6h8.4l3.6 3.6v-3.6h1.2c1.32 0 2.4-1.080 2.4-2.4v-7.2c0-1.32-1.080-2.4-2.4-2.4z" fill="#eeeeee" />
</svg>
