<?xml version="1.0" encoding="utf-8"?>
<!-- Generated by IcoMoon.io -->
<!DOCTYPE svg PUBLIC "-//W3C//DTD SVG 1.1//EN" "http://www.w3.org/Graphics/SVG/1.1/DTD/svg11.dtd">
<svg version="1.1" xmlns="http://www.w3.org/2000/svg" xmlns:xlink="http://www.w3.org/1999/xlink" width="24" height="24" viewBox="0 0 24 24">
	<path d="M17.855 12.082c-0.329-0.1-0.556-0.169-0.382-0.61 0.373-0.956 0.412-1.781 0.007-2.37-0.76-1.104-2.836-1.045-5.216-0.029 0-0.001-0.748 0.332-0.557-0.272 0.366-1.198 0.311-2.201-0.259-2.78-1.291-1.315-4.726 0.052-7.673 3.048-2.206 2.245-3.486 4.625-3.486 6.683 0 3.936 4.958 6.569 9.81 6.569 6.36 0 10.59-4.001 10.59-6.986 0-1.805-1.493-2.828-2.834-3.252zM10.112 20.556c-3.871 0.383-7.212-1.375-7.464-3.931-0.251-2.555 2.683-4.938 6.554-5.323 3.872-0.385 7.213 1.374 7.464 3.929s-2.683 4.94-6.554 5.326zM24.17 8.876c-0.002-3.974-3.226-7.196-7.2-7.196-0.464 0-0.84 0.376-0.84 0.84s0.376 0.839 0.84 0.839c3.048 0 5.52 2.472 5.52 5.521 0 0.464 0.376 0.84 0.84 0.84s0.84-0.376 0.84-0.84c0 0 0-0.002 0-0.004zM20.832 8.754c-0.384-1.874-1.862-3.352-3.736-3.736-0.454-0.092-0.899 0.199-0.991 0.654-0.094 0.454 0.199 0.898 0.653 0.991 1.219 0.25 2.179 1.21 2.428 2.428 0.094 0.455 0.538 0.746 0.992 0.654 0.454-0.094 0.748-0.538 0.654-0.991zM8.126 13.804c-1.559 0.313-2.611 1.621-2.35 2.921 0.26 1.3 1.736 2.099 3.296 1.784 1.559-0.313 2.611-1.621 2.35-2.921-0.26-1.298-1.736-2.098-3.296-1.784z" fill="#eeeeee" />
</svg>
