<?xml version="1.0" encoding="utf-8"?>
<!-- Generated by IcoMoon.io -->
<!DOCTYPE svg PUBLIC "-//W3C//DTD SVG 1.1//EN" "http://www.w3.org/Graphics/SVG/1.1/DTD/svg11.dtd">
<svg version="1.1" xmlns="http://www.w3.org/2000/svg" xmlns:xlink="http://www.w3.org/1999/xlink" width="24" height="24" viewBox="0 0 24 24">
	<path d="M6.97 2.186c-3.708 1.907-6.010 5.665-6.010 9.836 0 0.761 0.096 1.532 0.265 2.302l9.539-8.686c-1.018-0.925-3.691-3.358-3.794-3.452zM16.552 1.951c-1.441-0.655-2.972-0.991-4.553-0.991-1.121 0-2.226 0.186-3.3 0.529l7.852 7.141v-6.679zM18.23 2.924v12.742h4.182c0.412-1.178 0.626-2.404 0.626-3.643 0.001-3.638-1.828-7.046-4.808-9.098zM1.754 16.114c0.809 2.033 2.23 3.781 4.042 5.021v-8.7l-2.453 2.233c-0.838 0.762-1.537 1.399-1.589 1.446zM7.476 22.109c1.122 0.506 2.296 0.82 3.504 0.931h2.027c3.623-0.338 6.872-2.483 8.639-5.694h-14.17v4.763z" fill="#eeeeee" />
</svg>
