<?xml version="1.0" encoding="utf-8"?>
<!-- Generated by IcoMoon.io -->
<!DOCTYPE svg PUBLIC "-//W3C//DTD SVG 1.1//EN" "http://www.w3.org/Graphics/SVG/1.1/DTD/svg11.dtd">
<svg version="1.1" xmlns="http://www.w3.org/2000/svg" xmlns:xlink="http://www.w3.org/1999/xlink" width="24" height="24" viewBox="0 0 24 24">
	<path d="M17.58 10.216c-2.736-5.888-4.158-8.125-8.629-8.032-1.592 0.032-1.21-1.153-2.424-0.703-1.213 0.449-0.172 1.108-1.414 2.126-3.482 2.858-3.162 5.503-1.547 11.808 0.682 2.654-1.64 2.785-0.722 5.359 0.671 1.876 5.615 2.663 10.831 0.726 5.216-1.934 8.508-5.776 7.837-7.654-0.918-2.573-2.779-1.152-3.932-3.631zM13.109 19.915c-4.657 1.728-8.486 0.712-8.648 0.26-0.278-0.779 1.504-3.379 6.829-5.356 5.326-1.976 8.298-1.243 8.609-0.373 0.184 0.514-2.13 3.739-6.79 5.468zM11.612 15.722c-2.436 0.904-4.128 1.937-5.224 2.868 0.772 0.701 2.215 0.871 3.655 0.337 1.832-0.68 2.958-2.242 2.513-3.486-0.005-0.016-0.013-0.029-0.019-0.043-0.3 0.097-0.608 0.205-0.925 0.324z" fill="#eeeeee" />
</svg>
