<?xml version="1.0" encoding="utf-8"?>
<!-- Generated by IcoMoon.io -->
<!DOCTYPE svg PUBLIC "-//W3C//DTD SVG 1.1//EN" "http://www.w3.org/Graphics/SVG/1.1/DTD/svg11.dtd">
<svg version="1.1" xmlns="http://www.w3.org/2000/svg" xmlns:xlink="http://www.w3.org/1999/xlink" width="24" height="24" viewBox="0 0 24 24">
	<path d="M12 0.48c-6.362 0-11.52 5.158-11.52 11.52s5.158 11.52 11.52 11.52 11.52-5.158 11.52-11.52-5.158-11.52-11.52-11.52zM3.1 8.952l3.019 1.336h-0.221v1.369h1.080c0 0.193-0.019 0.385-0.019 0.578v0.328h-1.061v1.369h1.254c0.174 1.024 0.559 1.852 1.079 2.508 1.080 1.427 2.816 2.198 4.706 2.198 1.234 0 2.352-0.367 3.008-0.733l-0.463-2.14c-0.406 0.212-1.312 0.5-2.198 0.5-0.965 0-1.871-0.288-2.488-0.983-0.289-0.326-0.502-0.772-0.635-1.35h4.192l5.887 2.606c-1.602 2.902-4.691 4.868-8.24 4.868-5.196 0-9.408-4.212-9.408-9.408 0-1.068 0.181-2.092 0.508-3.048zM14.828 11.657h0.173v-1.369h-3.266l-1.325-0.587c0.114-0.257 0.248-0.486 0.407-0.666 0.598-0.733 1.446-1.043 2.371-1.043 0.848 0 1.638 0.251 2.14 0.464l0.54-2.2c-0.695-0.308-1.717-0.577-2.892-0.577-1.813 0-3.355 0.732-4.454 1.967-0.245 0.282-0.456 0.599-0.648 0.932l-3.78-1.673c1.675-2.594 4.589-4.314 7.907-4.314 5.196 0 9.408 4.212 9.408 9.408 0 0.84-0.112 1.654-0.318 2.428l-6.262-2.771z" fill="#eeeeee" />
</svg>
