<?xml version="1.0" encoding="utf-8"?>
<!-- Generated by IcoMoon.io -->
<!DOCTYPE svg PUBLIC "-//W3C//DTD SVG 1.1//EN" "http://www.w3.org/Graphics/SVG/1.1/DTD/svg11.dtd">
<svg version="1.1" xmlns="http://www.w3.org/2000/svg" xmlns:xlink="http://www.w3.org/1999/xlink" width="24" height="24" viewBox="0 0 24 24">
	<path d="M10.339 15.874c-0.63 3.304-1.399 6.472-3.679 8.126-0.703-4.994 1.033-8.744 1.84-12.726-1.375-2.316 0.166-6.974 3.067-5.826 3.57 1.412-3.091 8.608 1.38 9.506 4.669 0.938 6.575-8.1 3.68-11.039-4.183-4.246-12.178-0.098-11.194 5.977 0.239 1.486 1.774 1.937 0.613 3.986-2.677-0.593-3.476-2.705-3.373-5.52 0.166-4.607 4.14-7.832 8.126-8.279 5.042-0.565 9.774 1.85 10.426 6.593 0.736 5.352-2.274 11.149-7.667 10.732-1.46-0.112-2.074-0.835-3.22-1.531z" fill="#eeeeee" />
</svg>
