<?xml version="1.0" encoding="utf-8"?>
<!-- Generated by IcoMoon.io -->
<!DOCTYPE svg PUBLIC "-//W3C//DTD SVG 1.1//EN" "http://www.w3.org/Graphics/SVG/1.1/DTD/svg11.dtd">
<svg version="1.1" xmlns="http://www.w3.org/2000/svg" xmlns:xlink="http://www.w3.org/1999/xlink" width="24" height="24" viewBox="0 0 24 24">
	<path d="M19.2 8.692h-0.72c-0.265 0-0.48 0.216-0.48 0.48v3.308c0 1.604-1.264 4.32-6 4.32s-6-2.716-6-4.32v-3.308c0-0.264-0.217-0.48-0.48-0.48h-0.72c-0.264 0-0.48 0.216-0.48 0.48v3.308c0 2.684 1.973 5.556 6.48 5.952v3.168h-3.121c-0.263 0-0.479 0.216-0.479 0.48v1.44c0 0.264 0.216 0.48 0.479 0.48h8.64c0.265 0 0.48-0.216 0.48-0.48v-1.44c0-0.265-0.216-0.48-0.48-0.48h-3.119v-3.168c4.508-0.396 6.48-3.269 6.48-5.952v-3.308c0-0.264-0.216-0.48-0.48-0.48zM12 14.4c2.816 0 3.6-1.157 3.6-1.92v-3.788h-7.2v3.788c0 0.763 0.784 1.92 3.6 1.92zM15.6 1.92c0-0.764-0.784-1.92-3.6-1.92s-3.6 1.156-3.6 1.92v5.092h7.2v-5.092z" fill="#eeeeee" />
</svg>
