<?xml version="1.0" encoding="utf-8"?>
<!-- Generated by IcoMoon.io -->
<!DOCTYPE svg PUBLIC "-//W3C//DTD SVG 1.1//EN" "http://www.w3.org/Graphics/SVG/1.1/DTD/svg11.dtd">
<svg version="1.1" xmlns="http://www.w3.org/2000/svg" xmlns:xlink="http://www.w3.org/1999/xlink" width="24" height="24" viewBox="0 0 24 24">
	<path d="M9.431 17.633l-0.972 0.965c-0.842 0.834-2.212 0.835-3.053 0-0.404-0.402-0.626-0.934-0.626-1.501s0.223-1.1 0.626-1.502l3.576-3.548c0.74-0.736 2.135-1.817 3.151-0.809 0.467 0.463 1.22 0.46 1.682-0.006 0.463-0.466 0.461-1.219-0.006-1.682-1.727-1.714-4.28-1.397-6.504 0.809l-3.576 3.548c-0.857 0.852-1.33 1.985-1.33 3.191 0 1.205 0.473 2.338 1.331 3.19 0.883 0.877 2.042 1.314 3.202 1.314s2.321-0.437 3.204-1.314l0.972-0.966c0.467-0.463 0.469-1.217 0.006-1.681-0.463-0.466-1.217-0.468-1.684-0.006zM20.269 3.851c-1.855-1.841-4.448-1.94-6.167-0.236l-1.211 1.201c-0.467 0.463-0.47 1.216-0.007 1.682 0.464 0.467 1.217 0.469 1.682 0.006l1.211-1.201c0.889-0.883 2.054-0.517 2.815 0.236 0.404 0.401 0.626 0.935 0.626 1.501 0 0.568-0.223 1.1-0.626 1.501l-3.816 3.785c-1.744 1.73-2.563 0.919-2.912 0.572-0.467-0.463-1.219-0.46-1.681 0.006-0.463 0.467-0.461 1.22 0.006 1.682 0.8 0.794 1.716 1.188 2.674 1.188 1.174 0 2.413-0.59 3.592-1.76l3.815-3.785c0.858-0.851 1.331-1.984 1.331-3.188s-0.473-2.339-1.331-3.191z" fill="#eeeeee" />
</svg>
