<?xml version="1.0" encoding="utf-8"?>
<!-- Generated by IcoMoon.io -->
<!DOCTYPE svg PUBLIC "-//W3C//DTD SVG 1.1//EN" "http://www.w3.org/Graphics/SVG/1.1/DTD/svg11.dtd">
<svg version="1.1" xmlns="http://www.w3.org/2000/svg" xmlns:xlink="http://www.w3.org/1999/xlink" width="24" height="24" viewBox="0 0 24 24">
	<path d="M12 0.48c-6.362 0-11.52 5.158-11.52 11.52s5.158 11.52 11.52 11.52 11.52-5.158 11.52-11.52-5.158-11.52-11.52-11.52zM12 9.342c-0.352 0-0.637 0.286-0.637 0.636v3.802c0 1.492-1.217 2.707-2.713 2.707-1.495 0-2.713-1.216-2.713-2.707v-1.591h2.075v1.591c0 0.35 0.286 0.635 0.637 0.635s0.637-0.284 0.637-0.635v-3.802c0.001-1.493 1.219-2.706 2.714-2.706s2.713 1.214 2.713 2.707v0.725l-1.248 0.4-0.827-0.4v-0.726c-0.001-0.35-0.287-0.636-0.638-0.636zM18.064 13.78c0 1.492-1.218 2.707-2.713 2.707-1.496 0-2.713-1.216-2.713-2.707v-1.624l0.827 0.4 1.248-0.4v1.625c0 0.35 0.286 0.635 0.637 0.635s0.636-0.284 0.636-0.635v-1.591h2.076v1.59z" fill="#eeeeee" />
</svg>
