<?xml version="1.0" encoding="utf-8"?>
<!-- Generated by IcoMoon.io -->
<!DOCTYPE svg PUBLIC "-//W3C//DTD SVG 1.1//EN" "http://www.w3.org/Graphics/SVG/1.1/DTD/svg11.dtd">
<svg version="1.1" xmlns="http://www.w3.org/2000/svg" xmlns:xlink="http://www.w3.org/1999/xlink" width="24" height="24" viewBox="0 0 24 24">
	<path d="M1.8 8.402h20.4c0.684 0 0.572-0.73 0.232-0.848-0.341-0.119-4.132-1.552-4.792-1.552h-1.080v-3.6h-9.12v3.6h-1.080c-0.66 0-4.451 1.433-4.792 1.552-0.341 0.119-0.454 0.848 0.232 0.848zM22.44 9.722h-20.88c-0.66 0-1.32 0.78-1.32 1.44v4.2c0 0.66 0.66 1.44 1.32 1.44h2.378l-1.058 6h18.24l-1.058-6h2.378c0.66 0 1.32-0.78 1.32-1.44v-4.2c0-0.66-0.66-1.44-1.32-1.44zM5.28 20.402l1.68-7.8h10.080l1.679 7.8h-13.439z" fill="#eeeeee" />
</svg>
