<?xml version="1.0" encoding="utf-8"?>
<!-- Generated by IcoMoon.io -->
<!DOCTYPE svg PUBLIC "-//W3C//DTD SVG 1.1//EN" "http://www.w3.org/Graphics/SVG/1.1/DTD/svg11.dtd">
<svg version="1.1" xmlns="http://www.w3.org/2000/svg" xmlns:xlink="http://www.w3.org/1999/xlink" width="24" height="24" viewBox="0 0 24 24">
	<path d="M10.162 1.038c-5.221 0.876-9.202 5.414-9.202 10.885 0 2.719 0.985 5.207 2.615 7.129 3.865-1.871 6.566-6.102 6.587-11.028v-6.986zM12.001 14.71c-0.688 2.848-2.742 5.281-5.302 6.899 1.573 0.863 3.379 1.354 5.3 1.354 1.922 0 3.727-0.491 5.302-1.355-2.56-1.618-4.613-4.050-5.3-6.898zM13.841 7.972c0 4.949 2.707 9.203 6.584 11.081 1.63-1.925 2.615-4.411 2.615-7.129 0-5.47-3.978-10.008-9.199-10.884v6.932z" fill="#eeeeee" />
</svg>
