<?xml version="1.0" encoding="utf-8"?>
<!-- Generated by IcoMoon.io -->
<!DOCTYPE svg PUBLIC "-//W3C//DTD SVG 1.1//EN" "http://www.w3.org/Graphics/SVG/1.1/DTD/svg11.dtd">
<svg version="1.1" xmlns="http://www.w3.org/2000/svg" xmlns:xlink="http://www.w3.org/1999/xlink" width="24" height="24" viewBox="0 0 24 24">
	<path d="M12 7.782c1.070 0 1.606-0.534 1.606-1.603 0-1.084-0.535-1.625-1.606-1.625s-1.604 0.541-1.604 1.625c0 1.069 0.534 1.603 1.604 1.603zM14.366 8.401h-4.732c-0.206 0-0.38 0.072-0.526 0.216s-0.216 0.319-0.216 0.524v4.711h1.316v5.596h3.578v-5.596h1.318v-4.712c0-0.205-0.076-0.379-0.226-0.524-0.151-0.143-0.322-0.215-0.514-0.215zM12 0.48c-6.362 0-11.52 5.158-11.52 11.52s5.158 11.52 11.52 11.52 11.52-5.158 11.52-11.52-5.158-11.52-11.52-11.52zM12 21.408c-5.196 0-9.408-4.212-9.408-9.408s4.212-9.408 9.408-9.408 9.408 4.212 9.408 9.408-4.212 9.408-9.408 9.408z" fill="#eeeeee" />
</svg>
