<?xml version="1.0" encoding="utf-8"?>
<!-- Generated by IcoMoon.io -->
<!DOCTYPE svg PUBLIC "-//W3C//DTD SVG 1.1//EN" "http://www.w3.org/Graphics/SVG/1.1/DTD/svg11.dtd">
<svg version="1.1" xmlns="http://www.w3.org/2000/svg" xmlns:xlink="http://www.w3.org/1999/xlink" width="24" height="24" viewBox="0 0 24 24">
	<path d="M23.149 0.487c-0.13-0.378-0.539-0.577-0.913-0.446s-0.571 0.545-0.44 0.924c1.104 3.204-1.087 5.597-2.756 6.877l-0.676-0.977c-0.226-0.326-0.734-0.599-1.128-0.605l-3.786 0.018c-0.394-0.006-0.979 0.176-1.303 0.404l-11.155 7.906c-0.54 0.383-0.673 1.136-0.294 1.684l5.071 7.328c0.378 0.547 0.986 0.481 1.526 0.1l11.155-7.907c0.324-0.228 0.692-0.725 0.823-1.102l1.186-3.775c0.128-0.377 0.050-0.953-0.175-1.279l-0.413-0.595c2.243-1.734 4.571-4.802 3.278-8.555zM17.959 11.714c-0.865 0.613-2.057 0.4-2.663-0.475-0.605-0.875-0.395-2.081 0.47-2.694 0.686-0.487 1.578-0.451 2.22 0.022-0.324 0.197-0.545 0.31-0.587 0.33-0.358 0.17-0.511 0.602-0.342 0.965 0.122 0.263 0.379 0.418 0.649 0.418 0.102 0 0.206-0.023 0.305-0.070 0.229-0.109 0.478-0.242 0.736-0.397 0.115 0.712-0.166 1.46-0.788 1.902z" fill="#eeeeee" />
</svg>
