<?xml version="1.0" encoding="utf-8"?>
<!-- Generated by IcoMoon.io -->
<!DOCTYPE svg PUBLIC "-//W3C//DTD SVG 1.1//EN" "http://www.w3.org/Graphics/SVG/1.1/DTD/svg11.dtd">
<svg version="1.1" xmlns="http://www.w3.org/2000/svg" xmlns:xlink="http://www.w3.org/1999/xlink" width="24" height="24" viewBox="0 0 24 24">
	<path d="M22.32 4.8h-20.64c-0.924 0-1.68 0.756-1.68 1.68v11.041c0 0.923 0.756 1.679 1.68 1.679h20.64c0.925 0 1.68-0.756 1.68-1.679v-11.041c0-0.924-0.756-1.68-1.68-1.68zM13.2 7.2h2.4v2.4h-2.4v-2.4zM16.8 10.8v2.4h-2.4v-2.4h2.4zM9.6 7.2h2.4v2.4h-2.4v-2.4zM13.2 10.8v2.4h-2.4v-2.4h2.4zM6 7.2h2.4v2.4h-2.4v-2.4zM9.6 10.8v2.4h-2.4v-2.4h2.4zM2.4 7.2h2.4v2.4h-2.4v-2.4zM6 10.8v2.4h-2.4v-2.4h2.4zM4.8 16.8h-2.4v-2.4h2.4v2.4zM18 16.8h-12v-2.4h12v2.4zM21.6 16.8h-2.4v-2.4h2.4v2.4zM18 13.2v-2.4h2.4v2.4h-2.4zM21.6 9.6h-4.8v-2.4h4.8v2.4z" fill="#eeeeee" />
</svg>
