<?xml version="1.0" encoding="utf-8"?>
<!-- Generated by IcoMoon.io -->
<!DOCTYPE svg PUBLIC "-//W3C//DTD SVG 1.1//EN" "http://www.w3.org/Graphics/SVG/1.1/DTD/svg11.dtd">
<svg version="1.1" xmlns="http://www.w3.org/2000/svg" xmlns:xlink="http://www.w3.org/1999/xlink" width="24" height="24" viewBox="0 0 24 24">
	<path d="M13.242 13.177c-0.37-0.215-0.882-0.215-1.3-0.215h-1.369v2.822h1.258c0.466 0 1.058 0.032 1.459-0.248 0.37-0.248 0.577-0.734 0.577-1.198 0-0.431-0.257-0.946-0.625-1.162zM12.725 10.769c0.305-0.232 0.464-0.647 0.464-1.027 0-0.414-0.192-0.811-0.544-1.026-0.37-0.215-1.043-0.166-1.476-0.166h-0.596v2.484h0.788c0.45-0.001 0.979 0.032 1.363-0.265zM19.47 0.48h-14.941c-2.236 0-4.049 1.813-4.049 4.050v14.939c0 2.237 1.813 4.050 4.049 4.050h14.94c2.237 0 4.050-1.813 4.050-4.050v-14.939c0.001-2.237-1.812-4.050-4.049-4.050zM12.625 17.888h-4.706v-11.36h5.142c1.489 0 2.864 0.948 2.864 2.621 0 1.291-0.721 2.176-1.64 2.452v0.032c1.364 0.281 2.338 1.022 2.338 2.809 0 1.654-1.127 3.446-3.997 3.446z" fill="#eeeeee" />
</svg>
