<?xml version="1.0" encoding="utf-8"?>
<!-- Generated by IcoMoon.io -->
<!DOCTYPE svg PUBLIC "-//W3C//DTD SVG 1.1//EN" "http://www.w3.org/Graphics/SVG/1.1/DTD/svg11.dtd">
<svg version="1.1" xmlns="http://www.w3.org/2000/svg" xmlns:xlink="http://www.w3.org/1999/xlink" width="24" height="24" viewBox="0 0 24 24">
	<path d="M20.55 8.608l-2.455-6.763c-0.181-0.499-0.714-0.763-1.187-0.59l-16.316 5.956c-0.474 0.172-0.713 0.716-0.532 1.216l2.588 7.13v-3.822c0-1.724 1.378-3.126 3.073-3.126h4.312l5.142-3.61 2.976 3.61h2.399zM23.086 10.772h-17.364c-0.504 0-0.914 0.431-0.914 0.962v11.305c0 0.53 0.409 0.962 0.914 0.962h17.364c0.505 0 0.914-0.431 0.914-0.962v-11.306c0-0.53-0.409-0.961-0.914-0.961zM21.761 21.596h-14.394v-2.063l2.214-5.154 3.323 4.124 3.116-3.194 4.007-1.446 1.734 3.866v3.866z" fill="#eeeeee" />
</svg>
