<?xml version="1.0" encoding="utf-8"?>
<!-- Generated by IcoMoon.io -->
<!DOCTYPE svg PUBLIC "-//W3C//DTD SVG 1.1//EN" "http://www.w3.org/Graphics/SVG/1.1/DTD/svg11.dtd">
<svg version="1.1" xmlns="http://www.w3.org/2000/svg" xmlns:xlink="http://www.w3.org/1999/xlink" width="24" height="24" viewBox="0 0 24 24">
	<path d="M11.846 0.481c-6.362 0.085-11.45 5.311-11.365 11.672 0.085 6.362 5.311 11.45 11.674 11.366 6.361-0.086 11.45-5.311 11.365-11.674-0.088-6.362-5.314-11.45-11.674-11.365zM12.121 21.094c-5.022 0.068-9.148-3.949-9.216-8.972-0.066-5.022 3.95-9.148 8.974-9.215 5.022-0.067 9.148 3.949 9.215 8.972s-3.949 9.146-8.972 9.215zM6.544 17.405c0 0 5.483-0.752 7.822-3.091 2.339-2.339 3.091-7.822 3.091-7.822s-5.482 0.754-7.82 3.091c-2.339 2.34-3.092 7.822-3.092 7.822zM10.818 10.766c0.983-0.984 2.862-1.681 4.475-2.114-0.433 1.609-1.134 3.503-2.111 4.478-0.653 0.653-1.711 0.653-2.364 0-0.654-0.653-0.654-1.711 0-2.364z" fill="#eeeeee" />
</svg>
