<?xml version="1.0" encoding="utf-8"?>
<!-- Generated by IcoMoon.io -->
<!DOCTYPE svg PUBLIC "-//W3C//DTD SVG 1.1//EN" "http://www.w3.org/Graphics/SVG/1.1/DTD/svg11.dtd">
<svg version="1.1" xmlns="http://www.w3.org/2000/svg" xmlns:xlink="http://www.w3.org/1999/xlink" width="24" height="24" viewBox="0 0 24 24">
	<path d="M20.362 6c0-1.2-1.194-1.2-1.194-1.2h-14.335c0 0-1.194 0-1.194 1.2v1.2h16.723v-1.2zM16.777 2.4h-9.556c0 0-1.194 0-1.194 1.2h11.945c0-1.2-1.195-1.2-1.195-1.2zM22.75 7.2c-0.707-0.71-0.707-0.71-0.707-0.71v1.91h-20.087v-1.91c0 0 0 0-0.707 0.71s-1.213 0.901-0.928 2.401c0.282 1.494 1.654 9.69 1.856 10.799 0.224 1.217 1.46 1.2 1.46 1.2h16.723c0 0 1.236 0.017 1.46-1.2 0.204-1.109 1.574-9.305 1.858-10.799 0.284-1.5-0.222-1.691-0.93-2.401zM16.777 13.68c0 0 0 1.2-1.195 1.2h-7.165c-1.194 0-1.194-1.2-1.194-1.2v-2.4h1.673v1.92h6.208v-1.92h1.675v2.4z" fill="#eeeeee" />
</svg>
