<?xml version="1.0" encoding="utf-8"?>
<!-- Generated by IcoMoon.io -->
<!DOCTYPE svg PUBLIC "-//W3C//DTD SVG 1.1//EN" "http://www.w3.org/Graphics/SVG/1.1/DTD/svg11.dtd">
<svg version="1.1" xmlns="http://www.w3.org/2000/svg" xmlns:xlink="http://www.w3.org/1999/xlink" width="24" height="24" viewBox="0 0 24 24">
	<path d="M11.852 0.961c-6.096 0.082-10.973 5.089-10.891 11.186 0.082 6.098 5.090 10.973 11.186 10.892 6.097-0.082 10.974-5.090 10.891-11.186-0.082-6.098-5.090-10.974-11.186-10.892zM11.873 2.4c1.644-0.023 3.197 0.372 4.56 1.081l-1.486 2.477c-0.89-0.433-1.89-0.678-2.947-0.678-1.056 0-2.056 0.245-2.946 0.679l-1.484-2.476c1.289-0.672 2.75-1.062 4.303-1.084zM5.959 14.946l-2.474 1.483c-0.672-1.288-1.062-2.749-1.082-4.301-0.023-1.645 0.372-3.198 1.081-4.56l2.476 1.487c-0.434 0.889-0.679 1.888-0.679 2.945 0 1.056 0.245 2.056 0.679 2.946zM12.128 21.599c-1.644 0.023-3.198-0.372-4.56-1.081l1.486-2.477c0.89 0.434 1.89 0.679 2.946 0.679 1.057 0 2.057-0.244 2.946-0.678l1.484 2.474c-1.289 0.671-2.749 1.061-4.302 1.082zM12 17.279c-2.916 0-5.279-2.364-5.279-5.279 0-2.916 2.364-5.28 5.279-5.28 2.917 0 5.28 2.364 5.28 5.28 0 2.916-2.363 5.279-5.28 5.279zM18.041 14.946c0.434-0.89 0.679-1.89 0.679-2.946 0-1.057-0.245-2.056-0.679-2.946l2.474-1.486c0.672 1.289 1.063 2.749 1.084 4.302 0.022 1.645-0.373 3.198-1.082 4.56l-2.476-1.484z" fill="#eeeeee" />
</svg>
