<?xml version="1.0" encoding="utf-8"?>
<!-- Generated by IcoMoon.io -->
<!DOCTYPE svg PUBLIC "-//W3C//DTD SVG 1.1//EN" "http://www.w3.org/Graphics/SVG/1.1/DTD/svg11.dtd">
<svg version="1.1" xmlns="http://www.w3.org/2000/svg" xmlns:xlink="http://www.w3.org/1999/xlink" width="24" height="24" viewBox="0 0 24 24">
	<path d="M9.685 11.162c0 0 2.272-0.176 2.272-2.952s-1.859-4.13-4.212-4.13h-7.745v15.511h7.745c0 0 4.727 0.155 4.727-4.577 0.001 0 0.206-3.852-2.786-3.852zM3.413 6.836h4.332c0 0 1.052 0 1.052 1.614 0 1.614-0.619 1.848-1.322 1.848h-4.062v-3.462zM7.525 16.835h-4.112v-4.146h4.332c0 0 1.57-0.022 1.57 2.13 0 1.814-1.172 2.003-1.789 2.016zM18.778 8.027c-5.724 0-5.719 5.958-5.719 5.958s-0.392 5.929 5.719 5.929c0 0 5.093 0.305 5.093-4.126h-2.618c0 0 0.086 1.669-2.387 1.669 0 0-2.62 0.182-2.62-2.698h7.712c0.001 0.001 0.845-6.733-5.18-6.733zM21.107 12.69h-4.889c0 0 0.32-2.392 2.62-2.392 2.297 0 2.269 2.392 2.269 2.392zM21.718 4.993h-6.142v1.91h6.14v-1.91z" fill="#eeeeee" />
</svg>
