<?xml version="1.0" encoding="utf-8"?>
<!-- Generated by IcoMoon.io -->
<!DOCTYPE svg PUBLIC "-//W3C//DTD SVG 1.1//EN" "http://www.w3.org/Graphics/SVG/1.1/DTD/svg11.dtd">
<svg version="1.1" xmlns="http://www.w3.org/2000/svg" xmlns:xlink="http://www.w3.org/1999/xlink" width="24" height="24" viewBox="0 0 24 24">
	<path d="M0.828 13.598l1.636 0.406 1.231-1.934-2.34-0.58c-0.586-0.146-1.177 0.209-1.322 0.792-0.145 0.581 0.211 1.171 0.796 1.316zM22.177 13.91l-5.356 4.822-6.298-4.873c-0.12-0.094-0.258-0.16-0.406-0.197l-0.839-0.206-1.231 1.933 1.319 0.325 6.838 5.29c0.198 0.155 0.433 0.229 0.67 0.229 0.263 0 0.526-0.094 0.732-0.281l6.032-5.43c0.448-0.403 0.481-1.090 0.078-1.535-0.402-0.445-1.092-0.48-1.54-0.077zM10.421 8.617l5.864 3.755c0.494 0.316 1.152 0.185 1.487-0.296l6.034-8.69c0.342-0.494 0.218-1.17-0.277-1.512s-1.175-0.217-1.518 0.276l-5.434 7.826-5.9-3.778c-0.244-0.156-0.54-0.209-0.824-0.146s-0.53 0.234-0.685 0.479l-8.996 14.123c-0.324 0.506-0.173 1.176 0.336 1.498 0.181 0.115 0.384 0.169 0.584 0.169 0.361 0 0.714-0.178 0.922-0.504l8.408-13.199z" fill="#eeeeee" />
</svg>
