<?xml version="1.0" encoding="utf-8"?>
<!-- Generated by IcoMoon.io -->
<!DOCTYPE svg PUBLIC "-//W3C//DTD SVG 1.1//EN" "http://www.w3.org/Graphics/SVG/1.1/DTD/svg11.dtd">
<svg version="1.1" xmlns="http://www.w3.org/2000/svg" xmlns:xlink="http://www.w3.org/1999/xlink" width="24" height="24" viewBox="0 0 24 24">
	<path d="M6.719 10.25c0-1.964 0.521-3.214 2.267-3.494 0.61-0.12 1.879-0.077 2.687-0.077v3c0 0.026 0.004 0.076 0.011 0.101 0.032 0.12 0.142 0.21 0.272 0.21 0.074 0 0.143-0.038 0.215-0.108l7.482-7.481-10.594-0.001c-4.409 0-6.659 2.539-6.659 7.279v9.946l4.319-4.322v-5.052zM17.282 8.699v5.051c0 1.964-0.522 3.215-2.268 3.494-0.61 0.12-1.878 0.077-2.686 0.077v-3c0-0.026-0.005-0.076-0.011-0.101-0.034-0.121-0.144-0.21-0.275-0.211-0.074 0-0.142 0.038-0.215 0.109l-7.482 7.48 10.596 0.002c4.408 0 6.658-2.538 6.658-7.279v-9.946l-4.318 4.324z" fill="#eeeeee" />
</svg>
