<?xml version="1.0" encoding="utf-8"?>
<!-- Generated by IcoMoon.io -->
<!DOCTYPE svg PUBLIC "-//W3C//DTD SVG 1.1//EN" "http://www.w3.org/Graphics/SVG/1.1/DTD/svg11.dtd">
<svg version="1.1" xmlns="http://www.w3.org/2000/svg" xmlns:xlink="http://www.w3.org/1999/xlink" width="24" height="24" viewBox="0 0 24 24">
	<path d="M15.121 11.84v-10.64c0-0.662-0.538-1.2-1.2-1.2h-4.081c-0.664 0-0.96 0.538-0.96 1.2v10.64c-2.003 1.103-3.36 3.233-3.36 5.68 0 3.578 2.902 6.48 6.48 6.48s6.48-2.902 6.48-6.48c0-2.447-1.357-4.577-3.359-5.68zM12 21.6c-2.254 0-4.080-1.826-4.080-4.080 0-1.865 1.253-3.432 2.962-3.92v-8.8h2.4v8.848c1.625 0.538 2.8 2.068 2.8 3.872-0.001 2.254-1.828 4.080-4.081 4.080z" fill="#eeeeee" />
</svg>
