<?xml version="1.0" encoding="utf-8"?>
<!-- Generated by IcoMoon.io -->
<!DOCTYPE svg PUBLIC "-//W3C//DTD SVG 1.1//EN" "http://www.w3.org/Graphics/SVG/1.1/DTD/svg11.dtd">
<svg version="1.1" xmlns="http://www.w3.org/2000/svg" xmlns:xlink="http://www.w3.org/1999/xlink" width="24" height="24" viewBox="0 0 24 24">
	<path d="M1.679 12c0 0.335 0.335 0.575 0.335 0.575l8.956 5.939c0.686 0.46 1.25 0.122 1.25-0.749v-11.531c0-0.871-0.564-1.207-1.25-0.75l-8.956 5.94c0.001 0.001-0.335 0.241-0.335 0.576zM12.57 12c0 0.335 0.335 0.575 0.335 0.575l8.644 5.939c0.688 0.46 1.25 0.122 1.25-0.749v-11.531c0-0.871-0.563-1.207-1.25-0.75l-8.644 5.94c0 0.001-0.335 0.241-0.335 0.576z" fill="#eeeeee" />
</svg>
