<?xml version="1.0" encoding="utf-8"?>
<!-- Generated by IcoMoon.io -->
<!DOCTYPE svg PUBLIC "-//W3C//DTD SVG 1.1//EN" "http://www.w3.org/Graphics/SVG/1.1/DTD/svg11.dtd">
<svg version="1.1" xmlns="http://www.w3.org/2000/svg" xmlns:xlink="http://www.w3.org/1999/xlink" width="24" height="24" viewBox="0 0 24 24">
	<path d="M18.482 17.284l-3.151-9.043c-0.868-2.489-3.56-3.864-6.112-3.185l-2.371-4.601c-0.215-0.416-0.718-0.576-1.124-0.356-0.407 0.221-0.563 0.737-0.348 1.153l2.315 4.492c-1.844 1.224-2.803 3.544-2.196 5.728l2.568 9.235c0.722 2.596 3.696 3.918 6.685 3.004 2.951-1.036 4.621-3.884 3.734-6.426zM10.679 10.708c-0.875 0.287-1.813-0.206-2.094-1.105-0.281-0.898 0.202-1.859 1.078-2.146 0.876-0.288 1.814 0.206 2.095 1.104s-0.202 1.859-1.079 2.147z" fill="#eeeeee" />
</svg>
