<?xml version="1.0" encoding="utf-8"?>
<!-- Generated by IcoMoon.io -->
<!DOCTYPE svg PUBLIC "-//W3C//DTD SVG 1.1//EN" "http://www.w3.org/Graphics/SVG/1.1/DTD/svg11.dtd">
<svg version="1.1" xmlns="http://www.w3.org/2000/svg" xmlns:xlink="http://www.w3.org/1999/xlink" width="24" height="24" viewBox="0 0 24 24">
	<path d="M10.2 1.2h-1.079c-0.265 0-0.481 0.216-0.481 0.48v4.56h-4.243c-0.198 0-0.444 0.046-0.679 0.118-0.238 0.073-0.464 0.174-0.626 0.284l-2.85 1.956c-0.161 0.11-0.241 0.256-0.241 0.402s0.080 0.292 0.241 0.402l2.85 1.956c0.162 0.11 0.389 0.211 0.626 0.284 0.235 0.072 0.481 0.118 0.679 0.118h4.243v10.56c0 0.265 0.216 0.48 0.48 0.48h1.080c0.265 0 0.48-0.216 0.48-0.48v-20.64c0-0.264-0.215-0.48-0.48-0.48zM23.759 6.199l-2.85-1.956c-0.161-0.11-0.388-0.211-0.625-0.284-0.236-0.073-0.482-0.119-0.68-0.119h-8.203l0.961 5.52h7.242c0.198 0 0.444-0.046 0.68-0.118s0.464-0.174 0.625-0.283l2.85-1.956c0.162-0.112 0.241-0.257 0.241-0.403s-0.079-0.292-0.241-0.401z" fill="#eeeeee" />
</svg>
