<?xml version="1.0" encoding="utf-8"?>
<!-- Generated by IcoMoon.io -->
<!DOCTYPE svg PUBLIC "-//W3C//DTD SVG 1.1//EN" "http://www.w3.org/Graphics/SVG/1.1/DTD/svg11.dtd">
<svg version="1.1" xmlns="http://www.w3.org/2000/svg" xmlns:xlink="http://www.w3.org/1999/xlink" width="24" height="24" viewBox="0 0 24 24">
	<path d="M13.597 1.68v0c-5.89 0-9.598 2.029-9.349 3.66 0.072 0.466 0.27 1.734 0.521 3.33-2.886 1.121-3.842 2.936-3.714 4.418 0.151 1.753 1.729 3.63 5.194 3.955 1.978 0.184 4.357-0.9 5.9-2.754-0.148-0.25-0.232-0.538-0.232-0.848 0-0.928 0.751-1.68 1.679-1.68s1.68 0.752 1.68 1.68c0 0.914-0.732 1.657-1.642 1.678-1.836 2.368-4.631 3.796-7.278 3.629 0.061 0.39 0.085 0.538 0.115 0.736 0.109 0.694 2.816 2.832 7.124 2.836h0.001c4.308-0.004 7.016-2.142 7.124-2.836 0.107-0.69 1.97-12.487 2.222-14.143 0.25-1.63-3.46-3.66-9.347-3.66zM2.729 12.942c-0.066-0.77 0.546-1.796 2.308-2.567 0.253 1.609 0.529 3.356 0.772 4.89-1.925-0.378-2.998-1.381-3.079-2.323zM13.596 7.829c-4.308-0.002-7.364-1.602-7.364-2.198-0.002-0.594 3.056-2.196 7.364-2.194 4.308-0.002 7.368 1.6 7.366 2.194 0 0.596-3.056 2.196-7.366 2.198z" fill="#eeeeee" />
</svg>
