<?xml version="1.0" encoding="utf-8"?>
<!-- Generated by IcoMoon.io -->
<!DOCTYPE svg PUBLIC "-//W3C//DTD SVG 1.1//EN" "http://www.w3.org/Graphics/SVG/1.1/DTD/svg11.dtd">
<svg version="1.1" xmlns="http://www.w3.org/2000/svg" xmlns:xlink="http://www.w3.org/1999/xlink" width="24" height="24" viewBox="0 0 24 24">
	<path d="M17.784 17.338c-2.958-1.078-3.904-1.987-3.904-3.935 0-1.169 0.904-0.787 1.3-2.928 0.164-0.888 0.962-0.014 1.116-2.041 0-0.808-0.436-1.009-0.436-1.009s0.222-1.196 0.308-2.116c0.106-1.147-0.662-4.109-4.769-4.109-4.105 0-4.876 2.962-4.768 4.109 0.086 0.919 0.308 2.116 0.308 2.116s-0.437 0.2-0.437 1.009c0.152 2.027 0.95 1.153 1.115 2.041 0.397 2.141 1.301 1.759 1.301 2.928 0 1.948-0.946 2.857-3.904 3.935-2.969 1.080-4.896 2.183-4.896 2.935 0 0.751 0 2.526 0 2.526h22.56c0 0 0-1.775 0-2.526s-1.928-1.854-4.896-2.935z" fill="#eeeeee" />
</svg>
