<?xml version="1.0" encoding="utf-8"?>
<!-- Generated by IcoMoon.io -->
<!DOCTYPE svg PUBLIC "-//W3C//DTD SVG 1.1//EN" "http://www.w3.org/Graphics/SVG/1.1/DTD/svg11.dtd">
<svg version="1.1" xmlns="http://www.w3.org/2000/svg" xmlns:xlink="http://www.w3.org/1999/xlink" width="24" height="24" viewBox="0 0 24 24">
	<path d="M3.316 16.274c-1.817 1.786-0.282 3.619-2.696 6.337-1.090 1.226 4.486 0.852 7.248-1.864 1.171-1.151 0.841-2.83-0.415-4.066-1.256-1.235-2.965-1.559-4.136-0.408zM23.449 0.79c-0.932-0.916-11.255 7.356-14.328 10.376-1.525 1.499-2.034 2.303-2.502 2.904-0.203 0.262 0.066 0.342 0.186 0.404 0.604 0.307 1.026 0.593 1.573 1.13 0.547 0.536 0.839 0.952 1.151 1.546 0.062 0.119 0.145 0.383 0.41 0.182 0.612-0.46 1.429-0.96 2.953-2.459 3.073-3.020 11.486-13.168 10.556-14.084z" fill="#eeeeee" />
</svg>
