<?xml version="1.0" encoding="utf-8"?>
<!-- Generated by IcoMoon.io -->
<!DOCTYPE svg PUBLIC "-//W3C//DTD SVG 1.1//EN" "http://www.w3.org/Graphics/SVG/1.1/DTD/svg11.dtd">
<svg version="1.1" xmlns="http://www.w3.org/2000/svg" xmlns:xlink="http://www.w3.org/1999/xlink" width="24" height="24" viewBox="0 0 24 24">
	<path d="M5.887 13.85l4.262 4.262 7.82-7.82-4.264-4.262-7.819 7.82zM22.926 7.997l-1.814-1.813c-0.347 0.187-0.74 0.295-1.163 0.295-1.34 0-2.428-1.087-2.428-2.429 0-0.421 0.106-0.817 0.295-1.163l-1.814-1.813c-0.474-0.473-1.244-0.473-1.718 0l-13.21 13.211c-0.473 0.473-0.473 1.246 0 1.718l1.814 1.814c0.346-0.188 0.742-0.295 1.162-0.295 1.342 0 2.429 1.086 2.429 2.428 0 0.421-0.107 0.817-0.296 1.163l1.813 1.814c0.473 0.473 1.246 0.473 1.718 0l13.212-13.212c0.472-0.473 0.472-1.246 0-1.718zM10.15 20.063l-6.211-6.212 9.77-9.769 6.211 6.211-9.77 9.77z" fill="#eeeeee" />
</svg>
