<?xml version="1.0" encoding="utf-8"?>
<!-- Generated by IcoMoon.io -->
<!DOCTYPE svg PUBLIC "-//W3C//DTD SVG 1.1//EN" "http://www.w3.org/Graphics/SVG/1.1/DTD/svg11.dtd">
<svg version="1.1" xmlns="http://www.w3.org/2000/svg" xmlns:xlink="http://www.w3.org/1999/xlink" width="24" height="24" viewBox="0 0 24 24">
	<path d="M7.332 3.275v14.24c-0.775-0.162-1.678-0.101-2.573 0.23-2.012 0.748-2.723 2.568-2.189 4.063 0.533 1.496 2.108 2.101 4.121 1.354 1.709-0.635 2.828-2.041 2.8-3.368 0 0 0-7.552 0-11.764l8.521-1.952v9.036c-0.775-0.162-1.678-0.101-2.573 0.23-2.014 0.748-2.724 2.568-2.19 4.063 0.534 1.496 2.108 2.101 4.122 1.354 1.71-0.635 2.827-2.041 2.801-3.368v-16.877l-12.84 2.759z" fill="#eeeeee" />
</svg>
