<?xml version="1.0" encoding="utf-8"?>
<!-- Generated by IcoMoon.io -->
<!DOCTYPE svg PUBLIC "-//W3C//DTD SVG 1.1//EN" "http://www.w3.org/Graphics/SVG/1.1/DTD/svg11.dtd">
<svg version="1.1" xmlns="http://www.w3.org/2000/svg" xmlns:xlink="http://www.w3.org/1999/xlink" width="24" height="24" viewBox="0 0 24 24">
	<path d="M3.173 7.628c2.096-1.8 3.754-3.224 8.246-0.684 2.159 1.22 3.9 1.679 5.35 1.679 2.538 0 4.182-1.412 5.604-2.633 0.508-0.436 0.574-1.21 0.146-1.727s-1.183-0.584-1.691-0.149c-2.096 1.801-3.752 3.224-8.248 0.684-5.938-3.354-8.719-0.965-10.954 0.955-0.506 0.436-0.572 1.208-0.146 1.726s1.184 0.586 1.692 0.149zM20.827 10.243c-2.096 1.8-3.752 3.224-8.248 0.684-5.936-3.354-8.718-0.965-10.952 0.954-0.508 0.436-0.574 1.21-0.146 1.727s1.183 0.584 1.691 0.149c2.096-1.801 3.754-3.224 8.246-0.685 2.159 1.22 3.9 1.68 5.35 1.68 2.538 0 4.182-1.412 5.604-2.634 0.508-0.436 0.574-1.208 0.146-1.726-0.426-0.518-1.183-0.584-1.691-0.149zM20.827 16.372c-2.096 1.8-3.752 3.224-8.248 0.684-5.936-3.354-8.719-0.966-10.952 0.954-0.508 0.436-0.574 1.21-0.146 1.727s1.183 0.584 1.691 0.149c2.098-1.801 3.754-3.223 8.248-0.685 2.159 1.22 3.9 1.68 5.35 1.68 2.538 0 4.182-1.412 5.604-2.634 0.508-0.434 0.574-1.208 0.146-1.726s-1.184-0.586-1.692-0.149z" fill="#eeeeee" />
</svg>
