<?xml version="1.0" encoding="utf-8"?>
<!-- Generated by IcoMoon.io -->
<!DOCTYPE svg PUBLIC "-//W3C//DTD SVG 1.1//EN" "http://www.w3.org/Graphics/SVG/1.1/DTD/svg11.dtd">
<svg version="1.1" xmlns="http://www.w3.org/2000/svg" xmlns:xlink="http://www.w3.org/1999/xlink" width="24" height="24" viewBox="0 0 24 24">
	<path d="M16.908 2.681c-1.369-0.988-3.086-1.481-5.155-1.481-1.574 0-2.902 0.348-3.98 1.042-1.712 1.087-2.622 2.933-2.732 5.537h3.967c0-0.758 0.221-1.489 0.664-2.192s1.194-1.055 2.254-1.055c1.076 0 1.819 0.286 2.225 0.856 0.407 0.572 0.61 1.205 0.61 1.898 0 0.604-0.302 1.156-0.667 1.658-0.2 0.293-0.466 0.562-0.793 0.809 0 0-2.152 1.38-3.097 2.489-0.548 0.643-0.598 1.606-0.646 2.987-0.004 0.098 0.034 0.301 0.378 0.301s2.78 0 3.086 0 0.37-0.227 0.374-0.326c0.022-0.503 0.078-0.76 0.17-1.050 0.174-0.548 0.644-1.027 1.175-1.439l1.092-0.754c0.985-0.768 1.772-1.398 2.119-1.892 0.593-0.814 1.009-1.814 1.009-3.001 0-1.938-0.685-3.4-2.052-4.386zM11.689 17.909c-1.368-0.041-2.496 0.905-2.539 2.388-0.043 1.482 1.030 2.461 2.398 2.502 1.428 0.042 2.526-0.874 2.569-2.356 0.042-1.483-1-2.492-2.428-2.534z" fill="#eeeeee" />
</svg>
