<?xml version="1.0" encoding="utf-8"?>
<!-- Generated by IcoMoon.io -->
<!DOCTYPE svg PUBLIC "-//W3C//DTD SVG 1.1//EN" "http://www.w3.org/Graphics/SVG/1.1/DTD/svg11.dtd">
<svg version="1.1" xmlns="http://www.w3.org/2000/svg" xmlns:xlink="http://www.w3.org/1999/xlink" width="24" height="24" viewBox="0 0 24 24">
	<path d="M0.96 12c0 6.097 4.944 11.040 11.040 11.040 6.097 0 11.040-4.943 11.040-11.040 0-6.097-4.943-11.040-11.040-11.040-6.097 0-11.040 4.943-11.040 11.040zM20.64 12c0 4.771-3.869 8.64-8.64 8.64s-8.64-3.868-8.64-8.64c0-4.772 3.868-8.64 8.64-8.64s8.64 3.868 8.64 8.64zM7.38 9.84v4.32h4.908v2.7l4.572-4.86-4.572-4.86v2.7h-4.908z" fill="#eeeeee" />
</svg>
