<?xml version="1.0" encoding="utf-8"?>
<!-- Generated by IcoMoon.io -->
<!DOCTYPE svg PUBLIC "-//W3C//DTD SVG 1.1//EN" "http://www.w3.org/Graphics/SVG/1.1/DTD/svg11.dtd">
<svg version="1.1" xmlns="http://www.w3.org/2000/svg" xmlns:xlink="http://www.w3.org/1999/xlink" width="24" height="24" viewBox="0 0 24 24">
	<path d="M6.619 17.069c-2.714-2.92-2.666-7.494 0.152-10.333 1.154-1.162 2.597-1.855 4.097-2.083l-0.083-2.492c-2.105 0.256-4.142 1.195-5.756 2.82-3.779 3.806-3.823 9.948-0.148 13.838l-2.089 2.104 6.612 0.361-0.018-7.001-2.767 2.786zM14.594 2.718l0.018 7.001 2.768-2.788c2.714 2.92 2.668 7.494-0.152 10.333-1.154 1.163-2.597 1.855-4.098 2.083l0.083 2.491c2.106-0.256 4.144-1.195 5.758-2.821 3.778-3.805 3.824-9.948 0.146-13.837l2.089-2.104-6.612-0.359z" fill="#eeeeee" />
</svg>
