<?xml version="1.0" encoding="utf-8"?>
<!-- Generated by IcoMoon.io -->
<!DOCTYPE svg PUBLIC "-//W3C//DTD SVG 1.1//EN" "http://www.w3.org/Graphics/SVG/1.1/DTD/svg11.dtd">
<svg version="1.1" xmlns="http://www.w3.org/2000/svg" xmlns:xlink="http://www.w3.org/1999/xlink" width="24" height="24" viewBox="0 0 24 24">
	<path d="M23.76 6v-1.44c0-0.53-0.431-0.96-0.96-0.96h-21.6c-0.53 0-0.96 0.43-0.96 0.96v1.44h2.4v2.4h-2.4v2.4h2.4v2.4h-2.4v2.4h2.4v2.4h-2.4v1.44c0 0.53 0.43 0.96 0.96 0.96h21.6c0.529 0 0.96-0.43 0.96-0.96v-1.44h-2.4v-2.4h2.4v-2.4h-2.4v-2.4h2.4v-2.4h-2.4v-2.4h2.4zM9.36 15.6v-7.2l6 3.6-6 3.6z" fill="#eeeeee" />
</svg>
