<?xml version="1.0" encoding="utf-8"?>
<!-- Generated by IcoMoon.io -->
<!DOCTYPE svg PUBLIC "-//W3C//DTD SVG 1.1//EN" "http://www.w3.org/Graphics/SVG/1.1/DTD/svg11.dtd">
<svg version="1.1" xmlns="http://www.w3.org/2000/svg" xmlns:xlink="http://www.w3.org/1999/xlink" width="24" height="24" viewBox="0 0 24 24">
	<path d="M12 1.44c-5.832 0-10.56 4.728-10.56 10.56 0 2.666 0.988 5.101 2.618 6.959 1.651-1.651 3.914-2.579 6.512-2.495 3.313 0.107 5.928 1.676 7.428 4.228 2.755-1.906 4.561-5.087 4.561-8.692 0-5.832-4.729-10.56-10.56-10.56zM17.164 15.764c-0.186 0.308-0.584 0.403-0.89 0.217-2.446-1.494-5.522-1.831-9.146-1.004-0.348 0.080-0.697-0.138-0.775-0.488-0.080-0.348 0.137-0.696 0.487-0.775 3.965-0.906 7.367-0.515 10.11 1.159 0.305 0.187 0.402 0.586 0.215 0.892zM18.436 12.769c-0.234 0.382-0.733 0.5-1.115 0.265-2.796-1.718-7.063-2.216-10.373-1.212-0.43 0.13-0.883-0.113-1.013-0.54-0.13-0.43 0.113-0.883 0.54-1.013 3.781-1.148 8.482-0.593 11.695 1.382 0.382 0.236 0.503 0.733 0.265 1.117zM18.546 9.666c-3.354-1.994-8.89-2.176-12.092-1.205-0.514 0.157-1.057-0.134-1.216-0.648-0.155-0.515 0.136-1.060 0.65-1.214 3.678-1.117 9.79-0.901 13.651 1.392 0.463 0.275 0.616 0.872 0.341 1.334-0.275 0.462-0.87 0.613-1.334 0.341zM10.502 19.621c-1.486-0.048-2.723 0.532-3.625 1.615 1.517 0.842 3.263 1.324 5.123 1.324 0.896 0 1.768-0.112 2.598-0.323-0.797-1.634-2.185-2.555-4.096-2.616z" fill="#eeeeee" />
</svg>
