<?xml version="1.0" encoding="utf-8"?>
<!-- Generated by IcoMoon.io -->
<!DOCTYPE svg PUBLIC "-//W3C//DTD SVG 1.1//EN" "http://www.w3.org/Graphics/SVG/1.1/DTD/svg11.dtd">
<svg version="1.1" xmlns="http://www.w3.org/2000/svg" xmlns:xlink="http://www.w3.org/1999/xlink" width="24" height="24" viewBox="0 0 24 24">
	<path d="M18.256 9.167c-0.33 0-0.655 0.029-0.971 0.082-0.787-2.574-3.226-4.45-6.115-4.45-3.526 0-6.383 2.794-6.383 6.24 0 0.307 0.024 0.61 0.068 0.906-0.169-0.019-0.34-0.032-0.515-0.032-2.396 0-4.34 1.901-4.34 4.243 0 2.344 1.944 4.243 4.34 4.243h13.915c3.174 0 5.744-2.515 5.744-5.616 0-3.101-2.572-5.616-5.744-5.616zM13.646 14.34c-0.594 0.845-3.138 3.467-3.246 3.577-0.125 0.154-0.469 0.412-0.796 0.199-0.094-0.061-0.206-0.184-0.206-0.425 0-0.232 0.106-0.468 0.119-0.494l1.24-2.743c-0.233-0.092-0.632-0.254-0.943-0.39l-0.083-0.036c-0.314-0.132-0.706-0.299-0.706-0.73 0-0.205 0.098-0.445 0.299-0.731 0.594-0.845 3.138-3.466 3.246-3.577 0.125-0.154 0.468-0.412 0.796-0.2 0.094 0.061 0.206 0.184 0.206 0.425 0 0.232-0.106 0.468-0.119 0.494l-1.24 2.743c0.233 0.094 0.632 0.256 0.943 0.39l0.082 0.035c0.314 0.133 0.706 0.3 0.706 0.731 0.001 0.208-0.097 0.446-0.298 0.732z" fill="#eeeeee" />
</svg>
