<?xml version="1.0" encoding="utf-8"?>
<!-- Generated by IcoMoon.io -->
<!DOCTYPE svg PUBLIC "-//W3C//DTD SVG 1.1//EN" "http://www.w3.org/Graphics/SVG/1.1/DTD/svg11.dtd">
<svg version="1.1" xmlns="http://www.w3.org/2000/svg" xmlns:xlink="http://www.w3.org/1999/xlink" width="24" height="24" viewBox="0 0 24 24">
	<path d="M16.711 8.71h-2.51v-2.51c0-0.178-0.061-0.329-0.185-0.454-0.124-0.122-0.275-0.185-0.452-0.185h-6.336c-0.164 0.028-0.302 0.101-0.41 0.216-0.11 0.116-0.166 0.257-0.166 0.422v8.474c0 0.178 0.062 0.329 0.185 0.452s0.275 0.185 0.452 0.185h2.51v2.51c0 0.178 0.061 0.329 0.185 0.452 0.124 0.124 0.275 0.185 0.452 0.185h6.275c0.178 0 0.329-0.062 0.452-0.185s0.185-0.275 0.185-0.452v-8.474c0-0.178-0.062-0.329-0.185-0.452-0.124-0.124-0.275-0.185-0.452-0.185zM10.355 8.71c-0.151 0.026-0.281 0.1-0.391 0.216s-0.164 0.256-0.164 0.421v4.71h-1.892v-7.22h5.040v1.873h-2.592zM16.093 17.184h-5.040v-7.22h5.040v7.22zM12 0.48c-6.362 0-11.52 5.158-11.52 11.52s5.158 11.52 11.52 11.52 11.52-5.158 11.52-11.52-5.158-11.52-11.52-11.52zM12 21.408c-5.196 0-9.408-4.212-9.408-9.408s4.212-9.408 9.408-9.408 9.408 4.212 9.408 9.408-4.212 9.408-9.408 9.408z" fill="#eeeeee" />
</svg>
