<?xml version="1.0" encoding="UTF-8" standalone="no"?>
<!-- Generator: Adobe Illustrator 16.0.4, SVG Export Plug-In . SVG Version: 6.00 Build 0)  -->
<!DOCTYPE svg  PUBLIC '-//W3C//DTD SVG 1.1//EN'  'http://www.w3.org/Graphics/SVG/1.1/DTD/svg11.dtd'>
<svg id="svg2" xmlns:rdf="http://www.w3.org/1999/02/22-rdf-syntax-ns#" xmlns="http://www.w3.org/2000/svg" enable-background="new 546.417 82.375 162.749 411.688" xml:space="preserve" height="411.69px" viewBox="546.417 82.375 162.749 411.688" width="162.75px" version="1.1" y="0px" x="0px" xmlns:cc="http://creativecommons.org/ns#" xmlns:xlink="http://www.w3.org/1999/xlink" xmlns:dc="http://purl.org/dc/elements/1.1/">
		<g id="g10" transform="matrix(1.25,0,0,-1.25,0,990)">
			<g id="g260">
					<g id="g262">
						<g id="g268" transform="translate(530.55 424.16)">
							<path id="path270" d="m0 0c5.363 2.933 13.066 8.015 17.51 12.458 12.225 12.225 18.958 28.478 18.958 45.769v121.24c0 29.86-7.177 59.607-19.419 81.55l-1.18 5.719-5.105 24.76-0.045 0.2-0.055 0.192c-0.188 0.64-2.02 6.331-8.158 8.543l-2.995 1.078-2.207-2.294-0.761-0.791-17.021-3.206 0.377-0.272c-5.503 0.316-21.124-0.316-23.678-0.535h-0.377l-8.88 3.928-0.845 0.876-2.208 2.294-2.996-1.078c-6.138-2.212-7.969-7.903-8.156-8.543l-0.058-0.192-0.04-0.2-5.109-24.76-1.212-5.878c-12.185-21.928-19.325-51.602-19.325-81.391v-121.25c0-17.291 6.733-33.544 18.959-45.769 4.635-4.636 12.581-9.847 18.214-12.838l-0.01 0.28v8.248l6.737 1.363 0.15-0.03v-35.441c7.306-0.877 14.788-1.358 21.055-1.358s13.75 0.48 21.058 1.358v35.49l0.15-0.019 6.734-1.363v-7.924l-0.062-0.227z" fill="#fff"/>
						</g>
					</g>
			</g>
			<g id="g272">
					<g id="g274">
						<g id="g280" transform="translate(474.67 423.91)">
								<path id="path282" stroke-linejoin="round" d="m0 0c-5.634 2.99-13.579 8.201-18.214 12.837-12.227 12.225-18.96 28.48-18.96 45.769v121.24c0 29.79 7.14 59.464 19.325 81.394l1.213 5.878 5.109 24.758 0.041 0.199 0.057 0.194c0.187 0.639 2.019 6.328 8.157 8.541l2.995 1.079 2.207-2.293 0.845-0.878 8.881-3.927m23.678 0.81l17.021 3.207 0.762 0.79 2.207 2.293 2.995-1.079c6.139-2.213 7.969-7.902 8.158-8.541l0.056-0.194 0.044-0.199 5.105-24.758 1.18-5.72c12.241-21.944 19.42-51.691 19.42-81.552v-121.24c0-17.288-6.732-33.544-18.959-45.769-4.444-4.446-12.146-9.529-17.509-12.462" stroke="#918F90" stroke-width=".909" fill="none"/>
						</g>
					</g>
			</g>
			<g id="g284">
					<g id="g286">
						<g id="g292" transform="translate(562.41 482.51)">
							<path id="path294" d="m0 0v121.24c0 33.335-9.054 65.323-23.118 86.279h2.62l-5.107 24.76s-1.138 3.874-5.109 5.304l-2.557-2.654c-4.409 0.882-15.301 1.791-18.765 1.791v-29.21h-3.675c0 0.003 0.002 0.006 0.002 0.009 0 2.221-1.801 4.02-4.022 4.02-2.22 0-4.018-1.799-4.018-4.02v-0.009h-11.964v28.675c-3.465 0-6.267-0.708-10.71-1.256l-2.555 2.654c-3.97-1.43-5.11-5.304-5.11-5.304l-5.109-24.76h2.678c-14.059-20.956-23.112-52.944-23.112-86.279v-121.23" fill="#fff"/>
						</g>
						<g id="g296" transform="translate(562.41 482.51)">
								<path id="path298" stroke-linejoin="round" d="m0 0v121.24c0 33.335-9.054 65.323-23.118 86.279h2.62l-5.107 24.76s-1.138 3.874-5.109 5.304l-2.557-2.654c-4.409 0.882-15.301 1.791-18.765 1.791v-29.21h-3.675c0 0.003 0.002 0.006 0.002 0.009 0 2.221-1.801 4.02-4.022 4.02-2.22 0-4.018-1.799-4.018-4.02v-0.009h-11.964v28.675c-3.465 0-6.267-0.708-10.71-1.256l-2.555 2.654c-3.97-1.43-5.11-5.304-5.11-5.304l-5.109-24.76h2.678c-14.059-20.956-23.112-52.944-23.112-86.279v-121.23m111.08-39.015c5.369 13.828 8.46 27.967 8.46 39.127v121.24c0 33.336-9.054 65.322-23.118 86.279h2.62l-5.105 24.758s-1.139 3.873-5.11 5.304l-2.555-2.651c-4.411 0.879-15.3 1.791-18.766 1.791v-29.211h-3.675c0 0.004 0.002 0.005 0.002 0.009 0 2.221-1.8 4.02-4.021 4.02-2.219 0-4.019-1.799-4.019-4.02v-0.009h-11.964v28.675c-3.464 0-6.266-0.709-10.709-1.255l-2.555 2.651c-3.97-1.431-5.109-5.304-5.109-5.304l-5.109-24.758h2.678c-14.062-20.959-23.113-52.943-23.113-86.279v-121.24c0-11.44 3.177-26.006 8.703-40.16" stroke="#918F90" stroke-width=".909" fill="none"/>
						</g>
						<path id="path300" d="m481.52 668.35h-5.85v1.347h5.85v-1.35z" stroke="#918F90" stroke-width=".454" fill="#fff"/>
						<path id="path302" d="m481.52 669.7h-5.85v1.349h5.85v-1.35z" stroke="#918F90" stroke-width=".454" fill="#fff"/>
						<path id="path304" d="m481.52 671.04h-5.85v1.347h5.85v-1.35z" stroke="#918F90" stroke-width=".454" fill="#fff"/>
						<path id="path306" d="m485.92 668.35h-4.395v1.347h4.395v-1.35z" stroke="#918F90" stroke-width=".454" fill="#fff"/>
						<path id="path308" d="m485.92 669.7h-4.395v1.349h4.395v-1.35z" stroke="#918F90" stroke-width=".454" fill="#fff"/>
						<path id="path310" d="m485.92 671.04h-4.395v1.347h4.395v-1.35z" stroke="#918F90" stroke-width=".454" fill="#fff"/>
						<path id="path312" d="m481.52 672.39h-5.85v1.348h5.85v-1.35z" stroke="#918F90" stroke-width=".454" fill="#fff"/>
						<path id="path314" d="m485.92 672.39h-4.395v1.348h4.395v-1.35z" stroke="#918F90" stroke-width=".454" fill="#fff"/>
						<path id="path316" d="m481.52 673.74h-5.85v1.348h5.85v-1.35z" stroke="#918F90" stroke-width=".454" fill="#fff"/>
						<path id="path318" d="m485.92 673.74h-4.395v1.348h4.395v-1.35z" stroke="#918F90" stroke-width=".454" fill="#fff"/>
						<path id="path320" d="m481.52 675.09h-5.85v1.348h5.85v-1.35z" stroke="#918F90" stroke-width=".454" fill="#fff"/>
						<path id="path322" d="m485.92 675.09h-4.395v1.348h4.395v-1.35z" stroke="#918F90" stroke-width=".454" fill="#fff"/>
						<path id="path324" d="m475.67 668.35h-4.395v1.347h4.395v-1.35z" stroke="#918F90" stroke-width=".454" fill="#fff"/>
						<path id="path326" d="m475.67 669.7h-4.395v1.349h4.395v-1.35z" stroke="#918F90" stroke-width=".454" fill="#fff"/>
						<path id="path328" d="m475.67 671.04h-4.395v1.347h4.395v-1.35z" stroke="#918F90" stroke-width=".454" fill="#fff"/>
						<path id="path330" d="m475.67 672.39h-4.395v1.348h4.395v-1.35z" stroke="#918F90" stroke-width=".454" fill="#fff"/>
						<path id="path332" d="m475.67 673.74h-4.395v1.348h4.395v-1.35z" stroke="#918F90" stroke-width=".454" fill="#fff"/>
						<path id="path334" d="m475.67 675.09h-4.395v1.348h4.395v-1.35z" stroke="#918F90" stroke-width=".454" fill="#fff"/>
						<path id="path336" d="m485.92 668.35h-14.64v-3.976h14.64v3.98z" stroke="#918F90" stroke-width=".454" fill="#fff"/>
						<path id="path338" d="m475.4 713.52h-6.975v-20.278h6.975v20.28z" fill="#fff"/>
						<path id="path340" d="m475.4 713.52h-6.975v-20.278h6.975v20.28zm11.36-21.36h3.851c1.721 0 3.118 1.923 3.118 4.297 0 2.37-1.397 4.296-3.118 4.296h-3.851v-8.6zm0 11.11h3.851c1.721 0 3.118 1.923 3.118 4.295 0 2.373-1.397 4.296-3.118 4.296h-3.851v-8.59zh3.851c1.721 0 3.118 1.923 3.118 4.295 0 2.373-1.397 4.296-3.118 4.296h-3.851v-8.59z" stroke="#918F90" stroke-width=".454" fill="none"/>
						<path id="path342" d="m531.11 668.4h-3.93v1.348h3.93v-1.35z" stroke="#918F90" stroke-width=".454" fill="#fff"/>
						<path id="path344" d="m531.11 669.74h-3.93v1.348h3.93v-1.35z" stroke="#918F90" stroke-width=".454" fill="#fff"/>
						<path id="path346" d="m531.11 671.09h-3.93v1.35h3.93v-1.35z" stroke="#918F90" stroke-width=".454" fill="#fff"/>
						<path id="path348" d="m531.11 672.44h-3.93v1.348h3.93v-1.35z" stroke="#918F90" stroke-width=".454" fill="#fff"/>
						<path id="path350" d="m535.04 668.4h-3.93v1.348h3.93v-1.35z" stroke="#918F90" stroke-width=".454" fill="#fff"/>
						<path id="path352" d="m535.04 669.74h-3.93v1.348h3.93v-1.35z" stroke="#918F90" stroke-width=".454" fill="#fff"/>
						<path id="path354" d="m535.04 671.09h-3.93v1.35h3.93v-1.35z" stroke="#918F90" stroke-width=".454" fill="#fff"/>
						<path id="path356" d="m535.04 672.44h-3.93v1.348h3.93v-1.35z" stroke="#918F90" stroke-width=".454" fill="#fff"/>
						<path id="path358" d="m531.11 673.79h-3.93v1.348h3.93v-1.35z" stroke="#918F90" stroke-width=".454" fill="#fff"/>
						<path id="path360" d="m531.11 675.14h-3.93v1.348h3.93v-1.35z" stroke="#918F90" stroke-width=".454" fill="#fff"/>
						<path id="path362" d="m535.04 673.79h-3.93v1.348h3.93v-1.35z" stroke="#918F90" stroke-width=".454" fill="#fff"/>
						<path id="path364" d="m535.04 675.14h-3.93v1.348h3.93v-1.35z" stroke="#918F90" stroke-width=".454" fill="#fff"/>
						<path id="path366" d="m535.04 668.4h-7.859v-4.007h7.859v4.01z" stroke="#918F90" stroke-width=".454" fill="#fff"/>
						<g id="g368" transform="translate(468.33 714.79)">
								<path id="path370" stroke-linejoin="round" d="m0 0l-5.108-24.76h2.678c-8.443-12.582-15.058-29.158-19.014-47.596 3.828-12.859 11.963-23.864 22.76-31.305 8.808 4.159 20.33 6.688 32.955 6.688 12.626 0 24.15-2.529 32.955-6.688 10.797 7.441 18.934 18.443 22.762 31.304-3.958 18.438-10.573 35.014-19.019 47.596h2.619l-5.106 24.76s-1.139 3.874-5.109 5.304l-2.556-2.654c-4.411 0.883-15.302 1.792-18.765 1.792v-29.21h-3.675c0 0.002 0.001 0.005 0.001 0.008 0 2.221-1.801 4.021-4.021 4.021s-4.019-1.8-4.019-4.021v-0.008h-11.964v28.674c-3.465 0-6.266-0.708-10.709-1.256l-2.555 2.654c-3.97-1.43-5.11-5.304-5.11-5.304z" stroke="#918F90" stroke-width=".454" fill="none"/>
						</g>
						<g id="g372" transform="translate(474.67 613.19)">
							<path id="path374" d="m0 0v12.688h-12.433v-8.677c2.296-2.218 4.769-4.25 7.406-6.068 1.582 0.747 3.279 1.419 5.027 2.057" fill="#fff"/>
						</g>
						<g id="g376" transform="translate(474.67 613.19)">
							<path id="path378" d="m0 0v12.688h-12.433v-8.677c2.296-2.218 4.769-4.25 7.406-6.068 1.582 0.747 3.279 1.419 5.027 2.057z" stroke="#918F90" stroke-width=".454" fill="none"/>
						</g>
						<g id="g380" transform="translate(474.67 625.88)">
							<path id="path382" d="m0 0v-12.688c4.545 1.655 9.603 2.928 15.045 3.708v8.98h-15.045z" fill="#fff"/>
						</g>
						<g id="g384" transform="translate(474.67 625.88)">
							<path id="path386" d="m0 0v-12.688c4.545 1.655 9.603 2.928 15.045 3.708v8.98h-15.045z" stroke="#918F90" stroke-width=".454" fill="none"/>
						</g>
						<g id="g388" transform="translate(543.8 611.58)">
							<path id="path390" d="m0 0c3.782 3.253 7.142 6.984 9.983 11.102l-3.514 3.058c-2.81-4.024-6.115-7.675-9.833-10.864l3.364-3.296z" fill="#fff"/>
						</g>
						<g id="g392" transform="translate(543.8 611.58)">
							<path id="path394" d="m0 0c3.782 3.253 7.142 6.984 9.983 11.102l-3.514 3.058c-2.81-4.024-6.115-7.675-9.833-10.864l3.364-3.296zm1.052 0.94l-3.478 3.095m4.425-2.107l-3.475 3.094m4.434-2.151l-3.476 3.091m4.43-2.14l-3.478 3.095m6.151-0.105l-3.477 3.095m4.426-2.106l-3.479 3.095m4.3-2.02l-3.475 3.095m4.292-2.004l-3.477 3.093" stroke="#918F90" stroke-width=".454" fill="none"/>
						</g>
						<g id="g396" transform="translate(461.32 611.58)">
							<path id="path398" d="m0 0c-3.782 3.253-7.143 6.984-9.984 11.102l3.515 3.058c2.808-4.024 6.116-7.675 9.831-10.864l-3.362-3.296z" fill="#fff"/>
						</g>
						<g id="g400" transform="translate(461.32 611.58)">
							<path id="path402" d="m0 0c-3.782 3.253-7.143 6.984-9.984 11.102l3.515 3.058c2.808-4.024 6.116-7.675 9.831-10.864l-3.362-3.296zm-1.053 0.94l3.477 3.095m-4.425-2.107l3.476 3.094m-4.435-2.151l3.477 3.091m-4.431-2.14l3.478 3.095m-6.151-0.105l3.478 3.095m-4.427-2.106l3.477 3.095m-4.298-2.02l3.477 3.095m-4.296-2.004l3.48 3.093m31.075 94.06c2.555 0.221 18.175 0.852 23.678 0.536" stroke="#918F90" stroke-width=".454" fill="none"/>
						</g>
						<g id="g404" transform="translate(444.45 483.63)">
							<path id="path406" d="m0 0h-1.666v-1.12c0-0.769 0.029-1.532 0.059-2.295h1.559l0.048 3.415z" fill="#fff"/>
						</g>
						<g id="g408" transform="translate(444.45 483.63)">
							<path id="path410" d="m0 0h-1.666v-1.12c0-0.769 0.029-1.532 0.059-2.295h1.559l0.048 3.415z" stroke="#918F90" stroke-width=".454" fill="none"/>
						</g>
						<g id="g412" transform="translate(444.5 487.05)">
							<path id="path414" d="m0 0h-1.717v-3.412h1.666l0.051 3.412z" fill="#fff"/>
						</g>
						<g id="g416" transform="translate(444.5 487.05)">
							<path id="path418" d="m0 0h-1.717v-3.412h1.666l0.051 3.412z" stroke="#918F90" stroke-width=".454" fill="none"/>
						</g>
						<g id="g420" transform="translate(444.55 490.46)">
							<path id="path422" d="m0 0h-1.766v-3.416h1.716l0.05 3.416z" fill="#fff"/>
						</g>
						<g id="g424" transform="translate(444.55 490.46)">
							<path id="path426" d="m0 0h-1.766v-3.416h1.716l0.05 3.416z" stroke="#918F90" stroke-width=".454" fill="none"/>
						</g>
						<g id="g428" transform="translate(444.6 493.88)">
							<path id="path430" d="m0 0h-1.816v-3.414h1.765l0.051 3.414z" fill="#fff"/>
						</g>
						<g id="g432" transform="translate(444.6 493.88)">
							<path id="path434" d="m0 0h-1.816v-3.414h1.765l0.051 3.414z" stroke="#918F90" stroke-width=".454" fill="none"/>
						</g>
						<g id="g436" transform="translate(444.65 497.29)">
							<path id="path438" d="m0 0h-1.866v-3.411h1.817l0.049 3.411z" fill="#fff"/>
						</g>
						<g id="g440" transform="translate(444.65 497.29)">
							<path id="path442" d="m0 0h-1.866v-3.411h1.817l0.049 3.411z" stroke="#918F90" stroke-width=".454" fill="none"/>
						</g>
						<g id="g444" transform="translate(444.7 500.7)">
							<path id="path446" d="m0 0h-1.916v-3.415h1.866l0.05 3.415z" fill="#fff"/>
						</g>
						<g id="g448" transform="translate(444.7 500.7)">
							<path id="path450" d="m0 0h-1.916v-3.415h1.866l0.05 3.415z" stroke="#918F90" stroke-width=".454" fill="none"/>
						</g>
						<g id="g452" transform="translate(444.75 504.12)">
							<path id="path454" d="m0 0h-1.965v-3.413h1.915l0.05 3.413z" fill="#fff"/>
						</g>
						<g id="g456" transform="translate(444.75 504.12)">
							<path id="path458" d="m0 0h-1.965v-3.413h1.915l0.05 3.413z" stroke="#918F90" stroke-width=".454" fill="none"/>
						</g>
						<g id="g460" transform="translate(444.8 507.53)">
							<path id="path462" d="m0 0h-2.015v-3.417h1.965l0.05 3.417z" fill="#fff"/>
						</g>
						<g id="g464" transform="translate(444.8 507.53)">
							<path id="path466" d="m0 0h-2.015v-3.417h1.965l0.05 3.417z" stroke="#918F90" stroke-width=".454" fill="none"/>
						</g>
						<g id="g468" transform="translate(444.85 510.95)">
							<path id="path470" d="m0 0h-2.064v-3.414h2.016l0.048 3.414z" fill="#fff"/>
						</g>
						<g id="g472" transform="translate(444.85 510.95)">
							<path id="path474" d="m0 0h-2.064v-3.414h2.016l0.048 3.414z" stroke="#918F90" stroke-width=".454" fill="none"/>
						</g>
						<g id="g476" transform="translate(444.9 514.36)">
							<path id="path478" d="m0 0h-2.113v-3.414h2.063l0.05 3.414z" fill="#fff"/>
						</g>
						<g id="g480" transform="translate(444.9 514.36)">
							<path id="path482" d="m0 0h-2.113v-3.414h2.063l0.05 3.414z" stroke="#918F90" stroke-width=".454" fill="none"/>
						</g>
						<g id="g484" transform="translate(444.95 517.77)">
							<path id="path486" d="m0 0h-2.163v-3.413h2.114l0.049 3.413z" fill="#fff"/>
						</g>
						<g id="g488" transform="translate(444.95 517.77)">
							<path id="path490" d="m0 0h-2.163v-3.413h2.114l0.049 3.413z" stroke="#918F90" stroke-width=".454" fill="none"/>
						</g>
						<g id="g492" transform="translate(445 521.19)">
							<path id="path494" d="m0 0h-2.212v-3.414h2.162l0.05 3.414z" fill="#fff"/>
						</g>
						<g id="g496" transform="translate(445 521.19)">
							<path id="path498" d="m0 0h-2.212v-3.414h2.162l0.05 3.414z" stroke="#918F90" stroke-width=".454" fill="none"/>
						</g>
						<g id="g500" transform="translate(445.05 524.6)">
							<path id="path502" d="m0 0h-2.262v-3.415h2.212l0.05 3.415z" fill="#fff"/>
						</g>
						<g id="g504" transform="translate(445.05 524.6)">
							<path id="path506" d="m0 0h-2.262v-3.415h2.212l0.05 3.415z" stroke="#918F90" stroke-width=".454" fill="none"/>
						</g>
						<g id="g508" transform="translate(445.1 528.01)">
							<path id="path510" d="m0 0h-2.312v-3.411h2.263l0.049 3.411z" fill="#fff"/>
						</g>
						<g id="g512" transform="translate(445.1 528.01)">
							<path id="path514" d="m0 0h-2.312v-3.411h2.263l0.049 3.411z" stroke="#918F90" stroke-width=".454" fill="none"/>
						</g>
						<g id="g516" transform="translate(445.15 531.43)">
							<path id="path518" d="m0 0h-2.361v-3.418h2.312l0.049 3.418z" fill="#fff"/>
						</g>
						<g id="g520" transform="translate(445.15 531.43)">
							<path id="path522" d="m0 0h-2.361v-3.418h2.312l0.049 3.418z" stroke="#918F90" stroke-width=".454" fill="none"/>
						</g>
						<g id="g524" transform="translate(445.19 534.84)">
							<path id="path526" d="m0 0h-2.41v-3.411h2.362l0.048 3.411z" fill="#fff"/>
						</g>
						<g id="g528" transform="translate(445.19 534.84)">
							<path id="path530" d="m0 0h-2.41v-3.411h2.362l0.048 3.411z" stroke="#918F90" stroke-width=".454" fill="none"/>
						</g>
						<g id="g532" transform="translate(445.24 538.25)">
							<path id="path534" d="m0 0h-2.46v-3.414h2.409l0.051 3.414z" fill="#fff"/>
						</g>
						<g id="g536" transform="translate(445.24 538.25)">
							<path id="path538" d="m0 0h-2.46v-3.414h2.409l0.051 3.414z" stroke="#918F90" stroke-width=".454" fill="none"/>
						</g>
						<g id="g540" transform="translate(445.29 541.67)">
							<path id="path542" d="m0 0h-2.509v-3.415h2.46l0.049 3.415z" fill="#fff"/>
						</g>
						<g id="g544" transform="translate(445.29 541.67)">
							<path id="path546" d="m0 0h-2.509v-3.415h2.46l0.049 3.415z" stroke="#918F90" stroke-width=".454" fill="none"/>
						</g>
						<g id="g548" transform="translate(445.34 545.08)">
							<path id="path550" d="m0 0h-2.56v-3.414h2.509l0.051 3.414z" fill="#fff"/>
						</g>
						<g id="g552" transform="translate(445.34 545.08)">
							<path id="path554" d="m0 0h-2.56v-3.414h2.509l0.051 3.414z" stroke="#918F90" stroke-width=".454" fill="none"/>
						</g>
						<g id="g556" transform="translate(445.39 548.5)">
							<path id="path558" d="m0 0h-2.61v-3.414h2.559l0.051 3.414z" fill="#fff"/>
						</g>
						<g id="g560" transform="translate(445.39 548.5)">
							<path id="path562" d="m0 0h-2.61v-3.414h2.559l0.051 3.414z" stroke="#918F90" stroke-width=".454" fill="none"/>
						</g>
						<g id="g564" transform="translate(445.44 551.91)">
							<path id="path566" d="m0 0h-2.659v-3.412h2.61l0.049 3.412z" fill="#fff"/>
						</g>
						<g id="g568" transform="translate(445.44 551.91)">
							<path id="path570" d="m0 0h-2.659v-3.412h2.61l0.049 3.412z" stroke="#918F90" stroke-width=".454" fill="none"/>
						</g>
						<g id="g572" transform="translate(445.49 555.32)">
							<path id="path574" d="m0 0h-2.708v-3.415h2.657l0.051 3.415z" fill="#fff"/>
						</g>
						<g id="g576" transform="translate(445.49 555.32)">
							<path id="path578" d="m0 0h-2.708v-3.415h2.657l0.051 3.415z" stroke="#918F90" stroke-width=".454" fill="none"/>
						</g>
						<g id="g580" transform="translate(445.54 558.74)">
							<path id="path582" d="m0 0h-2.757v-3.414h2.708l0.049 3.414z" fill="#fff"/>
						</g>
						<g id="g584" transform="translate(445.54 558.74)">
							<path id="path586" d="m0 0h-2.757v-3.414h2.708l0.049 3.414z" stroke="#918F90" stroke-width=".454" fill="none"/>
						</g>
						<g id="g588" transform="translate(445.59 562.15)">
							<path id="path590" d="m0 0h-2.808v-3.414h2.757l0.051 3.414z" fill="#fff"/>
						</g>
						<g id="g592" transform="translate(445.59 562.15)">
							<path id="path594" d="m0 0h-2.808v-3.414h2.757l0.051 3.414z" stroke="#918F90" stroke-width=".454" fill="none"/>
						</g>
						<g id="g596" transform="translate(445.64 565.56)">
							<path id="path598" d="m0 0h-2.859v-3.414h2.809l0.05 3.414z" fill="#fff"/>
						</g>
						<g id="g600" transform="translate(445.64 565.56)">
							<path id="path602" d="m0 0h-2.859v-3.414h2.809l0.05 3.414z" stroke="#918F90" stroke-width=".454" fill="none"/>
						</g>
						<g id="g604" transform="translate(445.69 568.98)">
							<path id="path606" d="m0 0h-2.906v-3.412h2.857l0.049 3.412z" fill="#fff"/>
						</g>
						<g id="g608" transform="translate(445.69 568.98)">
							<path id="path610" d="m0 0h-2.906v-3.412h2.857l0.049 3.412z" stroke="#918F90" stroke-width=".454" fill="none"/>
						</g>
						<g id="g612" transform="translate(445.74 572.39)">
							<path id="path614" d="m0 0h-2.957v-3.415h2.907l0.05 3.415z" fill="#fff"/>
						</g>
						<g id="g616" transform="translate(445.74 572.39)">
							<path id="path618" d="m0 0h-2.957v-3.415h2.907l0.05 3.415z" stroke="#918F90" stroke-width=".454" fill="none"/>
						</g>
						<g id="g620" transform="translate(445.79 575.81)">
							<path id="path622" d="m0 0h-3.005v-3.414h2.957l0.048 3.414z" fill="#fff"/>
						</g>
						<g id="g624" transform="translate(445.79 575.81)">
							<path id="path626" d="m0 0h-3.005v-3.414h2.957l0.048 3.414z" stroke="#918F90" stroke-width=".454" fill="none"/>
						</g>
						<g id="g628" transform="translate(445.84 579.22)">
							<path id="path630" d="m0 0h-3.055v-3.411h3.005l0.05 3.411z" fill="#fff"/>
						</g>
						<g id="g632" transform="translate(445.84 579.22)">
							<path id="path634" d="m0 0h-3.055v-3.411h3.005l0.05 3.411z" stroke="#918F90" stroke-width=".454" fill="none"/>
						</g>
						<g id="g636" transform="translate(445.89 582.63)">
							<path id="path638" d="m0 0h-3.105v-3.418h3.055l0.05 3.418z" fill="#fff"/>
						</g>
						<g id="g640" transform="translate(445.89 582.63)">
							<path id="path642" d="m0 0h-3.105v-3.418h3.055l0.05 3.418z" stroke="#918F90" stroke-width=".454" fill="none"/>
						</g>
						<g id="g644" transform="translate(445.94 586.05)">
							<path id="path646" d="m0 0h-3.154v-3.411h3.105l0.049 3.411z" fill="#fff"/>
						</g>
						<g id="g648" transform="translate(445.94 586.05)">
							<path id="path650" d="m0 0h-3.154v-3.411h3.105l0.049 3.411z" stroke="#918F90" stroke-width=".454" fill="none"/>
						</g>
						<g id="g652" transform="translate(445.99 589.46)">
							<path id="path654" d="m0 0h-3.205v-3.415h3.155l0.05 3.415z" fill="#fff"/>
						</g>
						<g id="g656" transform="translate(445.99 589.46)">
							<path id="path658" d="m0 0h-3.205v-3.415h3.155l0.05 3.415z" stroke="#918F90" stroke-width=".454" fill="none"/>
						</g>
						<g id="g660" transform="translate(446.04 592.87)">
							<path id="path662" d="m0 0h-3.253v-3.414h3.205l0.048 3.414z" fill="#fff"/>
						</g>
						<g id="g664" transform="translate(446.04 592.87)">
							<path id="path666" d="m0 0h-3.253v-3.414h3.205l0.048 3.414z" stroke="#918F90" stroke-width=".454" fill="none"/>
						</g>
						<g id="g668" transform="translate(446.09 596.29)">
							<path id="path670" d="m0 0h-3.304v-3.415h3.253l0.051 3.415z" fill="#fff"/>
						</g>
						<g id="g672" transform="translate(446.09 596.29)">
							<path id="path674" d="m0 0h-3.304v-3.415h3.253l0.051 3.415z" stroke="#918F90" stroke-width=".454" fill="none"/>
						</g>
						<g id="g676" transform="translate(446.14 599.7)">
							<path id="path678" d="m0 0h-3.352v-3.412h3.304l0.048 3.412z" fill="#fff"/>
						</g>
						<g id="g680" transform="translate(446.14 599.7)">
							<path id="path682" d="m0 0h-3.352v-3.412h3.304l0.048 3.412z" stroke="#918F90" stroke-width=".454" fill="none"/>
						</g>
						<g id="g684" transform="translate(446.19 603.11)">
							<path id="path686" d="m0 0h-3.401v-3.412h3.352l0.049 3.412z" fill="#fff"/>
						</g>
						<g id="g688" transform="translate(446.19 603.11)">
							<path id="path690" d="m0 0h-3.401v-3.412h3.352l0.049 3.412z" stroke="#918F90" stroke-width=".454" fill="none"/>
						</g>
						<g id="g692" transform="translate(446.2 603.75)">
							<path id="path694" d="m0 0c0 0.927 0.016 1.852 0.034 2.776h-3.407c-0.015-0.924-0.039-1.849-0.039-2.776v-0.641h3.402l0.01 0.641z" fill="#fff"/>
						</g>
						<g id="g696" transform="translate(446.2 603.75)">
							<path id="path698" d="m0 0c0 0.927 0.016 1.852 0.034 2.776h-3.407c-0.015-0.924-0.039-1.849-0.039-2.776v-0.641h3.402l0.01 0.641z" stroke="#918F90" stroke-width=".454" fill="none"/>
						</g>
						<g id="g700" transform="translate(446.32 609.94)">
							<path id="path702" d="m0 0h-3.413c-0.038-1.135-0.062-2.274-0.078-3.412h3.405c0.017 1.137 0.046 2.277 0.086 3.412" fill="#fff"/>
						</g>
						<g id="g704" transform="translate(446.32 609.94)">
							<path id="path706" d="m0 0h-3.413c-0.038-1.135-0.062-2.274-0.078-3.412h3.405c0.017 1.137 0.046 2.277 0.086 3.412z" stroke="#918F90" stroke-width=".454" fill="none"/>
						</g>
						<g id="g708" transform="translate(446.46 613.36)">
							<path id="path710" d="m0 0h-3.423c-0.062-1.136-0.102-2.274-0.141-3.415h3.414c0.039 1.14 0.089 2.277 0.15 3.415" fill="#fff"/>
						</g>
						<g id="g712" transform="translate(446.46 613.36)">
							<path id="path714" d="m0 0h-3.423c-0.062-1.136-0.102-2.274-0.141-3.415h3.414c0.039 1.14 0.089 2.277 0.15 3.415z" stroke="#918F90" stroke-width=".454" fill="none"/>
						</g>
						<g id="g716" transform="translate(446.68 616.77)">
							<path id="path718" d="m0 0h-3.413c-0.08-1.137-0.164-2.273-0.222-3.414h3.423c0.061 1.139 0.129 2.277 0.212 3.414" fill="#fff"/>
						</g>
						<g id="g720" transform="translate(446.68 616.77)">
							<path id="path722" d="m0 0h-3.413c-0.08-1.137-0.164-2.273-0.222-3.414h3.423c0.061 1.139 0.129 2.277 0.212 3.414z" stroke="#918F90" stroke-width=".454" fill="none"/>
						</g>
						<g id="g724" transform="translate(446.95 620.18)">
							<path id="path726" d="m0 0h-3.414c-0.102-1.133-0.19-2.272-0.271-3.411h3.413c0.082 1.139 0.17 2.278 0.272 3.411" fill="#fff"/>
						</g>
						<g id="g728" transform="translate(446.95 620.18)">
							<path id="path730" d="m0 0h-3.414c-0.102-1.133-0.19-2.272-0.271-3.411h3.413c0.082 1.139 0.17 2.278 0.272 3.411z" stroke="#918F90" stroke-width=".454" fill="none"/>
						</g>
						<g id="g732" transform="translate(447.3 623.6)">
							<path id="path734" d="m0 0h-3.44c-0.122-1.134-0.222-2.274-0.325-3.415h3.414c0.106 1.142 0.225 2.279 0.351 3.415" fill="#fff"/>
						</g>
						<g id="g736" transform="translate(447.3 623.6)">
							<path id="path738" d="m0 0h-3.44c-0.122-1.134-0.222-2.274-0.325-3.415h3.414c0.106 1.142 0.225 2.279 0.351 3.415z" stroke="#918F90" stroke-width=".454" fill="none"/>
						</g>
						<g id="g740" transform="translate(447.71 627.01)">
							<path id="path742" d="m0 0h-3.44c-0.142-1.136-0.288-2.27-0.411-3.414h3.44c0.125 1.141 0.265 2.278 0.411 3.414" fill="#fff"/>
						</g>
						<g id="g744" transform="translate(447.71 627.01)">
							<path id="path746" d="m0 0h-3.44c-0.142-1.136-0.288-2.27-0.411-3.414h3.44c0.125 1.141 0.265 2.278 0.411 3.414z" stroke="#918F90" stroke-width=".454" fill="none"/>
						</g>
						<g id="g748" transform="translate(448.18 630.42)">
							<path id="path750" d="m0 0h-3.446c-0.166-1.133-0.322-2.268-0.468-3.414h3.44c0.146 1.143 0.306 2.279 0.474 3.414" fill="#fff"/>
						</g>
						<g id="g752" transform="translate(448.18 630.42)">
							<path id="path754" d="m0 0h-3.446c-0.166-1.133-0.322-2.268-0.468-3.414h3.44c0.146 1.143 0.306 2.279 0.474 3.414z" stroke="#918F90" stroke-width=".454" fill="none"/>
						</g>
						<g id="g756" transform="translate(448.72 633.84)">
							<path id="path758" d="m0 0h-3.462c-0.185-1.133-0.355-2.273-0.523-3.415h3.446c0.17 1.142 0.348 2.281 0.539 3.415" fill="#fff"/>
						</g>
						<g id="g760" transform="translate(448.72 633.84)">
							<path id="path762" d="m0 0h-3.462c-0.185-1.133-0.355-2.273-0.523-3.415h3.446c0.17 1.142 0.348 2.281 0.539 3.415z" stroke="#918F90" stroke-width=".454" fill="none"/>
						</g>
						<g id="g764" transform="translate(449.13 636.24)">
							<path id="path766" d="m0 0c-0.142 0.332-0.264 0.674-0.4 1.008h-2.876c-0.207-1.131-0.404-2.271-0.594-3.412h3.462c0.133 0.8 0.263 1.607 0.408 2.404" fill="#fff"/>
						</g>
						<g id="g768" transform="translate(449.13 636.24)">
							<path id="path770" d="m0 0c-0.142 0.332-0.264 0.674-0.4 1.008h-2.876c-0.207-1.131-0.404-2.271-0.594-3.412h3.462c0.133 0.8 0.263 1.607 0.408 2.404z" stroke="#918F90" stroke-width=".454" fill="none"/>
						</g>
						<g id="g772" transform="translate(560.76 480.22)">
							<path id="path774" d="m0 0h1.6c0.029 0.764 0.059 1.526 0.059 2.295v1.12h-1.706l0.047-3.415z" fill="#fff"/>
						</g>
						<g id="g776" transform="translate(560.76 480.22)">
							<path id="path778" d="m0 0h1.6c0.029 0.764 0.059 1.526 0.059 2.295v1.12h-1.706l0.047-3.415z" stroke="#918F90" stroke-width=".454" fill="none"/>
						</g>
						<g id="g780" transform="translate(560.71 483.63)">
							<path id="path782" d="m0 0h1.705v3.413h-1.755l0.05-3.413z" fill="#fff"/>
						</g>
						<g id="g784" transform="translate(560.71 483.63)">
							<path id="path786" d="m0 0h1.705v3.413h-1.755l0.05-3.413z" stroke="#918F90" stroke-width=".454" fill="none"/>
						</g>
						<g id="g788" transform="translate(560.66 487.05)">
							<path id="path790" d="m0 0h1.754v3.416h-1.801l0.047-3.416z" fill="#fff"/>
						</g>
						<g id="g792" transform="translate(560.66 487.05)">
							<path id="path794" d="m0 0h1.754v3.416h-1.801l0.047-3.416z" stroke="#918F90" stroke-width=".454" fill="none"/>
						</g>
						<g id="g796" transform="translate(560.61 490.46)">
							<path id="path798" d="m0 0h1.802v3.414h-1.85l0.048-3.414z" fill="#fff"/>
						</g>
						<g id="g800" transform="translate(560.61 490.46)">
							<path id="path802" d="m0 0h1.802v3.414h-1.85l0.048-3.414z" stroke="#918F90" stroke-width=".454" fill="none"/>
						</g>
						<g id="g804" transform="translate(560.56 493.88)">
							<path id="path806" d="m0 0h1.85v3.411h-1.901l0.051-3.411z" fill="#fff"/>
						</g>
						<g id="g808" transform="translate(560.56 493.88)">
							<path id="path810" d="m0 0h1.85v3.411h-1.901l0.051-3.411z" stroke="#918F90" stroke-width=".454" fill="none"/>
						</g>
						<g id="g812" transform="translate(560.51 497.29)">
							<path id="path814" d="m0 0h1.901v3.415h-1.949l0.048-3.415z" fill="#fff"/>
						</g>
						<g id="g816" transform="translate(560.51 497.29)">
							<path id="path818" d="m0 0h1.901v3.415h-1.949l0.048-3.415z" stroke="#918F90" stroke-width=".454" fill="none"/>
						</g>
						<g id="g820" transform="translate(560.47 500.7)">
							<path id="path822" d="m0 0h1.949v3.412h-1.997l0.048-3.412z" fill="#fff"/>
						</g>
						<g id="g824" transform="translate(560.47 500.7)">
							<path id="path826" d="m0 0h1.949v3.412h-1.997l0.048-3.412z" stroke="#918F90" stroke-width=".454" fill="none"/>
						</g>
						<g id="g828" transform="translate(560.42 504.12)">
							<path id="path830" d="m0 0h1.998v3.416h-2.045l0.047-3.416z" fill="#fff"/>
						</g>
						<g id="g832" transform="translate(560.42 504.12)">
							<path id="path834" d="m0 0h1.998v3.416h-2.045l0.047-3.416z" stroke="#918F90" stroke-width=".454" fill="none"/>
						</g>
						<g id="g836" transform="translate(560.37 507.53)">
							<path id="path838" d="m0 0h2.044v3.414h-2.091l0.047-3.414z" fill="#fff"/>
						</g>
						<g id="g840" transform="translate(560.37 507.53)">
							<path id="path842" d="m0 0h2.044v3.414h-2.091l0.047-3.414z" stroke="#918F90" stroke-width=".454" fill="none"/>
						</g>
						<g id="g844" transform="translate(560.32 510.95)">
							<path id="path846" d="m0 0h2.092v3.414h-2.141l0.049-3.414z" fill="#fff"/>
						</g>
						<g id="g848" transform="translate(560.32 510.95)">
							<path id="path850" d="m0 0h2.092v3.414h-2.141l0.049-3.414z" stroke="#918F90" stroke-width=".454" fill="none"/>
						</g>
						<g id="g852" transform="translate(560.27 514.36)">
							<path id="path854" d="m0 0h2.141v3.412h-2.191l0.05-3.412z" fill="#fff"/>
						</g>
						<g id="g856" transform="translate(560.27 514.36)">
							<path id="path858" d="m0 0h2.141v3.412h-2.191l0.05-3.412z" stroke="#918F90" stroke-width=".454" fill="none"/>
						</g>
						<g id="g860" transform="translate(560.22 517.77)">
							<path id="path862" d="m0 0h2.191v3.413h-2.241l0.05-3.413z" fill="#fff"/>
						</g>
						<g id="g864" transform="translate(560.22 517.77)">
							<path id="path866" d="m0 0h2.191v3.413h-2.241l0.05-3.413z" stroke="#918F90" stroke-width=".454" fill="none"/>
						</g>
						<g id="g868" transform="translate(560.17 521.19)">
							<path id="path870" d="m0 0h2.24v3.415h-2.287l0.047-3.415z" fill="#fff"/>
						</g>
						<g id="g872" transform="translate(560.17 521.19)">
							<path id="path874" d="m0 0h2.24v3.415h-2.287l0.047-3.415z" stroke="#918F90" stroke-width=".454" fill="none"/>
						</g>
						<g id="g876" transform="translate(560.13 524.6)">
							<path id="path878" d="m0 0h2.287v3.411h-2.336l0.049-3.411z" fill="#fff"/>
						</g>
						<g id="g880" transform="translate(560.13 524.6)">
							<path id="path882" d="m0 0h2.287v3.411h-2.336l0.049-3.411z" stroke="#918F90" stroke-width=".454" fill="none"/>
						</g>
						<g id="g884" transform="translate(560.08 528.01)">
							<path id="path886" d="m0 0h2.336v3.418h-2.387l0.051-3.418z" fill="#fff"/>
						</g>
						<g id="g888" transform="translate(560.08 528.01)">
							<path id="path890" d="m0 0h2.336v3.418h-2.387l0.051-3.418z" stroke="#918F90" stroke-width=".454" fill="none"/>
						</g>
						<g id="g892" transform="translate(560.03 531.43)">
							<path id="path894" d="m0 0h2.388v3.411h-2.434l0.046-3.411z" fill="#fff"/>
						</g>
						<g id="g896" transform="translate(560.03 531.43)">
							<path id="path898" d="m0 0h2.388v3.411h-2.434l0.046-3.411z" stroke="#918F90" stroke-width=".454" fill="none"/>
						</g>
						<g id="g900" transform="translate(559.98 534.84)">
							<path id="path902" d="m0 0h2.434v3.414h-2.484l0.05-3.414z" fill="#fff"/>
						</g>
						<g id="g904" transform="translate(559.98 534.84)">
							<path id="path906" d="m0 0h2.434v3.414h-2.484l0.05-3.414z" stroke="#918F90" stroke-width=".454" fill="none"/>
						</g>
						<g id="g908" transform="translate(559.93 538.25)">
							<path id="path910" d="m0 0h2.482v3.415h-2.529l0.047-3.415z" fill="#fff"/>
						</g>
						<g id="g912" transform="translate(559.93 538.25)">
							<path id="path914" d="m0 0h2.482v3.415h-2.529l0.047-3.415z" stroke="#918F90" stroke-width=".454" fill="none"/>
						</g>
						<g id="g916" transform="translate(559.88 541.67)">
							<path id="path918" d="m0 0h2.529v3.414h-2.577l0.048-3.414z" fill="#fff"/>
						</g>
						<g id="g920" transform="translate(559.88 541.67)">
							<path id="path922" d="m0 0h2.529v3.414h-2.577l0.048-3.414z" stroke="#918F90" stroke-width=".454" fill="none"/>
						</g>
						<g id="g924" transform="translate(559.84 545.08)">
							<path id="path926" d="m0 0h2.578v3.414h-2.629l0.051-3.414z" fill="#fff"/>
						</g>
						<g id="g928" transform="translate(559.84 545.08)">
							<path id="path930" d="m0 0h2.578v3.414h-2.629l0.051-3.414z" stroke="#918F90" stroke-width=".454" fill="none"/>
						</g>
						<g id="g932" transform="translate(559.79 548.5)">
							<path id="path934" d="m0 0h2.629v3.412h-2.676l0.047-3.412z" fill="#fff"/>
						</g>
						<g id="g936" transform="translate(559.79 548.5)">
							<path id="path938" d="m0 0h2.629v3.412h-2.676l0.047-3.412z" stroke="#918F90" stroke-width=".454" fill="none"/>
						</g>
						<g id="g940" transform="translate(559.74 551.91)">
							<path id="path942" d="m0 0h2.675v3.415h-2.723l0.048-3.415z" fill="#fff"/>
						</g>
						<g id="g944" transform="translate(559.74 551.91)">
							<path id="path946" d="m0 0h2.675v3.415h-2.723l0.048-3.415z" stroke="#918F90" stroke-width=".454" fill="none"/>
						</g>
						<g id="g948" transform="translate(559.69 555.32)">
							<path id="path950" d="m0 0h2.725v3.414h-2.773l0.048-3.414z" fill="#fff"/>
						</g>
						<g id="g952" transform="translate(559.69 555.32)">
							<path id="path954" d="m0 0h2.725v3.414h-2.773l0.048-3.414z" stroke="#918F90" stroke-width=".454" fill="none"/>
						</g>
						<g id="g956" transform="translate(559.64 558.74)">
							<path id="path958" d="m0 0h2.772v3.414h-2.82l0.048-3.414z" fill="#fff"/>
						</g>
						<g id="g960" transform="translate(559.64 558.74)">
							<path id="path962" d="m0 0h2.772v3.414h-2.82l0.048-3.414z" stroke="#918F90" stroke-width=".454" fill="none"/>
						</g>
						<g id="g964" transform="translate(559.59 562.15)">
							<path id="path966" d="m0 0h2.82v3.414h-2.87l0.05-3.414z" fill="#fff"/>
						</g>
						<g id="g968" transform="translate(559.59 562.15)">
							<path id="path970" d="m0 0h2.82v3.414h-2.87l0.05-3.414z" stroke="#918F90" stroke-width=".454" fill="none"/>
						</g>
						<g id="g972" transform="translate(559.55 565.56)">
							<path id="path974" d="m0 0h2.869v3.412h-2.919l0.05-3.412z" fill="#fff"/>
						</g>
						<g id="g976" transform="translate(559.55 565.56)">
							<path id="path978" d="m0 0h2.869v3.412h-2.919l0.05-3.412z" stroke="#918F90" stroke-width=".454" fill="none"/>
						</g>
						<g id="g980" transform="translate(559.49 568.98)">
							<path id="path982" d="m0 0h2.92v3.415h-2.966l0.046-3.415z" fill="#fff"/>
						</g>
						<g id="g984" transform="translate(559.49 568.98)">
							<path id="path986" d="m0 0h2.92v3.415h-2.966l0.046-3.415z" stroke="#918F90" stroke-width=".454" fill="none"/>
						</g>
						<g id="g988" transform="translate(559.45 572.39)">
							<path id="path990" d="m0 0h2.966v3.414h-3.016l0.05-3.414z" fill="#fff"/>
						</g>
						<g id="g992" transform="translate(559.45 572.39)">
							<path id="path994" d="m0 0h2.966v3.414h-3.016l0.05-3.414z" stroke="#918F90" stroke-width=".454" fill="none"/>
						</g>
						<g id="g996" transform="translate(559.4 575.81)">
							<path id="path998" d="m0 0h3.015v3.411h-3.062l0.047-3.411z" fill="#fff"/>
						</g>
						<g id="g1000" transform="translate(559.4 575.81)">
							<path id="path1002" d="m0 0h3.015v3.411h-3.062l0.047-3.411z" stroke="#918F90" stroke-width=".454" fill="none"/>
						</g>
						<g id="g1004" transform="translate(559.35 579.22)">
							<path id="path1006" d="m0 0h3.062v3.418h-3.112l0.05-3.418z" fill="#fff"/>
						</g>
						<g id="g1008" transform="translate(559.35 579.22)">
							<path id="path1010" d="m0 0h3.062v3.418h-3.112l0.05-3.418z" stroke="#918F90" stroke-width=".454" fill="none"/>
						</g>
						<g id="g1012" transform="translate(559.3 582.63)">
							<path id="path1014" d="m0 0h3.112v3.411h-3.162l0.05-3.411z" fill="#fff"/>
						</g>
						<g id="g1016" transform="translate(559.3 582.63)">
							<path id="path1018" d="m0 0h3.112v3.411h-3.162l0.05-3.411z" stroke="#918F90" stroke-width=".454" fill="none"/>
						</g>
						<g id="g1020" transform="translate(559.25 586.05)">
							<path id="path1022" d="m0 0h3.162v3.415h-3.209l0.047-3.415z" fill="#fff"/>
						</g>
						<g id="g1024" transform="translate(559.25 586.05)">
							<path id="path1026" d="m0 0h3.162v3.415h-3.209l0.047-3.415z" stroke="#918F90" stroke-width=".454" fill="none"/>
						</g>
						<g id="g1028" transform="translate(559.2 589.46)">
							<path id="path1030" d="m0 0h3.209v3.414h-3.257l0.048-3.414z" fill="#fff"/>
						</g>
						<g id="g1032" transform="translate(559.2 589.46)">
							<path id="path1034" d="m0 0h3.209v3.414h-3.257l0.048-3.414z" stroke="#918F90" stroke-width=".454" fill="none"/>
						</g>
						<g id="g1036" transform="translate(559.16 592.87)">
							<path id="path1038" d="m0 0h3.257v3.415h-3.305l0.048-3.415z" fill="#fff"/>
						</g>
						<g id="g1040" transform="translate(559.16 592.87)">
							<path id="path1042" d="m0 0h3.257v3.415h-3.305l0.048-3.415z" stroke="#918F90" stroke-width=".454" fill="none"/>
						</g>
						<g id="g1044" transform="translate(559.11 596.29)">
							<path id="path1046" d="m0 0h3.305v3.412h-3.356l0.051-3.412z" fill="#fff"/>
						</g>
						<g id="g1048" transform="translate(559.11 596.29)">
							<path id="path1050" d="m0 0h3.305v3.412h-3.356l0.051-3.412z" stroke="#918F90" stroke-width=".454" fill="none"/>
						</g>
						<g id="g1052" transform="translate(559.06 599.7)">
							<path id="path1054" d="m0 0h3.356v3.412h-3.404l0.048-3.412z" fill="#fff"/>
						</g>
						<g id="g1056" transform="translate(559.06 599.7)">
							<path id="path1058" d="m0 0h3.356v3.412h-3.404l0.048-3.412z" stroke="#918F90" stroke-width=".454" fill="none"/>
						</g>
						<g id="g1060" transform="translate(559 603.75)">
							<path id="path1062" d="m0 0l0.008-0.641h3.405v0.641c0 0.927-0.024 1.852-0.039 2.776h-3.405c0.013-0.924 0.031-1.849 0.031-2.776" fill="#fff"/>
						</g>
						<g id="g1064" transform="translate(559 603.75)">
							<path id="path1066" d="m0 0l0.008-0.641h3.405v0.641c0 0.927-0.024 1.852-0.039 2.776h-3.405c0.013-0.924 0.031-1.849 0.031-2.776z" stroke="#918F90" stroke-width=".454" fill="none"/>
						</g>
						<g id="g1068" transform="translate(558.97 606.53)">
							<path id="path1070" d="m0 0h3.405c-0.017 1.138-0.041 2.277-0.08 3.412h-3.413c0.04-1.135 0.07-2.275 0.088-3.412" fill="#fff"/>
						</g>
						<g id="g1072" transform="translate(558.97 606.53)">
							<path id="path1074" d="m0 0h3.405c-0.017 1.138-0.041 2.277-0.08 3.412h-3.413c0.04-1.135 0.07-2.275 0.088-3.412z" stroke="#918F90" stroke-width=".454" fill="none"/>
						</g>
						<g id="g1076" transform="translate(558.88 609.94)">
							<path id="path1078" d="m0 0h3.414c-0.039 1.141-0.08 2.28-0.139 3.415h-3.423c0.059-1.138 0.108-2.275 0.148-3.415" fill="#fff"/>
						</g>
						<g id="g1080" transform="translate(558.88 609.94)">
							<path id="path1082" d="m0 0h3.414c-0.039 1.141-0.08 2.28-0.139 3.415h-3.423c0.059-1.138 0.108-2.275 0.148-3.415z" stroke="#918F90" stroke-width=".454" fill="none"/>
						</g>
						<g id="g1084" transform="translate(558.73 613.36)">
							<path id="path1086" d="m0 0h3.424c-0.06 1.141-0.141 2.277-0.222 3.414h-3.412c0.08-1.137 0.148-2.276 0.21-3.414" fill="#fff"/>
						</g>
						<g id="g1088" transform="translate(558.73 613.36)">
							<path id="path1090" d="m0 0h3.424c-0.06 1.141-0.141 2.277-0.222 3.414h-3.412c0.08-1.137 0.148-2.276 0.21-3.414z" stroke="#918F90" stroke-width=".454" fill="none"/>
						</g>
						<g id="g1092" transform="translate(558.52 616.77)">
							<path id="path1094" d="m0 0h3.411c-0.081 1.138-0.171 2.278-0.272 3.411h-3.413c0.103-1.133 0.191-2.273 0.274-3.411" fill="#fff"/>
						</g>
						<g id="g1096" transform="translate(558.52 616.77)">
							<path id="path1098" d="m0 0h3.411c-0.081 1.138-0.171 2.278-0.272 3.411h-3.413c0.103-1.133 0.191-2.273 0.274-3.411z" stroke="#918F90" stroke-width=".454" fill="none"/>
						</g>
						<g id="g1100" transform="translate(558.25 620.18)">
							<path id="path1102" d="m0 0h3.414c-0.102 1.141-0.201 2.281-0.325 3.415h-3.439c0.125-1.135 0.246-2.272 0.35-3.415" fill="#fff"/>
						</g>
						<g id="g1104" transform="translate(558.25 620.18)">
							<path id="path1106" d="m0 0h3.414c-0.102 1.141-0.201 2.281-0.325 3.415h-3.439c0.125-1.135 0.246-2.272 0.35-3.415z" stroke="#918F90" stroke-width=".454" fill="none"/>
						</g>
						<g id="g1108" transform="translate(557.9 623.6)">
							<path id="path1110" d="m0 0h3.438c-0.123 1.144-0.267 2.278-0.41 3.414h-3.439c0.147-1.136 0.286-2.273 0.411-3.414" fill="#fff"/>
						</g>
						<g id="g1112" transform="translate(557.9 623.6)">
							<path id="path1114" d="m0 0h3.438c-0.123 1.144-0.267 2.278-0.41 3.414h-3.439c0.147-1.136 0.286-2.273 0.411-3.414z" stroke="#918F90" stroke-width=".454" fill="none"/>
						</g>
						<g id="g1116" transform="translate(557.49 627.01)">
							<path id="path1118" d="m0 0h3.439c-0.146 1.145-0.303 2.281-0.469 3.414h-3.447c0.168-1.136 0.328-2.271 0.477-3.414" fill="#fff"/>
						</g>
						<g id="g1120" transform="translate(557.49 627.01)">
							<path id="path1122" d="m0 0h3.439c-0.146 1.145-0.303 2.281-0.469 3.414h-3.447c0.168-1.136 0.328-2.271 0.477-3.414z" stroke="#918F90" stroke-width=".454" fill="none"/>
						</g>
						<g id="g1124" transform="translate(557.01 630.42)">
							<path id="path1126" d="m0 0h3.446c-0.166 1.143-0.336 2.282-0.522 3.415h-3.459c0.189-1.134 0.367-2.272 0.535-3.415" fill="#fff"/>
						</g>
						<g id="g1128" transform="translate(557.01 630.42)">
							<path id="path1130" d="m0 0h3.446c-0.166 1.143-0.336 2.282-0.522 3.415h-3.459c0.189-1.134 0.367-2.272 0.535-3.415z" stroke="#918F90" stroke-width=".454" fill="none"/>
						</g>
						<g id="g1132" transform="translate(556.07 636.24)">
							<path id="path1134" d="m0 0c0.143-0.796 0.272-1.603 0.407-2.403h3.459c-0.189 1.142-0.384 2.281-0.594 3.413h-2.876c-0.136-0.337-0.255-0.679-0.396-1.01" fill="#fff"/>
						</g>
						<g id="g1136" transform="translate(556.07 636.24)">
							<path id="path1138" d="m0 0c0.143-0.796 0.272-1.603 0.407-2.403h3.459c-0.189 1.142-0.384 2.281-0.594 3.413h-2.876c-0.136-0.337-0.255-0.679-0.396-1.01z" stroke="#918F90" stroke-width=".454" fill="none"/>
						</g>
						<path id="path1140" d="m541.9 595.71h-78.6v-42.051h78.6v42.05z" stroke="#918F90" stroke-width=".454" fill="#fff"/>
						<g id="g1142" transform="translate(508.57 574.68)">
							<path id="path1144" d="m0 0c0 3.299-2.675 5.976-5.974 5.976-3.3 0-5.975-2.677-5.975-5.976 0-3.3 2.675-5.974 5.975-5.974 3.299 0 5.974 2.674 5.974 5.974" fill="#fff"/>
						</g>
						<g id="g1146" transform="translate(508.57 574.68)">
							<path id="path1148" d="m0 0c0 3.299-2.675 5.976-5.974 5.976-3.3 0-5.975-2.677-5.975-5.976 0-3.3 2.675-5.974 5.975-5.974 3.299 0 5.974 2.674 5.974 5.974z" stroke="#918F90" stroke-width=".454" fill="none"/>
						</g>
						<g id="g1150" transform="translate(479.12 580.65)">
							<path id="path1152" d="m0 0l-15.82 3.622v-19.182l15.936 3.621c3.299 0 5.972 2.674 5.972 5.974 0 3.299-2.673 5.976-5.972 5.976-0.041 0-0.077-0.011-0.116-0.011" fill="#fff"/>
						</g>
						<g id="g1154" transform="translate(479.12 580.65)">
							<path id="path1156" d="m0 0l-15.82 3.622v-19.182l15.936 3.621c3.299 0 5.972 2.674 5.972 5.974 0 3.299-2.673 5.976-5.972 5.976-0.041 0-0.077-0.011-0.116-0.011z" stroke="#918F90" stroke-width=".454" fill="none"/>
						</g>
						<g id="g1158" transform="translate(479.24 568.71)">
							<path id="path1160" d="m0 0v11.95" stroke="#918F90" stroke-width=".454" fill="#fff"/>
						</g>
						<g id="g1162" transform="translate(526.01 580.65)">
							<path id="path1164" d="m0 0l15.821 3.622v-19.182l-15.936 3.621c-3.299 0-5.972 2.674-5.972 5.974 0 3.299 2.673 5.976 5.972 5.976 0.041 0 0.075-0.011 0.115-0.011" fill="#fff"/>
						</g>
						<g id="g1166" transform="translate(526.01 580.65)">
							<path id="path1168" d="m0 0l15.821 3.622v-19.182l-15.936 3.621c-3.299 0-5.972 2.674-5.972 5.974 0 3.299 2.673 5.976 5.972 5.976 0.041 0 0.075-0.011 0.115-0.011z" stroke="#918F90" stroke-width=".454" fill="none"/>
						</g>
						<g id="g1170" transform="translate(525.9 568.71)">
							<path id="path1172" d="m0 0v11.95" stroke="#918F90" stroke-width=".454" fill="#fff"/>
						</g>
						<g id="g1174" transform="translate(502.6 553.66)">
							<path id="path1176" d="m0 0v41.951" fill="#fff"/>
						</g>
						<g id="g1178" transform="translate(502.6 553.66)">
							<path id="path1180" d="m0 0v41.951m-25.161-66.251s-8.177 3.681-13.355 5.587c-5.179 1.907-8.312 1.772-11.583 1.772s-7.256 1.535-7.256 1.535" stroke="#918F90" stroke-width=".454" fill="none"/>
						</g>
						<g id="g1182" transform="translate(537.57 428.81)">
								<path id="path1184" stroke-linejoin="round" d="m0 0l2.57 1.866v10.918l-2.57-1.863v-10.921zm-2.569-1.864l2.569 1.864v10.921l-2.569-1.867v-10.918zm-2.569-1.867l2.569 1.867v10.918l-2.569-1.864v-10.921zm-64.806 3.731l-2.57 1.866v10.918l2.57-1.863v-10.921zm2.569-1.864l-2.569 1.864v10.921l2.569-1.867v-10.918zm2.569-1.867l-2.57 1.867v10.918l2.57-1.864v-10.921z" stroke="#918F90" stroke-width=".454" fill="none"/>
						</g>
						<g id="g1186" transform="translate(502.6 524.87)">
							<path id="path1188" d="m0 0c-4.077 0-8.007 0.303-11.697 0.86v-16.457h23.395v16.457c-3.69-0.557-7.621-0.86-11.698-0.86zc-9.58 0-18.341 1.663-25.089 4.407-0.669-3.379-1.036-6.948-1.036-10.643 0-21.104 11.696-38.212 26.125-38.212 14.43 0 26.127 17.108 26.127 38.212 0 3.695-0.368 7.264-1.036 10.643-6.749-2.744-15.508-4.407-25.091-4.407zm45.05-61.181c-0.8-2.114-3.164-3.178-5.278-2.378l-9.846 3.723c-2.117 0.798-3.183 3.163-2.384 5.277l9.243 24.439c0.8 2.115 3.163 3.18 5.277 2.38l9.85-3.726c2.114-0.8 3.179-3.163 2.379-5.277l-9.241-24.438zm8.622 22.797l-12.402 4.692-8.001-21.155 12.402-4.692 8.001 21.155zm-25.729-62.296v8.247l-6.736 1.364m-49.148-9.611v8.247l6.736 1.364" stroke="#918F90" stroke-width=".454" fill="none"/>
						</g>
						<g id="g1190" transform="translate(465.02 440.86)">
								<path id="path1192" stroke-linejoin="round" d="m0 0c0 25.472 21.832 25.925 21.832 46.849" stroke="#918F90" stroke-width=".454" fill="none"/>
						</g>
						<g id="g1194" transform="translate(481.54 398.33)">
							<path id="path1196" d="m0 0c7.307-0.878 14.789-1.358 21.055-1.358 6.267 0 13.75 0.48 21.058 1.358v61.811h-42.113v-61.811zm4.678-0.601c5.829-0.488 11.745-0.757 16.377-0.757 4.634 0 10.549 0.269 16.378 0.757v58.125h-32.755v-58.125z" stroke="#918F90" stroke-width=".454" fill="none"/>
						</g>
					</g>
			</g>
			<g id="g13698">
					<g id="g13700">
						<g id="g15618" transform="translate(480.6 622.1)">
							<path id="path15620" d="m0 0v0.682l-2.046-0.682v-0.765c-0.167 0.4-0.562 0.681-1.024 0.681-0.613 0-1.109-0.496-1.109-1.109 0-0.612 0.496-1.109 1.109-1.109 0.462 0 0.857 0.283 1.024 0.684v-0.771l2.046-0.681v0.681l2.729-0.681v0.956l3.496 0.367v1.109l-3.496 0.368v0.952l-2.729-0.682z" fill="#231F20"/>
						</g>
						<g id="g15622" transform="translate(465.25 621.76)">
							<path id="path15624" d="m0 0v-0.419c-0.166 0.401-0.562 0.682-1.022 0.682-0.615 0-1.11-0.498-1.11-1.108 0-0.614 0.495-1.109 1.11-1.109 0.46 0 0.855 0.28 1.022 0.684v-0.436c0-0.564 0.458-1.024 1.024-1.024h2.559c0.714 0 1.011 0.4 1.127 0.989h3.563v1.79h-3.566c-0.117 0.58-0.415 0.973-1.124 0.973h-2.559c-0.566 0-1.024-0.456-1.024-1.022" fill="#231F20"/>
						</g>
					</g>
			</g>
			<text font-size="7.5169" font-family="&apos;ArialNarrow-Bold&apos;" transform="matrix(.8 0 0 -.8 473.92 604.78)" fill="#231F20">R</text>
			<text font-size="7.5169" font-family="&apos;ArialNarrow-Bold&apos;" transform="matrix(.8 0 0 -.8 477.44 604.78)" fill="#231F20">O</text>
			<text font-size="7.5169" font-family="&apos;ArialNarrow-Bold&apos;" transform="matrix(.8 0 0 -.8 481.3 604.78)" fill="#231F20">C</text>
			<text font-size="7.5169" font-family="&apos;ArialNarrow-Bold&apos;" transform="matrix(.8 0 0 -.8 484.82 604.78)" fill="#231F20">K</text>
			<text font-size="7.5169" font-family="&apos;ArialNarrow-Bold&apos;" transform="matrix(.8 0 0 -.8 488.35 604.78)" fill="#231F20"> </text>
			<text font-size="7.5169" font-family="&apos;ArialNarrow-Bold&apos;" transform="matrix(.8 0 0 -.8 489.86 604.78)" fill="#231F20">C</text>
			<text font-size="7.5169" font-family="&apos;ArialNarrow-Bold&apos;" transform="matrix(.8 0 0 -.8 493.39 604.78)" fill="#231F20">L</text>
			<text font-size="7.5169" font-family="&apos;ArialNarrow-Bold&apos;" transform="matrix(.8 0 0 -.8 496.24 604.78)" fill="#231F20">I</text>
			<text font-size="7.5169" font-family="&apos;ArialNarrow-Bold&apos;" transform="matrix(.8 0 0 -.8 498.09 604.78)" fill="#231F20">M</text>
			<text font-size="7.5169" font-family="&apos;ArialNarrow-Bold&apos;" transform="matrix(.8 0 0 -.8 503.28 604.78)" fill="#231F20">B</text>
			<text font-size="7.5169" font-family="&apos;ArialNarrow-Bold&apos;" transform="matrix(.8 0 0 -.8 507.13 604.78)" fill="#231F20">I</text>
			<text font-size="7.5169" font-family="&apos;ArialNarrow-Bold&apos;" transform="matrix(.8 0 0 -.8 508.98 604.78)" fill="#231F20">N</text>
			<text font-size="7.5169" font-family="&apos;ArialNarrow-Bold&apos;" transform="matrix(.8 0 0 -.8 513.18 604.78)" fill="#231F20">G</text>
			<text font-size="7.5169" font-family="&apos;ArialNarrow-Bold&apos;" transform="matrix(.8 0 0 -.8 517.03 604.78)" fill="#231F20"> </text>
			<text font-size="7.5169" font-family="&apos;ArialNarrow-Bold&apos;" transform="matrix(.8 0 0 -.8 518.55 604.78)" fill="#231F20">W</text>
			<text font-size="7.5169" font-family="&apos;ArialNarrow-Bold&apos;" transform="matrix(.8 0 0 -.8 523.96 604.78)" fill="#231F20">A</text>
			<text font-size="7.5169" font-family="&apos;ArialNarrow-Bold&apos;" transform="matrix(.8 0 0 -.8 527.82 604.78)" fill="#231F20">L</text>
			<text font-size="7.5169" font-family="&apos;ArialNarrow-Bold&apos;" transform="matrix(.8 0 0 -.8 530.67 604.78)" fill="#231F20">L</text>
			<text font-size="7.5169" font-family="&apos;ArialNarrow-Bold&apos;" transform="matrix(0 .8 .8 0 474.39 696.94)" fill="#231F20">E</text>
			<text font-size="7.5169" font-family="&apos;ArialNarrow-Bold&apos;" transform="matrix(0 .8 .8 0 474.39 700.13)" fill="#231F20">L</text>
			<text font-size="7.5169" font-family="&apos;ArialNarrow-Bold&apos;" transform="matrix(0 .8 .8 0 474.39 702.98)" fill="#231F20">E</text>
			<text font-size="7.5169" font-family="&apos;ArialNarrow-Bold&apos;" transform="matrix(0 .8 .8 0 474.39 706.16)" fill="#231F20">V</text>
			<text font-size="7.5169" font-family="&apos;ArialNarrow-Bold&apos;" transform="matrix(0 .8 .8 0 474.39 709.24)" fill="#231F20">.</text>
			<text font-size="7.5169" font-family="&apos;ArialNarrow-Bold&apos;" transform="matrix(.8 0 0 -.8 482.02 542.56)" fill="#231F20">S</text>
			<text font-size="7.5169" font-family="&apos;ArialNarrow-Bold&apos;" transform="matrix(.8 0 0 -.8 485.55 542.56)" fill="#231F20">P</text>
			<text font-size="7.5169" font-family="&apos;ArialNarrow-Bold&apos;" transform="matrix(.8 0 0 -.8 489.07 542.56)" fill="#231F20">O</text>
			<text font-size="7.5169" font-family="&apos;ArialNarrow-Bold&apos;" transform="matrix(.8 0 0 -.8 492.92 542.56)" fill="#231F20">R</text>
			<text font-size="7.5169" font-family="&apos;ArialNarrow-Bold&apos;" transform="matrix(.8 0 0 -.8 496.45 542.56)" fill="#231F20">T</text>
			<text font-size="7.5169" font-family="&apos;ArialNarrow-Bold&apos;" transform="matrix(.8 0 0 -.8 499.64 542.56)" fill="#231F20">S</text>
			<text font-size="7.5169" font-family="&apos;ArialNarrow-Bold&apos;" transform="matrix(.8 0 0 -.8 503.16 542.56)" fill="#231F20"> </text>
			<text font-size="7.5169" font-family="&apos;ArialNarrow-Bold&apos;" transform="matrix(.8 0 0 -.8 504.68 542.56)" fill="#231F20">C</text>
			<text font-size="7.5169" font-family="&apos;ArialNarrow-Bold&apos;" transform="matrix(.8 0 0 -.8 508.2 542.56)" fill="#231F20">O</text>
			<text font-size="7.5169" font-family="&apos;ArialNarrow-Bold&apos;" transform="matrix(.8 0 0 -.8 512.05 542.56)" fill="#231F20">U</text>
			<text font-size="7.5169" font-family="&apos;ArialNarrow-Bold&apos;" transform="matrix(.8 0 0 -.8 515.91 542.56)" fill="#231F20">R</text>
			<text font-size="7.5169" font-family="&apos;ArialNarrow-Bold&apos;" transform="matrix(.8 0 0 -.8 519.43 542.56)" fill="#231F20">T</text>
			<text font-size="7.5169" font-family="&apos;ArialNarrow-Bold&apos;" transform="matrix(.8 0 0 -.8 486.81 424.56)" fill="#231F20">F</text>
			<text font-size="7.5169" font-family="&apos;ArialNarrow-Bold&apos;" transform="matrix(.8 0 0 -.8 489.66 424.56)" fill="#231F20">L</text>
			<text font-size="7.5169" font-family="&apos;ArialNarrow-Bold&apos;" transform="matrix(.8 0 0 -.8 492.51 424.56)" fill="#231F20">O</text>
			<text font-size="7.5169" font-family="&apos;ArialNarrow-Bold&apos;" transform="matrix(.8 0 0 -.8 496.36 424.56)" fill="#231F20">W</text>
			<text font-size="7.5169" font-family="&apos;ArialNarrow-Bold&apos;" transform="matrix(.8 0 0 -.8 501.89 424.56)" fill="#231F20">R</text>
			<text font-size="7.5169" font-family="&apos;ArialNarrow-Bold&apos;" transform="matrix(.8 0 0 -.8 505.41 424.56)" fill="#231F20">I</text>
			<text font-size="7.5169" font-family="&apos;ArialNarrow-Bold&apos;" transform="matrix(.8 0 0 -.8 507.27 424.56)" fill="#231F20">D</text>
			<text font-size="7.5169" font-family="&apos;ArialNarrow-Bold&apos;" transform="matrix(.8 0 0 -.8 511.12 424.56)" fill="#231F20">E</text>
			<text font-size="7.5169" font-family="&apos;ArialNarrow-Bold&apos;" transform="matrix(.8 0 0 -.8 514.31 424.56)" fill="#231F20">R</text>
			<text font-size="7.5169" font-family="&apos;ArialNarrow-Bold&apos;" transform="matrix(.8 0 0 -.8 495.61 498.53)" fill="#231F20">G</text>
			<text font-size="7.5169" font-family="&apos;ArialNarrow-Bold&apos;" transform="matrix(.8 0 0 -.8 499.47 498.53)" fill="#231F20">O</text>
			<text font-size="7.5169" font-family="&apos;ArialNarrow-Bold&apos;" transform="matrix(.8 0 0 -.8 503.32 498.53)" fill="#231F20">L</text>
			<text font-size="7.5169" font-family="&apos;ArialNarrow-Bold&apos;" transform="matrix(.8 0 0 -.8 506.17 498.53)" fill="#231F20">F</text>
			<text font-size="7.5169" font-family="&apos;ArialNarrow-Bold&apos;" transform="matrix(.8 0 0 -.8 486.65 492.52)" fill="#231F20">S</text>
			<text font-size="7.5169" font-family="&apos;ArialNarrow-Bold&apos;" transform="matrix(.8 0 0 -.8 490.18 492.52)" fill="#231F20">I</text>
			<text font-size="7.5169" font-family="&apos;ArialNarrow-Bold&apos;" transform="matrix(.8 0 0 -.8 492.03 492.52)" fill="#231F20">M</text>
			<text font-size="7.5169" font-family="&apos;ArialNarrow-Bold&apos;" transform="matrix(.8 0 0 -.8 497.22 492.52)" fill="#231F20">U</text>
			<text font-size="7.5169" font-family="&apos;ArialNarrow-Bold&apos;" transform="matrix(.8 0 0 -.8 501.07 492.52)" fill="#231F20">L</text>
			<text font-size="7.5169" font-family="&apos;ArialNarrow-Bold&apos;" transform="matrix(.8 0 0 -.8 503.92 492.52)" fill="#231F20">A</text>
			<text font-size="7.5169" font-family="&apos;ArialNarrow-Bold&apos;" transform="matrix(.8 0 0 -.8 507.42 492.52)" fill="#231F20">T</text>
			<text font-size="7.5169" font-family="&apos;ArialNarrow-Bold&apos;" transform="matrix(.8 0 0 -.8 510.6 492.52)" fill="#231F20">O</text>
			<text font-size="7.5169" font-family="&apos;ArialNarrow-Bold&apos;" transform="matrix(.8 0 0 -.8 514.46 492.52)" fill="#231F20">R</text>
			<text font-size="7.5169" font-family="&apos;ArialNarrow-Bold&apos;" transform="matrix(.72 0 0 -.8 446.41 482.86)" fill="#231F20">I</text>
			<text font-size="7.5169" font-family="&apos;ArialNarrow-Bold&apos;" transform="matrix(.72 0 0 -.8 448.08 482.86)" fill="#231F20">N</text>
			<text font-size="7.5169" font-family="&apos;ArialNarrow-Bold&apos;" transform="matrix(.72 0 0 -.8 451.85 482.86)" fill="#231F20">D</text>
			<text font-size="7.5169" font-family="&apos;ArialNarrow-Bold&apos;" transform="matrix(.72 0 0 -.8 455.32 482.86)" fill="#231F20">E</text>
			<text font-size="7.5169" font-family="&apos;ArialNarrow-Bold&apos;" transform="matrix(.72 0 0 -.8 458.19 482.86)" fill="#231F20">P</text>
			<text font-size="7.5169" font-family="&apos;ArialNarrow-Bold&apos;" transform="matrix(.72 0 0 -.8 461.36 482.86)" fill="#231F20">E</text>
			<text font-size="7.5169" font-family="&apos;ArialNarrow-Bold&apos;" transform="matrix(.72 0 0 -.8 464.23 482.86)" fill="#231F20">N</text>
			<text font-size="7.5169" font-family="&apos;ArialNarrow-Bold&apos;" transform="matrix(.72 0 0 -.8 468 482.86)" fill="#231F20">D</text>
			<text font-size="7.5169" font-family="&apos;ArialNarrow-Bold&apos;" transform="matrix(.72 0 0 -.8 471.47 482.86)" fill="#231F20">E</text>
			<text font-size="7.5169" font-family="&apos;ArialNarrow-Bold&apos;" transform="matrix(.72 0 0 -.8 474.34 482.86)" fill="#231F20">N</text>
			<text font-size="7.5169" font-family="&apos;ArialNarrow-Bold&apos;" transform="matrix(.72 0 0 -.8 478.11 482.86)" fill="#231F20">C</text>
			<text font-size="7.5169" font-family="&apos;ArialNarrow-Bold&apos;" transform="matrix(.72 0 0 -.8 481.28 482.86)" fill="#231F20">E</text>
			<text font-size="7.5169" font-family="&apos;ArialNarrow-Bold&apos;" transform="matrix(.72 0 0 -.8 456.91 476.85)" fill="#231F20">D</text>
			<text font-size="7.5169" font-family="&apos;ArialNarrow-Bold&apos;" transform="matrix(.72 0 0 -.8 460.38 476.85)" fill="#231F20">U</text>
			<text font-size="7.5169" font-family="&apos;ArialNarrow-Bold&apos;" transform="matrix(.72 0 0 -.8 463.85 476.85)" fill="#231F20">N</text>
			<text font-size="7.5169" font-family="&apos;ArialNarrow-Bold&apos;" transform="matrix(.72 0 0 -.8 467.62 476.85)" fill="#231F20">E</text>
			<text font-size="7.5169" font-family="&apos;ArialNarrow-Bold&apos;" transform="matrix(.72 0 0 -.8 470.49 476.85)" fill="#231F20">S</text>
			<text font-size="7.5169" font-family="&apos;ArialNarrow-Bold&apos;" transform="matrix(.8 0 0 -.8 538.76 480.79)" fill="#231F20">W</text>
			<text font-size="7.5169" font-family="&apos;ArialNarrow-Bold&apos;" transform="matrix(.8 0 0 -.8 544.28 480.79)" fill="#231F20">I</text>
			<text font-size="7.5169" font-family="&apos;ArialNarrow-Bold&apos;" transform="matrix(.8 0 0 -.8 546.14 480.79)" fill="#231F20">P</text>
			<text font-size="7.5169" font-family="&apos;ArialNarrow-Bold&apos;" transform="matrix(.8 0 0 -.8 549.66 480.79)" fill="#231F20">E</text>
			<text font-size="7.5169" font-family="&apos;ArialNarrow-Bold&apos;" transform="matrix(.8 0 0 -.8 539.26 474.78)" fill="#231F20">O</text>
			<text font-size="7.5169" font-family="&apos;ArialNarrow-Bold&apos;" transform="matrix(.8 0 0 -.8 543.12 474.78)" fill="#231F20">U</text>
			<text font-size="7.5169" font-family="&apos;ArialNarrow-Bold&apos;" transform="matrix(.8 0 0 -.8 546.97 474.78)" fill="#231F20">T</text>
			<text font-size="7.5169" font-family="&apos;ArialNarrow-Bold&apos;" transform="matrix(.8 0 0 -.8 550.16 474.78)" fill="#231F20">!</text>
		</g>
</svg>
