<?xml version="1.0" encoding="utf-8"?>
<!-- Generated by IcoMoon.io -->
<!DOCTYPE svg PUBLIC "-//W3C//DTD SVG 1.1//EN" "http://www.w3.org/Graphics/SVG/1.1/DTD/svg11.dtd">
<svg version="1.1" xmlns="http://www.w3.org/2000/svg" xmlns:xlink="http://www.w3.org/1999/xlink" width="24" height="24" viewBox="0 0 24 24">
	<path d="M21.746 4.4c-0.355-0.307-2.287-1.77-2.648-2.081s-0.925-0.4-1.324-0.4h-11.549c-0.397 0-0.962 0.088-1.322 0.4-0.361 0.312-2.293 1.775-2.648 2.081s-0.652 0.769-0.557 1.429c0.095 0.66 2.324 15.568 2.324 15.568 0.125 0.376 0.552 0.683 0.95 0.683h14.056c0.398 0 0.826-0.308 0.95-0.683 0 0 2.228-14.908 2.324-15.568 0.094-0.66-0.202-1.122-0.557-1.429zM12 14.842c-3.898 0-4.732-5.516-4.904-6.653h2.204c0.332 1.658 1.087 4.493 2.7 4.493s2.369-2.834 2.701-4.493h2.203c-0.173 1.136-1.007 6.653-4.904 6.653zM3.556 6l2.647-2.76h11.594l2.647 2.76h-16.889z" fill="#eeeeee" />
</svg>
