<?xml version="1.0" encoding="utf-8"?>
<!-- Generated by IcoMoon.io -->
<!DOCTYPE svg PUBLIC "-//W3C//DTD SVG 1.1//EN" "http://www.w3.org/Graphics/SVG/1.1/DTD/svg11.dtd">
<svg version="1.1" xmlns="http://www.w3.org/2000/svg" xmlns:xlink="http://www.w3.org/1999/xlink" width="24" height="24" viewBox="0 0 24 24">
	<path d="M12 14.495c2.868 0 5.269-0.974 5.414-2.248-0.426-1.196-0.892-2.501-1.349-3.784-0.317 0.914-2.070 1.56-4.066 1.56s-3.748-0.644-4.067-1.559c-0.457 1.283-0.92 2.586-1.348 3.784 0.145 1.272 2.545 2.246 5.414 2.246zM12 6.449c1.348 0 2.6-0.418 2.968-1.066-0.505-1.42-0.94-2.636-1.214-3.404-0.181-0.512-1.008-0.779-1.753-0.779s-1.572 0.266-1.753 0.778c-0.275 0.768-0.708 1.986-1.214 3.404 0.367 0.649 1.62 1.067 2.968 1.067zM22.536 15.679l-4.506-1.816 0.52 1.448c-0.026 1.534-3.006 2.758-6.55 2.758s-6.523-1.224-6.548-2.758l0.518-1.448-4.506 1.816c-1.264 0.51-1.316 1.452-0.119 2.094l8.474 4.544c1.199 0.642 3.161 0.642 4.36 0l8.474-4.544c1.2-0.642 1.146-1.584-0.118-2.094z" fill="#eeeeee" />
</svg>
