<?xml version="1.0" encoding="utf-8"?>
<!-- Generated by IcoMoon.io -->
<!DOCTYPE svg PUBLIC "-//W3C//DTD SVG 1.1//EN" "http://www.w3.org/Graphics/SVG/1.1/DTD/svg11.dtd">
<svg version="1.1" xmlns="http://www.w3.org/2000/svg" xmlns:xlink="http://www.w3.org/1999/xlink" width="24" height="24" viewBox="0 0 24 24">
	<path d="M22.421 13.678l-3.778-8.99c-0.298-0.6-1.090-1.091-1.76-1.091h-9.764c-0.671 0-1.463 0.491-1.762 1.091l-3.776 8.99c-0.3 0.6-0.455 1.632-0.344 2.294l0.816 4.423c0.11 0.661 0.748 1.202 1.417 1.202h17.064c0.671 0 1.308-0.541 1.418-1.202l0.816-4.423c0.107-0.661-0.047-1.694-0.347-2.294zM20.784 16.829l-0.31 1.802c-0.094 0.692-0.718 1.259-1.385 1.259h-14.179c-0.668 0-1.291-0.566-1.385-1.259l-0.311-1.802c-0.092-0.692 0.378-1.259 1.048-1.259h15.475c0.67 0.001 1.14 0.566 1.046 1.259z" fill="#eeeeee" />
</svg>
