<?xml version="1.0" encoding="utf-8"?>
<!-- Generated by IcoMoon.io -->
<!DOCTYPE svg PUBLIC "-//W3C//DTD SVG 1.1//EN" "http://www.w3.org/Graphics/SVG/1.1/DTD/svg11.dtd">
<svg version="1.1" xmlns="http://www.w3.org/2000/svg" xmlns:xlink="http://www.w3.org/1999/xlink" width="24" height="24" viewBox="0 0 24 24">
	<path d="M4.746 0.112c-0.018-0.149-0.264-0.149-0.281 0-0.613 4.938-3.745 5.956-3.745 9.388 0 2.12 1.778 3.839 3.886 3.839s3.886-1.718 3.886-3.839c0-3.432-3.132-4.45-3.745-9.388zM19.535 0.112c-0.019-0.149-0.263-0.149-0.281 0-0.613 4.938-3.745 5.956-3.745 9.388 0 2.12 1.778 3.839 3.886 3.839s3.886-1.718 3.886-3.839c0-3.432-3.132-4.45-3.745-9.388zM11.86 10.774c-0.613 4.938-3.745 5.954-3.745 9.386 0 2.122 1.778 3.84 3.886 3.84s3.886-1.72 3.886-3.84c0-3.431-3.132-4.448-3.745-9.386-0.018-0.15-0.263-0.15-0.281 0z" fill="#eeeeee" />
</svg>
