<?xml version="1.0" encoding="utf-8"?>
<!-- Generated by IcoMoon.io -->
<!DOCTYPE svg PUBLIC "-//W3C//DTD SVG 1.1//EN" "http://www.w3.org/Graphics/SVG/1.1/DTD/svg11.dtd">
<svg version="1.1" xmlns="http://www.w3.org/2000/svg" xmlns:xlink="http://www.w3.org/1999/xlink" width="24" height="24" viewBox="0 0 24 24">
	<path d="M5.105 23.714c0.367-1.201 0.924-2.893 1.669-5.341 3.247-0.524 4.591 0.419 6.654-3.341-1.674 0.523-3.692-0.971-3.583-1.618 0.108-0.648 4.696 0.467 7.698-3.886-3.785 0.851-4.997-1.024-4.508-1.307 1.127-0.654 4.472-0.271 6.256-2.044 0.919-0.912 1.349-3.131 0.976-3.923-0.45-0.955-3.188-2.381-4.698-2.248-1.51 0.134-3.877 5.867-4.579 5.821s-0.842-2.567 0.383-4.912c-1.292 0.583-3.66 2.399-4.403 3.95-1.384 2.887 0.13 9.508-0.355 9.744-0.486 0.235-2.119-3.040-2.606-4.524-0.666 2.275-0.682 4.555 1.265 7.584-0.734 1.987-1.135 4.274-1.196 5.437-0.029 0.931 0.868 1.13 1.030 0.605z" fill="#eeeeee" />
</svg>
