<?xml version="1.0" encoding="utf-8"?>
<!-- Generated by IcoMoon.io -->
<!DOCTYPE svg PUBLIC "-//W3C//DTD SVG 1.1//EN" "http://www.w3.org/Graphics/SVG/1.1/DTD/svg11.dtd">
<svg version="1.1" xmlns="http://www.w3.org/2000/svg" xmlns:xlink="http://www.w3.org/1999/xlink" width="24" height="24" viewBox="0 0 24 24">
	<path d="M16.8 17.52c-1.184 0-2.203 0.718-2.645 1.74h-3.955c-1.694 0-1.853-1.43-1.86-1.86v-4.642c0.517 0.239 1.132 0.382 1.86 0.382h3.955c0.442 1.024 1.46 1.74 2.645 1.74 1.59 0 2.88-1.29 2.88-2.88s-1.29-2.88-2.88-2.88c-1.184 0-2.203 0.718-2.645 1.74h-3.955c-1.694 0-1.853-1.43-1.86-1.86v-2.755c1.024-0.442 1.739-1.46 1.739-2.645 0-1.59-1.289-2.88-2.879-2.88s-2.88 1.29-2.88 2.88c0 1.184 0.718 2.202 1.74 2.645v11.155c0 1.664 1.103 4.14 4.14 4.14h3.955c0.442 1.024 1.46 1.74 2.645 1.74 1.59 0 2.88-1.289 2.88-2.88 0-1.59-1.29-2.88-2.88-2.88zM16.8 10.338c0.918 0 1.662 0.744 1.662 1.662s-0.744 1.662-1.662 1.662-1.662-0.744-1.662-1.662 0.744-1.662 1.662-1.662zM5.538 3.6c0-0.918 0.744-1.662 1.662-1.662s1.662 0.744 1.662 1.662-0.744 1.662-1.662 1.662-1.662-0.744-1.662-1.662zM16.8 22.062c-0.918 0-1.662-0.744-1.662-1.662s0.744-1.662 1.662-1.662 1.662 0.744 1.662 1.662-0.744 1.662-1.662 1.662z" fill="#eeeeee" />
</svg>
