<?xml version="1.0" encoding="utf-8"?>
<!-- Generated by IcoMoon.io -->
<!DOCTYPE svg PUBLIC "-//W3C//DTD SVG 1.1//EN" "http://www.w3.org/Graphics/SVG/1.1/DTD/svg11.dtd">
<svg version="1.1" xmlns="http://www.w3.org/2000/svg" xmlns:xlink="http://www.w3.org/1999/xlink" width="24" height="24" viewBox="0 0 24 24">
	<path d="M15.816 13.572c-0.862 0-1.56 0.967-1.56 2.159 0 1.193 0.698 2.16 1.56 2.16s1.56-0.967 1.56-2.16c-0.001-1.193-0.7-2.159-1.56-2.159zM21.247 7.951c0.178-0.438 0.186-2.928-0.761-5.311 0 0-2.174 0.238-5.462 2.495-0.69-0.191-1.858-0.286-3.024-0.286-1.168 0-2.334 0.096-3.025 0.286-3.287-2.257-5.46-2.495-5.46-2.495-0.947 2.383-0.94 4.873-0.761 5.311-1.114 1.21-1.794 2.662-1.794 4.645 0 8.623 7.154 8.761 8.96 8.761 0.409 0 1.223 0.001 2.081 0.002 0.858-0.001 1.672-0.002 2.078-0.002 1.807 0 8.96-0.138 8.96-8.761 0-1.984-0.679-3.436-1.793-4.645zM12.034 20.298h-0.066c-4.526 0-8.052-0.54-8.052-4.939 0-1.054 0.373-2.032 1.255-2.843 1.475-1.352 3.967-0.636 6.797-0.636 0.011 0 0.023 0 0.034-0.001 0.012 0 0.023 0.001 0.032 0.001 2.83 0 5.323-0.716 6.797 0.636 0.882 0.811 1.254 1.789 1.254 2.843 0 4.399-3.523 4.939-8.051 4.939zM8.185 13.572c-0.862 0-1.56 0.967-1.56 2.159 0 1.193 0.698 2.16 1.56 2.16s1.56-0.967 1.56-2.16c0-1.193-0.698-2.159-1.56-2.159z" fill="#eeeeee" />
</svg>
