<?xml version="1.0" encoding="utf-8"?>
<!-- Generated by IcoMoon.io -->
<!DOCTYPE svg PUBLIC "-//W3C//DTD SVG 1.1//EN" "http://www.w3.org/Graphics/SVG/1.1/DTD/svg11.dtd">
<svg version="1.1" xmlns="http://www.w3.org/2000/svg" xmlns:xlink="http://www.w3.org/1999/xlink" width="24" height="24" viewBox="0 0 24 24">
	<path d="M19.082 6.72c-2.495 0-5.228 1.39-7.082 3.498-1.854-2.108-4.589-3.498-7.084-3.498-2.377 0-4.916 1.387-4.916 5.28s2.539 5.279 4.916 5.28v0c2.496 0 5.23-1.39 7.084-3.498 1.854 2.108 4.588 3.498 7.082 3.498 2.378 0 4.918-1.387 4.918-5.28s-2.539-5.28-4.918-5.28zM4.916 15.168c-1.814 0-2.735-1.066-2.735-3.168s0.92-3.169 2.735-3.169c2.006 0 4.337 1.303 5.767 3.169-1.43 1.866-3.76 3.168-5.767 3.168zM19.082 15.168c-2.006 0-4.337-1.302-5.767-3.168 1.429-1.866 3.761-3.169 5.767-3.169 1.816 0 2.735 1.067 2.735 3.169s-0.919 3.168-2.735 3.168z" fill="#eeeeee" />
</svg>
