<?xml version="1.0" encoding="utf-8"?>
<!-- Generated by IcoMoon.io -->
<!DOCTYPE svg PUBLIC "-//W3C//DTD SVG 1.1//EN" "http://www.w3.org/Graphics/SVG/1.1/DTD/svg11.dtd">
<svg version="1.1" xmlns="http://www.w3.org/2000/svg" xmlns:xlink="http://www.w3.org/1999/xlink" width="24" height="24" viewBox="0 0 24 24">
	<path d="M8.88 4.8h-2.16c-1.32 0-1.92 0.6-1.92 1.92v2.16c0 1.32 0.6 1.92 1.92 1.92h2.16c1.32 0 1.92-0.6 1.92-1.92v-2.16c0-1.32-0.6-1.92-1.92-1.92zM17.28 4.8h-2.16c-1.32 0-1.92 0.6-1.92 1.92v2.16c0 1.32 0.6 1.92 1.92 1.92h2.16c1.32 0 1.92-0.6 1.92-1.92v-2.16c0-1.32-0.6-1.92-1.92-1.92zM8.88 13.2h-2.16c-1.32 0-1.92 0.6-1.92 1.92v2.16c0 1.32 0.6 1.92 1.92 1.92h2.16c1.32 0 1.92-0.6 1.92-1.92v-2.16c0-1.32-0.6-1.92-1.92-1.92zM17.28 13.2h-2.16c-1.32 0-1.92 0.6-1.92 1.92v2.16c0 1.32 0.6 1.92 1.92 1.92h2.16c1.32 0 1.92-0.6 1.92-1.92v-2.16c0-1.32-0.6-1.92-1.92-1.92z" fill="#eeeeee" />
</svg>
