<?xml version="1.0" encoding="utf-8"?>
<!-- Generated by IcoMoon.io -->
<!DOCTYPE svg PUBLIC "-//W3C//DTD SVG 1.1//EN" "http://www.w3.org/Graphics/SVG/1.1/DTD/svg11.dtd">
<svg version="1.1" xmlns="http://www.w3.org/2000/svg" xmlns:xlink="http://www.w3.org/1999/xlink" width="24" height="24" viewBox="0 0 24 24">
	<path d="M14.597 21.431c-0.034 0.372 0.26 0.701 0.655 0.733l4.782 0.392c0.394 0.032 0.745-0.244 0.779-0.616l0.374-3.943-6.217-0.512-0.373 3.946zM2.813 17.999l0.373 3.943c0.035 0.372 0.386 0.648 0.78 0.616l4.782-0.392c0.394-0.032 0.689-0.362 0.654-0.733l-0.374-3.944-6.215 0.511zM2.197 11.5l0.385 4.068 6.217-0.511-0.386-4.064c-0.008-0.097-0.013-0.199-0.013-0.299 0-1.867 1.615-3.385 3.6-3.385s3.6 1.519 3.6 3.385c0 0.1-0.005 0.2-0.014 0.299l-0.384 4.064 6.216 0.511 0.385-4.068c0.024-0.269 0.037-0.539 0.037-0.806 0-5.102-4.415-9.253-9.84-9.253s-9.84 4.151-9.84 9.253c0 0.268 0.013 0.538 0.037 0.806z" fill="#eeeeee" />
</svg>
