<?xml version="1.0" encoding="utf-8"?>
<!-- Generated by IcoMoon.io -->
<!DOCTYPE svg PUBLIC "-//W3C//DTD SVG 1.1//EN" "http://www.w3.org/Graphics/SVG/1.1/DTD/svg11.dtd">
<svg version="1.1" xmlns="http://www.w3.org/2000/svg" xmlns:xlink="http://www.w3.org/1999/xlink" width="24" height="24" viewBox="0 0 24 24">
	<path d="M21.985 11.425l-8.954-5.94c-0.688-0.458-1.252-0.121-1.252 0.749v11.531c0 0.871 0.564 1.208 1.252 0.749l8.954-5.939c0 0 0.335-0.24 0.335-0.575s-0.335-0.575-0.335-0.575zM11.095 11.425l-8.645-5.941c-0.686-0.457-1.249-0.12-1.249 0.75v11.531c0 0.871 0.563 1.208 1.25 0.749l8.645-5.939c0 0 0.335-0.24 0.335-0.575s-0.336-0.575-0.336-0.575z" fill="#eeeeee" />
</svg>
