<?xml version="1.0" encoding="utf-8"?>
<!-- Generated by IcoMoon.io -->
<!DOCTYPE svg PUBLIC "-//W3C//DTD SVG 1.1//EN" "http://www.w3.org/Graphics/SVG/1.1/DTD/svg11.dtd">
<svg version="1.1" xmlns="http://www.w3.org/2000/svg" xmlns:xlink="http://www.w3.org/1999/xlink" width="24" height="24" viewBox="0 0 24 24">
	<path d="M12 0.48c-6.362 0-11.52 5.158-11.52 11.52 0 2.909 1.078 5.566 2.856 7.591 1.802-1.802 4.271-2.814 7.104-2.723 3.614 0.118 6.468 1.829 8.104 4.613 3.006-2.078 4.976-5.549 4.976-9.481 0-6.362-5.158-11.52-11.52-11.52zM17.632 16.106c-0.203 0.336-0.637 0.439-0.972 0.236-2.669-1.63-6.024-1.998-9.977-1.096-0.379 0.088-0.761-0.15-0.846-0.533-0.088-0.378 0.149-0.76 0.53-0.846 4.326-0.989 8.036-0.562 11.029 1.265 0.334 0.204 0.44 0.64 0.235 0.973zM19.022 12.839c-0.256 0.418-0.802 0.547-1.217 0.29-3.053-1.876-7.706-2.419-11.317-1.324-0.469 0.142-0.964-0.124-1.104-0.589-0.142-0.469 0.122-0.964 0.589-1.104 4.124-1.254 9.252-0.647 12.758 1.507 0.416 0.259 0.547 0.802 0.29 1.219zM19.141 9.454c-3.66-2.176-9.697-2.374-13.192-1.314-0.562 0.172-1.154-0.145-1.325-0.707-0.169-0.562 0.148-1.157 0.707-1.325 4.013-1.218 10.68-0.983 14.893 1.519 0.505 0.3 0.672 0.952 0.373 1.457-0.301 0.503-0.952 0.668-1.457 0.37zM10.367 20.314c-1.621-0.052-2.97 0.58-3.955 1.762 1.655 0.92 3.56 1.445 5.588 1.445 0.978 0 1.927-0.122 2.834-0.352-0.869-1.784-2.384-2.788-4.468-2.855z" fill="#eeeeee" />
</svg>
