<?xml version="1.0" encoding="utf-8"?>
<!-- Generated by IcoMoon.io -->
<!DOCTYPE svg PUBLIC "-//W3C//DTD SVG 1.1//EN" "http://www.w3.org/Graphics/SVG/1.1/DTD/svg11.dtd">
<svg version="1.1" xmlns="http://www.w3.org/2000/svg" xmlns:xlink="http://www.w3.org/1999/xlink" width="24" height="24" viewBox="0 0 24 24">
	<path d="M12 8.16c-2.129 0-3.84 1.71-3.84 3.84s1.71 3.84 3.84 3.84 3.84-1.71 3.84-3.84-1.711-3.84-3.84-3.84zM12 14.461c-1.36 0-2.46-1.102-2.46-2.46 0-1.36 1.1-2.46 2.46-2.46s2.46 1.1 2.46 2.46c0 1.358-1.1 2.46-2.46 2.46zM4.8 11.040c-0.662 0-1.2 0.43-1.2 0.96s0.538 0.96 1.2 0.96 1.176-0.43 1.176-0.96-0.514-0.96-1.176-0.96zM17.888 6.112c-0.374-0.374-1.058-0.299-1.526 0.169-0.469 0.469-0.545 1.152-0.17 1.528s1.058 0.299 1.526-0.169c0.469-0.468 0.546-1.152 0.17-1.528zM19.2 11.040c-0.664 0-1.176 0.43-1.176 0.96s0.514 0.96 1.176 0.96 1.2-0.43 1.2-0.96-0.536-0.96-1.2-0.96zM12 18c-0.529 0-0.96 0.538-0.96 1.2 0 0.664 0.43 1.2 0.96 1.2s0.96-0.536 0.96-1.2c0-0.662-0.431-1.2-0.96-1.2zM6.281 16.481c-0.468 0.469-0.545 1.153-0.17 1.528s1.060 0.298 1.528-0.17c0.469-0.469 0.545-1.153 0.17-1.528-0.374-0.373-1.058-0.298-1.528 0.17zM6.052 6.172c-0.376 0.376-0.299 1.058 0.17 1.528 0.469 0.468 1.152 0.545 1.528 0.169s0.299-1.058-0.17-1.526c-0.468-0.469-1.153-0.545-1.528-0.17zM16.422 17.779c0.469 0.468 1.152 0.544 1.526 0.169s0.299-1.058-0.169-1.526c-0.469-0.469-1.153-0.545-1.528-0.17s-0.299 1.060 0.17 1.528zM12 6c0.529 0 0.96-0.538 0.96-1.2s-0.431-1.2-0.96-1.2-0.96 0.538-0.96 1.2 0.431 1.2 0.96 1.2z" fill="#eeeeee" />
</svg>
