<?xml version="1.0" encoding="utf-8"?>
<!-- Generated by IcoMoon.io -->
<!DOCTYPE svg PUBLIC "-//W3C//DTD SVG 1.1//EN" "http://www.w3.org/Graphics/SVG/1.1/DTD/svg11.dtd">
<svg version="1.1" xmlns="http://www.w3.org/2000/svg" xmlns:xlink="http://www.w3.org/1999/xlink" width="24" height="24" viewBox="0 0 24 24">
	<path d="M18.72 21.835c-0.931 0.444-1.776 0.757-2.531 0.936-0.756 0.178-1.574 0.269-2.452 0.269-0.997 0-1.878-0.128-2.646-0.383-0.766-0.256-1.418-0.619-1.961-1.088-0.541-0.474-0.917-0.974-1.126-1.506-0.21-0.532-0.314-1.302-0.314-2.311v-7.745h-2.411v-3.125c0.857-0.282 1.592-0.684 2.202-1.211 0.612-0.526 1.102-1.158 1.472-1.896 0.37-0.738 0.623-1.675 0.763-2.815h3.102v5.581h5.178v3.466h-5.178v5.663c0 1.279 0.067 2.101 0.203 2.466 0.132 0.362 0.382 0.653 0.745 0.87 0.485 0.293 1.036 0.439 1.657 0.439 1.105 0 2.203-0.364 3.295-1.090v3.48z" fill="#eeeeee" />
</svg>
