<?xml version="1.0" encoding="utf-8"?>
<!-- Generated by IcoMoon.io -->
<!DOCTYPE svg PUBLIC "-//W3C//DTD SVG 1.1//EN" "http://www.w3.org/Graphics/SVG/1.1/DTD/svg11.dtd">
<svg version="1.1" xmlns="http://www.w3.org/2000/svg" xmlns:xlink="http://www.w3.org/1999/xlink" width="24" height="24" viewBox="0 0 24 24">
	<path d="M22.692 7.009c-1.207 6.926-7.95 12.792-9.978 14.131-2.029 1.339-3.878-0.536-4.55-1.956-0.768-1.616-3.071-10.388-3.674-11.113-0.602-0.728-2.412 0.725-2.412 0.725l-0.877-1.171c0 0 3.674-4.47 6.47-5.028 2.964-0.592 2.959 4.637 3.672 7.54 0.69 2.809 1.153 4.417 1.754 4.417 0.604 0 1.754-1.567 3.016-3.968 1.264-2.404-0.054-4.525-2.522-3.017 0.986-6.034 10.309-7.484 9.102-0.559z" fill="#eeeeee" />
</svg>
