<?xml version="1.0" encoding="utf-8"?>
<!-- Generator: Adobe Illustrator 16.0.4, SVG Export Plug-In . SVG Version: 6.00 Build 0)  -->
<!DOCTYPE svg PUBLIC "-//W3C//DTD SVG 1.1//EN" "http://www.w3.org/Graphics/SVG/1.1/DTD/svg11.dtd">
<svg version="1.1"
	 id="svg2" xmlns:rdf="http://www.w3.org/1999/02/22-rdf-syntax-ns#" xmlns:cc="http://creativecommons.org/ns#" xmlns:dc="http://purl.org/dc/elements/1.1/"
	 xmlns="http://www.w3.org/2000/svg" xmlns:xlink="http://www.w3.org/1999/xlink" x="0px" y="0px" width="145.139px"
	 height="813.448px" viewBox="0.908 25.52 145.139 813.448" enable-background="new 0.908 25.52 145.139 813.448"
	 xml:space="preserve">
<g id="g10" transform="matrix(1.25,0,0,-1.25,0,990)">
	<g id="g3048">
		<g id="g3050">
			<g id="g3056" transform="translate(574.32 60.63)">
				<path id="path3058" fill="#FFFFFF" d="M-463.589,60.574v26.717h0.005l1.593,6.663l1.316,5.63l0.938,4.975l0.655,4.692
					l0.659,5.445l0.373,5.441l0.191,5.82l-0.191,6.102l-0.28,6.661l-0.752,7.228l-0.748,6.478l-0.941,6.852l-1.22,7.32l-1.593,8.636
					h-0.007v465.47c0,27.633-1.741,50.491-4.809,69.724l-94.302,0.148c-3.052-19.202-4.784-42.312-4.784-69.874V175.22h-0.002
					l-1.595-8.636l-1.218-7.319l-0.942-6.853l-0.748-6.478l-0.755-7.227l-0.28-6.661l-0.188-6.102l0.188-5.82l0.373-5.441
					l0.659-5.447l0.656-4.692l0.938-4.975l1.316-5.63l1.594-6.664h0.002V60.574H-463.589L-463.589,60.574z"/>
			</g>
			<g id="g3060" transform="translate(574.32 60.63)">
				<path id="path3062" fill="none" stroke="#918F90" stroke-width="0.946" d="M-463.589,60.574v26.717h0.005l1.593,6.663
					l1.316,5.63l0.938,4.975l0.655,4.692l0.659,5.445l0.373,5.441l0.191,5.82l-0.191,6.102l-0.28,6.661l-0.752,7.228l-0.748,6.478
					l-0.941,6.852l-1.22,7.32l-1.593,8.636h-0.007v465.47c0,27.633-1.741,50.491-4.809,69.724l-94.302,0.148
					c-3.052-19.202-4.784-42.312-4.784-69.874V175.22h-0.002l-1.595-8.636l-1.218-7.319l-0.942-6.853l-0.748-6.478l-0.755-7.227
					l-0.28-6.661l-0.188-6.102l0.188-5.82l0.373-5.441l0.659-5.447l0.656-4.692l0.938-4.975l1.316-5.63l1.594-6.664h0.002V60.574
					H-463.589L-463.589,60.574z"/>
			</g>
		</g>
	</g>
	<g id="g3064">
		<g id="g3066">
			<path id="path3072" fill="#FFFFFF" stroke="#918F90" stroke-width="0.473" d="M81.89,263.889h-5.166v1.189h5.166v-1.191V263.889z
				"/>
			<path id="path3074" fill="#FFFFFF" stroke="#918F90" stroke-width="0.473" d="M81.89,265.079h-5.166v1.192h5.166V265.079z"/>
			<path id="path3076" fill="#FFFFFF" stroke="#918F90" stroke-width="0.473" d="M81.89,266.271h-5.166v1.191h5.166V266.271
				L81.89,266.271z"/>
			<path id="path3078" fill="#FFFFFF" stroke="#918F90" stroke-width="0.473" d="M85.771,263.889H81.89v1.189h3.881v-1.191V263.889z
				"/>
			<path id="path3080" fill="#FFFFFF" stroke="#918F90" stroke-width="0.473" d="M85.771,265.079H81.89v1.192h3.881V265.079z"/>
			<path id="path3082" fill="#FFFFFF" stroke="#918F90" stroke-width="0.473" d="M85.771,266.271H81.89v1.191h3.881V266.271
				L85.771,266.271z"/>
			<path id="path3084" fill="#FFFFFF" stroke="#918F90" stroke-width="0.473" d="M81.89,267.461h-5.166v1.192h5.166V267.461
				L81.89,267.461z"/>
			<path id="path3086" fill="#FFFFFF" stroke="#918F90" stroke-width="0.473" d="M85.771,267.461H81.89v1.192h3.881V267.461
				L85.771,267.461z"/>
			<path id="path3088" fill="#FFFFFF" stroke="#918F90" stroke-width="0.473" d="M81.89,268.65h-5.166v1.191h5.166v-1.188V268.65z"
				/>
			<path id="path3090" fill="#FFFFFF" stroke="#918F90" stroke-width="0.473" d="M85.771,268.65H81.89v1.191h3.881v-1.188V268.65z"
				/>
			<path id="path3092" fill="#FFFFFF" stroke="#918F90" stroke-width="0.473" d="M81.89,269.839h-5.166v1.189h5.166V269.839z"/>
			<path id="path3094" fill="#FFFFFF" stroke="#918F90" stroke-width="0.473" d="M85.771,269.839H81.89v1.189h3.881V269.839z"/>
			<path id="path3096" fill="#FFFFFF" stroke="#918F90" stroke-width="0.473" d="M76.723,263.889h-3.88v1.189h3.88v-1.191V263.889z"
				/>
			<path id="path3098" fill="#FFFFFF" stroke="#918F90" stroke-width="0.473" d="M76.723,265.079h-3.88v1.192h3.88V265.079z"/>
			<path id="path3100" fill="#FFFFFF" stroke="#918F90" stroke-width="0.473" d="M76.723,266.271h-3.88v1.191h3.88V266.271
				L76.723,266.271z"/>
			<path id="path3102" fill="#FFFFFF" stroke="#918F90" stroke-width="0.473" d="M76.723,267.461h-3.88v1.192h3.88V267.461
				L76.723,267.461z"/>
			<path id="path3104" fill="#FFFFFF" stroke="#918F90" stroke-width="0.473" d="M76.723,268.65h-3.88v1.191h3.88v-1.188V268.65z"/>
			<path id="path3106" fill="#FFFFFF" stroke="#918F90" stroke-width="0.473" d="M76.723,269.839h-3.88v1.189h3.88V269.839z"/>
			<path id="path3108" fill="#FFFFFF" stroke="#918F90" stroke-width="0.473" d="M85.771,263.9H72.843v-3.506h12.928v3.509V263.9z"
				/>
			<path id="path3110" fill="#FFFFFF" stroke="#918F90" stroke-width="0.473" d="M41.113,263.889h-5.166v1.189h5.166v-1.191V263.889
				z"/>
			<path id="path3112" fill="#FFFFFF" stroke="#918F90" stroke-width="0.473" d="M41.113,265.079h-5.166v1.192h5.166V265.079z"/>
			<path id="path3114" fill="#FFFFFF" stroke="#918F90" stroke-width="0.473" d="M41.113,266.271h-5.166v1.191h5.166V266.271
				L41.113,266.271z"/>
			<path id="path3116" fill="#FFFFFF" stroke="#918F90" stroke-width="0.473" d="M44.994,263.889h-3.88v1.189h3.88v-1.191V263.889z"
				/>
			<path id="path3118" fill="#FFFFFF" stroke="#918F90" stroke-width="0.473" d="M44.994,265.079h-3.88v1.192h3.88V265.079z"/>
			<path id="path3120" fill="#FFFFFF" stroke="#918F90" stroke-width="0.473" d="M44.994,266.271h-3.88v1.191h3.88V266.271
				L44.994,266.271z"/>
			<path id="path3122" fill="#FFFFFF" stroke="#918F90" stroke-width="0.473" d="M41.113,267.461h-5.166v1.192h5.166V267.461
				L41.113,267.461z"/>
			<path id="path3124" fill="#FFFFFF" stroke="#918F90" stroke-width="0.473" d="M44.994,267.461h-3.88v1.192h3.88V267.461
				L44.994,267.461z"/>
			<path id="path3126" fill="#FFFFFF" stroke="#918F90" stroke-width="0.473" d="M41.113,268.65h-5.166v1.191h5.166v-1.188V268.65z"
				/>
			<path id="path3128" fill="#FFFFFF" stroke="#918F90" stroke-width="0.473" d="M44.994,268.65h-3.88v1.191h3.88v-1.188V268.65z"/>
			<path id="path3130" fill="#FFFFFF" stroke="#918F90" stroke-width="0.473" d="M41.113,269.839h-5.166v1.189h5.166V269.839z"/>
			<path id="path3132" fill="#FFFFFF" stroke="#918F90" stroke-width="0.473" d="M44.994,269.839h-3.88v1.189h3.88V269.839z"/>
			<path id="path3134" fill="#FFFFFF" stroke="#918F90" stroke-width="0.473" d="M35.946,263.889h-3.88v1.189h3.88v-1.191V263.889z"
				/>
			<path id="path3136" fill="#FFFFFF" stroke="#918F90" stroke-width="0.473" d="M35.946,265.079h-3.88v1.192h3.88V265.079z"/>
			<path id="path3138" fill="#FFFFFF" stroke="#918F90" stroke-width="0.473" d="M35.946,266.271h-3.88v1.191h3.88V266.271
				L35.946,266.271z"/>
			<path id="path3140" fill="#FFFFFF" stroke="#918F90" stroke-width="0.473" d="M35.946,267.461h-3.88v1.192h3.88V267.461
				L35.946,267.461z"/>
			<path id="path3142" fill="#FFFFFF" stroke="#918F90" stroke-width="0.473" d="M35.946,268.65h-3.88v1.191h3.88v-1.188V268.65z"/>
			<path id="path3144" fill="#FFFFFF" stroke="#918F90" stroke-width="0.473" d="M35.946,269.839h-3.88v1.189h3.88V269.839z"/>
			<path id="path3146" fill="#FFFFFF" stroke="#918F90" stroke-width="0.473" d="M44.994,263.9H32.066v-3.506h12.928v3.509V263.9
				L44.994,263.9z"/>
			<path id="path3148" fill="#FFFFFF" stroke="#918F90" stroke-width="0.473" d="M75.167,651.29h5.166v-1.19h-5.166V651.29z"/>
			<path id="path3150" fill="#FFFFFF" stroke="#918F90" stroke-width="0.473" d="M75.167,650.1h5.166v-1.19h-5.166V650.1z"/>
			<path id="path3152" fill="#FFFFFF" stroke="#918F90" stroke-width="0.473" d="M75.167,648.91h5.166v-1.191h-5.166V648.91
				L75.167,648.91z"/>
			<path id="path3154" fill="#FFFFFF" stroke="#918F90" stroke-width="0.473" d="M71.286,651.29h3.88v-1.19h-3.88V651.29z"/>
			<path id="path3156" fill="#FFFFFF" stroke="#918F90" stroke-width="0.473" d="M71.286,650.1h3.88v-1.19h-3.88V650.1z"/>
			<path id="path3158" fill="#FFFFFF" stroke="#918F90" stroke-width="0.473" d="M71.286,648.91h3.88v-1.191h-3.88V648.91
				L71.286,648.91z"/>
			<path id="path3160" fill="#FFFFFF" stroke="#918F90" stroke-width="0.473" d="M75.167,647.72h5.166v-1.19h-5.166V647.72z"/>
			<path id="path3162" fill="#FFFFFF" stroke="#918F90" stroke-width="0.473" d="M71.286,647.72h3.88v-1.19h-3.88V647.72z"/>
			<path id="path3164" fill="#FFFFFF" stroke="#918F90" stroke-width="0.473" d="M75.167,646.53h5.166v-1.191h-5.166v1.19V646.53z"
				/>
			<path id="path3166" fill="#FFFFFF" stroke="#918F90" stroke-width="0.473" d="M71.286,646.53h3.88v-1.191h-3.88v1.19V646.53z"/>
			<path id="path3168" fill="#FFFFFF" stroke="#918F90" stroke-width="0.473" d="M75.167,645.34h5.166v-1.19h-5.166V645.34z"/>
			<path id="path3170" fill="#FFFFFF" stroke="#918F90" stroke-width="0.473" d="M71.286,645.34h3.88v-1.19h-3.88V645.34z"/>
			<path id="path3172" fill="#FFFFFF" stroke="#918F90" stroke-width="0.473" d="M80.334,651.29h3.882v-1.19h-3.882V651.29z"/>
			<path id="path3174" fill="#FFFFFF" stroke="#918F90" stroke-width="0.473" d="M80.334,650.1h3.882v-1.19h-3.882V650.1z"/>
			<path id="path3176" fill="#FFFFFF" stroke="#918F90" stroke-width="0.473" d="M80.334,648.91h3.882v-1.191h-3.882V648.91
				L80.334,648.91z"/>
			<path id="path3178" fill="#FFFFFF" stroke="#918F90" stroke-width="0.473" d="M80.334,647.72h3.882v-1.19h-3.882V647.72z"/>
			<path id="path3180" fill="#FFFFFF" stroke="#918F90" stroke-width="0.473" d="M80.334,646.53h3.882v-1.191h-3.882v1.19V646.53z"
				/>
			<path id="path3182" fill="#FFFFFF" stroke="#918F90" stroke-width="0.473" d="M80.334,645.34h3.882v-1.19h-3.882V645.34z"/>
			<path id="path3184" fill="#FFFFFF" stroke="#918F90" stroke-width="0.473" d="M71.286,651.28h12.93v3.509h-12.93v-3.51V651.28z"
				/>
			<path id="path3186" fill="#FFFFFF" stroke="#918F90" stroke-width="0.473" d="M36.833,651.22H42v-1.19h-5.167V651.22z"/>
			<path id="path3188" fill="#FFFFFF" stroke="#918F90" stroke-width="0.473" d="M36.833,650.03H42v-1.192h-5.167v1.19V650.03z"/>
			<path id="path3190" fill="#FFFFFF" stroke="#918F90" stroke-width="0.473" d="M36.833,648.84H42v-1.19h-5.167V648.84z"/>
			<path id="path3192" fill="#FFFFFF" stroke="#918F90" stroke-width="0.473" d="M32.953,651.22h3.88v-1.19h-3.88V651.22z"/>
			<path id="path3194" fill="#FFFFFF" stroke="#918F90" stroke-width="0.473" d="M32.953,650.03h3.88v-1.192h-3.88v1.19V650.03z"/>
			<path id="path3196" fill="#FFFFFF" stroke="#918F90" stroke-width="0.473" d="M32.953,648.84h3.88v-1.19h-3.88V648.84z"/>
			<path id="path3198" fill="#FFFFFF" stroke="#918F90" stroke-width="0.473" d="M36.833,647.64H42v-1.191h-5.167V647.64
				L36.833,647.64z"/>
			<path id="path3200" fill="#FFFFFF" stroke="#918F90" stroke-width="0.473" d="M32.953,647.64h3.88v-1.191h-3.88V647.64
				L32.953,647.64z"/>
			<path id="path3202" fill="#FFFFFF" stroke="#918F90" stroke-width="0.473" d="M36.833,646.45H42v-1.19h-5.167V646.45z"/>
			<path id="path3204" fill="#FFFFFF" stroke="#918F90" stroke-width="0.473" d="M32.953,646.45h3.88v-1.19h-3.88V646.45z"/>
			<path id="path3206" fill="#FFFFFF" stroke="#918F90" stroke-width="0.473" d="M36.833,645.26H42v-1.19h-5.167V645.26z"/>
			<path id="path3208" fill="#FFFFFF" stroke="#918F90" stroke-width="0.473" d="M32.953,645.26h3.88v-1.19h-3.88V645.26z"/>
			<path id="path3210" fill="#FFFFFF" stroke="#918F90" stroke-width="0.473" d="M42.001,651.22h3.88v-1.19h-3.88V651.22z"/>
			<path id="path3212" fill="#FFFFFF" stroke="#918F90" stroke-width="0.473" d="M42.001,650.03h3.88v-1.192h-3.88v1.19V650.03z"/>
			<path id="path3214" fill="#FFFFFF" stroke="#918F90" stroke-width="0.473" d="M42.001,648.84h3.88v-1.19h-3.88V648.84z"/>
			<path id="path3216" fill="#FFFFFF" stroke="#918F90" stroke-width="0.473" d="M42.001,647.64h3.88v-1.191h-3.88V647.64
				L42.001,647.64z"/>
			<path id="path3218" fill="#FFFFFF" stroke="#918F90" stroke-width="0.473" d="M42.001,646.45h3.88v-1.19h-3.88V646.45z"/>
			<path id="path3220" fill="#FFFFFF" stroke="#918F90" stroke-width="0.473" d="M42.001,645.26h3.88v-1.19h-3.88V645.26z"/>
			<path id="path3222" fill="#FFFFFF" stroke="#918F90" stroke-width="0.473" d="M32.953,651.2h12.93v3.511h-12.93V651.2
				L32.953,651.2z"/>
			<path id="path3224" fill="#FFFFFF" stroke="#918F90" stroke-width="0.473" d="M36.101,301.429h-6.163v-17.905h6.163v17.911
				V301.429z"/>
			<path id="path3226" fill="#FFFFFF" stroke="#918F90" stroke-width="0.473" d="M87.44,301.479h-6.159v-17.908h6.159V301.479
				L87.44,301.479z"/>
			<g id="g3228" transform="translate(525.41 230.43)">
				<path id="path3230" fill="#FFFFFF" d="M-463.589,60.574c0,4.1,1.219,8.167,3.011,10.545c1.075,1.43,3.516,1.505,3.516,1.505
					h3.514V50.834h-7.734c0,0-2.309,4.12-2.309,9.739"/>
			</g>
			<g id="g3232" transform="translate(525.41 230.43)">
				<path id="path3234" fill="none" stroke="#918F90" stroke-width="0.946" d="M-463.589,60.574c0,4.1,1.219,8.167,3.011,10.545
					c1.075,1.43,3.516,1.505,3.516,1.505h3.514V50.834h-7.734c0,0-2.309,4.12-2.309,9.739H-463.589L-463.589,60.574z"/>
			</g>
			<g id="g3236" transform="translate(519.17 230.43)">
				<path id="path3238" fill="#FFFFFF" d="M-463.589,60.574c0,4.1-1.22,8.167-3.012,10.545c-1.075,1.43-3.516,1.505-3.516,1.505
					h-3.511V50.834h7.73C-465.898,50.834-463.588,54.956-463.589,60.574"/>
			</g>
			<g id="g3240" transform="translate(519.17 230.43)">
				<path id="path3242" fill="none" stroke="#918F90" stroke-width="0.946" d="M-463.589,60.574c0,4.1-1.22,8.167-3.012,10.545
					c-1.075,1.43-3.516,1.505-3.516,1.505h-3.511V50.834h7.73C-465.898,50.834-463.588,54.956-463.589,60.574L-463.589,60.574z"/>
			</g>
			<g id="g3244" transform="translate(535.44 221.66)">
				<path id="path3246" fill="none" stroke="#918F90" stroke-width="0.473" d="M-463.589,60.575h-3.402
					c-1.52,0-2.752,1.697-2.752,3.791c0,2.097,1.232,3.794,2.752,3.794h3.402V60.575z M-489.899,60.575h3.398
					c1.52,0,2.755,1.697,2.755,3.791c0,2.097-1.238,3.794-2.755,3.794h-3.398V60.575z M-463.589,70.379h-3.402
					c-1.52,0-2.752,1.695-2.752,3.791c0,2.095,1.232,3.795,2.752,3.795h3.402V70.379z M-489.899,70.379h3.398
					c1.52,0,2.755,1.695,2.755,3.791c0,2.095-1.238,3.795-2.755,3.795h-3.398V70.379z M-482.899,99.74l-4.054-1.203
					 M-483.103,100.84l-4.217-0.878 M-483.23,101.94l-4.323-0.533 M-483.443,103.047l-4.24-0.172 M-483.333,104.154l-4.345,0.183
					 M-483.298,105.279l-4.248,0.533 M-483.066,106.361l-4.241,0.892 M-482.948,107.494l-3.998,1.192 M-481.937,109.836
					l-3.757,1.942 M-481.394,110.808l-3.573,2.236 M-480.866,111.783l-3.284,2.455 M-483.84,115.019
					c-0.875-1.142-1.609-2.403-2.205-3.733l-0.848-2.303c-0.577-1.955-0.857-4.039-0.759-6.2c0.068-1.472,0.32-2.883,0.695-4.241
					c0.82-3.137,2.62-5.42,3.559-6.506l0.534-0.611l2.945,3.091c-0.598,0.695-1.418,1.931-1.877,2.739
					c0.527,0.598,0.513,1.509-0.064,2.07c-0.291,0.278-0.666,0.416-1.041,0.419l0.055,0.014c-0.287,1.031-0.477,2.106-0.527,3.22
					c-0.071,1.519,0.112,2.988,0.484,4.372c0.373,0.028,0.741,0.183,1.009,0.483c0.545,0.595,0.512,1.503-0.052,2.067
					c0.409,0.836,1.152,2.117,1.709,2.85l-3.123,2.908l-0.5-0.641h0.005V115.019z M-481.81,97.329l-3.634-2.169 M-481.224,96.39
					l-3.434-2.447 M-480.628,95.44l-3.136-2.647 M-470.404,99.75l4.054-1.203 M-470.2,100.847l4.213-0.878 M-470.068,101.947
					l4.323-0.533 M-469.865,103.054l4.239-0.172 M-469.966,104.161l4.341,0.183 M-469.995,105.286l4.249,0.533 M-470.236,106.369
					l4.241,0.892 M-470.355,107.501l4.002,1.192 M-471.352,109.844l3.756,1.942 M-471.896,110.815l3.57,2.236 M-472.436,111.794
					l3.286,2.453 M-469.47,115.026c0.875-1.142,1.609-2.402,2.205-3.733l0.848-2.303c0.577-1.955,0.859-4.039,0.759-6.197
					c-0.066-1.473-0.318-2.884-0.695-4.242c-0.818-3.136-2.62-5.419-3.562-6.506l-0.53-0.611l-2.952,3.092
					c0.601,0.694,1.423,1.93,1.88,2.739c-0.526,0.597-0.513,1.508,0.067,2.069c0.291,0.278,0.664,0.417,1.041,0.42l-0.059,0.014
					c0.287,1.03,0.48,2.105,0.53,3.219c0.07,1.519-0.112,2.989-0.485,4.372c-0.372,0.028-0.738,0.184-1.012,0.484
					c-0.541,0.597-0.509,1.502,0.054,2.066c-0.409,0.836-1.154,2.117-1.713,2.85l3.127,2.909l0.47-0.642H-469.47L-469.47,115.026z
					 M-471.5,97.337l3.636-2.169 M-472.094,96.397l3.432-2.447 M-472.692,95.447l3.137-2.647"/>
			</g>
			<path id="path3248" fill="#FFFFFF" stroke="#918F90" stroke-width="0.473" d="M38.771,631.06h-6.16v-17.907h6.16v17.91V631.06z"
				/>
			<path id="path3250" fill="#FFFFFF" stroke="#918F90" stroke-width="0.473" d="M85.1,631.06h-6.16v-17.907h6.16v17.91V631.06z"/>
			<g id="g3252" transform="translate(534.53 552.82)">
				<path id="path3254" fill="#FFFFFF" d="M-463.589,60.574v19.922h-5.095c-1.238-2.823-3.693-3.377-7.016-3.377
					c-3.327,0-5.78,0.554-7.02,3.377h-5.062V60.577c3.062-1.395,7.348-3.271,12.098-3.271s9.03,1.875,12.09,3.268"/>
			</g>
			<g id="g3256" transform="translate(534.53 552.82)">
				<path id="path3258" fill="none" stroke="#918F90" stroke-width="0.946" d="M-463.589,60.574v19.922h-5.095
					c-1.238-2.823-3.693-3.377-7.016-3.377c-3.327,0-5.78,0.554-7.02,3.377h-5.062V60.577c3.062-1.395,7.348-3.271,12.098-3.271
					s9.03,1.875,12.09,3.268H-463.589z M-506.699,214.464h61.826V194.78h-7.648l-2.108-3.713l8.134-4.719l1.105-1.708
					c-2.116-7.626-0.327-11.638,0.188-13.584c0.514-1.943,4.009-9.401-0.916-18.434c-5.577-10.215-16.216-11.346-29.823-11.346
					c-13.608,0-24.245,1.131-29.823,11.346c-4.927,9.033-1.43,16.491-0.916,18.434c0.513,1.946,2.075,6.052-0.041,13.678
					l1.383,1.489l8.435,4.743l-2.409,3.994h-7.384l0.02,19.5L-506.699,214.464z"/>
			</g>
			<g id="g3260" transform="translate(536.9 609.35)">
				<path id="path3262" fill="#FFFFFF" stroke="#918F90" stroke-width="0.473" stroke-linejoin="round" d="M-463.589,60.574
					c-0.088-0.331-0.133-0.681-0.133-1.043c0-1.072,0.413-2.043,1.087-2.746c0.673-0.702,1.603-1.136,2.628-1.136
					c1.027,0,1.77,0.571,2.379,1.207c0.609,0.636,0.675,1.437,0.675,2.32c0,0.882-0.454,1.047-0.961,1.576
					c-0.752,0.786-1.191,1.232-3.411,0.647c-2.861-0.753-3.537-1.429-4.818-3.614c-1.281-2.185,0.076-4.594,1.383-5.519
					c0.51-0.379,1.052-0.72,1.645-0.972c0.955-0.405,2.009-0.628,3.109-0.628c1.105,0,2.154,0.223,3.111,0.628
					c0.955,0.405,1.816,0.989,2.541,1.712c0.723,0.723,1.309,1.586,1.712,2.54c0.405,0.958,0.628,2.009,0.628,3.111
					s-0.223,2.154-0.63,3.111c-0.402,0.956-1.373,3.248-1.373,3.248"/>
			</g>
			<g id="g3264" transform="translate(543.26 608.89)">
				<path id="path3266" fill="none" stroke="#918F90" stroke-width="0.473" d="M-463.589,60.574l4.304,2.253 M-463.245,59.685
					l4.746,0.862 M-463.389,58.75l4.955-0.614 M-463.614,57.871l4.527-2.054 M-464.127,57.124l3.73-3.329 M-464.798,56.513
					l2.539-4.252 M-465.659,56.198l1.168-4.849 M-466.571,56.048l-0.327-4.902 M-467.487,56.21l-1.759-4.542 M-468.346,56.625
					l-2.993-3.756 M-497.049-337.422l1.538-0.03l1.927-7.198l0.459-3.327l2.53-3.003l-1.134-12.617l2.059-0.547l-3.859-17.509
					h-14.066v-1.561h-2.88v8.534h-1.562v3.972h1.582v4.669h-11.449"/>
			</g>
			<g id="g3268" transform="translate(513.94 90.4)">
				<path id="path3270" fill="#FFFFFF" d="M-463.589,60.575c0.616-4.092,4.144-7.233,8.408-7.233c4.263,0,7.778,3.133,8.402,7.222
					v3.45c0.436-0.083,0.885-0.13,1.348-0.13c3.832,0,6.936,3.103,6.936,6.936c0,2.639-1.482,4.911-3.648,6.083
					c-0.79,0.248-1.537,0.659-2.162,1.284c-1.03,1.033-1.548,2.383-1.548,3.736c0,1.355,0.514,2.705,1.548,3.739
					c1.023,1.019,2.362,1.53,3.702,1.541c2.911,2.964,4.943,6.792,5.615,11.084c-0.851,0.792-1.391,1.914-1.391,3.166
					c0,1.262,0.545,2.387,1.405,3.181c-0.641,4.061-2.477,7.719-5.145,10.603c-0.295-0.048-0.594-0.084-0.891-0.084
					c-1.348,0-2.705,0.517-3.734,1.545c-1.034,1.033-1.548,2.386-1.548,3.739c0,1.35,0.513,2.705,1.548,3.733
					c0.186,0.189,0.391,0.339,0.595,0.489l-0.166,0.133c-3.127,1.292-6.802,2.053-10.759,2.053c-3.961,0-7.645-0.764-10.773-2.056
					l-0.164-0.136c0.188-0.144,0.38-0.278,0.55-0.45c1.034-1.03,1.549-2.383,1.549-3.736v-0.028c0,0-0.002-0.002-0.002-0.005
					c-0.009-1.342-0.521-2.681-1.548-3.703c-1.027-1.036-2.38-1.55-3.734-1.55c-0.273,0-0.55,0.042-0.827,0.083
					c-2.727-2.947-4.586-6.694-5.191-10.858c0.72-0.773,1.17-1.806,1.17-2.95c0-1.134-0.441-2.156-1.157-2.931
					c0.637-4.403,2.702-8.331,5.68-11.347c1.239-0.081,2.456-0.567,3.4-1.514c1.036-1.034,1.549-2.384,1.549-3.739
					c0-1.353-0.513-2.703-1.549-3.736c-0.621-0.623-1.371-1.036-2.158-1.284c-2.168-1.173-3.652-3.445-3.652-6.084
					c0-3.831,3.109-6.936,6.938-6.936c0.48,0,0.953,0.045,1.407,0.141v-3.436L-463.589,60.575z"/>
			</g>
			<g id="g3272" transform="translate(513.94 90.4)">
				<path id="path3274" fill="none" stroke="#918F90" stroke-width="0.946" stroke-linejoin="round" d="M-463.589,60.575
					c0.616-4.092,4.144-7.233,8.408-7.233c4.263,0,7.778,3.133,8.402,7.222v3.45c0.436-0.083,0.885-0.13,1.348-0.13
					c3.832,0,6.936,3.103,6.936,6.936c0,2.639-1.482,4.911-3.648,6.083c-0.79,0.248-1.537,0.659-2.162,1.284
					c-1.03,1.033-1.548,2.383-1.548,3.736c0,1.355,0.514,2.705,1.548,3.739c1.023,1.019,2.362,1.53,3.702,1.541
					c2.911,2.964,4.943,6.792,5.615,11.084c-0.851,0.792-1.391,1.914-1.391,3.166c0,1.262,0.545,2.387,1.405,3.181
					c-0.641,4.061-2.477,7.719-5.145,10.603c-0.295-0.048-0.594-0.084-0.891-0.084c-1.348,0-2.705,0.517-3.734,1.545
					c-1.034,1.033-1.548,2.386-1.548,3.739c0,1.35,0.513,2.705,1.548,3.733c0.186,0.189,0.391,0.339,0.595,0.489l-0.166,0.133
					c-3.127,1.292-6.802,2.053-10.759,2.053c-3.961,0-7.645-0.764-10.773-2.056l-0.164-0.136c0.188-0.144,0.38-0.278,0.55-0.45
					c1.034-1.03,1.549-2.383,1.549-3.736v-0.028c0,0-0.002-0.002-0.002-0.005c-0.009-1.342-0.521-2.681-1.548-3.703
					c-1.027-1.036-2.38-1.55-3.734-1.55c-0.273,0-0.55,0.042-0.827,0.083c-2.727-2.947-4.586-6.694-5.191-10.858
					c0.72-0.773,1.17-1.806,1.17-2.95c0-1.134-0.441-2.156-1.157-2.931c0.637-4.403,2.702-8.331,5.68-11.347
					c1.239-0.081,2.456-0.567,3.4-1.514c1.036-1.034,1.549-2.384,1.549-3.739c0-1.353-0.513-2.703-1.549-3.736
					c-0.621-0.623-1.371-1.036-2.158-1.284c-2.168-1.173-3.652-3.445-3.652-6.084c0-3.831,3.109-6.936,6.938-6.936
					c0.48,0,0.953,0.045,1.407,0.141v-3.436L-463.589,60.575z"/>
			</g>
			<g id="g3276" transform="translate(515.13 90.56)">
				<path id="path3278" fill="none" stroke="#100F0D" stroke-width="0.473" d="M-463.589,60.575"/>
			</g>
			<g id="g3280" transform="translate(517.66 102.18)">
				<path id="path3282" fill="#FFFFFF" d="M-463.589,60.574c0.216-0.283,0.395-0.594,0.545-0.916
					c0.15-0.317,0.266-0.653,0.347-0.998c0.078-0.347,0.12-0.705,0.12-1.072c0-0.37-0.041-0.728-0.12-1.072
					c-0.081-0.345-0.197-0.684-0.347-1.003c-0.152-0.317-0.335-0.62-0.548-0.903c-0.217-0.283-0.457-0.547-0.727-0.789
					c-0.271-0.239-0.566-0.455-0.88-0.647c-0.32-0.192-0.657-0.358-1.016-0.491c-0.355-0.134-0.727-0.242-1.114-0.309
					c-0.387-0.072-0.79-0.111-1.201-0.111c-0.413,0-0.812,0.039-1.2,0.111c-0.389,0.067-0.76,0.175-1.116,0.309
					c-0.355,0.133-0.695,0.297-1.013,0.486l-1.759-3.456c0.362-0.188,0.741-0.355,1.128-0.503c0.607-0.227,1.247-0.408,1.909-0.527
					c0.663-0.12,1.347-0.184,2.048-0.184c0.702,0,1.386,0.064,2.052,0.184c0.657,0.119,1.298,0.302,1.905,0.527
					c0.609,0.231,1.188,0.514,1.727,0.839c0.54,0.328,1.044,0.7,1.505,1.111c0.069,0.064,0.127,0.128,0.195,0.192
					c0.677,0.438,1.477,0.697,2.345,0.697c0.823,0,1.584-0.241,2.239-0.639c0.084-0.083,0.166-0.169,0.252-0.247
					c0.459-0.411,0.962-0.783,1.505-1.111c0.541-0.325,1.116-0.609,1.727-0.839c0.605-0.227,1.245-0.408,1.905-0.528
					c0.662-0.119,1.35-0.183,2.048-0.183c0.706,0,1.391,0.064,2.049,0.183c0.661,0.12,1.301,0.303,1.909,0.528
					c0.388,0.148,0.77,0.317,1.127,0.503l-1.755,3.456c-0.316-0.189-0.657-0.355-1.013-0.488c-0.355-0.136-0.73-0.242-1.116-0.311
					c-0.388-0.072-0.788-0.111-1.202-0.111c-0.408,0-0.81,0.039-1.2,0.111c-0.386,0.067-0.76,0.175-1.114,0.308
					c-0.355,0.134-0.698,0.298-1.012,0.492c-0.316,0.191-0.614,0.408-0.881,0.647c-0.27,0.242-0.513,0.506-0.727,0.789
					c-0.216,0.283-0.398,0.586-0.548,0.903c-0.151,0.319-0.27,0.655-0.347,1.002c-0.081,0.345-0.122,0.703-0.122,1.072
					c0,0.37,0.041,0.725,0.122,1.073c0.077,0.347,0.196,0.68,0.347,0.997c0.15,0.322,0.328,0.633,0.542,0.916
					c-1.327,0.995-2.974,1.606-4.763,1.606c-1.8,0.002-3.45-0.609-4.78-1.603"/>
			</g>
			<g id="g3284" transform="translate(517.66 102.18)">
				<path id="path3286" fill="none" stroke="#918F90" stroke-width="0.473" stroke-linejoin="round" d="M-463.589,60.574
					c0.216-0.283,0.395-0.594,0.545-0.916c0.15-0.317,0.266-0.653,0.347-0.998c0.078-0.347,0.12-0.705,0.12-1.072
					c0-0.37-0.041-0.728-0.12-1.072c-0.081-0.345-0.197-0.684-0.347-1.003c-0.152-0.317-0.335-0.62-0.548-0.903
					c-0.217-0.283-0.457-0.547-0.727-0.789c-0.271-0.239-0.566-0.455-0.88-0.647c-0.32-0.192-0.657-0.358-1.016-0.491
					c-0.355-0.134-0.727-0.242-1.114-0.309c-0.387-0.072-0.79-0.111-1.201-0.111c-0.413,0-0.812,0.039-1.2,0.111
					c-0.389,0.067-0.76,0.175-1.116,0.309c-0.355,0.133-0.695,0.297-1.013,0.486l-1.759-3.456c0.362-0.188,0.741-0.355,1.128-0.503
					c0.607-0.227,1.247-0.408,1.909-0.527c0.663-0.12,1.347-0.184,2.048-0.184c0.702,0,1.386,0.064,2.052,0.184
					c0.657,0.119,1.298,0.302,1.905,0.527c0.609,0.231,1.188,0.514,1.727,0.839c0.54,0.328,1.044,0.7,1.505,1.111
					c0.069,0.064,0.127,0.128,0.195,0.192c0.677,0.438,1.477,0.697,2.345,0.697c0.823,0,1.584-0.241,2.239-0.639
					c0.084-0.083,0.166-0.169,0.252-0.247c0.459-0.411,0.962-0.783,1.505-1.111c0.541-0.325,1.116-0.609,1.727-0.839
					c0.605-0.227,1.245-0.408,1.905-0.528c0.662-0.119,1.35-0.183,2.048-0.183c0.706,0,1.391,0.064,2.049,0.183
					c0.661,0.12,1.301,0.303,1.909,0.528c0.388,0.148,0.77,0.317,1.127,0.503l-1.755,3.456c-0.316-0.189-0.657-0.355-1.013-0.488
					c-0.355-0.136-0.73-0.242-1.116-0.311c-0.388-0.072-0.788-0.111-1.202-0.111c-0.408,0-0.81,0.039-1.2,0.111
					c-0.386,0.067-0.76,0.175-1.114,0.308c-0.355,0.134-0.698,0.298-1.012,0.492c-0.316,0.191-0.614,0.408-0.881,0.647
					c-0.27,0.242-0.513,0.506-0.727,0.789c-0.216,0.283-0.398,0.586-0.548,0.903c-0.151,0.319-0.27,0.655-0.347,1.002
					c-0.081,0.345-0.122,0.703-0.122,1.072c0,0.37,0.041,0.725,0.122,1.073c0.077,0.347,0.196,0.68,0.347,0.997
					c0.15,0.322,0.328,0.633,0.542,0.916c-1.327,0.995-2.974,1.606-4.763,1.606c-1.8,0.002-3.45-0.609-4.78-1.603h0.021v-0.002
					H-463.589z"/>
			</g>
			<g id="g3288" transform="translate(526.51 101.03)">
				<path id="path3290" fill="none" stroke="#918F90" stroke-width="0.473" d="M-463.589,60.574
					c-1.188,0.728-2.584,1.158-4.081,1.158c-1.502,0-2.905-0.436-4.098-1.169 M-463.869,59.138
					c-1.125,0.628-2.422,0.997-3.805,0.997c-1.395,0-2.7-0.372-3.837-1.014 M-463.731,57.484c-1.159,0.667-2.5,1.053-3.93,1.053
					c-1.452,0-2.812-0.4-3.981-1.081 M-462.143,55.084l-2.681-3.17 M-461.215,54.356l-1.956-3.392 M-460.18,53.717l-1.248-3.475
					 M-458.968,53.552l-0.641-3.836 M-457.79,53.488l0.052-3.842 M-456.598,53.566l0.734-3.77 M-455.464,53.949l1.418-3.652
					 M-473.126,55.084l2.682-3.17 M-474.054,54.356l1.956-3.392 M-475.098,53.717l1.247-3.475 M-476.301,53.552l0.642-3.836
					 M-477.489,53.488l-0.05-3.842 M-478.669,53.566l-0.734-3.77 M-479.812,53.949l-1.416-3.652"/>
			</g>
			<g id="g3292" transform="translate(517.51 91.002)">
				<path id="path3294" fill="#FFFFFF" d="M-463.589,60.573c-0.264-0.158-0.805-0.297-1.13-0.416
					c-0.325-0.114-0.677-0.209-1.05-0.278c-0.372-0.07-0.77-0.117-1.186-0.136c-0.411-0.02-0.843-0.133-1.284-0.103
					c-0.445,0.036-0.909-0.053-1.38,0.017c-0.47,0.069-0.923,0.166-1.361,0.283c-0.438,0.12-0.977,0.259-1.37,0.42
					c-0.395,0.161-0.766,0.336-1.113,0.53l-1.794-2.922c0.37-0.197,0.755-0.386,1.157-0.561c0.627-0.27,1.413-0.511,2.104-0.711
					c0.691-0.206,1.413-0.367,2.159-0.492c0.745-0.119,1.467-0.113,2.171-0.169c0.705-0.055,1.389,0.056,2.049,0.092
					c0.655,0.036,1.284,0.111,1.877,0.234c0.595,0.12,1.152,0.163,1.668,0.364l-1.52,3.844h0.004V60.573z"/>
			</g>
			<g id="g3296" transform="translate(517.51 91.002)">
				<path id="path3298" fill="none" stroke="#918F90" stroke-width="0.473" stroke-linejoin="round" d="M-463.589,60.573
					c-0.264-0.158-0.805-0.297-1.13-0.416c-0.325-0.114-0.677-0.209-1.05-0.278c-0.372-0.07-0.77-0.117-1.186-0.136
					c-0.411-0.02-0.843-0.133-1.284-0.103c-0.445,0.036-0.909-0.053-1.38,0.017c-0.47,0.069-0.923,0.166-1.361,0.283
					c-0.438,0.12-0.977,0.259-1.37,0.42c-0.395,0.161-0.766,0.336-1.113,0.53l-1.794-2.922c0.37-0.197,0.755-0.386,1.157-0.561
					c0.627-0.27,1.413-0.511,2.104-0.711c0.691-0.206,1.413-0.367,2.159-0.492c0.745-0.119,1.467-0.113,2.171-0.169
					c0.705-0.055,1.389,0.056,2.049,0.092c0.655,0.036,1.284,0.111,1.877,0.234c0.595,0.12,1.152,0.163,1.668,0.364l-1.52,3.844
					h0.004V60.573z"/>
			</g>
			<g id="g3300" transform="translate(513.83 86.711)">
				<path id="path3302" fill="none" stroke="#918F90" stroke-width="0.473" d="M-460.999,64.528l1.168-3.794 M-462.121,64.2
					l0.846-3.741 M-463.345,63.964l0.18-3.653 M-464.713,63.989l-0.039-3.639 M-466.072,64.028l-0.664-3.492 M-467.426,64.289
					l-0.893-3.328 M-468.809,64.757l-1.523-3.117"/>
			</g>
			<g id="g3304" transform="translate(527.35 91.002)">
				<path id="path3306" fill="#FFFFFF" d="M-463.589,60.573c0.262-0.158,0.802-0.297,1.129-0.416
					c0.323-0.114,0.675-0.209,1.05-0.278c0.373-0.07,0.77-0.117,1.184-0.136c0.413-0.02,0.842-0.133,1.288-0.103
					c0.443,0.036,0.909-0.053,1.376,0.017c0.47,0.069,0.927,0.166,1.361,0.283c0.438,0.12,0.973,0.259,1.373,0.42
					c0.395,0.161,0.763,0.336,1.11,0.53l1.798-2.922c-0.373-0.197-0.755-0.386-1.159-0.561c-0.625-0.27-1.409-0.511-2.102-0.711
					c-0.694-0.206-1.416-0.367-2.159-0.492c-0.745-0.119-1.47-0.113-2.17-0.169c-0.705-0.055-1.389,0.056-2.048,0.092
					c-0.652,0.036-1.284,0.113-1.877,0.234c-0.593,0.12-1.154,0.163-1.67,0.364l1.52,3.844h-0.002L-463.589,60.573L-463.589,60.573z
					"/>
			</g>
			<g id="g3308" transform="translate(527.35 91.002)">
				<path id="path3310" fill="none" stroke="#918F90" stroke-width="0.473" stroke-linejoin="round" d="M-463.589,60.573
					c0.262-0.158,0.802-0.297,1.129-0.416c0.323-0.114,0.675-0.209,1.05-0.278c0.373-0.07,0.77-0.117,1.184-0.136
					c0.413-0.02,0.842-0.133,1.288-0.103c0.443,0.036,0.909-0.053,1.376,0.017c0.47,0.069,0.927,0.166,1.361,0.283
					c0.438,0.12,0.973,0.259,1.373,0.42c0.395,0.161,0.763,0.336,1.11,0.53l1.798-2.922c-0.373-0.197-0.755-0.386-1.159-0.561
					c-0.625-0.27-1.409-0.511-2.102-0.711c-0.694-0.206-1.416-0.367-2.159-0.492c-0.745-0.119-1.47-0.113-2.17-0.169
					c-0.705-0.055-1.389,0.056-2.048,0.092c-0.652,0.036-1.284,0.113-1.877,0.234c-0.593,0.12-1.154,0.163-1.67,0.364l1.52,3.844
					h-0.002L-463.589,60.573L-463.589,60.573z"/>
			</g>
			<g id="g3312" transform="translate(531.03 86.711)">
				<path id="path3314" fill="none" stroke="#918F90" stroke-width="0.473" d="M-466.179,64.528l-1.167-3.794 M-465.056,64.2
					l-0.843-3.741 M-463.839,63.964l-0.182-3.653 M-462.471,63.989l0.038-3.639 M-461.114,64.028l0.668-3.492 M-459.766,64.289
					l0.893-3.328 M-458.383,64.757l1.523-3.117 M-501.54,173.01v8.586h-6.926v-17.897h8.43l-1.5,9.308L-501.54,173.01z
					 M-459.66,184.76l-1.534-0.031l-1.93-7.197l-0.459-3.328l-2.534-3.002l1.132-12.617l-2.059-0.547l3.863-17.509h14.065v-1.558
					h2.88v8.533h1.562v3.972h-1.582v6.2h11.448 M-443.167,172.953v8.589h8.51v-23.847h-11.146l2.641,15.258H-443.167
					L-443.167,172.953z M-454.837,216.864c0.977-0.98,3.312-0.755,4.215,1.356c0.905,2.108,7.066,3.389,7.066-0.153v-12.953
					l2.044-2.938v-7.409l6.852,0.02 M-490.247,216.871c-0.976-0.981-3.312-0.756-4.215,1.355c-0.905,2.109-5.727,4.217-8.588-1.053
					c0,0,1.956-0.605,1.956-2.43c0-1.489-1.505-2.845-1.505-5.856s1.355-3.011,1.355-6.327c0-3.311-1.805-2.259-1.805-4.517v-3.314
					h-6.93 M-493.398,240.807c0,2.297-1.864,4.161-4.163,4.161c-2.296,0-4.16-1.864-4.16-4.161v-4.55
					c0-2.297,1.864-4.158,4.16-4.158c2.298,0,4.163,1.861,4.163,4.158V240.807L-493.398,240.807z M-494.358,240.278
					c0,1.766-1.434,3.197-3.202,3.197c-1.765,0-3.195-1.43-3.195-3.197v-3.5c0-1.767,1.43-3.198,3.195-3.198
					c1.77,0,3.202,1.434,3.202,3.198V240.278L-494.358,240.278z M-434.658,434.977h-7.23c0,4.321-3.223,5.98-4.363,5.98v4.916
					h-14.641v11.366l0.025,1.383v23.445l3.816,6.127h22.454 M-434.616,457.364h-11.623v-16.408"/>
			</g>
			<g id="g3316" transform="translate(522.43 274.24)">
				<path id="path3318" fill="none" stroke="#918F90" stroke-width="0.946" stroke-linejoin="round" d="M-463.589,60.574
					c-1.027,0-1.98,0.281-2.829,0.733l-0.791-1.141c-0.557-0.73-1.302-2.011-1.709-2.847c0.562-0.567,0.595-1.472,0.05-2.067
					c-0.27-0.3-0.637-0.455-1.01-0.483c-0.37-1.386-0.555-2.856-0.484-4.375c0.052-1.114,0.237-2.186,0.527-3.22l-0.055-0.013
					c0.377-0.006,0.752-0.145,1.042-0.423c0.576-0.561,0.591-1.472,0.062-2.069c0.463-0.809,1.28-2.045,1.88-2.739l0.83-1.117
					c0.762,0.345,1.6,0.55,2.487,0.55c0.877,0,1.709-0.197,2.461-0.536l0.75,1.103c0.6,0.694,1.423,1.93,1.88,2.739
					c-0.527,0.597-0.512,1.508,0.066,2.069c0.291,0.278,0.666,0.414,1.041,0.42l-0.057,0.014c0.286,1.033,0.478,2.105,0.528,3.219
					c0.072,1.52-0.113,2.988-0.485,4.373c-0.372,0.03-0.737,0.184-1.011,0.484c-0.543,0.595-0.511,1.502,0.053,2.067
					c-0.409,0.833-1.155,2.116-1.713,2.847l-0.843,1.055c-0.82-0.405-1.709-0.648-2.68-0.648h0.009v0.005H-463.589z"/>
			</g>
			<g id="g3320" transform="translate(542.48 554.37)">
				<path id="path3322" fill="none" stroke="#918F90" stroke-width="0.473" d="M-463.589,60.574l-0.579-0.287
					c-0.938-0.926-1.516-2.211-1.516-3.629c0-2.823,2.291-5.114,5.116-5.114c2.822,0,5.112,2.291,5.112,5.114
					c0,0.968-0.287,1.862-0.752,2.634v4.37h10.104 M-456.444,79.703v-7.909h10.316v6.554h-7.528v1.355h-2.79H-456.444z
					 M-514.004,78.348h-7.404v-6.427h10.42v7.934h-3.016V78.348z"/>
			</g>
			<path id="path3324" fill="none" stroke="#918F90" stroke-width="0.946" d="M65.239,655.65H52.436v-10.881h12.803V655.65
				L65.239,655.65z"/>
			<g id="g3326" transform="translate(528.1 595.42)">
				<path id="path3328" fill="none" stroke="#918F90" stroke-width="0.473" d="M-463.589,60.574v1.125c0,0,5.685,0.325,7.907,4.216"
					/>
			</g>
			<g id="g3330" transform="translate(546.48 613.79)">
				<path id="path3332" fill="none" stroke="#918F90" stroke-width="0.473" stroke-linejoin="round" d="M-463.589,60.574
					l3.565,1.097l1.932-4.788V31.05h7.678 M-494.044,42.121h-4.498v15.742c0,0-14.759,2.936-16.945,3.69l-2.109-4.143V31.126h-7.834
					 M-534.639,112.99l7.93,5.65c1.995,2.484,6.38,5.115,8.029,5.115 M-457.35,123.655c2.409,0,6.173-2.234,8.333-4.921l8.259-5.748
					"/>
			</g>
			<g id="g3334" transform="translate(568.59 89.066)">
				<path id="path3336" fill="none" stroke="#918F90" stroke-width="0.946" d="M-463.589,60.573l1.312,2.22l1.127,3.097l0.938,3.942
					l0.845,4.786l0.562,5.723l0.47,6.666l0.284,7.414v16.8l-0.284,7.416l-0.47,6.567l-0.562,5.727l-0.845,4.878l-0.938,3.942
					l-1.127,3.097l-1.312,2.189l-3.191,1.755l-5.43-0.005l0.03,444.459l8.539,6.1h1.432l0.011,14.911
					c0,8.986-0.188,17.456-0.548,25.449"/>
			</g>
			<path id="path3338" fill="#FFFFFF" stroke="#918F90" stroke-width="0.473" stroke-linecap="round" stroke-linejoin="round" d="
				M16.301,675.29h4.52v-1.19h-4.52V675.29z"/>
			<path id="path3340" fill="#FFFFFF" stroke="#918F90" stroke-width="0.473" stroke-linecap="round" stroke-linejoin="round" d="
				M16.301,674.1h4.52v-1.191h-4.52V674.1L16.301,674.1z"/>
			<path id="path3342" fill="#FFFFFF" stroke="#918F90" stroke-width="0.473" stroke-linecap="round" stroke-linejoin="round" d="
				M16.301,672.91h4.52v-1.19h-4.52V672.91z"/>
			<path id="path3344" fill="#FFFFFF" stroke="#918F90" stroke-width="0.473" stroke-linecap="round" stroke-linejoin="round" d="
				M16.301,671.72h4.52v-1.192h-4.52v1.19V671.72z"/>
			<path id="path3346" fill="#FFFFFF" stroke="#918F90" stroke-width="0.473" stroke-linecap="round" stroke-linejoin="round" d="
				M16.301,670.53h4.52v-1.189h-4.52V670.53L16.301,670.53z"/>
			<path id="path3348" fill="#FFFFFF" stroke="#918F90" stroke-width="0.473" stroke-linecap="round" stroke-linejoin="round" d="
				M16.301,669.34h4.52v-1.192h-4.52v1.19V669.34z"/>
			<g id="g3350" transform="translate(479.89 621.78)">
				<path id="path3352" fill="#FFFFFF" d="M-463.589,60.574h1.657l1.432-1.19h-3.089V60.574L-463.589,60.574z"/>
			</g>
			<g id="g3354" transform="translate(479.89 621.78)">
				<path id="path3356" fill="none" stroke="#918F90" stroke-width="0.473" stroke-linecap="round" stroke-linejoin="round" d="
					M-463.589,60.574h1.657l1.432-1.19h-3.089V60.574L-463.589,60.574z"/>
			</g>
			<g id="g3358" transform="translate(479.89 620.59)">
				<path id="path3360" fill="#FFFFFF" d="M-463.589,60.574h3.087l1.432-1.19h-4.52V60.574z"/>
			</g>
			<g id="g3362" transform="translate(479.89 620.59)">
				<path id="path3364" fill="none" stroke="#918F90" stroke-width="0.473" stroke-linecap="round" stroke-linejoin="round" d="
					M-463.589,60.574h3.087l1.432-1.19h-4.52V60.574z"/>
			</g>
			<path id="path3366" fill="#FFFFFF" stroke="#918F90" stroke-width="0.473" stroke-linecap="round" stroke-linejoin="round" d="
				M16.301,679.98h4.52v-1.192h-4.52v1.19V679.98z"/>
			<path id="path3368" fill="#FFFFFF" stroke="#918F90" stroke-width="0.473" stroke-linecap="round" stroke-linejoin="round" d="
				M16.301,675.28h4.52v3.509h-4.52v-3.51V675.28z"/>
			<path id="path3370" fill="#FFFFFF" stroke="#918F90" stroke-width="0.473" stroke-linecap="round" stroke-linejoin="round" d="
				M101.131,675.55h-4.52v-1.19h4.52V675.55z"/>
			<path id="path3372" fill="#FFFFFF" stroke="#918F90" stroke-width="0.473" stroke-linecap="round" stroke-linejoin="round" d="
				M101.131,674.36h-4.52v-1.191h4.52V674.36L101.131,674.36z"/>
			<path id="path3374" fill="#FFFFFF" stroke="#918F90" stroke-width="0.473" stroke-linecap="round" stroke-linejoin="round" d="
				M101.131,673.16h-4.52v-1.19h4.52V673.16z"/>
			<path id="path3376" fill="#FFFFFF" stroke="#918F90" stroke-width="0.473" stroke-linecap="round" stroke-linejoin="round" d="
				M101.131,671.98h-4.52v-1.191h4.52v1.19V671.98z"/>
			<path id="path3378" fill="#FFFFFF" stroke="#918F90" stroke-width="0.473" stroke-linecap="round" stroke-linejoin="round" d="
				M101.131,670.78h-4.52v-1.19h4.52V670.78z"/>
			<path id="path3380" fill="#FFFFFF" stroke="#918F90" stroke-width="0.473" stroke-linecap="round" stroke-linejoin="round" d="
				M101.131,669.59h-4.52v-1.191h4.52V669.59L101.131,669.59z"/>
			<g id="g3382" transform="translate(564.72 622.04)">
				<path id="path3384" fill="#FFFFFF" d="M-463.589,60.574h-1.659l-1.43-1.192h3.088L-463.589,60.574L-463.589,60.574z"/>
			</g>
			<g id="g3386" transform="translate(564.72 622.04)">
				<path id="path3388" fill="none" stroke="#918F90" stroke-width="0.473" stroke-linecap="round" stroke-linejoin="round" d="
					M-463.589,60.574h-1.659l-1.43-1.192h3.088L-463.589,60.574L-463.589,60.574z"/>
			</g>
			<g id="g3390" transform="translate(564.72 620.85)">
				<path id="path3392" fill="#FFFFFF" d="M-463.589,60.574h-3.088l-1.432-1.189h4.52V60.574L-463.589,60.574z"/>
			</g>
			<g id="g3394" transform="translate(564.72 620.85)">
				<path id="path3396" fill="none" stroke="#918F90" stroke-width="0.473" stroke-linecap="round" stroke-linejoin="round" d="
					M-463.589,60.574h-3.088l-1.432-1.189h4.52V60.574L-463.589,60.574z"/>
			</g>
			<path id="path3398" fill="#FFFFFF" stroke="#918F90" stroke-width="0.473" stroke-linecap="round" stroke-linejoin="round" d="
				M101.131,680.23h-4.52v-1.192h4.52v1.19V680.23z"/>
			<path id="path3400" fill="#FFFFFF" stroke="#918F90" stroke-width="0.473" stroke-linecap="round" stroke-linejoin="round" d="
				M101.131,675.53h-4.52v3.509h4.52v-3.51V675.53z"/>
			<g id="g3402" transform="translate(520.35 560.73)">
				<path id="path3404" fill="none" stroke="#918F90" stroke-width="0.473" stroke-linejoin="round" d="M-463.589,60.574
					c-0.288-2.075-0.311-7.153-1.134-8.167c-0.602-0.829-2.445,2.395-2.445,4.265v2.691c-0.723,0.722-1.703,0.889-2.7,0.889
					c-1.152,0-1.916-0.258-2.611-0.958v-2.639c0-1.781,0.408-3.464,1.12-4.97c1.314-0.548,2.762-1.074,4.32-1.493
					c-1.695,1.621-2.752,3.917-2.752,6.469 M-453.341,56.661c0-2.552-1.059-4.848-2.753-6.469c1.556,0.419,3.006,0.945,4.319,1.493
					c0.716,1.506,1.123,3.189,1.123,4.97v2.639c-0.738,0.736-1.566,1.038-2.716,1.038c-0.998,0-1.752-0.217-2.509-0.969v-2.685
					l-0.002-0.003c0-1.873-1.248-4.345-2.473-4.222c-0.673,0.926-0.795,4.567-0.977,6.946c0.027,0.01,0.062,0.02,0.091,0.028h-0.096
					c-0.034,0.449-0.072,0.856-0.116,1.188c0.023,0.004,0.044,0.007,0.066,0.012h-0.066c-0.002,0.023-0.005,0.048-0.009,0.067
					 M-464.288,53.161c0.713-0.263,1.695-0.526,2.783-0.526c1.089,0,2.073,0.263,2.787,0.526 M-464.178,54.407
					c0.698-0.249,1.636-0.488,2.67-0.488c1.038,0,1.982,0.24,2.677,0.491 M-464.061,55.651c0.679-0.232,1.573-0.451,2.555-0.451
					c0.987,0,1.891,0.222,2.573,0.456 M-463.953,56.897c0.662-0.216,1.514-0.414,2.443-0.414c0.941,0,1.798,0.2,2.464,0.421
					 M-463.836,58.143c0.644-0.201,1.451-0.377,2.327-0.377c0.891,0,1.709,0.18,2.359,0.386 M-463.72,59.389
					c0.627-0.186,1.391-0.342,2.215-0.342c0.842,0,1.621,0.162,2.252,0.352 M-463.613,60.636c0.611-0.171,1.33-0.304,2.102-0.304
					c0.791,0,1.527,0.138,2.145,0.315"/>
			</g>
			<g id="g3406" transform="translate(516.77 556.83)">
				<path id="path3408" fill="#FFFFFF" stroke="#918F90" stroke-width="0.473" stroke-linejoin="round" d="M-463.589,60.574
					l-5.312-0.017"/>
			</g>
			<g id="g3410" transform="translate(516.81 556.03)">
				<path id="path3412" fill="#FFFFFF" stroke="#918F90" stroke-width="0.473" stroke-linejoin="round" d="M-463.589,60.574
					l-5.241-0.768"/>
			</g>
			<g id="g3414" transform="translate(516.97 555.24)">
				<path id="path3416" fill="#FFFFFF" stroke="#918F90" stroke-width="0.473" stroke-linejoin="round" d="M-463.589,60.574
					l-5.081-1.502"/>
			</g>
			<g id="g3418" transform="translate(517.27 554.49)">
				<path id="path3420" fill="#FFFFFF" stroke="#918F90" stroke-width="0.473" stroke-linejoin="round" d="M-463.589,60.574
					l-4.834-2.21"/>
			</g>
			<g id="g3422" transform="translate(517.58 553.74)">
				<path id="path3424" fill="#FFFFFF" stroke="#918F90" stroke-width="0.473" stroke-linejoin="round" d="M-463.589,60.574
					l-3.77-2.422"/>
			</g>
			<g id="g3426" transform="translate(518.06 553.07)">
				<path id="path3428" fill="#FFFFFF" stroke="#918F90" stroke-width="0.473" stroke-linejoin="round" d="M-463.589,60.574
					l-2.682-2.321"/>
			</g>
			<g id="g3430" transform="translate(527.98 556.83)">
				<path id="path3432" fill="#FFFFFF" stroke="#918F90" stroke-width="0.473" stroke-linejoin="round" d="M-463.589,60.574
					l5.316-0.017"/>
			</g>
			<g id="g3434" transform="translate(527.94 556.03)">
				<path id="path3436" fill="#FFFFFF" stroke="#918F90" stroke-width="0.473" stroke-linejoin="round" d="M-463.589,60.574
					l5.241-0.768"/>
			</g>
			<g id="g3438" transform="translate(527.77 555.24)">
				<path id="path3440" fill="#FFFFFF" stroke="#918F90" stroke-width="0.473" stroke-linejoin="round" d="M-463.589,60.574
					l5.081-1.502"/>
			</g>
			<g id="g3442" transform="translate(527.48 554.49)">
				<path id="path3444" fill="#FFFFFF" stroke="#918F90" stroke-width="0.473" stroke-linejoin="round" d="M-463.589,60.574
					l4.834-2.21"/>
			</g>
			<g id="g3446" transform="translate(527.16 553.74)">
				<path id="path3448" fill="#FFFFFF" stroke="#918F90" stroke-width="0.473" stroke-linejoin="round" d="M-463.589,60.574
					l3.769-2.422"/>
			</g>
			<g id="g3450" transform="translate(526.69 553.07)">
				<path id="path3452" fill="#FFFFFF" stroke="#918F90" stroke-width="0.473" stroke-linejoin="round" d="M-463.589,60.574
					l2.68-2.321"/>
			</g>
			<g id="g3454" transform="translate(518.6 552.45)">
				<path id="path3456" fill="#FFFFFF" stroke="#918F90" stroke-width="0.473" stroke-linejoin="round" d="M-463.589,60.574
					l-1.702-2.102"/>
			</g>
			<g id="g3458" transform="translate(526.15 552.45)">
				<path id="path3460" fill="#FFFFFF" d="M-463.589,60.574l1.702-2.102"/>
			</g>
			<g id="g3462" transform="translate(526.15 552.45)">
				<path id="path3464" fill="none" stroke="#918F90" stroke-width="0.473" stroke-linejoin="round" d="M-463.589,60.574
					l1.702-2.102 M-460.677-39.785c4.73-4.732,4.223-12.387,0.096-16.516c-1.62-1.62-2.428-3.58-3.007-5.07l-3.366,1.304
					c0.548,1.427,1.577,4.081,3.816,6.32c1.389,1.39,2.219,3.518,2.219,5.689c0,2.195-0.822,4.223-2.313,5.716l2.55,2.557H-460.677z
					 M-463.227-42.341l2.555,2.555 M-462.401-43.422l2.927,2.117 M-461.753-44.621l3.228,1.625 M-461.305-45.906l3.446,1.089
					 M-461.079-47.247l3.576,0.526 M-461.063-48.609l3.616-0.048 M-461.257-49.957l3.561-0.62 M-461.666-51.257l3.418-1.182
					 M-462.278-52.475l3.184-1.709"/>
			</g>
			<g id="g3466" transform="translate(525.12 436.14)">
				<path id="path3468" fill="none" stroke="#918F90" stroke-width="0.473" d="M-463.589,60.574l2.959-1.968 M-461.27,57.384
					l-3.096,1.747 M-461.916,56.165l-3.232,1.523 M-464.678,67.162c1.807,5.098,1.245,9.916-1.255,10.758
					c-2.498,0.842-5.995-2.611-7.805-7.714c-1.809-5.1-1.245-9.915,1.255-10.76c2.509-0.841,6,2.616,7.809,7.716H-464.678
					L-464.678,67.162z"/>
			</g>
			<g id="g3470" transform="translate(474.7 626.22)">
				<path id="path3472" fill="none" stroke="#918F90" stroke-width="0.946" d="M-463.589,60.574h-4.218 M-368.317,60.197h4.248"/>
			</g>
			<g id="g3474" transform="translate(476.06 89.066)">
				<path id="path3476" fill="none" stroke="#918F90" stroke-width="0.473" d="M-463.589,60.573
					c9-11.967,24.869-19.397,46.959-19.397c20.888,0,36.579,7.23,45.577,19.397"/>
			</g>
			<path id="path3478" fill="#FFFFFF" stroke="#918F90" stroke-width="0.473" d="M63.715,608.74h-9.743v2.779h9.743V608.74
				L63.715,608.74z"/>
			<g id="g3480" transform="translate(484.64 483.4)">
				<path id="path3482" fill="none" stroke="#918F90" stroke-width="0.473" stroke-linejoin="round" d="M-463.589,60.574h26.284
					v14.109h2.39l1.978,4.389 M-446.507,102.78h-2.405v3.005h-5.884v-3.005h-2.445V88.138h2.445v-4.464h5.884v4.464h2.405V102.78z"
					/>
			</g>
			<g id="g3484" transform="translate(502.36 552.58)">
				<path id="path3486" fill="none" stroke="#918F90" stroke-width="0.473" d="M-463.589,60.574c0-20.511,8.441-14.783,8.441-20.511
					V16.964 M-470.758-16.976v8.375h-10.52v-11.473h7.423l3.1,3.098H-470.758z"/>
			</g>
			<g id="g3488" transform="translate(516.18 314.59)">
				<path id="path3490" fill="none" stroke="#918F90" stroke-width="0.473" stroke-linejoin="round" d="M-463.589,60.574
					c-4.73,4.733-4.222,12.389-0.095,16.517c1.62,1.619,2.427,3.578,3.004,5.069l3.373-1.308c-0.555-1.423-1.584-4.078-3.82-6.317
					c-1.391-1.386-2.22-3.516-2.22-5.689c0-2.191,0.821-4.222,2.312-5.716l-2.55-2.556H-463.589z M-461.029,63.128l-2.559-2.555
					 M-461.858,64.21l-2.934-2.116 M-462.512,65.41l-3.23-1.622 M-462.963,66.696l-3.448-1.087 M-463.19,68.035l-3.577-0.527
					 M-463.218,69.399l-3.614,0.045 M-463.022,70.749l-3.559,0.622 M-462.622,72.049l-3.416,1.18 M-462.008,73.267l-3.189,1.706"/>
			</g>
			<g id="g3492" transform="translate(520.13 330.54)">
				<path id="path3494" fill="none" stroke="#918F90" stroke-width="0.473" d="M-463.589,60.574l-2.956,1.969 M-465.904,63.764
					l3.095-1.747 M-465.261,64.985l3.233-1.525 M-423.538,119.371h-7.52v-3.939h-23.405V94.214h30.926 M-423.538,89.399h-9.494
					c0,0,6.23-1.911,6.23-8.861V70.299c0-8.478-10.164-8.028-10.164-8.028s10.164-0.652,10.164-9.622V41.603
					c0-7.036-9.289-8.422-9.289-8.422V23.117h-6.126c0,0,1.029-1.828,2.13-3.964c1.034-2.014,1.043-4.239,1.043-4.239h2.952v-3.608
					h12.548 M-498.853,15.671h14.045l1.211-4.358h7.75c0,0,0.245,3.631,1.452,5.811c1.216,2.181,4.662,5.634,4.662,5.634h-5.75
					c0,0-1.209-2.12-3.148-2.12c-1.373,0-1.939,1.092-1.939,2.664c0,1.575,1.153,2.725,1.153,2.725s-2.484-0.183-3.211-0.905
					c-0.727-0.728-2.263-1.214-3.996-1.214c-2.605,0-7.63,5.169-7.63,13.322c0,10.053,7.145,12.475,7.145,12.475
					s-9.566,1.812-9.566,12.231c0,10.416,4.966,11.383,4.966,11.383h-7.145 M-498.843,141.622h7.148c0,0-1.453-11.868,7.389-20.708
					c8.838-8.839,15.741-7.506,15.741-7.506V93.91h-6.295l-0.97-3.27c0,0-1.452,2.181-6.174,2.181c-4.723,0-7.145-3.622-7.145-7.022
					c0-3.142,1.198-4.536,2.921-5.945c1.102-0.903,2.811-1.569,3.277-0.939c-0.834-1.13-2.23-2.947-3.291-4.38
					c1.091,1.402-0.695,3.027-1.591,3.027h-11.002"/>
			</g>
		</g>
	</g>
	<g id="g13706">
		<g id="g13708">
			<g id="g14280" transform="translate(475.31 666.21)">
				<path id="path14282" fill="none" stroke="#A7A5A6" stroke-width="0.946" d="M-463.589,60.574
					c-0.359-7.988-0.545-16.454-0.545-25.435l-0.062-14.536h2.415l7.523-5.94l0.032-445.02l-5.428,0.005l-3.191-1.755l-1.312-2.189
					l-1.128-3.097l-0.938-3.942l-0.845-4.878l-0.566-5.725l-0.467-6.569l-0.28-7.417v-16.797l0.28-7.414l0.467-6.667l0.566-5.722
					l0.845-4.786l0.938-3.942l1.128-3.097l1.312-2.222"/>
			</g>
			<g id="g15380" transform="translate(490.48 201.46)">
				<path id="path15382" fill="#231F20" d="M-463.589,60.575h-0.37c0.352,0.147,0.602,0.494,0.602,0.902
					c0,0.542-0.44,0.978-0.98,0.978c-0.538,0-0.978-0.439-0.978-0.978c0-0.408,0.248-0.755,0.603-0.902h-0.385
					c-0.495,0-0.902-0.406-0.902-0.906v-2.258c0-0.633,0.352-0.895,0.873-0.997v-3.147h1.584v3.147
					c0.512,0.105,0.859,0.367,0.859,0.995v2.258c0,0.502-0.4,0.905-0.9,0.905"/>
			</g>
			<g id="g15384" transform="translate(556.74 195.98)">
				<path id="path15386" fill="#231F20" d="M-463.589,60.574h0.598l-0.598,1.806h-0.684c0.357,0.144,0.607,0.497,0.607,0.905
					c0,0.539-0.439,0.977-0.98,0.977c-0.541,0-0.98-0.438-0.98-0.977c0-0.409,0.25-0.761,0.602-0.905h-0.679l-0.602-1.806h0.602
					l-0.602-2.411h0.845l0.323-3.089h0.98l0.323,3.089h0.845l-0.591,2.411H-463.589z"/>
			</g>
			<g id="g15388" transform="translate(487.58 569.46)">
				<path id="path15390" fill="#231F20" d="M-463.589,60.574v-0.301c-0.12,0.287-0.4,0.488-0.734,0.488
					c-0.438,0-0.793-0.355-0.793-0.791c0-0.438,0.355-0.793,0.793-0.793c0.334,0,0.614,0.201,0.734,0.488v-0.309
					c0-0.406,0.33-0.733,0.734-0.733h1.829c0.513,0,0.722,0.287,0.803,0.706h2.554v1.283h-2.554
					c-0.084,0.412-0.296,0.696-0.803,0.696h-1.829c-0.4,0-0.73-0.33-0.73-0.734"/>
			</g>
			<g id="g15392" transform="translate(554.05 569.7)">
				<path id="path15394" fill="#231F20" d="M-463.589,60.574v0.49l-1.464-0.49v-0.55c-0.119,0.286-0.4,0.489-0.733,0.489
					c-0.438,0-0.793-0.354-0.793-0.792c0-0.439,0.355-0.794,0.793-0.794c0.333,0,0.614,0.201,0.733,0.488v-0.548l1.464-0.488v0.488
					l1.952-0.488v0.68l2.502,0.265v0.793l-2.502,0.263v0.684L-463.589,60.574L-463.589,60.574z"/>
			</g>
		</g>
	</g>
	<g id="alhambra-theatre">
		<text transform="matrix(0.8 0 0 -0.8 44.2433 724.4504)" fill="#231F20" font-family="'ArialNarrow-Bold'" font-size="7.5169">A</text>
		<text transform="matrix(0.8 0 0 -0.8 48.0983 724.4504)" fill="#231F20" font-family="'ArialNarrow-Bold'" font-size="7.5169">L</text>
		<text transform="matrix(0.8 0 0 -0.8 50.9487 724.4504)" fill="#231F20" font-family="'ArialNarrow-Bold'" font-size="7.5169">H</text>
		<text transform="matrix(0.8 0 0 -0.8 54.803 724.4504)" fill="#231F20" font-family="'ArialNarrow-Bold'" font-size="7.5169">A</text>
		<text transform="matrix(0.8 0 0 -0.8 58.6569 724.4504)" fill="#231F20" font-family="'ArialNarrow-Bold'" font-size="7.5169">M</text>
		<text transform="matrix(0.8 0 0 -0.8 63.8475 724.4504)" fill="#231F20" font-family="'ArialNarrow-Bold'" font-size="7.5169">B</text>
		<text transform="matrix(0.8 0 0 -0.8 67.7022 724.4504)" fill="#231F20" font-family="'ArialNarrow-Bold'" font-size="7.5169">R</text>
		<text transform="matrix(0.8 0 0 -0.8 71.2257 724.4504)" fill="#231F20" font-family="'ArialNarrow-Bold'" font-size="7.5169">A</text>
		<text transform="matrix(0.8 0 0 -0.8 47.6718 718.4402)" fill="#231F20" font-family="'ArialNarrow-Bold'" font-size="7.5169">T</text>
		<text transform="matrix(0.8 0 0 -0.8 50.8577 718.4402)" fill="#231F20" font-family="'ArialNarrow-Bold'" font-size="7.5169">H</text>
		<text transform="matrix(0.8 0 0 -0.8 54.7136 718.4402)" fill="#231F20" font-family="'ArialNarrow-Bold'" font-size="7.5169">E</text>
		<text transform="matrix(0.8 0 0 -0.8 57.9007 718.4402)" fill="#231F20" font-family="'ArialNarrow-Bold'" font-size="7.5169">A</text>
		<text transform="matrix(0.8 0 0 -0.8 61.7554 718.4402)" fill="#231F20" font-family="'ArialNarrow-Bold'" font-size="7.5169">T</text>
		<text transform="matrix(0.8 0 0 -0.8 64.9413 718.4402)" fill="#231F20" font-family="'ArialNarrow-Bold'" font-size="7.5169">R</text>
		<text transform="matrix(0.8 0 0 -0.8 68.4655 718.4402)" fill="#231F20" font-family="'ArialNarrow-Bold'" font-size="7.5169">E</text>
	</g>
	<g id="the-raven">
		<text transform="matrix(0.8 0 0 -0.8 28.3925 557.6191)" fill="#231F20" font-family="'ArialNarrow-Bold'" font-size="7.5169">T</text>
		<text transform="matrix(0.8 0 0 -0.8 31.5788 557.6191)" fill="#231F20" font-family="'ArialNarrow-Bold'" font-size="7.5169">H</text>
		<text transform="matrix(0.8 0 0 -0.8 35.4347 557.6191)" fill="#231F20" font-family="'ArialNarrow-Bold'" font-size="7.5169">E</text>
		<text transform="matrix(0.8 0 0 -0.8 24.369 551.6004)" fill="#231F20" font-family="'ArialNarrow-Bold'" font-size="7.5169">R</text>
		<text transform="matrix(0.8 0 0 -0.8 27.8932 551.6004)" fill="#231F20" font-family="'ArialNarrow-Bold'" font-size="7.5169">A</text>
		<text transform="matrix(0.8 0 0 -0.8 31.7475 551.6004)" fill="#231F20" font-family="'ArialNarrow-Bold'" font-size="7.5169">V</text>
		<text transform="matrix(0.8 0 0 -0.8 35.2718 551.6004)" fill="#231F20" font-family="'ArialNarrow-Bold'" font-size="7.5169">E</text>
		<text transform="matrix(0.8 0 0 -0.8 38.4577 551.6004)" fill="#231F20" font-family="'ArialNarrow-Bold'" font-size="7.5169">N</text>
	</g>
	<g id="macbeth-dining-room">
		<text transform="matrix(0.8 0 0 -0.8 45.819 192.8004)" fill="#231F20" font-family="'ArialNarrow-Bold'" font-size="7.5169">M</text>
		<text transform="matrix(0.8 0 0 -0.8 51.0097 192.8004)" fill="#231F20" font-family="'ArialNarrow-Bold'" font-size="7.5169">A</text>
		<text transform="matrix(0.8 0 0 -0.8 54.8636 192.8004)" fill="#231F20" font-family="'ArialNarrow-Bold'" font-size="7.5169">C</text>
		<text transform="matrix(0.8 0 0 -0.8 58.3866 192.8004)" fill="#231F20" font-family="'ArialNarrow-Bold'" font-size="7.5169">B</text>
		<text transform="matrix(0.8 0 0 -0.8 62.2413 192.8004)" fill="#231F20" font-family="'ArialNarrow-Bold'" font-size="7.5169">E</text>
		<text transform="matrix(0.8 0 0 -0.8 65.4288 192.8004)" fill="#231F20" font-family="'ArialNarrow-Bold'" font-size="7.5169">T</text>
		<text transform="matrix(0.8 0 0 -0.8 68.6163 192.8004)" fill="#231F20" font-family="'ArialNarrow-Bold'" font-size="7.5169">H</text>
		<text transform="matrix(0.8 0 0 -0.8 40.2749 186.7895)" fill="#231F20" font-family="'ArialNarrow-Bold'" font-size="7.5169">D</text>
		<text transform="matrix(0.8 0 0 -0.8 44.1288 186.7895)" fill="#231F20" font-family="'ArialNarrow-Bold'" font-size="7.5169">I</text>
		<text transform="matrix(0.8 0 0 -0.8 45.9811 186.7895)" fill="#231F20" font-family="'ArialNarrow-Bold'" font-size="7.5169">N</text>
		<text transform="matrix(0.8 0 0 -0.8 50.1733 186.7895)" fill="#231F20" font-family="'ArialNarrow-Bold'" font-size="7.5169">I</text>
		<text transform="matrix(0.8 0 0 -0.8 52.0249 186.7895)" fill="#231F20" font-family="'ArialNarrow-Bold'" font-size="7.5169">N</text>
		<text transform="matrix(0.8 0 0 -0.8 56.2159 186.7895)" fill="#231F20" font-family="'ArialNarrow-Bold'" font-size="7.5169">G</text>
		<text transform="matrix(0.8 0 0 -0.8 60.071 186.7895)" fill="#231F20" font-family="'ArialNarrow-Bold'" font-size="7.5169"> </text>
		<text transform="matrix(0.8 0 0 -0.8 61.5866 186.7895)" fill="#231F20" font-family="'ArialNarrow-Bold'" font-size="7.5169">R</text>
		<text transform="matrix(0.8 0 0 -0.8 65.11 186.7895)" fill="#231F20" font-family="'ArialNarrow-Bold'" font-size="7.5169">O</text>
		<text transform="matrix(0.8 0 0 -0.8 68.9647 186.7895)" fill="#231F20" font-family="'ArialNarrow-Bold'" font-size="7.5169">O</text>
		<text transform="matrix(0.8 0 0 -0.8 72.8194 186.7895)" fill="#231F20" font-family="'ArialNarrow-Bold'" font-size="7.5169">M</text>
	</g>
	<g id="schooner-bar">
		<text transform="matrix(0.8 0 0 -0.8 68.7975 591.6004)" fill="#231F20" font-family="'ArialNarrow-Bold'" font-size="6.7782">S</text>
		<text transform="matrix(0.8 0 0 -0.8 71.8132 591.6004)" fill="#231F20" font-family="'ArialNarrow-Bold'" font-size="6.7782">C</text>
		<text transform="matrix(0.8 0 0 -0.8 74.828 591.6004)" fill="#231F20" font-family="'ArialNarrow-Bold'" font-size="6.7782">H</text>
		<text transform="matrix(0.8 0 0 -0.8 78.1413 591.6004)" fill="#231F20" font-family="'ArialNarrow-Bold'" font-size="6.7782">O</text>
		<text transform="matrix(0.8 0 0 -0.8 81.4538 591.6004)" fill="#231F20" font-family="'ArialNarrow-Bold'" font-size="6.7782">O</text>
		<text transform="matrix(0.8 0 0 -0.8 84.7663 591.6004)" fill="#231F20" font-family="'ArialNarrow-Bold'" font-size="6.7782">N</text>
		<text transform="matrix(0.8 0 0 -0.8 88.3835 591.6004)" fill="#231F20" font-family="'ArialNarrow-Bold'" font-size="6.7782">E</text>
		<text transform="matrix(0.8 0 0 -0.8 91.096 591.6004)" fill="#231F20" font-family="'ArialNarrow-Bold'" font-size="6.7782">R</text>
		<text transform="matrix(0.8 0 0 -0.8 76.6335 586.1801)" fill="#231F20" font-family="'ArialNarrow-Bold'" font-size="6.7782">B</text>
		<text transform="matrix(0.8 0 0 -0.8 79.946 586.1801)" fill="#231F20" font-family="'ArialNarrow-Bold'" font-size="6.7782">A</text>
		<text transform="matrix(0.8 0 0 -0.8 83.2601 586.1801)" fill="#231F20" font-family="'ArialNarrow-Bold'" font-size="6.7782">R</text>
	</g>
	<g id="bar">
		<text transform="matrix(0.8 0 0 -0.8 50.8436 502.7895)" fill="#231F20" font-family="'ArialNarrow-Bold'" font-size="6.7782">B</text>
		<text transform="matrix(0.8 0 0 -0.8 54.1569 502.7895)" fill="#231F20" font-family="'ArialNarrow-Bold'" font-size="6.7782">A</text>
		<text transform="matrix(0.8 0 0 -0.8 57.4698 502.7895)" fill="#231F20" font-family="'ArialNarrow-Bold'" font-size="6.7782">R</text>
	</g>
	<g id="casino-royale">
		<text transform="matrix(0.8 0 0 -0.8 37.0647 478.2707)" fill="#231F20" font-family="'ArialNarrow-Bold'" font-size="6.7782">C</text>
		<text transform="matrix(0.8 0 0 -0.8 40.0807 478.2707)" fill="#231F20" font-family="'ArialNarrow-Bold'" font-size="6.7782">A</text>
		<text transform="matrix(0.8 0 0 -0.8 43.3932 478.2707)" fill="#231F20" font-family="'ArialNarrow-Bold'" font-size="6.7782">S</text>
		<text transform="matrix(0.8 0 0 -0.8 46.4077 478.2707)" fill="#231F20" font-family="'ArialNarrow-Bold'" font-size="6.7782">I</text>
		<text transform="matrix(0.8 0 0 -0.8 47.9151 478.2707)" fill="#231F20" font-family="'ArialNarrow-Bold'" font-size="6.7782">N</text>
		<text transform="matrix(0.8 0 0 -0.8 51.5319 478.2707)" fill="#231F20" font-family="'ArialNarrow-Bold'" font-size="6.7782">O</text>
		<text transform="matrix(0.8 0 0 -0.8 37.0698 472.8504)" fill="#231F20" font-family="'ArialNarrow-Bold'" font-size="6.7782">R</text>
		<text transform="matrix(0.8 0 0 -0.8 40.0851 472.8504)" fill="#231F20" font-family="'ArialNarrow-Bold'" font-size="6.7782">O</text>
		<text transform="matrix(0.8 0 0 -0.8 43.3987 472.8504)" fill="#231F20" font-family="'ArialNarrow-Bold'" font-size="6.7782">Y</text>
		<text transform="matrix(0.8 0 0 -0.8 46.4144 472.8504)" fill="#231F20" font-family="'ArialNarrow-Bold'" font-size="6.7782">A</text>
		<text transform="matrix(0.8 0 0 -0.8 49.7272 472.8504)" fill="#231F20" font-family="'ArialNarrow-Bold'" font-size="6.7782">L</text>
		<text transform="matrix(0.8 0 0 -0.8 52.1347 472.8504)" fill="#231F20" font-family="'ArialNarrow-Bold'" font-size="6.7782">E</text>
	</g>
	<text transform="matrix(0 0.8 0.8 0 34.9171 286.9504)" fill="#231F20" font-family="'ArialNarrow-Bold'" font-size="6.7782">E</text>
	<text transform="matrix(0 0.8 0.8 0 34.9171 289.6598)" fill="#231F20" font-family="'ArialNarrow-Bold'" font-size="6.7782">L</text>
	<text transform="matrix(0 0.8 0.8 0 34.9171 292.0707)" fill="#231F20" font-family="'ArialNarrow-Bold'" font-size="6.7782">E</text>
	<text transform="matrix(0 0.8 0.8 0 34.9171 294.7801)" fill="#231F20" font-family="'ArialNarrow-Bold'" font-size="6.7782">V</text>
	<text transform="matrix(0 0.8 0.8 0 34.9171 297.8004)" fill="#231F20" font-family="'ArialNarrow-Bold'" font-size="6.7782">.</text>
	<g id="photo-gallery-and-shop">
		<text transform="matrix(0.8 0 0 -0.8 66.1522 375.8895)" fill="#231F20" font-family="'ArialNarrow-Bold'" font-size="6.7782">P</text>
		<text transform="matrix(0.8 0 0 -0.8 69.1655 375.8895)" fill="#231F20" font-family="'ArialNarrow-Bold'" font-size="6.7782">H</text>
		<text transform="matrix(0.8 0 0 -0.8 72.4804 375.8895)" fill="#231F20" font-family="'ArialNarrow-Bold'" font-size="6.7782">O</text>
		<text transform="matrix(0.8 0 0 -0.8 75.7929 375.8895)" fill="#231F20" font-family="'ArialNarrow-Bold'" font-size="6.7782">T</text>
		<text transform="matrix(0.8 0 0 -0.8 78.5054 375.8895)" fill="#231F20" font-family="'ArialNarrow-Bold'" font-size="6.7782">O</text>
		<text transform="matrix(0.8 0 0 -0.8 63.8913 370.4707)" fill="#231F20" font-family="'ArialNarrow-Bold'" font-size="6.7782">G</text>
		<text transform="matrix(0.8 0 0 -0.8 67.2038 370.4707)" fill="#231F20" font-family="'ArialNarrow-Bold'" font-size="6.7782">A</text>
		<text transform="matrix(0.8 0 0 -0.8 70.5163 370.4707)" fill="#231F20" font-family="'ArialNarrow-Bold'" font-size="6.7782">L</text>
		<text transform="matrix(0.8 0 0 -0.8 72.9257 370.4707)" fill="#231F20" font-family="'ArialNarrow-Bold'" font-size="6.7782">L</text>
		<text transform="matrix(0.8 0 0 -0.8 75.3319 370.4707)" fill="#231F20" font-family="'ArialNarrow-Bold'" font-size="6.7782">E</text>
		<text transform="matrix(0.8 0 0 -0.8 78.0444 370.4707)" fill="#231F20" font-family="'ArialNarrow-Bold'" font-size="6.7782">R</text>
		<text transform="matrix(0.8 0 0 -0.8 81.0585 370.4707)" fill="#231F20" font-family="'ArialNarrow-Bold'" font-size="6.7782">Y</text>
		<text transform="matrix(0.8 0 0 -0.8 65.246 365.0488)" fill="#231F20" font-family="'ArialNarrow-Bold'" font-size="6.7782">&amp;</text>
		<text transform="matrix(0.8 0 0 -0.8 68.8632 365.0488)" fill="#231F20" font-family="'ArialNarrow-Bold'" font-size="6.7782"> </text>
		<text transform="matrix(0.8 0 0 -0.8 70.0663 365.0488)" fill="#231F20" font-family="'ArialNarrow-Bold'" font-size="6.7782">S</text>
		<text transform="matrix(0.8 0 0 -0.8 73.0819 365.0488)" fill="#231F20" font-family="'ArialNarrow-Bold'" font-size="6.7782">H</text>
		<text transform="matrix(0.8 0 0 -0.8 76.396 365.0488)" fill="#231F20" font-family="'ArialNarrow-Bold'" font-size="6.7782">O</text>
		<text transform="matrix(0.8 0 0 -0.8 79.7085 365.0488)" fill="#231F20" font-family="'ArialNarrow-Bold'" font-size="6.7782">P</text>
	</g>
	<text transform="matrix(0 0.8 0.8 0 86.2569 287.0004)" fill="#231F20" font-family="'ArialNarrow-Bold'" font-size="6.7782">E</text>
	<text transform="matrix(0 0.8 0.8 0 86.2569 289.7207)" fill="#231F20" font-family="'ArialNarrow-Bold'" font-size="6.7782">L</text>
	<text transform="matrix(0 0.8 0.8 0 86.2569 292.1207)" fill="#231F20" font-family="'ArialNarrow-Bold'" font-size="6.7782">E</text>
	<text transform="matrix(0 0.8 0.8 0 86.2569 294.841)" fill="#231F20" font-family="'ArialNarrow-Bold'" font-size="6.7782">V</text>
	<text transform="matrix(0 0.8 0.8 0 86.2569 297.8504)" fill="#231F20" font-family="'ArialNarrow-Bold'" font-size="6.7782">.</text>
	<g id="boleros-lounge">
		<text transform="matrix(0.8 0 0 -0.8 72.2905 325.1801)" fill="#231F20" font-family="'ArialNarrow-Bold'" font-size="6.7782">B</text>
		<text transform="matrix(0.8 0 0 -0.8 75.603 325.1801)" fill="#231F20" font-family="'ArialNarrow-Bold'" font-size="6.7782">O</text>
		<text transform="matrix(0.8 0 0 -0.8 78.9155 325.1801)" fill="#231F20" font-family="'ArialNarrow-Bold'" font-size="6.7782">L</text>
		<text transform="matrix(0.8 0 0 -0.8 81.3257 325.1801)" fill="#231F20" font-family="'ArialNarrow-Bold'" font-size="6.7782">E</text>
		<text transform="matrix(0.8 0 0 -0.8 84.0358 325.1801)" fill="#231F20" font-family="'ArialNarrow-Bold'" font-size="6.7782">R</text>
		<text transform="matrix(0.8 0 0 -0.8 87.0507 325.1801)" fill="#231F20" font-family="'ArialNarrow-Bold'" font-size="6.7782">O</text>
		<text transform="matrix(0.8 0 0 -0.8 90.3647 325.1801)" fill="#231F20" font-family="'ArialNarrow-Bold'" font-size="6.7782">S</text>
		<text transform="matrix(0.8 0 0 -0.8 73.4999 319.7606)" fill="#231F20" font-family="'ArialNarrow-Bold'" font-size="6.7782">L</text>
		<text transform="matrix(0.8 0 0 -0.8 75.9077 319.7606)" fill="#231F20" font-family="'ArialNarrow-Bold'" font-size="6.7782">O</text>
		<text transform="matrix(0.8 0 0 -0.8 79.221 319.7606)" fill="#231F20" font-family="'ArialNarrow-Bold'" font-size="6.7782">U</text>
		<text transform="matrix(0.8 0 0 -0.8 82.535 319.7606)" fill="#231F20" font-family="'ArialNarrow-Bold'" font-size="6.7782">N</text>
		<text transform="matrix(0.8 0 0 -0.8 86.1507 319.7606)" fill="#231F20" font-family="'ArialNarrow-Bold'" font-size="6.7782">G</text>
		<text transform="matrix(0.8 0 0 -0.8 89.4647 319.7606)" fill="#231F20" font-family="'ArialNarrow-Bold'" font-size="6.7782">E</text>
		<text transform="matrix(0.8 0 0 -0.8 24.0737 313.3691)" fill="#231F20" font-family="'ArialNarrow-Bold'" font-size="6.7782">B</text>
		<text transform="matrix(0.8 0 0 -0.8 27.3858 313.3691)" fill="#231F20" font-family="'ArialNarrow-Bold'" font-size="6.7782">O</text>
		<text transform="matrix(0.8 0 0 -0.8 30.6987 313.3691)" fill="#231F20" font-family="'ArialNarrow-Bold'" font-size="6.7782">L</text>
		<text transform="matrix(0.8 0 0 -0.8 33.1069 313.3691)" fill="#231F20" font-family="'ArialNarrow-Bold'" font-size="6.7782">E</text>
		<text transform="matrix(0.8 0 0 -0.8 35.819 313.3691)" fill="#231F20" font-family="'ArialNarrow-Bold'" font-size="6.7782">R</text>
		<text transform="matrix(0.8 0 0 -0.8 38.8347 313.3691)" fill="#231F20" font-family="'ArialNarrow-Bold'" font-size="6.7782">O</text>
		<text transform="matrix(0.8 0 0 -0.8 42.1472 313.3691)" fill="#231F20" font-family="'ArialNarrow-Bold'" font-size="6.7782">S</text>
		<text transform="matrix(0.8 0 0 -0.8 25.2819 307.9402)" fill="#231F20" font-family="'ArialNarrow-Bold'" font-size="6.7782">L</text>
		<text transform="matrix(0.8 0 0 -0.8 27.6901 307.9402)" fill="#231F20" font-family="'ArialNarrow-Bold'" font-size="6.7782">O</text>
		<text transform="matrix(0.8 0 0 -0.8 31.003 307.9402)" fill="#231F20" font-family="'ArialNarrow-Bold'" font-size="6.7782">U</text>
		<text transform="matrix(0.8 0 0 -0.8 34.3175 307.9402)" fill="#231F20" font-family="'ArialNarrow-Bold'" font-size="6.7782">N</text>
		<text transform="matrix(0.8 0 0 -0.8 37.9347 307.9402)" fill="#231F20" font-family="'ArialNarrow-Bold'" font-size="6.7782">G</text>
		<text transform="matrix(0.8 0 0 -0.8 41.2468 307.9402)" fill="#231F20" font-family="'ArialNarrow-Bold'" font-size="6.7782">E</text>
	</g>
	<text transform="matrix(0 0.8 0.8 0 37.5858 616.5801)" fill="#100F0D" font-family="'ArialNarrow-Bold'" font-size="6.7782">E</text>
	<text transform="matrix(0 0.8 0.8 0 37.5858 619.2894)" fill="#100F0D" font-family="'ArialNarrow-Bold'" font-size="6.7782">L</text>
	<text transform="matrix(0 0.8 0.8 0 37.5858 621.7004)" fill="#100F0D" font-family="'ArialNarrow-Bold'" font-size="6.7782">E</text>
	<text transform="matrix(0 0.8 0.8 0 37.5858 624.4098)" fill="#100F0D" font-family="'ArialNarrow-Bold'" font-size="6.7782">V</text>
	<text transform="matrix(0 0.8 0.8 0 37.5858 627.4207)" fill="#100F0D" font-family="'ArialNarrow-Bold'" font-size="6.7782">.</text>
	<text transform="matrix(0 0.8 0.8 0 83.9171 616.5801)" fill="#100F0D" font-family="'ArialNarrow-Bold'" font-size="6.7782">E</text>
	<text transform="matrix(0 0.8 0.8 0 83.9171 619.2894)" fill="#100F0D" font-family="'ArialNarrow-Bold'" font-size="6.7782">L</text>
	<text transform="matrix(0 0.8 0.8 0 83.9171 621.7004)" fill="#100F0D" font-family="'ArialNarrow-Bold'" font-size="6.7782">E</text>
	<text transform="matrix(0 0.8 0.8 0 83.9171 624.4098)" fill="#100F0D" font-family="'ArialNarrow-Bold'" font-size="6.7782">V</text>
	<text transform="matrix(0 0.8 0.8 0 83.9171 627.4207)" fill="#100F0D" font-family="'ArialNarrow-Bold'" font-size="6.7782">.</text>
</g>
</svg>
