<?xml version="1.0" encoding="utf-8"?>
<!-- Generated by IcoMoon.io -->
<!DOCTYPE svg PUBLIC "-//W3C//DTD SVG 1.1//EN" "http://www.w3.org/Graphics/SVG/1.1/DTD/svg11.dtd">
<svg version="1.1" xmlns="http://www.w3.org/2000/svg" xmlns:xlink="http://www.w3.org/1999/xlink" width="24" height="24" viewBox="0 0 24 24">
	<path d="M12 0.48c-6.362 0-11.52 5.158-11.52 11.52s5.158 11.52 11.52 11.52c6.362 0 11.519-5.158 11.519-11.52s-5.155-11.52-11.519-11.52zM15.091 16.97c-0.472 0.224-0.898 0.382-1.277 0.473-0.382 0.090-0.797 0.136-1.24 0.136-0.504 0-0.949-0.065-1.337-0.193-0.386-0.128-0.718-0.313-0.991-0.551-0.274-0.238-0.463-0.492-0.569-0.761s-0.158-0.658-0.158-1.168v-3.913h-1.218v-1.578c0.432-0.143 0.804-0.347 1.112-0.613 0.308-0.265 0.557-0.584 0.743-0.958 0.187-0.372 0.317-0.847 0.386-1.422h1.567v2.821h2.615v1.751h-2.615v2.861c0 0.647 0.034 1.062 0.102 1.246s0.193 0.33 0.377 0.439c0.245 0.148 0.524 0.223 0.838 0.223 0.558 0 1.114-0.184 1.664-0.552v1.759z" fill="#ffc600" />
</svg>
