<?xml version="1.0" encoding="utf-8"?>
<!-- Generated by IcoMoon.io -->
<!DOCTYPE svg PUBLIC "-//W3C//DTD SVG 1.1//EN" "http://www.w3.org/Graphics/SVG/1.1/DTD/svg11.dtd">
<svg version="1.1" xmlns="http://www.w3.org/2000/svg" xmlns:xlink="http://www.w3.org/1999/xlink" width="24" height="24" viewBox="0 0 24 24">
	<path d="M4.8 20.4c0 1.325 1.075 2.4 2.4 2.4 1.326 0 2.4-1.075 2.4-2.4s-1.074-2.4-2.4-2.4c-1.325 0-2.4 1.075-2.4 2.4zM16.8 20.4c0 1.325 1.075 2.4 2.4 2.4 1.326 0 2.4-1.075 2.4-2.4s-1.074-2.4-2.4-2.4c-1.325 0-2.4 1.075-2.4 2.4zM9.056 14.726l13.283-3.794c0.253-0.073 0.461-0.348 0.461-0.612v-6.6h-16.92v-2.040c0-0.264-0.215-0.48-0.48-0.48h-3.72c-0.264 0-0.48 0.216-0.48 0.48v1.92h2.332l2.362 10.868 0.228 1.132v1.8c0 0.264 0.216 0.48 0.479 0.48h0.6 15.121c0.263 0 0.479-0.216 0.479-0.48v-1.8h-13.498c-1.379 0-1.408-0.54-0.246-0.874z" fill="#ffc600" />
</svg>
