<?xml version="1.0" encoding="utf-8"?>
<!-- Generated by IcoMoon.io -->
<!DOCTYPE svg PUBLIC "-//W3C//DTD SVG 1.1//EN" "http://www.w3.org/Graphics/SVG/1.1/DTD/svg11.dtd">
<svg version="1.1" xmlns="http://www.w3.org/2000/svg" xmlns:xlink="http://www.w3.org/1999/xlink" width="24" height="24" viewBox="0 0 24 24">
	<path d="M20.142 12c0-1.258 0.774-2.25 1.938-2.932-0.211-0.701-0.487-1.374-0.829-2.006-1.308 0.342-2.365-0.17-3.253-1.058-0.89-0.889-1.163-1.948-0.821-3.253-0.632-0.342-1.303-0.622-2.006-0.83-0.682 1.165-1.914 1.939-3.17 1.939-1.256 0-2.488-0.774-3.17-1.939-0.703 0.209-1.374 0.488-2.006 0.829 0.341 1.307 0.070 2.365-0.82 3.254-0.889 0.888-1.948 1.4-3.253 1.060-0.342 0.631-0.62 1.304-0.83 2.005 1.165 0.682 1.939 1.674 1.939 2.932 0 1.256-0.774 2.489-1.939 3.172 0.21 0.702 0.488 1.374 0.83 2.006 1.307-0.342 2.364-0.070 3.253 0.82 0.889 0.889 1.16 1.946 0.82 3.253 0.632 0.342 1.304 0.622 2.006 0.83 0.683-1.166 1.914-1.939 3.17-1.939 1.256 0 2.49 0.774 3.172 1.939 0.703-0.21 1.374-0.488 2.006-0.83-0.342-1.307-0.071-2.364 0.821-3.253 0.888-0.888 1.945-1.4 3.253-1.060 0.342-0.632 0.619-1.304 0.829-2.006-1.165-0.683-1.939-1.675-1.939-2.932zM12 16.384c-2.42 0-4.382-1.963-4.382-4.384s1.962-4.384 4.382-4.384c2.422 0 4.384 1.963 4.384 4.384s-1.962 4.384-4.384 4.384z" fill="#ffc600" />
</svg>
