<?xml version="1.0" encoding="utf-8"?>
<!-- Generated by IcoMoon.io -->
<!DOCTYPE svg PUBLIC "-//W3C//DTD SVG 1.1//EN" "http://www.w3.org/Graphics/SVG/1.1/DTD/svg11.dtd">
<svg version="1.1" xmlns="http://www.w3.org/2000/svg" xmlns:xlink="http://www.w3.org/1999/xlink" width="24" height="24" viewBox="0 0 24 24">
	<path d="M21.6 3.6h-11.465c-0.528 0-1.285 0.284-1.682 0.632l-8.155 7.135c-0.397 0.348-0.397 0.917 0 1.265l8.155 7.136c0.397 0.347 1.154 0.631 1.682 0.631h11.465c1.321 0 2.4-1.080 2.4-2.4v-12c0-1.32-1.079-2.4-2.4-2.4zM18.229 16.8l-3.068-3.068-3.066 3.068-1.733-1.732 3.067-3.068-3.067-3.067 1.733-1.733 3.067 3.067 3.067-3.067 1.732 1.733-3.066 3.067 3.067 3.067-1.733 1.733z" fill="#ffc600" />
</svg>
