<?xml version="1.0" encoding="utf-8"?>
<!-- Generated by IcoMoon.io -->
<!DOCTYPE svg PUBLIC "-//W3C//DTD SVG 1.1//EN" "http://www.w3.org/Graphics/SVG/1.1/DTD/svg11.dtd">
<svg version="1.1" xmlns="http://www.w3.org/2000/svg" xmlns:xlink="http://www.w3.org/1999/xlink" width="24" height="24" viewBox="0 0 24 24">
	<path d="M7.624 15.166c0.157 0.426-4.248 4.361-1.678 7.549 0.602 0.746 2.641-3.57 5.538-5.525 1.597-1.078 5.316-3.373 5.316-4.64v-8.208c0-1.526-5.896-3.142-10.378-3.142-1.643 0-4.022 10.29-4.022 11.926 0 1.64 5.065 1.612 5.224 2.040zM18 15.050c0.79 0 3.6-0.479 3.6-3.746v-5.816c0-3.266-2.81-3.626-3.6-3.626-0.788 0 1.2 0.688 1.2 2.711v7.648c0 2.122-1.988 2.831-1.2 2.831z" fill="#ffc600" />
</svg>
