<?xml version="1.0" encoding="utf-8"?>
<!-- Generated by IcoMoon.io -->
<!DOCTYPE svg PUBLIC "-//W3C//DTD SVG 1.1//EN" "http://www.w3.org/Graphics/SVG/1.1/DTD/svg11.dtd">
<svg version="1.1" xmlns="http://www.w3.org/2000/svg" xmlns:xlink="http://www.w3.org/1999/xlink" width="24" height="24" viewBox="0 0 24 24">
	<path d="M21.6 3.6h-19.2c-1.32 0-2.4 1.080-2.4 2.4v12c0 1.32 1.080 2.4 2.4 2.4h19.2c1.32 0 2.4-1.080 2.4-2.4v-12c0-1.32-1.080-2.4-2.4-2.4zM21.6 18h-19.2v-7.2h19.2v7.2zM21.6 7.2h-19.2v-1.2h19.2v1.2zM4.8 13.32v0.72h0.72v-0.72h-0.72zM9.12 14.76v0.72h1.44v-0.72h0.72v-0.72h0.72v-0.72h-1.44v0.72h-0.72v0.72h-0.72zM12 15.48v-0.72h-0.72v0.72h0.72zM8.4 15.48v-0.72h-1.44v0.72h1.44zM9.12 14.040h0.72v-0.72h-1.44v1.44h0.72v-0.72zM6.24 14.76h0.72v-0.72h0.72v-0.72h-1.44v0.72h-0.72v0.72h-0.72v0.72h1.44v-0.72z" fill="#ffc600" />
</svg>
