<?xml version="1.0" encoding="utf-8"?>
<!-- Generated by IcoMoon.io -->
<!DOCTYPE svg PUBLIC "-//W3C//DTD SVG 1.1//EN" "http://www.w3.org/Graphics/SVG/1.1/DTD/svg11.dtd">
<svg version="1.1" xmlns="http://www.w3.org/2000/svg" xmlns:xlink="http://www.w3.org/1999/xlink" width="24" height="24" viewBox="0 0 24 24">
	<path d="M21.6 2.4h-19.2c-1.32 0-2.4 1.080-2.4 2.4v14.4c0 1.321 1.080 2.4 2.4 2.4h19.2c1.32 0 2.4-1.079 2.4-2.4v-14.4c0-1.32-1.080-2.4-2.4-2.4zM5.52 4.644c0.498 0 0.9 0.391 0.9 0.875 0 0.485-0.402 0.876-0.9 0.876s-0.9-0.391-0.9-0.875c0-0.485 0.403-0.876 0.9-0.876zM2.22 5.52c0-0.484 0.402-0.875 0.9-0.875s0.9 0.39 0.9 0.875c0 0.485-0.402 0.876-0.9 0.876s-0.9-0.392-0.9-0.876zM21.624 19.2h-19.248v-11.040h19.248v11.040zM21.624 6.24h-14.424v-1.44h14.424v1.44z" fill="#ffc600" />
</svg>
