<?xml version="1.0" encoding="utf-8"?>
<!-- Generated by IcoMoon.io -->
<!DOCTYPE svg PUBLIC "-//W3C//DTD SVG 1.1//EN" "http://www.w3.org/Graphics/SVG/1.1/DTD/svg11.dtd">
<svg version="1.1" xmlns="http://www.w3.org/2000/svg" xmlns:xlink="http://www.w3.org/1999/xlink" width="24" height="24" viewBox="0 0 24 24">
	<path d="M20.627 4.98c-2.006-1.841-5.26-1.841-7.266 0l-1.361 1.25-1.362-1.25c-2.006-1.841-5.258-1.841-7.265 0-2.257 2.072-2.257 5.429 0 7.501l8.627 7.919 8.627-7.919c2.257-2.071 2.257-5.429 0-7.501zM19.35 11.25l-7.35 6.857-7.349-6.857c-0.742-0.679-1.028-1.574-1.028-2.52 0-0.943 0.166-1.718 0.907-2.399 0.654-0.601 1.534-0.931 2.474-0.931 0.942 0 1.822 0.571 2.476 1.172l2.52 2.191 2.52-2.191c0.654-0.601 1.532-1.172 2.474-1.172s1.822 0.33 2.477 0.931c0.74 0.68 0.905 1.456 0.907 2.399 0 0.944-0.288 1.841-1.028 2.52z" fill="#ffc600" />
</svg>
