<?xml version="1.0" encoding="utf-8"?>
<!-- Generated by IcoMoon.io -->
<!DOCTYPE svg PUBLIC "-//W3C//DTD SVG 1.1//EN" "http://www.w3.org/Graphics/SVG/1.1/DTD/svg11.dtd">
<svg version="1.1" xmlns="http://www.w3.org/2000/svg" xmlns:xlink="http://www.w3.org/1999/xlink" width="24" height="24" viewBox="0 0 24 24">
	<path d="M6 15.6h-1.2c-0.662 0-1.2 0.536-1.2 1.2s0.538 1.2 1.2 1.2h1.2c0.662 0 1.2-0.536 1.2-1.2s-0.538-1.2-1.2-1.2zM6 10.8h-1.2c-0.662 0-1.2 0.538-1.2 1.2s0.538 1.2 1.2 1.2h1.2c0.662 0 1.2-0.538 1.2-1.2s-0.538-1.2-1.2-1.2zM6 6h-1.2c-0.662 0-1.2 0.538-1.2 1.2s0.538 1.2 1.2 1.2h1.2c0.662 0 1.2-0.538 1.2-1.2s-0.538-1.2-1.2-1.2zM10.8 8.4h8.4c0.664 0 1.2-0.538 1.2-1.2s-0.536-1.2-1.2-1.2h-8.4c-0.662 0-1.2 0.538-1.2 1.2s0.538 1.2 1.2 1.2zM19.2 10.8h-8.4c-0.662 0-1.2 0.538-1.2 1.2s0.538 1.2 1.2 1.2h8.4c0.664 0 1.2-0.538 1.2-1.2s-0.536-1.2-1.2-1.2zM19.2 15.6h-8.4c-0.662 0-1.2 0.536-1.2 1.2s0.538 1.2 1.2 1.2h8.4c0.664 0 1.2-0.536 1.2-1.2s-0.536-1.2-1.2-1.2z" fill="#ffc600" />
</svg>
