<?xml version="1.0" encoding="utf-8"?>
<!-- Generated by IcoMoon.io -->
<!DOCTYPE svg PUBLIC "-//W3C//DTD SVG 1.1//EN" "http://www.w3.org/Graphics/SVG/1.1/DTD/svg11.dtd">
<svg version="1.1" xmlns="http://www.w3.org/2000/svg" xmlns:xlink="http://www.w3.org/1999/xlink" width="24" height="24" viewBox="0 0 24 24">
	<path d="M12 0.48c-6.362 0-11.52 5.158-11.52 11.52s5.158 11.52 11.52 11.52 11.52-5.158 11.52-11.52-5.158-11.52-11.52-11.52zM16.685 9.918c0.005 0.097 0.007 0.196 0.007 0.294 0 2.998-2.282 6.455-6.456 6.455-1.28 0-2.474-0.374-3.478-1.020 0.178 0.022 0.359 0.031 0.541 0.031 1.063 0 2.041-0.362 2.819-0.972-0.992-0.018-1.831-0.674-2.12-1.574 0.138 0.026 0.281 0.041 0.426 0.041 0.208 0 0.408-0.028 0.598-0.079-1.037-0.209-1.82-1.126-1.82-2.225 0-0.010 0-0.019 0.001-0.028 0.306 0.169 0.656 0.271 1.027 0.283-0.607-0.407-1.008-1.1-1.008-1.889 0-0.416 0.112-0.806 0.307-1.141 1.118 1.374 2.791 2.278 4.676 2.371-0.038-0.166-0.059-0.338-0.059-0.517 0-1.253 1.016-2.269 2.269-2.269 0.653 0 1.242 0.275 1.656 0.716 0.517-0.101 1.003-0.289 1.441-0.55-0.17 0.529-0.529 0.974-0.998 1.255 0.46-0.055 0.896-0.176 1.303-0.358-0.304 0.455-0.69 0.854-1.133 1.175z" fill="#ffc600" />
</svg>
