<?xml version="1.0" encoding="utf-8"?>
<!-- Generated by IcoMoon.io -->
<!DOCTYPE svg PUBLIC "-//W3C//DTD SVG 1.1//EN" "http://www.w3.org/Graphics/SVG/1.1/DTD/svg11.dtd">
<svg version="1.1" xmlns="http://www.w3.org/2000/svg" xmlns:xlink="http://www.w3.org/1999/xlink" width="24" height="24" viewBox="0 0 24 24">
	<path d="M21.6 1.2h-19.2c-1.32 0-2.4 1.080-2.4 2.4v14.4c0 1.32 1.080 2.376 2.4 2.376h4.776v-2.352h-4.8v-11.064h19.248v11.064h-4.8v2.353h4.776c1.321 0 2.4-1.057 2.4-2.376v-14.401c0-1.32-1.079-2.4-2.4-2.4zM3.121 5.196c-0.498 0-0.9-0.392-0.9-0.876s0.402-0.876 0.9-0.876c0.497 0 0.9 0.392 0.9 0.876s-0.403 0.876-0.9 0.876zM5.521 5.196c-0.498 0-0.9-0.392-0.9-0.876s0.402-0.876 0.9-0.876c0.497 0 0.9 0.392 0.9 0.876s-0.403 0.876-0.9 0.876zM21.625 5.064h-14.449v-1.488h14.448v1.488zM11.938 9.809l-5.822 5.786h3.6v7.205h4.445v-7.205h3.6l-5.822-5.786z" fill="#ffc600" />
</svg>
