<?xml version="1.0" encoding="utf-8"?>
<!-- Generated by IcoMoon.io -->
<!DOCTYPE svg PUBLIC "-//W3C//DTD SVG 1.1//EN" "http://www.w3.org/Graphics/SVG/1.1/DTD/svg11.dtd">
<svg version="1.1" xmlns="http://www.w3.org/2000/svg" xmlns:xlink="http://www.w3.org/1999/xlink" width="24" height="24" viewBox="0 0 24 24">
	<path d="M18.72 5.494c0-2.568 0-2.819 0-2.819 0-0.948-3.008-2.675-6.72-2.675s-6.72 1.727-6.72 2.675c0 0 0 0.251 0 2.819 0 2.568 4.652 4.688 4.652 6.506 0 1.819-4.652 3.938-4.652 6.508 0 2.568 0 2.819 0 2.819 0 0.947 3.008 2.674 6.72 2.674s6.72-1.727 6.72-2.675c0 0 0-0.251 0-2.819 0-2.569-4.651-4.688-4.651-6.508 0-1.817 4.651-3.938 4.651-6.505zM7.128 2.795c0.835-0.527 2.401-1.3 4.937-1.3 2.537 0 4.807 1.3 4.807 1.3 0.17 0.103 0.838 0.461 0.38 0.731-1.007 0.596-2.975 1.224-5.254 1.224s-4.18-0.692-5.186-1.289c-0.457-0.271 0.316-0.666 0.316-0.666zM12.601 12c0 1.432 1.195 2.353 2.462 3.583 0.925 0.899 2.19 2.129 2.19 2.924v1.594c-1.163-0.58-4.645-1.147-4.645-3.005 0-0.941-1.217-0.941-1.217 0 0 1.858-3.482 2.425-4.645 3.005v-1.594c0-0.794 1.266-2.026 2.191-2.924 1.266-1.23 2.461-2.152 2.461-3.583 0-1.432-1.195-2.353-2.461-3.583-0.925-0.899-2.191-2.13-2.191-2.923l-0.056-1.2c1.231 0.662 3.184 1.295 5.31 1.295s4.088-0.632 5.32-1.295l-0.066 1.2c0 0.793-1.266 2.024-2.19 2.923-1.267 1.23-2.462 2.152-2.462 3.583z" fill="#ffc600" />
</svg>
