<?xml version="1.0" encoding="utf-8"?>
<!-- Generated by IcoMoon.io -->
<!DOCTYPE svg PUBLIC "-//W3C//DTD SVG 1.1//EN" "http://www.w3.org/Graphics/SVG/1.1/DTD/svg11.dtd">
<svg version="1.1" xmlns="http://www.w3.org/2000/svg" xmlns:xlink="http://www.w3.org/1999/xlink" width="24" height="24" viewBox="0 0 24 24">
	<path d="M22.405 14.446c0.16-0.749 0.244-1.526 0.244-2.326 0-5.983-4.715-10.835-10.531-10.835-0.613 0-1.216 0.055-1.8 0.158-0.943-0.61-2.056-0.964-3.251-0.964-3.372 0-6.107 2.814-6.107 6.284 0 1.159 0.307 2.245 0.84 3.178-0.139 0.703-0.214 1.432-0.214 2.178 0 5.983 4.716 10.835 10.531 10.835 0.659 0 1.304-0.062 1.928-0.181 0.859 0.475 1.842 0.745 2.886 0.745 3.374 0 6.108-2.813 6.108-6.283 0-1.002-0.229-1.95-0.635-2.79zM17.519 17.299c-0.487 0.709-1.207 1.272-2.14 1.67-0.924 0.395-2.029 0.595-3.29 0.595-1.513 0-2.78-0.274-3.77-0.815-0.708-0.392-1.291-0.925-1.734-1.582-0.448-0.665-0.674-1.324-0.674-1.958 0-0.397 0.148-0.742 0.439-1.024 0.289-0.278 0.659-0.421 1.099-0.421 0.361 0 0.674 0.112 0.928 0.331 0.242 0.212 0.45 0.526 0.617 0.928 0.187 0.44 0.39 0.811 0.605 1.104 0.206 0.281 0.504 0.518 0.883 0.703 0.382 0.185 0.896 0.28 1.53 0.28 0.87 0 1.584-0.191 2.12-0.569 0.526-0.37 0.78-0.811 0.78-1.352 0-0.427-0.133-0.764-0.407-1.027-0.287-0.275-0.666-0.49-1.124-0.637-0.479-0.154-1.129-0.319-1.932-0.492-1.093-0.241-2.022-0.527-2.76-0.85-0.754-0.329-1.363-0.787-1.808-1.361-0.452-0.581-0.682-1.313-0.682-2.172 0-0.818 0.24-1.556 0.715-2.192 0.472-0.631 1.158-1.123 2.044-1.46 0.875-0.332 1.915-0.502 3.091-0.502 0.941 0 1.768 0.113 2.458 0.332 0.694 0.223 1.279 0.523 1.739 0.893 0.463 0.373 0.808 0.772 1.025 1.183 0.218 0.419 0.329 0.834 0.329 1.236 0 0.388-0.145 0.739-0.432 1.046-0.288 0.308-0.653 0.464-1.081 0.464-0.389 0-0.695-0.098-0.907-0.29-0.197-0.179-0.402-0.46-0.628-0.86-0.263-0.515-0.581-0.919-0.944-1.204-0.355-0.277-0.946-0.419-1.759-0.419-0.755 0-1.369 0.156-1.825 0.464-0.44 0.298-0.653 0.637-0.653 1.039 0 0.247 0.068 0.454 0.21 0.63 0.15 0.188 0.36 0.354 0.628 0.491 0.276 0.143 0.562 0.257 0.847 0.338 0.293 0.083 0.784 0.206 1.458 0.367 0.852 0.188 1.634 0.4 2.327 0.626 0.702 0.23 1.308 0.516 1.802 0.846 0.504 0.338 0.904 0.773 1.187 1.29 0.283 0.521 0.427 1.163 0.427 1.908 0.001 0.895-0.246 1.708-0.736 2.42z" fill="#ffc600" />
</svg>
