<?xml version="1.0" encoding="utf-8"?>
<!-- Generated by IcoMoon.io -->
<!DOCTYPE svg PUBLIC "-//W3C//DTD SVG 1.1//EN" "http://www.w3.org/Graphics/SVG/1.1/DTD/svg11.dtd">
<svg version="1.1" xmlns="http://www.w3.org/2000/svg" xmlns:xlink="http://www.w3.org/1999/xlink" width="24" height="24" viewBox="0 0 24 24">
	<path d="M24 22.56c0 0-0.047-4.544-0.325-5.015-0.414-0.702-1.375-1.183-3.161-1.93-1.78-0.744-2.35-1.373-2.35-2.716 0-0.808 0.544-0.544 0.782-2.021 0.098-0.613 0.578-0.011 0.671-1.409 0-0.558-0.262-0.697-0.262-0.697s0.132-0.826 0.185-1.46c0.065-0.792-0.4-2.836-2.87-2.836s-2.933 2.045-2.869 2.836c0.052 0.635 0.184 1.46 0.184 1.46s-0.262 0.139-0.262 0.697c0.092 1.399 0.572 0.797 0.672 1.409 0.238 1.477 0.781 1.213 0.781 2.021 0 0.913-0.264 1.496-0.992 2.009 3.888 1.946 4.41 2.344 4.41 4.084v3.568h5.406zM12.269 16.29c-2.375-0.991-3.132-1.829-3.132-3.62 0-1.075 0.725-0.725 1.043-2.695 0.131-0.817 0.773-0.013 0.894-1.878 0-0.744-0.349-0.929-0.349-0.929s0.178-1.1 0.247-1.948c0.086-1.054-0.533-3.78-3.827-3.78-3.294 0-3.912 2.725-3.826 3.78 0.070 0.847 0.246 1.948 0.246 1.948s-0.348 0.185-0.348 0.929c0.124 1.866 0.763 1.062 0.895 1.878 0.318 1.97 1.043 1.619 1.043 2.695 0 1.792-0.76 2.629-3.132 3.62-0.724 0.302-2.023 0.772-2.023 1.897v4.373h16.673c0 0 0-2.586 0-3.277 0-1.028-2.024-1.997-4.404-2.993z" fill="#ffc600" />
</svg>
