<?xml version="1.0" encoding="utf-8"?>
<!-- Generated by IcoMoon.io -->
<!DOCTYPE svg PUBLIC "-//W3C//DTD SVG 1.1//EN" "http://www.w3.org/Graphics/SVG/1.1/DTD/svg11.dtd">
<svg version="1.1" xmlns="http://www.w3.org/2000/svg" xmlns:xlink="http://www.w3.org/1999/xlink" width="24" height="24" viewBox="0 0 24 24">
	<path d="M23.207 11.452c-0.472-0.5-2.741-2.726-3.779-3.743-0.319-0.311-0.775-0.509-1.252-0.509-0.475 0-6.175 0-6.175 0s-5.7 0-6.176 0-0.934 0.199-1.252 0.51c-1.038 1.016-3.31 3.242-3.78 3.743-0.587 0.624-0.908 1.122-0.755 1.739l0.673 3.689c0.152 0.617 0.828 1.122 1.501 1.122h19.574c0.673 0 1.349-0.505 1.501-1.122l0.674-3.689c0.152-0.617-0.169-1.116-0.756-1.74zM16.858 12.251c-0.122 0-0.232 0.062-0.287 0.16l-0.98 2.443h-7.18l-0.98-2.443c-0.054-0.097-0.166-0.16-0.287-0.16h-4.254l2.449-2.771h13.325l2.448 2.771h-4.254z" fill="#ffc600" />
</svg>
