<?xml version="1.0" encoding="utf-8"?>
<!-- Generated by IcoMoon.io -->
<!DOCTYPE svg PUBLIC "-//W3C//DTD SVG 1.1//EN" "http://www.w3.org/Graphics/SVG/1.1/DTD/svg11.dtd">
<svg version="1.1" xmlns="http://www.w3.org/2000/svg" xmlns:xlink="http://www.w3.org/1999/xlink" width="24" height="24" viewBox="0 0 24 24">
	<path d="M23.208 16.253l-3.821-2.57h-2.356l4.080 3.13h-4.254c-0.122 0-0.232 0.062-0.288 0.16l-0.979 2.682h-7.181l-0.98-2.682c-0.054-0.097-0.166-0.16-0.288-0.16h-4.253l4.081-3.13h-2.357l-3.82 2.57c-0.569 0.34-0.908 1.123-0.756 1.739l0.673 3.689c0.152 0.617 0.829 1.122 1.501 1.122h19.576c0.674 0 1.35-0.505 1.502-1.122l0.673-3.689c0.155-0.617-0.186-1.399-0.755-1.739zM18.241 8.546h-3.961v-6.144h-4.56v6.144h-3.96l6.24 5.856 6.241-5.856z" fill="#ffc600" />
</svg>
