<?xml version="1.0" encoding="utf-8"?>
<!-- Generated by IcoMoon.io -->
<!DOCTYPE svg PUBLIC "-//W3C//DTD SVG 1.1//EN" "http://www.w3.org/Graphics/SVG/1.1/DTD/svg11.dtd">
<svg version="1.1" xmlns="http://www.w3.org/2000/svg" xmlns:xlink="http://www.w3.org/1999/xlink" width="24" height="24" viewBox="0 0 24 24">
	<path d="M1.913 6.343c0.586 0.316 8.699 4.673 9.001 4.835 0.301 0.162 0.692 0.24 1.086 0.24 0.395 0 0.786-0.078 1.087-0.241 0.302-0.162 8.414-4.519 9-4.835 0.587-0.314 1.141-1.302 0.065-1.302h-20.303c-1.076 0-0.523 0.988 0.064 1.303zM22.336 8.743c-0.666 0.348-8.84 4.621-9.248 4.835s-0.692 0.241-1.087 0.241c-0.394 0-0.678-0.028-1.086-0.241s-8.584-4.488-9.248-4.835c-0.469-0.245-0.466 0.042-0.466 0.263 0 0.221 0 8.802 0 8.802 0 0.504 0.671 1.152 1.19 1.152h19.22c0.521 0 1.189-0.648 1.189-1.151 0 0 0-8.581 0-8.802 0-0.222 0.005-0.509-0.464-0.264z" fill="#ffc600" />
</svg>
