<?xml version="1.0" encoding="utf-8"?>
<!-- Generated by IcoMoon.io -->
<!DOCTYPE svg PUBLIC "-//W3C//DTD SVG 1.1//EN" "http://www.w3.org/Graphics/SVG/1.1/DTD/svg11.dtd">
<svg version="1.1" xmlns="http://www.w3.org/2000/svg" xmlns:xlink="http://www.w3.org/1999/xlink" width="24" height="24" viewBox="0 0 24 24">
	<path d="M12 0.48c-6.362 0-11.52 5.158-11.52 11.52s5.158 11.52 11.52 11.52 11.52-5.158 11.52-11.52-5.156-11.52-11.52-11.52zM8.922 14.425c-1.314 0-2.378-1.085-2.378-2.425 0-1.34 1.064-2.425 2.378-2.425 1.314 0 2.38 1.085 2.38 2.425-0.001 1.34-1.066 2.425-2.38 2.425zM15.077 14.425c-1.315 0-2.38-1.085-2.38-2.425 0-1.34 1.064-2.425 2.38-2.425 1.313 0 2.378 1.085 2.378 2.425 0.001 1.34-1.066 2.425-2.378 2.425z" fill="#ffc600" />
</svg>
