<?xml version="1.0" encoding="UTF-8" standalone="no"?>
<!-- Generator: Adobe Illustrator 16.0.4, SVG Export Plug-In . SVG Version: 6.00 Build 0)  -->
<!DOCTYPE svg  PUBLIC '-//W3C//DTD SVG 1.1//EN'  'http://www.w3.org/Graphics/SVG/1.1/DTD/svg11.dtd'>
<svg id="svg2" xmlns:rdf="http://www.w3.org/1999/02/22-rdf-syntax-ns#" xmlns="http://www.w3.org/2000/svg" enable-background="new 592.25 102.333 126.5 813.417" xml:space="preserve" height="813.42px" viewBox="592.25 102.333 126.5 813.417" width="126.5px" version="1.1" y="0px" x="0px" xmlns:cc="http://creativecommons.org/ns#" xmlns:xlink="http://www.w3.org/1999/xlink" xmlns:dc="http://purl.org/dc/elements/1.1/">
		<g id="g10" transform="matrix(1.25,0,0,-1.25,0,990)">
			<g id="g12990">
					<g id="g12992">
						<g id="g12998" transform="translate(488.91 696.18)">
							<path id="path13000" d="m0 0.134c-10.034-10.03-14.702-27.765-14.702-55.811v-399.91l0.105-0.421 2.52-9.95 0.195-0.755 0.497-0.604 2.13-2.547v-121.49c0-12.037 4.652-23.355 13.105-31.866 8.451-8.513 19.687-13.198 31.64-13.198 11.955 0 23.189 4.685 31.643 13.198 8.449 8.511 13.105 19.829 13.105 31.866v121.54l2.084 2.495 0.499 0.604 0.192 0.755 2.52 9.95 0.106 0.421v0.428l0.046 399.48c0 28.046-4.672 45.781-14.701 55.811-8.63 8.63-20.571 13.429-35.495 13.429-14.92 0.002-26.86-4.796-35.489-13.426" fill="#fff"/>
						</g>
						<g id="g13002" transform="translate(488.91 696.18)">
							<path id="path13004" d="m0 0.134c-10.034-10.03-14.702-27.765-14.702-55.811v-399.91l0.105-0.421 2.52-9.95 0.195-0.755 0.497-0.604 2.13-2.547v-121.49c0-12.037 4.652-23.355 13.105-31.866 8.451-8.513 19.687-13.198 31.64-13.198 11.955 0 23.189 4.685 31.643 13.198 8.449 8.511 13.105 19.829 13.105 31.866v121.54l2.084 2.495 0.499 0.604 0.192 0.755 2.52 9.95 0.106 0.421v0.428l0.046 399.48c0 28.046-4.672 45.781-14.701 55.811-8.63 8.63-20.571 13.429-35.495 13.429-14.92 0.002-26.86-4.796-35.489-13.426z" stroke="#918F90" stroke-width=".957" fill="none"/>
						</g>
					</g>
			</g>
			<g id="g13006">
					<g id="g13008">
						<g id="g13014" transform="translate(491.25 608.08)">
							<path id="path13016" d="m0 0.134c0.597 0.804 1.117 1.671 1.562 2.584l0.796 1.943c0.554 1.658 0.856 3.435 0.834 5.29-0.014 1.26-0.188 2.479-0.47 3.649l-3.558-0.921c0.217-0.891 0.348-1.814 0.36-2.77 0.016-1.304-0.184-2.555-0.545-3.734l-0.893-2.155c-0.244-0.453-0.612-1.059-0.975-1.597l2.889-2.289zm-0.787 12.556l3.51 0.91m-3.37-1.858l3.634 0.627m-3.553-1.577l3.717 0.332m-3.578-1.281l3.638 0.02m-3.759-0.971l3.713-0.285m-4.14-2.553l3.392-1.138m-3.856 0.152l3.275-1.458m-3.741 0.471l3.161-1.776m-3.65 0.96l2.993-2.021m64.957-1.11c-0.598 0.806-1.122 1.671-1.566 2.582l-0.795 1.947c-0.553 1.658-0.853 3.433-0.832 5.289 0.014 1.259 0.186 2.477 0.47 3.648l3.557-0.921c-0.216-0.89-0.347-1.814-0.36-2.77-0.014-1.304 0.186-2.555 0.547-3.732l0.893-2.157c0.242-0.453 0.609-1.059 0.973-1.597l-2.887-2.289zm0.785 12.556l-3.509 0.91m3.369-1.858l-3.633 0.628m3.553-1.578l-3.716 0.332m3.577-1.281l-3.638 0.021m3.759-0.972l-3.713-0.285m4.14-2.551l-3.389-1.139m3.853 0.151l-3.275-1.458m3.739 0.472l-3.157-1.777m3.647 0.96l-2.994-2.021" stroke="#918F90" stroke-width=".478" fill="none"/>
						</g>
						<path id="path13018" d="m526.18 659.29h-4.426v1.02h4.426v-1.02z" stroke="#918F90" stroke-width=".478" fill="#fff"/>
						<path id="path13020" d="m526.18 660.31h-4.426v1.018h4.426v-1.02z" stroke="#918F90" stroke-width=".478" fill="#fff"/>
						<path id="path13022" d="m526.18 661.33h-4.426v1.021h4.426v-1.02z" stroke="#918F90" stroke-width=".478" fill="#fff"/>
						<path id="path13024" d="m529.5 659.29h-3.326v1.02h3.326v-1.02z" stroke="#918F90" stroke-width=".478" fill="#fff"/>
						<path id="path13026" d="m529.5 660.31h-3.326v1.018h3.326v-1.02z" stroke="#918F90" stroke-width=".478" fill="#fff"/>
						<path id="path13028" d="m529.5 661.33h-3.326v1.021h3.326v-1.02z" stroke="#918F90" stroke-width=".478" fill="#fff"/>
						<path id="path13030" d="m526.18 662.35h-4.426v1.019h4.426v-1.02z" stroke="#918F90" stroke-width=".478" fill="#fff"/>
						<path id="path13032" d="m529.5 662.35h-3.326v1.019h3.326v-1.02z" stroke="#918F90" stroke-width=".478" fill="#fff"/>
						<path id="path13034" d="m526.18 663.37h-4.426v1.021h4.426v-1.02z" stroke="#918F90" stroke-width=".478" fill="#fff"/>
						<path id="path13036" d="m529.5 663.37h-3.326v1.021h3.326v-1.02z" stroke="#918F90" stroke-width=".478" fill="#fff"/>
						<path id="path13038" d="m526.18 664.39h-4.426v1.02h4.426v-1.02z" stroke="#918F90" stroke-width=".478" fill="#fff"/>
						<path id="path13040" d="m529.5 664.39h-3.326v1.02h3.326v-1.02z" stroke="#918F90" stroke-width=".478" fill="#fff"/>
						<path id="path13042" d="m521.75 659.29h-3.326v1.02h3.326v-1.02z" stroke="#918F90" stroke-width=".478" fill="#fff"/>
						<path id="path13044" d="m521.75 660.31h-3.326v1.018h3.326v-1.02z" stroke="#918F90" stroke-width=".478" fill="#fff"/>
						<path id="path13046" d="m521.75 661.33h-3.326v1.021h3.326v-1.02z" stroke="#918F90" stroke-width=".478" fill="#fff"/>
						<path id="path13048" d="m521.75 662.35h-3.326v1.019h3.326v-1.02z" stroke="#918F90" stroke-width=".478" fill="#fff"/>
						<path id="path13050" d="m521.75 663.37h-3.326v1.021h3.326v-1.02z" stroke="#918F90" stroke-width=".478" fill="#fff"/>
						<path id="path13052" d="m521.75 664.39h-3.326v1.02h3.326v-1.02z" stroke="#918F90" stroke-width=".478" fill="#fff"/>
						<path id="path13054" d="m529.5 659.3h-11.077v-3.007h11.077v3.01z" stroke="#918F90" stroke-width=".478" fill="#fff"/>
						<g id="g13056" transform="translate(550.82 619.67)">
							<path id="path13058" d="m0 0.134h-23.191l-3.612-1.142-4.13 1.142h-22.794c0.048-3.803 0.655-13.239 6.834-22.447 3.185 1.299 9.666 5.055 20.034 5.055 10.371 0 15.646-3.378 20.035-5.055 2.115 3.542 6.659 10.125 6.824 22.447" fill="#fff"/>
						</g>
						<g id="g13060" transform="translate(550.82 619.67)">
							<path id="path13062" d="m0 0.134h-23.191l-3.612-1.142-4.13 1.142h-22.794c0.048-3.803 0.655-13.239 6.834-22.447 3.185 1.299 9.666 5.055 20.034 5.055 10.371 0 15.646-3.378 20.035-5.055 2.115 3.542 6.659 10.125 6.824 22.447z" stroke="#918F90" stroke-width=".478" fill="none"/>
						</g>
						<path id="path13064" d="m506.76 618.04h-5.277v-15.34h5.277v15.34z" stroke="#918F90" stroke-width=".478" fill="#fff"/>
						<path id="path13066" d="m546.46 618.04h-5.278v-15.34h5.278v15.34z" stroke="#918F90" stroke-width=".478" fill="#fff"/>
						<g id="g13068" transform="translate(523.97 619.23)">
							<path id="path13070" d="m0 0.133c-1.312 0-2.38 1.062-2.51 2.418-1.673-0.357-3.11-1.054-4.102-1.975h-3.751l0.002-8.7h2.714v1.149s1.031 0.173 1.381 0.458c1.672-0.76 3.928-1.229 6.416-1.229 2.397 0 4.569 0.438 6.222 1.148 0.324-0.232 1.275-0.376 1.275-0.376v-1.149h2.72v8.7h-3.755c-0.993 0.92-2.431 1.617-4.102 1.974-0.128-1.355-1.198-2.418-2.51-2.418" fill="#fff"/>
						</g>
						<g id="g13072" transform="translate(523.97 619.23)">
								<path id="path13074" stroke-linejoin="round" d="m0 0.133c-1.312 0-2.38 1.062-2.51 2.418-1.673-0.357-3.11-1.054-4.102-1.975h-3.751l0.002-8.7h2.714v1.149s1.031 0.173 1.381 0.458c1.672-0.76 3.928-1.229 6.416-1.229 2.397 0 4.569 0.438 6.222 1.148 0.324-0.232 1.275-0.376 1.275-0.376v-1.149h2.72v8.7h-3.755c-0.993 0.92-2.431 1.617-4.102 1.974-0.128-1.355-1.198-2.418-2.51-2.418z" stroke="#918F90" stroke-width=".957" fill="none"/>
						</g>
						<g id="g13076" transform="translate(534.33 612.12)">
							<path id="path13078" d="m0 0.134h-2.913c-1.302 0-2.358 1.454-2.358 3.249s1.056 3.251 2.358 3.251h2.913v-6.5z" fill="#fff"/>
						</g>
						<g id="g13080" transform="translate(513.6 612.12)">
							<path id="path13082" d="m0 0.134h2.912c1.302 0 2.359 1.454 2.359 3.249s-1.057 3.251-2.359 3.251h-2.912v-6.5z" fill="#fff"/>
						</g>
						<g id="g13084" transform="translate(513.6 612.12)">
							<path id="path13086" d="m0 0.134h2.912c1.302 0 2.359 1.454 2.359 3.249s-1.057 3.251-2.359 3.251h-2.912v-6.5zm20.734 0h-2.913c-1.302 0-2.358 1.454-2.358 3.249s1.056 3.251 2.358 3.251h2.913v-6.5zm-20.734 0h2.912c1.302 0 2.359 1.454 2.359 3.249s-1.057 3.251-2.359 3.251h-2.912v-6.5z" stroke="#918F90" stroke-width=".478" fill="none"/>
						</g>
						<g id="g13088" transform="translate(524.02 696.8)">
							<path id="path13090" d="m0 0.134c-0.131 0.01-13.463 0.989-23.585-8.456-8.071-7.53-12.163-19.432-12.163-35.378v-33.086c0-7.026-6.097-100.99-6.097-107.9v-219.3c0-2.192 1.118-3.689 2.226-4.202 0.943-0.438 1.923-0.227 2.916 0.613 10.827 9.212 23.25 8.629 36.653 8.629 13.404 0 25.823 0.583 36.655-8.629 0.99-0.839 1.971-1.05 2.915-0.613 1.106 0.513 2.225 2.009 2.225 4.202v219.3c0 6.91-6.096 100.87-6.096 107.9v33.09c0 15.946-4.094 27.848-12.162 35.378-10.123 9.445-23.388 8.449-23.487 8.456m26.291-5.452c8.934-8.338 13.468-21.252 13.468-38.382v-33.086c0-7.992 6.096-99.404 6.096-107.9v-219.3c0-3.523-1.811-6.637-4.613-7.93-2.419-1.118-5.079-0.675-7.3 1.21-9.752 8.299-21.116 7.651-33.991 7.651-12.877 0-24.241 0.648-33.992-7.651-2.221-1.885-4.882-2.328-7.301-1.21-2.802 1.294-4.611 4.407-4.611 7.93v219.3c0 8.492 6.095 99.904 6.095 107.9v33.09c0 17.131 4.532 30.044 13.47 38.382 11.257 10.507 26.051 9.594 26.675 9.551l-0.456 0.007c2.587 0.128 15.931 0.263 26.46-9.558" fill="#fff"/>
						</g>
						<g id="g13092" transform="translate(524.02 696.8)">
								<path id="path13094" stroke-linejoin="round" d="m0 0.134c-0.131 0.01-13.463 0.989-23.585-8.456-8.071-7.53-12.163-19.432-12.163-35.378v-33.086c0-7.026-6.097-100.99-6.097-107.9v-219.3c0-2.192 1.118-3.689 2.226-4.202 0.943-0.438 1.923-0.227 2.916 0.613 10.827 9.212 23.25 8.629 36.653 8.629 13.404 0 25.823 0.583 36.655-8.629 0.99-0.839 1.971-1.05 2.915-0.613 1.106 0.513 2.225 2.009 2.225 4.202v219.3c0 6.91-6.096 100.87-6.096 107.9v33.09c0 15.946-4.094 27.848-12.162 35.378-10.123 9.445-23.388 8.449-23.487 8.456zm26.291-5.452c8.934-8.338 13.468-21.252 13.468-38.382v-33.086c0-7.992 6.096-99.404 6.096-107.9v-219.3c0-3.523-1.811-6.637-4.613-7.93-2.419-1.118-5.079-0.675-7.3 1.21-9.752 8.299-21.116 7.651-33.991 7.651-12.877 0-24.241 0.648-33.992-7.651-2.221-1.885-4.882-2.328-7.301-1.21-2.802 1.294-4.611 4.407-4.611 7.93v219.3c0 8.492 6.095 99.904 6.095 107.9v33.09c0 17.131 4.532 30.044 13.47 38.382 11.257 10.507 26.051 9.594 26.675 9.551l-0.456 0.007c2.587 0.128 15.931 0.263 26.46-9.558z" stroke="#918F90" stroke-width=".478" fill="none"/>
						</g>
						<g id="g13096" transform="translate(523.97 547.91)">
							<path id="path13098" d="m0 0.134c-5.058 0-9.546 1.429-12.423 3.642-2.062-2.662-3.303-5.991-3.303-9.618 0-4.262 1.702-8.123 4.457-10.955l4.009 4.011c1.743-2.382 4.346-3.898 7.26-3.898 2.88 0 5.455 1.484 7.195 3.816l4.004-4.003c2.797 2.838 4.525 6.73 4.525 11.03 0 3.627-1.24 6.956-3.301 9.618-2.88-2.214-7.366-3.643-12.423-3.643" fill="#fff"/>
						</g>
						<g id="g13100" transform="translate(523.97 547.91)">
								<path id="path13102" stroke-linejoin="round" d="m0 0.134c-5.058 0-9.546 1.429-12.423 3.642-2.062-2.662-3.303-5.991-3.303-9.618 0-4.262 1.702-8.123 4.457-10.955l4.009 4.011c1.743-2.382 4.346-3.898 7.26-3.898 2.88 0 5.455 1.484 7.195 3.816l4.004-4.003c2.797 2.838 4.525 6.73 4.525 11.03 0 3.627-1.24 6.956-3.301 9.618-2.88-2.214-7.366-3.643-12.423-3.643z" stroke="#918F90" stroke-width=".478" fill="none"/>
						</g>
						<g id="g13104" transform="translate(538.39 547.88)">
							<path id="path13106" d="m0 0.134c0.58-1.171 0.945-2.391 1.134-3.619l0.141-2.359c-0.019-0.521-0.082-1.239-0.172-1.891l3.548-0.734c0.185 0.999 0.273 2.022 0.273 3.052l-0.138 2.125c-0.227 1.751-0.73 3.493-1.55 5.157l-3.236-1.731zm0.27-0.894l3.36 1.639m-2.918-2.487l3.386 1.317m-3.19-2.26l3.559 1.056m-3.24-2.081l3.499 0.538m-3.484-1.64l3.535 0.193m-3.521-1.302l3.572-0.147m-3.65-0.815l3.527-0.442m-33.702 7.325c-0.578-1.171-0.943-2.391-1.135-3.619l-0.137-2.359c0.019-0.521 0.08-1.238 0.17-1.891l-3.55-0.734c-0.184 0.998-0.27 2.022-0.27 3.052l0.137 2.125c0.227 1.751 0.728 3.493 1.552 5.157l3.233-1.731zm-0.27-0.894l-3.359 1.639m2.92-2.487l-3.389 1.317m3.191-2.26l-3.56 1.056m3.242-2.081l-3.501 0.538m3.487-1.64l-3.536 0.193m3.519-1.302l-3.573-0.147m3.651-0.815l-3.527-0.442" stroke="#918F90" stroke-width=".478" fill="none"/>
						</g>
						<path id="path13108" d="m508.4 250.01h-4.428v1.021h4.428v-1.02z" stroke="#918F90" stroke-width=".478" fill="#fff"/>
						<path id="path13110" d="m508.4 251.03h-4.428v1.018h4.428v-1.02z" stroke="#918F90" stroke-width=".478" fill="#fff"/>
						<path id="path13112" d="m508.4 252.04h-4.428v1.02h4.428v-1.02z" stroke="#918F90" stroke-width=".478" fill="#fff"/>
						<path id="path13114" d="m511.72 250.01h-3.323v1.021h3.323v-1.02z" stroke="#918F90" stroke-width=".478" fill="#fff"/>
						<path id="path13116" d="m511.72 251.03h-3.323v1.018h3.323v-1.02z" stroke="#918F90" stroke-width=".478" fill="#fff"/>
						<path id="path13118" d="m511.72 252.04h-3.323v1.02h3.323v-1.02z" stroke="#918F90" stroke-width=".478" fill="#fff"/>
						<path id="path13120" d="m508.4 253.06h-4.428v1.021h4.428v-1.02z" stroke="#918F90" stroke-width=".478" fill="#fff"/>
						<path id="path13122" d="m511.72 253.06h-3.323v1.021h3.323v-1.02z" stroke="#918F90" stroke-width=".478" fill="#fff"/>
						<path id="path13124" d="m508.4 254.09h-4.428v1.02h4.428v-1.02z" stroke="#918F90" stroke-width=".478" fill="#fff"/>
						<path id="path13126" d="m511.72 254.09h-3.323v1.02h3.323v-1.02z" stroke="#918F90" stroke-width=".478" fill="#fff"/>
						<path id="path13128" d="m508.4 255.11h-4.428v1.02h4.428v-1.02z" stroke="#918F90" stroke-width=".478" fill="#fff"/>
						<path id="path13130" d="m511.72 255.11h-3.323v1.02h3.323v-1.02z" stroke="#918F90" stroke-width=".478" fill="#fff"/>
						<path id="path13132" d="m503.97 250.01h-3.324v1.021h3.324v-1.02z" stroke="#918F90" stroke-width=".478" fill="#fff"/>
						<path id="path13134" d="m503.97 251.03h-3.324v1.018h3.324v-1.02z" stroke="#918F90" stroke-width=".478" fill="#fff"/>
						<path id="path13136" d="m503.97 252.04h-3.324v1.02h3.324v-1.02z" stroke="#918F90" stroke-width=".478" fill="#fff"/>
						<path id="path13138" d="m503.97 253.06h-3.324v1.021h3.324v-1.02z" stroke="#918F90" stroke-width=".478" fill="#fff"/>
						<path id="path13140" d="m503.97 254.09h-3.324v1.02h3.324v-1.02z" stroke="#918F90" stroke-width=".478" fill="#fff"/>
						<path id="path13142" d="m503.97 255.11h-3.324v1.02h3.324v-1.02z" stroke="#918F90" stroke-width=".478" fill="#fff"/>
						<path id="path13144" d="m511.72 250.02h-11.076v-3.007h11.076v3.01z" stroke="#918F90" stroke-width=".478" fill="#fff"/>
						<path id="path13146" d="m549.98 283.47h-5.276v-15.345h5.276v15.35z" stroke="#918F90" stroke-width=".478" fill="#fff"/>
						<path id="path13148" d="m503.2 283.5h-5.276v-15.343h5.276v15.34z" stroke="#918F90" stroke-width=".478" fill="#fff"/>
						<g id="g13150" transform="translate(534.52 286.98)">
								<path id="path13152" stroke-linejoin="round" d="m0 0.134l0.93-3.643v-16.95h-8.444v0.009c0 1.677-1.362 3.04-3.042 3.04-1.679 0-3.041-1.363-3.041-3.04v-0.009h-8.443v16.95l0.929 3.643" stroke="#918F90" stroke-width=".957" fill="#fff"/>
						</g>
						<g id="g13154" transform="translate(535.44 267.22)">
							<path id="path13156" d="m0 0.134h-2.913c-1.302 0-2.361 1.456-2.361 3.25 0 1.796 1.059 3.251 2.361 3.251h2.913v-6.501zm-22.953 0h2.914c1.304 0 2.359 1.456 2.359 3.25 0 1.796-1.055 3.251-2.359 3.251h-2.914v-6.501zm22.953 8.399h-2.913c-1.302 0-2.361 1.459-2.361 3.252 0 1.794 1.059 3.251 2.361 3.251h2.913v-6.503zm-22.953 0h2.914c1.304 0 2.359 1.459 2.359 3.252 0 1.794-1.055 3.251-2.359 3.251h-2.914v-6.503zh2.914c1.304 0 2.359 1.459 2.359 3.252 0 1.794-1.055 3.251-2.359 3.251h-2.914v-6.503z" stroke="#918F90" stroke-width=".478" fill="none"/>
						</g>
						<path id="path13158" d="m534.51 635.6h3.324v-1.021h-3.324v1.02z" stroke="#918F90" stroke-width=".478" fill="#fff"/>
						<path id="path13160" d="m534.51 634.58h3.324v-1.019h-3.324v1.02z" stroke="#918F90" stroke-width=".478" fill="#fff"/>
						<path id="path13162" d="m534.51 633.56h3.324v-1.021h-3.324v1.02z" stroke="#918F90" stroke-width=".478" fill="#fff"/>
						<path id="path13164" d="m534.51 632.54h3.324v-1.019h-3.324v1.02z" stroke="#918F90" stroke-width=".478" fill="#fff"/>
						<path id="path13166" d="m534.51 631.52h3.324v-1.021h-3.324v1.02z" stroke="#918F90" stroke-width=".478" fill="#fff"/>
						<path id="path13168" d="m534.51 630.5h3.324v-1.019h-3.324v1.02z" stroke="#918F90" stroke-width=".478" fill="#fff"/>
						<path id="path13170" d="m537.83 635.6h3.326v-1.021h-3.326v1.02z" stroke="#918F90" stroke-width=".478" fill="#fff"/>
						<path id="path13172" d="m537.83 634.58h3.326v-1.019h-3.326v1.02z" stroke="#918F90" stroke-width=".478" fill="#fff"/>
						<path id="path13174" d="m537.83 633.56h3.326v-1.021h-3.326v1.02z" stroke="#918F90" stroke-width=".478" fill="#fff"/>
						<path id="path13176" d="m537.83 632.54h3.326v-1.019h-3.326v1.02z" stroke="#918F90" stroke-width=".478" fill="#fff"/>
						<path id="path13178" d="m537.83 631.52h3.326v-1.021h-3.326v1.02z" stroke="#918F90" stroke-width=".478" fill="#fff"/>
						<path id="path13180" d="m537.83 630.5h3.326v-1.019h-3.326v1.02z" stroke="#918F90" stroke-width=".478" fill="#fff"/>
						<path id="path13182" d="m534.51 635.59h6.65v3.007h-6.65v-3.01z" stroke="#918F90" stroke-width=".478" fill="#fff"/>
						<path id="path13184" d="m506.7 635.6h3.326v-1.021h-3.326v1.02z" stroke="#918F90" stroke-width=".478" fill="#fff"/>
						<path id="path13186" d="m506.7 634.58h3.326v-1.019h-3.326v1.02z" stroke="#918F90" stroke-width=".478" fill="#fff"/>
						<path id="path13188" d="m506.7 633.56h3.326v-1.021h-3.326v1.02z" stroke="#918F90" stroke-width=".478" fill="#fff"/>
						<path id="path13190" d="m506.7 632.54h3.326v-1.019h-3.326v1.02z" stroke="#918F90" stroke-width=".478" fill="#fff"/>
						<path id="path13192" d="m506.7 631.52h3.326v-1.021h-3.326v1.02z" stroke="#918F90" stroke-width=".478" fill="#fff"/>
						<path id="path13194" d="m506.7 630.5h3.326v-1.019h-3.326v1.02z" stroke="#918F90" stroke-width=".478" fill="#fff"/>
						<path id="path13196" d="m510.03 635.6h3.324v-1.021h-3.324v1.02z" stroke="#918F90" stroke-width=".478" fill="#fff"/>
						<path id="path13198" d="m510.03 634.58h3.324v-1.019h-3.324v1.02z" stroke="#918F90" stroke-width=".478" fill="#fff"/>
						<path id="path13200" d="m510.03 633.56h3.324v-1.021h-3.324v1.02z" stroke="#918F90" stroke-width=".478" fill="#fff"/>
						<path id="path13202" d="m510.03 632.54h3.324v-1.019h-3.324v1.02z" stroke="#918F90" stroke-width=".478" fill="#fff"/>
						<path id="path13204" d="m510.03 631.52h3.324v-1.021h-3.324v1.02z" stroke="#918F90" stroke-width=".478" fill="#fff"/>
						<path id="path13206" d="m510.03 630.5h3.324v-1.019h-3.324v1.02z" stroke="#918F90" stroke-width=".478" fill="#fff"/>
						<path id="path13208" d="m506.7 635.59h6.65v3.007h-6.65v-3.01z" fill="#fff"/>
						<path id="path13210" d="m506.7 635.59h6.65v3.007h-6.65v-3.01zm34.44-8.8h5.306l1.032 1.034v12.373h-6.338v-13.4z" stroke="#918F90" stroke-width=".478" fill="none"/>
						<path id="path13212" d="m506.63 628.8h-9.514v11.399h9.514v-11.4z" fill="#fff"/>
							<path id="path13214" stroke-linejoin="round" d="m506.63 628.8h-9.514v11.399h9.514v-11.4zm-0.52 11.39h-14.095c1.296 19.949 0.401 27.811 6.01 36.392 6.849 10.472 17.023 14.508 25.941 14.508 9.756 0 18.066-4.657 21.844-9.147 8.904-10.578 9.087-14.332 10.301-41.644l-29.824-0.1h-29.978" stroke="#918F90" stroke-width=".478" fill="none"/>
						<g id="g13216" transform="translate(516.51 503.35)">
							<path id="path13218" d="m0 0.134l-2.414-0.601-0.246 0.987 2.414 0.605 0.246-0.991z" fill="#fff"/>
						</g>
						<g id="g13220" transform="translate(516.51 503.35)">
							<path id="path13222" d="m0 0.134l-2.414-0.601-0.246 0.987 2.414 0.605 0.246-0.991z" stroke="#918F90" stroke-width=".478" fill="none"/>
						</g>
						<g id="g13224" transform="translate(516.27 504.34)">
							<path id="path13226" d="m0 0.134l-2.414-0.604-0.246 0.99 2.412 0.604 0.248-0.99z" fill="#fff"/>
						</g>
						<g id="g13228" transform="translate(516.27 504.34)">
							<path id="path13230" d="m0 0.134l-2.414-0.604-0.246 0.99 2.412 0.604 0.248-0.99z" stroke="#918F90" stroke-width=".478" fill="none"/>
						</g>
						<g id="g13232" transform="translate(516.02 505.33)">
							<path id="path13234" d="m0 0.133l-2.412-0.604-0.249 0.989 2.412 0.602 0.249-0.987z" fill="#fff"/>
						</g>
						<g id="g13236" transform="translate(516.02 505.33)">
							<path id="path13238" d="m0 0.133l-2.412-0.604-0.249 0.989 2.412 0.602 0.249-0.987z" stroke="#918F90" stroke-width=".478" fill="none"/>
						</g>
						<g id="g13240" transform="translate(515.77 506.32)">
							<path id="path13242" d="m0 0.134l-2.412-0.604-0.248 0.99 2.414 0.603 0.246-0.989z" fill="#fff"/>
						</g>
						<g id="g13244" transform="translate(515.77 506.32)">
							<path id="path13246" d="m0 0.134l-2.412-0.604-0.248 0.99 2.414 0.603 0.246-0.989zm-18.187 1.136l3.048-5.87c4.989 2.762 10.879 4.79 14.893 5.723l-1.288 6.243" stroke="#918F90" stroke-width=".478" fill="none"/>
						</g>
						<g id="g13248" transform="translate(515.02 509.59)">
							<path id="path13250" d="m0 0.134l-2.411-0.6-0.249 0.989 2.412 0.602 0.248-0.991z" fill="#fff"/>
						</g>
						<g id="g13252" transform="translate(515.02 509.59)">
							<path id="path13254" d="m0 0.134l-2.411-0.6-0.249 0.989 2.412 0.602 0.248-0.991z" stroke="#918F90" stroke-width=".478" fill="none"/>
						</g>
						<g id="g13256" transform="translate(514.77 510.58)">
							<path id="path13258" d="m0 0.134l-2.411-0.603-0.246 0.99 2.411 0.603 0.246-0.99z" fill="#fff"/>
						</g>
						<g id="g13260" transform="translate(514.77 510.58)">
							<path id="path13262" d="m0 0.134l-2.411-0.603-0.246 0.99 2.411 0.603 0.246-0.99z" stroke="#918F90" stroke-width=".478" fill="none"/>
						</g>
						<g id="g13264" transform="translate(514.52 511.57)">
							<path id="path13266" d="m0 0.134l-2.411-0.604-0.248 0.988 2.411 0.604 0.248-0.988z" fill="#fff"/>
						</g>
						<g id="g13268" transform="translate(514.52 511.57)">
							<path id="path13270" d="m0 0.134l-2.411-0.604-0.248 0.988 2.411 0.604 0.248-0.988z" stroke="#918F90" stroke-width=".478" fill="none"/>
						</g>
						<g id="g13272" transform="translate(514.28 512.56)">
							<path id="path13274" d="m0 0.134l-2.411-0.604-0.248 0.99 2.413 0.603 0.246-0.989z" fill="#fff"/>
						</g>
						<g id="g13276" transform="translate(514.28 512.56)">
							<path id="path13278" d="m0 0.134l-2.411-0.604-0.248 0.99 2.413 0.603 0.246-0.989zm-19.492 0.422l2.8-5.529c4.991 2.762 12.638 5.162 16.653 6.096l-1.29 6.245" stroke="#918F90" stroke-width=".478" fill="none"/>
						</g>
						<g id="g13280" transform="translate(513.73 515.84)">
							<path id="path13282" d="m0 0.134l-2.412-0.604-0.247 0.99 2.412 0.603 0.247-0.989z" fill="#fff"/>
						</g>
						<g id="g13284" transform="translate(513.73 515.84)">
							<path id="path13286" d="m0 0.134l-2.412-0.604-0.247 0.99 2.412 0.603 0.247-0.989z" stroke="#918F90" stroke-width=".478" fill="none"/>
						</g>
						<g id="g13288" transform="translate(513.48 516.83)">
							<path id="path13290" d="m0 0.134l-2.411-0.603-0.248 0.992 2.411 0.601 0.248-0.99z" fill="#fff"/>
						</g>
						<g id="g13292" transform="translate(513.48 516.83)">
							<path id="path13294" d="m0 0.134l-2.411-0.603-0.248 0.992 2.411 0.601 0.248-0.99z" stroke="#918F90" stroke-width=".478" fill="none"/>
						</g>
						<g id="g13296" transform="translate(513.24 517.82)">
							<path id="path13298" d="m0 0.134l-2.411-0.601-0.249 0.987 2.415 0.601 0.245-0.987z" fill="#fff"/>
						</g>
						<g id="g13300" transform="translate(513.24 517.82)">
							<path id="path13302" d="m0 0.134l-2.411-0.601-0.249 0.987 2.415 0.601 0.245-0.987z" stroke="#918F90" stroke-width=".478" fill="none"/>
						</g>
						<g id="g13304" transform="translate(512.99 518.8)">
							<path id="path13306" d="m0 0.134l-2.416-0.602-0.245 0.991 2.412 0.604 0.249-0.993z" fill="#fff"/>
						</g>
						<g id="g13308" transform="translate(512.99 518.8)">
							<path id="path13310" d="m0 0.134l-2.416-0.602-0.245 0.991 2.412 0.604 0.249-0.993z" stroke="#918F90" stroke-width=".478" fill="none"/>
						</g>
						<g id="g13312" transform="translate(513.43 524.41)">
							<path id="path13314" d="m0 0.134l-3.362-1.074-0.298 0.978 3.361 1.069 0.299-0.973z" fill="#fff"/>
						</g>
						<g id="g13316" transform="translate(513.43 524.41)">
							<path id="path13318" d="m0 0.134l-3.362-1.074-0.298 0.978 3.361 1.069 0.299-0.973z" stroke="#918F90" stroke-width=".478" fill="none"/>
						</g>
						<g id="g13320" transform="translate(513.13 525.38)">
							<path id="path13322" d="m0 0.134l-3.362-1.07-0.298 0.975 3.362 1.07 0.298-0.975z" fill="#fff"/>
						</g>
						<g id="g13324" transform="translate(513.13 525.38)">
							<path id="path13326" d="m0 0.134l-3.362-1.07-0.298 0.975 3.362 1.07 0.298-0.975z" stroke="#918F90" stroke-width=".478" fill="none"/>
						</g>
						<g id="g13328" transform="translate(531.39 503.2)">
							<path id="path13330" d="m0 0.133l2.411-0.603 0.25 0.991-2.412 0.602-0.249-0.99z" fill="#fff"/>
						</g>
						<g id="g13332" transform="translate(531.39 503.2)">
							<path id="path13334" d="m0 0.133l2.411-0.603 0.25 0.991-2.412 0.602-0.249-0.99z" stroke="#918F90" stroke-width=".478" fill="none"/>
						</g>
						<g id="g13336" transform="translate(531.64 504.19)">
							<path id="path13338" d="m0 0.134l2.412-0.603 0.248 0.987-2.412 0.603-0.248-0.987z" fill="#fff"/>
						</g>
						<g id="g13340" transform="translate(531.64 504.19)">
							<path id="path13342" d="m0 0.134l2.412-0.603 0.248 0.987-2.412 0.603-0.248-0.987z" stroke="#918F90" stroke-width=".478" fill="none"/>
						</g>
						<g id="g13344" transform="translate(531.88 505.18)">
							<path id="path13346" d="m0 0.133l2.412-0.603 0.247 0.992-2.413 0.604-0.246-0.993z" fill="#fff"/>
						</g>
						<g id="g13348" transform="translate(531.88 505.18)">
							<path id="path13350" d="m0 0.133l2.412-0.603 0.247 0.992-2.413 0.604-0.246-0.993z" stroke="#918F90" stroke-width=".478" fill="none"/>
						</g>
						<g id="g13352" transform="translate(532.13 506.17)">
							<path id="path13354" d="m0 0.133l2.412-0.602 0.246 0.989-2.411 0.604-0.247-0.991z" fill="#fff"/>
						</g>
						<g id="g13356" transform="translate(532.13 506.17)">
							<path id="path13358" d="m0 0.133l2.412-0.602 0.246 0.989-2.411 0.604-0.247-0.991zm18.239 1.362l-3.05-5.874c-4.988 2.765-10.926 4.565-14.942 5.503l1.287 6.243" stroke="#918F90" stroke-width=".478" fill="none"/>
						</g>
						<g id="g13360" transform="translate(532.93 509.59)">
							<path id="path13362" d="m0 0.134l2.411-0.6 0.249 0.989-2.411 0.602-0.249-0.991z" fill="#fff"/>
						</g>
						<g id="g13364" transform="translate(532.93 509.59)">
							<path id="path13366" d="m0 0.134l2.411-0.6 0.249 0.989-2.411 0.602-0.249-0.991z" stroke="#918F90" stroke-width=".478" fill="none"/>
						</g>
						<g id="g13368" transform="translate(533.18 510.58)">
							<path id="path13370" d="m0 0.134l2.411-0.603 0.247 0.99-2.413 0.603-0.245-0.99z" fill="#fff"/>
						</g>
						<g id="g13372" transform="translate(533.18 510.58)">
							<path id="path13374" d="m0 0.134l2.411-0.603 0.247 0.99-2.413 0.603-0.245-0.99z" stroke="#918F90" stroke-width=".478" fill="none"/>
						</g>
						<g id="g13376" transform="translate(533.42 511.57)">
							<path id="path13378" d="m0 0.134l2.414-0.604 0.246 0.989-2.411 0.604-0.249-0.989z" fill="#fff"/>
						</g>
						<g id="g13380" transform="translate(533.42 511.57)">
							<path id="path13382" d="m0 0.134l2.414-0.604 0.246 0.989-2.411 0.604-0.249-0.989z" stroke="#918F90" stroke-width=".478" fill="none"/>
						</g>
						<g id="g13384" transform="translate(533.67 512.56)">
							<path id="path13386" d="m0 0.134l2.411-0.604 0.249 0.99-2.412 0.603-0.248-0.989z" fill="#fff"/>
						</g>
						<g id="g13388" transform="translate(533.67 512.56)">
							<path id="path13390" d="m0 0.134l2.411-0.604 0.249 0.99-2.412 0.603-0.248-0.989zm19.668 0.768l-3.05-5.875c-4.988 2.762-12.562 5.162-16.579 6.096l1.29 6.245" stroke="#918F90" stroke-width=".478" fill="none"/>
						</g>
						<g id="g13392" transform="translate(534.27 515.99)">
							<path id="path13394" d="m0 0.134l2.412-0.604 0.248 0.99-2.414 0.603-0.246-0.989z" fill="#fff"/>
						</g>
						<g id="g13396" transform="translate(534.27 515.99)">
							<path id="path13398" d="m0 0.134l2.412-0.604 0.248 0.99-2.414 0.603-0.246-0.989z" stroke="#918F90" stroke-width=".478" fill="none"/>
						</g>
						<g id="g13400" transform="translate(534.52 516.98)">
							<path id="path13402" d="m0 0.133l2.414-0.603 0.246 0.99-2.412 0.603-0.248-0.99z" fill="#fff"/>
						</g>
						<g id="g13404" transform="translate(534.52 516.98)">
							<path id="path13406" d="m0 0.133l2.414-0.603 0.246 0.99-2.412 0.603-0.248-0.99z" stroke="#918F90" stroke-width=".478" fill="none"/>
						</g>
						<g id="g13408" transform="translate(534.76 517.97)">
							<path id="path13410" d="m0 0.134l2.413-0.602 0.248 0.988-2.412 0.607-0.249-0.993z" fill="#fff"/>
						</g>
						<g id="g13412" transform="translate(534.76 517.97)">
							<path id="path13414" d="m0 0.134l2.413-0.602 0.248 0.988-2.412 0.607-0.249-0.993z" stroke="#918F90" stroke-width=".478" fill="none"/>
						</g>
						<g id="g13416" transform="translate(535.01 518.96)">
							<path id="path13418" d="m0 0.134l2.412-0.606 0.247 0.991-2.414 0.602-0.245-0.987z" fill="#fff"/>
						</g>
						<g id="g13420" transform="translate(535.01 518.96)">
							<path id="path13422" d="m0 0.134l2.412-0.606 0.247 0.991-2.414 0.602-0.245-0.987z" stroke="#918F90" stroke-width=".478" fill="none"/>
						</g>
						<g id="g13424" transform="translate(534.51 524.41)">
							<path id="path13426" d="m0 0.134l3.359-1.074 0.299 0.977-3.36 1.069-0.298-0.972z" fill="#fff"/>
						</g>
						<g id="g13428" transform="translate(534.51 524.41)">
							<path id="path13430" d="m0 0.134l3.359-1.074 0.299 0.977-3.36 1.069-0.298-0.972z" stroke="#918F90" stroke-width=".478" fill="none"/>
						</g>
						<g id="g13432" transform="translate(534.81 525.38)">
							<path id="path13434" d="m0 0.134l3.361-1.07 0.3 0.975-3.36 1.07-0.301-0.975z" fill="#fff"/>
						</g>
						<g id="g13436" transform="translate(534.81 525.38)">
							<path id="path13438" d="m0 0.134l3.361-1.07 0.3 0.975-3.36 1.07-0.301-0.975zm18.515-12.049l2.082 4.012c0.331 0.757 1.045 1.887-0.912 2.685-1.835 0.752-18.898 6.179-21.167 6.906-1.428-0.559-4.971-2.379-9.358-2.379-4.388 0-7.927 1.82-9.357 2.379-2.268-0.727-19.332-6.154-21.167-6.905-1.957-0.798-1.241-1.928-0.911-2.685l2.08-4.012" stroke="#918F90" stroke-width=".478" fill="none"/>
						</g>
						<g id="g13440" transform="translate(560.92 508.73)">
								<path id="path13442" stroke-linejoin="round" d="m0 0.133s-11.883 8.045-26.333 11.136c-1.809-6.578-6.148-12.051-10.616-12.051-4.462 0-8.802 5.47-10.611 12.043-14.402-3.096-26.334-11.128-26.334-11.128v-30.115c3.765-4.885 6.094-11.642 6.094-19.106 0-7.466-2.329-14.221-6.094-19.109v-28.269c0-6.224 2.088-6.4 2.923-6.035 3.281 2.584 11.638 4.355 20.037 5.28 1.813 5.772 7.202 9.959 13.571 9.959 6.342 0 11.713-4.155 13.545-9.891 8.404-0.905 16.745-2.701 20.9-5.348 2.395-1.04 2.919 1.62 2.919 6.034v28.269c-3.767 4.887-6.096 11.643-6.096 19.109 0 7.464 2.329 14.221 6.096 19.106v30.115z" stroke="#918F90" stroke-width=".957" fill="none"/>
						</g>
						<g id="g13444" transform="translate(491.38 396.2)">
							<path id="path13446" d="m0 0.134c-0.694-0.723-1.317-1.52-1.871-2.37l-1.025-1.833c-0.757-1.577-1.271-3.303-1.478-5.147-0.139-1.253-0.118-2.484 0.022-3.68l3.643 0.48c-0.105 0.909-0.122 1.841-0.016 2.793 0.143 1.296 0.497 2.512 0.998 3.636l1.152 2.03c0.295 0.421 0.733 0.978 1.161 1.467l-2.586 2.624zm-0.758-12.556l-3.595-0.474m3.574 1.431l-3.686-0.177m3.718 1.131l-3.725 0.127m3.707 0.829l-3.614 0.425m3.849 0.507l-3.65 0.737m4.419 2.025l-3.223 1.546m3.808-0.622l-3.073 1.846m3.655-0.924l-2.92 2.151m3.504-1.4l-2.723 2.37" stroke="#918F90" stroke-width=".478" fill="none"/>
						</g>
						<g id="g13448" transform="translate(523.56 392.89)">
								<path id="path13450" stroke-linejoin="round" d="m0 0.133c-7.378 0-13.445 5.62-14.153 12.811-6.424-1.811-12.127-4.15-16.167-6.005m-6.211-16.527v-83.179c0-6.223 3.123-5.366 3.956-5.002 5.038 3.97 19.604 6.036 32.99 6.036m-30.499 98.523s1.862-0.655 1.862-2.622c0-1.968-1.37-3.35-1.37-3.35" stroke="#918F90" stroke-width=".957" fill="none"/>
						</g>
						<g id="g13452" transform="translate(556.57 396.2)">
							<path id="path13454" d="m0 0.134c0.692-0.723 1.315-1.52 1.868-2.37l1.028-1.833c0.753-1.578 1.269-3.303 1.474-5.147 0.141-1.253 0.118-2.484-0.02-3.68l-3.645 0.48c0.108 0.909 0.123 1.841 0.018 2.793-0.144 1.296-0.494 2.512-0.996 3.636l-1.152 2.03c-0.296 0.421-0.736 0.978-1.161 1.467l2.586 2.624zm0.755-12.556l3.596-0.474m-3.573 1.431l3.685-0.177m-3.72 1.131l3.728 0.127m-3.706 0.829l3.611 0.425m-3.849 0.507l3.652 0.737m-4.422 2.025l3.226 1.546m-3.807-0.622l3.071 1.846m-3.657-0.924l2.92 2.151m-3.501-1.4l2.72 2.37" stroke="#918F90" stroke-width=".478" fill="none"/>
						</g>
						<g id="g13456" transform="translate(524.39 392.89)">
								<path id="path13458" stroke-linejoin="round" d="m0 0.133c7.38 0 13.444 5.62 14.153 12.811 6.423-1.811 12.126-4.15 16.167-6.005m6.211-16.527v-83.179c0-6.223-3.124-5.366-3.959-5.002-5.037 3.97-19.603 6.036-32.989 6.036m30.5 98.523s-1.859-0.655-1.859-2.622c0-1.968 1.371-3.35 1.371-3.35" stroke="#918F90" stroke-width=".957" fill="none"/>
						</g>
						<g id="g13460" transform="translate(505.38 570.79)">
							<path id="path13462" d="m0 0.134c3.939 3.653 10.785 6.078 18.583 6.078 7.795 0 14.634-2.422 18.577-6.071 7.483 5.785 12.327 14.94 12.327 25.015 0 11.659-1.912 20.144-4.234 20.296-0.884-10.049-4.735-15.702-6.634-18.885-0.051 0.021-0.105 0.042-0.156 0.062-4.936 6.176-12.015 10.048-19.879 10.048-7.861 0-14.936-3.869-19.873-10.041-0.052-0.022-0.11-0.048-0.162-0.069-4.787 7.134-6.223 14.394-6.652 19.074-1.846-0.652-3.956-5.641-3.956-21.083-0.001-9.954 4.728-18.799 12.059-24.424z" stroke="#918F90" stroke-width=".957" fill="none"/>
						</g>
						<g id="g13464" transform="translate(550.01 283.36)">
							<path id="path13466" d="m0 0.134c0 2.861-11.661 3.834-26.047 3.834-14.384 0-26.046-0.973-26.046-3.834m2.724-36.487l1.634-14.444v-14.453h12.649v20.391l-3.208 8.505" stroke="#969695" stroke-width=".478" fill="none"/>
						</g>
						<path id="path13468" d="m539.54 250.01h4.426v1.021h-4.426v-1.02z" stroke="#918F90" stroke-width=".478" fill="#fff"/>
						<path id="path13470" d="m539.54 251.03h4.426v1.018h-4.426v-1.02z" stroke="#918F90" stroke-width=".478" fill="#fff"/>
						<path id="path13472" d="m539.54 252.04h4.426v1.02h-4.426v-1.02z" stroke="#918F90" stroke-width=".478" fill="#fff"/>
						<path id="path13474" d="m536.21 250.01h3.327v1.021h-3.327v-1.02z" stroke="#918F90" stroke-width=".478" fill="#fff"/>
						<path id="path13476" d="m536.21 251.03h3.327v1.018h-3.327v-1.02z" stroke="#918F90" stroke-width=".478" fill="#fff"/>
						<path id="path13478" d="m536.21 252.04h3.327v1.02h-3.327v-1.02z" stroke="#918F90" stroke-width=".478" fill="#fff"/>
						<path id="path13480" d="m539.54 253.06h4.426v1.021h-4.426v-1.02z" stroke="#918F90" stroke-width=".478" fill="#fff"/>
						<path id="path13482" d="m536.21 253.06h3.327v1.021h-3.327v-1.02z" stroke="#918F90" stroke-width=".478" fill="#fff"/>
						<path id="path13484" d="m539.54 254.09h4.426v1.02h-4.426v-1.02z" stroke="#918F90" stroke-width=".478" fill="#fff"/>
						<path id="path13486" d="m536.21 254.09h3.327v1.02h-3.327v-1.02z" stroke="#918F90" stroke-width=".478" fill="#fff"/>
						<path id="path13488" d="m539.54 255.11h4.426v1.02h-4.426v-1.02z" stroke="#918F90" stroke-width=".478" fill="#fff"/>
						<path id="path13490" d="m536.21 255.11h3.327v1.02h-3.327v-1.02z" stroke="#918F90" stroke-width=".478" fill="#fff"/>
						<path id="path13492" d="m543.96 250.01h3.326v1.021h-3.326v-1.02z" stroke="#918F90" stroke-width=".478" fill="#fff"/>
						<path id="path13494" d="m543.96 251.03h3.326v1.018h-3.326v-1.02z" stroke="#918F90" stroke-width=".478" fill="#fff"/>
						<path id="path13496" d="m543.96 252.04h3.326v1.02h-3.326v-1.02z" stroke="#918F90" stroke-width=".478" fill="#fff"/>
						<path id="path13498" d="m543.96 253.06h3.326v1.021h-3.326v-1.02z" stroke="#918F90" stroke-width=".478" fill="#fff"/>
						<path id="path13500" d="m543.96 254.09h3.326v1.02h-3.326v-1.02z" stroke="#918F90" stroke-width=".478" fill="#fff"/>
						<path id="path13502" d="m543.96 255.11h3.326v1.02h-3.326v-1.02z" stroke="#918F90" stroke-width=".478" fill="#fff"/>
						<path id="path13504" d="m536.21 250.02h11.077v-3.007h-11.077v3.01z" stroke="#918F90" stroke-width=".478" fill="#fff"/>
						<g id="g13506" transform="translate(547.29 246.88)">
							<path id="path13508" d="m0 0.133l-1.638-14.443v-14.453h-12.647v20.391l3.208 8.505" stroke="#969695" stroke-width=".478" fill="none"/>
						</g>
						<path id="path13510" d="m544.87 140.43h15.316v33.284h-15.316v-33.28z" stroke="#918F90" stroke-width=".478" fill="#fff"/>
						<g id="g13512" transform="translate(560.21 122.4)">
							<path id="path13514" d="m0 0.134c-0.03-0.071-0.059-0.145-0.089-0.218-5.352-13.111-19.509-22.484-36.152-22.484-16.737 0-30.959 9.477-36.241 22.702v10.912l3.098 3.101v3.613l-3.098 3.095v24.005l3.098 4.134v28.648l-3.098 4.128v7.489l2.066 10.582h4.745v-12.392h20.391v-14.471c-4.19-2.881-6.942-7.703-6.942-13.171s2.752-10.293 6.942-13.175v-41.601h-20.391v5.161h2.71v8.855l17.681 0.13" stroke="#918F90" stroke-width=".478" fill="#fff"/>
						</g>
						<g id="g13516" transform="translate(537.48 173.58)">
							<path id="path13518" d="m0 0.133c-1.164-1.85-2.685-3.444-4.481-4.682v-41.601h11.865v46.283h-7.384z" fill="#fff"/>
						</g>
						<g id="g13520" transform="translate(537.48 173.58)">
							<path id="path13522" d="m0 0.133c-1.164-1.85-2.685-3.444-4.481-4.682v-41.601h11.865v46.283h-7.384z" stroke="#918F90" stroke-width=".478" fill="none"/>
						</g>
						<g id="g13524" transform="translate(533 217.98)">
							<path id="path13526" d="m0 0.133v-22.732c4.191-2.88 6.939-7.703 6.939-13.171 0-0.972-0.1-1.92-0.264-2.843h10.674c5.442 0 9.854 4.413 9.854 9.853v28.893h-27.203z" fill="#fff"/>
						</g>
						<g id="g13528" transform="translate(533 217.98)">
							<path id="path13530" d="m0 0.133v-22.732c4.191-2.88 6.939-7.703 6.939-13.171 0-0.972-0.1-1.92-0.264-2.843h10.674c5.442 0 9.854 4.413 9.854 9.853v28.893h-27.203zm0.515-48.714c3.901 2.916 6.423 7.568 6.423 12.812m12.319-71.331c-2.54 1.188-5.307 2.22-8.259 3.071-5.933-2.73-12.754-4.308-20.036-4.308-7.279 0-14.103 1.577-20.035 4.308-2.952-0.851-5.723-1.883-8.261-3.071" stroke="#918F90" stroke-width=".478" fill="none"/>
						</g>
						<g id="g13532" transform="translate(514.93 127.3)">
							<path id="path13534" d="m0 0.134h47.236l-2.71-6.634" stroke="#918F90" stroke-width=".478" fill="#fff"/>
						</g>
						<g id="g13536" transform="translate(503.93 113.82)">
							<path id="path13538" d="m0 0.134v-6.84h-3.356" stroke="#918F90" stroke-width=".478" fill="#fff"/>
						</g>
						<g id="g13540" transform="translate(544 113.82)">
							<path id="path13542" d="m0 0.134v-6.84h3.356" stroke="#918F90" stroke-width=".478" fill="#fff"/>
						</g>
					</g>
			</g>
			<g id="g13760">
					<g id="g13762">
						<path id="path14338" d="m545.78 195.19h-12.62v22.992h12.62v-22.99z" stroke="#918F90" stroke-width=".498" fill="#fff"/>
						<g id="g14340" transform="translate(489.13 266.64)">
							<path id="path14342" d="m0 0.134h4.17v-3.107h4.51v19.919h-4.51v-2.923h-4.17v-13.889zm69.514 14.12h-4.17v2.925h-4.51v-19.92h4.51v3.107h4.17v13.888z" stroke="#918F90" stroke-width=".454" fill="none"/>
						</g>
						<g id="g15704" transform="translate(544.9 636.58)">
							<path id="path15706" d="m0 0.133h-0.316c0.301 0.127 0.516 0.427 0.516 0.775 0 0.463-0.376 0.84-0.839 0.84-0.464 0-0.839-0.377-0.839-0.84 0-0.349 0.214-0.648 0.516-0.775h-0.329c-0.426 0-0.774-0.346-0.774-0.774v-1.936c0-0.54 0.304-0.764 0.749-0.854v-2.695h1.354v2.699c0.44 0.089 0.737 0.313 0.737 0.85v1.936c0 0.429-0.344 0.774-0.775 0.774" fill="#231F20"/>
						</g>
						<g id="g15708" transform="translate(502.86 635.04)">
							<path id="path15710" d="m0 0.134h0.517l-0.517 1.548h-0.582c0.304 0.127 0.518 0.426 0.518 0.775 0 0.463-0.375 0.84-0.839 0.84-0.465 0-0.838-0.377-0.838-0.84 0-0.349 0.215-0.648 0.516-0.775h-0.582l-0.516-1.548h0.516l-0.516-2.066h0.722l0.279-2.645h0.838l0.278 2.645h0.723l-0.517 2.066z" fill="#231F20"/>
						</g>
					</g>
			</g>
			<text font-size="7.5169" font-family="&apos;ArialNarrow-Bold&apos;" transform="matrix(0 .8 .8 0 506.38 603.67)" fill="#231F20">E</text>
			<text font-size="7.5169" font-family="&apos;ArialNarrow-Bold&apos;" transform="matrix(0 .8 .8 0 506.38 606.86)" fill="#231F20">L</text>
			<text font-size="7.5169" font-family="&apos;ArialNarrow-Bold&apos;" transform="matrix(0 .8 .8 0 506.38 609.71)" fill="#231F20">E</text>
			<text font-size="7.5169" font-family="&apos;ArialNarrow-Bold&apos;" transform="matrix(0 .8 .8 0 506.38 612.89)" fill="#231F20">V</text>
			<text font-size="7.5169" font-family="&apos;ArialNarrow-Bold&apos;" transform="matrix(0 .8 .8 0 506.38 615.97)" fill="#231F20">.</text>
			<text font-size="7.5169" font-family="&apos;ArialNarrow-Bold&apos;" transform="matrix(0 .8 .8 0 545.87 603.46)" fill="#231F20">E</text>
			<text font-size="7.5169" font-family="&apos;ArialNarrow-Bold&apos;" transform="matrix(0 .8 .8 0 545.87 606.65)" fill="#231F20">L</text>
			<text font-size="7.5169" font-family="&apos;ArialNarrow-Bold&apos;" transform="matrix(0 .8 .8 0 545.87 609.5)" fill="#231F20">E</text>
			<text font-size="7.5169" font-family="&apos;ArialNarrow-Bold&apos;" transform="matrix(0 .8 .8 0 545.87 612.68)" fill="#231F20">V</text>
			<text font-size="7.5169" font-family="&apos;ArialNarrow-Bold&apos;" transform="matrix(0 .8 .8 0 545.87 615.76)" fill="#231F20">.</text>
			<text font-size="7.5169" font-family="&apos;ArialNarrow-Bold&apos;" transform="matrix(0 .8 .8 0 481.82 418.6)" fill="#231F20">J</text>
			<text font-size="7.5169" font-family="&apos;ArialNarrow-Bold&apos;" transform="matrix(0 .8 .8 0 481.82 421.79)" fill="#231F20">O</text>
			<text font-size="7.5169" font-family="&apos;ArialNarrow-Bold&apos;" transform="matrix(0 .8 .8 0 481.82 425.65)" fill="#231F20">G</text>
			<text font-size="7.5169" font-family="&apos;ArialNarrow-Bold&apos;" transform="matrix(0 .8 .8 0 481.82 429.5)" fill="#231F20">G</text>
			<text font-size="7.5169" font-family="&apos;ArialNarrow-Bold&apos;" transform="matrix(0 .8 .8 0 481.82 433.35)" fill="#231F20">I</text>
			<text font-size="7.5169" font-family="&apos;ArialNarrow-Bold&apos;" transform="matrix(0 .8 .8 0 481.82 435.21)" fill="#231F20">N</text>
			<text font-size="7.5169" font-family="&apos;ArialNarrow-Bold&apos;" transform="matrix(0 .8 .8 0 481.82 439.4)" fill="#231F20">G</text>
			<text font-size="7.5169" font-family="&apos;ArialNarrow-Bold&apos;" transform="matrix(0 .8 .8 0 481.82 443.25)" fill="#231F20"> </text>
			<text font-size="7.5169" font-family="&apos;ArialNarrow-Bold&apos;" transform="matrix(0 .8 .8 0 481.82 444.77)" fill="#231F20">T</text>
			<text font-size="7.5169" font-family="&apos;ArialNarrow-Bold&apos;" transform="matrix(0 .8 .8 0 481.82 447.96)" fill="#231F20">R</text>
			<text font-size="7.5169" font-family="&apos;ArialNarrow-Bold&apos;" transform="matrix(0 .8 .8 0 481.82 451.48)" fill="#231F20">A</text>
			<text font-size="7.5169" font-family="&apos;ArialNarrow-Bold&apos;" transform="matrix(0 .8 .8 0 481.82 455.33)" fill="#231F20">C</text>
			<text font-size="7.5169" font-family="&apos;ArialNarrow-Bold&apos;" transform="matrix(0 .8 .8 0 481.82 458.86)" fill="#231F20">K</text>
			<text font-size="7.5169" font-family="&apos;ArialNarrow-Bold&apos;" transform="matrix(0 .8 .8 0 569.5 418.6)" fill="#231F20">J</text>
			<text font-size="7.5169" font-family="&apos;ArialNarrow-Bold&apos;" transform="matrix(0 .8 .8 0 569.5 421.79)" fill="#231F20">O</text>
			<text font-size="7.5169" font-family="&apos;ArialNarrow-Bold&apos;" transform="matrix(0 .8 .8 0 569.5 425.65)" fill="#231F20">G</text>
			<text font-size="7.5169" font-family="&apos;ArialNarrow-Bold&apos;" transform="matrix(0 .8 .8 0 569.5 429.5)" fill="#231F20">G</text>
			<text font-size="7.5169" font-family="&apos;ArialNarrow-Bold&apos;" transform="matrix(0 .8 .8 0 569.5 433.35)" fill="#231F20">I</text>
			<text font-size="7.5169" font-family="&apos;ArialNarrow-Bold&apos;" transform="matrix(0 .8 .8 0 569.5 435.21)" fill="#231F20">N</text>
			<text font-size="7.5169" font-family="&apos;ArialNarrow-Bold&apos;" transform="matrix(0 .8 .8 0 569.5 439.4)" fill="#231F20">G</text>
			<text font-size="7.5169" font-family="&apos;ArialNarrow-Bold&apos;" transform="matrix(0 .8 .8 0 569.5 443.25)" fill="#231F20"> </text>
			<text font-size="7.5169" font-family="&apos;ArialNarrow-Bold&apos;" transform="matrix(0 .8 .8 0 569.5 444.77)" fill="#231F20">T</text>
			<text font-size="7.5169" font-family="&apos;ArialNarrow-Bold&apos;" transform="matrix(0 .8 .8 0 569.5 447.96)" fill="#231F20">R</text>
			<text font-size="7.5169" font-family="&apos;ArialNarrow-Bold&apos;" transform="matrix(0 .8 .8 0 569.5 451.48)" fill="#231F20">A</text>
			<text font-size="7.5169" font-family="&apos;ArialNarrow-Bold&apos;" transform="matrix(0 .8 .8 0 569.5 455.33)" fill="#231F20">C</text>
			<text font-size="7.5169" font-family="&apos;ArialNarrow-Bold&apos;" transform="matrix(0 .8 .8 0 569.5 458.86)" fill="#231F20">K</text>
			<text font-size="7.5169" font-family="&apos;ArialNarrow-Bold&apos;" transform="matrix(.8 0 0 -.8 518.38 539.74)" fill="#231F20">B</text>
			<text font-size="7.5169" font-family="&apos;ArialNarrow-Bold&apos;" transform="matrix(.8 0 0 -.8 522.23 539.74)" fill="#231F20">A</text>
			<text font-size="7.5169" font-family="&apos;ArialNarrow-Bold&apos;" transform="matrix(.8 0 0 -.8 526.09 539.74)" fill="#231F20">R</text>
			<text font-size="7.5169" font-family="&apos;ArialNarrow-Bold&apos;" transform="matrix(0 .8 .8 0 549.55 269.41)" fill="#231F20">E</text>
			<text font-size="7.5169" font-family="&apos;ArialNarrow-Bold&apos;" transform="matrix(0 .8 .8 0 549.55 272.59)" fill="#231F20">L</text>
			<text font-size="7.5169" font-family="&apos;ArialNarrow-Bold&apos;" transform="matrix(0 .8 .8 0 549.55 275.44)" fill="#231F20">E</text>
			<text font-size="7.5169" font-family="&apos;ArialNarrow-Bold&apos;" transform="matrix(0 .8 .8 0 549.55 278.63)" fill="#231F20">V</text>
			<text font-size="7.5169" font-family="&apos;ArialNarrow-Bold&apos;" transform="matrix(0 .8 .8 0 549.55 281.71)" fill="#231F20">.</text>
			<text font-size="7.5169" font-family="&apos;ArialNarrow-Bold&apos;" transform="matrix(0 .8 .8 0 502.97 269.24)" fill="#231F20">E</text>
			<text font-size="7.5169" font-family="&apos;ArialNarrow-Bold&apos;" transform="matrix(0 .8 .8 0 502.97 272.42)" fill="#231F20">L</text>
			<text font-size="7.5169" font-family="&apos;ArialNarrow-Bold&apos;" transform="matrix(0 .8 .8 0 502.97 275.27)" fill="#231F20">E</text>
			<text font-size="7.5169" font-family="&apos;ArialNarrow-Bold&apos;" transform="matrix(0 .8 .8 0 502.97 278.46)" fill="#231F20">V</text>
			<text font-size="7.5169" font-family="&apos;ArialNarrow-Bold&apos;" transform="matrix(0 .8 .8 0 502.97 281.54)" fill="#231F20">.</text>
			<text font-size="7.5169" font-family="&apos;ArialNarrow-Bold&apos;" transform="matrix(.8 0 0 -.8 485.2 157.86)" fill="#231F20">A</text>
			<text font-size="7.5169" font-family="&apos;ArialNarrow-Bold&apos;" transform="matrix(.8 0 0 -.8 489.06 157.86)" fill="#231F20">D</text>
			<text font-size="7.5169" font-family="&apos;ArialNarrow-Bold&apos;" transform="matrix(.8 0 0 -.8 492.91 157.86)" fill="#231F20">V</text>
			<text font-size="7.5169" font-family="&apos;ArialNarrow-Bold&apos;" transform="matrix(.8 0 0 -.8 496.44 157.86)" fill="#231F20">E</text>
			<text font-size="7.5169" font-family="&apos;ArialNarrow-Bold&apos;" transform="matrix(.8 0 0 -.8 499.62 157.86)" fill="#231F20">N</text>
			<text font-size="7.5169" font-family="&apos;ArialNarrow-Bold&apos;" transform="matrix(.8 0 0 -.8 503.81 157.86)" fill="#231F20">T</text>
			<text font-size="7.5169" font-family="&apos;ArialNarrow-Bold&apos;" transform="matrix(.8 0 0 -.8 507 157.86)" fill="#231F20">U</text>
			<text font-size="7.5169" font-family="&apos;ArialNarrow-Bold&apos;" transform="matrix(.8 0 0 -.8 510.86 157.86)" fill="#231F20">R</text>
			<text font-size="7.5169" font-family="&apos;ArialNarrow-Bold&apos;" transform="matrix(.8 0 0 -.8 514.38 157.86)" fill="#231F20">E</text>
			<text font-size="7.5169" font-family="&apos;ArialNarrow-Bold&apos;" transform="matrix(.8 0 0 -.8 492.08 151.84)" fill="#231F20">O</text>
			<text font-size="7.5169" font-family="&apos;ArialNarrow-Bold&apos;" transform="matrix(.8 0 0 -.8 495.93 151.84)" fill="#231F20">C</text>
			<text font-size="7.5169" font-family="&apos;ArialNarrow-Bold&apos;" transform="matrix(.8 0 0 -.8 499.45 151.84)" fill="#231F20">E</text>
			<text font-size="7.5169" font-family="&apos;ArialNarrow-Bold&apos;" transform="matrix(.8 0 0 -.8 502.64 151.84)" fill="#231F20">A</text>
			<text font-size="7.5169" font-family="&apos;ArialNarrow-Bold&apos;" transform="matrix(.8 0 0 -.8 506.5 151.84)" fill="#231F20">N</text>
			<text font-size="7.5169" font-family="&apos;ArialNarrow-Bold&apos;" transform="matrix(.72 0 0 -.8 517.24 183.6)" fill="#231F20">V</text>
			<text font-size="7.5169" font-family="&apos;ArialNarrow-Bold&apos;" transform="matrix(.72 0 0 -.8 520.41 183.6)" fill="#231F20">I</text>
			<text font-size="7.5169" font-family="&apos;ArialNarrow-Bold&apos;" transform="matrix(.72 0 0 -.8 522.08 183.6)" fill="#231F20">D</text>
			<text font-size="7.5169" font-family="&apos;ArialNarrow-Bold&apos;" transform="matrix(.72 0 0 -.8 525.55 183.6)" fill="#231F20">E</text>
			<text font-size="7.5169" font-family="&apos;ArialNarrow-Bold&apos;" transform="matrix(.72 0 0 -.8 528.41 183.6)" fill="#231F20">O</text>
			<text font-size="7.5169" font-family="&apos;ArialNarrow-Bold&apos;" transform="matrix(.72 0 0 -.8 514.75 177.58)" fill="#231F20">A</text>
			<text font-size="7.5169" font-family="&apos;ArialNarrow-Bold&apos;" transform="matrix(.72 0 0 -.8 518.22 177.58)" fill="#231F20">R</text>
			<text font-size="7.5169" font-family="&apos;ArialNarrow-Bold&apos;" transform="matrix(.72 0 0 -.8 521.39 177.58)" fill="#231F20">C</text>
			<text font-size="7.5169" font-family="&apos;ArialNarrow-Bold&apos;" transform="matrix(.72 0 0 -.8 524.57 177.58)" fill="#231F20">A</text>
			<text font-size="7.5169" font-family="&apos;ArialNarrow-Bold&apos;" transform="matrix(.72 0 0 -.8 528.04 177.58)" fill="#231F20">D</text>
			<text font-size="7.5169" font-family="&apos;ArialNarrow-Bold&apos;" transform="matrix(.72 0 0 -.8 531.5 177.58)" fill="#231F20">E</text>
			<text font-size="7.5169" font-family="&apos;ArialNarrow-Bold&apos;" transform="matrix(.8 0 0 -.8 501.26 118.09)" fill="#231F20">F</text>
			<text font-size="7.5169" font-family="&apos;ArialNarrow-Bold&apos;" transform="matrix(.8 0 0 -.8 504.11 118.09)" fill="#231F20">U</text>
			<text font-size="7.5169" font-family="&apos;ArialNarrow-Bold&apos;" transform="matrix(.8 0 0 -.8 507.96 118.09)" fill="#231F20">E</text>
			<text font-size="7.5169" font-family="&apos;ArialNarrow-Bold&apos;" transform="matrix(.8 0 0 -.8 511.15 118.09)" fill="#231F20">L</text>
			<text font-size="7.5169" font-family="&apos;ArialNarrow-Bold&apos;" transform="matrix(.8 0 0 -.8 514 118.09)" fill="#231F20"> </text>
			<text font-size="7.5169" font-family="&apos;ArialNarrow-Bold&apos;" transform="matrix(.8 0 0 -.8 515.52 118.09)" fill="#231F20">T</text>
			<text font-size="7.5169" font-family="&apos;ArialNarrow-Bold&apos;" transform="matrix(.8 0 0 -.8 518.7 118.09)" fill="#231F20">E</text>
			<text font-size="7.5169" font-family="&apos;ArialNarrow-Bold&apos;" transform="matrix(.8 0 0 -.8 521.89 118.09)" fill="#231F20">E</text>
			<text font-size="7.5169" font-family="&apos;ArialNarrow-Bold&apos;" transform="matrix(.8 0 0 -.8 525.08 118.09)" fill="#231F20">N</text>
			<text font-size="7.5169" font-family="&apos;ArialNarrow-Bold&apos;" transform="matrix(.8 0 0 -.8 529.27 118.09)" fill="#231F20"> </text>
			<text font-size="7.5169" font-family="&apos;ArialNarrow-Bold&apos;" transform="matrix(.8 0 0 -.8 530.78 118.09)" fill="#231F20">C</text>
			<text font-size="7.5169" font-family="&apos;ArialNarrow-Bold&apos;" transform="matrix(.8 0 0 -.8 534.31 118.09)" fill="#231F20">L</text>
			<text font-size="7.5169" font-family="&apos;ArialNarrow-Bold&apos;" transform="matrix(.8 0 0 -.8 537.16 118.09)" fill="#231F20">U</text>
			<text font-size="7.5169" font-family="&apos;ArialNarrow-Bold&apos;" transform="matrix(.8 0 0 -.8 541.01 118.09)" fill="#231F20">B</text>
			<text font-size="6.9924" font-family="&apos;ArialNarrow-Bold&apos;" transform="matrix(0 .8 .8 0 552.36 184.16)" fill="#231F20">T</text>
			<text font-size="6.9924" font-family="&apos;ArialNarrow-Bold&apos;" transform="matrix(0 .8 .8 0 552.36 187.12)" fill="#231F20">H</text>
			<text font-size="6.9924" font-family="&apos;ArialNarrow-Bold&apos;" transform="matrix(0 .8 .8 0 552.36 190.71)" fill="#231F20">E</text>
			<text font-size="6.9924" font-family="&apos;ArialNarrow-Bold&apos;" transform="matrix(0 .8 .8 0 552.36 193.68)" fill="#231F20"> </text>
			<text font-size="6.9924" font-family="&apos;ArialNarrow-Bold&apos;" transform="matrix(0 .8 .8 0 552.36 195.08)" fill="#231F20">L</text>
			<text font-size="6.9924" font-family="&apos;ArialNarrow-Bold&apos;" transform="matrix(0 .8 .8 0 552.36 197.74)" fill="#231F20">I</text>
			<text font-size="6.9924" font-family="&apos;ArialNarrow-Bold&apos;" transform="matrix(0 .8 .8 0 552.36 199.46)" fill="#231F20">V</text>
			<text font-size="6.9924" font-family="&apos;ArialNarrow-Bold&apos;" transform="matrix(0 .8 .8 0 552.36 202.74)" fill="#231F20">I</text>
			<text font-size="6.9924" font-family="&apos;ArialNarrow-Bold&apos;" transform="matrix(0 .8 .8 0 552.36 204.46)" fill="#231F20">N</text>
			<text font-size="6.9924" font-family="&apos;ArialNarrow-Bold&apos;" transform="matrix(0 .8 .8 0 552.36 208.36)" fill="#231F20">G</text>
			<text font-size="6.9924" font-family="&apos;ArialNarrow-Bold&apos;" transform="matrix(0 .8 .8 0 558.38 190.41)" fill="#231F20">R</text>
			<text font-size="6.9924" font-family="&apos;ArialNarrow-Bold&apos;" transform="matrix(0 .8 .8 0 558.38 193.69)" fill="#231F20">O</text>
			<text font-size="6.9924" font-family="&apos;ArialNarrow-Bold&apos;" transform="matrix(0 .8 .8 0 558.38 197.28)" fill="#231F20">O</text>
			<text font-size="6.9924" font-family="&apos;ArialNarrow-Bold&apos;" transform="matrix(0 .8 .8 0 558.38 200.86)" fill="#231F20">M</text>
			<text font-size="7.5169" font-family="&apos;ArialNarrow-Bold&apos;" transform="matrix(0 .8 .8 0 551.95 144.71)" fill="#231F20">J</text>
			<text font-size="7.5169" font-family="&apos;ArialNarrow-Bold&apos;" transform="matrix(0 .8 .8 0 551.95 147.89)" fill="#231F20">O</text>
			<text font-size="7.5169" font-family="&apos;ArialNarrow-Bold&apos;" transform="matrix(0 .8 .8 0 551.95 151.75)" fill="#231F20">H</text>
			<text font-size="7.5169" font-family="&apos;ArialNarrow-Bold&apos;" transform="matrix(0 .8 .8 0 551.95 155.6)" fill="#231F20">N</text>
			<text font-size="7.5169" font-family="&apos;ArialNarrow-Bold&apos;" transform="matrix(0 .8 .8 0 551.95 159.8)" fill="#231F20">N</text>
			<text font-size="7.5169" font-family="&apos;ArialNarrow-Bold&apos;" transform="matrix(0 .8 .8 0 551.95 163.99)" fill="#231F20">Y</text>
			<text font-size="7.5169" font-family="&apos;ArialNarrow-Bold&apos;" transform="matrix(0 .8 .8 0 557.96 143.94)" fill="#231F20">R</text>
			<text font-size="7.5169" font-family="&apos;ArialNarrow-Bold&apos;" transform="matrix(0 .8 .8 0 557.96 147.47)" fill="#231F20">O</text>
			<text font-size="7.5169" font-family="&apos;ArialNarrow-Bold&apos;" transform="matrix(0 .8 .8 0 557.96 151.32)" fill="#231F20">C</text>
			<text font-size="7.5169" font-family="&apos;ArialNarrow-Bold&apos;" transform="matrix(0 .8 .8 0 557.96 154.85)" fill="#231F20">K</text>
			<text font-size="7.5169" font-family="&apos;ArialNarrow-Bold&apos;" transform="matrix(0 .8 .8 0 557.96 158.37)" fill="#231F20">E</text>
			<text font-size="7.5169" font-family="&apos;ArialNarrow-Bold&apos;" transform="matrix(0 .8 .8 0 557.96 161.56)" fill="#231F20">T</text>
			<text font-size="7.5169" font-family="&apos;ArialNarrow-Bold&apos;" transform="matrix(0 .8 .8 0 557.96 164.74)" fill="#231F20">S</text>
			<text font-size="7.5169" font-family="&apos;ArialNarrow-Bold&apos;" transform="matrix(0 .68 .8 0 541.45 196.07)" fill="#231F20">N</text>
			<text font-size="7.5169" font-family="&apos;ArialNarrow-Bold&apos;" transform="matrix(0 .68 .8 0 541.45 199.63)" fill="#231F20">U</text>
			<text font-size="7.5169" font-family="&apos;ArialNarrow-Bold&apos;" transform="matrix(0 .68 .8 0 541.45 202.91)" fill="#231F20">R</text>
			<text font-size="7.5169" font-family="&apos;ArialNarrow-Bold&apos;" transform="matrix(0 .68 .8 0 541.45 205.91)" fill="#231F20">S</text>
			<text font-size="7.5169" font-family="&apos;ArialNarrow-Bold&apos;" transform="matrix(0 .68 .8 0 541.45 208.9)" fill="#231F20">E</text>
			<text font-size="7.5169" font-family="&apos;ArialNarrow-Bold&apos;" transform="matrix(0 .68 .8 0 541.45 211.61)" fill="#231F20">R</text>
			<text font-size="7.5169" font-family="&apos;ArialNarrow-Bold&apos;" transform="matrix(0 .68 .8 0 541.45 214.53)" fill="#231F20">Y</text>
			<text font-size="7.5169" font-family="&apos;ArialNarrow-Bold&apos;" transform="matrix(.68 0 0 -.8 504.25 648.83)" fill="#231F20">V</text>
			<text font-size="7.5169" font-family="&apos;ArialNarrow-Bold&apos;" transform="matrix(.68 0 0 -.8 507.25 648.83)" fill="#231F20">I</text>
			<text font-size="7.5169" font-family="&apos;ArialNarrow-Bold&apos;" transform="matrix(.68 0 0 -.8 508.82 648.83)" fill="#231F20">T</text>
			<text font-size="7.5169" font-family="&apos;ArialNarrow-Bold&apos;" transform="matrix(.68 0 0 -.8 511.22 648.83)" fill="#231F20">A</text>
			<text font-size="7.5169" font-family="&apos;ArialNarrow-Bold&apos;" transform="matrix(.68 0 0 -.8 514.5 648.83)" fill="#231F20">L</text>
			<text font-size="7.5169" font-family="&apos;ArialNarrow-Bold&apos;" transform="matrix(.68 0 0 -.8 516.92 648.83)" fill="#231F20">I</text>
			<text font-size="7.5169" font-family="&apos;ArialNarrow-Bold&apos;" transform="matrix(.68 0 0 -.8 518.5 648.83)" fill="#231F20">T</text>
			<text font-size="7.5169" font-family="&apos;ArialNarrow-Bold&apos;" transform="matrix(.68 0 0 -.8 521.21 648.83)" fill="#231F20">Y</text>
			<text font-size="7.5169" font-family="&apos;ArialNarrow-Bold&apos;" transform="matrix(.68 0 0 -.8 524.2 648.83)" fill="#231F20"> </text>
			<text font-size="7.5169" font-family="&apos;ArialNarrow-Bold&apos;" transform="matrix(.68 0 0 -.8 525.49 648.83)" fill="#231F20">A</text>
			<text font-size="7.5169" font-family="&apos;ArialNarrow-Bold&apos;" transform="matrix(.68 0 0 -.8 528.46 648.83)" fill="#231F20">T</text>
			<text font-size="7.5169" font-family="&apos;ArialNarrow-Bold&apos;" transform="matrix(.68 0 0 -.8 531.17 648.83)" fill="#231F20"> </text>
			<text font-size="7.5169" font-family="&apos;ArialNarrow-Bold&apos;" transform="matrix(.68 0 0 -.8 532.46 648.83)" fill="#231F20">S</text>
			<text font-size="7.5169" font-family="&apos;ArialNarrow-Bold&apos;" transform="matrix(.68 0 0 -.8 535.45 648.83)" fill="#231F20">E</text>
			<text font-size="7.5169" font-family="&apos;ArialNarrow-Bold&apos;" transform="matrix(.68 0 0 -.8 538.16 648.83)" fill="#231F20">A</text>
			<text font-size="7.5169" font-family="&apos;ArialNarrow-Bold&apos;" transform="matrix(.68 0 0 -.8 541.44 648.83)" fill="#231F20"> </text>
			<text font-size="7.5169" font-family="&apos;ArialNarrow-Bold&apos;" transform="matrix(.68 0 0 -.8 493.67 642.81)" fill="#231F20">S</text>
			<text font-size="7.5169" font-family="&apos;ArialNarrow-Bold&apos;" transform="matrix(.68 0 0 -.8 496.66 642.81)" fill="#231F20">P</text>
			<text font-size="7.5169" font-family="&apos;ArialNarrow-Bold&apos;" transform="matrix(.68 0 0 -.8 499.4 642.81)" fill="#231F20">A</text>
			<text font-size="7.5169" font-family="&apos;ArialNarrow-Bold&apos;" transform="matrix(.68 0 0 -.8 502.68 642.81)" fill="#231F20"> </text>
			<text font-size="7.5169" font-family="&apos;ArialNarrow-Bold&apos;" transform="matrix(.68 0 0 -.8 503.97 642.81)" fill="#231F20">A</text>
			<text font-size="7.5169" font-family="&apos;ArialNarrow-Bold&apos;" transform="matrix(.68 0 0 -.8 507.24 642.81)" fill="#231F20">N</text>
			<text font-size="7.5169" font-family="&apos;ArialNarrow-Bold&apos;" transform="matrix(.68 0 0 -.8 510.8 642.81)" fill="#231F20">D</text>
			<text font-size="7.5169" font-family="&apos;ArialNarrow-Bold&apos;" transform="matrix(.68 0 0 -.8 514.08 642.81)" fill="#231F20"> </text>
			<text font-size="7.5169" font-family="&apos;ArialNarrow-Bold&apos;" transform="matrix(.68 0 0 -.8 515.37 642.81)" fill="#231F20">F</text>
			<text font-size="7.5169" font-family="&apos;ArialNarrow-Bold&apos;" transform="matrix(.68 0 0 -.8 517.79 642.81)" fill="#231F20">I</text>
			<text font-size="7.5169" font-family="&apos;ArialNarrow-Bold&apos;" transform="matrix(.68 0 0 -.8 519.37 642.81)" fill="#231F20">T</text>
			<text font-size="7.5169" font-family="&apos;ArialNarrow-Bold&apos;" transform="matrix(.68 0 0 -.8 522.08 642.81)" fill="#231F20">N</text>
			<text font-size="7.5169" font-family="&apos;ArialNarrow-Bold&apos;" transform="matrix(.68 0 0 -.8 525.64 642.81)" fill="#231F20">E</text>
			<text font-size="7.5169" font-family="&apos;ArialNarrow-Bold&apos;" transform="matrix(.68 0 0 -.8 528.35 642.81)" fill="#231F20">S</text>
			<text font-size="7.5169" font-family="&apos;ArialNarrow-Bold&apos;" transform="matrix(.68 0 0 -.8 531.34 642.81)" fill="#231F20">S</text>
			<text font-size="7.5169" font-family="&apos;ArialNarrow-Bold&apos;" transform="matrix(.68 0 0 -.8 534.34 642.81)" fill="#231F20"> </text>
			<text font-size="7.5169" font-family="&apos;ArialNarrow-Bold&apos;" transform="matrix(.68 0 0 -.8 535.62 642.81)" fill="#231F20">C</text>
			<text font-size="7.5169" font-family="&apos;ArialNarrow-Bold&apos;" transform="matrix(.68 0 0 -.8 538.62 642.81)" fill="#231F20">E</text>
			<text font-size="7.5169" font-family="&apos;ArialNarrow-Bold&apos;" transform="matrix(.68 0 0 -.8 541.33 642.81)" fill="#231F20">N</text>
			<text font-size="7.5169" font-family="&apos;ArialNarrow-Bold&apos;" transform="matrix(.68 0 0 -.8 544.89 642.81)" fill="#231F20">T</text>
			<text font-size="7.5169" font-family="&apos;ArialNarrow-Bold&apos;" transform="matrix(.68 0 0 -.8 547.6 642.81)" fill="#231F20">E</text>
			<text font-size="7.5169" font-family="&apos;ArialNarrow-Bold&apos;" transform="matrix(.68 0 0 -.8 550.31 642.81)" fill="#231F20">R</text>
			<g id="g16082">
					<g id="g16084">
						<g id="g16098" transform="translate(554.46 269.85)">
							<path id="path16100" d="m0 0.133l-0.289 2.814h-0.768l0.548 2.2h-0.548l0.548 1.647h0.62c-0.32 0.13-0.549 0.45-0.549 0.817 0 0.492 0.4 0.9 0.889 0.9 0.498 0 0.887-0.408 0.887-0.9 0-0.367-0.219-0.688-0.548-0.817h0.618l0.55-1.647h-0.55l0.55-2.2h-0.769l-0.29-2.814h-0.899" fill="#231F20"/>
						</g>
						<g id="g16102" transform="translate(494.16 276.49)">
							<path id="path16104" d="m0 0.134h-0.341c0.326 0.136 0.554 0.459 0.554 0.829 0 0.501-0.402 0.904-0.901 0.904s-0.902-0.404-0.902-0.905c0-0.37 0.229-0.693 0.555-0.829h-0.354c-0.458 0-0.832-0.373-0.832-0.831v-2.082c0-0.58 0.327-0.823 0.804-0.916v-2.898h1.456v2.899c0.474 0.098 0.792 0.34 0.792 0.916v2.082c0 0.458-0.371 0.831-0.831 0.831" fill="#231F20"/>
						</g>
					</g>
			</g>
		</g>
</svg>
