<?xml version="1.0" encoding="UTF-8" standalone="no"?>
<!-- Generator: Adobe Illustrator 16.0.4, SVG Export Plug-In . SVG Version: 6.00 Build 0)  -->
<!DOCTYPE svg  PUBLIC '-//W3C//DTD SVG 1.1//EN'  'http://www.w3.org/Graphics/SVG/1.1/DTD/svg11.dtd'>
<svg id="svg2" xmlns:rdf="http://www.w3.org/1999/02/22-rdf-syntax-ns#" xmlns="http://www.w3.org/2000/svg" enable-background="new 578.125 137.75 141 225.125" xml:space="preserve" height="225.12px" viewBox="578.125 137.75 141 225.125" width="141px" version="1.1" y="0px" x="0px" xmlns:cc="http://creativecommons.org/ns#" xmlns:xlink="http://www.w3.org/1999/xlink" xmlns:dc="http://purl.org/dc/elements/1.1/">
		<g id="g10" transform="matrix(1.25,0,0,-1.25,0,990)">
			<g id="g12930">
					<g id="g12932">
						<g id="g13468" transform="translate(518.68 681.28)">
							<path id="path13470" d="m0 0l-3.149-0.166-0.162-0.008-0.163-0.022-3.147-0.414-0.275-0.036-0.268-0.073-3.066-0.828-0.131-0.035-0.131-0.045-3.147-1.077-0.172-0.06-0.163-0.071-3.565-1.576-0.143-0.064-0.139-0.074-3.401-1.823-0.102-0.055-0.097-0.058-3.397-2.073-0.095-0.057-0.091-0.06-3.148-2.157-0.112-0.076-0.106-0.082-3.066-2.403-0.122-0.096-0.113-0.105-2.82-2.57-0.069-0.063-0.067-0.067-2.736-2.737-0.066-0.064-0.062-0.069-2.652-2.9-0.107-0.116-0.097-0.125-2.404-3.067-0.103-0.133-0.095-0.141-2.735-4.144-0.085-0.13-0.077-0.134-2.403-4.311-0.075-0.136-0.066-0.143-2.071-4.475-0.066-0.141-0.054-0.144-1.743-4.643-0.065-0.175-0.048-0.177-1.326-4.808-0.037-0.13-0.027-0.132-0.995-4.808-0.036-0.179-0.024-0.18-0.58-4.975-0.015-0.135-0.007-0.139-0.248-4.974-0.008-0.183 0.007-0.185 0.163-4.226 0.006-0.127 0.012-0.123 0.413-4.146 0.014-0.121 0.018-0.122 0.664-4.144 0.019-0.127 0.03-0.126 0.911-4.062 0.038-0.167 0.052-0.161 1.244-3.98 0.041-0.128 0.048-0.128 1.407-3.647 0.036-0.092 0.041-0.091 1.048-2.372-0.994-5.106-0.016-0.077-0.011-0.078-0.997-6.383-0.02-0.134-0.01-0.133-0.581-6.466-0.011-0.132-0.004-0.131s-0.167-6.465-0.167-6.573v-60.617l10.028 2.864v38.96l0.147 2.099 0.269 1.821 0.462 1.649 0.622 1.653 0.736 1.541 0.862 1.392 0.991 1.323c0.362 0.383 1.23 1.303 1.166 1.234l1.2 1.202 1.275 0.956 1.467 0.907 3.819 2.027 3.958 1.786 4.138 1.483 4.145 1.251 4.212 0.936 4.291 0.703 4.38 0.39 4.385 0.158 4.382-0.158 4.382-0.39 4.293-0.703 4.21-0.936 4.145-1.251 4.137-1.483 3.958-1.786 3.823-2.027 1.464-0.907 1.325-0.993 1.187-1.121 1.093-1.229 1.03-1.372 0.861-1.392 0.735-1.541 0.621-1.653 0.463-1.649 0.27-1.821 0.145-2.099v-38.96l10.03-2.864s0 60.617-0.002 60.725l-0.166 6.465-0.005 0.131-0.011 0.132-0.581 6.466-0.01 0.133-0.02 0.134-0.997 6.383-0.007 0.087-0.016 0.077-0.995 5.106 1.049 2.372 0.04 0.091 0.036 0.092 1.41 3.647 0.047 0.128 0.043 0.128 1.243 3.98 0.049 0.161 0.039 0.167 0.911 4.062 0.029 0.126 0.02 0.127 0.663 4.144 0.018 0.122 0.014 0.121 0.413 4.146 0.013 0.123 0.004 0.125 0.166 4.228 0.005 0.15-0.005 0.151-0.166 4.974-0.005 0.206-0.027 0.204-0.664 4.971-0.015 0.114-0.02 0.112-0.913 4.808-0.038 0.2-0.057 0.194-1.408 4.807-0.042 0.146-0.054 0.143-1.741 4.643-0.055 0.144-0.066 0.141-2.073 4.475-0.066 0.143-0.075 0.136-2.403 4.311-0.077 0.134-0.084 0.13-2.735 4.144-0.095 0.141-0.103 0.133-2.402 3.067-0.077 0.098-0.084 0.092-2.568 2.902-0.086 0.094-0.088 0.088-2.736 2.737-0.089 0.088-0.093 0.083-2.901 2.57-0.092 0.082-0.098 0.078-3.067 2.403-0.106 0.082-0.111 0.076-3.15 2.157-0.07 0.048-0.073 0.045-3.316 2.072-0.133 0.084-0.139 0.073-3.481 1.824-0.123 0.063-0.126 0.055-3.564 1.576-0.164 0.071-0.17 0.06-3.149 1.077-0.127 0.045-0.134 0.035-3.067 0.828-0.268 0.073-0.272 0.036-3.151 0.414-0.162 0.022-0.161 0.008-3.149 0.166-0.217 0.012-0.219-0.012z" fill="#fff"/>
						</g>
						<g id="g13472" transform="translate(518.68 681.28)">
								<path id="path13474" stroke-linejoin="round" d="m0 0l-3.149-0.166-0.162-0.008-0.163-0.022-3.147-0.414-0.275-0.036-0.268-0.073-3.066-0.828-0.131-0.035-0.131-0.045-3.147-1.077-0.172-0.06-0.163-0.071-3.565-1.576-0.143-0.064-0.139-0.074-3.401-1.823-0.102-0.055-0.097-0.058-3.397-2.073-0.095-0.057-0.091-0.06-3.148-2.157-0.112-0.076-0.106-0.082-3.066-2.403-0.122-0.096-0.113-0.105-2.82-2.57-0.069-0.063-0.067-0.067-2.736-2.737-0.066-0.064-0.062-0.069-2.652-2.9-0.107-0.116-0.097-0.125-2.404-3.067-0.103-0.133-0.095-0.141-2.735-4.144-0.085-0.13-0.077-0.134-2.403-4.311-0.075-0.136-0.066-0.143-2.071-4.475-0.066-0.141-0.054-0.144-1.743-4.643-0.065-0.175-0.048-0.177-1.326-4.808-0.037-0.13-0.027-0.132-0.995-4.808-0.036-0.179-0.024-0.18-0.58-4.975-0.015-0.135-0.007-0.139-0.248-4.974-0.008-0.183 0.007-0.185 0.163-4.226 0.006-0.127 0.012-0.123 0.413-4.146 0.014-0.121 0.018-0.122 0.664-4.144 0.019-0.127 0.03-0.126 0.911-4.062 0.038-0.167 0.052-0.161 1.244-3.98 0.041-0.128 0.048-0.128 1.407-3.647 0.036-0.092 0.041-0.091 1.048-2.372-0.994-5.106-0.016-0.077-0.011-0.078-0.997-6.383-0.02-0.134-0.01-0.133-0.581-6.466-0.011-0.132-0.004-0.131s-0.167-6.465-0.167-6.573v-60.617l10.028 2.864v38.96l0.147 2.099 0.269 1.821 0.462 1.649 0.622 1.653 0.736 1.541 0.862 1.392 0.991 1.323c0.362 0.383 1.23 1.303 1.166 1.234l1.2 1.202 1.275 0.956 1.467 0.907 3.819 2.027 3.958 1.786 4.138 1.483 4.145 1.251 4.212 0.936 4.291 0.703 4.38 0.39 4.385 0.158 4.382-0.158 4.382-0.39 4.293-0.703 4.21-0.936 4.145-1.251 4.137-1.483 3.958-1.786 3.823-2.027 1.464-0.907 1.325-0.993 1.187-1.121 1.093-1.229 1.03-1.372 0.861-1.392 0.735-1.541 0.621-1.653 0.463-1.649 0.27-1.821 0.145-2.099v-38.96l10.03-2.864s0 60.617-0.002 60.725l-0.166 6.465-0.005 0.131-0.011 0.132-0.581 6.466-0.01 0.133-0.02 0.134-0.997 6.383-0.007 0.087-0.016 0.077-0.995 5.106 1.049 2.372 0.04 0.091 0.036 0.092 1.41 3.647 0.047 0.128 0.043 0.128 1.243 3.98 0.049 0.161 0.039 0.167 0.911 4.062 0.029 0.126 0.02 0.127 0.663 4.144 0.018 0.122 0.014 0.121 0.413 4.146 0.013 0.123 0.004 0.125 0.166 4.228 0.005 0.15-0.005 0.151-0.166 4.974-0.005 0.206-0.027 0.204-0.664 4.971-0.015 0.114-0.02 0.112-0.913 4.808-0.038 0.2-0.057 0.194-1.408 4.807-0.042 0.146-0.054 0.143-1.741 4.643-0.055 0.144-0.066 0.141-2.073 4.475-0.066 0.143-0.075 0.136-2.403 4.311-0.077 0.134-0.084 0.13-2.735 4.144-0.095 0.141-0.103 0.133-2.402 3.067-0.077 0.098-0.084 0.092-2.568 2.902-0.086 0.094-0.088 0.088-2.736 2.737-0.089 0.088-0.093 0.083-2.901 2.57-0.092 0.082-0.098 0.078-3.067 2.403-0.106 0.082-0.111 0.076-3.15 2.157-0.07 0.048-0.073 0.045-3.316 2.072-0.133 0.084-0.139 0.073-3.481 1.824-0.123 0.063-0.126 0.055-3.564 1.576-0.164 0.071-0.17 0.06-3.149 1.077-0.127 0.045-0.134 0.035-3.067 0.828-0.268 0.073-0.272 0.036-3.151 0.414-0.162 0.022-0.161 0.008-3.149 0.166-0.217 0.012-0.219-0.012z" stroke="#918F90" stroke-width=".837" fill="none"/>
						</g>
						<g id="g13476" transform="translate(524.85 621.36)">
							<path id="path13478" d="m0 0v-7.149h-3.465v-2.558h15.583v12.114c-6.498-2.043-10.236-2.361-12.118-2.407" fill="#fff"/>
						</g>
						<g id="g13480" transform="translate(524.85 621.36)">
							<path id="path13482" d="m0 0v-7.149h-3.465v-2.558h15.583v12.114c-6.498-2.043-10.236-2.361-12.118-2.407zm-33.471 1.649h-2.321l-0.997-6.879v-20.392" stroke="#918F90" stroke-width=".418" fill="none"/>
						</g>
						<g id="g13484" transform="translate(508.95 653.35)">
							<path id="path13486" d="m0 0l2.157-1.74 1.823-2.321 1.161-2.569 0.58-3.151-0.083-2.569-0.83-2.735-1.411-2.569-1.987-2.155h-4.462v19.809h3.052z" fill="#fff"/>
						</g>
						<g id="g13488" transform="translate(508.95 653.35)">
							<path id="path13490" d="m0 0l2.157-1.74 1.823-2.321 1.161-2.569 0.58-3.151-0.083-2.569-0.83-2.735-1.411-2.569-1.987-2.155h-4.462v19.809h3.052zm6.798 23.625l-3.151-0.415-3.066-0.829-3.151-1.077-3.564-1.574-3.397-1.826-3.4-2.072-3.15-2.155-3.067-2.404-2.818-2.57-2.734-2.734-2.655-2.901-2.402-3.068-2.738-4.144-2.403-4.31-2.073-4.475-1.741-4.643-1.323-4.808-0.997-4.808-0.58-4.973-0.247-4.974 0.163-4.226 0.416-4.145 0.662-4.146 0.913-4.062 1.244-3.977 1.41-3.648 1.574-3.564-1.245-6.382-0.994-6.384-0.58-6.466-0.166-6.465v-18.65h1.739l0.167 2.404 0.331 2.237 0.579 2.073 0.748 1.99 0.912 1.906 1.077 1.741 1.243 1.657 1.411 1.491 1.409 1.411 1.659 1.242 1.74 1.079 4.061 2.155 4.227 1.905 4.394 1.576 4.395 1.327 4.475 0.993 4.559 0.747 4.641 0.415 4.643 0.166 4.641-0.166 4.644-0.415 4.558-0.747 4.475-0.993 4.394-1.327 4.393-1.576 4.228-1.905 4.063-2.155 1.74-1.079 1.657-1.242 1.491-1.411 1.328-1.491 1.242-1.657 1.079-1.741 0.911-1.906 0.747-1.99 0.581-2.073 0.33-2.237 0.166-2.404h1.74v18.65l-0.166 6.465-0.58 6.466-0.994 6.384-1.245 6.382 1.577 3.564 1.407 3.648 1.244 3.977 0.912 4.062 0.662 4.146 0.416 4.145 0.166 4.226-0.166 4.974-0.663 4.973-0.91 4.808-1.409 4.808-1.741 4.643-2.074 4.475-2.403 4.31-2.736 4.144-2.405 3.068-2.568 2.901-2.737 2.734-2.902 2.57-3.066 2.404-3.15 2.155-3.317 2.072-3.481 1.826-3.564 1.574-3.15 1.077-3.067 0.829-3.148 0.415-3.15 0.166-3.15-0.166z" stroke="#918F90" stroke-width=".837" fill="none"/>
						</g>
						<g id="g13492" transform="translate(520.55 621.13)">
							<path id="path13494" d="m0 0c-5.464 0.108-8.968 0.848-12.82 1.959h-1.023v-11.432h10.071v3.481h0.704v2.713h3.068v3.279z" fill="#fff"/>
						</g>
						<g id="g13496" transform="translate(520.55 621.13)">
							<path id="path13498" d="m0 0c-5.464 0.108-8.968 0.848-12.82 1.959h-1.023v-11.432h10.071v3.481h0.704v2.713h3.068v3.279z" stroke="#918F90" stroke-width=".418" fill="none"/>
						</g>
						<path id="path13500" d="m496.02 653.14h-5.884v-17.109h5.884v17.11z" stroke="#918F90" stroke-width=".418" fill="#fff"/>
						<path id="path13502" d="m539.45 615.03h3.148v1.138h-3.148v-1.14z" stroke="#918F90" stroke-width=".418" fill="#fff"/>
						<path id="path13504" d="m539.45 616.17h3.148v1.138h-3.148v-1.14z" stroke="#918F90" stroke-width=".418" fill="#fff"/>
						<path id="path13506" d="m539.45 617.31h3.148v1.136h-3.148v-1.14z" stroke="#918F90" stroke-width=".418" fill="#fff"/>
						<path id="path13508" d="m539.45 618.44h3.148v1.137h-3.148v-1.14z" stroke="#918F90" stroke-width=".418" fill="#fff"/>
						<path id="path13510" d="m539.45 619.58h3.148v1.14h-3.148v-1.14z" stroke="#918F90" stroke-width=".418" fill="#fff"/>
						<path id="path13512" d="m539.45 620.72h3.148v1.137h-3.148v-1.14z" stroke="#918F90" stroke-width=".418" fill="#fff"/>
						<path id="path13514" d="m539.45 621.86h3.148v1.136h-3.148v-1.14z" stroke="#918F90" stroke-width=".418" fill="#fff"/>
						<path id="path13516" d="m538.32 611.66h1.139v3.38h-1.139v-3.38z" stroke="#918F90" stroke-width=".418" fill="#fff"/>
						<path id="path13518" d="m537.19 611.66h1.137v3.38h-1.137v-3.38z" stroke="#918F90" stroke-width=".418" fill="#fff"/>
						<path id="path13520" d="m542.6 615.03h-3.139v-3.372h3.139v3.37z" stroke="#918F90" stroke-width=".418" fill="#fff"/>
						<path id="path13522" d="m543.35 617.88h3.145v1.137h-3.145v-1.14z" stroke="#918F90" stroke-width=".418" fill="#fff"/>
						<path id="path13524" d="m543.35 616.75h3.145v1.137h-3.145v-1.14z" stroke="#918F90" stroke-width=".418" fill="#fff"/>
						<path id="path13526" d="m543.35 619.02h3.145v1.14h-3.145v-1.14z" stroke="#918F90" stroke-width=".418" fill="#fff"/>
						<path id="path13528" d="m543.35 620.16h3.145v1.135h-3.145v-1.14z" stroke="#918F90" stroke-width=".418" fill="#fff"/>
						<path id="path13530" d="m543.35 621.3h3.145v1.138h-3.145v-1.14z" stroke="#918F90" stroke-width=".418" fill="#fff"/>
						<path id="path13532" d="m498.84 615.03h-3.148v1.138h3.148v-1.14z" stroke="#918F90" stroke-width=".418" fill="#fff"/>
						<path id="path13534" d="m498.84 616.17h-3.148v1.138h3.148v-1.14z" stroke="#918F90" stroke-width=".418" fill="#fff"/>
						<path id="path13536" d="m498.84 617.31h-3.148v1.136h3.148v-1.14z" stroke="#918F90" stroke-width=".418" fill="#fff"/>
						<path id="path13538" d="m498.84 618.44h-3.148v1.137h3.148v-1.14z" stroke="#918F90" stroke-width=".418" fill="#fff"/>
						<path id="path13540" d="m498.84 619.58h-3.148v1.14h3.148v-1.14z" stroke="#918F90" stroke-width=".418" fill="#fff"/>
						<path id="path13542" d="m498.84 620.72h-3.148v1.137h3.148v-1.14z" stroke="#918F90" stroke-width=".418" fill="#fff"/>
						<path id="path13544" d="m498.84 621.86h-3.148v1.136h3.148v-1.14z" stroke="#918F90" stroke-width=".418" fill="#fff"/>
						<path id="path13546" d="m499.96 611.66h-1.137v3.38h1.137v-3.38z" stroke="#918F90" stroke-width=".418" fill="#fff"/>
						<path id="path13548" d="m501.1 611.66h-1.138v3.38h1.138v-3.38z" stroke="#918F90" stroke-width=".418" fill="#fff"/>
						<path id="path13550" d="m495.69 615.03h3.139v-3.372h-3.139v3.37z" stroke="#918F90" stroke-width=".418" fill="#fff"/>
						<path id="path13552" d="m494.94 617.88h-3.145v1.137h3.145v-1.14z" stroke="#918F90" stroke-width=".418" fill="#fff"/>
						<path id="path13554" d="m494.94 616.75h-3.145v1.137h3.145v-1.14z" stroke="#918F90" stroke-width=".418" fill="#fff"/>
						<path id="path13556" d="m494.94 619.02h-3.145v1.14h3.145v-1.14z" stroke="#918F90" stroke-width=".418" fill="#fff"/>
						<path id="path13558" d="m494.94 620.16h-3.145v1.135h3.145v-1.14z" stroke="#918F90" stroke-width=".418" fill="#fff"/>
						<path id="path13560" d="m494.94 621.3h-3.145v1.138h3.145v-1.14z" fill="#fff"/>
						<path id="path13562" d="m494.94 621.3h-3.145v1.138h3.145v-1.14zm-24.33-25.56l22.59-0.012v-6.989c0-4.511 6.373-9.701 9.515-9.16 0 0 6.379 1.101 12.698 1.485v2.74h6.964v-2.691c6.327-0.323 12.363-1.483 12.363-1.483 5.381-0.779 9.934 6.125 9.934 9.343v6.685h22.629m-61.33 39.07h3.247c1.453 0 2.631 1.62 2.631 3.623 0 2.001-1.178 3.625-2.631 3.625h-3.247v-7.25zm0 9.36h3.247c1.453 0 2.631 1.624 2.631 3.625s-1.178 3.625-2.631 3.625h-3.247v-7.25zh3.247c1.453 0 2.631 1.624 2.631 3.625s-1.178 3.625-2.631 3.625h-3.247v-7.25zm38.7-48.43l3.73 14.424v16.246l4.891 1.657 1.327 2.486-1.077 0.665s1.505 2.759-0.414 5.635m-6.55 2.48l0.084-0.58-0.005-0.063c0.457 0.125 0.927 0.215 1.424 0.215 1.738 0 3.267-0.845 4.241-2.133l6.941 3.225-0.912 1.905-11.77-2.58z" stroke="#918F90" stroke-width=".418" fill="none"/>
						<g id="g13564" transform="translate(489.3 567.97)">
							<path id="path13566" d="m0 0c-2.269 1.956-8.78 7.805-12.517 14.009l-3.102-2.411c-0.291-1.869-0.741-4.115-0.73-4.045 0 0-0.58-6.464-0.575-6.353 0 0-0.165-6.467-0.165-6.423v-5.885c1.191 0.986 9.796 8.875 17.089 11.108" fill="#fff"/>
						</g>
						<g id="g13568" transform="translate(489.3 567.97)">
								<path id="path13570" stroke-linejoin="round" d="m0 0c-2.269 1.956-8.78 7.805-12.517 14.009l-3.102-2.411c-0.291-1.869-0.741-4.115-0.73-4.045 0 0-0.58-6.464-0.575-6.353 0 0-0.165-6.467-0.165-6.423v-5.885c1.191 0.986 9.796 8.875 17.089 11.108z" stroke="#918F90" stroke-width=".837" fill="none"/>
						</g>
						<g id="g13572" transform="translate(481.58 569.76)">
							<path id="path13574" d="m0 0c-3.035 2.916-5.693 6.215-7.898 9.816l3.103 2.411c2.181-3.52 4.796-6.748 7.78-9.606l-2.985-2.621z" fill="#fff"/>
						</g>
						<g id="g13576" transform="translate(481.58 569.76)">
								<path id="path13578" stroke-linejoin="round" d="m0 0c-3.035 2.916-5.693 6.215-7.898 9.816l3.103 2.411c2.181-3.52 4.796-6.748 7.78-9.606l-2.985-2.621z" stroke="#918F90" stroke-width=".418" fill="none"/>
						</g>
						<g id="g13580" transform="translate(480.74 570.6)">
							<path id="path13582" d="m0 0l3.073 2.446m-3.827-1.569l3.074 2.444m-3.838-1.608l3.073 2.445m-3.831-1.597l3.073 2.446m-5.187 0.197l3.072 2.443m-3.824-1.569l3.071 2.446m-3.715-1.501l3.072 2.445m-3.711-1.488l3.073 2.446" stroke="#918F90" stroke-width=".418" fill="none"/>
						</g>
						<g id="g13584" transform="translate(548.49 567.97)">
							<path id="path13586" d="m0 0c2.271 1.956 8.78 7.805 12.518 14.009l3.101-2.411c0.291-1.869 0.74-4.115 0.732-4.045 0 0 0.58-6.464 0.574-6.353 0 0 0.166-6.467 0.164-6.423v-5.885c-1.192 0.986-9.797 8.875-17.089 11.108" fill="#fff"/>
						</g>
						<g id="g13588" transform="translate(548.49 567.97)">
								<path id="path13590" stroke-linejoin="round" d="m0 0c2.271 1.956 8.78 7.805 12.518 14.009l3.101-2.411c0.291-1.869 0.74-4.115 0.732-4.045 0 0 0.58-6.464 0.574-6.353 0 0 0.166-6.467 0.164-6.423v-5.885c-1.192 0.986-9.797 8.875-17.089 11.108z" stroke="#918F90" stroke-width=".837" fill="none"/>
						</g>
						<g id="g13592" transform="translate(556.21 569.76)">
							<path id="path13594" d="m0 0c3.038 2.916 5.694 6.215 7.898 9.816l-3.102 2.411c-2.18-3.52-4.798-6.748-7.78-9.606l2.984-2.621z" fill="#fff"/>
						</g>
						<g id="g13596" transform="translate(556.21 569.76)">
								<path id="path13598" stroke-linejoin="round" d="m0 0c3.038 2.916 5.694 6.215 7.898 9.816l-3.102 2.411c-2.18-3.52-4.798-6.748-7.78-9.606l2.984-2.621z" stroke="#918F90" stroke-width=".418" fill="none"/>
						</g>
						<g id="g13600" transform="translate(557.05 570.6)">
							<path id="path13602" d="m0 0l-3.074 2.446m3.827-1.569l-3.073 2.444m3.838-1.608l-3.072 2.445m3.829-1.597l-3.072 2.446m5.186 0.197l-3.072 2.443m3.825-1.569l-3.072 2.446m3.716-1.501l-3.072 2.445m3.71-1.488l-3.073 2.446m-92.651 43.025l21.083-2.518m-0.806 41.214l7.988-9.607" stroke="#918F90" stroke-width=".418" fill="none"/>
						</g>
					</g>
			</g>
			<text font-size="7.5169" font-family="&apos;ArialNarrow-Bold&apos;" transform="matrix(0 .8 .8 0 495.54 637.85)" fill="#231F20">E</text>
			<text font-size="7.5169" font-family="&apos;ArialNarrow-Bold&apos;" transform="matrix(0 .8 .8 0 495.54 641.03)" fill="#231F20">L</text>
			<text font-size="7.5169" font-family="&apos;ArialNarrow-Bold&apos;" transform="matrix(0 .8 .8 0 495.54 643.89)" fill="#231F20">E</text>
			<text font-size="7.5169" font-family="&apos;ArialNarrow-Bold&apos;" transform="matrix(0 .8 .8 0 495.54 647.07)" fill="#231F20">V</text>
			<text font-size="7.5169" font-family="&apos;ArialNarrow-Bold&apos;" transform="matrix(0 .8 .8 0 495.54 650.15)" fill="#231F20">.</text>
			<text font-size="7.5169" font-family="&apos;ArialNarrow-Bold&apos;" transform="matrix(.8 0 0 -.8 521.15 650.58)" fill="#231F20">O</text>
			<text font-size="7.5169" font-family="&apos;ArialNarrow-Bold&apos;" transform="matrix(.8 0 0 -.8 525.01 650.58)" fill="#231F20">L</text>
			<text font-size="7.5169" font-family="&apos;ArialNarrow-Bold&apos;" transform="matrix(.8 0 0 -.8 527.86 650.58)" fill="#231F20">I</text>
			<text font-size="7.5169" font-family="&apos;ArialNarrow-Bold&apos;" transform="matrix(.8 0 0 -.8 529.71 650.58)" fill="#231F20">V</text>
			<text font-size="7.5169" font-family="&apos;ArialNarrow-Bold&apos;" transform="matrix(.8 0 0 -.8 533.23 650.58)" fill="#231F20">E</text>
			<text font-size="7.5169" font-family="&apos;ArialNarrow-Bold&apos;" transform="matrix(.8 0 0 -.8 536.42 650.58)" fill="#231F20"> </text>
			<text font-size="7.5169" font-family="&apos;ArialNarrow-Bold&apos;" transform="matrix(.8 0 0 -.8 537.94 650.58)" fill="#231F20">O</text>
			<text font-size="7.5169" font-family="&apos;ArialNarrow-Bold&apos;" transform="matrix(.8 0 0 -.8 541.79 650.58)" fill="#231F20">R</text>
			<text font-size="7.5169" font-family="&apos;ArialNarrow-Bold&apos;" transform="matrix(.8 0 0 -.8 524.6 644.56)" fill="#231F20">T</text>
			<text font-size="7.5169" font-family="&apos;ArialNarrow-Bold&apos;" transform="matrix(.8 0 0 -.8 527.78 644.56)" fill="#231F20">W</text>
			<text font-size="7.5169" font-family="&apos;ArialNarrow-Bold&apos;" transform="matrix(.8 0 0 -.8 533.31 644.56)" fill="#231F20">I</text>
			<text font-size="7.5169" font-family="&apos;ArialNarrow-Bold&apos;" transform="matrix(.8 0 0 -.8 535.16 644.56)" fill="#231F20">S</text>
			<text font-size="7.5169" font-family="&apos;ArialNarrow-Bold&apos;" transform="matrix(.8 0 0 -.8 538.69 644.56)" fill="#231F20">T</text>
			<text font-size="7.5169" font-family="&apos;ArialNarrow-Bold&apos;" transform="matrix(.8 0 0 -.8 498.3 598.93)" fill="#231F20">V</text>
			<text font-size="7.5169" font-family="&apos;ArialNarrow-Bold&apos;" transform="matrix(.8 0 0 -.8 501.82 598.93)" fill="#231F20">I</text>
			<text font-size="7.5169" font-family="&apos;ArialNarrow-Bold&apos;" transform="matrix(.8 0 0 -.8 503.68 598.93)" fill="#231F20">K</text>
			<text font-size="7.5169" font-family="&apos;ArialNarrow-Bold&apos;" transform="matrix(.8 0 0 -.8 507.2 598.93)" fill="#231F20">I</text>
			<text font-size="7.5169" font-family="&apos;ArialNarrow-Bold&apos;" transform="matrix(.8 0 0 -.8 509.05 598.93)" fill="#231F20">N</text>
			<text font-size="7.5169" font-family="&apos;ArialNarrow-Bold&apos;" transform="matrix(.8 0 0 -.8 513.24 598.93)" fill="#231F20">G</text>
			<text font-size="7.5169" font-family="&apos;ArialNarrow-Bold&apos;" transform="matrix(.8 0 0 -.8 517.1 598.93)" fill="#231F20"> </text>
			<text font-size="7.5169" font-family="&apos;ArialNarrow-Bold&apos;" transform="matrix(.8 0 0 -.8 518.61 598.93)" fill="#231F20">C</text>
			<text font-size="7.5169" font-family="&apos;ArialNarrow-Bold&apos;" transform="matrix(.8 0 0 -.8 522.14 598.93)" fill="#231F20">R</text>
			<text font-size="7.5169" font-family="&apos;ArialNarrow-Bold&apos;" transform="matrix(.8 0 0 -.8 525.66 598.93)" fill="#231F20">O</text>
			<text font-size="7.5169" font-family="&apos;ArialNarrow-Bold&apos;" transform="matrix(.8 0 0 -.8 529.52 598.93)" fill="#231F20">W</text>
			<text font-size="7.5169" font-family="&apos;ArialNarrow-Bold&apos;" transform="matrix(.8 0 0 -.8 535.04 598.93)" fill="#231F20">N</text>
			<text font-size="7.5169" font-family="&apos;ArialNarrow-Bold&apos;" transform="matrix(.8 0 0 -.8 507.87 592.92)" fill="#231F20">L</text>
			<text font-size="7.5169" font-family="&apos;ArialNarrow-Bold&apos;" transform="matrix(.8 0 0 -.8 510.72 592.92)" fill="#231F20">O</text>
			<text font-size="7.5169" font-family="&apos;ArialNarrow-Bold&apos;" transform="matrix(.8 0 0 -.8 514.57 592.92)" fill="#231F20">U</text>
			<text font-size="7.5169" font-family="&apos;ArialNarrow-Bold&apos;" transform="matrix(.8 0 0 -.8 518.43 592.92)" fill="#231F20">N</text>
			<text font-size="7.5169" font-family="&apos;ArialNarrow-Bold&apos;" transform="matrix(.8 0 0 -.8 522.62 592.92)" fill="#231F20">G</text>
			<text font-size="7.5169" font-family="&apos;ArialNarrow-Bold&apos;" transform="matrix(.8 0 0 -.8 526.47 592.92)" fill="#231F20">E</text>
			<text font-size="7.5169" font-family="&apos;ArialNarrow-Bold&apos;" transform="matrix(.8 0 0 -.8 546.4 605.81)" fill="#231F20">D</text>
			<text font-size="7.5169" font-family="&apos;ArialNarrow-Bold&apos;" transform="matrix(.8 0 0 -.8 550.26 605.81)" fill="#231F20">I</text>
			<text font-size="7.5169" font-family="&apos;ArialNarrow-Bold&apos;" transform="matrix(.8 0 0 -.8 552.11 605.81)" fill="#231F20">A</text>
			<text font-size="7.5169" font-family="&apos;ArialNarrow-Bold&apos;" transform="matrix(.8 0 0 -.8 555.96 605.81)" fill="#231F20">M</text>
			<text font-size="7.5169" font-family="&apos;ArialNarrow-Bold&apos;" transform="matrix(.8 0 0 -.8 561.15 605.81)" fill="#231F20">O</text>
			<text font-size="7.5169" font-family="&apos;ArialNarrow-Bold&apos;" transform="matrix(.8 0 0 -.8 565.01 605.81)" fill="#231F20">N</text>
			<text font-size="7.5169" font-family="&apos;ArialNarrow-Bold&apos;" transform="matrix(.8 0 0 -.8 569.2 605.81)" fill="#231F20">D</text>
			<text font-size="7.5169" font-family="&apos;ArialNarrow-Bold&apos;" transform="matrix(.8 0 0 -.8 552.69 599.8)" fill="#231F20">C</text>
			<text font-size="7.5169" font-family="&apos;ArialNarrow-Bold&apos;" transform="matrix(.8 0 0 -.8 556.21 599.8)" fill="#231F20">L</text>
			<text font-size="7.5169" font-family="&apos;ArialNarrow-Bold&apos;" transform="matrix(.8 0 0 -.8 559.06 599.8)" fill="#231F20">U</text>
			<text font-size="7.5169" font-family="&apos;ArialNarrow-Bold&apos;" transform="matrix(.8 0 0 -.8 562.92 599.8)" fill="#231F20">B</text>
			<text font-size="7.5169" font-family="&apos;ArialNarrow-Bold&apos;" transform="matrix(.8 0 0 -.8 470.95 631.53)" fill="#231F20">C</text>
			<text font-size="7.5169" font-family="&apos;ArialNarrow-Bold&apos;" transform="matrix(.8 0 0 -.8 474.47 631.53)" fill="#231F20">L</text>
			<text font-size="7.5169" font-family="&apos;ArialNarrow-Bold&apos;" transform="matrix(.8 0 0 -.8 477.32 631.53)" fill="#231F20">O</text>
			<text font-size="7.5169" font-family="&apos;ArialNarrow-Bold&apos;" transform="matrix(.8 0 0 -.8 481.17 631.53)" fill="#231F20">U</text>
			<text font-size="7.5169" font-family="&apos;ArialNarrow-Bold&apos;" transform="matrix(.8 0 0 -.8 485.03 631.53)" fill="#231F20">D</text>
			<text font-size="7.5169" font-family="&apos;ArialNarrow-Bold&apos;" transform="matrix(.8 0 0 -.8 473.2 625.52)" fill="#231F20">N</text>
			<text font-size="7.5169" font-family="&apos;ArialNarrow-Bold&apos;" transform="matrix(.8 0 0 -.8 477.39 625.52)" fill="#231F20">I</text>
			<text font-size="7.5169" font-family="&apos;ArialNarrow-Bold&apos;" transform="matrix(.8 0 0 -.8 479.24 625.52)" fill="#231F20">N</text>
			<text font-size="7.5169" font-family="&apos;ArialNarrow-Bold&apos;" transform="matrix(.8 0 0 -.8 483.44 625.52)" fill="#231F20">E</text>
			<text font-size="7.5169" font-family="&apos;ArialNarrow-Bold&apos;" transform="matrix(.8 0 0 -.8 469.24 612.04)" fill="#231F20">S</text>
			<text font-size="7.5169" font-family="&apos;ArialNarrow-Bold&apos;" transform="matrix(.8 0 0 -.8 472.77 612.04)" fill="#231F20">E</text>
			<text font-size="7.5169" font-family="&apos;ArialNarrow-Bold&apos;" transform="matrix(.8 0 0 -.8 475.95 612.04)" fill="#231F20">V</text>
			<text font-size="7.5169" font-family="&apos;ArialNarrow-Bold&apos;" transform="matrix(.8 0 0 -.8 479.48 612.04)" fill="#231F20">E</text>
			<text font-size="7.5169" font-family="&apos;ArialNarrow-Bold&apos;" transform="matrix(.8 0 0 -.8 482.67 612.04)" fill="#231F20">N</text>
			<text font-size="7.5169" font-family="&apos;ArialNarrow-Bold&apos;" transform="matrix(.8 0 0 -.8 467.49 606.03)" fill="#231F20">H</text>
			<text font-size="7.5169" font-family="&apos;ArialNarrow-Bold&apos;" transform="matrix(.8 0 0 -.8 471.34 606.03)" fill="#231F20">E</text>
			<text font-size="7.5169" font-family="&apos;ArialNarrow-Bold&apos;" transform="matrix(.8 0 0 -.8 474.53 606.03)" fill="#231F20">A</text>
			<text font-size="7.5169" font-family="&apos;ArialNarrow-Bold&apos;" transform="matrix(.8 0 0 -.8 478.38 606.03)" fill="#231F20">R</text>
			<text font-size="7.5169" font-family="&apos;ArialNarrow-Bold&apos;" transform="matrix(.8 0 0 -.8 481.91 606.03)" fill="#231F20">T</text>
			<text font-size="7.5169" font-family="&apos;ArialNarrow-Bold&apos;" transform="matrix(.8 0 0 -.8 485.09 606.03)" fill="#231F20">S</text>
		</g>
</svg>
