<?xml version="1.0" encoding="utf-8"?>
<!-- Generated by IcoMoon.io -->
<!DOCTYPE svg PUBLIC "-//W3C//DTD SVG 1.1//EN" "http://www.w3.org/Graphics/SVG/1.1/DTD/svg11.dtd">
<svg version="1.1" xmlns="http://www.w3.org/2000/svg" xmlns:xlink="http://www.w3.org/1999/xlink" width="24" height="24" viewBox="0 0 24 24">
	<path d="M11.846 0.481c-6.362 0.085-11.45 5.311-11.365 11.672s5.311 11.45 11.674 11.365c6.361-0.084 11.45-5.311 11.365-11.674-0.085-6.361-5.314-11.449-11.674-11.364zM12.121 21.094c-5.023 0.068-9.149-3.949-9.216-8.972-0.067-5.023 3.95-9.149 8.974-9.216 5.022-0.067 9.148 3.95 9.215 8.972s-3.949 9.148-8.972 9.216zM9.181 13.952c-0.486 0-0.854-0.178-1.104-0.533-0.251-0.355-0.374-0.828-0.374-1.42 0-1.301 0.493-1.951 1.478-1.951 0.197 0 0.41 0.066 0.641 0.197 0.229 0.132 0.424 0.362 0.582 0.69l1.477-0.769c-0.59-1.064-1.571-1.597-2.938-1.597-0.934 0-1.704 0.308-2.316 0.926-0.611 0.618-0.917 1.453-0.917 2.504 0 1.078 0.302 1.92 0.907 2.525 0.604 0.605 1.4 0.907 2.386 0.907 0.617 0 1.182-0.155 1.694-0.464s0.914-0.733 1.204-1.273l-1.361-0.69c-0.263 0.631-0.716 0.948-1.36 0.948zM15.548 13.952c-0.487 0-0.856-0.178-1.104-0.533-0.251-0.354-0.374-0.828-0.374-1.42 0-1.301 0.492-1.951 1.478-1.951 0.211 0 0.431 0.066 0.661 0.197 0.229 0.132 0.425 0.362 0.581 0.69l1.458-0.769c-0.578-1.064-1.549-1.597-2.918-1.597-0.932 0-1.704 0.308-2.315 0.926-0.612 0.618-0.917 1.452-0.917 2.503 0 1.078 0.299 1.92 0.896 2.525 0.599 0.605 1.398 0.907 2.396 0.907 0.605 0 1.163-0.155 1.675-0.464 0.511-0.31 0.919-0.733 1.222-1.273l-1.38-0.69c-0.263 0.632-0.715 0.949-1.36 0.949z" fill="#eeeeee" />
</svg>
