<?xml version="1.0" encoding="utf-8"?>
<!-- Generated by IcoMoon.io -->
<!DOCTYPE svg PUBLIC "-//W3C//DTD SVG 1.1//EN" "http://www.w3.org/Graphics/SVG/1.1/DTD/svg11.dtd">
<svg version="1.1" xmlns="http://www.w3.org/2000/svg" xmlns:xlink="http://www.w3.org/1999/xlink" width="24" height="24" viewBox="0 0 24 24">
	<path d="M17.219 15.782l-3.31-3.782 3.31-3.782c0.563-0.563 0.563-1.475 0-2.036-0.563-0.562-1.475-0.562-2.036 0l-3.182 3.637-3.181-3.636c-0.563-0.563-1.475-0.563-2.036 0-0.562 0.563-0.562 1.475 0 2.036l3.308 3.781-3.31 3.782c-0.562 0.563-0.562 1.472 0 2.034 0.563 0.563 1.475 0.563 2.036 0l3.182-3.635 3.181 3.635c0.563 0.563 1.475 0.563 2.036 0s0.563-1.471 0.001-2.034z" fill="#eeeeee" />
</svg>
