<?xml version="1.0" encoding="utf-8"?>
<!-- Generated by IcoMoon.io -->
<!DOCTYPE svg PUBLIC "-//W3C//DTD SVG 1.1//EN" "http://www.w3.org/Graphics/SVG/1.1/DTD/svg11.dtd">
<svg version="1.1" xmlns="http://www.w3.org/2000/svg" xmlns:xlink="http://www.w3.org/1999/xlink" width="24" height="24" viewBox="0 0 24 24">
	<path d="M12 0.48c-6.362 0-11.52 5.158-11.52 11.52s5.158 11.52 11.52 11.52c6.364 0 11.52-5.158 11.52-11.52s-5.156-11.52-11.52-11.52zM18.199 5.803l-0.002-0.002c0 0.001 0.002 0.002 0.002 0.002zM3.235 12c0-4.841 3.924-8.765 8.765-8.765 2.105 0 4.037 0.742 5.549 1.978l-12.335 12.334c-1.237-1.511-1.979-3.442-1.979-5.546zM5.801 18.197l0.002 0.002c-0.001-0.001-0.001-0.001-0.002-0.002zM12 20.766c-2.105 0-4.036-0.743-5.546-1.979l12.331-12.334c1.237 1.511 1.98 3.442 1.98 5.546 0.001 4.841-3.925 8.766-8.765 8.766z" fill="#eeeeee" />
</svg>
