<?xml version="1.0" encoding="utf-8"?>
<!-- Generated by IcoMoon.io -->
<!DOCTYPE svg PUBLIC "-//W3C//DTD SVG 1.1//EN" "http://www.w3.org/Graphics/SVG/1.1/DTD/svg11.dtd">
<svg version="1.1" xmlns="http://www.w3.org/2000/svg" xmlns:xlink="http://www.w3.org/1999/xlink" width="24" height="24" viewBox="0 0 24 24">
	<path d="M18.961 9.602h-2.161v-1.68c0-3.476-1.601-5.52-4.8-5.52-3.198 0-4.8 2.044-4.8 5.52v1.68h-2.4c-0.662 0-1.2 0.776-1.2 1.44v9.36c0 0.66 0.515 1.367 1.142 1.568l1.435 0.464c0.628 0.203 1.681 0.368 2.342 0.368h6.96c0.66 0 1.715-0.166 2.342-0.368l1.435-0.464c0.629-0.202 1.142-0.908 1.142-1.568v-9.36c0-0.664-0.776-1.44-1.439-1.44zM9.6 7.442c0-1.734 0.958-2.64 2.4-2.64 1.444 0 2.4 0.906 2.4 2.64v2.16h-4.8v-2.16z" fill="#eeeeee" />
</svg>
