<?xml version="1.0" encoding="utf-8"?>
<!-- Generated by IcoMoon.io -->
<!DOCTYPE svg PUBLIC "-//W3C//DTD SVG 1.1//EN" "http://www.w3.org/Graphics/SVG/1.1/DTD/svg11.dtd">
<svg version="1.1" xmlns="http://www.w3.org/2000/svg" xmlns:xlink="http://www.w3.org/1999/xlink" width="24" height="24" viewBox="0 0 24 24">
	<path d="M12 0.479c-6.353 0-11.52 5.17-11.52 11.521 0 6.353 5.167 11.521 11.52 11.521s11.52-5.168 11.52-11.521c0-6.352-5.167-11.521-11.52-11.521zM21.826 12c0 2.248-0.763 4.321-2.035 5.977-0.36-0.282-0.742-1.042-0.382-1.829 0.362-0.792 0.457-2.626 0.374-3.338-0.079-0.713-0.45-2.431-1.458-2.448-1.004-0.016-1.694-0.347-2.292-1.54-1.24-2.48 2.327-2.958 1.087-4.332-0.347-0.385-2.14 1.589-2.402-1.042-0.018-0.188 0.162-0.47 0.402-0.762 3.893 1.308 6.706 4.987 6.706 9.313zM10.65 2.273c-0.234 0.456-0.854 0.643-1.232 0.988-0.82 0.742-1.172 0.64-1.615 1.352-0.444 0.713-1.879 1.739-1.879 2.255 0 0.515 0.725 1.124 1.087 1.006 0.362-0.12 1.318-0.113 1.879 0.084 0.563 0.199 4.698 0.397 3.379 3.893-0.418 1.111-2.246 0.924-2.734 2.765-0.073 0.27-0.325 1.423-0.343 1.8-0.029 0.583 0.413 2.782-0.15 2.782-0.565 0-2.084-1.967-2.084-2.323s-0.395-1.607-0.395-2.676-1.82-1.052-1.82-2.474c0-1.284 0.988-1.922 0.766-2.536-0.218-0.612-1.952-0.634-2.675-0.708 1.262-3.278 4.235-5.712 7.817-6.206zM8.91 21.324c0.59-0.311 0.65-0.714 1.186-0.736 0.612-0.026 1.11-0.239 1.799-0.39 0.613-0.133 1.708-0.755 2.674-0.834 0.812-0.067 2.418 0.042 2.85 0.827-1.555 1.032-3.418 1.634-5.418 1.634-1.080 0-2.118-0.178-3.090-0.502z" fill="#eeeeee" />
</svg>
