<?xml version="1.0" encoding="utf-8"?>
<!-- Generated by IcoMoon.io -->
<!DOCTYPE svg PUBLIC "-//W3C//DTD SVG 1.1//EN" "http://www.w3.org/Graphics/SVG/1.1/DTD/svg11.dtd">
<svg version="1.1" xmlns="http://www.w3.org/2000/svg" xmlns:xlink="http://www.w3.org/1999/xlink" width="24" height="24" viewBox="0 0 24 24">
	<path d="M20.822 5.478c-3.725-2.477-7.907-3.332-12.866-1.912-3.871 1.11-7.42 5.513-7.694 9.283-0.325 4.458 3.148 8.275 9.262 8.269 6.593-0.007 9.060-3.173 9.115-4.134 0.054-0.962-2.573-2.741-0.882-4.57 2.118-2.291 4.003-0.338 5.146-0.614 1.142-0.274 1.721-3.793-2.080-6.323zM13.174 16.66c-0.997 0-1.806-0.806-1.806-1.8 0-0.995 0.809-1.8 1.806-1.8s1.805 0.805 1.805 1.8c-0.001 0.994-0.808 1.8-1.805 1.8z" fill="#eeeeee" />
</svg>
