<?xml version="1.0" encoding="utf-8"?>
<!-- Generated by IcoMoon.io -->
<!DOCTYPE svg PUBLIC "-//W3C//DTD SVG 1.1//EN" "http://www.w3.org/Graphics/SVG/1.1/DTD/svg11.dtd">
<svg version="1.1" xmlns="http://www.w3.org/2000/svg" xmlns:xlink="http://www.w3.org/1999/xlink" width="24" height="24" viewBox="0 0 24 24">
	<path d="M18.112 8.033h0.848v2.416l5.040-4.32-5.040-4.32v2.864h-0.848c-4.432 0-6.931 3.284-9.137 6.182-1.984 2.606-3.696 4.858-6.463 4.858h-2.512v3.361h2.512c4.433 0 6.931-3.286 9.138-6.184 1.982-2.608 3.695-4.858 6.462-4.858zM6.493 10.15c0.188-0.245 0.379-0.494 0.572-0.748 0.469-0.617 0.965-1.267 1.501-1.915-1.585-1.481-3.498-2.574-6.055-2.574h-2.512v3.36h2.512c1.592 0 2.836 0.748 3.982 1.877zM18.96 15.952h-0.848c-1.688 0-2.983-0.839-4.188-2.086-0.121 0.157-0.241 0.317-0.364 0.478-0.529 0.694-1.099 1.441-1.727 2.179 1.628 1.589 3.601 2.789 6.278 2.789h0.848v2.88l5.040-4.32-5.040-4.322v2.402z" fill="#eeeeee" />
</svg>
