<?xml version="1.0" encoding="utf-8"?>
<!-- Generated by IcoMoon.io -->
<!DOCTYPE svg PUBLIC "-//W3C//DTD SVG 1.1//EN" "http://www.w3.org/Graphics/SVG/1.1/DTD/svg11.dtd">
<svg version="1.1" xmlns="http://www.w3.org/2000/svg" xmlns:xlink="http://www.w3.org/1999/xlink" width="24" height="24" viewBox="0 0 24 24">
	<path d="M20.807 5.17c0-1.38-2.078-1.534-2.078-1.534l-4.883-0.307c0 0-0.104-1.33-1.092-1.79-0.986-0.46-2.071-0.32-2.85-0.312s-0.965 1.003-0.965 1.942 0.018 2.018 0.018 2.7c0 1.219-0.536 1.739-1.879 1.739h-2.768c-0.774-0.050-1.378 0.077-1.378 0.703 0 0.625 0.912 5.966 2.162 7.199 0.726 0.715 5.165 1.217 6.1 1.217s0.624-2.761 0.883-2.761 0.546 1.56 2.018 1.925c1.472 0.367 3.438 0.299 3.542 1.346 0.136 1.382 0.259 3.172-0.65 3.299l-2.058 0.082c-1.411-0.102-1.033-1.643-0.41-1.643s0.935-0.025 0.935-0.025l0.078-1.687c0 0-3.232-0.382-3.37 1.799-0.125 1.992 0.217 2.932 0.468 3.136 0.252 0.206 0.686 0.605 4.644 0.605 5.576 0 3.533-16.252 3.533-17.63zM18.528 12.385c-0.218 0.233-1.010-0.385-1.766-0.385-0.757 0-1.574 0.401-1.766 0.138-0.191-0.264 0.176-2.39 1.602-2.39s2.15 2.404 1.931 2.638zM6.964 4.999c0-0.272 0.071-3.581 0.071-3.581l-4.207 4.127c0 0 2.906 0 3.476 0 0.572 0 0.66-0.272 0.66-0.546z" fill="#eeeeee" />
</svg>
