<?xml version="1.0" encoding="utf-8"?>
<!-- Generated by IcoMoon.io -->
<!DOCTYPE svg PUBLIC "-//W3C//DTD SVG 1.1//EN" "http://www.w3.org/Graphics/SVG/1.1/DTD/svg11.dtd">
<svg version="1.1" xmlns="http://www.w3.org/2000/svg" xmlns:xlink="http://www.w3.org/1999/xlink" width="24" height="24" viewBox="0 0 24 24">
	<path d="M18.49 12c0-3.319 1.532-5.184 2.732-5.184 0.437 0 1.577 0 1.577 0-0.8-1.271-1.463-2.016-4.387-2.016h-12.010c-4.481 0-6.402 4.129-6.402 7.2s1.921 7.2 6.402 7.2h12.010c2.926 0 3.587-0.745 4.388-2.017 0 0-0.377 0-1.577 0s-2.734-1.865-2.734-5.183zM15.226 14.153c-0.196 0.302-0.81 0.019-0.81 0.019l-3.548-1.603c0 0-0.317 0.803-0.562 1.368s-0.433 1.206-1.451 0.49c-1.019-0.716-4.296-3.9-4.296-3.9s-0.415-0.34-0.208-0.66c0.196-0.302 0.81-0.019 0.81-0.019l3.548 1.603c0 0 0.317-0.802 0.562-1.368 0.245-0.564 0.433-1.206 1.451-0.49 1.019 0.716 4.297 3.901 4.297 3.901s0.413 0.338 0.206 0.659zM22.65 9.512h-0.898c-0.672 0-1.327 0.906-1.327 2.376s0.656 2.375 1.327 2.375h0.898c0.671 0 1.35-0.905 1.35-2.375s-0.679-2.376-1.35-2.376z" fill="#eeeeee" />
</svg>
