<?xml version="1.0" encoding="utf-8"?>
<!-- Generated by IcoMoon.io -->
<!DOCTYPE svg PUBLIC "-//W3C//DTD SVG 1.1//EN" "http://www.w3.org/Graphics/SVG/1.1/DTD/svg11.dtd">
<svg version="1.1" xmlns="http://www.w3.org/2000/svg" xmlns:xlink="http://www.w3.org/1999/xlink" width="24" height="24" viewBox="0 0 24 24">
	<path d="M21.228 5.671c-0.602-3.574-3.864-5.96-7.283-5.329-3.42 0.63-6.305 3.379-5.702 6.953 0.131 0.769 0.49 1.974 0.916 2.838l-6.21 9.268c-0.229 0.342-0.359 0.959-0.29 1.369l0.4 2.365c0.070 0.41 0.448 0.686 0.84 0.614l1.819-0.335c0.394-0.073 0.892-0.419 1.109-0.769l2.478-3.997 1.662-0.307 2.867-4.654c0.943 0.167 2.294 0.11 3.094-0.037 3.421-0.631 4.906-4.405 4.302-7.979zM18.199 7.502c-0.941 1.403-1.9 0.414-3.244-0.57-1.343-0.983-2.562-1.588-1.621-2.99 0.941-1.404 2.791-1.746 4.135-0.762 1.344 0.983 1.67 2.92 0.73 4.322z" fill="#eeeeee" />
</svg>
