<?xml version="1.0" encoding="utf-8"?>
<!-- Generated by IcoMoon.io -->
<!DOCTYPE svg PUBLIC "-//W3C//DTD SVG 1.1//EN" "http://www.w3.org/Graphics/SVG/1.1/DTD/svg11.dtd">
<svg version="1.1" xmlns="http://www.w3.org/2000/svg" xmlns:xlink="http://www.w3.org/1999/xlink" width="24" height="24" viewBox="0 0 24 24">
	<path d="M22.8 11.040c-0.218 0-0.959 0-1.176 0-0.662 0-1.2 0.43-1.2 0.96s0.538 0.96 1.2 0.96c0.218 0 0.959 0 1.176 0 0.664 0 1.2-0.43 1.2-0.96s-0.536-0.96-1.2-0.96zM12 5.4c-3.66 0-6.6 2.94-6.6 6.6 0 3.661 2.94 6.6 6.6 6.6 3.66 0 6.6-2.939 6.6-6.6 0-3.66-2.94-6.6-6.6-6.6zM12.12 16.8c-2.772 0-4.92-2.148-4.92-4.8 0-2.651 2.148-4.8 4.92-4.8v9.6zM3.575 12c0-0.53-0.512-0.96-1.175-0.96-0.222 0-0.979 0-1.2 0-0.662 0-1.2 0.43-1.2 0.96s0.538 0.96 1.2 0.96c0.221 0 0.978 0 1.2 0 0.662 0 1.175-0.43 1.175-0.96zM12 3.6c0.529 0 0.96-0.538 0.96-1.2 0-0.22 0-0.98 0-1.2 0-0.662-0.43-1.2-0.96-1.2s-0.96 0.538-0.96 1.2c0 0.22 0 0.98 0 1.2 0 0.662 0.431 1.2 0.96 1.2zM12 20.4c-0.529 0-0.96 0.538-0.96 1.2 0 0.22 0 0.98 0 1.2 0 0.664 0.43 1.2 0.96 1.2s0.96-0.536 0.96-1.2c0-0.22 0-0.98 0-1.2 0-0.662-0.431-1.2-0.96-1.2zM20.838 4.519c0.469-0.469 0.545-1.153 0.17-1.528s-1.058-0.299-1.526 0.17c-0.128 0.13-0.71 0.71-0.84 0.84-0.469 0.469-0.545 1.152-0.17 1.526s1.060 0.3 1.528-0.169c0.128-0.13 0.71-0.71 0.839-0.84zM4.001 18.641c-0.13 0.13-0.71 0.712-0.84 0.84-0.468 0.469-0.544 1.152-0.169 1.526 0.374 0.374 1.058 0.299 1.526-0.169 0.13-0.128 0.712-0.71 0.84-0.84 0.469-0.469 0.545-1.152 0.169-1.526s-1.058-0.298-1.526 0.169zM4.519 3.161c-0.469-0.468-1.152-0.545-1.528-0.169s-0.299 1.058 0.169 1.528c0.13 0.13 0.71 0.71 0.84 0.84 0.469 0.468 1.152 0.545 1.526 0.169s0.3-1.058-0.169-1.526c-0.128-0.13-0.709-0.712-0.839-0.841zM18.641 19.999c0.13 0.13 0.712 0.712 0.84 0.84 0.469 0.468 1.153 0.544 1.526 0.169 0.374-0.374 0.299-1.058-0.169-1.526-0.13-0.128-0.712-0.71-0.84-0.84-0.469-0.468-1.153-0.544-1.528-0.169s-0.296 1.057 0.17 1.526z" fill="#eeeeee" />
</svg>
