<?xml version="1.0" encoding="utf-8"?>
<!-- Generated by IcoMoon.io -->
<!DOCTYPE svg PUBLIC "-//W3C//DTD SVG 1.1//EN" "http://www.w3.org/Graphics/SVG/1.1/DTD/svg11.dtd">
<svg version="1.1" xmlns="http://www.w3.org/2000/svg" xmlns:xlink="http://www.w3.org/1999/xlink" width="24" height="24" viewBox="0 0 24 24">
	<path d="M20.668 8.435c-1.9-4.422-4.958-7.789-6.505-7.159-2.627 1.068 1.566 6.197-11.335 11.441-1.115 0.452-1.397 2.266-0.93 3.349 0.466 1.084 1.99 2.162 3.104 1.71 0.192-0.078 0.901-0.306 0.901-0.306 0.796 1.068 1.628 0.434 1.925 1.114 0.355 0.816 1.127 2.588 1.388 3.191 0.264 0.602 0.859 1.162 1.291 0.997 0.43-0.164 1.897-0.724 2.459-0.936s0.696-0.714 0.524-1.109c-0.185-0.425-0.943-0.55-1.159-1.046-0.217-0.497-0.924-2.087-1.127-2.588-0.276-0.682 0.311-1.236 1.164-1.325 5.873-0.612 6.971 3.016 8.97 2.202 1.543-0.631 1.229-5.112-0.671-9.534zM20.006 15.607c-0.343 0.139-2.654-1.682-4.132-5.12-1.476-3.437-1.29-6.578-0.948-6.718 0.343-0.14 2.598 2.059 4.075 5.496 1.475 3.436 1.348 6.203 1.004 6.342z" fill="#eeeeee" />
</svg>
