<?xml version="1.0" encoding="utf-8"?>
<!-- Generated by IcoMoon.io -->
<!DOCTYPE svg PUBLIC "-//W3C//DTD SVG 1.1//EN" "http://www.w3.org/Graphics/SVG/1.1/DTD/svg11.dtd">
<svg version="1.1" xmlns="http://www.w3.org/2000/svg" xmlns:xlink="http://www.w3.org/1999/xlink" width="24" height="24" viewBox="0 0 24 24">
	<g fill="none" stroke="black"><path stroke-width=".5" d="M12 5.28c-7.873 0-12 5.8-12 6.72s4.127 6.72 12 6.72 12-5.8 12-6.72-4.127-6.72-12-6.72zM12 17.17c-2.945 0-5.333-2.315-5.333-5.17s2.388-5.17 5.333-5.17c2.946 0 5.334 2.315 5.334 5.17s-2.388 5.17-5.334 5.17zM12 12c-0.487-0.535 0.797-2.584 0-2.584-1.472 0-2.666 1.157-2.666 2.584s1.194 2.585 2.666 2.585c1.474 0 2.668-1.158 2.668-2.585 0-0.655-2.251 0.456-2.668 0z" fill="#eeeeee" /></g>
</svg>
