<?xml version="1.0" encoding="utf-8"?>
<!-- Generated by IcoMoon.io -->
<!DOCTYPE svg PUBLIC "-//W3C//DTD SVG 1.1//EN" "http://www.w3.org/Graphics/SVG/1.1/DTD/svg11.dtd">
<svg version="1.1" xmlns="http://www.w3.org/2000/svg" xmlns:xlink="http://www.w3.org/1999/xlink" width="24" height="24" viewBox="0 0 24 24">
	<path d="M12.017 11.939c-0.006 0-0.012 0-0.017 0-0.007 0-0.012 0-0.018 0-1.429 0-2.689-0.362-3.434 0.323-0.446 0.41-0.634 0.904-0.634 1.435 0 2.224 1.781 2.496 4.068 2.496h0.034c2.287 0 4.068-0.274 4.068-2.496 0-0.532-0.187-1.025-0.635-1.435-0.742-0.685-2.003-0.323-3.432-0.323zM10.073 14.976c-0.436 0-0.788-0.488-0.788-1.091s0.353-1.091 0.788-1.091 0.788 0.488 0.788 1.091-0.354 1.091-0.788 1.091zM13.926 14.976c-0.433 0-0.787-0.488-0.787-1.091s0.353-1.091 0.787-1.091c0.436 0 0.79 0.488 0.79 1.091s-0.353 1.091-0.79 1.091zM12 0.48c-6.362 0-11.52 5.158-11.52 11.52s5.158 11.52 11.52 11.52c6.36 0 11.519-5.158 11.519-11.52s-5.158-11.52-11.519-11.52zM13.050 16.728c-0.206 0-0.617 0-1.050 0.001-0.434-0.001-0.845-0.001-1.050-0.001-0.913 0-4.528-0.071-4.528-4.427 0-1.002 0.343-1.735 0.906-2.346-0.090-0.222-0.095-1.481 0.384-2.683 0 0 1.099 0.12 2.76 1.26 0.348-0.096 0.937-0.144 1.528-0.144 0.588 0 1.178 0.048 1.528 0.144 1.662-1.14 2.759-1.26 2.759-1.26 0.478 1.204 0.475 2.462 0.384 2.683 0.563 0.611 0.907 1.344 0.907 2.346 0 4.357-3.613 4.427-4.528 4.427z" fill="#eeeeee" />
</svg>
