<?xml version="1.0" encoding="utf-8"?>
<!-- Generated by IcoMoon.io -->
<!DOCTYPE svg PUBLIC "-//W3C//DTD SVG 1.1//EN" "http://www.w3.org/Graphics/SVG/1.1/DTD/svg11.dtd">
<svg version="1.1" xmlns="http://www.w3.org/2000/svg" xmlns:xlink="http://www.w3.org/1999/xlink" width="24" height="24" viewBox="0 0 24 24">
	<path d="M19.529 12.206l-2.284-0.948v-2.858l-7.056-2.922-3.126 1.378v3.254l0.019 0.018-2.756 1.152v2.963l2.941 1.274 2.983-1.234 0.205 0.082 6.028 2.49 0.143 0.041 0.125-0.041 2.797-1.193 0.205-0.104v-3.251l-0.224-0.101zM16.258 15.99l-0.020-0.019v0.019l-5.286-2.178v-2.1l5.286 2.164v0.082h0.020v2.033zM16.608 13.316l-1.667-0.716 1.811-0.766 1.708 0.721-1.852 0.761zM19.034 15.086l-2.057 0.884v-2.015l2.057-0.866v1.997zM12 0.48c-6.362 0-11.52 5.158-11.52 11.52s5.158 11.52 11.52 11.52 11.52-5.158 11.52-11.52-5.158-11.52-11.52-11.52zM12 21.408c-5.196 0-9.408-4.212-9.408-9.408s4.212-9.408 9.408-9.408 9.408 4.212 9.408 9.408-4.212 9.408-9.408 9.408z" fill="#eeeeee" />
</svg>
