<?xml version="1.0" encoding="utf-8"?>
<!-- Generated by IcoMoon.io -->
<!DOCTYPE svg PUBLIC "-//W3C//DTD SVG 1.1//EN" "http://www.w3.org/Graphics/SVG/1.1/DTD/svg11.dtd">
<svg version="1.1" xmlns="http://www.w3.org/2000/svg" xmlns:xlink="http://www.w3.org/1999/xlink" width="24" height="24" viewBox="0 0 24 24">
	<path d="M12 0.48c-6.362 0-11.52 5.158-11.52 11.52s5.158 11.52 11.52 11.52 11.52-5.158 11.52-11.52-5.158-11.52-11.52-11.52zM9.18 16.775h-2.333v-7.506h2.333v7.506zM7.999 8.347c-0.737 0-1.213-0.523-1.213-1.168 0-0.66 0.491-1.166 1.243-1.166s1.213 0.506 1.228 1.166c0.001 0.646-0.475 1.168-1.258 1.168zM17.699 16.775h-2.332v-4.16c0-0.967-0.338-1.626-1.182-1.626-0.644 0-1.027 0.445-1.198 0.875-0.061 0.152-0.077 0.368-0.077 0.582v4.328h-2.334v-5.112c0-0.936-0.030-1.72-0.061-2.394h2.026l0.108 1.043h0.046c0.307-0.491 1.060-1.212 2.318-1.212 1.535 0 2.686 1.027 2.686 3.238v4.439z" fill="#eeeeee" />
</svg>
