<?xml version="1.0" encoding="utf-8"?>
<!-- Generated by IcoMoon.io -->
<!DOCTYPE svg PUBLIC "-//W3C//DTD SVG 1.1//EN" "http://www.w3.org/Graphics/SVG/1.1/DTD/svg11.dtd">
<svg version="1.1" xmlns="http://www.w3.org/2000/svg" xmlns:xlink="http://www.w3.org/1999/xlink" width="24" height="24" viewBox="0 0 24 24">
	<path d="M20.406 15.624c-0.935-0.659-2.101-0.612-2.765 0.33s-5.302 6.76-12.9 4.344c0.286 0.25 0.588 0.487 0.905 0.71 4.985 3.51 11.87 2.315 15.382-2.671 0.662-0.942 0.312-2.056-0.622-2.713zM5.742 14.88c-0.485-1.045-3.203-7.972 2.688-13.344-0.36 0.124-0.715 0.265-1.067 0.428-5.533 2.562-7.94 9.124-5.378 14.657 0.484 1.046 1.624 1.301 2.66 0.821 1.037-0.481 1.58-1.516 1.097-2.562zM12.991 0.986c-1.147-0.103-1.937 0.756-2.040 1.895-0.102 1.139 0.522 2.125 1.669 2.228 1.148 0.103 8.504 1.212 10.212 9.001 0.074-0.373 0.127-0.752 0.163-1.139 0.546-6.072-3.932-11.438-10.004-11.986zM8.269 12.635c-0.316 0.745-0.367 1.456-0.113 1.588 0.175 0.091 0.449-0.118 0.706-0.499 0.102 0.418 0.354 0.793 0.714 1.096-0.377 0.139-0.624 0.367-0.624 0.625 0 0.424 0.667 0.767 1.489 0.767 0.742 0 1.356-0.278 1.47-0.644 0.030 0 0.148 0 0.176 0 0.115 0.366 0.728 0.644 1.471 0.644 0.823 0 1.489-0.343 1.489-0.767 0-0.258-0.246-0.485-0.624-0.625 0.359-0.302 0.612-0.678 0.713-1.096 0.258 0.382 0.53 0.59 0.707 0.499 0.254-0.132 0.204-0.842-0.114-1.588-0.248-0.583-0.586-1.015-0.842-1.111 0.004-0.036 0.006-0.074 0.006-0.113 0-0.226-0.064-0.434-0.172-0.605 0.002-0.013 0.002-0.026 0.002-0.040 0-0.104-0.025-0.202-0.067-0.286-0.065-1.519-1.055-2.728-2.657-2.728s-2.593 1.208-2.658 2.728c-0.042 0.085-0.067 0.182-0.067 0.287 0 0.013 0 0.026 0.001 0.040-0.106 0.169-0.169 0.378-0.169 0.605 0 0.038 0.002 0.076 0.005 0.113-0.256 0.096-0.594 0.527-0.842 1.11z" fill="#eeeeee" />
</svg>
