<?xml version="1.0" encoding="utf-8"?>
<!-- Generated by IcoMoon.io -->
<!DOCTYPE svg PUBLIC "-//W3C//DTD SVG 1.1//EN" "http://www.w3.org/Graphics/SVG/1.1/DTD/svg11.dtd">
<svg version="1.1" xmlns="http://www.w3.org/2000/svg" xmlns:xlink="http://www.w3.org/1999/xlink" width="24" height="24" viewBox="0 0 24 24">
	<path d="M22.433 3.162c-0.412 0.145-20.785 7.324-21.186 7.465-0.341 0.12-0.418 0.414-0.012 0.575 0.481 0.193 4.555 1.825 4.555 1.825h-0.001l2.701 1.082c0 0 13.004-9.551 13.181-9.679 0.176-0.13 0.382 0.114 0.253 0.253-0.128 0.14-9.445 10.217-9.445 10.217-0.001 0-0.001 0-0.001 0l-0.542 0.605 0.719 0.386c0 0 5.58 3.004 5.977 3.218 0.348 0.187 0.802 0.031 0.902-0.402 0.119-0.511 3.414-14.714 3.487-15.029 0.096-0.412-0.175-0.662-0.588-0.517zM8.466 20.594c0 0.296 0.167 0.378 0.397 0.169 0.3-0.274 3.419-3.072 3.419-3.072l-3.816-1.975v4.878z" fill="#eeeeee" />
</svg>
