<?xml version="1.0" encoding="utf-8"?>
<!-- Generated by IcoMoon.io -->
<!DOCTYPE svg PUBLIC "-//W3C//DTD SVG 1.1//EN" "http://www.w3.org/Graphics/SVG/1.1/DTD/svg11.dtd">
<svg version="1.1" xmlns="http://www.w3.org/2000/svg" xmlns:xlink="http://www.w3.org/1999/xlink" width="24" height="24" viewBox="0 0 24 24">
	<path d="M19.68 4.8c0-1.59-1.289-2.88-2.88-2.88s-2.88 1.29-2.88 2.88c0 1.168 0.696 2.171 1.694 2.623-0.272 2.338-1.778 2.809-3.954 3.488-1.056 0.33-2.284 0.714-3.32 1.46v-4.927c1.024-0.443 1.74-1.46 1.74-2.645 0-1.59-1.29-2.88-2.88-2.88-1.591 0-2.88 1.29-2.88 2.88 0 1.184 0.716 2.202 1.74 2.645v9.112c-1.024 0.44-1.74 1.458-1.74 2.644 0 1.59 1.289 2.88 2.88 2.88 1.59 0 2.88-1.29 2.88-2.88 0-1.168-0.696-2.171-1.696-2.623 0.274-2.338 1.781-2.81 3.955-3.488 2.212-0.691 5.191-1.624 5.561-5.627 1.044-0.434 1.78-1.462 1.78-2.662zM5.538 4.8c0-0.918 0.744-1.662 1.662-1.662s1.662 0.744 1.662 1.662-0.744 1.662-1.662 1.662-1.662-0.744-1.662-1.662zM7.2 20.862c-0.918 0-1.662-0.744-1.662-1.662s0.744-1.662 1.662-1.662 1.662 0.744 1.662 1.662-0.744 1.662-1.662 1.662zM16.8 6.462c-0.917 0-1.662-0.744-1.662-1.662s0.745-1.662 1.662-1.662 1.662 0.744 1.662 1.662-0.745 1.662-1.662 1.662z" fill="#eeeeee" />
</svg>
