<?xml version="1.0" encoding="utf-8"?>
<!-- Generated by IcoMoon.io -->
<!DOCTYPE svg PUBLIC "-//W3C//DTD SVG 1.1//EN" "http://www.w3.org/Graphics/SVG/1.1/DTD/svg11.dtd">
<svg version="1.1" xmlns="http://www.w3.org/2000/svg" xmlns:xlink="http://www.w3.org/1999/xlink" width="24" height="24" viewBox="0 0 24 24">
	<path d="M5.278 6.313c-1.346 1.343-7.234 9.737-2.147 14.821 5.083 5.086 13.476-0.8 14.824-2.148 1.346-1.343-0.401-5.274-3.902-8.774-3.5-3.502-7.427-5.249-8.774-3.899zM16.393 17.82c-0.397 0.395-3.474-0.548-6.436-3.511-2.96-2.965-3.906-6.041-3.509-6.438 0.394-0.397 3.474 0.548 6.432 3.512 2.964 2.96 3.91 6.040 3.512 6.437zM16.574 8.363c0.307 0 0.614-0.118 0.848-0.352l2.286-2.287c0.469-0.469 0.469-1.228 0-1.697s-1.229-0.469-1.697 0l-2.286 2.287c-0.469 0.468-0.469 1.228 0 1.697 0.233 0.234 0.541 0.352 0.848 0.352zM12.253 5.394c0.186 0.104 0.386 0.154 0.586 0.154 0.42 0 0.827-0.222 1.048-0.614l1.297-2.316c0.324-0.578 0.118-1.31-0.461-1.633s-1.309-0.118-1.633 0.461l-1.297 2.316c-0.323 0.577-0.118 1.309 0.461 1.633zM22.751 9.012c-0.325-0.578-1.056-0.784-1.633-0.461l-2.316 1.297c-0.577 0.324-0.784 1.055-0.461 1.633 0.221 0.392 0.628 0.614 1.048 0.614 0.199 0 0.401-0.050 0.586-0.154l2.316-1.297c0.578-0.324 0.785-1.056 0.461-1.633z" fill="#eeeeee" />
</svg>
