<?xml version="1.0" encoding="utf-8"?>
<!-- Generated by IcoMoon.io -->
<!DOCTYPE svg PUBLIC "-//W3C//DTD SVG 1.1//EN" "http://www.w3.org/Graphics/SVG/1.1/DTD/svg11.dtd">
<svg version="1.1" xmlns="http://www.w3.org/2000/svg" xmlns:xlink="http://www.w3.org/1999/xlink" width="24" height="24" viewBox="0 0 24 24">
	<path d="M12 5.37c-3.803 0-4.759 3.588-4.759 6.63s0.956 6.631 4.759 6.631c3.804 0 4.76-3.589 4.76-6.631s-0.956-6.63-4.76-6.63zM9.952 12c0-1.339 0.092-4.13 2.048-4.13 0.155 0 0.295 0.025 0.427 0.058 0.275 0.235 0.408 0.562 0.145 1.016l-2.532 4.655c-0.078-0.589-0.089-1.169-0.089-1.598zM12 16.129c-0.154 0-0.295-0.016-0.426-0.048-0.025-0.007-0.049-0.016-0.074-0.024-0.040-0.013-0.083-0.025-0.121-0.041-0.434-0.185-0.709-0.521-0.314-1.114l2.831-4.889c0.134 0.715 0.154 1.462 0.154 1.985 0.001 1.342-0.092 4.13-2.048 4.13zM12 0.48c-6.362 0-11.52 5.158-11.52 11.52s5.158 11.52 11.52 11.52 11.52-5.158 11.52-11.52-5.158-11.52-11.52-11.52zM12 21.408c-5.196 0-9.408-4.212-9.408-9.408s4.212-9.408 9.408-9.408 9.408 4.212 9.408 9.408-4.212 9.408-9.408 9.408z" fill="#eeeeee" />
</svg>
