<?xml version="1.0" encoding="utf-8"?>
<!-- Generated by IcoMoon.io -->
<!DOCTYPE svg PUBLIC "-//W3C//DTD SVG 1.1//EN" "http://www.w3.org/Graphics/SVG/1.1/DTD/svg11.dtd">
<svg version="1.1" xmlns="http://www.w3.org/2000/svg" xmlns:xlink="http://www.w3.org/1999/xlink" width="24" height="24" viewBox="0 0 24 24">
	<path d="M3.962 14.686c0.557 2.257 1.265 3.241 3.626 4.274 2.363 1.032 3.485 2.16 4.411 2.16s1.976-0.986 4.339-2.021c2.363-1.031 1.733-1.348 2.29-3.602l-6.629 3.223-8.038-4.034zM23.413 8.803l-9.99-5.594c-0.782-0.438-2.063-0.438-2.845 0l-9.991 5.594c-0.782 0.438-0.782 1.156 0 1.594l9.99 5.594c0.782 0.438 2.063 0.438 2.845 0l6.458-3.617-7.003-1.64c-0.269 0.067-0.565 0.104-0.877 0.104-1.261 0-2.284-0.608-2.284-1.358s1.022-1.36 2.284-1.36c0.979 0 1.813 0.368 2.137 0.883l7.417 2.434 1.859-1.040c0.782-0.438 0.782-1.156 0-1.594zM20.36 19.406c-0.076 0.46 1.54 1.219 1.693-0.131 0.695-6.085-0.499-7.837-0.499-7.837l-1.674 0.937c0-0.001 1.42 1.35 0.48 7.031z" fill="#eeeeee" />
</svg>
