<?xml version="1.0" encoding="utf-8"?>
<!-- Generated by IcoMoon.io -->
<!DOCTYPE svg PUBLIC "-//W3C//DTD SVG 1.1//EN" "http://www.w3.org/Graphics/SVG/1.1/DTD/svg11.dtd">
<svg version="1.1" xmlns="http://www.w3.org/2000/svg" xmlns:xlink="http://www.w3.org/1999/xlink" width="24" height="24" viewBox="0 0 24 24">
	<path d="M9.36 14.725l-4.8-1.921v1.625l4.8 1.921v-1.625zM9.36 9.739l-4.8-1.92v1.625l4.8 1.92v-1.625zM22.273 1.406c-0.329-0.223-0.749-0.269-1.118-0.121l-9.155 3.662-9.155-3.662c-0.37-0.148-0.788-0.102-1.118 0.121-0.329 0.223-0.527 0.595-0.527 0.994v15.36c0 0.491 0.299 0.931 0.754 1.115l9.58 3.832c0 0 0.197 0.064 0.233 0.071 0.078 0.014 0.156 0.023 0.234 0.023 0.077 0 0.156-0.008 0.233-0.024 0.036-0.007 0.233-0.072 0.233-0.072l9.578-3.83c0.457-0.182 0.756-0.623 0.756-1.114v-15.36c0-0.398-0.198-0.77-0.527-0.994zM10.8 20.345l-7.68-3.072v-13.45l7.68 3.073v13.448zM20.88 17.274l-7.68 3.072v-13.45l7.68-3.073v13.451zM19.44 12.804l-4.801 1.921v1.625l4.801-1.921v-1.625zM19.44 7.819l-4.801 1.92v1.625l4.801-1.92v-1.625z" fill="#eeeeee" />
</svg>
