<?xml version="1.0" encoding="utf-8"?>
<!-- Generated by IcoMoon.io -->
<!DOCTYPE svg PUBLIC "-//W3C//DTD SVG 1.1//EN" "http://www.w3.org/Graphics/SVG/1.1/DTD/svg11.dtd">
<svg version="1.1" xmlns="http://www.w3.org/2000/svg" xmlns:xlink="http://www.w3.org/1999/xlink" width="24" height="24" viewBox="0 0 24 24">
	<path d="M12 0.48c-6.362 0-11.52 5.158-11.52 11.52s5.158 11.52 11.52 11.52 11.52-5.158 11.52-11.52-5.158-11.52-11.52-11.52zM15.174 15.396c-2.402 0-3.236-1.092-3.679-2.45l-0.446-1.4c-0.332-1.021-0.601-1.76-1.823-1.76-0.847 0-1.951 0.556-1.951 2.278 0 1.344 0.924 2.184 1.882 2.184 0.814 0 1.301-0.457 1.555-0.685l0.425 1.213c-0.289 0.21-0.881 0.622-2.048 0.622-1.614 0-3.15-1.148-3.15-3.276 0-2.213 1.6-3.515 3.247-3.515 1.847 0 2.534 0.673 3.119 2.492l0.458 1.399c0.334 1.024 1.038 1.765 2.441 1.765 0.944 0 1.445-0.211 1.445-0.727 0-0.407-0.236-0.701-0.944-0.869l-0.944-0.224c-1.153-0.28-1.612-0.882-1.612-1.835 0-1.525 1.223-2.002 2.473-2.002 1.417 0 2.278 0.518 2.388 1.777l-1.388 0.169c-0.055-0.602-0.416-0.854-1.084-0.854-0.611 0-0.985 0.28-0.985 0.756 0 0.421 0.18 0.673 0.792 0.812l0.888 0.196c1.194 0.28 1.834 0.869 1.834 2.003-0.001 1.4-1.169 1.932-2.891 1.932z" fill="#eeeeee" />
</svg>
