<?xml version="1.0" encoding="utf-8"?>
<!-- Generated by IcoMoon.io -->
<!DOCTYPE svg PUBLIC "-//W3C//DTD SVG 1.1//EN" "http://www.w3.org/Graphics/SVG/1.1/DTD/svg11.dtd">
<svg version="1.1" xmlns="http://www.w3.org/2000/svg" xmlns:xlink="http://www.w3.org/1999/xlink" width="24" height="24" viewBox="0 0 24 24">
	<path d="M14.918 0c1.608 0 2.412 1.097 2.412 2.35 0 1.565-1.397 3.013-3.214 3.013-1.524 0-2.412-0.9-2.37-2.387 0-1.254 1.056-2.976 3.172-2.976zM9.971 24c-1.27 0-2.2-0.782-1.312-4.228l1.457-6.109c0.253-0.978 0.295-1.37 0-1.37-0.382 0-2.028 0.676-3.002 1.342l-0.634-1.057c3.088-2.623 6.638-4.16 8.161-4.16 1.268 0 1.478 1.526 0.846 3.875l-1.669 6.422c-0.295 1.135-0.169 1.526 0.126 1.526 0.382 0 1.628-0.472 2.855-1.45l0.72 0.978c-3.001 3.055-6.28 4.231-7.548 4.231z" fill="#eeeeee" />
</svg>
