<?xml version="1.0" encoding="utf-8"?>
<!-- Generated by IcoMoon.io -->
<!DOCTYPE svg PUBLIC "-//W3C//DTD SVG 1.1//EN" "http://www.w3.org/Graphics/SVG/1.1/DTD/svg11.dtd">
<svg version="1.1" xmlns="http://www.w3.org/2000/svg" xmlns:xlink="http://www.w3.org/1999/xlink" width="24" height="24" viewBox="0 0 24 24">
	<path d="M18.24 12c0 3.446-2.795 6.24-6.24 6.24-3.446 0-6.24-2.794-6.24-6.24 0-0.41 0.041-0.811 0.118-1.2h-4.198v8.294c0 1.781 1.442 3.226 3.226 3.226h14.189c1.781 0 3.226-1.444 3.226-3.226v-8.294h-4.196c0.076 0.389 0.116 0.79 0.116 1.2zM19.094 1.68h-14.189c-1.782 0-3.226 1.445-3.226 3.226v3.494h5.225c1.129-1.596 2.99-2.64 5.095-2.64s3.966 1.044 5.095 2.64h5.225v-3.494c0-1.781-1.445-3.226-3.226-3.226zM20.672 5.664c0 0.318-0.259 0.576-0.576 0.576h-1.727c-0.317 0-0.576-0.259-0.576-0.576v-1.728c0-0.318 0.26-0.576 0.576-0.576h1.727c0.318 0 0.576 0.259 0.576 0.576v1.728zM15.84 12c0-2.122-1.72-3.84-3.84-3.84s-3.84 1.718-3.84 3.84 1.72 3.84 3.84 3.84 3.84-1.718 3.84-3.84z" fill="#eeeeee" />
</svg>
